<svg version="1.1" viewBox="0.0 0.0 960.0 540.0" fill="none" stroke="none" stroke-linecap="square" stroke-miterlimit="10" xmlns:xlink="http://www.w3.org/1999/xlink" xmlns="http://www.w3.org/2000/svg"><clipPath id="g4da285de38_0_190.0"><path d="m0 0l960.0 0l0 540.0l-960.0 0l0 -540.0z" clip-rule="nonzero"/></clipPath><g clip-path="url(#g4da285de38_0_190.0)"><path fill="#ffffff" d="m0 0l960.0 0l0 540.0l-960.0 0z" fill-rule="evenodd"/><path fill="#ff00ff" fill-opacity="0.5923" d="m291.92404 269.99954l0 0c51.93564 -51.93567 136.13998 -51.93567 188.07565 0l0 0c24.940369 24.940369 38.95172 58.766785 38.95172 94.03781c0 35.271027 -14.011353 69.09744 -38.95172 94.03781l0 0c-51.93567 51.93567 -136.14001 51.93567 -188.07565 0l0 0c-51.935654 -51.93564 -51.935654 -136.13998 0 -188.07562z" fill-rule="evenodd"/><path stroke="#434343" stroke-width="1.0" stroke-linejoin="round" stroke-linecap="butt" d="m291.92404 269.99954l0 0c51.93564 -51.93567 136.13998 -51.93567 188.07565 0l0 0c24.940369 24.940369 38.95172 58.766785 38.95172 94.03781c0 35.271027 -14.011353 69.09744 -38.95172 94.03781l0 0c-51.93567 51.93567 -136.14001 51.93567 -188.07565 0l0 0c-51.935654 -51.93564 -51.935654 -136.13998 0 -188.07562z" fill-rule="evenodd"/><path fill="#00ff00" fill-opacity="0.5769" d="m479.9997 81.92388l0 0c51.93567 -51.935654 136.13995 -51.935654 188.07562 0l0 0c24.940369 24.940384 38.951782 58.766792 38.951782 94.03782c0 35.271027 -14.011414 69.09744 -38.951782 94.03784l0 0c-51.93567 51.93564 -136.13995 51.93564 -188.07562 0l0 0c-51.93567 -51.93567 -51.93567 -136.14 0 -188.07565z" fill-rule="evenodd"/><path stroke="#434343" stroke-width="1.0" stroke-linejoin="round" stroke-linecap="butt" d="m479.9997 81.92388l0 0c51.93567 -51.935654 136.13995 -51.935654 188.07562 0l0 0c24.940369 24.940384 38.951782 58.766792 38.951782 94.03782c0 35.271027 -14.011414 69.09744 -38.951782 94.03784l0 0c-51.93567 51.93564 -136.13995 51.93564 -188.07562 0l0 0c-51.93567 -51.93567 -51.93567 -136.14 0 -188.07565z" fill-rule="evenodd"/><path fill="#00ffff" fill-opacity="0.5846" d="m479.9997 269.99954l0 0c51.93567 -51.93567 136.13995 -51.93567 188.07562 0l0 0c24.940369 24.940369 38.951782 58.766785 38.951782 94.03781c0 35.271027 -14.011414 69.09744 -38.951782 94.03781l0 0c-51.93567 51.93567 -136.13995 51.93567 -188.07562 0l0 0c-51.93567 -51.93564 -51.93567 -136.13998 0 -188.07562z" fill-rule="evenodd"/><path stroke="#434343" stroke-width="1.0" stroke-linejoin="round" stroke-linecap="butt" d="m479.9997 269.99954l0 0c51.93567 -51.93567 136.13995 -51.93567 188.07562 0l0 0c24.940369 24.940369 38.951782 58.766785 38.951782 94.03781c0 35.271027 -14.011414 69.09744 -38.951782 94.03781l0 0c-51.93567 51.93567 -136.13995 51.93567 -188.07562 0l0 0c-51.93567 -51.93564 -51.93567 -136.13998 0 -188.07562z" fill-rule="evenodd"/><path fill="#ff9900" fill-opacity="0.5846" d="m291.92404 81.92388l0 0c51.93564 -51.935654 136.13998 -51.935654 188.07565 0l0 0c24.940369 24.940384 38.95172 58.766792 38.95172 94.03782c0 35.271027 -14.011353 69.09744 -38.95172 94.03784l0 0c-51.93567 51.93564 -136.14001 51.93564 -188.07565 0l0 0c-51.935654 -51.93567 -51.935654 -136.14 0 -188.07565z" fill-rule="evenodd"/><path stroke="#434343" stroke-width="1.0" stroke-linejoin="round" stroke-linecap="butt" d="m291.92404 81.92388l0 0c51.93564 -51.935654 136.13998 -51.935654 188.07565 0l0 0c24.940369 24.940384 38.95172 58.766792 38.95172 94.03782c0 35.271027 -14.011353 69.09744 -38.95172 94.03784l0 0c-51.93567 51.93564 -136.14001 51.93564 -188.07565 0l0 0c-51.935654 -51.93567 -51.935654 -136.14 0 -188.07565z" fill-rule="evenodd"/><path fill="#ff0000" fill-opacity="0.5231" d="m214.01826 269.99817l0 0c0 -73.448654 59.541885 -132.99055 132.99055 -132.99055l0 0c35.27127 0 69.09793 14.011475 94.03851 38.95204c24.940552 24.940567 38.952026 58.767227 38.952026 94.03851l0 0c0 73.44867 -59.5419 132.99057 -132.99054 132.99057l0 0c-73.44867 0 -132.99055 -59.5419 -132.99055 -132.99057z" fill-rule="evenodd"/><path stroke="#434343" stroke-width="1.0" stroke-linejoin="round" stroke-linecap="butt" d="m214.01826 269.99817l0 0c0 -73.448654 59.541885 -132.99055 132.99055 -132.99055l0 0c35.27127 0 69.09793 14.011475 94.03851 38.95204c24.940552 24.940567 38.952026 58.767227 38.952026 94.03851l0 0c0 73.44867 -59.5419 132.99057 -132.99054 132.99057l0 0c-73.44867 0 -132.99055 -59.5419 -132.99055 -132.99057z" fill-rule="evenodd"/><path fill="#38761d" fill-opacity="0.5385" d="m479.99936 269.99817l0 0c0 -73.448654 59.5419 -132.99055 132.99057 -132.99055l0 0c35.2713 0 69.09796 14.011475 94.03851 38.95204c24.940552 24.940567 38.952026 58.767227 38.952026 94.03851l0 0c0 73.44867 -59.54187 132.99057 -132.99054 132.99057l0 0c-73.44867 0 -132.99057 -59.5419 -132.99057 -132.99057z" fill-rule="evenodd"/><path stroke="#434343" stroke-width="1.0" stroke-linejoin="round" stroke-linecap="butt" d="m479.99936 269.99817l0 0c0 -73.448654 59.5419 -132.99055 132.99057 -132.99055l0 0c35.2713 0 69.09796 14.011475 94.03851 38.95204c24.940552 24.940567 38.952026 58.767227 38.952026 94.03851l0 0c0 73.44867 -59.54187 132.99057 -132.99054 132.99057l0 0c-73.44867 0 -132.99057 -59.5419 -132.99057 -132.99057z" fill-rule="evenodd"/><path fill="#ffff00" fill-opacity="0.5769" d="m347.00882 137.00761l0 0c0 -73.448654 59.5419 -132.99055 132.99054 -132.99055l0 0c35.27127 0 69.09793 14.011465 94.03854 38.95203c24.940552 24.94057 38.952026 58.76723 38.952026 94.03851l0 0c0 73.448654 -59.54193 132.99055 -132.99057 132.99055l0 0c-73.44864 0 -132.99054 -59.5419 -132.99054 -132.99055z" fill-rule="evenodd"/><path stroke="#434343" stroke-width="1.0" stroke-linejoin="round" stroke-linecap="butt" d="m347.00882 137.00761l0 0c0 -73.448654 59.5419 -132.99055 132.99054 -132.99055l0 0c35.27127 0 69.09793 14.011465 94.03854 38.95203c24.940552 24.94057 38.952026 58.76723 38.952026 94.03851l0 0c0 73.448654 -59.54193 132.99055 -132.99057 132.99055l0 0c-73.44864 0 -132.99054 -59.5419 -132.99054 -132.99055z" fill-rule="evenodd"/><path fill="#0000ff" fill-opacity="0.5538" d="m347.00882 402.98874l0 0c0 -73.44867 59.5419 -132.99057 132.99054 -132.99057l0 0c35.27127 0 69.09793 14.011475 94.03854 38.952026c24.940552 24.940582 38.952026 58.767242 38.952026 94.03854l0 0c0 73.44864 -59.54193 132.99051 -132.99057 132.99051l0 0c-73.44864 0 -132.99054 -59.54187 -132.99054 -132.99051z" fill-rule="evenodd"/><path stroke="#434343" stroke-width="1.0" stroke-linejoin="round" stroke-linecap="butt" d="m347.00882 402.98874l0 0c0 -73.44867 59.5419 -132.99057 132.99054 -132.99057l0 0c35.27127 0 69.09793 14.011475 94.03854 38.952026c24.940552 24.940582 38.952026 58.767242 38.952026 94.03854l0 0c0 73.44864 -59.54193 132.99051 -132.99057 132.99051l0 0c-73.44864 0 -132.99054 -59.54187 -132.99054 -132.99051z" fill-rule="evenodd"/></g></svg>