<svg version="1.1" viewBox="0.0 0.0 960.0 540.0" fill="none" stroke="none" stroke-linecap="square" stroke-miterlimit="10" xmlns:xlink="http://www.w3.org/1999/xlink" xmlns="http://www.w3.org/2000/svg"><clipPath id="p.0"><path d="m0 0l960.0 0l0 540.0l-960.0 0l0 -540.0z" clip-rule="nonzero"/></clipPath><g clip-path="url(#p.0)"><path fill="#ffffff" d="m0 0l960.0 0l0 540.0l-960.0 0z" fill-rule="evenodd"/><path fill="#ffff00" fill-opacity="0.5769" d="m214.09384 270.07635l0 0c0 -73.46266 59.553253 -133.01591 133.01593 -133.01591l0 0c35.278015 0 69.111115 14.01413 94.05646 38.959457c24.945312 24.945328 38.959442 58.778442 38.959442 94.05646l0 0c0 73.46265 -59.553253 133.01593 -133.0159 133.01593l0 0c-73.46268 0 -133.01593 -59.553284 -133.01593 -133.01593z" fill-rule="evenodd"/><path stroke="#434343" stroke-width="1.0" stroke-linejoin="round" stroke-linecap="butt" d="m214.09384 270.07635l0 0c0 -73.46266 59.553253 -133.01591 133.01593 -133.01591l0 0c35.278015 0 69.111115 14.01413 94.05646 38.959457c24.945312 24.945328 38.959442 58.778442 38.959442 94.05646l0 0c0 73.46265 -59.553253 133.01593 -133.0159 133.01593l0 0c-73.46268 0 -133.01593 -59.553284 -133.01593 -133.01593z" fill-rule="evenodd"/><path fill="#ffff00" fill-opacity="0.5769" d="m480.12567 270.07635l0 0c0 -73.46266 59.553284 -133.01591 133.01593 -133.01591l0 0c35.278015 0 69.111145 14.01413 94.05646 38.959457c24.945312 24.945328 38.959473 58.778442 38.959473 94.05646l0 0c0 73.46265 -59.553284 133.01593 -133.01593 133.01593l0 0c-73.46265 0 -133.01593 -59.553284 -133.01593 -133.01593z" fill-rule="evenodd"/><path stroke="#434343" stroke-width="1.0" stroke-linejoin="round" stroke-linecap="butt" d="m480.12567 270.07635l0 0c0 -73.46266 59.553284 -133.01591 133.01593 -133.01591l0 0c35.278015 0 69.111145 14.01413 94.05646 38.959457c24.945312 24.945328 38.959473 58.778442 38.959473 94.05646l0 0c0 73.46265 -59.553284 133.01593 -133.01593 133.01593l0 0c-73.46265 0 -133.01593 -59.553284 -133.01593 -133.01593z" fill-rule="evenodd"/><path fill="#ffff00" fill-opacity="0.5769" d="m347.10977 137.06044l0 0c0 -73.46267 59.553253 -133.01593 133.0159 -133.01593l0 0c35.278015 0 69.111145 14.014136 94.05646 38.95946c24.945312 24.945324 38.959473 58.77844 38.959473 94.05646l0 0c0 73.46266 -59.553284 133.01591 -133.01593 133.01591l0 0c-73.46265 0 -133.0159 -59.553253 -133.0159 -133.01591z" fill-rule="evenodd"/><path stroke="#434343" stroke-width="1.0" stroke-linejoin="round" stroke-linecap="butt" d="m347.10977 137.06044l0 0c0 -73.46267 59.553253 -133.01593 133.0159 -133.01593l0 0c35.278015 0 69.111145 14.014136 94.05646 38.95946c24.945312 24.945324 38.959473 58.77844 38.959473 94.05646l0 0c0 73.46266 -59.553284 133.01591 -133.01593 133.01591l0 0c-73.46265 0 -133.0159 -59.553253 -133.0159 -133.01591z" fill-rule="evenodd"/><path fill="#ffff00" fill-opacity="0.5769" d="m347.10977 403.0923l0 0c0 -73.46268 59.553253 -133.01593 133.0159 -133.01593l0 0c35.278015 0 69.111145 14.01413 94.05646 38.959473c24.945312 24.945312 38.959473 58.778442 38.959473 94.05646l0 0c0 73.46265 -59.553284 133.01593 -133.01593 133.01593l0 0c-73.46265 0 -133.0159 -59.553284 -133.0159 -133.01593z" fill-rule="evenodd"/><path stroke="#434343" stroke-width="1.0" stroke-linejoin="round" stroke-linecap="butt" d="m347.10977 403.0923l0 0c0 -73.46268 59.553253 -133.01593 133.0159 -133.01593l0 0c35.278015 0 69.111145 14.01413 94.05646 38.959473c24.945312 24.945312 38.959473 58.778442 38.959473 94.05646l0 0c0 73.46265 -59.553284 133.01593 -133.01593 133.01593l0 0c-73.46265 0 -133.0159 -59.553284 -133.0159 -133.01593z" fill-rule="evenodd"/><path fill="#00ffff" fill-opacity="0.5846" d="m291.92468 269.99997l0 0c51.93567 -51.935654 136.14001 -51.935654 188.07565 0l0 0c24.9404 24.940369 38.95175 58.766785 38.95175 94.03781c0 35.271027 -14.011353 69.09744 -38.95175 94.03784l0 0c-51.93564 51.93564 -136.13998 51.93564 -188.07565 0l0 0c-51.93564 -51.93567 -51.93564 -136.14001 0 -188.07565z" fill-rule="evenodd"/><path stroke="#434343" stroke-width="1.0" stroke-linejoin="round" stroke-linecap="butt" d="m291.92468 269.99997l0 0c51.93567 -51.935654 136.14001 -51.935654 188.07565 0l0 0c24.9404 24.940369 38.95175 58.766785 38.95175 94.03781c0 35.271027 -14.011353 69.09744 -38.95175 94.03784l0 0c-51.93564 51.93564 -136.13998 51.93564 -188.07565 0l0 0c-51.93564 -51.93567 -51.93564 -136.14001 0 -188.07565z" fill-rule="evenodd"/><path fill="#00ffff" fill-opacity="0.5846" d="m480.00034 81.92432l0 0c51.93564 -51.935654 136.13998 -51.935654 188.07565 0l0 0c24.940369 24.940384 38.95172 58.7668 38.95172 94.03783c0 35.271027 -14.011353 69.09744 -38.95172 94.03783l0 0c-51.93567 51.93564 -136.14001 51.93564 -188.07565 0l0 0c-51.93564 -51.935654 -51.93564 -136.14 0 -188.07565z" fill-rule="evenodd"/><path stroke="#434343" stroke-width="1.0" stroke-linejoin="round" stroke-linecap="butt" d="m480.00034 81.92432l0 0c51.93564 -51.935654 136.13998 -51.935654 188.07565 0l0 0c24.940369 24.940384 38.95172 58.7668 38.95172 94.03783c0 35.271027 -14.011353 69.09744 -38.95172 94.03783l0 0c-51.93567 51.93564 -136.14001 51.93564 -188.07565 0l0 0c-51.93564 -51.935654 -51.93564 -136.14 0 -188.07565z" fill-rule="evenodd"/><path fill="#00ffff" fill-opacity="0.5846" d="m480.00034 269.99997l0 0c51.93564 -51.935654 136.13998 -51.935654 188.07565 0l0 0c24.940369 24.940369 38.95172 58.766785 38.95172 94.03781c0 35.271027 -14.011353 69.09744 -38.95172 94.03784l0 0c-51.93567 51.93564 -136.14001 51.93564 -188.07565 0l0 0c-51.93564 -51.93567 -51.93564 -136.14001 0 -188.07565z" fill-rule="evenodd"/><path stroke="#434343" stroke-width="1.0" stroke-linejoin="round" stroke-linecap="butt" d="m480.00034 269.99997l0 0c51.93564 -51.935654 136.13998 -51.935654 188.07565 0l0 0c24.940369 24.940369 38.95172 58.766785 38.95172 94.03781c0 35.271027 -14.011353 69.09744 -38.95172 94.03784l0 0c-51.93567 51.93564 -136.14001 51.93564 -188.07565 0l0 0c-51.93564 -51.93567 -51.93564 -136.14001 0 -188.07565z" fill-rule="evenodd"/><path fill="#00ffff" fill-opacity="0.5846" d="m291.92468 81.92432l0 0c51.93567 -51.935654 136.14001 -51.935654 188.07565 0l0 0c24.9404 24.940384 38.95175 58.7668 38.95175 94.03783c0 35.271027 -14.011353 69.09744 -38.95175 94.03783l0 0c-51.93564 51.93564 -136.13998 51.93564 -188.07565 0l0 0c-51.93564 -51.935654 -51.93564 -136.14 0 -188.07565z" fill-rule="evenodd"/><path stroke="#434343" stroke-width="1.0" stroke-linejoin="round" stroke-linecap="butt" d="m291.92468 81.92432l0 0c51.93567 -51.935654 136.14001 -51.935654 188.07565 0l0 0c24.9404 24.940384 38.95175 58.7668 38.95175 94.03783c0 35.271027 -14.011353 69.09744 -38.95175 94.03783l0 0c-51.93564 51.93564 -136.13998 51.93564 -188.07565 0l0 0c-51.93564 -51.935654 -51.93564 -136.14 0 -188.07565z" fill-rule="evenodd"/></g></svg>