<svg version="1.1" viewBox="0.0 0.0 960.0 540.0" fill="none" stroke="none" stroke-linecap="square" stroke-miterlimit="10" xmlns:xlink="http://www.w3.org/1999/xlink" xmlns="http://www.w3.org/2000/svg"><clipPath id="g4da285de38_0_393.0"><path d="m0 0l960.0 0l0 540.0l-960.0 0l0 -540.0z" clip-rule="nonzero"/></clipPath><g clip-path="url(#g4da285de38_0_393.0)"><path fill="#ffffff" d="m0 0l960.0 0l0 540.0l-960.0 0z" fill-rule="evenodd"/><path fill="#018aff" fill-opacity="0.5538" d="m387.80725 501.10477c-16.689667 -6.7797546 -30.074982 -43.13443 -31.162506 -67.93045c-1.0875549 -24.79602 6.7956543 -55.148804 24.637207 -80.84567c17.841553 -25.696869 64.8923 -62.489044 82.41205 -73.33554c17.519775 -10.846466 17.59845 -11.538513 22.706482 8.256744c5.1080017 19.795258 12.877869 79.41434 7.9415894 110.51486c-4.93631 31.100494 -19.803558 58.86487 -37.559357 76.08823c-17.755829 17.223328 -52.285797 34.031616 -68.975464 27.251831z" fill-rule="evenodd"/><path fill="#03ffa2" fill-opacity="0.5385" d="m707.92816 364.20688c-6.779785 16.689667 -43.13446 30.074982 -67.93048 31.162506c-24.79602 1.0875549 -55.148804 -6.7956543 -80.84564 -24.637207c-25.6969 -17.841553 -62.489075 -64.8923 -73.33554 -82.41208c-10.846466 -17.519745 -11.538544 -17.59842 8.256744 -22.706451c19.795227 -5.1080017 79.41431 -12.877884 110.51483 -7.9415894c31.100525 4.93631 58.86487 19.803558 76.08826 37.559357c17.223328 17.755798 34.031616 52.285797 27.251831 68.975464z" fill-rule="evenodd"/><path fill="#c800ed" fill-opacity="0.5231" d="m249.04526 180.26587c6.77977 -16.689651 43.13443 -30.074951 67.93045 -31.162506c24.79602 -1.0875549 55.148804 6.7956696 80.84567 24.637222c25.696869 17.841553 62.489075 64.8923 73.33554 82.41206c10.846466 17.519745 11.538513 17.59845 -8.256744 22.706451c-19.795258 5.1080017 -79.41434 12.877899 -110.51486 7.9415894c-31.100494 -4.9362793 -58.86487 -19.803558 -76.088196 -37.559357c-17.223358 -17.755798 -34.03163 -52.285797 -27.251862 -68.975464z" fill-rule="evenodd"/><path fill="#018aff" fill-opacity="0.5538" d="m576.4719 497.5793c-16.595337 7.008362 -51.76825 -9.231873 -70.07193 -25.995605c-18.30365 -16.763763 -34.193756 -43.800323 -39.75003 -74.58688c-5.5562744 -30.78656 1.6945801 -90.07391 6.4123535 -110.13248c4.717743 -20.058563 4.283966 -20.603546 21.894104 -10.218842c17.610168 10.384705 65.2641 47.045746 83.76672 72.5271c18.502563 25.481323 27.623962 55.626495 27.248718 80.36096c-0.3751831 24.734436 -12.904602 61.037384 -29.499939 68.045746z" fill-rule="evenodd"/><path fill="#ffc800" fill-opacity="0.5769" d="m382.05807 43.027035c16.595306 -7.008362 51.76825 9.2318535 70.07193 25.995602c18.30365 16.763748 34.193756 43.80033 39.75003 74.58689c5.5562744 30.78656 -1.6946106 90.07391 -6.4123535 110.13246c-4.717743 20.058548 -4.2839966 20.603561 -21.894135 10.218857c-17.610138 -10.38472 -65.2641 -47.04576 -83.76666 -72.5271c-18.502594 -25.481339 -27.623962 -55.62651 -27.24878 -80.360954c0.37521362 -24.734451 12.904663 -61.0374 29.49997 -68.04576z" fill-rule="evenodd"/><path fill="#03ffa2" fill-opacity="0.5385" d="m707.72473 173.57188c7.008362 16.595306 -9.231873 51.768265 -25.995605 70.07193c-16.763733 18.303665 -43.800354 34.19374 -74.586914 39.750046c-30.78656 5.5562744 -90.07391 -1.6946106 -110.13245 -6.4123535c-20.058533 -4.717743 -20.603546 -4.2839966 -10.218842 -21.894135c10.384705 -17.610138 47.045746 -65.264114 72.52707 -83.76669c25.481384 -18.502563 55.626526 -27.623962 80.36096 -27.248749c24.734497 0.37519836 61.037415 12.904633 68.04578 29.499954z" fill-rule="evenodd"/><path fill="#c800ed" fill-opacity="0.5231" d="m253.17245 367.98575c-7.008362 -16.595337 9.231842 -51.76828 25.995605 -70.07193c16.763733 -18.30368 43.800323 -34.193756 74.58688 -39.75006c30.78656 -5.5562744 90.07391 1.6946106 110.13248 6.4123535c20.058533 4.717743 20.603546 4.2839966 10.218842 21.894135c-10.384705 17.610138 -47.045746 65.26413 -72.5271 83.76669c-25.481354 18.502563 -55.626495 27.623962 -80.36096 27.248749c-24.734436 -0.3751831 -61.037384 -12.904633 -68.045746 -29.499939z" fill-rule="evenodd"/><path fill="#ffc800" fill-opacity="0.5769" d="m571.7482 42.221874c16.689697 6.779766 30.075012 43.134426 31.162537 67.93045c1.0875244 24.796028 -6.7956543 55.14881 -24.637207 80.84568c-17.841553 25.696869 -64.892334 62.48906 -82.41208 73.335526c-17.519745 10.846466 -17.59845 11.538544 -22.706451 -8.256714c-5.1080017 -19.795273 -12.877899 -79.41435 -7.9415894 -110.51486c4.9362793 -31.100517 19.803558 -58.864876 37.559357 -76.08823c17.755768 -17.223343 52.285797 -34.031616 68.97543 -27.25185z" fill-rule="evenodd"/><path fill="#000000" fill-opacity="0.0" d="m368.3622 93.10499l101.19684 0l0 42.897636l-101.19684 0z" fill-rule="evenodd"/><path fill="#ffffff" d="m387.82782 119.33568q-1.265625 -1.34375 -1.265625 -3.25q0 -1.921875 1.265625 -3.25q1.28125 -1.328125 3.28125 -1.328125q1.984375 0 3.265625 1.328125q1.296875 1.328125 1.296875 3.234375q0 1.90625 -1.296875 3.25q-1.28125 1.34375 -3.265625 1.34375q-2.0 0 -3.28125 -1.328125zm1.375 -5.171875q-0.703125 0.765625 -0.703125 1.921875q0 1.15625 0.703125 1.921875q0.71875 0.765625 1.90625 0.765625q1.171875 0 1.875 -0.765625q0.71875 -0.765625 0.71875 -1.921875q0 -1.15625 -0.71875 -1.921875q-0.703125 -0.78125 -1.875 -0.78125q-1.1875 0 -1.90625 0.78125zm7.859375 10.25l0 -12.65625l1.390625 0l0.15625 0.328125q1.1875 -0.578125 2.40625 -0.578125q1.21875 0 2.109375 0.703125q0.890625 0.703125 1.265625 1.703125q0.375 1.0 0.375 2.125q0 1.953125 -1.015625 3.296875q-1.015625 1.328125 -2.875 1.328125q-1.203125 0 -1.828125 -0.328125l0 4.078125l-1.984375 0zm1.984375 -5.84375q0.515625 0.265625 1.609375 0.265625q0.78125 0 1.265625 -0.421875q0.5 -0.421875 0.671875 -1.03125q0.171875 -0.625 0.171875 -1.5q0 -1.1875 -0.546875 -1.90625q-0.53125 -0.71875 -1.3125 -0.71875q-0.890625 0 -1.859375 0.40625l0 4.90625zm6.7890625 -4.921875l0 -1.890625l1.359375 0l0 -2.328125l2.015625 0l0 2.328125l1.984375 0l0 1.890625l-1.984375 0l0 4.078125q0 0.5 0.09375 0.65625q0.109375 0.140625 0.5625 0.140625l1.15625 0l0 1.890625l-1.765625 0q-0.90625 0 -1.484375 -0.5q-0.578125 -0.5 -0.578125 -1.375l0 -4.890625l-1.359375 0zm6.8359375 6.765625l0 -8.65625l2.015625 0l0 8.65625l-2.015625 0zm0 -9.96875l0 -1.890625l2.015625 0l0 1.890625l-2.015625 0zm3.859375 9.96875l0 -8.65625l1.5 0l0.09375 0.25q0.640625 -0.5 1.796875 -0.5q0.671875 0 1.34375 0.25q0.671875 0.234375 0.875 0.453125q0.765625 -0.6875 2.0625 -0.703125q1.03125 0 1.953125 0.546875q0.921875 0.546875 0.921875 1.546875l0 6.8125l-2.015625 0l0 -6.171875q0 -0.84375 -1.0625 -0.84375q-0.765625 0 -1.203125 0.359375l0 6.65625l-2.015625 0l0 -6.171875q0 -0.84375 -1.0625 -0.84375q-0.765625 0 -1.203125 0.375l0 6.640625l-1.984375 0zm12.5390625 0l0 -8.65625l2.015625 0l0 8.65625l-2.015625 0zm0 -9.96875l0 -1.890625l2.015625 0l0 1.890625l-2.015625 0zm3.453125 8.625l1.3125 -1.375q0.515625 0.390625 0.96875 0.640625q0.859375 0.4375 1.4375 0.4375q0.5 0 0.953125 -0.25q0.46875 -0.265625 0.46875 -0.671875q0 -0.359375 -0.46875 -0.640625q-0.453125 -0.296875 -1.734375 -0.765625q-0.5625 -0.203125 -0.875 -0.328125q-0.3125 -0.140625 -0.75 -0.421875q-0.4375 -0.28125 -0.671875 -0.6875q-0.21875 -0.421875 -0.21875 -0.921875q0 -1.1875 1.046875 -1.875q1.046875 -0.703125 2.296875 -0.703125q0.9375 0 1.984375 0.453125q0.453125 0.1875 1.140625 0.640625l-1.234375 1.46875q-0.46875 -0.28125 -0.75 -0.40625q-0.640625 -0.28125 -1.140625 -0.28125q-0.578125 0 -0.96875 0.21875q-0.390625 0.21875 -0.390625 0.484375q0 0.015625 0.0625 0.078125q0.0625 0.0625 0.296875 0.1875q0.25 0.109375 0.4375 0.1875q0.203125 0.0625 0.5625 0.1875q0.921875 0.359375 1.375 0.5625q0.453125 0.203125 0.984375 0.578125q0.546875 0.359375 0.765625 0.859375q0.234375 0.484375 0.234375 1.125q0 0.9375 -0.625 1.609375q-0.609375 0.65625 -1.34375 0.9375q-0.734375 0.265625 -1.4375 0.265625q-1.046875 0 -2.375 -0.6875q-0.5625 -0.296875 -1.34375 -0.90625zm8.453125 1.34375l0 -8.65625l1.5 0l0.09375 0.25q0.640625 -0.5 1.796875 -0.5q0.671875 0 1.34375 0.25q0.671875 0.234375 0.875 0.453125q0.765625 -0.6875 2.0625 -0.703125q1.03125 0 1.953125 0.546875q0.921875 0.546875 0.921875 1.546875l0 6.8125l-2.015625 0l0 -6.171875q0 -0.84375 -1.0625 -0.84375q-0.765625 0 -1.203125 0.359375l0 6.65625l-2.015625 0l0 -6.171875q0 -0.84375 -1.0625 -0.84375q-0.765625 0 -1.203125 0.375l0 6.640625l-1.984375 0z" fill-rule="nonzero"/><path fill="#000000" fill-opacity="0.0" d="m505.65878 93.10499l65.543304 0l0 42.897636l-65.543304 0z" fill-rule="evenodd"/><path fill="#ffffff" d="m523.56323 120.4138l0 -12.65625l2.015625 0l0 12.65625l-2.015625 0zm4.8671875 -1.078125q-1.265625 -1.34375 -1.265625 -3.25q0 -1.921875 1.265625 -3.25q1.28125 -1.328125 3.28125 -1.328125q1.984375 0 3.265625 1.328125q1.296875 1.328125 1.296875 3.234375q0 1.90625 -1.296875 3.25q-1.28125 1.34375 -3.265625 1.34375q-2.0 0 -3.28125 -1.328125zm1.375 -5.171875q-0.703125 0.765625 -0.703125 1.921875q0 1.15625 0.703125 1.921875q0.71875 0.765625 1.90625 0.765625q1.171875 0 1.875 -0.765625q0.71875 -0.765625 0.71875 -1.921875q0 -1.15625 -0.71875 -1.921875q-0.703125 -0.78125 -1.875 -0.78125q-1.1875 0 -1.90625 0.78125zm7.25 -2.40625l2.171875 0l2.203125 5.984375l2.234375 -5.984375l2.15625 0l-3.40625 8.65625l-1.96875 0l-3.390625 -8.65625zm9.5546875 4.296875q0 -2.046875 1.109375 -3.296875q1.125 -1.25 2.9375 -1.25q3.671875 0 3.671875 5.375l-5.703125 0q0.03125 0.546875 0.59375 1.21875q0.578125 0.671875 1.75 0.671875q1.453125 0 2.96875 -0.671875l0 1.96875q-1.46875 0.578125 -2.796875 0.59375q-1.171875 0 -2.0625 -0.375q-0.890625 -0.390625 -1.4375 -1.046875q-0.53125 -0.65625 -0.78125 -1.453125q-0.25 -0.8125 -0.25 -1.734375zm2.0625 -0.875l3.59375 0q-0.0625 -0.625 -0.484375 -1.203125q-0.40625 -0.59375 -1.15625 -0.59375q-0.765625 0 -1.328125 0.578125q-0.546875 0.578125 -0.625 1.21875z" fill-rule="nonzero"/><path fill="#000000" fill-opacity="0.0" d="m579.6352 184.39633l114.99213 0l0 42.89763l-114.99213 0z" fill-rule="evenodd"/><path fill="#ffffff" d="m596.88513 210.36139l1.3125 -1.375q0.515625 0.390625 0.96875 0.640625q0.859375 0.4375 1.4375 0.4375q0.5 0 0.953125 -0.25q0.46875 -0.265625 0.46875 -0.671875q0 -0.359375 -0.46875 -0.640625q-0.453125 -0.296875 -1.734375 -0.765625q-0.5625 -0.203125 -0.875 -0.328125q-0.3125 -0.140625 -0.75 -0.421875q-0.4375 -0.28125 -0.671875 -0.6875q-0.21875 -0.421875 -0.21875 -0.921875q0 -1.1875 1.046875 -1.875q1.046875 -0.703125 2.296875 -0.703125q0.9375 0 1.984375 0.453125q0.453125 0.1875 1.140625 0.640625l-1.234375 1.46875q-0.46875 -0.28125 -0.75 -0.40625q-0.640625 -0.28125 -1.140625 -0.28125q-0.578125 0 -0.96875 0.21875q-0.390625 0.21875 -0.390625 0.484375q0 0.015625 0.0625 0.078125q0.0625 0.0625 0.296875 0.1875q0.25 0.109375 0.4375 0.1875q0.203125 0.0625 0.5625 0.1875q0.921875 0.359375 1.375 0.5625q0.453125 0.203125 0.984375 0.578125q0.546875 0.359375 0.765625 0.859375q0.234375 0.484375 0.234375 1.125q0 0.9375 -0.625 1.609375q-0.609375 0.65625 -1.34375 0.9375q-0.734375 0.265625 -1.4375 0.265625q-1.046875 0 -2.375 -0.6875q-0.5625 -0.296875 -1.34375 -0.90625zm8.578125 -1.4375l0 -5.875l1.984375 0l0 5.875q0 0.484375 0.46875 0.78125q0.484375 0.296875 1.171875 0.296875q0.703125 0 1.171875 -0.296875q0.46875 -0.296875 0.46875 -0.78125l0 -5.875l2.0 0l0 5.875q0 1.421875 -1.125 2.234375q-1.125 0.796875 -2.515625 0.796875q-1.390625 0 -2.515625 -0.796875q-1.109375 -0.796875 -1.109375 -2.234375zm8.9765625 2.78125l0 -12.65625l1.984375 0l0 4.0625q0.84375 -0.296875 2.0 -0.3125q0.96875 0 1.71875 0.390625q0.75 0.390625 1.15625 1.03125q0.40625 0.640625 0.59375 1.375q0.203125 0.71875 0.203125 1.484375q0 2.25 -1.1875 3.4375q-1.1875 1.1875 -3.671875 1.1875l-2.796875 0zm1.984375 -1.890625l0.8125 0q1.546875 0 2.1875 -0.640625q0.65625 -0.640625 0.65625 -2.140625q0 -0.96875 -0.421875 -1.65625q-0.40625 -0.6875 -1.25 -0.6875q-1.296875 0 -1.984375 0.28125l0 4.84375zm7.0 1.890625l0 -8.65625l1.5 0l0.09375 0.25q0.640625 -0.5 1.796875 -0.5q0.671875 0 1.34375 0.25q0.671875 0.234375 0.875 0.453125q0.765625 -0.6875 2.0625 -0.703125q1.03125 0 1.953125 0.546875q0.921875 0.546875 0.921875 1.546875l0 6.8125l-2.015625 0l0 -6.171875q0 -0.84375 -1.0625 -0.84375q-0.765625 0 -1.203125 0.359375l0 6.65625l-2.015625 0l0 -6.171875q0 -0.84375 -1.0625 -0.84375q-0.765625 0 -1.203125 0.375l0 6.640625l-1.984375 0zm12.5390625 0l0 -8.65625l2.015625 0l0 8.65625l-2.015625 0zm0 -9.96875l0 -1.890625l2.015625 0l0 1.890625l-2.015625 0zm3.453125 8.625l1.3125 -1.375q0.515625 0.390625 0.96875 0.640625q0.859375 0.4375 1.4375 0.4375q0.5 0 0.953125 -0.25q0.46875 -0.265625 0.46875 -0.671875q0 -0.359375 -0.46875 -0.640625q-0.453125 -0.296875 -1.734375 -0.765625q-0.5625 -0.203125 -0.875 -0.328125q-0.3125 -0.140625 -0.75 -0.421875q-0.4375 -0.28125 -0.671875 -0.6875q-0.21875 -0.421875 -0.21875 -0.921875q0 -1.1875 1.046875 -1.875q1.046875 -0.703125 2.296875 -0.703125q0.9375 0 1.984375 0.453125q0.453125 0.1875 1.140625 0.640625l-1.234375 1.46875q-0.46875 -0.28125 -0.75 -0.40625q-0.640625 -0.28125 -1.140625 -0.28125q-0.578125 0 -0.96875 0.21875q-0.390625 0.21875 -0.390625 0.484375q0 0.015625 0.0625 0.078125q0.0625 0.0625 0.296875 0.1875q0.25 0.109375 0.4375 0.1875q0.203125 0.0625 0.5625 0.1875q0.921875 0.359375 1.375 0.5625q0.453125 0.203125 0.984375 0.578125q0.546875 0.359375 0.765625 0.859375q0.234375 0.484375 0.234375 1.125q0 0.9375 -0.625 1.609375q-0.609375 0.65625 -1.34375 0.9375q-0.734375 0.265625 -1.4375 0.265625q-1.046875 0 -2.375 -0.6875q-0.5625 -0.296875 -1.34375 -0.90625zm8.046875 0l1.3125 -1.375q0.515625 0.390625 0.96875 0.640625q0.859375 0.4375 1.4375 0.4375q0.5 0 0.953125 -0.25q0.46875 -0.265625 0.46875 -0.671875q0 -0.359375 -0.46875 -0.640625q-0.453125 -0.296875 -1.734375 -0.765625q-0.5625 -0.203125 -0.875 -0.328125q-0.3125 -0.140625 -0.75 -0.421875q-0.4375 -0.28125 -0.671875 -0.6875q-0.21875 -0.421875 -0.21875 -0.921875q0 -1.1875 1.046875 -1.875q1.046875 -0.703125 2.296875 -0.703125q0.9375 0 1.984375 0.453125q0.453125 0.1875 1.140625 0.640625l-1.234375 1.46875q-0.46875 -0.28125 -0.75 -0.40625q-0.640625 -0.28125 -1.140625 -0.28125q-0.578125 0 -0.96875 0.21875q-0.390625 0.21875 -0.390625 0.484375q0 0.015625 0.0625 0.078125q0.0625 0.0625 0.296875 0.1875q0.25 0.109375 0.4375 0.1875q0.203125 0.0625 0.5625 0.1875q0.921875 0.359375 1.375 0.5625q0.453125 0.203125 0.984375 0.578125q0.546875 0.359375 0.765625 0.859375q0.234375 0.484375 0.234375 1.125q0 0.9375 -0.625 1.609375q-0.609375 0.65625 -1.34375 0.9375q-0.734375 0.265625 -1.4375 0.265625q-1.046875 0 -2.375 -0.6875q-0.5625 -0.296875 -1.34375 -0.90625zm8.609375 1.34375l0 -8.65625l2.015625 0l0 8.65625l-2.015625 0zm0 -9.96875l0 -1.890625l2.015625 0l0 1.890625l-2.015625 0zm4.875 8.890625q-1.265625 -1.34375 -1.265625 -3.25q0 -1.921875 1.265625 -3.25q1.28125 -1.328125 3.28125 -1.328125q1.984375 0 3.265625 1.328125q1.296875 1.328125 1.296875 3.234375q0 1.90625 -1.296875 3.25q-1.28125 1.34375 -3.265625 1.34375q-2.0 0 -3.28125 -1.328125zm1.375 -5.171875q-0.703125 0.765625 -0.703125 1.921875q0 1.15625 0.703125 1.921875q0.71875 0.765625 1.90625 0.765625q1.171875 0 1.875 -0.765625q0.71875 -0.765625 0.71875 -1.921875q0 -1.15625 -0.71875 -1.921875q-0.703125 -0.78125 -1.875 -0.78125q-1.1875 0 -1.90625 0.78125zm7.796875 6.25l0 -8.65625l1.515625 0l0.15625 0.4375q1.046875 -0.6875 2.421875 -0.6875q1.4375 0 2.359375 0.71875q0.9375 0.71875 0.9375 2.171875l0 6.015625l-2.015625 0l0 -6.015625q0 -1.0 -1.28125 -1.0q-1.140625 0 -2.109375 0.671875l0 6.34375l-1.984375 0z" fill-rule="nonzero"/><path fill="#000000" fill-opacity="0.0" d="m579.6352 311.30972l114.99213 0l0 42.897614l-114.99213 0z" fill-rule="evenodd"/><path fill="#ffffff" d="m622.8109 335.75916q0 -1.21875 0.875 -2.03125q0.890625 -0.8125 2.421875 -0.8125l1.796875 0l0 -0.28125q0 -0.609375 -0.203125 -0.8125q-0.1875 -0.21875 -0.828125 -0.21875q-0.5625 0 -1.71875 0.125l-1.4375 0.1875l0 -1.9375q1.15625 -0.078125 1.578125 -0.125q1.421875 -0.125 2.125 -0.140625q1.28125 0 1.890625 0.75q0.625 0.734375 0.625 1.703125l0 6.453125l-1.578125 0l-0.03125 -1.046875l0.046875 0.09375q-1.34375 1.125 -2.71875 1.109375q-1.375 0 -2.109375 -0.9375q-0.734375 -0.9375 -0.734375 -2.078125zm2.046875 0q0 0.53125 0.25 0.90625q0.25 0.375 0.828125 0.375q0.46875 0 1.078125 -0.203125q0.609375 -0.21875 1.09375 -0.5625l0.109375 0.3125l-0.3125 -1.9375l-1.796875 0q-1.25 0 -1.25 1.109375zm6.2734375 -5.796875l2.15625 0l1.5625 5.484375l1.609375 -5.484375l1.84375 0l1.59375 5.484375l1.59375 -5.484375l2.140625 0l-2.734375 8.65625l-2.015625 0l-1.515625 -5.4375l-1.5 5.4375l-2.0 0l-2.734375 -8.65625zm13.3203125 4.296875q0 -2.046875 1.109375 -3.296875q1.125 -1.25 2.9375 -1.25q3.671875 0 3.671875 5.375l-5.703125 0q0.03125 0.546875 0.59375 1.21875q0.578125 0.671875 1.75 0.671875q1.453125 0 2.96875 -0.671875l0 1.96875q-1.46875 0.578125 -2.796875 0.59375q-1.171875 0 -2.0625 -0.375q-0.890625 -0.390625 -1.4375 -1.046875q-0.53125 -0.65625 -0.78125 -1.453125q-0.25 -0.8125 -0.25 -1.734375zm2.0625 -0.875l3.59375 0q-0.0625 -0.625 -0.484375 -1.203125q-0.40625 -0.59375 -1.15625 -0.59375q-0.765625 0 -1.328125 0.578125q-0.546875 0.578125 -0.625 1.21875z" fill-rule="nonzero"/><path fill="#000000" fill-opacity="0.0" d="m258.14435 184.39633l134.20474 0l0 42.89763l-134.20474 0z" fill-rule="evenodd"/><path fill="#ffffff" d="m268.88736 208.84576q0 -1.21875 0.875 -2.03125q0.890625 -0.8125 2.421875 -0.8125l1.796875 0l0 -0.28125q0 -0.609375 -0.203125 -0.8125q-0.1875 -0.21875 -0.828125 -0.21875q-0.5625 0 -1.71875 0.125l-1.4375 0.1875l0 -1.9375q1.15625 -0.078125 1.578125 -0.125q1.421875 -0.125 2.125 -0.140625q1.28125 0 1.890625 0.75q0.625 0.734375 0.625 1.703125l0 6.453125l-1.578125 0l-0.03125 -1.046875l0.046875 0.09375q-1.34375 1.125 -2.71875 1.109375q-1.375 0 -2.109375 -0.9375q-0.734375 -0.9375 -0.734375 -2.078125zm2.046875 0q0 0.53125 0.25 0.90625q0.25 0.375 0.828125 0.375q0.46875 0 1.078125 -0.203125q0.609375 -0.21875 1.09375 -0.5625l0.109375 0.3125l-0.3125 -1.9375l-1.796875 0q-1.25 0 -1.25 1.109375zm6.7890625 -1.4375q0 -1.171875 0.375 -2.1875q0.375 -1.015625 1.25 -1.71875q0.875 -0.703125 2.09375 -0.703125q1.0625 0 2.265625 0.59375l0.171875 -0.34375l1.390625 0l0 9.453125q0 1.5 -0.90625 2.34375q-0.90625 0.859375 -2.609375 0.859375q-1.765625 0 -3.90625 -1.125l1.046875 -1.609375q1.59375 0.859375 2.859375 0.859375q1.515625 0 1.515625 -1.328125l0 -0.875q-0.578125 0.328125 -1.609375 0.328125q-1.875 0 -2.90625 -1.328125q-1.03125 -1.34375 -1.03125 -3.21875zm1.984375 -0.09375q0 0.578125 0.109375 1.046875q0.109375 0.46875 0.328125 0.890625q0.234375 0.421875 0.65625 0.65625q0.4375 0.21875 1.0625 0.21875q0.9375 0 1.40625 -0.25l0 -4.9375q-0.859375 -0.390625 -1.640625 -0.390625q-0.859375 0 -1.390625 0.703125q-0.53125 0.703125 -0.53125 2.0625zm7.2734375 0.09375q0 -1.171875 0.375 -2.1875q0.375 -1.015625 1.25 -1.71875q0.875 -0.703125 2.09375 -0.703125q1.0625 0 2.265625 0.59375l0.171875 -0.34375l1.390625 0l0 9.453125q0 1.5 -0.90625 2.34375q-0.90625 0.859375 -2.609375 0.859375q-1.765625 0 -3.90625 -1.125l1.046875 -1.609375q1.59375 0.859375 2.859375 0.859375q1.515625 0 1.515625 -1.328125l0 -0.875q-0.578125 0.328125 -1.609375 0.328125q-1.875 0 -2.90625 -1.328125q-1.03125 -1.34375 -1.03125 -3.21875zm1.984375 -0.09375q0 0.578125 0.109375 1.046875q0.109375 0.46875 0.328125 0.890625q0.234375 0.421875 0.65625 0.65625q0.4375 0.21875 1.0625 0.21875q0.9375 0 1.40625 -0.25l0 -4.9375q-0.859375 -0.390625 -1.640625 -0.390625q-0.859375 0 -1.390625 0.703125q-0.53125 0.703125 -0.53125 2.0625zm7.2734375 4.390625l0 -8.65625l1.515625 0l0.125 0.359375q0.75 -0.578125 1.65625 -0.59375q0.953125 0 2.046875 0.578125l-0.796875 1.625q-0.921875 -0.328125 -1.4375 -0.328125q-0.671875 0 -1.125 0.40625l0 6.609375l-1.984375 0zm6.3046875 -4.359375q0 -2.046875 1.109375 -3.296875q1.125 -1.25 2.9375 -1.25q3.671875 0 3.671875 5.375l-5.703125 0q0.03125 0.546875 0.59375 1.21875q0.578125 0.671875 1.75 0.671875q1.453125 0 2.96875 -0.671875l0 1.96875q-1.46875 0.578125 -2.796875 0.59375q-1.171875 0 -2.0625 -0.375q-0.890625 -0.390625 -1.4375 -1.046875q-0.53125 -0.65625 -0.78125 -1.453125q-0.25 -0.8125 -0.25 -1.734375zm2.0625 -0.875l3.59375 0q-0.0625 -0.625 -0.484375 -1.203125q-0.40625 -0.59375 -1.15625 -0.59375q-0.765625 0 -1.328125 0.578125q-0.546875 0.578125 -0.625 1.21875zm6.53125 3.890625l1.3125 -1.375q0.515625 0.390625 0.96875 0.640625q0.859375 0.4375 1.4375 0.4375q0.5 0 0.953125 -0.25q0.46875 -0.265625 0.46875 -0.671875q0 -0.359375 -0.46875 -0.640625q-0.453125 -0.296875 -1.734375 -0.765625q-0.5625 -0.203125 -0.875 -0.328125q-0.3125 -0.140625 -0.75 -0.421875q-0.4375 -0.28125 -0.671875 -0.6875q-0.21875 -0.421875 -0.21875 -0.921875q0 -1.1875 1.046875 -1.875q1.046875 -0.703125 2.296875 -0.703125q0.9375 0 1.984375 0.453125q0.453125 0.1875 1.140625 0.640625l-1.234375 1.46875q-0.46875 -0.28125 -0.75 -0.40625q-0.640625 -0.28125 -1.140625 -0.28125q-0.578125 0 -0.96875 0.21875q-0.390625 0.21875 -0.390625 0.484375q0 0.015625 0.0625 0.078125q0.0625 0.0625 0.296875 0.1875q0.25 0.109375 0.4375 0.1875q0.203125 0.0625 0.5625 0.1875q0.921875 0.359375 1.375 0.5625q0.453125 0.203125 0.984375 0.578125q0.546875 0.359375 0.765625 0.859375q0.234375 0.484375 0.234375 1.125q0 0.9375 -0.625 1.609375q-0.609375 0.65625 -1.34375 0.9375q-0.734375 0.265625 -1.4375 0.265625q-1.046875 0 -2.375 -0.6875q-0.5625 -0.296875 -1.34375 -0.90625zm8.046875 0l1.3125 -1.375q0.515625 0.390625 0.96875 0.640625q0.859375 0.4375 1.4375 0.4375q0.5 0 0.953125 -0.25q0.46875 -0.265625 0.46875 -0.671875q0 -0.359375 -0.46875 -0.640625q-0.453125 -0.296875 -1.734375 -0.765625q-0.5625 -0.203125 -0.875 -0.328125q-0.3125 -0.140625 -0.75 -0.421875q-0.4375 -0.28125 -0.671875 -0.6875q-0.21875 -0.421875 -0.21875 -0.921875q0 -1.1875 1.046875 -1.875q1.046875 -0.703125 2.296875 -0.703125q0.9375 0 1.984375 0.453125q0.453125 0.1875 1.140625 0.640625l-1.234375 1.46875q-0.46875 -0.28125 -0.75 -0.40625q-0.640625 -0.28125 -1.140625 -0.28125q-0.578125 0 -0.96875 0.21875q-0.390625 0.21875 -0.390625 0.484375q0 0.015625 0.0625 0.078125q0.0625 0.0625 0.296875 0.1875q0.25 0.109375 0.4375 0.1875q0.203125 0.0625 0.5625 0.1875q0.921875 0.359375 1.375 0.5625q0.453125 0.203125 0.984375 0.578125q0.546875 0.359375 0.765625 0.859375q0.234375 0.484375 0.234375 1.125q0 0.9375 -0.625 1.609375q-0.609375 0.65625 -1.34375 0.9375q-0.734375 0.265625 -1.4375 0.265625q-1.046875 0 -2.375 -0.6875q-0.5625 -0.296875 -1.34375 -0.90625zm8.609375 1.34375l0 -8.65625l2.015625 0l0 8.65625l-2.015625 0zm0 -9.96875l0 -1.890625l2.015625 0l0 1.890625l-2.015625 0zm3.3125 1.3125l2.171875 0l2.203125 5.984375l2.234375 -5.984375l2.15625 0l-3.40625 8.65625l-1.96875 0l-3.390625 -8.65625zm9.5546875 4.296875q0 -2.046875 1.109375 -3.296875q1.125 -1.25 2.9375 -1.25q3.671875 0 3.671875 5.375l-5.703125 0q0.03125 0.546875 0.59375 1.21875q0.578125 0.671875 1.75 0.671875q1.453125 0 2.96875 -0.671875l0 1.96875q-1.46875 0.578125 -2.796875 0.59375q-1.171875 0 -2.0625 -0.375q-0.890625 -0.390625 -1.4375 -1.046875q-0.53125 -0.65625 -0.78125 -1.453125q-0.25 -0.8125 -0.25 -1.734375zm2.0625 -0.875l3.59375 0q-0.0625 -0.625 -0.484375 -1.203125q-0.40625 -0.59375 -1.15625 -0.59375q-0.765625 0 -1.328125 0.578125q-0.546875 0.578125 -0.625 1.21875zm6.9375 5.234375l0 -8.65625l1.515625 0l0.15625 0.4375q1.046875 -0.6875 2.421875 -0.6875q1.4375 0 2.359375 0.71875q0.9375 0.71875 0.9375 2.171875l0 6.015625l-2.015625 0l0 -6.015625q0 -1.0 -1.28125 -1.0q-1.140625 0 -2.109375 0.671875l0 6.34375l-1.984375 0zm8.8515625 -4.359375q0 -2.046875 1.109375 -3.296875q1.125 -1.25 2.9375 -1.25q3.671875 0 3.671875 5.375l-5.703125 0q0.03125 0.546875 0.59375 1.21875q0.578125 0.671875 1.75 0.671875q1.453125 0 2.96875 -0.671875l0 1.96875q-1.46875 0.578125 -2.796875 0.59375q-1.171875 0 -2.0625 -0.375q-0.890625 -0.390625 -1.4375 -1.046875q-0.53125 -0.65625 -0.78125 -1.453125q-0.25 -0.8125 -0.25 -1.734375zm2.0625 -0.875l3.59375 0q-0.0625 -0.625 -0.484375 -1.203125q-0.40625 -0.59375 -1.15625 -0.59375q-0.765625 0 -1.328125 0.578125q-0.546875 0.578125 -0.625 1.21875zm6.53125 3.890625l1.3125 -1.375q0.515625 0.390625 0.96875 0.640625q0.859375 0.4375 1.4375 0.4375q0.5 0 0.953125 -0.25q0.46875 -0.265625 0.46875 -0.671875q0 -0.359375 -0.46875 -0.640625q-0.453125 -0.296875 -1.734375 -0.765625q-0.5625 -0.203125 -0.875 -0.328125q-0.3125 -0.140625 -0.75 -0.421875q-0.4375 -0.28125 -0.671875 -0.6875q-0.21875 -0.421875 -0.21875 -0.921875q0 -1.1875 1.046875 -1.875q1.046875 -0.703125 2.296875 -0.703125q0.9375 0 1.984375 0.453125q0.453125 0.1875 1.140625 0.640625l-1.234375 1.46875q-0.46875 -0.28125 -0.75 -0.40625q-0.640625 -0.28125 -1.140625 -0.28125q-0.578125 0 -0.96875 0.21875q-0.390625 0.21875 -0.390625 0.484375q0 0.015625 0.0625 0.078125q0.0625 0.0625 0.296875 0.1875q0.25 0.109375 0.4375 0.1875q0.203125 0.0625 0.5625 0.1875q0.921875 0.359375 1.375 0.5625q0.453125 0.203125 0.984375 0.578125q0.546875 0.359375 0.765625 0.859375q0.234375 0.484375 0.234375 1.125q0 0.9375 -0.625 1.609375q-0.609375 0.65625 -1.34375 0.9375q-0.734375 0.265625 -1.4375 0.265625q-1.046875 0 -2.375 -0.6875q-0.5625 -0.296875 -1.34375 -0.90625zm8.046875 0l1.3125 -1.375q0.515625 0.390625 0.96875 0.640625q0.859375 0.4375 1.4375 0.4375q0.5 0 0.953125 -0.25q0.46875 -0.265625 0.46875 -0.671875q0 -0.359375 -0.46875 -0.640625q-0.453125 -0.296875 -1.734375 -0.765625q-0.5625 -0.203125 -0.875 -0.328125q-0.3125 -0.140625 -0.75 -0.421875q-0.4375 -0.28125 -0.671875 -0.6875q-0.21875 -0.421875 -0.21875 -0.921875q0 -1.1875 1.046875 -1.875q1.046875 -0.703125 2.296875 -0.703125q0.9375 0 1.984375 0.453125q0.453125 0.1875 1.140625 0.640625l-1.234375 1.46875q-0.46875 -0.28125 -0.75 -0.40625q-0.640625 -0.28125 -1.140625 -0.28125q-0.578125 0 -0.96875 0.21875q-0.390625 0.21875 -0.390625 0.484375q0 0.015625 0.0625 0.078125q0.0625 0.0625 0.296875 0.1875q0.25 0.109375 0.4375 0.1875q0.203125 0.0625 0.5625 0.1875q0.921875 0.359375 1.375 0.5625q0.453125 0.203125 0.984375 0.578125q0.546875 0.359375 0.765625 0.859375q0.234375 0.484375 0.234375 1.125q0 0.9375 -0.625 1.609375q-0.609375 0.65625 -1.34375 0.9375q-0.734375 0.265625 -1.4375 0.265625q-1.046875 0 -2.375 -0.6875q-0.5625 -0.296875 -1.34375 -0.90625z" fill-rule="nonzero"/><path fill="#000000" fill-opacity="0.0" d="m270.9895 312.00787l114.99213 0l0 42.897644l-114.99213 0z" fill-rule="evenodd"/><path fill="#ffffff" d="m295.47385 338.22293q-1.3125 -1.34375 -1.3125 -3.234375q0 -1.90625 1.3125 -3.234375q1.328125 -1.34375 3.21875 -1.34375q1.09375 0 2.484375 0.3125l0 1.890625q-1.4375 -0.328125 -2.484375 -0.328125q-1.078125 0 -1.828125 0.796875q-0.734375 0.78125 -0.734375 1.90625q0 1.125 0.734375 1.90625q0.75 0.78125 1.828125 0.78125q1.03125 0 2.484375 -0.3125l0 1.890625q-1.375 0.3125 -2.484375 0.3125q-1.890625 0 -3.21875 -1.34375zm7.984375 0.015625q-1.265625 -1.34375 -1.265625 -3.25q0 -1.921875 1.265625 -3.25q1.28125 -1.328125 3.28125 -1.328125q1.984375 0 3.265625 1.328125q1.296875 1.328125 1.296875 3.234375q0 1.90625 -1.296875 3.25q-1.28125 1.34375 -3.265625 1.34375q-2.0 0 -3.28125 -1.328125zm1.375 -5.171875q-0.703125 0.765625 -0.703125 1.921875q0 1.15625 0.703125 1.921875q0.71875 0.765625 1.90625 0.765625q1.171875 0 1.875 -0.765625q0.71875 -0.765625 0.71875 -1.921875q0 -1.15625 -0.71875 -1.921875q-0.703125 -0.78125 -1.875 -0.78125q-1.1875 0 -1.90625 0.78125zm7.796875 6.25l0 -8.65625l1.515625 0l0.15625 0.4375q1.046875 -0.6875 2.421875 -0.6875q1.4375 0 2.359375 0.71875q0.9375 0.71875 0.9375 2.171875l0 6.015625l-2.015625 0l0 -6.015625q0 -1.0 -1.28125 -1.0q-1.140625 0 -2.109375 0.671875l0 6.34375l-1.984375 0zm8.8515625 -6.765625l0 -1.890625l1.359375 0l0 -2.328125l2.015625 0l0 2.328125l1.984375 0l0 1.890625l-1.984375 0l0 4.078125q0 0.5 0.09375 0.65625q0.109375 0.140625 0.5625 0.140625l1.15625 0l0 1.890625l-1.765625 0q-0.90625 0 -1.484375 -0.5q-0.578125 -0.5 -0.578125 -1.375l0 -4.890625l-1.359375 0zm6.4296875 2.40625q0 -2.046875 1.109375 -3.296875q1.125 -1.25 2.9375 -1.25q3.671875 0 3.671875 5.375l-5.703125 0q0.03125 0.546875 0.59375 1.21875q0.578125 0.671875 1.75 0.671875q1.453125 0 2.96875 -0.671875l0 1.96875q-1.46875 0.578125 -2.796875 0.59375q-1.171875 0 -2.0625 -0.375q-0.890625 -0.390625 -1.4375 -1.046875q-0.53125 -0.65625 -0.78125 -1.453125q-0.25 -0.8125 -0.25 -1.734375zm2.0625 -0.875l3.59375 0q-0.0625 -0.625 -0.484375 -1.203125q-0.40625 -0.59375 -1.15625 -0.59375q-0.765625 0 -1.328125 0.578125q-0.546875 0.578125 -0.625 1.21875zm6.9375 5.234375l0 -8.65625l1.5 0l0.09375 0.25q0.640625 -0.5 1.796875 -0.5q0.671875 0 1.34375 0.25q0.671875 0.234375 0.875 0.453125q0.765625 -0.6875 2.0625 -0.703125q1.03125 0 1.953125 0.546875q0.921875 0.546875 0.921875 1.546875l0 6.8125l-2.015625 0l0 -6.171875q0 -0.84375 -1.0625 -0.84375q-0.765625 0 -1.203125 0.359375l0 6.65625l-2.015625 0l0 -6.171875q0 -0.84375 -1.0625 -0.84375q-0.765625 0 -1.203125 0.375l0 6.640625l-1.984375 0zm12.4453125 4.0l0 -12.65625l1.390625 0l0.15625 0.328125q1.1875 -0.578125 2.40625 -0.578125q1.21875 0 2.109375 0.703125q0.890625 0.703125 1.265625 1.703125q0.375 1.0 0.375 2.125q0 1.953125 -1.015625 3.296875q-1.015625 1.328125 -2.875 1.328125q-1.203125 0 -1.828125 -0.328125l0 4.078125l-1.984375 0zm1.984375 -5.84375q0.515625 0.265625 1.609375 0.265625q0.78125 0 1.265625 -0.421875q0.5 -0.421875 0.671875 -1.03125q0.171875 -0.625 0.171875 -1.5q0 -1.1875 -0.546875 -1.90625q-0.53125 -0.71875 -1.3125 -0.71875q-0.890625 0 -1.859375 0.40625l0 4.90625zm6.7890625 -4.921875l0 -1.890625l1.359375 0l0 -2.328125l2.015625 0l0 2.328125l1.984375 0l0 1.890625l-1.984375 0l0 4.078125q0 0.5 0.09375 0.65625q0.109375 0.140625 0.5625 0.140625l1.15625 0l0 1.890625l-1.765625 0q-0.90625 0 -1.484375 -0.5q-0.578125 -0.5 -0.578125 -1.375l0 -4.890625l-1.359375 0z" fill-rule="nonzero"/><path fill="#000000" fill-opacity="0.0" d="m365.12335 415.96063l101.19687 0l0 42.897644l-101.19687 0z" fill-rule="evenodd"/><path fill="#ffffff" d="m386.2335 443.26944l0 -8.65625l1.515625 0l0.125 0.359375q0.75 -0.578125 1.65625 -0.59375q0.953125 0 2.046875 0.578125l-0.796875 1.625q-0.921875 -0.328125 -1.4375 -0.328125q-0.671875 0 -1.125 0.40625l0 6.609375l-1.984375 0zm6.3046875 -4.359375q0 -2.046875 1.109375 -3.296875q1.125 -1.25 2.9375 -1.25q3.671875 0 3.671875 5.375l-5.703125 0q0.03125 0.546875 0.59375 1.21875q0.578125 0.671875 1.75 0.671875q1.453125 0 2.96875 -0.671875l0 1.96875q-1.46875 0.578125 -2.796875 0.59375q-1.171875 0 -2.0625 -0.375q-0.890625 -0.390625 -1.4375 -1.046875q-0.53125 -0.65625 -0.78125 -1.453125q-0.25 -0.8125 -0.25 -1.734375zm2.0625 -0.875l3.59375 0q-0.0625 -0.625 -0.484375 -1.203125q-0.40625 -0.59375 -1.15625 -0.59375q-0.765625 0 -1.328125 0.578125q-0.546875 0.578125 -0.625 1.21875zm6.9375 5.234375l0 -8.65625l1.5 0l0.09375 0.25q0.640625 -0.5 1.796875 -0.5q0.671875 0 1.34375 0.25q0.671875 0.234375 0.875 0.453125q0.765625 -0.6875 2.0625 -0.703125q1.03125 0 1.953125 0.546875q0.921875 0.546875 0.921875 1.546875l0 6.8125l-2.015625 0l0 -6.171875q0 -0.84375 -1.0625 -0.84375q-0.765625 0 -1.203125 0.359375l0 6.65625l-2.015625 0l0 -6.171875q0 -0.84375 -1.0625 -0.84375q-0.765625 0 -1.203125 0.375l0 6.640625l-1.984375 0zm13.3984375 -1.078125q-1.265625 -1.34375 -1.265625 -3.25q0 -1.921875 1.265625 -3.25q1.28125 -1.328125 3.28125 -1.328125q1.984375 0 3.265625 1.328125q1.296875 1.328125 1.296875 3.234375q0 1.90625 -1.296875 3.25q-1.28125 1.34375 -3.265625 1.34375q-2.0 0 -3.28125 -1.328125zm1.375 -5.171875q-0.703125 0.765625 -0.703125 1.921875q0 1.15625 0.703125 1.921875q0.71875 0.765625 1.90625 0.765625q1.171875 0 1.875 -0.765625q0.71875 -0.765625 0.71875 -1.921875q0 -1.15625 -0.71875 -1.921875q-0.703125 -0.78125 -1.875 -0.78125q-1.1875 0 -1.90625 0.78125zm7.796875 6.25l0 -8.65625l1.515625 0l0.125 0.359375q0.75 -0.578125 1.65625 -0.59375q0.953125 0 2.046875 0.578125l-0.796875 1.625q-0.921875 -0.328125 -1.4375 -0.328125q-0.671875 0 -1.125 0.40625l0 6.609375l-1.984375 0zm6.1484375 -1.34375l1.3125 -1.375q0.515625 0.390625 0.96875 0.640625q0.859375 0.4375 1.4375 0.4375q0.5 0 0.953125 -0.25q0.46875 -0.265625 0.46875 -0.671875q0 -0.359375 -0.46875 -0.640625q-0.453125 -0.296875 -1.734375 -0.765625q-0.5625 -0.203125 -0.875 -0.328125q-0.3125 -0.140625 -0.75 -0.421875q-0.4375 -0.28125 -0.671875 -0.6875q-0.21875 -0.421875 -0.21875 -0.921875q0 -1.1875 1.046875 -1.875q1.046875 -0.703125 2.296875 -0.703125q0.9375 0 1.984375 0.453125q0.453125 0.1875 1.140625 0.640625l-1.234375 1.46875q-0.46875 -0.28125 -0.75 -0.40625q-0.640625 -0.28125 -1.140625 -0.28125q-0.578125 0 -0.96875 0.21875q-0.390625 0.21875 -0.390625 0.484375q0 0.015625 0.0625 0.078125q0.0625 0.0625 0.296875 0.1875q0.25 0.109375 0.4375 0.1875q0.203125 0.0625 0.5625 0.1875q0.921875 0.359375 1.375 0.5625q0.453125 0.203125 0.984375 0.578125q0.546875 0.359375 0.765625 0.859375q0.234375 0.484375 0.234375 1.125q0 0.9375 -0.625 1.609375q-0.609375 0.65625 -1.34375 0.9375q-0.734375 0.265625 -1.4375 0.265625q-1.046875 0 -2.375 -0.6875q-0.5625 -0.296875 -1.34375 -0.90625zm8.203125 -3.015625q0 -2.046875 1.109375 -3.296875q1.125 -1.25 2.9375 -1.25q3.671875 0 3.671875 5.375l-5.703125 0q0.03125 0.546875 0.59375 1.21875q0.578125 0.671875 1.75 0.671875q1.453125 0 2.96875 -0.671875l0 1.96875q-1.46875 0.578125 -2.796875 0.59375q-1.171875 0 -2.0625 -0.375q-0.890625 -0.390625 -1.4375 -1.046875q-0.53125 -0.65625 -0.78125 -1.453125q-0.25 -0.8125 -0.25 -1.734375zm2.0625 -0.875l3.59375 0q-0.0625 -0.625 -0.484375 -1.203125q-0.40625 -0.59375 -1.15625 -0.59375q-0.765625 0 -1.328125 0.578125q-0.546875 0.578125 -0.625 1.21875z" fill-rule="nonzero"/><path fill="#000000" fill-opacity="0.0" d="m489.4672 415.96063l108.81888 0l0 42.897644l-108.81888 0z" fill-rule="evenodd"/><path fill="#ffffff" d="m501.5876 438.66006q0 -1.109375 0.375 -2.046875q0.390625 -0.953125 1.265625 -1.59375q0.875 -0.65625 2.09375 -0.65625q1.234375 0 1.921875 0.390625l0 -4.140625l2.015625 0l0 12.65625l-1.515625 0l-0.125 -0.375q-0.796875 0.609375 -2.15625 0.625q-1.640625 0 -2.765625 -1.4375q-1.109375 -1.453125 -1.109375 -3.421875zm2.015625 -0.125q0 1.296875 0.59375 2.1875q0.59375 0.890625 1.46875 0.890625q0.921875 0 1.578125 -0.453125l0 -4.515625q-0.78125 -0.46875 -1.8125 -0.46875q-0.828125 0 -1.328125 0.609375q-0.5 0.609375 -0.5 1.75zm7.3984375 4.734375l0 -8.65625l2.015625 0l0 8.65625l-2.015625 0zm0 -9.96875l0 -1.890625l2.015625 0l0 1.890625l-2.015625 0zm3.453125 8.625l1.3125 -1.375q0.515625 0.390625 0.96875 0.640625q0.859375 0.4375 1.4375 0.4375q0.5 0 0.953125 -0.25q0.46875 -0.265625 0.46875 -0.671875q0 -0.359375 -0.46875 -0.640625q-0.453125 -0.296875 -1.734375 -0.765625q-0.5625 -0.203125 -0.875 -0.328125q-0.3125 -0.140625 -0.75 -0.421875q-0.4375 -0.28125 -0.671875 -0.6875q-0.21875 -0.421875 -0.21875 -0.921875q0 -1.1875 1.046875 -1.875q1.046875 -0.703125 2.296875 -0.703125q0.9375 0 1.984375 0.453125q0.453125 0.1875 1.140625 0.640625l-1.234375 1.46875q-0.46875 -0.28125 -0.75 -0.40625q-0.640625 -0.28125 -1.140625 -0.28125q-0.578125 0 -0.96875 0.21875q-0.390625 0.21875 -0.390625 0.484375q0 0.015625 0.0625 0.078125q0.0625 0.0625 0.296875 0.1875q0.25 0.109375 0.4375 0.1875q0.203125 0.0625 0.5625 0.1875q0.921875 0.359375 1.375 0.5625q0.453125 0.203125 0.984375 0.578125q0.546875 0.359375 0.765625 0.859375q0.234375 0.484375 0.234375 1.125q0 0.9375 -0.625 1.609375q-0.609375 0.65625 -1.34375 0.9375q-0.734375 0.265625 -1.4375 0.265625q-1.046875 0 -2.375 -0.6875q-0.5625 -0.296875 -1.34375 -0.90625zm8.203125 -1.515625q0 -1.21875 0.875 -2.03125q0.890625 -0.8125 2.421875 -0.8125l1.796875 0l0 -0.28125q0 -0.609375 -0.203125 -0.8125q-0.1875 -0.21875 -0.828125 -0.21875q-0.5625 0 -1.71875 0.125l-1.4375 0.1875l0 -1.9375q1.15625 -0.078125 1.578125 -0.125q1.421875 -0.125 2.125 -0.140625q1.28125 0 1.890625 0.75q0.625 0.734375 0.625 1.703125l0 6.453125l-1.578125 0l-0.03125 -1.046875l0.046875 0.09375q-1.34375 1.125 -2.71875 1.109375q-1.375 0 -2.109375 -0.9375q-0.734375 -0.9375 -0.734375 -2.078125zm2.046875 0q0 0.53125 0.25 0.90625q0.25 0.375 0.828125 0.375q0.46875 0 1.078125 -0.203125q0.609375 -0.21875 1.09375 -0.5625l0.109375 0.3125l-0.3125 -1.9375l-1.796875 0q-1.25 0 -1.25 1.109375zm6.8515625 6.859375l0 -12.65625l1.390625 0l0.15625 0.328125q1.1875 -0.578125 2.40625 -0.578125q1.21875 0 2.109375 0.703125q0.890625 0.703125 1.265625 1.703125q0.375 1.0 0.375 2.125q0 1.953125 -1.015625 3.296875q-1.015625 1.328125 -2.875 1.328125q-1.203125 0 -1.828125 -0.328125l0 4.078125l-1.984375 0zm1.984375 -5.84375q0.515625 0.265625 1.609375 0.265625q0.78125 0 1.265625 -0.421875q0.5 -0.421875 0.671875 -1.03125q0.171875 -0.625 0.171875 -1.5q0 -1.1875 -0.546875 -1.90625q-0.53125 -0.71875 -1.3125 -0.71875q-0.890625 0 -1.859375 0.40625l0 4.90625zm7.1015625 5.84375l0 -12.65625l1.390625 0l0.15625 0.328125q1.1875 -0.578125 2.40625 -0.578125q1.21875 0 2.109375 0.703125q0.890625 0.703125 1.265625 1.703125q0.375 1.0 0.375 2.125q0 1.953125 -1.015625 3.296875q-1.015625 1.328125 -2.875 1.328125q-1.203125 0 -1.828125 -0.328125l0 4.078125l-1.984375 0zm1.984375 -5.84375q0.515625 0.265625 1.609375 0.265625q0.78125 0 1.265625 -0.421875q0.5 -0.421875 0.671875 -1.03125q0.171875 -0.625 0.171875 -1.5q0 -1.1875 -0.546875 -1.90625q-0.53125 -0.71875 -1.3125 -0.71875q-0.890625 0 -1.859375 0.40625l0 4.90625zm7.0390625 1.84375l0 -8.65625l1.515625 0l0.125 0.359375q0.75 -0.578125 1.65625 -0.59375q0.953125 0 2.046875 0.578125l-0.796875 1.625q-0.921875 -0.328125 -1.4375 -0.328125q-0.671875 0 -1.125 0.40625l0 6.609375l-1.984375 0zm7.5703125 -1.078125q-1.265625 -1.34375 -1.265625 -3.25q0 -1.921875 1.265625 -3.25q1.28125 -1.328125 3.28125 -1.328125q1.984375 0 3.265625 1.328125q1.296875 1.328125 1.296875 3.234375q0 1.90625 -1.296875 3.25q-1.28125 1.34375 -3.265625 1.34375q-2.0 0 -3.28125 -1.328125zm1.375 -5.171875q-0.703125 0.765625 -0.703125 1.921875q0 1.15625 0.703125 1.921875q0.71875 0.765625 1.90625 0.765625q1.171875 0 1.875 -0.765625q0.71875 -0.765625 0.71875 -1.921875q0 -1.15625 -0.71875 -1.921875q-0.703125 -0.78125 -1.875 -0.78125q-1.1875 0 -1.90625 0.78125zm7.25 -2.40625l2.171875 0l2.203125 5.984375l2.234375 -5.984375l2.15625 0l-3.40625 8.65625l-1.96875 0l-3.390625 -8.65625zm9.5546875 5.796875q0 -1.21875 0.875 -2.03125q0.890625 -0.8125 2.421875 -0.8125l1.796875 0l0 -0.28125q0 -0.609375 -0.203125 -0.8125q-0.1875 -0.21875 -0.828125 -0.21875q-0.5625 0 -1.71875 0.125l-1.4375 0.1875l0 -1.9375q1.15625 -0.078125 1.578125 -0.125q1.421875 -0.125 2.125 -0.140625q1.28125 0 1.890625 0.75q0.625 0.734375 0.625 1.703125l0 6.453125l-1.578125 0l-0.03125 -1.046875l0.046875 0.09375q-1.34375 1.125 -2.71875 1.109375q-1.375 0 -2.109375 -0.9375q-0.734375 -0.9375 -0.734375 -2.078125zm2.046875 0q0 0.53125 0.25 0.90625q0.25 0.375 0.828125 0.375q0.46875 0 1.078125 -0.203125q0.609375 -0.21875 1.09375 -0.5625l0.109375 0.3125l-0.3125 -1.9375l-1.796875 0q-1.25 0 -1.25 1.109375zm6.8515625 2.859375l0 -12.65625l2.015625 0l0 12.65625l-2.015625 0z" fill-rule="nonzero"/></g></svg>