<svg version="1.1" viewBox="0.0 0.0 960.0 540.0" fill="none" stroke="none" stroke-linecap="square" stroke-miterlimit="10" xmlns:xlink="http://www.w3.org/1999/xlink" xmlns="http://www.w3.org/2000/svg"><clipPath id="g4da285de38_0_281.0"><path d="m0 0l960.0 0l0 540.0l-960.0 0l0 -540.0z" clip-rule="nonzero"/></clipPath><g clip-path="url(#g4da285de38_0_281.0)"><path fill="#ffffff" d="m0 0l960.0 0l0 540.0l-960.0 0z" fill-rule="evenodd"/><path fill="#0000ff" fill-opacity="0.5538" d="m387.80725 501.10477c-16.689667 -6.7797546 -30.074982 -43.13443 -31.162506 -67.93045c-1.0875549 -24.79602 6.7956543 -55.148804 24.637207 -80.84567c17.841553 -25.696869 64.8923 -62.489044 82.41205 -73.33554c17.519775 -10.846466 17.59845 -11.538513 22.706482 8.256744c5.1080017 19.795258 12.877869 79.41434 7.9415894 110.51486c-4.93631 31.100494 -19.803558 58.86487 -37.559357 76.08823c-17.755829 17.223328 -52.285797 34.031616 -68.975464 27.251831z" fill-rule="evenodd"/><path fill="#38761d" fill-opacity="0.5385" d="m707.92816 364.20688c-6.779785 16.689667 -43.13446 30.074982 -67.93048 31.162506c-24.79602 1.0875549 -55.148804 -6.7956543 -80.84564 -24.637207c-25.6969 -17.841553 -62.489075 -64.8923 -73.33554 -82.41208c-10.846466 -17.519745 -11.538544 -17.59842 8.256744 -22.706451c19.795227 -5.1080017 79.41431 -12.877884 110.51483 -7.9415894c31.100525 4.93631 58.86487 19.803558 76.08826 37.559357c17.223328 17.755798 34.031616 52.285797 27.251831 68.975464z" fill-rule="evenodd"/><path fill="#ff0000" fill-opacity="0.5231" d="m249.04526 180.26587c6.77977 -16.689651 43.13443 -30.074951 67.93045 -31.162506c24.79602 -1.0875549 55.148804 6.7956696 80.84567 24.637222c25.696869 17.841553 62.489075 64.8923 73.33554 82.41206c10.846466 17.519745 11.538513 17.59845 -8.256744 22.706451c-19.795258 5.1080017 -79.41434 12.877899 -110.51486 7.9415894c-31.100494 -4.9362793 -58.86487 -19.803558 -76.088196 -37.559357c-17.223358 -17.755798 -34.03163 -52.285797 -27.251862 -68.975464z" fill-rule="evenodd"/><path fill="#0000ff" fill-opacity="0.5538" d="m576.4719 497.5793c-16.595337 7.008362 -51.76825 -9.231873 -70.07193 -25.995605c-18.30365 -16.763763 -34.193756 -43.800323 -39.75003 -74.58688c-5.5562744 -30.78656 1.6945801 -90.07391 6.4123535 -110.13248c4.717743 -20.058563 4.283966 -20.603546 21.894104 -10.218842c17.610168 10.384705 65.2641 47.045746 83.76672 72.5271c18.502563 25.481323 27.623962 55.626495 27.248718 80.36096c-0.3751831 24.734436 -12.904602 61.037384 -29.499939 68.045746z" fill-rule="evenodd"/><path fill="#ffff00" fill-opacity="0.5769" d="m382.05807 43.027035c16.595306 -7.008362 51.76825 9.2318535 70.07193 25.995602c18.30365 16.763748 34.193756 43.80033 39.75003 74.58689c5.5562744 30.78656 -1.6946106 90.07391 -6.4123535 110.13246c-4.717743 20.058548 -4.2839966 20.603561 -21.894135 10.218857c-17.610138 -10.38472 -65.2641 -47.04576 -83.76666 -72.5271c-18.502594 -25.481339 -27.623962 -55.62651 -27.24878 -80.360954c0.37521362 -24.734451 12.904663 -61.0374 29.49997 -68.04576z" fill-rule="evenodd"/><path fill="#38761d" fill-opacity="0.5385" d="m707.72473 173.57188c7.008362 16.595306 -9.231873 51.768265 -25.995605 70.07193c-16.763733 18.303665 -43.800354 34.19374 -74.586914 39.750046c-30.78656 5.5562744 -90.07391 -1.6946106 -110.13245 -6.4123535c-20.058533 -4.717743 -20.603546 -4.2839966 -10.218842 -21.894135c10.384705 -17.610138 47.045746 -65.264114 72.52707 -83.76669c25.481384 -18.502563 55.626526 -27.623962 80.36096 -27.248749c24.734497 0.37519836 61.037415 12.904633 68.04578 29.499954z" fill-rule="evenodd"/><path fill="#ff0000" fill-opacity="0.5231" d="m253.17245 367.98575c-7.008362 -16.595337 9.231842 -51.76828 25.995605 -70.07193c16.763733 -18.30368 43.800323 -34.193756 74.58688 -39.75006c30.78656 -5.5562744 90.07391 1.6946106 110.13248 6.4123535c20.058533 4.717743 20.603546 4.2839966 10.218842 21.894135c-10.384705 17.610138 -47.045746 65.26413 -72.5271 83.76669c-25.481354 18.502563 -55.626495 27.623962 -80.36096 27.248749c-24.734436 -0.3751831 -61.037384 -12.904633 -68.045746 -29.499939z" fill-rule="evenodd"/><path fill="#ffff00" fill-opacity="0.5769" d="m571.7482 42.221874c16.689697 6.779766 30.075012 43.134426 31.162537 67.93045c1.0875244 24.796028 -6.7956543 55.14881 -24.637207 80.84568c-17.841553 25.696869 -64.892334 62.48906 -82.41208 73.335526c-17.519745 10.846466 -17.59845 11.538544 -22.706451 -8.256714c-5.1080017 -19.795273 -12.877899 -79.41435 -7.9415894 -110.51486c4.9362793 -31.100517 19.803558 -58.864876 37.559357 -76.08823c17.755768 -17.223343 52.285797 -34.031616 68.97543 -27.25185z" fill-rule="evenodd"/><path fill="#000000" fill-opacity="0.0" d="m368.3622 93.10499l101.19684 0l0 42.897636l-101.19684 0z" fill-rule="evenodd"/><path fill="#000000" d="m387.73407 119.42943q-1.171875 -1.234375 -1.171875 -3.015625q0 -1.796875 1.171875 -3.015625q1.1875 -1.234375 3.046875 -1.234375q1.84375 0 3.03125 1.234375q1.203125 1.234375 1.203125 3.015625q0 1.765625 -1.203125 3.015625q-1.1875 1.234375 -3.03125 1.234375q-1.859375 0 -3.046875 -1.234375zm0.90625 -5.171875q-0.796875 0.875 -0.796875 2.15625q0 1.28125 0.796875 2.15625q0.8125 0.859375 2.140625 0.859375q1.3125 0 2.109375 -0.859375q0.8125 -0.875 0.8125 -2.15625q0 -1.28125 -0.8125 -2.15625q-0.796875 -0.875 -2.109375 -0.875q-1.328125 0 -2.140625 0.875zm8.421875 10.15625l0 -12.0l0.859375 0l0.21875 0.4375q1.40625 -0.6875 2.546875 -0.6875q1.109375 0 1.90625 0.640625q0.8125 0.640625 1.15625 1.578125q0.359375 0.921875 0.359375 1.984375q0 1.84375 -0.9375 3.078125q-0.921875 1.21875 -2.625 1.21875q-1.125 0 -2.15625 -0.546875l0 4.296875l-1.328125 0zm1.328125 -5.3125q0.765625 0.390625 1.9375 0.390625q0.90625 0 1.46875 -0.484375q0.578125 -0.5 0.765625 -1.1875q0.203125 -0.6875 0.203125 -1.609375q0 -1.296875 -0.625 -2.125q-0.625 -0.828125 -1.5625 -0.828125q-0.953125 0 -2.1875 0.515625l0 5.328125zm7.4453125 -5.453125l0 -1.234375l1.359375 0l0 -2.328125l1.359375 0l0 2.328125l1.984375 0l0 1.234375l-1.984375 0l0 4.40625q0 0.59375 0.171875 0.859375q0.1875 0.265625 0.8125 0.265625l0.828125 0l0 1.234375l-1.4375 0q-0.78125 0 -1.265625 -0.40625q-0.46875 -0.421875 -0.46875 -1.140625l0 -5.21875l-1.359375 0zm6.8359375 6.765625l0 -8.0l1.359375 0l0 8.0l-1.359375 0zm0 -9.96875l0 -1.234375l1.359375 0l0 1.234375l-1.359375 0zm3.859375 9.96875l0 -8.0l0.953125 0l0.171875 0.453125q0.890625 -0.703125 1.9375 -0.703125q0.609375 0 1.21875 0.21875q0.609375 0.21875 0.96875 0.625q0.921875 -0.828125 2.09375 -0.84375q0.9375 0 1.734375 0.484375q0.8125 0.46875 0.8125 1.28125l0 6.484375l-1.359375 0l0 -5.84375q0 -1.171875 -1.390625 -1.171875q-0.875 0 -1.53125 0.53125l0 6.484375l-1.359375 0l0 -5.84375q0 -1.171875 -1.390625 -1.171875q-0.890625 0 -1.53125 0.546875l0 6.46875l-1.328125 0zm12.5390625 0l0 -8.0l1.359375 0l0 8.0l-1.359375 0zm0 -9.96875l0 -1.234375l1.359375 0l0 1.234375l-1.359375 0zm3.609375 8.921875l0.859375 -0.90625q0.296875 0.234375 0.78125 0.5q0.9375 0.46875 1.59375 0.46875q0.59375 0 1.171875 -0.328125q0.578125 -0.328125 0.578125 -0.921875q0 -0.546875 -0.5625 -0.890625q-0.546875 -0.34375 -1.859375 -0.828125q-0.546875 -0.203125 -0.84375 -0.328125q-0.296875 -0.125 -0.6875 -0.375q-0.390625 -0.25 -0.578125 -0.578125q-0.1875 -0.34375 -0.1875 -0.765625q0 -1.015625 0.921875 -1.625q0.9375 -0.625 2.09375 -0.625q0.875 0 1.859375 0.421875q0.421875 0.1875 0.78125 0.421875l-0.8125 0.96875q-0.25 -0.15625 -0.5625 -0.28125q-0.703125 -0.3125 -1.265625 -0.3125q-0.65625 0 -1.171875 0.296875q-0.515625 0.28125 -0.515625 0.734375q0 0.140625 0.125 0.28125q0.125 0.125 0.40625 0.265625q0.28125 0.125 0.484375 0.203125q0.203125 0.078125 0.5625 0.203125q0.90625 0.34375 1.34375 0.546875q0.4375 0.1875 0.921875 0.53125q0.484375 0.328125 0.671875 0.75q0.203125 0.421875 0.203125 0.984375q0 0.8125 -0.546875 1.40625q-0.546875 0.578125 -1.21875 0.828125q-0.671875 0.25 -1.3125 0.25q-0.96875 0 -2.21875 -0.65625q-0.546875 -0.28125 -1.015625 -0.640625zm8.296875 1.046875l0 -8.0l0.953125 0l0.171875 0.453125q0.890625 -0.703125 1.9375 -0.703125q0.609375 0 1.21875 0.21875q0.609375 0.21875 0.96875 0.625q0.921875 -0.828125 2.09375 -0.84375q0.9375 0 1.734375 0.484375q0.8125 0.46875 0.8125 1.28125l0 6.484375l-1.359375 0l0 -5.84375q0 -1.171875 -1.390625 -1.171875q-0.875 0 -1.53125 0.53125l0 6.484375l-1.359375 0l0 -5.84375q0 -1.171875 -1.390625 -1.171875q-0.890625 0 -1.53125 0.546875l0 6.46875l-1.328125 0z" fill-rule="nonzero"/><path fill="#000000" fill-opacity="0.0" d="m505.65878 93.10499l65.543304 0l0 42.897636l-65.543304 0z" fill-rule="evenodd"/><path fill="#000000" d="m523.56323 120.4138l0 -12.0l1.359375 0l0 12.0l-1.359375 0zm4.7734375 -0.984375q-1.171875 -1.234375 -1.171875 -3.015625q0 -1.796875 1.171875 -3.015625q1.1875 -1.234375 3.046875 -1.234375q1.84375 0 3.03125 1.234375q1.203125 1.234375 1.203125 3.015625q0 1.765625 -1.203125 3.015625q-1.1875 1.234375 -3.03125 1.234375q-1.859375 0 -3.046875 -1.234375zm0.90625 -5.171875q-0.796875 0.875 -0.796875 2.15625q0 1.28125 0.796875 2.15625q0.8125 0.859375 2.140625 0.859375q1.3125 0 2.109375 -0.859375q0.8125 -0.875 0.8125 -2.15625q0 -1.28125 -0.8125 -2.15625q-0.796875 -0.875 -2.109375 -0.875q-1.328125 0 -2.140625 0.875zm7.96875 -1.84375l1.453125 0l2.4375 6.59375l2.46875 -6.59375l1.4375 0l-3.140625 8.0l-1.53125 0l-3.125 -8.0zm9.3984375 3.96875q0 -1.921875 1.015625 -3.0625q1.03125 -1.15625 2.703125 -1.15625q3.34375 0 3.34375 4.71875l-5.734375 0q0.078125 1.0 0.71875 1.78125q0.65625 0.765625 1.984375 0.765625q1.53125 0 2.640625 -0.5l0 1.25q-1.203125 0.46875 -2.46875 0.484375q-1.109375 0 -1.9375 -0.34375q-0.8125 -0.359375 -1.3125 -0.953125q-0.484375 -0.609375 -0.71875 -1.359375q-0.234375 -0.75 -0.234375 -1.625zm1.375 -0.546875l4.3125 0q-0.109375 -1.078125 -0.59375 -1.765625q-0.484375 -0.6875 -1.40625 -0.6875q-0.90625 0 -1.546875 0.671875q-0.640625 0.671875 -0.765625 1.78125z" fill-rule="nonzero"/><path fill="#000000" fill-opacity="0.0" d="m579.6352 184.39633l114.99213 0l0 42.89763l-114.99213 0z" fill-rule="evenodd"/><path fill="#000000" d="m597.0414 210.65826l0.859375 -0.90625q0.296875 0.234375 0.78125 0.5q0.9375 0.46875 1.59375 0.46875q0.59375 0 1.171875 -0.328125q0.578125 -0.328125 0.578125 -0.921875q0 -0.546875 -0.5625 -0.890625q-0.546875 -0.34375 -1.859375 -0.828125q-0.546875 -0.203125 -0.84375 -0.328125q-0.296875 -0.125 -0.6875 -0.375q-0.390625 -0.25 -0.578125 -0.578125q-0.1875 -0.34375 -0.1875 -0.765625q0 -1.015625 0.921875 -1.625q0.9375 -0.625 2.09375 -0.625q0.875 0 1.859375 0.421875q0.421875 0.1875 0.78125 0.421875l-0.8125 0.96875q-0.25 -0.15625 -0.5625 -0.28125q-0.703125 -0.3125 -1.265625 -0.3125q-0.65625 0 -1.171875 0.296875q-0.515625 0.28125 -0.515625 0.734375q0 0.140625 0.125 0.28125q0.125 0.125 0.40625 0.265625q0.28125 0.125 0.484375 0.203125q0.203125 0.078125 0.5625 0.203125q0.90625 0.34375 1.34375 0.546875q0.4375 0.1875 0.921875 0.53125q0.484375 0.328125 0.671875 0.75q0.203125 0.421875 0.203125 0.984375q0 0.8125 -0.546875 1.40625q-0.546875 0.578125 -1.21875 0.828125q-0.671875 0.25 -1.3125 0.25q-0.96875 0 -2.21875 -0.65625q-0.546875 -0.28125 -1.015625 -0.640625zm8.421875 -1.40625l0 -5.546875l1.328125 0l0 5.546875q0 0.671875 0.59375 1.046875q0.59375 0.359375 1.375 0.359375q0.796875 0 1.375 -0.359375q0.59375 -0.375 0.59375 -1.046875l0 -5.546875l1.34375 0l0 5.546875q0 1.25 -1.015625 1.984375q-1.015625 0.71875 -2.296875 0.71875q-1.28125 0 -2.296875 -0.71875q-1.0 -0.71875 -1.0 -1.984375zm8.9765625 2.453125l0 -12.0l1.328125 0l0 4.1875q1.234375 -0.421875 2.328125 -0.4375q0.890625 0 1.5625 0.359375q0.671875 0.34375 1.046875 0.9375q0.375 0.578125 0.546875 1.265625q0.1875 0.671875 0.1875 1.390625q0 2.109375 -1.09375 3.203125q-1.09375 1.09375 -3.4375 1.09375l-2.46875 0zm1.328125 -1.234375l1.140625 0q1.6875 0 2.421875 -0.734375q0.75 -0.734375 0.75 -2.375q0 -1.0625 -0.484375 -1.859375q-0.484375 -0.8125 -1.515625 -0.8125q-1.359375 0 -2.3125 0.390625l0 5.390625zm7.65625 1.234375l0 -8.0l0.953125 0l0.171875 0.453125q0.890625 -0.703125 1.9375 -0.703125q0.609375 0 1.21875 0.21875q0.609375 0.21875 0.96875 0.625q0.921875 -0.828125 2.09375 -0.84375q0.9375 0 1.734375 0.484375q0.8125 0.46875 0.8125 1.28125l0 6.484375l-1.359375 0l0 -5.84375q0 -1.171875 -1.390625 -1.171875q-0.875 0 -1.53125 0.53125l0 6.484375l-1.359375 0l0 -5.84375q0 -1.171875 -1.390625 -1.171875q-0.890625 0 -1.53125 0.546875l0 6.46875l-1.328125 0zm12.5390625 0l0 -8.0l1.359375 0l0 8.0l-1.359375 0zm0 -9.96875l0 -1.234375l1.359375 0l0 1.234375l-1.359375 0zm3.609375 8.921875l0.859375 -0.90625q0.296875 0.234375 0.78125 0.5q0.9375 0.46875 1.59375 0.46875q0.59375 0 1.171875 -0.328125q0.578125 -0.328125 0.578125 -0.921875q0 -0.546875 -0.5625 -0.890625q-0.546875 -0.34375 -1.859375 -0.828125q-0.546875 -0.203125 -0.84375 -0.328125q-0.296875 -0.125 -0.6875 -0.375q-0.390625 -0.25 -0.578125 -0.578125q-0.1875 -0.34375 -0.1875 -0.765625q0 -1.015625 0.921875 -1.625q0.9375 -0.625 2.09375 -0.625q0.875 0 1.859375 0.421875q0.421875 0.1875 0.78125 0.421875l-0.8125 0.96875q-0.25 -0.15625 -0.5625 -0.28125q-0.703125 -0.3125 -1.265625 -0.3125q-0.65625 0 -1.171875 0.296875q-0.515625 0.28125 -0.515625 0.734375q0 0.140625 0.125 0.28125q0.125 0.125 0.40625 0.265625q0.28125 0.125 0.484375 0.203125q0.203125 0.078125 0.5625 0.203125q0.90625 0.34375 1.34375 0.546875q0.4375 0.1875 0.921875 0.53125q0.484375 0.328125 0.671875 0.75q0.203125 0.421875 0.203125 0.984375q0 0.8125 -0.546875 1.40625q-0.546875 0.578125 -1.21875 0.828125q-0.671875 0.25 -1.3125 0.25q-0.96875 0 -2.21875 -0.65625q-0.546875 -0.28125 -1.015625 -0.640625zm8.046875 0l0.859375 -0.90625q0.296875 0.234375 0.78125 0.5q0.9375 0.46875 1.59375 0.46875q0.59375 0 1.171875 -0.328125q0.578125 -0.328125 0.578125 -0.921875q0 -0.546875 -0.5625 -0.890625q-0.546875 -0.34375 -1.859375 -0.828125q-0.546875 -0.203125 -0.84375 -0.328125q-0.296875 -0.125 -0.6875 -0.375q-0.390625 -0.25 -0.578125 -0.578125q-0.1875 -0.34375 -0.1875 -0.765625q0 -1.015625 0.921875 -1.625q0.9375 -0.625 2.09375 -0.625q0.875 0 1.859375 0.421875q0.421875 0.1875 0.78125 0.421875l-0.8125 0.96875q-0.25 -0.15625 -0.5625 -0.28125q-0.703125 -0.3125 -1.265625 -0.3125q-0.65625 0 -1.171875 0.296875q-0.515625 0.28125 -0.515625 0.734375q0 0.140625 0.125 0.28125q0.125 0.125 0.40625 0.265625q0.28125 0.125 0.484375 0.203125q0.203125 0.078125 0.5625 0.203125q0.90625 0.34375 1.34375 0.546875q0.4375 0.1875 0.921875 0.53125q0.484375 0.328125 0.671875 0.75q0.203125 0.421875 0.203125 0.984375q0 0.8125 -0.546875 1.40625q-0.546875 0.578125 -1.21875 0.828125q-0.671875 0.25 -1.3125 0.25q-0.96875 0 -2.21875 -0.65625q-0.546875 -0.28125 -1.015625 -0.640625zm8.453125 1.046875l0 -8.0l1.359375 0l0 8.0l-1.359375 0zm0 -9.96875l0 -1.234375l1.359375 0l0 1.234375l-1.359375 0zm4.78125 8.984375q-1.171875 -1.234375 -1.171875 -3.015625q0 -1.796875 1.171875 -3.015625q1.1875 -1.234375 3.046875 -1.234375q1.84375 0 3.03125 1.234375q1.203125 1.234375 1.203125 3.015625q0 1.765625 -1.203125 3.015625q-1.1875 1.234375 -3.03125 1.234375q-1.859375 0 -3.046875 -1.234375zm0.90625 -5.171875q-0.796875 0.875 -0.796875 2.15625q0 1.28125 0.796875 2.15625q0.8125 0.859375 2.140625 0.859375q1.3125 0 2.109375 -0.859375q0.8125 -0.875 0.8125 -2.15625q0 -1.28125 -0.8125 -2.15625q-0.796875 -0.875 -2.109375 -0.875q-1.328125 0 -2.140625 0.875zm8.359375 6.15625l0 -8.0l0.953125 0l0.21875 0.609375q1.3125 -0.859375 2.59375 -0.859375q1.328125 0 2.140625 0.640625q0.828125 0.625 0.828125 1.921875l0 5.6875l-1.359375 0l0 -5.6875q0 -1.328125 -1.609375 -1.328125q-1.25 0 -2.4375 0.828125l0 6.1875l-1.328125 0z" fill-rule="nonzero"/><path fill="#000000" fill-opacity="0.0" d="m579.6352 311.30972l114.99213 0l0 42.897614l-114.99213 0z" fill-rule="evenodd"/><path fill="#000000" d="m622.8109 336.08728q0 -1.078125 0.78125 -1.796875q0.78125 -0.71875 2.1875 -0.71875l2.125 0l0 -0.609375q0 -0.734375 -0.296875 -1.046875q-0.28125 -0.3125 -1.0625 -0.3125q-0.578125 0 -1.75 0.125l-1.078125 0.140625l0 -1.25q0.859375 -0.0625 1.28125 -0.109375q1.40625 -0.125 2.09375 -0.140625q1.125 0 1.65625 0.640625q0.53125 0.640625 0.53125 1.484375l0 6.125l-1.0 0l-0.234375 -0.78125l-0.046875 0q-1.390625 0.953125 -2.671875 0.9375q-1.21875 0 -1.875 -0.828125q-0.640625 -0.828125 -0.640625 -1.859375zm1.390625 0q0 0.625 0.328125 1.125q0.328125 0.484375 1.078125 0.484375q0.53125 0 1.1875 -0.21875q0.65625 -0.234375 1.09375 -0.546875l0.015625 0l0 -2.28125l-2.125 0q-1.578125 0 -1.578125 1.4375zm7.0546875 -5.46875l1.453125 0l1.8125 6.328125l1.859375 -6.328125l1.34375 0l1.84375 6.328125l1.84375 -6.328125l1.4375 0l-2.515625 8.0l-1.53125 0l-1.765625 -6.328125l-1.75 6.328125l-1.515625 0l-2.515625 -8.0zm13.1953125 3.96875q0 -1.921875 1.015625 -3.0625q1.03125 -1.15625 2.703125 -1.15625q3.34375 0 3.34375 4.71875l-5.734375 0q0.078125 1.0 0.71875 1.78125q0.65625 0.765625 1.984375 0.765625q1.53125 0 2.640625 -0.5l0 1.25q-1.203125 0.46875 -2.46875 0.484375q-1.109375 0 -1.9375 -0.34375q-0.8125 -0.359375 -1.3125 -0.953125q-0.484375 -0.609375 -0.71875 -1.359375q-0.234375 -0.75 -0.234375 -1.625zm1.375 -0.546875l4.3125 0q-0.109375 -1.078125 -0.59375 -1.765625q-0.484375 -0.6875 -1.40625 -0.6875q-0.90625 0 -1.546875 0.671875q-0.640625 0.671875 -0.765625 1.78125z" fill-rule="nonzero"/><path fill="#000000" fill-opacity="0.0" d="m258.14435 184.39633l134.20474 0l0 42.89763l-134.20474 0z" fill-rule="evenodd"/><path fill="#000000" d="m268.88736 209.17389q0 -1.078125 0.78125 -1.796875q0.78125 -0.71875 2.1875 -0.71875l2.125 0l0 -0.609375q0 -0.734375 -0.296875 -1.046875q-0.28125 -0.3125 -1.0625 -0.3125q-0.578125 0 -1.75 0.125l-1.078125 0.140625l0 -1.25q0.859375 -0.0625 1.28125 -0.109375q1.40625 -0.125 2.09375 -0.140625q1.125 0 1.65625 0.640625q0.53125 0.640625 0.53125 1.484375l0 6.125l-1.0 0l-0.234375 -0.78125l-0.046875 0q-1.390625 0.953125 -2.671875 0.9375q-1.21875 0 -1.875 -0.828125q-0.640625 -0.828125 -0.640625 -1.859375zm1.390625 0q0 0.625 0.328125 1.125q0.328125 0.484375 1.078125 0.484375q0.53125 0 1.1875 -0.21875q0.65625 -0.234375 1.09375 -0.546875l0.015625 0l0 -2.28125l-2.125 0q-1.578125 0 -1.578125 1.4375zm7.4453125 -1.4375q0 -1.109375 0.34375 -2.046875q0.359375 -0.953125 1.140625 -1.59375q0.796875 -0.640625 1.90625 -0.640625q0.984375 0 2.421875 0.703125l0.21875 -0.453125l0.859375 0l0 9.125q0 1.359375 -0.796875 2.109375q-0.8125 0.765625 -2.390625 0.765625q-1.6875 0 -3.4375 -0.921875l0.6875 -1.046875q1.40625 0.75 2.75 0.75q1.84375 0 1.84375 -1.65625l0 -1.4375q-1.0 0.5625 -1.9375 0.5625q-1.71875 0 -2.671875 -1.21875q-0.9375 -1.234375 -0.9375 -3.0zm1.328125 -0.09375q0 0.609375 0.109375 1.125q0.125 0.515625 0.390625 1.0q0.265625 0.484375 0.765625 0.75q0.515625 0.265625 1.21875 0.265625q1.015625 0 1.734375 -0.390625l0 -5.328125q-1.109375 -0.515625 -1.96875 -0.515625q-1.015625 0 -1.640625 0.8125q-0.609375 0.8125 -0.609375 2.28125zm7.9296875 0.09375q0 -1.109375 0.34375 -2.046875q0.359375 -0.953125 1.140625 -1.59375q0.796875 -0.640625 1.90625 -0.640625q0.984375 0 2.421875 0.703125l0.21875 -0.453125l0.859375 0l0 9.125q0 1.359375 -0.796875 2.109375q-0.8125 0.765625 -2.390625 0.765625q-1.6875 0 -3.4375 -0.921875l0.6875 -1.046875q1.40625 0.75 2.75 0.75q1.84375 0 1.84375 -1.65625l0 -1.4375q-1.0 0.5625 -1.9375 0.5625q-1.71875 0 -2.671875 -1.21875q-0.9375 -1.234375 -0.9375 -3.0zm1.328125 -0.09375q0 0.609375 0.109375 1.125q0.125 0.515625 0.390625 1.0q0.265625 0.484375 0.765625 0.75q0.515625 0.265625 1.21875 0.265625q1.015625 0 1.734375 -0.390625l0 -5.328125q-1.109375 -0.515625 -1.96875 -0.515625q-1.015625 0 -1.640625 0.8125q-0.609375 0.8125 -0.609375 2.28125zm7.9296875 4.0625l0 -8.0l0.953125 0l0.203125 0.5625q1.015625 -0.78125 1.8125 -0.796875q0.875 0 1.609375 0.390625l-0.53125 1.078125q-0.6875 -0.25 -1.265625 -0.25q-0.796875 0 -1.453125 0.59375l0 6.421875l-1.328125 0zm6.3046875 -4.03125q0 -1.921875 1.015625 -3.0625q1.03125 -1.15625 2.703125 -1.15625q3.34375 0 3.34375 4.71875l-5.734375 0q0.078125 1.0 0.71875 1.78125q0.65625 0.765625 1.984375 0.765625q1.53125 0 2.640625 -0.5l0 1.25q-1.203125 0.46875 -2.46875 0.484375q-1.109375 0 -1.9375 -0.34375q-0.8125 -0.359375 -1.3125 -0.953125q-0.484375 -0.609375 -0.71875 -1.359375q-0.234375 -0.75 -0.234375 -1.625zm1.375 -0.546875l4.3125 0q-0.109375 -1.078125 -0.59375 -1.765625q-0.484375 -0.6875 -1.40625 -0.6875q-0.90625 0 -1.546875 0.671875q-0.640625 0.671875 -0.765625 1.78125zm7.375 3.53125l0.859375 -0.90625q0.296875 0.234375 0.78125 0.5q0.9375 0.46875 1.59375 0.46875q0.59375 0 1.171875 -0.328125q0.578125 -0.328125 0.578125 -0.921875q0 -0.546875 -0.5625 -0.890625q-0.546875 -0.34375 -1.859375 -0.828125q-0.546875 -0.203125 -0.84375 -0.328125q-0.296875 -0.125 -0.6875 -0.375q-0.390625 -0.25 -0.578125 -0.578125q-0.1875 -0.34375 -0.1875 -0.765625q0 -1.015625 0.921875 -1.625q0.9375 -0.625 2.09375 -0.625q0.875 0 1.859375 0.421875q0.421875 0.1875 0.78125 0.421875l-0.8125 0.96875q-0.25 -0.15625 -0.5625 -0.28125q-0.703125 -0.3125 -1.265625 -0.3125q-0.65625 0 -1.171875 0.296875q-0.515625 0.28125 -0.515625 0.734375q0 0.140625 0.125 0.28125q0.125 0.125 0.40625 0.265625q0.28125 0.125 0.484375 0.203125q0.203125 0.078125 0.5625 0.203125q0.90625 0.34375 1.34375 0.546875q0.4375 0.1875 0.921875 0.53125q0.484375 0.328125 0.671875 0.75q0.203125 0.421875 0.203125 0.984375q0 0.8125 -0.546875 1.40625q-0.546875 0.578125 -1.21875 0.828125q-0.671875 0.25 -1.3125 0.25q-0.96875 0 -2.21875 -0.65625q-0.546875 -0.28125 -1.015625 -0.640625zm8.046875 0l0.859375 -0.90625q0.296875 0.234375 0.78125 0.5q0.9375 0.46875 1.59375 0.46875q0.59375 0 1.171875 -0.328125q0.578125 -0.328125 0.578125 -0.921875q0 -0.546875 -0.5625 -0.890625q-0.546875 -0.34375 -1.859375 -0.828125q-0.546875 -0.203125 -0.84375 -0.328125q-0.296875 -0.125 -0.6875 -0.375q-0.390625 -0.25 -0.578125 -0.578125q-0.1875 -0.34375 -0.1875 -0.765625q0 -1.015625 0.921875 -1.625q0.9375 -0.625 2.09375 -0.625q0.875 0 1.859375 0.421875q0.421875 0.1875 0.78125 0.421875l-0.8125 0.96875q-0.25 -0.15625 -0.5625 -0.28125q-0.703125 -0.3125 -1.265625 -0.3125q-0.65625 0 -1.171875 0.296875q-0.515625 0.28125 -0.515625 0.734375q0 0.140625 0.125 0.28125q0.125 0.125 0.40625 0.265625q0.28125 0.125 0.484375 0.203125q0.203125 0.078125 0.5625 0.203125q0.90625 0.34375 1.34375 0.546875q0.4375 0.1875 0.921875 0.53125q0.484375 0.328125 0.671875 0.75q0.203125 0.421875 0.203125 0.984375q0 0.8125 -0.546875 1.40625q-0.546875 0.578125 -1.21875 0.828125q-0.671875 0.25 -1.3125 0.25q-0.96875 0 -2.21875 -0.65625q-0.546875 -0.28125 -1.015625 -0.640625zm8.453125 1.046875l0 -8.0l1.359375 0l0 8.0l-1.359375 0zm0 -9.96875l0 -1.234375l1.359375 0l0 1.234375l-1.359375 0zm3.46875 1.96875l1.453125 0l2.4375 6.59375l2.46875 -6.59375l1.4375 0l-3.140625 8.0l-1.53125 0l-3.125 -8.0zm9.3984375 3.96875q0 -1.921875 1.015625 -3.0625q1.03125 -1.15625 2.703125 -1.15625q3.34375 0 3.34375 4.71875l-5.734375 0q0.078125 1.0 0.71875 1.78125q0.65625 0.765625 1.984375 0.765625q1.53125 0 2.640625 -0.5l0 1.25q-1.203125 0.46875 -2.46875 0.484375q-1.109375 0 -1.9375 -0.34375q-0.8125 -0.359375 -1.3125 -0.953125q-0.484375 -0.609375 -0.71875 -1.359375q-0.234375 -0.75 -0.234375 -1.625zm1.375 -0.546875l4.3125 0q-0.109375 -1.078125 -0.59375 -1.765625q-0.484375 -0.6875 -1.40625 -0.6875q-0.90625 0 -1.546875 0.671875q-0.640625 0.671875 -0.765625 1.78125zm7.625 4.578125l0 -8.0l0.953125 0l0.21875 0.609375q1.3125 -0.859375 2.59375 -0.859375q1.328125 0 2.140625 0.640625q0.828125 0.625 0.828125 1.921875l0 5.6875l-1.359375 0l0 -5.6875q0 -1.328125 -1.609375 -1.328125q-1.25 0 -2.4375 0.828125l0 6.1875l-1.328125 0zm8.8515625 -4.03125q0 -1.921875 1.015625 -3.0625q1.03125 -1.15625 2.703125 -1.15625q3.34375 0 3.34375 4.71875l-5.734375 0q0.078125 1.0 0.71875 1.78125q0.65625 0.765625 1.984375 0.765625q1.53125 0 2.640625 -0.5l0 1.25q-1.203125 0.46875 -2.46875 0.484375q-1.109375 0 -1.9375 -0.34375q-0.8125 -0.359375 -1.3125 -0.953125q-0.484375 -0.609375 -0.71875 -1.359375q-0.234375 -0.75 -0.234375 -1.625zm1.375 -0.546875l4.3125 0q-0.109375 -1.078125 -0.59375 -1.765625q-0.484375 -0.6875 -1.40625 -0.6875q-0.90625 0 -1.546875 0.671875q-0.640625 0.671875 -0.765625 1.78125zm7.375 3.53125l0.859375 -0.90625q0.296875 0.234375 0.78125 0.5q0.9375 0.46875 1.59375 0.46875q0.59375 0 1.171875 -0.328125q0.578125 -0.328125 0.578125 -0.921875q0 -0.546875 -0.5625 -0.890625q-0.546875 -0.34375 -1.859375 -0.828125q-0.546875 -0.203125 -0.84375 -0.328125q-0.296875 -0.125 -0.6875 -0.375q-0.390625 -0.25 -0.578125 -0.578125q-0.1875 -0.34375 -0.1875 -0.765625q0 -1.015625 0.921875 -1.625q0.9375 -0.625 2.09375 -0.625q0.875 0 1.859375 0.421875q0.421875 0.1875 0.78125 0.421875l-0.8125 0.96875q-0.25 -0.15625 -0.5625 -0.28125q-0.703125 -0.3125 -1.265625 -0.3125q-0.65625 0 -1.171875 0.296875q-0.515625 0.28125 -0.515625 0.734375q0 0.140625 0.125 0.28125q0.125 0.125 0.40625 0.265625q0.28125 0.125 0.484375 0.203125q0.203125 0.078125 0.5625 0.203125q0.90625 0.34375 1.34375 0.546875q0.4375 0.1875 0.921875 0.53125q0.484375 0.328125 0.671875 0.75q0.203125 0.421875 0.203125 0.984375q0 0.8125 -0.546875 1.40625q-0.546875 0.578125 -1.21875 0.828125q-0.671875 0.25 -1.3125 0.25q-0.96875 0 -2.21875 -0.65625q-0.546875 -0.28125 -1.015625 -0.640625zm8.046875 0l0.859375 -0.90625q0.296875 0.234375 0.78125 0.5q0.9375 0.46875 1.59375 0.46875q0.59375 0 1.171875 -0.328125q0.578125 -0.328125 0.578125 -0.921875q0 -0.546875 -0.5625 -0.890625q-0.546875 -0.34375 -1.859375 -0.828125q-0.546875 -0.203125 -0.84375 -0.328125q-0.296875 -0.125 -0.6875 -0.375q-0.390625 -0.25 -0.578125 -0.578125q-0.1875 -0.34375 -0.1875 -0.765625q0 -1.015625 0.921875 -1.625q0.9375 -0.625 2.09375 -0.625q0.875 0 1.859375 0.421875q0.421875 0.1875 0.78125 0.421875l-0.8125 0.96875q-0.25 -0.15625 -0.5625 -0.28125q-0.703125 -0.3125 -1.265625 -0.3125q-0.65625 0 -1.171875 0.296875q-0.515625 0.28125 -0.515625 0.734375q0 0.140625 0.125 0.28125q0.125 0.125 0.40625 0.265625q0.28125 0.125 0.484375 0.203125q0.203125 0.078125 0.5625 0.203125q0.90625 0.34375 1.34375 0.546875q0.4375 0.1875 0.921875 0.53125q0.484375 0.328125 0.671875 0.75q0.203125 0.421875 0.203125 0.984375q0 0.8125 -0.546875 1.40625q-0.546875 0.578125 -1.21875 0.828125q-0.671875 0.25 -1.3125 0.25q-0.96875 0 -2.21875 -0.65625q-0.546875 -0.28125 -1.015625 -0.640625z" fill-rule="nonzero"/><path fill="#000000" fill-opacity="0.0" d="m270.9895 312.00787l114.99213 0l0 42.897644l-114.99213 0z" fill-rule="evenodd"/><path fill="#000000" d="m295.3801 338.31668q-1.21875 -1.25 -1.21875 -3.0q0 -1.765625 1.21875 -3.0q1.234375 -1.25 2.984375 -1.25q1.0625 0 2.15625 0.25l0 1.21875q-1.078125 -0.25 -2.15625 -0.25q-1.21875 0 -2.0625 0.890625q-0.828125 0.890625 -0.828125 2.140625q0 1.25 0.828125 2.140625q0.84375 0.875 2.0625 0.875q1.0625 0 2.15625 -0.234375l0 1.21875q-1.078125 0.25 -2.15625 0.25q-1.75 0 -2.984375 -1.25zm7.984375 0.015625q-1.171875 -1.234375 -1.171875 -3.015625q0 -1.796875 1.171875 -3.015625q1.1875 -1.234375 3.046875 -1.234375q1.84375 0 3.03125 1.234375q1.203125 1.234375 1.203125 3.015625q0 1.765625 -1.203125 3.015625q-1.1875 1.234375 -3.03125 1.234375q-1.859375 0 -3.046875 -1.234375zm0.90625 -5.171875q-0.796875 0.875 -0.796875 2.15625q0 1.28125 0.796875 2.15625q0.8125 0.859375 2.140625 0.859375q1.3125 0 2.109375 -0.859375q0.8125 -0.875 0.8125 -2.15625q0 -1.28125 -0.8125 -2.15625q-0.796875 -0.875 -2.109375 -0.875q-1.328125 0 -2.140625 0.875zm8.359375 6.15625l0 -8.0l0.953125 0l0.21875 0.609375q1.3125 -0.859375 2.59375 -0.859375q1.328125 0 2.140625 0.640625q0.828125 0.625 0.828125 1.921875l0 5.6875l-1.359375 0l0 -5.6875q0 -1.328125 -1.609375 -1.328125q-1.25 0 -2.4375 0.828125l0 6.1875l-1.328125 0zm8.8515625 -6.765625l0 -1.234375l1.359375 0l0 -2.328125l1.359375 0l0 2.328125l1.984375 0l0 1.234375l-1.984375 0l0 4.40625q0 0.59375 0.171875 0.859375q0.1875 0.265625 0.8125 0.265625l0.828125 0l0 1.234375l-1.4375 0q-0.78125 0 -1.265625 -0.40625q-0.46875 -0.421875 -0.46875 -1.140625l0 -5.21875l-1.359375 0zm6.4296875 2.734375q0 -1.921875 1.015625 -3.0625q1.03125 -1.15625 2.703125 -1.15625q3.34375 0 3.34375 4.71875l-5.734375 0q0.078125 1.0 0.71875 1.78125q0.65625 0.765625 1.984375 0.765625q1.53125 0 2.640625 -0.5l0 1.25q-1.203125 0.46875 -2.46875 0.484375q-1.109375 0 -1.9375 -0.34375q-0.8125 -0.359375 -1.3125 -0.953125q-0.484375 -0.609375 -0.71875 -1.359375q-0.234375 -0.75 -0.234375 -1.625zm1.375 -0.546875l4.3125 0q-0.109375 -1.078125 -0.59375 -1.765625q-0.484375 -0.6875 -1.40625 -0.6875q-0.90625 0 -1.546875 0.671875q-0.640625 0.671875 -0.765625 1.78125zm7.625 4.578125l0 -8.0l0.953125 0l0.171875 0.453125q0.890625 -0.703125 1.9375 -0.703125q0.609375 0 1.21875 0.21875q0.609375 0.21875 0.96875 0.625q0.921875 -0.828125 2.09375 -0.84375q0.9375 0 1.734375 0.484375q0.8125 0.46875 0.8125 1.28125l0 6.484375l-1.359375 0l0 -5.84375q0 -1.171875 -1.390625 -1.171875q-0.875 0 -1.53125 0.53125l0 6.484375l-1.359375 0l0 -5.84375q0 -1.171875 -1.390625 -1.171875q-0.890625 0 -1.53125 0.546875l0 6.46875l-1.328125 0zm12.4453125 4.0l0 -12.0l0.859375 0l0.21875 0.4375q1.40625 -0.6875 2.546875 -0.6875q1.109375 0 1.90625 0.640625q0.8125 0.640625 1.15625 1.578125q0.359375 0.921875 0.359375 1.984375q0 1.84375 -0.9375 3.078125q-0.921875 1.21875 -2.625 1.21875q-1.125 0 -2.15625 -0.546875l0 4.296875l-1.328125 0zm1.328125 -5.3125q0.765625 0.390625 1.9375 0.390625q0.90625 0 1.46875 -0.484375q0.578125 -0.5 0.765625 -1.1875q0.203125 -0.6875 0.203125 -1.609375q0 -1.296875 -0.625 -2.125q-0.625 -0.828125 -1.5625 -0.828125q-0.953125 0 -2.1875 0.515625l0 5.328125zm7.4453125 -5.453125l0 -1.234375l1.359375 0l0 -2.328125l1.359375 0l0 2.328125l1.984375 0l0 1.234375l-1.984375 0l0 4.40625q0 0.59375 0.171875 0.859375q0.1875 0.265625 0.8125 0.265625l0.828125 0l0 1.234375l-1.4375 0q-0.78125 0 -1.265625 -0.40625q-0.46875 -0.421875 -0.46875 -1.140625l0 -5.21875l-1.359375 0z" fill-rule="nonzero"/><path fill="#000000" fill-opacity="0.0" d="m365.12335 415.96063l101.19687 0l0 42.897644l-101.19687 0z" fill-rule="evenodd"/><path fill="#000000" d="m386.2335 443.26944l0 -8.0l0.953125 0l0.203125 0.5625q1.015625 -0.78125 1.8125 -0.796875q0.875 0 1.609375 0.390625l-0.53125 1.078125q-0.6875 -0.25 -1.265625 -0.25q-0.796875 0 -1.453125 0.59375l0 6.421875l-1.328125 0zm6.3046875 -4.03125q0 -1.921875 1.015625 -3.0625q1.03125 -1.15625 2.703125 -1.15625q3.34375 0 3.34375 4.71875l-5.734375 0q0.078125 1.0 0.71875 1.78125q0.65625 0.765625 1.984375 0.765625q1.53125 0 2.640625 -0.5l0 1.25q-1.203125 0.46875 -2.46875 0.484375q-1.109375 0 -1.9375 -0.34375q-0.8125 -0.359375 -1.3125 -0.953125q-0.484375 -0.609375 -0.71875 -1.359375q-0.234375 -0.75 -0.234375 -1.625zm1.375 -0.546875l4.3125 0q-0.109375 -1.078125 -0.59375 -1.765625q-0.484375 -0.6875 -1.40625 -0.6875q-0.90625 0 -1.546875 0.671875q-0.640625 0.671875 -0.765625 1.78125zm7.625 4.578125l0 -8.0l0.953125 0l0.171875 0.453125q0.890625 -0.703125 1.9375 -0.703125q0.609375 0 1.21875 0.21875q0.609375 0.21875 0.96875 0.625q0.921875 -0.828125 2.09375 -0.84375q0.9375 0 1.734375 0.484375q0.8125 0.46875 0.8125 1.28125l0 6.484375l-1.359375 0l0 -5.84375q0 -1.171875 -1.390625 -1.171875q-0.875 0 -1.53125 0.53125l0 6.484375l-1.359375 0l0 -5.84375q0 -1.171875 -1.390625 -1.171875q-0.890625 0 -1.53125 0.546875l0 6.46875l-1.328125 0zm13.3046875 -0.984375q-1.171875 -1.234375 -1.171875 -3.015625q0 -1.796875 1.171875 -3.015625q1.1875 -1.234375 3.046875 -1.234375q1.84375 0 3.03125 1.234375q1.203125 1.234375 1.203125 3.015625q0 1.765625 -1.203125 3.015625q-1.1875 1.234375 -3.03125 1.234375q-1.859375 0 -3.046875 -1.234375zm0.90625 -5.171875q-0.796875 0.875 -0.796875 2.15625q0 1.28125 0.796875 2.15625q0.8125 0.859375 2.140625 0.859375q1.3125 0 2.109375 -0.859375q0.8125 -0.875 0.8125 -2.15625q0 -1.28125 -0.8125 -2.15625q-0.796875 -0.875 -2.109375 -0.875q-1.328125 0 -2.140625 0.875zm8.359375 6.15625l0 -8.0l0.953125 0l0.203125 0.5625q1.015625 -0.78125 1.8125 -0.796875q0.875 0 1.609375 0.390625l-0.53125 1.078125q-0.6875 -0.25 -1.265625 -0.25q-0.796875 0 -1.453125 0.59375l0 6.421875l-1.328125 0zm6.3046875 -1.046875l0.859375 -0.90625q0.296875 0.234375 0.78125 0.5q0.9375 0.46875 1.59375 0.46875q0.59375 0 1.171875 -0.328125q0.578125 -0.328125 0.578125 -0.921875q0 -0.546875 -0.5625 -0.890625q-0.546875 -0.34375 -1.859375 -0.828125q-0.546875 -0.203125 -0.84375 -0.328125q-0.296875 -0.125 -0.6875 -0.375q-0.390625 -0.25 -0.578125 -0.578125q-0.1875 -0.34375 -0.1875 -0.765625q0 -1.015625 0.921875 -1.625q0.9375 -0.625 2.09375 -0.625q0.875 0 1.859375 0.421875q0.421875 0.1875 0.78125 0.421875l-0.8125 0.96875q-0.25 -0.15625 -0.5625 -0.28125q-0.703125 -0.3125 -1.265625 -0.3125q-0.65625 0 -1.171875 0.296875q-0.515625 0.28125 -0.515625 0.734375q0 0.140625 0.125 0.28125q0.125 0.125 0.40625 0.265625q0.28125 0.125 0.484375 0.203125q0.203125 0.078125 0.5625 0.203125q0.90625 0.34375 1.34375 0.546875q0.4375 0.1875 0.921875 0.53125q0.484375 0.328125 0.671875 0.75q0.203125 0.421875 0.203125 0.984375q0 0.8125 -0.546875 1.40625q-0.546875 0.578125 -1.21875 0.828125q-0.671875 0.25 -1.3125 0.25q-0.96875 0 -2.21875 -0.65625q-0.546875 -0.28125 -1.015625 -0.640625zm8.046875 -2.984375q0 -1.921875 1.015625 -3.0625q1.03125 -1.15625 2.703125 -1.15625q3.34375 0 3.34375 4.71875l-5.734375 0q0.078125 1.0 0.71875 1.78125q0.65625 0.765625 1.984375 0.765625q1.53125 0 2.640625 -0.5l0 1.25q-1.203125 0.46875 -2.46875 0.484375q-1.109375 0 -1.9375 -0.34375q-0.8125 -0.359375 -1.3125 -0.953125q-0.484375 -0.609375 -0.71875 -1.359375q-0.234375 -0.75 -0.234375 -1.625zm1.375 -0.546875l4.3125 0q-0.109375 -1.078125 -0.59375 -1.765625q-0.484375 -0.6875 -1.40625 -0.6875q-0.90625 0 -1.546875 0.671875q-0.640625 0.671875 -0.765625 1.78125z" fill-rule="nonzero"/><path fill="#000000" fill-opacity="0.0" d="m489.4672 415.96063l108.81888 0l0 42.897644l-108.81888 0z" fill-rule="evenodd"/><path fill="#000000" d="m501.5876 438.9882q0 -1.046875 0.34375 -1.921875q0.359375 -0.875 1.15625 -1.453125q0.796875 -0.59375 1.90625 -0.59375q1.140625 0 2.25 0.625l0 -4.375l1.359375 0l0 12.0l-0.953125 0l-0.203125 -0.59375q-1.0625 0.828125 -2.3125 0.84375q-1.484375 0 -2.515625 -1.328125q-1.03125 -1.34375 -1.03125 -3.203125zm1.359375 -0.125q0 1.390625 0.671875 2.40625q0.671875 1.0 1.71875 1.0q1.015625 0 1.90625 -0.609375l0 -4.875q-1.015625 -0.609375 -2.140625 -0.609375q-0.984375 0 -1.578125 0.71875q-0.578125 0.703125 -0.578125 1.96875zm8.0546875 4.40625l0 -8.0l1.359375 0l0 8.0l-1.359375 0zm0 -9.96875l0 -1.234375l1.359375 0l0 1.234375l-1.359375 0zm3.609375 8.921875l0.859375 -0.90625q0.296875 0.234375 0.78125 0.5q0.9375 0.46875 1.59375 0.46875q0.59375 0 1.171875 -0.328125q0.578125 -0.328125 0.578125 -0.921875q0 -0.546875 -0.5625 -0.890625q-0.546875 -0.34375 -1.859375 -0.828125q-0.546875 -0.203125 -0.84375 -0.328125q-0.296875 -0.125 -0.6875 -0.375q-0.390625 -0.25 -0.578125 -0.578125q-0.1875 -0.34375 -0.1875 -0.765625q0 -1.015625 0.921875 -1.625q0.9375 -0.625 2.09375 -0.625q0.875 0 1.859375 0.421875q0.421875 0.1875 0.78125 0.421875l-0.8125 0.96875q-0.25 -0.15625 -0.5625 -0.28125q-0.703125 -0.3125 -1.265625 -0.3125q-0.65625 0 -1.171875 0.296875q-0.515625 0.28125 -0.515625 0.734375q0 0.140625 0.125 0.28125q0.125 0.125 0.40625 0.265625q0.28125 0.125 0.484375 0.203125q0.203125 0.078125 0.5625 0.203125q0.90625 0.34375 1.34375 0.546875q0.4375 0.1875 0.921875 0.53125q0.484375 0.328125 0.671875 0.75q0.203125 0.421875 0.203125 0.984375q0 0.8125 -0.546875 1.40625q-0.546875 0.578125 -1.21875 0.828125q-0.671875 0.25 -1.3125 0.25q-0.96875 0 -2.21875 -0.65625q-0.546875 -0.28125 -1.015625 -0.640625zm8.046875 -1.484375q0 -1.078125 0.78125 -1.796875q0.78125 -0.71875 2.1875 -0.71875l2.125 0l0 -0.609375q0 -0.734375 -0.296875 -1.046875q-0.28125 -0.3125 -1.0625 -0.3125q-0.578125 0 -1.75 0.125l-1.078125 0.140625l0 -1.25q0.859375 -0.0625 1.28125 -0.109375q1.40625 -0.125 2.09375 -0.140625q1.125 0 1.65625 0.640625q0.53125 0.640625 0.53125 1.484375l0 6.125l-1.0 0l-0.234375 -0.78125l-0.046875 0q-1.390625 0.953125 -2.671875 0.9375q-1.21875 0 -1.875 -0.828125q-0.640625 -0.828125 -0.640625 -1.859375zm1.390625 0q0 0.625 0.328125 1.125q0.328125 0.484375 1.078125 0.484375q0.53125 0 1.1875 -0.21875q0.65625 -0.234375 1.09375 -0.546875l0.015625 0l0 -2.28125l-2.125 0q-1.578125 0 -1.578125 1.4375zm7.5078125 6.53125l0 -12.0l0.859375 0l0.21875 0.4375q1.40625 -0.6875 2.546875 -0.6875q1.109375 0 1.90625 0.640625q0.8125 0.640625 1.15625 1.578125q0.359375 0.921875 0.359375 1.984375q0 1.84375 -0.9375 3.078125q-0.921875 1.21875 -2.625 1.21875q-1.125 0 -2.15625 -0.546875l0 4.296875l-1.328125 0zm1.328125 -5.3125q0.765625 0.390625 1.9375 0.390625q0.90625 0 1.46875 -0.484375q0.578125 -0.5 0.765625 -1.1875q0.203125 -0.6875 0.203125 -1.609375q0 -1.296875 -0.625 -2.125q-0.625 -0.828125 -1.5625 -0.828125q-0.953125 0 -2.1875 0.515625l0 5.328125zm7.7578125 5.3125l0 -12.0l0.859375 0l0.21875 0.4375q1.40625 -0.6875 2.546875 -0.6875q1.109375 0 1.90625 0.640625q0.8125 0.640625 1.15625 1.578125q0.359375 0.921875 0.359375 1.984375q0 1.84375 -0.9375 3.078125q-0.921875 1.21875 -2.625 1.21875q-1.125 0 -2.15625 -0.546875l0 4.296875l-1.328125 0zm1.328125 -5.3125q0.765625 0.390625 1.9375 0.390625q0.90625 0 1.46875 -0.484375q0.578125 -0.5 0.765625 -1.1875q0.203125 -0.6875 0.203125 -1.609375q0 -1.296875 -0.625 -2.125q-0.625 -0.828125 -1.5625 -0.828125q-0.953125 0 -2.1875 0.515625l0 5.328125zm7.6953125 1.3125l0 -8.0l0.953125 0l0.203125 0.5625q1.015625 -0.78125 1.8125 -0.796875q0.875 0 1.609375 0.390625l-0.53125 1.078125q-0.6875 -0.25 -1.265625 -0.25q-0.796875 0 -1.453125 0.59375l0 6.421875l-1.328125 0zm7.4765625 -0.984375q-1.171875 -1.234375 -1.171875 -3.015625q0 -1.796875 1.171875 -3.015625q1.1875 -1.234375 3.046875 -1.234375q1.84375 0 3.03125 1.234375q1.203125 1.234375 1.203125 3.015625q0 1.765625 -1.203125 3.015625q-1.1875 1.234375 -3.03125 1.234375q-1.859375 0 -3.046875 -1.234375zm0.90625 -5.171875q-0.796875 0.875 -0.796875 2.15625q0 1.28125 0.796875 2.15625q0.8125 0.859375 2.140625 0.859375q1.3125 0 2.109375 -0.859375q0.8125 -0.875 0.8125 -2.15625q0 -1.28125 -0.8125 -2.15625q-0.796875 -0.875 -2.109375 -0.875q-1.328125 0 -2.140625 0.875zm7.96875 -1.84375l1.453125 0l2.4375 6.59375l2.46875 -6.59375l1.4375 0l-3.140625 8.0l-1.53125 0l-3.125 -8.0zm9.3984375 5.46875q0 -1.078125 0.78125 -1.796875q0.78125 -0.71875 2.1875 -0.71875l2.125 0l0 -0.609375q0 -0.734375 -0.296875 -1.046875q-0.28125 -0.3125 -1.0625 -0.3125q-0.578125 0 -1.75 0.125l-1.078125 0.140625l0 -1.25q0.859375 -0.0625 1.28125 -0.109375q1.40625 -0.125 2.09375 -0.140625q1.125 0 1.65625 0.640625q0.53125 0.640625 0.53125 1.484375l0 6.125l-1.0 0l-0.234375 -0.78125l-0.046875 0q-1.390625 0.953125 -2.671875 0.9375q-1.21875 0 -1.875 -0.828125q-0.640625 -0.828125 -0.640625 -1.859375zm1.390625 0q0 0.625 0.328125 1.125q0.328125 0.484375 1.078125 0.484375q0.53125 0 1.1875 -0.21875q0.65625 -0.234375 1.09375 -0.546875l0.015625 0l0 -2.28125l-2.125 0q-1.578125 0 -1.578125 1.4375zm7.5078125 2.53125l0 -12.0l1.359375 0l0 12.0l-1.359375 0z" fill-rule="nonzero"/></g></svg>