<svg version="1.1" viewBox="0.0 0.0 960.0 540.0" fill="none" stroke="none" stroke-linecap="square" stroke-miterlimit="10" xmlns:xlink="http://www.w3.org/1999/xlink" xmlns="http://www.w3.org/2000/svg"><clipPath id="g4da285de38_0_431.0"><path d="m0 0l960.0 0l0 540.0l-960.0 0l0 -540.0z" clip-rule="nonzero"/></clipPath><g clip-path="url(#g4da285de38_0_431.0)"><path fill="#ffffff" d="m0 0l960.0 0l0 540.0l-960.0 0z" fill-rule="evenodd"/><path fill="#000000" d="m213.01445 274.85455l0 0c0 -147.47308 119.55055 -267.02362 267.02362 -267.02362l0 0c70.81903 0 138.73755 28.132765 188.81421 78.209404c50.07666 50.076645 78.20941 117.99515 78.20941 188.81422l0 0c0 147.47305 -119.55054 267.02362 -267.02362 267.02362l0 0c-147.47308 0 -267.02362 -119.55057 -267.02362 -267.02362z" fill-rule="evenodd"/><path stroke="#595959" stroke-width="1.0" stroke-linejoin="round" stroke-linecap="butt" d="m213.01445 274.85455l0 0c0 -147.47308 119.55055 -267.02362 267.02362 -267.02362l0 0c70.81903 0 138.73755 28.132765 188.81421 78.209404c50.07666 50.076645 78.20941 117.99515 78.20941 188.81422l0 0c0 147.47305 -119.55054 267.02362 -267.02362 267.02362l0 0c-147.47308 0 -267.02362 -119.55057 -267.02362 -267.02362z" fill-rule="evenodd"/><path fill="#ed0000" fill-opacity="0.5231" d="m217.90883 269.9945l0 0c0 -72.39331 58.686386 -131.0797 131.0797 -131.0797l0 0c34.764496 0 68.10513 13.810135 92.68735 38.39235c24.582214 24.582214 38.392365 57.92285 38.392365 92.68735l0 0c0 72.39331 -58.6864 131.07968 -131.07971 131.07968l0 0c-72.39331 0 -131.0797 -58.68637 -131.0797 -131.07968z" fill-rule="evenodd"/><path fill="#ed0000" fill-opacity="0.5231" d="m480.06824 269.9945l0 0c0 -72.39331 58.68634 -131.0797 131.07971 -131.0797l0 0c34.764465 0 68.1051 13.810135 92.68732 38.39235c24.582214 24.582214 38.392334 57.92285 38.392334 92.68735l0 0c0 72.39331 -58.68634 131.07968 -131.07965 131.07968l0 0c-72.39337 0 -131.07971 -58.68637 -131.07971 -131.07968z" fill-rule="evenodd"/><path fill="#ed0000" fill-opacity="0.5231" d="m348.98853 138.91481l0 0c0 -72.39332 58.68637 -131.0797 131.07971 -131.0797l0 0c34.764465 0 68.1051 13.8101425 92.68732 38.392353c24.582214 24.58221 38.392395 57.922848 38.392395 92.68735l0 0c0 72.39331 -58.6864 131.0797 -131.07971 131.0797l0 0c-72.39334 0 -131.07971 -58.686386 -131.07971 -131.0797z" fill-rule="evenodd"/><path fill="#ed0000" fill-opacity="0.5231" d="m348.98853 401.0742l0 0c0 -72.39331 58.68637 -131.07968 131.07971 -131.07968l0 0c34.764465 0 68.1051 13.81015 92.68732 38.392365c24.582214 24.582214 38.392395 57.92282 38.392395 92.68732l0 0c0 72.39334 -58.6864 131.07968 -131.07971 131.07968l0 0c-72.39334 0 -131.07971 -58.68634 -131.07971 -131.07968z" fill-rule="evenodd"/><path fill="#ed0000" fill-opacity="0.5231" d="m294.6465 455.35324l0 0c-51.183853 -51.183838 -51.183853 -134.16925 0 -185.35309l0 0c24.579346 -24.579361 57.916077 -38.387894 92.676544 -38.387894c34.760437 0 68.0972 13.808533 92.676544 38.387894l0 0c51.18387 51.183838 51.18387 134.16925 0 185.35309l0 0c-51.183838 51.183838 -134.16925 51.183838 -185.35309 0z" fill-rule="evenodd"/><path fill="#ed0000" fill-opacity="0.5231" d="m479.9996 270.00015l0 0c-51.183838 -51.183853 -51.183838 -134.16927 0 -185.35312l0 0c24.579346 -24.579353 57.916107 -38.387886 92.676544 -38.387886c34.760437 0 68.09723 13.808533 92.676575 38.387886l0 0c51.183838 51.183846 51.183838 134.16925 0 185.35312l0 0c-51.183838 51.183838 -134.16925 51.183838 -185.35312 0z" fill-rule="evenodd"/><path fill="#ed0000" fill-opacity="0.5231" d="m294.6465 270.00015l0 0c-51.183853 -51.183853 -51.183853 -134.16927 0 -185.35312l0 0c24.579346 -24.579353 57.916077 -38.387886 92.676544 -38.387886c34.760437 0 68.0972 13.808533 92.676544 38.387886l0 0c51.18387 51.183846 51.18387 134.16925 0 185.35312l0 0c-51.183838 51.183838 -134.16925 51.183838 -185.35309 0z" fill-rule="evenodd"/><path fill="#ed0000" fill-opacity="0.5231" d="m479.9996 455.35324l0 0c-51.183838 -51.183838 -51.183838 -134.16925 0 -185.35309l0 0c24.579346 -24.579361 57.916107 -38.387894 92.676544 -38.387894c34.760437 0 68.09723 13.808533 92.676575 38.387894l0 0c51.183838 51.183838 51.183838 134.16925 0 185.35309l0 0c-51.183838 51.183838 -134.16925 51.183838 -185.35312 0z" fill-rule="evenodd"/><path fill="#000000" fill-opacity="0.0" d="m358.6483 85.0105l101.19687 0l0 42.897636l-101.19687 0z" fill-rule="evenodd"/><path fill="#ffffff" d="m383.2328 110.446815q-0.984375 -1.03125 -0.984375 -2.515625q0 -1.5 0.984375 -2.515625q0.984375 -1.015625 2.53125 -1.015625q1.53125 0 2.53125 1.03125q1.0 1.015625 1.0 2.5q0 1.46875 -1.0 2.5q-1.0 1.03125 -2.53125 1.03125q-1.546875 0 -2.53125 -1.015625zm0.75 -4.3125q-0.65625 0.71875 -0.65625 1.796875q0 1.0625 0.65625 1.796875q0.671875 0.71875 1.78125 0.71875q1.09375 0 1.765625 -0.71875q0.671875 -0.734375 0.671875 -1.796875q0 -1.078125 -0.671875 -1.796875q-0.671875 -0.71875 -1.765625 -0.71875q-1.109375 0 -1.78125 0.71875zm7.017517 8.453125l0 -10.0l0.71875 0l0.171875 0.375q1.171875 -0.5625 2.140625 -0.5625q0.90625 0 1.578125 0.53125q0.671875 0.53125 0.96875 1.3125q0.296875 0.765625 0.296875 1.640625q0 1.546875 -0.78125 2.5625q-0.78125 1.015625 -2.1875 1.015625q-0.9375 0 -1.796875 -0.4375l0 3.5625l-1.109375 0zm1.109375 -4.421875q0.640625 0.328125 1.609375 0.328125q0.765625 0 1.234375 -0.40625q0.46875 -0.421875 0.625 -0.984375q0.171875 -0.578125 0.171875 -1.34375q0 -1.078125 -0.53125 -1.765625q-0.515625 -0.6875 -1.28125 -0.6875q-0.796875 0 -1.828125 0.421875l0 4.4375zm6.1936646 -4.546875l0 -1.03125l1.140625 0l0 -1.921875l1.125 0l0 1.921875l1.65625 0l0 1.03125l-1.65625 0l0 3.6875q0 0.484375 0.15625 0.703125q0.15625 0.21875 0.671875 0.21875l0.6875 0l0 1.03125l-1.1875 0q-0.65625 0 -1.0625 -0.34375q-0.390625 -0.34375 -0.390625 -0.9375l0 -4.359375l-1.140625 0zm5.6997375 5.640625l0 -6.671875l1.140625 0l0 6.671875l-1.140625 0zm0 -8.296875l0 -1.03125l1.140625 0l0 1.03125l-1.140625 0zm3.2200623 8.296875l0 -6.671875l0.796875 0l0.140625 0.390625q0.734375 -0.578125 1.609375 -0.578125q0.5 0 1.015625 0.1875q0.515625 0.171875 0.796875 0.5q0.78125 -0.6875 1.75 -0.6875q0.78125 0 1.453125 0.390625q0.671875 0.390625 0.671875 1.078125l0 5.390625l-1.140625 0l0 -4.875q0 -0.96875 -1.15625 -0.96875q-0.71875 0 -1.265625 0.453125l0 5.390625l-1.125 0l0 -4.875q0 -0.96875 -1.171875 -0.96875q-0.734375 0 -1.28125 0.46875l0 5.375l-1.09375 0zm10.439972 0l0 -6.671875l1.140625 0l0 6.671875l-1.140625 0zm0 -8.296875l0 -1.03125l1.140625 0l0 1.03125l-1.140625 0zm3.0013123 7.4375l0.71875 -0.765625q0.25 0.203125 0.65625 0.421875q0.78125 0.390625 1.328125 0.390625q0.5 0 0.96875 -0.265625q0.484375 -0.28125 0.484375 -0.78125q0 -0.453125 -0.46875 -0.734375q-0.453125 -0.296875 -1.546875 -0.703125q-0.453125 -0.15625 -0.703125 -0.25q-0.25 -0.109375 -0.578125 -0.3125q-0.328125 -0.21875 -0.484375 -0.5q-0.15625 -0.28125 -0.15625 -0.640625q0 -0.84375 0.78125 -1.34375q0.78125 -0.515625 1.75 -0.515625q0.71875 0 1.546875 0.34375q0.34375 0.15625 0.640625 0.34375l-0.671875 0.8125q-0.21875 -0.125 -0.46875 -0.234375q-0.578125 -0.25 -1.046875 -0.25q-0.546875 0 -0.984375 0.234375q-0.4375 0.234375 -0.4375 0.609375q0 0.125 0.109375 0.234375q0.109375 0.109375 0.34375 0.21875q0.234375 0.109375 0.390625 0.171875q0.171875 0.0625 0.484375 0.171875q0.75 0.28125 1.109375 0.453125q0.359375 0.171875 0.765625 0.453125q0.40625 0.265625 0.5625 0.625q0.171875 0.34375 0.171875 0.8125q0 0.6875 -0.453125 1.171875q-0.453125 0.484375 -1.015625 0.6875q-0.5625 0.203125 -1.09375 0.203125q-0.8125 0 -1.84375 -0.53125q-0.453125 -0.25 -0.859375 -0.53125zm6.9218445 0.859375l0 -6.671875l0.796875 0l0.140625 0.390625q0.734375 -0.578125 1.609375 -0.578125q0.5 0 1.015625 0.1875q0.515625 0.171875 0.796875 0.5q0.78125 -0.6875 1.75 -0.6875q0.78125 0 1.453125 0.390625q0.671875 0.390625 0.671875 1.078125l0 5.390625l-1.140625 0l0 -4.875q0 -0.96875 -1.15625 -0.96875q-0.71875 0 -1.265625 0.453125l0 5.390625l-1.125 0l0 -4.875q0 -0.96875 -1.171875 -0.96875q-0.734375 0 -1.28125 0.46875l0 5.375l-1.09375 0z" fill-rule="nonzero"/><path fill="#000000" fill-opacity="0.0" d="m519.4252 85.0105l65.543335 0l0 42.897636l-65.543335 0z" fill-rule="evenodd"/><path fill="#ffffff" d="m539.80756 111.259315l0 -10.0l1.140625 0l0 10.0l-1.140625 0zm3.979187 -0.8125q-0.984375 -1.03125 -0.984375 -2.515625q0 -1.5 0.984375 -2.515625q0.984375 -1.015625 2.53125 -1.015625q1.53125 0 2.53125 1.03125q1.0 1.015625 1.0 2.5q0 1.46875 -1.0 2.5q-1.0 1.03125 -2.53125 1.03125q-1.546875 0 -2.53125 -1.015625zm0.75 -4.3125q-0.65625 0.71875 -0.65625 1.796875q0 1.0625 0.65625 1.796875q0.671875 0.71875 1.78125 0.71875q1.09375 0 1.765625 -0.71875q0.671875 -0.734375 0.671875 -1.796875q0 -1.078125 -0.671875 -1.796875q-0.671875 -0.71875 -1.765625 -0.71875q-1.109375 0 -1.78125 0.71875zm6.642517 -1.546875l1.203125 0l2.046875 5.5l2.046875 -5.5l1.203125 0l-2.625 6.671875l-1.265625 0l-2.609375 -6.671875zm7.821228 3.3125q0 -1.59375 0.84375 -2.546875q0.859375 -0.953125 2.265625 -0.953125q2.78125 0 2.78125 3.921875l-4.78125 0q0.0625 0.828125 0.59375 1.484375q0.546875 0.640625 1.65625 0.640625q1.28125 0 2.203125 -0.421875l0 1.046875q-1.0 0.375 -2.0625 0.390625q-0.90625 0 -1.59375 -0.28125q-0.6875 -0.296875 -1.09375 -0.796875q-0.40625 -0.5 -0.609375 -1.125q-0.203125 -0.625 -0.203125 -1.359375zm1.15625 -0.453125l3.59375 0q-0.09375 -0.890625 -0.5 -1.453125q-0.40625 -0.578125 -1.171875 -0.578125q-0.75 0 -1.296875 0.5625q-0.53125 0.546875 -0.625 1.46875z" fill-rule="nonzero"/><path fill="#000000" fill-opacity="0.0" d="m598.2861 168.20473l114.99213 0l0 42.89763l-114.99213 0z" fill-rule="evenodd"/><path fill="#ffffff" d="m622.37683 193.59416l0.71875 -0.765625q0.25 0.203125 0.65625 0.421875q0.78125 0.390625 1.328125 0.390625q0.5 0 0.96875 -0.265625q0.484375 -0.28125 0.484375 -0.78125q0 -0.453125 -0.46875 -0.734375q-0.453125 -0.296875 -1.546875 -0.703125q-0.453125 -0.15625 -0.703125 -0.25q-0.25 -0.109375 -0.578125 -0.3125q-0.328125 -0.21875 -0.484375 -0.5q-0.15625 -0.28125 -0.15625 -0.640625q0 -0.84375 0.78125 -1.34375q0.78125 -0.515625 1.75 -0.515625q0.71875 0 1.546875 0.34375q0.34375 0.15625 0.640625 0.34375l-0.671875 0.8125q-0.21875 -0.125 -0.46875 -0.234375q-0.578125 -0.25 -1.046875 -0.25q-0.546875 0 -0.984375 0.234375q-0.4375 0.234375 -0.4375 0.609375q0 0.125 0.109375 0.234375q0.109375 0.109375 0.34375 0.21875q0.234375 0.109375 0.390625 0.171875q0.171875 0.0625 0.484375 0.171875q0.75 0.28125 1.109375 0.453125q0.359375 0.171875 0.765625 0.453125q0.40625 0.265625 0.5625 0.625q0.171875 0.34375 0.171875 0.8125q0 0.6875 -0.453125 1.171875q-0.453125 0.484375 -1.015625 0.6875q-0.5625 0.203125 -1.09375 0.203125q-0.8125 0 -1.84375 -0.53125q-0.453125 -0.25 -0.859375 -0.53125zm7.03125 -1.171875l0 -4.640625l1.09375 0l0 4.640625q0 0.546875 0.484375 0.859375q0.5 0.3125 1.15625 0.3125q0.671875 0 1.15625 -0.3125q0.484375 -0.3125 0.484375 -0.859375l0 -4.640625l1.125 0l0 4.640625q0 1.03125 -0.859375 1.640625q-0.84375 0.59375 -1.90625 0.59375q-1.0625 0 -1.90625 -0.59375q-0.828125 -0.59375 -0.828125 -1.640625zm7.47229 2.03125l0 -10.0l1.09375 0l0 3.5q1.03125 -0.359375 1.953125 -0.359375q0.734375 0 1.296875 0.296875q0.5625 0.28125 0.875 0.78125q0.3125 0.484375 0.453125 1.046875q0.15625 0.5625 0.15625 1.15625q0 1.765625 -0.90625 2.671875q-0.90625 0.90625 -2.875 0.90625l-2.046875 0zm1.09375 -1.03125l0.953125 0q1.421875 0 2.03125 -0.609375q0.625 -0.609375 0.625 -1.96875q0 -0.890625 -0.40625 -1.5625q-0.40625 -0.671875 -1.265625 -0.671875q-1.125 0 -1.9375 0.328125l0 4.484375zm6.39032 1.03125l0 -6.671875l0.796875 0l0.140625 0.390625q0.734375 -0.578125 1.609375 -0.578125q0.5 0 1.015625 0.1875q0.515625 0.171875 0.796875 0.5q0.78125 -0.6875 1.75 -0.6875q0.78125 0 1.453125 0.390625q0.671875 0.390625 0.671875 1.078125l0 5.390625l-1.140625 0l0 -4.875q0 -0.96875 -1.15625 -0.96875q-0.71875 0 -1.265625 0.453125l0 5.390625l-1.125 0l0 -4.875q0 -0.96875 -1.171875 -0.96875q-0.734375 0 -1.28125 0.46875l0 5.375l-1.09375 0zm10.440002 0l0 -6.671875l1.140625 0l0 6.671875l-1.140625 0zm0 -8.296875l0 -1.03125l1.140625 0l0 1.03125l-1.140625 0zm3.0012817 7.4375l0.71875 -0.765625q0.25 0.203125 0.65625 0.421875q0.78125 0.390625 1.328125 0.390625q0.5 0 0.96875 -0.265625q0.484375 -0.28125 0.484375 -0.78125q0 -0.453125 -0.46875 -0.734375q-0.453125 -0.296875 -1.546875 -0.703125q-0.453125 -0.15625 -0.703125 -0.25q-0.25 -0.109375 -0.578125 -0.3125q-0.328125 -0.21875 -0.484375 -0.5q-0.15625 -0.28125 -0.15625 -0.640625q0 -0.84375 0.78125 -1.34375q0.78125 -0.515625 1.75 -0.515625q0.71875 0 1.546875 0.34375q0.34375 0.15625 0.640625 0.34375l-0.671875 0.8125q-0.21875 -0.125 -0.46875 -0.234375q-0.578125 -0.25 -1.046875 -0.25q-0.546875 0 -0.984375 0.234375q-0.4375 0.234375 -0.4375 0.609375q0 0.125 0.109375 0.234375q0.109375 0.109375 0.34375 0.21875q0.234375 0.109375 0.390625 0.171875q0.171875 0.0625 0.484375 0.171875q0.75 0.28125 1.109375 0.453125q0.359375 0.171875 0.765625 0.453125q0.40625 0.265625 0.5625 0.625q0.171875 0.34375 0.171875 0.8125q0 0.6875 -0.453125 1.171875q-0.453125 0.484375 -1.015625 0.6875q-0.5625 0.203125 -1.09375 0.203125q-0.8125 0 -1.84375 -0.53125q-0.453125 -0.25 -0.859375 -0.53125zm6.703125 0l0.71875 -0.765625q0.25 0.203125 0.65625 0.421875q0.78125 0.390625 1.328125 0.390625q0.5 0 0.96875 -0.265625q0.484375 -0.28125 0.484375 -0.78125q0 -0.453125 -0.46875 -0.734375q-0.453125 -0.296875 -1.546875 -0.703125q-0.453125 -0.15625 -0.703125 -0.25q-0.25 -0.109375 -0.578125 -0.3125q-0.328125 -0.21875 -0.484375 -0.5q-0.15625 -0.28125 -0.15625 -0.640625q0 -0.84375 0.78125 -1.34375q0.78125 -0.515625 1.75 -0.515625q0.71875 0 1.546875 0.34375q0.34375 0.15625 0.640625 0.34375l-0.671875 0.8125q-0.21875 -0.125 -0.46875 -0.234375q-0.578125 -0.25 -1.046875 -0.25q-0.546875 0 -0.984375 0.234375q-0.4375 0.234375 -0.4375 0.609375q0 0.125 0.109375 0.234375q0.109375 0.109375 0.34375 0.21875q0.234375 0.109375 0.390625 0.171875q0.171875 0.0625 0.484375 0.171875q0.75 0.28125 1.109375 0.453125q0.359375 0.171875 0.765625 0.453125q0.40625 0.265625 0.5625 0.625q0.171875 0.34375 0.171875 0.8125q0 0.6875 -0.453125 1.171875q-0.453125 0.484375 -1.015625 0.6875q-0.5625 0.203125 -1.09375 0.203125q-0.8125 0 -1.84375 -0.53125q-0.453125 -0.25 -0.859375 -0.53125zm7.046875 0.859375l0 -6.671875l1.140625 0l0 6.671875l-1.140625 0zm0 -8.296875l0 -1.03125l1.140625 0l0 1.03125l-1.140625 0zm3.9856567 7.484375q-0.984375 -1.03125 -0.984375 -2.515625q0 -1.5 0.984375 -2.515625q0.984375 -1.015625 2.53125 -1.015625q1.53125 0 2.53125 1.03125q1.0 1.015625 1.0 2.5q0 1.46875 -1.0 2.5q-1.0 1.03125 -2.53125 1.03125q-1.546875 0 -2.53125 -1.015625zm0.75 -4.3125q-0.65625 0.71875 -0.65625 1.796875q0 1.0625 0.65625 1.796875q0.671875 0.71875 1.78125 0.71875q1.09375 0 1.765625 -0.71875q0.671875 -0.734375 0.671875 -1.796875q0 -1.078125 -0.671875 -1.796875q-0.671875 -0.71875 -1.765625 -0.71875q-1.109375 0 -1.78125 0.71875zm6.970642 5.125l0 -6.671875l0.796875 0l0.171875 0.515625q1.09375 -0.703125 2.15625 -0.703125q1.109375 0 1.796875 0.53125q0.6875 0.515625 0.6875 1.59375l0 4.734375l-1.140625 0l0 -4.734375q0 -1.109375 -1.34375 -1.109375q-1.03125 0 -2.03125 0.703125l0 5.140625l-1.09375 0z" fill-rule="nonzero"/><path fill="#000000" fill-opacity="0.0" d="m602.30444 316.979l114.99213 0l0 42.897644l-114.99213 0z" fill-rule="evenodd"/><path fill="#ffffff" d="m647.86145 341.11844q0 -0.890625 0.65625 -1.484375q0.65625 -0.609375 1.828125 -0.609375l1.765625 0l0 -0.5q0 -0.609375 -0.25 -0.875q-0.234375 -0.265625 -0.875 -0.265625q-0.484375 0 -1.46875 0.109375l-0.890625 0.109375l0 -1.046875q0.71875 -0.046875 1.0625 -0.078125q1.171875 -0.109375 1.734375 -0.109375q0.953125 0 1.390625 0.53125q0.453125 0.53125 0.453125 1.21875l0 5.109375l-0.84375 0l-0.1875 -0.65625l-0.046875 0q-1.15625 0.796875 -2.21875 0.78125q-1.015625 0 -1.5625 -0.6875q-0.546875 -0.6875 -0.546875 -1.546875zm1.15625 0q0 0.515625 0.265625 0.9375q0.28125 0.40625 0.90625 0.40625q0.453125 0 1.0 -0.1875q0.546875 -0.1875 0.90625 -0.453125l0.015625 0l0 -1.90625l-1.765625 0q-1.328125 0 -1.328125 1.203125zm5.8865356 -4.5625l1.203125 0l1.515625 5.28125l1.546875 -5.28125l1.125 0l1.53125 5.28125l1.53125 -5.28125l1.203125 0l-2.09375 6.671875l-1.28125 0l-1.46875 -5.265625l-1.453125 5.265625l-1.265625 0l-2.09375 -6.671875zm10.98407 3.3125q0 -1.59375 0.84375 -2.546875q0.859375 -0.953125 2.265625 -0.953125q2.78125 0 2.78125 3.921875l-4.78125 0q0.0625 0.828125 0.59375 1.484375q0.546875 0.640625 1.65625 0.640625q1.28125 0 2.203125 -0.421875l0 1.046875q-1.0 0.375 -2.0625 0.390625q-0.90625 0 -1.59375 -0.28125q-0.6875 -0.296875 -1.09375 -0.796875q-0.40625 -0.5 -0.609375 -1.125q-0.203125 -0.625 -0.203125 -1.359375zm1.15625 -0.453125l3.59375 0q-0.09375 -0.890625 -0.5 -1.453125q-0.40625 -0.578125 -1.171875 -0.578125q-0.75 0 -1.296875 0.5625q-0.53125 0.546875 -0.625 1.46875z" fill-rule="nonzero"/><path fill="#000000" fill-opacity="0.0" d="m239.48032 191.68504l147.46457 0l0 42.89763l-147.46457 0z" fill-rule="evenodd"/><path fill="#ffffff" d="m266.25464 215.82448q0 -0.890625 0.65625 -1.484375q0.65625 -0.609375 1.828125 -0.609375l1.765625 0l0 -0.5q0 -0.609375 -0.25 -0.875q-0.234375 -0.265625 -0.875 -0.265625q-0.484375 0 -1.46875 0.109375l-0.890625 0.109375l0 -1.046875q0.71875 -0.046875 1.0625 -0.078125q1.171875 -0.109375 1.734375 -0.109375q0.953125 0 1.390625 0.53125q0.453125 0.53125 0.453125 1.21875l0 5.109375l-0.84375 0l-0.1875 -0.65625l-0.046875 0q-1.15625 0.796875 -2.21875 0.78125q-1.015625 0 -1.5625 -0.6875q-0.546875 -0.6875 -0.546875 -1.546875zm1.15625 0q0 0.515625 0.265625 0.9375q0.28125 0.40625 0.90625 0.40625q0.453125 0 1.0 -0.1875q0.546875 -0.1875 0.90625 -0.453125l0.015625 0l0 -1.90625l-1.765625 0q-1.328125 0 -1.328125 1.203125zm6.2146606 -1.203125q0 -0.90625 0.28125 -1.6875q0.296875 -0.796875 0.953125 -1.328125q0.671875 -0.53125 1.59375 -0.53125q0.8125 0 2.0 0.578125l0.1875 -0.390625l0.71875 0l0 7.609375q0 1.125 -0.65625 1.75q-0.671875 0.640625 -2.0 0.640625q-1.40625 0 -2.859375 -0.765625l0.578125 -0.875q1.171875 0.625 2.28125 0.625q1.546875 0 1.546875 -1.375l0 -1.1875q-0.84375 0.453125 -1.625 0.453125q-1.4375 0 -2.21875 -1.015625q-0.78125 -1.015625 -0.78125 -2.5zm1.09375 -0.078125q0 0.515625 0.09375 0.953125q0.109375 0.421875 0.328125 0.828125q0.234375 0.40625 0.640625 0.625q0.421875 0.21875 1.015625 0.21875q0.84375 0 1.453125 -0.328125l0 -4.4375q-0.9375 -0.4375 -1.640625 -0.421875q-0.859375 0 -1.375 0.671875q-0.515625 0.671875 -0.515625 1.890625zm6.618103 0.078125q0 -0.90625 0.28125 -1.6875q0.296875 -0.796875 0.953125 -1.328125q0.671875 -0.53125 1.59375 -0.53125q0.8125 0 2.0 0.578125l0.1875 -0.390625l0.71875 0l0 7.609375q0 1.125 -0.65625 1.75q-0.671875 0.640625 -2.0 0.640625q-1.40625 0 -2.859375 -0.765625l0.578125 -0.875q1.171875 0.625 2.28125 0.625q1.546875 0 1.546875 -1.375l0 -1.1875q-0.84375 0.453125 -1.625 0.453125q-1.4375 0 -2.21875 -1.015625q-0.78125 -1.015625 -0.78125 -2.5zm1.09375 -0.078125q0 0.515625 0.09375 0.953125q0.109375 0.421875 0.328125 0.828125q0.234375 0.40625 0.640625 0.625q0.421875 0.21875 1.015625 0.21875q0.84375 0 1.453125 -0.328125l0 -4.4375q-0.9375 -0.4375 -1.640625 -0.421875q-0.859375 0 -1.375 0.671875q-0.515625 0.671875 -0.515625 1.890625zm6.6180725 3.390625l0 -6.671875l0.796875 0l0.15625 0.46875q0.859375 -0.640625 1.515625 -0.65625q0.71875 0 1.34375 0.328125l-0.4375 0.890625q-0.578125 -0.203125 -1.0625 -0.203125q-0.65625 0 -1.21875 0.5l0 5.34375l-1.09375 0zm5.2413635 -3.359375q0 -1.59375 0.84375 -2.546875q0.859375 -0.953125 2.265625 -0.953125q2.78125 0 2.78125 3.921875l-4.78125 0q0.0625 0.828125 0.59375 1.484375q0.546875 0.640625 1.65625 0.640625q1.28125 0 2.203125 -0.421875l0 1.046875q-1.0 0.375 -2.0625 0.390625q-0.90625 0 -1.59375 -0.28125q-0.6875 -0.296875 -1.09375 -0.796875q-0.40625 -0.5 -0.609375 -1.125q-0.203125 -0.625 -0.203125 -1.359375zm1.15625 -0.453125l3.59375 0q-0.09375 -0.890625 -0.5 -1.453125q-0.40625 -0.578125 -1.171875 -0.578125q-0.75 0 -1.296875 0.5625q-0.53125 0.546875 -0.625 1.46875zm6.1325684 2.953125l0.71875 -0.765625q0.25 0.203125 0.65625 0.421875q0.78125 0.390625 1.328125 0.390625q0.5 0 0.96875 -0.265625q0.484375 -0.28125 0.484375 -0.78125q0 -0.453125 -0.46875 -0.734375q-0.453125 -0.296875 -1.546875 -0.703125q-0.453125 -0.15625 -0.703125 -0.25q-0.25 -0.109375 -0.578125 -0.3125q-0.328125 -0.21875 -0.484375 -0.5q-0.15625 -0.28125 -0.15625 -0.640625q0 -0.84375 0.78125 -1.34375q0.78125 -0.515625 1.75 -0.515625q0.71875 0 1.546875 0.34375q0.34375 0.15625 0.640625 0.34375l-0.671875 0.8125q-0.21875 -0.125 -0.46875 -0.234375q-0.578125 -0.25 -1.046875 -0.25q-0.546875 0 -0.984375 0.234375q-0.4375 0.234375 -0.4375 0.609375q0 0.125 0.109375 0.234375q0.109375 0.109375 0.34375 0.21875q0.234375 0.109375 0.390625 0.171875q0.171875 0.0625 0.484375 0.171875q0.75 0.28125 1.109375 0.453125q0.359375 0.171875 0.765625 0.453125q0.40625 0.265625 0.5625 0.625q0.171875 0.34375 0.171875 0.8125q0 0.6875 -0.453125 1.171875q-0.453125 0.484375 -1.015625 0.6875q-0.5625 0.203125 -1.09375 0.203125q-0.8125 0 -1.84375 -0.53125q-0.453125 -0.25 -0.859375 -0.53125zm6.703125 0l0.71875 -0.765625q0.25 0.203125 0.65625 0.421875q0.78125 0.390625 1.328125 0.390625q0.5 0 0.96875 -0.265625q0.484375 -0.28125 0.484375 -0.78125q0 -0.453125 -0.46875 -0.734375q-0.453125 -0.296875 -1.546875 -0.703125q-0.453125 -0.15625 -0.703125 -0.25q-0.25 -0.109375 -0.578125 -0.3125q-0.328125 -0.21875 -0.484375 -0.5q-0.15625 -0.28125 -0.15625 -0.640625q0 -0.84375 0.78125 -1.34375q0.78125 -0.515625 1.75 -0.515625q0.71875 0 1.546875 0.34375q0.34375 0.15625 0.640625 0.34375l-0.671875 0.8125q-0.21875 -0.125 -0.46875 -0.234375q-0.578125 -0.25 -1.046875 -0.25q-0.546875 0 -0.984375 0.234375q-0.4375 0.234375 -0.4375 0.609375q0 0.125 0.109375 0.234375q0.109375 0.109375 0.34375 0.21875q0.234375 0.109375 0.390625 0.171875q0.171875 0.0625 0.484375 0.171875q0.75 0.28125 1.109375 0.453125q0.359375 0.171875 0.765625 0.453125q0.40625 0.265625 0.5625 0.625q0.171875 0.34375 0.171875 0.8125q0 0.6875 -0.453125 1.171875q-0.453125 0.484375 -1.015625 0.6875q-0.5625 0.203125 -1.09375 0.203125q-0.8125 0 -1.84375 -0.53125q-0.453125 -0.25 -0.859375 -0.53125zm7.0468445 0.859375l0 -6.671875l1.140625 0l0 6.671875l-1.140625 0zm0 -8.296875l0 -1.03125l1.140625 0l0 1.03125l-1.140625 0zm2.8919373 1.625l1.203125 0l2.046875 5.5l2.046875 -5.5l1.203125 0l-2.625 6.671875l-1.265625 0l-2.609375 -6.671875zm7.8211975 3.3125q0 -1.59375 0.84375 -2.546875q0.859375 -0.953125 2.265625 -0.953125q2.78125 0 2.78125 3.921875l-4.78125 0q0.0625 0.828125 0.59375 1.484375q0.546875 0.640625 1.65625 0.640625q1.28125 0 2.203125 -0.421875l0 1.046875q-1.0 0.375 -2.0625 0.390625q-0.90625 0 -1.59375 -0.28125q-0.6875 -0.296875 -1.09375 -0.796875q-0.40625 -0.5 -0.609375 -1.125q-0.203125 -0.625 -0.203125 -1.359375zm1.15625 -0.453125l3.59375 0q-0.09375 -0.890625 -0.5 -1.453125q-0.40625 -0.578125 -1.171875 -0.578125q-0.75 0 -1.296875 0.5625q-0.53125 0.546875 -0.625 1.46875zm6.3513184 3.8125l0 -6.671875l0.796875 0l0.171875 0.515625q1.09375 -0.703125 2.15625 -0.703125q1.109375 0 1.796875 0.53125q0.6875 0.515625 0.6875 1.59375l0 4.734375l-1.140625 0l0 -4.734375q0 -1.109375 -1.34375 -1.109375q-1.03125 0 -2.03125 0.703125l0 5.140625l-1.09375 0zm7.3629456 -3.359375q0 -1.59375 0.84375 -2.546875q0.859375 -0.953125 2.265625 -0.953125q2.78125 0 2.78125 3.921875l-4.78125 0q0.0625 0.828125 0.59375 1.484375q0.546875 0.640625 1.65625 0.640625q1.28125 0 2.203125 -0.421875l0 1.046875q-1.0 0.375 -2.0625 0.390625q-0.90625 0 -1.59375 -0.28125q-0.6875 -0.296875 -1.09375 -0.796875q-0.40625 -0.5 -0.609375 -1.125q-0.203125 -0.625 -0.203125 -1.359375zm1.15625 -0.453125l3.59375 0q-0.09375 -0.890625 -0.5 -1.453125q-0.40625 -0.578125 -1.171875 -0.578125q-0.75 0 -1.296875 0.5625q-0.53125 0.546875 -0.625 1.46875zm6.1325684 2.953125l0.71875 -0.765625q0.25 0.203125 0.65625 0.421875q0.78125 0.390625 1.328125 0.390625q0.5 0 0.96875 -0.265625q0.484375 -0.28125 0.484375 -0.78125q0 -0.453125 -0.46875 -0.734375q-0.453125 -0.296875 -1.546875 -0.703125q-0.453125 -0.15625 -0.703125 -0.25q-0.25 -0.109375 -0.578125 -0.3125q-0.328125 -0.21875 -0.484375 -0.5q-0.15625 -0.28125 -0.15625 -0.640625q0 -0.84375 0.78125 -1.34375q0.78125 -0.515625 1.75 -0.515625q0.71875 0 1.546875 0.34375q0.34375 0.15625 0.640625 0.34375l-0.671875 0.8125q-0.21875 -0.125 -0.46875 -0.234375q-0.578125 -0.25 -1.046875 -0.25q-0.546875 0 -0.984375 0.234375q-0.4375 0.234375 -0.4375 0.609375q0 0.125 0.109375 0.234375q0.109375 0.109375 0.34375 0.21875q0.234375 0.109375 0.390625 0.171875q0.171875 0.0625 0.484375 0.171875q0.75 0.28125 1.109375 0.453125q0.359375 0.171875 0.765625 0.453125q0.40625 0.265625 0.5625 0.625q0.171875 0.34375 0.171875 0.8125q0 0.6875 -0.453125 1.171875q-0.453125 0.484375 -1.015625 0.6875q-0.5625 0.203125 -1.09375 0.203125q-0.8125 0 -1.84375 -0.53125q-0.453125 -0.25 -0.859375 -0.53125zm6.7030945 0l0.71875 -0.765625q0.25 0.203125 0.65625 0.421875q0.78125 0.390625 1.328125 0.390625q0.5 0 0.96875 -0.265625q0.484375 -0.28125 0.484375 -0.78125q0 -0.453125 -0.46875 -0.734375q-0.453125 -0.296875 -1.546875 -0.703125q-0.453125 -0.15625 -0.703125 -0.25q-0.25 -0.109375 -0.578125 -0.3125q-0.328125 -0.21875 -0.484375 -0.5q-0.15625 -0.28125 -0.15625 -0.640625q0 -0.84375 0.78125 -1.34375q0.78125 -0.515625 1.75 -0.515625q0.71875 0 1.546875 0.34375q0.34375 0.15625 0.640625 0.34375l-0.671875 0.8125q-0.21875 -0.125 -0.46875 -0.234375q-0.578125 -0.25 -1.046875 -0.25q-0.546875 0 -0.984375 0.234375q-0.4375 0.234375 -0.4375 0.609375q0 0.125 0.109375 0.234375q0.109375 0.109375 0.34375 0.21875q0.234375 0.109375 0.390625 0.171875q0.171875 0.0625 0.484375 0.171875q0.75 0.28125 1.109375 0.453125q0.359375 0.171875 0.765625 0.453125q0.40625 0.265625 0.5625 0.625q0.171875 0.34375 0.171875 0.8125q0 0.6875 -0.453125 1.171875q-0.453125 0.484375 -1.015625 0.6875q-0.5625 0.203125 -1.09375 0.203125q-0.8125 0 -1.84375 -0.53125q-0.453125 -0.25 -0.859375 -0.53125z" fill-rule="nonzero"/><path fill="#000000" fill-opacity="0.0" d="m252.47769 316.979l114.99213 0l0 42.897644l-114.99213 0z" fill-rule="evenodd"/><path fill="#ffffff" d="m282.38687 342.3997q-1.015625 -1.046875 -1.015625 -2.5q0 -1.46875 1.015625 -2.5q1.03125 -1.03125 2.484375 -1.03125q0.890625 0 1.8125 0.1875l0 1.015625q-0.90625 -0.1875 -1.8125 -0.1875q-1.015625 0 -1.71875 0.734375q-0.6875 0.734375 -0.6875 1.78125q0 1.03125 0.703125 1.78125q0.703125 0.734375 1.703125 0.734375q0.890625 0 1.8125 -0.203125l0 1.015625q-0.90625 0.203125 -1.8125 0.203125q-1.453125 0 -2.484375 -1.03125zm6.658844 0.015625q-0.984375 -1.03125 -0.984375 -2.515625q0 -1.5 0.984375 -2.515625q0.984375 -1.015625 2.53125 -1.015625q1.53125 0 2.53125 1.03125q1.0 1.015625 1.0 2.5q0 1.46875 -1.0 2.5q-1.0 1.03125 -2.53125 1.03125q-1.546875 0 -2.53125 -1.015625zm0.75 -4.3125q-0.65625 0.71875 -0.65625 1.796875q0 1.0625 0.65625 1.796875q0.671875 0.71875 1.78125 0.71875q1.09375 0 1.765625 -0.71875q0.671875 -0.734375 0.671875 -1.796875q0 -1.078125 -0.671875 -1.796875q-0.671875 -0.71875 -1.765625 -0.71875q-1.109375 0 -1.78125 0.71875zm6.970642 5.125l0 -6.671875l0.796875 0l0.171875 0.515625q1.09375 -0.703125 2.15625 -0.703125q1.109375 0 1.796875 0.53125q0.6875 0.515625 0.6875 1.59375l0 4.734375l-1.140625 0l0 -4.734375q0 -1.109375 -1.34375 -1.109375q-1.03125 0 -2.03125 0.703125l0 5.140625l-1.09375 0zm7.3629456 -5.640625l0 -1.03125l1.140625 0l0 -1.921875l1.125 0l0 1.921875l1.65625 0l0 1.03125l-1.65625 0l0 3.6875q0 0.484375 0.15625 0.703125q0.15625 0.21875 0.671875 0.21875l0.6875 0l0 1.03125l-1.1875 0q-0.65625 0 -1.0625 -0.34375q-0.390625 -0.34375 -0.390625 -0.9375l0 -4.359375l-1.140625 0zm5.3559875 2.28125q0 -1.59375 0.84375 -2.546875q0.859375 -0.953125 2.265625 -0.953125q2.78125 0 2.78125 3.921875l-4.78125 0q0.0625 0.828125 0.59375 1.484375q0.546875 0.640625 1.65625 0.640625q1.28125 0 2.203125 -0.421875l0 1.046875q-1.0 0.375 -2.0625 0.390625q-0.90625 0 -1.59375 -0.28125q-0.6875 -0.296875 -1.09375 -0.796875q-0.40625 -0.5 -0.609375 -1.125q-0.203125 -0.625 -0.203125 -1.359375zm1.15625 -0.453125l3.59375 0q-0.09375 -0.890625 -0.5 -1.453125q-0.40625 -0.578125 -1.171875 -0.578125q-0.75 0 -1.296875 0.5625q-0.53125 0.546875 -0.625 1.46875zm6.3513184 3.8125l0 -6.671875l0.796875 0l0.140625 0.390625q0.734375 -0.578125 1.609375 -0.578125q0.5 0 1.015625 0.1875q0.515625 0.171875 0.796875 0.5q0.78125 -0.6875 1.75 -0.6875q0.78125 0 1.453125 0.390625q0.671875 0.390625 0.671875 1.078125l0 5.390625l-1.140625 0l0 -4.875q0 -0.96875 -1.15625 -0.96875q-0.71875 0 -1.265625 0.453125l0 5.390625l-1.125 0l0 -4.875q0 -0.96875 -1.171875 -0.96875q-0.734375 0 -1.28125 0.46875l0 5.375l-1.09375 0zm10.361847 3.328125l0 -10.0l0.71875 0l0.171875 0.375q1.171875 -0.5625 2.140625 -0.5625q0.90625 0 1.578125 0.53125q0.671875 0.53125 0.96875 1.3125q0.296875 0.765625 0.296875 1.640625q0 1.546875 -0.78125 2.5625q-0.78125 1.015625 -2.1875 1.015625q-0.9375 0 -1.796875 -0.4375l0 3.5625l-1.109375 0zm1.109375 -4.421875q0.640625 0.328125 1.609375 0.328125q0.765625 0 1.234375 -0.40625q0.46875 -0.421875 0.625 -0.984375q0.171875 -0.578125 0.171875 -1.34375q0 -1.078125 -0.53125 -1.765625q-0.515625 -0.6875 -1.28125 -0.6875q-0.796875 0 -1.828125 0.421875l0 4.4375zm6.1936646 -4.546875l0 -1.03125l1.140625 0l0 -1.921875l1.125 0l0 1.921875l1.65625 0l0 1.03125l-1.65625 0l0 3.6875q0 0.484375 0.15625 0.703125q0.15625 0.21875 0.671875 0.21875l0.6875 0l0 1.03125l-1.1875 0q-0.65625 0 -1.0625 -0.34375q-0.390625 -0.34375 -0.390625 -0.9375l0 -4.359375l-1.140625 0z" fill-rule="nonzero"/><path fill="#000000" fill-opacity="0.0" d="m354.59842 421.6273l101.19687 0l0 42.897644l-101.19687 0z" fill-rule="evenodd"/><path fill="#ffffff" d="m380.63324 447.87613l0 -6.671875l0.796875 0l0.15625 0.46875q0.859375 -0.640625 1.515625 -0.65625q0.71875 0 1.34375 0.328125l-0.4375 0.890625q-0.578125 -0.203125 -1.0625 -0.203125q-0.65625 0 -1.21875 0.5l0 5.34375l-1.09375 0zm5.2413635 -3.359375q0 -1.59375 0.84375 -2.546875q0.859375 -0.953125 2.265625 -0.953125q2.78125 0 2.78125 3.921875l-4.78125 0q0.0625 0.828125 0.59375 1.484375q0.546875 0.640625 1.65625 0.640625q1.28125 0 2.203125 -0.421875l0 1.046875q-1.0 0.375 -2.0625 0.390625q-0.90625 0 -1.59375 -0.28125q-0.6875 -0.296875 -1.09375 -0.796875q-0.40625 -0.5 -0.609375 -1.125q-0.203125 -0.625 -0.203125 -1.359375zm1.15625 -0.453125l3.59375 0q-0.09375 -0.890625 -0.5 -1.453125q-0.40625 -0.578125 -1.171875 -0.578125q-0.75 0 -1.296875 0.5625q-0.53125 0.546875 -0.625 1.46875zm6.3513184 3.8125l0 -6.671875l0.796875 0l0.140625 0.390625q0.734375 -0.578125 1.609375 -0.578125q0.5 0 1.015625 0.1875q0.515625 0.171875 0.796875 0.5q0.78125 -0.6875 1.75 -0.6875q0.78125 0 1.453125 0.390625q0.671875 0.390625 0.671875 1.078125l0 5.390625l-1.140625 0l0 -4.875q0 -0.96875 -1.15625 -0.96875q-0.71875 0 -1.265625 0.453125l0 5.390625l-1.125 0l0 -4.875q0 -0.96875 -1.171875 -0.96875q-0.734375 0 -1.28125 0.46875l0 5.375l-1.09375 0zm11.080597 -0.8125q-0.984375 -1.03125 -0.984375 -2.515625q0 -1.5 0.984375 -2.515625q0.984375 -1.015625 2.53125 -1.015625q1.53125 0 2.53125 1.03125q1.0 1.015625 1.0 2.5q0 1.46875 -1.0 2.5q-1.0 1.03125 -2.53125 1.03125q-1.546875 0 -2.53125 -1.015625zm0.75 -4.3125q-0.65625 0.71875 -0.65625 1.796875q0 1.0625 0.65625 1.796875q0.671875 0.71875 1.78125 0.71875q1.09375 0 1.765625 -0.71875q0.671875 -0.734375 0.671875 -1.796875q0 -1.078125 -0.671875 -1.796875q-0.671875 -0.71875 -1.765625 -0.71875q-1.109375 0 -1.78125 0.71875zm6.970642 5.125l0 -6.671875l0.796875 0l0.15625 0.46875q0.859375 -0.640625 1.515625 -0.65625q0.71875 0 1.34375 0.328125l-0.4375 0.890625q-0.578125 -0.203125 -1.0625 -0.203125q-0.65625 0 -1.21875 0.5l0 5.34375l-1.09375 0zm5.2413635 -0.859375l0.71875 -0.765625q0.25 0.203125 0.65625 0.421875q0.78125 0.390625 1.328125 0.390625q0.5 0 0.96875 -0.265625q0.484375 -0.28125 0.484375 -0.78125q0 -0.453125 -0.46875 -0.734375q-0.453125 -0.296875 -1.546875 -0.703125q-0.453125 -0.15625 -0.703125 -0.25q-0.25 -0.109375 -0.578125 -0.3125q-0.328125 -0.21875 -0.484375 -0.5q-0.15625 -0.28125 -0.15625 -0.640625q0 -0.84375 0.78125 -1.34375q0.78125 -0.515625 1.75 -0.515625q0.71875 0 1.546875 0.34375q0.34375 0.15625 0.640625 0.34375l-0.671875 0.8125q-0.21875 -0.125 -0.46875 -0.234375q-0.578125 -0.25 -1.046875 -0.25q-0.546875 0 -0.984375 0.234375q-0.4375 0.234375 -0.4375 0.609375q0 0.125 0.109375 0.234375q0.109375 0.109375 0.34375 0.21875q0.234375 0.109375 0.390625 0.171875q0.171875 0.0625 0.484375 0.171875q0.75 0.28125 1.109375 0.453125q0.359375 0.171875 0.765625 0.453125q0.40625 0.265625 0.5625 0.625q0.171875 0.34375 0.171875 0.8125q0 0.6875 -0.453125 1.171875q-0.453125 0.484375 -1.015625 0.6875q-0.5625 0.203125 -1.09375 0.203125q-0.8125 0 -1.84375 -0.53125q-0.453125 -0.25 -0.859375 -0.53125zm6.703125 -2.5q0 -1.59375 0.84375 -2.546875q0.859375 -0.953125 2.265625 -0.953125q2.78125 0 2.78125 3.921875l-4.78125 0q0.0625 0.828125 0.59375 1.484375q0.546875 0.640625 1.65625 0.640625q1.28125 0 2.203125 -0.421875l0 1.046875q-1.0 0.375 -2.0625 0.390625q-0.90625 0 -1.59375 -0.28125q-0.6875 -0.296875 -1.09375 -0.796875q-0.40625 -0.5 -0.609375 -1.125q-0.203125 -0.625 -0.203125 -1.359375zm1.15625 -0.453125l3.59375 0q-0.09375 -0.890625 -0.5 -1.453125q-0.40625 -0.578125 -1.171875 -0.578125q-0.75 0 -1.296875 0.5625q-0.53125 0.546875 -0.625 1.46875z" fill-rule="nonzero"/><path fill="#000000" fill-opacity="0.0" d="m493.48557 421.6273l108.81888 0l0 42.897644l-108.81888 0z" fill-rule="evenodd"/><path fill="#ffffff" d="m512.6577 444.31363q0 -0.875 0.296875 -1.59375q0.296875 -0.734375 0.953125 -1.21875q0.671875 -0.484375 1.59375 -0.484375q0.953125 0 1.875 0.515625l0 -3.65625l1.140625 0l0 10.0l-0.8125 0l-0.15625 -0.5q-0.890625 0.6875 -1.9375 0.703125q-1.234375 0 -2.09375 -1.109375q-0.859375 -1.109375 -0.859375 -2.65625zm1.140625 -0.09375q0 1.15625 0.546875 2.0q0.5625 0.828125 1.453125 0.828125q0.828125 0 1.578125 -0.5l0 -4.0625q-0.84375 -0.515625 -1.78125 -0.515625q-0.8125 0 -1.3125 0.59375q-0.484375 0.59375 -0.484375 1.65625zm6.706726 3.65625l0 -6.671875l1.140625 0l0 6.671875l-1.140625 0zm0 -8.296875l0 -1.03125l1.140625 0l0 1.03125l-1.140625 0zm3.0012817 7.4375l0.71875 -0.765625q0.25 0.203125 0.65625 0.421875q0.78125 0.390625 1.328125 0.390625q0.5 0 0.96875 -0.265625q0.484375 -0.28125 0.484375 -0.78125q0 -0.453125 -0.46875 -0.734375q-0.453125 -0.296875 -1.546875 -0.703125q-0.453125 -0.15625 -0.703125 -0.25q-0.25 -0.109375 -0.578125 -0.3125q-0.328125 -0.21875 -0.484375 -0.5q-0.15625 -0.28125 -0.15625 -0.640625q0 -0.84375 0.78125 -1.34375q0.78125 -0.515625 1.75 -0.515625q0.71875 0 1.546875 0.34375q0.34375 0.15625 0.640625 0.34375l-0.671875 0.8125q-0.21875 -0.125 -0.46875 -0.234375q-0.578125 -0.25 -1.046875 -0.25q-0.546875 0 -0.984375 0.234375q-0.4375 0.234375 -0.4375 0.609375q0 0.125 0.109375 0.234375q0.109375 0.109375 0.34375 0.21875q0.234375 0.109375 0.390625 0.171875q0.171875 0.0625 0.484375 0.171875q0.75 0.28125 1.109375 0.453125q0.359375 0.171875 0.765625 0.453125q0.40625 0.265625 0.5625 0.625q0.171875 0.34375 0.171875 0.8125q0 0.6875 -0.453125 1.171875q-0.453125 0.484375 -1.015625 0.6875q-0.5625 0.203125 -1.09375 0.203125q-0.8125 0 -1.84375 -0.53125q-0.453125 -0.25 -0.859375 -0.53125zm6.703125 -1.25q0 -0.890625 0.65625 -1.484375q0.65625 -0.609375 1.828125 -0.609375l1.765625 0l0 -0.5q0 -0.609375 -0.25 -0.875q-0.234375 -0.265625 -0.875 -0.265625q-0.484375 0 -1.46875 0.109375l-0.890625 0.109375l0 -1.046875q0.71875 -0.046875 1.0625 -0.078125q1.171875 -0.109375 1.734375 -0.109375q0.953125 0 1.390625 0.53125q0.453125 0.53125 0.453125 1.21875l0 5.109375l-0.84375 0l-0.1875 -0.65625l-0.046875 0q-1.15625 0.796875 -2.21875 0.78125q-1.015625 0 -1.5625 -0.6875q-0.546875 -0.6875 -0.546875 -1.546875zm1.15625 0q0 0.515625 0.265625 0.9375q0.28125 0.40625 0.90625 0.40625q0.453125 0 1.0 -0.1875q0.546875 -0.1875 0.90625 -0.453125l0.015625 0l0 -1.90625l-1.765625 0q-1.328125 0 -1.328125 1.203125zm6.2615356 5.4375l0 -10.0l0.71875 0l0.171875 0.375q1.171875 -0.5625 2.140625 -0.5625q0.90625 0 1.578125 0.53125q0.671875 0.53125 0.96875 1.3125q0.296875 0.765625 0.296875 1.640625q0 1.546875 -0.78125 2.5625q-0.78125 1.015625 -2.1875 1.015625q-0.9375 0 -1.796875 -0.4375l0 3.5625l-1.109375 0zm1.109375 -4.421875q0.640625 0.328125 1.609375 0.328125q0.765625 0 1.234375 -0.40625q0.46875 -0.421875 0.625 -0.984375q0.171875 -0.578125 0.171875 -1.34375q0 -1.078125 -0.53125 -1.765625q-0.515625 -0.6875 -1.28125 -0.6875q-0.796875 0 -1.828125 0.421875l0 4.4375zm6.4592896 4.421875l0 -10.0l0.71875 0l0.171875 0.375q1.171875 -0.5625 2.140625 -0.5625q0.90625 0 1.578125 0.53125q0.671875 0.53125 0.96875 1.3125q0.296875 0.765625 0.296875 1.640625q0 1.546875 -0.78125 2.5625q-0.78125 1.015625 -2.1875 1.015625q-0.9375 0 -1.796875 -0.4375l0 3.5625l-1.109375 0zm1.109375 -4.421875q0.640625 0.328125 1.609375 0.328125q0.765625 0 1.234375 -0.40625q0.46875 -0.421875 0.625 -0.984375q0.171875 -0.578125 0.171875 -1.34375q0 -1.078125 -0.53125 -1.765625q-0.515625 -0.6875 -1.28125 -0.6875q-0.796875 0 -1.828125 0.421875l0 4.4375zm6.4124146 1.09375l0 -6.671875l0.796875 0l0.15625 0.46875q0.859375 -0.640625 1.515625 -0.65625q0.71875 0 1.34375 0.328125l-0.4375 0.890625q-0.578125 -0.203125 -1.0625 -0.203125q-0.65625 0 -1.21875 0.5l0 5.34375l-1.09375 0zm6.225708 -0.8125q-0.984375 -1.03125 -0.984375 -2.515625q0 -1.5 0.984375 -2.515625q0.984375 -1.015625 2.53125 -1.015625q1.53125 0 2.53125 1.03125q1.0 1.015625 1.0 2.5q0 1.46875 -1.0 2.5q-1.0 1.03125 -2.53125 1.03125q-1.546875 0 -2.53125 -1.015625zm0.75 -4.3125q-0.65625 0.71875 -0.65625 1.796875q0 1.0625 0.65625 1.796875q0.671875 0.71875 1.78125 0.71875q1.09375 0 1.765625 -0.71875q0.671875 -0.734375 0.671875 -1.796875q0 -1.078125 -0.671875 -1.796875q-0.671875 -0.71875 -1.765625 -0.71875q-1.109375 0 -1.78125 0.71875zm6.642517 -1.546875l1.203125 0l2.046875 5.5l2.046875 -5.5l1.203125 0l-2.625 6.671875l-1.265625 0l-2.609375 -6.671875zm7.821228 4.5625q0 -0.890625 0.65625 -1.484375q0.65625 -0.609375 1.828125 -0.609375l1.765625 0l0 -0.5q0 -0.609375 -0.25 -0.875q-0.234375 -0.265625 -0.875 -0.265625q-0.484375 0 -1.46875 0.109375l-0.890625 0.109375l0 -1.046875q0.71875 -0.046875 1.0625 -0.078125q1.171875 -0.109375 1.734375 -0.109375q0.953125 0 1.390625 0.53125q0.453125 0.53125 0.453125 1.21875l0 5.109375l-0.84375 0l-0.1875 -0.65625l-0.046875 0q-1.15625 0.796875 -2.21875 0.78125q-1.015625 0 -1.5625 -0.6875q-0.546875 -0.6875 -0.546875 -1.546875zm1.15625 0q0 0.515625 0.265625 0.9375q0.28125 0.40625 0.90625 0.40625q0.453125 0 1.0 -0.1875q0.546875 -0.1875 0.90625 -0.453125l0.015625 0l0 -1.90625l-1.765625 0q-1.328125 0 -1.328125 1.203125zm6.2615356 2.109375l0 -10.0l1.140625 0l0 10.0l-1.140625 0z" fill-rule="nonzero"/></g></svg>