<svg version="1.1" viewBox="0.0 0.0 960.0 540.0" fill="none" stroke="none" stroke-linecap="square" stroke-miterlimit="10" xmlns:xlink="http://www.w3.org/1999/xlink" xmlns="http://www.w3.org/2000/svg"><clipPath id="g4da285de38_0_237.0"><path d="m0 0l960.0 0l0 540.0l-960.0 0l0 -540.0z" clip-rule="nonzero"/></clipPath><g clip-path="url(#g4da285de38_0_237.0)"><path fill="#ffffff" d="m0 0l960.0 0l0 540.0l-960.0 0z" fill-rule="evenodd"/><path fill="#000000" d="m383.09848 521.486l0 0c-136.70569 -55.332825 -202.67142 -211.01083 -147.33858 -347.71652l0 0c26.571762 -65.648384 78.13396 -118.0524 143.34343 -145.68373c65.2095 -27.631346 138.72473 -28.226608 204.37311 -1.6548405l0 0c136.70569 55.332848 202.67145 211.01083 147.33856 347.71655l0 0c-55.332825 136.70569 -211.0108 202.67145 -347.71652 147.33856z" fill-rule="evenodd"/><path stroke="#595959" stroke-width="1.0" stroke-linejoin="round" stroke-linecap="butt" d="m383.09848 521.486l0 0c-136.70569 -55.332825 -202.67142 -211.01083 -147.33858 -347.71652l0 0c26.571762 -65.648384 78.13396 -118.0524 143.34343 -145.68373c65.2095 -27.631346 138.72473 -28.226608 204.37311 -1.6548405l0 0c136.70569 55.332848 202.67145 211.01083 147.33856 347.71655l0 0c-55.332825 136.70569 -211.0108 202.67145 -347.71652 147.33856z" fill-rule="evenodd"/><path fill="#0000ff" fill-opacity="0.5538" d="m387.80725 501.10477c-16.689667 -6.7797546 -30.074982 -43.13443 -31.162506 -67.93045c-1.0875549 -24.79602 6.7956543 -55.148804 24.637207 -80.84567c17.841553 -25.696869 64.8923 -62.489044 82.41205 -73.33554c17.519775 -10.846466 17.59845 -11.538513 22.706482 8.256744c5.1080017 19.795258 12.877869 79.41434 7.9415894 110.51486c-4.93631 31.100494 -19.803558 58.86487 -37.559357 76.08823c-17.755829 17.223328 -52.285797 34.031616 -68.975464 27.251831z" fill-rule="evenodd"/><path stroke="#595959" stroke-width="1.0" stroke-linejoin="round" stroke-linecap="butt" d="m387.80725 501.10477c-16.689667 -6.7797546 -30.074982 -43.13443 -31.162506 -67.93045c-1.0875549 -24.79602 6.7956543 -55.148804 24.637207 -80.84567c17.841553 -25.696869 64.8923 -62.489044 82.41205 -73.33554c17.519775 -10.846466 17.59845 -11.538513 22.706482 8.256744c5.1080017 19.795258 12.877869 79.41434 7.9415894 110.51486c-4.93631 31.100494 -19.803558 58.86487 -37.559357 76.08823c-17.755829 17.223328 -52.285797 34.031616 -68.975464 27.251831z" fill-rule="evenodd"/><path fill="#38761d" fill-opacity="0.5385" d="m707.92816 364.20688c-6.779785 16.689667 -43.13446 30.074982 -67.93048 31.162506c-24.79602 1.0875549 -55.148804 -6.7956543 -80.84564 -24.637207c-25.6969 -17.841553 -62.489075 -64.8923 -73.33554 -82.41208c-10.846466 -17.519745 -11.538544 -17.59842 8.256744 -22.706451c19.795227 -5.1080017 79.41431 -12.877884 110.51483 -7.9415894c31.100525 4.93631 58.86487 19.803558 76.08826 37.559357c17.223328 17.755798 34.031616 52.285797 27.251831 68.975464z" fill-rule="evenodd"/><path stroke="#595959" stroke-width="1.0" stroke-linejoin="round" stroke-linecap="butt" d="m707.92816 364.20688c-6.779785 16.689667 -43.13446 30.074982 -67.93048 31.162506c-24.79602 1.0875549 -55.148804 -6.7956543 -80.84564 -24.637207c-25.6969 -17.841553 -62.489075 -64.8923 -73.33554 -82.41208c-10.846466 -17.519745 -11.538544 -17.59842 8.256744 -22.706451c19.795227 -5.1080017 79.41431 -12.877884 110.51483 -7.9415894c31.100525 4.93631 58.86487 19.803558 76.08826 37.559357c17.223328 17.755798 34.031616 52.285797 27.251831 68.975464z" fill-rule="evenodd"/><path fill="#ff0000" fill-opacity="0.5231" d="m249.04526 180.26587c6.77977 -16.689651 43.13443 -30.074951 67.93045 -31.162506c24.79602 -1.0875549 55.148804 6.7956696 80.84567 24.637222c25.696869 17.841553 62.489075 64.8923 73.33554 82.41206c10.846466 17.519745 11.538513 17.59845 -8.256744 22.706451c-19.795258 5.1080017 -79.41434 12.877899 -110.51486 7.9415894c-31.100494 -4.9362793 -58.86487 -19.803558 -76.088196 -37.559357c-17.223358 -17.755798 -34.03163 -52.285797 -27.251862 -68.975464z" fill-rule="evenodd"/><path stroke="#595959" stroke-width="1.0" stroke-linejoin="round" stroke-linecap="butt" d="m249.04526 180.26587c6.77977 -16.689651 43.13443 -30.074951 67.93045 -31.162506c24.79602 -1.0875549 55.148804 6.7956696 80.84567 24.637222c25.696869 17.841553 62.489075 64.8923 73.33554 82.41206c10.846466 17.519745 11.538513 17.59845 -8.256744 22.706451c-19.795258 5.1080017 -79.41434 12.877899 -110.51486 7.9415894c-31.100494 -4.9362793 -58.86487 -19.803558 -76.088196 -37.559357c-17.223358 -17.755798 -34.03163 -52.285797 -27.251862 -68.975464z" fill-rule="evenodd"/><path fill="#0000ff" fill-opacity="0.5538" d="m576.4719 497.5793c-16.595337 7.008362 -51.76825 -9.231873 -70.07193 -25.995605c-18.30365 -16.763763 -34.193756 -43.800323 -39.75003 -74.58688c-5.5562744 -30.78656 1.6945801 -90.07391 6.4123535 -110.13248c4.717743 -20.058563 4.283966 -20.603546 21.894104 -10.218842c17.610168 10.384705 65.2641 47.045746 83.76672 72.5271c18.502563 25.481323 27.623962 55.626495 27.248718 80.36096c-0.3751831 24.734436 -12.904602 61.037384 -29.499939 68.045746z" fill-rule="evenodd"/><path stroke="#595959" stroke-width="1.0" stroke-linejoin="round" stroke-linecap="butt" d="m576.4719 497.5793c-16.595337 7.008362 -51.76825 -9.231873 -70.07193 -25.995605c-18.30365 -16.763763 -34.193756 -43.800323 -39.75003 -74.58688c-5.5562744 -30.78656 1.6945801 -90.07391 6.4123535 -110.13248c4.717743 -20.058563 4.283966 -20.603546 21.894104 -10.218842c17.610168 10.384705 65.2641 47.045746 83.76672 72.5271c18.502563 25.481323 27.623962 55.626495 27.248718 80.36096c-0.3751831 24.734436 -12.904602 61.037384 -29.499939 68.045746z" fill-rule="evenodd"/><path fill="#ffff00" fill-opacity="0.5769" d="m382.05807 43.027035c16.595306 -7.008362 51.76825 9.2318535 70.07193 25.995602c18.30365 16.763748 34.193756 43.80033 39.75003 74.58689c5.5562744 30.78656 -1.6946106 90.07391 -6.4123535 110.13246c-4.717743 20.058548 -4.2839966 20.603561 -21.894135 10.218857c-17.610138 -10.38472 -65.2641 -47.04576 -83.76666 -72.5271c-18.502594 -25.481339 -27.623962 -55.62651 -27.24878 -80.360954c0.37521362 -24.734451 12.904663 -61.0374 29.49997 -68.04576z" fill-rule="evenodd"/><path stroke="#595959" stroke-width="1.0" stroke-linejoin="round" stroke-linecap="butt" d="m382.05807 43.027035c16.595306 -7.008362 51.76825 9.2318535 70.07193 25.995602c18.30365 16.763748 34.193756 43.80033 39.75003 74.58689c5.5562744 30.78656 -1.6946106 90.07391 -6.4123535 110.13246c-4.717743 20.058548 -4.2839966 20.603561 -21.894135 10.218857c-17.610138 -10.38472 -65.2641 -47.04576 -83.76666 -72.5271c-18.502594 -25.481339 -27.623962 -55.62651 -27.24878 -80.360954c0.37521362 -24.734451 12.904663 -61.0374 29.49997 -68.04576z" fill-rule="evenodd"/><path fill="#38761d" fill-opacity="0.5385" d="m707.72473 173.57188c7.008362 16.595306 -9.231873 51.768265 -25.995605 70.07193c-16.763733 18.303665 -43.800354 34.19374 -74.586914 39.750046c-30.78656 5.5562744 -90.07391 -1.6946106 -110.13245 -6.4123535c-20.058533 -4.717743 -20.603546 -4.2839966 -10.218842 -21.894135c10.384705 -17.610138 47.045746 -65.264114 72.52707 -83.76669c25.481384 -18.502563 55.626526 -27.623962 80.36096 -27.248749c24.734497 0.37519836 61.037415 12.904633 68.04578 29.499954z" fill-rule="evenodd"/><path stroke="#595959" stroke-width="1.0" stroke-linejoin="round" stroke-linecap="butt" d="m707.72473 173.57188c7.008362 16.595306 -9.231873 51.768265 -25.995605 70.07193c-16.763733 18.303665 -43.800354 34.19374 -74.586914 39.750046c-30.78656 5.5562744 -90.07391 -1.6946106 -110.13245 -6.4123535c-20.058533 -4.717743 -20.603546 -4.2839966 -10.218842 -21.894135c10.384705 -17.610138 47.045746 -65.264114 72.52707 -83.76669c25.481384 -18.502563 55.626526 -27.623962 80.36096 -27.248749c24.734497 0.37519836 61.037415 12.904633 68.04578 29.499954z" fill-rule="evenodd"/><path fill="#ff0000" fill-opacity="0.5231" d="m253.17245 367.98575c-7.008362 -16.595337 9.231842 -51.76828 25.995605 -70.07193c16.763733 -18.30368 43.800323 -34.193756 74.58688 -39.75006c30.78656 -5.5562744 90.07391 1.6946106 110.13248 6.4123535c20.058533 4.717743 20.603546 4.2839966 10.218842 21.894135c-10.384705 17.610138 -47.045746 65.26413 -72.5271 83.76669c-25.481354 18.502563 -55.626495 27.623962 -80.36096 27.248749c-24.734436 -0.3751831 -61.037384 -12.904633 -68.045746 -29.499939z" fill-rule="evenodd"/><path stroke="#595959" stroke-width="1.0" stroke-linejoin="round" stroke-linecap="butt" d="m253.17245 367.98575c-7.008362 -16.595337 9.231842 -51.76828 25.995605 -70.07193c16.763733 -18.30368 43.800323 -34.193756 74.58688 -39.75006c30.78656 -5.5562744 90.07391 1.6946106 110.13248 6.4123535c20.058533 4.717743 20.603546 4.2839966 10.218842 21.894135c-10.384705 17.610138 -47.045746 65.26413 -72.5271 83.76669c-25.481354 18.502563 -55.626495 27.623962 -80.36096 27.248749c-24.734436 -0.3751831 -61.037384 -12.904633 -68.045746 -29.499939z" fill-rule="evenodd"/><path fill="#ffff00" fill-opacity="0.5769" d="m571.7482 42.221874c16.689697 6.779766 30.075012 43.134426 31.162537 67.93045c1.0875244 24.796028 -6.7956543 55.14881 -24.637207 80.84568c-17.841553 25.696869 -64.892334 62.48906 -82.41208 73.335526c-17.519745 10.846466 -17.59845 11.538544 -22.706451 -8.256714c-5.1080017 -19.795273 -12.877899 -79.41435 -7.9415894 -110.51486c4.9362793 -31.100517 19.803558 -58.864876 37.559357 -76.08823c17.755768 -17.223343 52.285797 -34.031616 68.97543 -27.25185z" fill-rule="evenodd"/><path stroke="#595959" stroke-width="1.0" stroke-linejoin="round" stroke-linecap="butt" d="m571.7482 42.221874c16.689697 6.779766 30.075012 43.134426 31.162537 67.93045c1.0875244 24.796028 -6.7956543 55.14881 -24.637207 80.84568c-17.841553 25.696869 -64.892334 62.48906 -82.41208 73.335526c-17.519745 10.846466 -17.59845 11.538544 -22.706451 -8.256714c-5.1080017 -19.795273 -12.877899 -79.41435 -7.9415894 -110.51486c4.9362793 -31.100517 19.803558 -58.864876 37.559357 -76.08823c17.755768 -17.223343 52.285797 -34.031616 68.97543 -27.25185z" fill-rule="evenodd"/></g></svg>