<svg version="1.1" viewBox="0.0 0.0 960.0 540.0" fill="none" stroke="none" stroke-linecap="square" stroke-miterlimit="10" xmlns:xlink="http://www.w3.org/1999/xlink" xmlns="http://www.w3.org/2000/svg"><clipPath id="g4da285de38_0_354.0"><path d="m0 0l960.0 0l0 540.0l-960.0 0l0 -540.0z" clip-rule="nonzero"/></clipPath><g clip-path="url(#g4da285de38_0_354.0)"><path fill="#ffffff" d="m0 0l960.0 0l0 540.0l-960.0 0z" fill-rule="evenodd"/><path fill="#ff9900" fill-opacity="0.5846" d="m368.18826 7.098182c14.534576 -5.4419427 60.968994 42.60794 80.56555 70.486916c19.596527 27.878975 31.695343 64.76688 37.013733 96.78694c5.3183594 32.020065 8.774292 90.53293 -5.1034546 95.333435c-13.877747 4.800476 -58.31009 -39.952362 -78.163025 -66.53049c-19.852966 -26.57811 -35.23593 -60.25876 -40.954712 -92.93823c-5.718811 -32.679466 -7.8926697 -97.69663 6.6419067 -103.13857z" fill-rule="evenodd"/><path fill="#00dbff" fill-opacity="0.5846" d="m591.8101 532.9026c-14.534607 5.4419556 -60.969055 -42.60791 -80.56558 -70.48688c-19.596558 -27.878998 -31.695343 -64.76688 -37.013733 -96.78696c-5.31839 -32.02005 -8.774292 -90.53293 5.1034546 -95.333435c13.877747 -4.800476 58.31009 39.952362 78.163055 66.53049c19.852966 26.578125 35.2359 60.25876 40.954712 92.93823c5.71875 32.679474 7.892639 97.696655 -6.6419067 103.13855z" fill-rule="evenodd"/><path fill="#00ffa0" fill-opacity="0.5769" d="m761.6495 165.63217c5.830017 13.567093 -45.646423 56.910614 -75.51349 75.20271c-29.867065 18.292099 -69.38556 29.585556 -103.689026 34.54991c-34.303467 4.9643555 -96.98901 8.190247 -102.131836 -4.763733c-5.1428223 -12.9539795 42.801453 -54.42868 71.2749 -72.96011c28.47345 -18.531448 64.55597 -32.89044 99.56586 -38.22856c35.009888 -5.338135 104.663574 -7.3672943 110.49359 6.1997833z" fill-rule="evenodd"/><path fill="#ff0182" fill-opacity="0.5923" d="m198.34889 374.36862c-5.830017 -13.567078 45.646393 -56.910614 75.51347 -75.2027c29.867096 -18.292114 69.38553 -29.585571 103.688995 -34.549927c34.303497 -4.9643555 96.98901 -8.190247 102.131836 4.763733c5.142853 12.9539795 -42.801422 54.42868 -71.27487 72.96011c-28.47345 18.531464 -64.55594 32.89044 -99.56586 38.228577c-35.009888 5.3381042 -104.66356 7.367279 -110.493576 -6.1997986z" fill-rule="evenodd"/><path fill="#00dbff" fill-opacity="0.5846" d="m359.89963 529.68744c-14.401428 -5.7489624 -10.822144 -70.38522 -3.5516357 -103.03784c7.2704773 -32.65265 26.66977 -66.72482 47.17456 -92.8779c20.504791 -26.153107 62.40329 -69.80951 75.85416 -64.04062c13.450867 5.76886 10.954468 66.75183 4.8511047 98.65393c-6.103363 31.9021 -20.749908 65.87491 -41.471283 92.75864c-20.721375 26.883759 -68.455475 74.292816 -82.8569 68.54379z" fill-rule="evenodd"/><path fill="#ff9900" fill-opacity="0.5846" d="m600.0987 10.313328c14.401428 5.749012 10.822144 70.385254 3.5516968 103.03789c-7.270508 32.652634 -26.6698 66.72481 -47.17456 92.8779c-20.504822 26.153076 -62.40332 69.809494 -75.85419 64.040634c-13.450867 -5.7688904 -10.954468 -66.75185 -4.8511047 -98.653946c6.103363 -31.9021 20.749908 -65.87491 41.471283 -92.75865c20.721375 -26.883747 68.455444 -74.29283 82.85687 -68.54382z" fill-rule="evenodd"/><path fill="#ff0182" fill-opacity="0.5923" d="m202.03127 159.34825c-6.1589813 13.442795 44.261475 57.87213 73.68233 76.79472c29.420868 18.922592 68.66232 31.051178 102.842834 36.740845c34.18051 5.689636 96.783264 10.2413025 102.240234 -2.6029663c5.4569397 -12.844269 -41.47699 -55.3302 -69.498505 -74.46263c-28.021515 -19.132446 -63.75284 -34.253677 -98.630646 -40.332c-34.87784 -6.0783234 -104.477264 -9.5807495 -110.636246 3.86203z" fill-rule="evenodd"/><path fill="#00ffa0" fill-opacity="0.5769" d="m760.20685 379.81387c6.1589966 -13.44278 -44.261475 -57.87213 -73.68231 -76.79471c-29.420898 -18.922607 -68.66235 -31.051178 -102.842834 -36.740845c-34.180542 -5.689636 -96.783295 -10.2413025 -102.240234 2.6029663c-5.45697 12.844269 41.47699 55.3302 69.498474 74.46265c28.021545 19.132416 63.75287 34.253662 98.63068 40.332c34.877808 6.078308 104.477234 9.5807495 110.63623 -3.8620605z" fill-rule="evenodd"/><path fill="#000000" fill-opacity="0.0" d="m347.68896 45.545933l101.19687 0l0 42.89764l-101.19687 0z" fill-rule="evenodd"/><path fill="#ffffff" d="m367.1546 71.77663q-1.265625 -1.34375 -1.265625 -3.25q0 -1.921875 1.265625 -3.25q1.28125 -1.328125 3.28125 -1.328125q1.984375 0 3.265625 1.328125q1.296875 1.328125 1.296875 3.234375q0 1.90625 -1.296875 3.25q-1.28125 1.34375 -3.265625 1.34375q-2.0 0 -3.28125 -1.328125zm1.375 -5.171875q-0.703125 0.765625 -0.703125 1.921875q0 1.15625 0.703125 1.921875q0.71875 0.765625 1.90625 0.765625q1.171875 0 1.875 -0.765625q0.71875 -0.765625 0.71875 -1.921875q0 -1.15625 -0.71875 -1.921875q-0.703125 -0.78125 -1.875 -0.78125q-1.1875 0 -1.90625 0.78125zm7.859375 10.25l0 -12.65625l1.390625 0l0.15625 0.328125q1.1875 -0.578125 2.40625 -0.578125q1.21875 0 2.109375 0.703125q0.890625 0.703125 1.265625 1.703125q0.375 1.0 0.375 2.125q0 1.953125 -1.015625 3.296875q-1.015625 1.328125 -2.875 1.328125q-1.203125 0 -1.828125 -0.328125l0 4.078125l-1.984375 0zm1.984375 -5.84375q0.515625 0.265625 1.609375 0.265625q0.78125 0 1.265625 -0.421875q0.5 -0.421875 0.671875 -1.03125q0.171875 -0.625 0.171875 -1.5q0 -1.1875 -0.546875 -1.90625q-0.53125 -0.71875 -1.3125 -0.71875q-0.890625 0 -1.859375 0.40625l0 4.90625zm6.7890625 -4.921875l0 -1.890625l1.359375 0l0 -2.328125l2.015625 0l0 2.328125l1.984375 0l0 1.890625l-1.984375 0l0 4.078125q0 0.5 0.09375 0.65625q0.109375 0.140625 0.5625 0.140625l1.15625 0l0 1.890625l-1.765625 0q-0.90625 0 -1.484375 -0.5q-0.578125 -0.5 -0.578125 -1.375l0 -4.890625l-1.359375 0zm6.8359375 6.765625l0 -8.65625l2.015625 0l0 8.65625l-2.015625 0zm0 -9.96875l0 -1.890625l2.015625 0l0 1.890625l-2.015625 0zm3.859375 9.96875l0 -8.65625l1.5 0l0.09375 0.25q0.640625 -0.5 1.796875 -0.5q0.671875 0 1.34375 0.25q0.671875 0.234375 0.875 0.453125q0.765625 -0.6875 2.0625 -0.703125q1.03125 0 1.953125 0.546875q0.921875 0.546875 0.921875 1.546875l0 6.8125l-2.015625 0l0 -6.171875q0 -0.84375 -1.0625 -0.84375q-0.765625 0 -1.203125 0.359375l0 6.65625l-2.015625 0l0 -6.171875q0 -0.84375 -1.0625 -0.84375q-0.765625 0 -1.203125 0.375l0 6.640625l-1.984375 0zm12.5390625 0l0 -8.65625l2.015625 0l0 8.65625l-2.015625 0zm0 -9.96875l0 -1.890625l2.015625 0l0 1.890625l-2.015625 0zm3.453125 8.625l1.3125 -1.375q0.515625 0.390625 0.96875 0.640625q0.859375 0.4375 1.4375 0.4375q0.5 0 0.953125 -0.25q0.46875 -0.265625 0.46875 -0.671875q0 -0.359375 -0.46875 -0.640625q-0.453125 -0.296875 -1.734375 -0.765625q-0.5625 -0.203125 -0.875 -0.328125q-0.3125 -0.140625 -0.75 -0.421875q-0.4375 -0.28125 -0.671875 -0.6875q-0.21875 -0.421875 -0.21875 -0.921875q0 -1.1875 1.046875 -1.875q1.046875 -0.703125 2.296875 -0.703125q0.9375 0 1.984375 0.453125q0.453125 0.1875 1.140625 0.640625l-1.234375 1.46875q-0.46875 -0.28125 -0.75 -0.40625q-0.640625 -0.28125 -1.140625 -0.28125q-0.578125 0 -0.96875 0.21875q-0.390625 0.21875 -0.390625 0.484375q0 0.015625 0.0625 0.078125q0.0625 0.0625 0.296875 0.1875q0.25 0.109375 0.4375 0.1875q0.203125 0.0625 0.5625 0.1875q0.921875 0.359375 1.375 0.5625q0.453125 0.203125 0.984375 0.578125q0.546875 0.359375 0.765625 0.859375q0.234375 0.484375 0.234375 1.125q0 0.9375 -0.625 1.609375q-0.609375 0.65625 -1.34375 0.9375q-0.734375 0.265625 -1.4375 0.265625q-1.046875 0 -2.375 -0.6875q-0.5625 -0.296875 -1.34375 -0.90625zm8.453125 1.34375l0 -8.65625l1.5 0l0.09375 0.25q0.640625 -0.5 1.796875 -0.5q0.671875 0 1.34375 0.25q0.671875 0.234375 0.875 0.453125q0.765625 -0.6875 2.0625 -0.703125q1.03125 0 1.953125 0.546875q0.921875 0.546875 0.921875 1.546875l0 6.8125l-2.015625 0l0 -6.171875q0 -0.84375 -1.0625 -0.84375q-0.765625 0 -1.203125 0.359375l0 6.65625l-2.015625 0l0 -6.171875q0 -0.84375 -1.0625 -0.84375q-0.765625 0 -1.203125 0.375l0 6.640625l-1.984375 0z" fill-rule="nonzero"/><path fill="#000000" fill-opacity="0.0" d="m536.89105 45.545933l65.543335 0l0 42.89764l-65.543335 0z" fill-rule="evenodd"/><path fill="#ffffff" d="m554.79553 72.85475l0 -12.65625l2.015625 0l0 12.65625l-2.015625 0zm4.8671875 -1.078125q-1.265625 -1.34375 -1.265625 -3.25q0 -1.921875 1.265625 -3.25q1.28125 -1.328125 3.28125 -1.328125q1.984375 0 3.265625 1.328125q1.296875 1.328125 1.296875 3.234375q0 1.90625 -1.296875 3.25q-1.28125 1.34375 -3.265625 1.34375q-2.0 0 -3.28125 -1.328125zm1.375 -5.171875q-0.703125 0.765625 -0.703125 1.921875q0 1.15625 0.703125 1.921875q0.71875 0.765625 1.90625 0.765625q1.171875 0 1.875 -0.765625q0.71875 -0.765625 0.71875 -1.921875q0 -1.15625 -0.71875 -1.921875q-0.703125 -0.78125 -1.875 -0.78125q-1.1875 0 -1.90625 0.78125zm7.25 -2.40625l2.171875 0l2.203125 5.984375l2.234375 -5.984375l2.15625 0l-3.40625 8.65625l-1.96875 0l-3.390625 -8.65625zm9.5546875 4.296875q0 -2.046875 1.109375 -3.296875q1.125 -1.25 2.9375 -1.25q3.671875 0 3.671875 5.375l-5.703125 0q0.03125 0.546875 0.59375 1.21875q0.578125 0.671875 1.75 0.671875q1.453125 0 2.96875 -0.671875l0 1.96875q-1.46875 0.578125 -2.796875 0.59375q-1.171875 0 -2.0625 -0.375q-0.890625 -0.390625 -1.4375 -1.046875q-0.53125 -0.65625 -0.78125 -1.453125q-0.25 -0.8125 -0.25 -1.734375zm2.0625 -0.875l3.59375 0q-0.0625 -0.625 -0.484375 -1.203125q-0.40625 -0.59375 -1.15625 -0.59375q-0.765625 0 -1.328125 0.578125q-0.546875 0.578125 -0.625 1.21875z" fill-rule="nonzero"/><path fill="#000000" fill-opacity="0.0" d="m627.0617 155.6483l114.99213 0l0 42.89763l-114.99213 0z" fill-rule="evenodd"/><path fill="#ffffff" d="m644.31165 181.61336l1.3125 -1.375q0.515625 0.390625 0.96875 0.640625q0.859375 0.4375 1.4375 0.4375q0.5 0 0.953125 -0.25q0.46875 -0.265625 0.46875 -0.671875q0 -0.359375 -0.46875 -0.640625q-0.453125 -0.296875 -1.734375 -0.765625q-0.5625 -0.203125 -0.875 -0.328125q-0.3125 -0.140625 -0.75 -0.421875q-0.4375 -0.28125 -0.671875 -0.6875q-0.21875 -0.421875 -0.21875 -0.921875q0 -1.1875 1.046875 -1.875q1.046875 -0.703125 2.296875 -0.703125q0.9375 0 1.984375 0.453125q0.453125 0.1875 1.140625 0.640625l-1.234375 1.46875q-0.46875 -0.28125 -0.75 -0.40625q-0.640625 -0.28125 -1.140625 -0.28125q-0.578125 0 -0.96875 0.21875q-0.390625 0.21875 -0.390625 0.484375q0 0.015625 0.0625 0.078125q0.0625 0.0625 0.296875 0.1875q0.25 0.109375 0.4375 0.1875q0.203125 0.0625 0.5625 0.1875q0.921875 0.359375 1.375 0.5625q0.453125 0.203125 0.984375 0.578125q0.546875 0.359375 0.765625 0.859375q0.234375 0.484375 0.234375 1.125q0 0.9375 -0.625 1.609375q-0.609375 0.65625 -1.34375 0.9375q-0.734375 0.265625 -1.4375 0.265625q-1.046875 0 -2.375 -0.6875q-0.5625 -0.296875 -1.34375 -0.90625zm8.578125 -1.4375l0 -5.875l1.984375 0l0 5.875q0 0.484375 0.46875 0.78125q0.484375 0.296875 1.171875 0.296875q0.703125 0 1.171875 -0.296875q0.46875 -0.296875 0.46875 -0.78125l0 -5.875l2.0 0l0 5.875q0 1.421875 -1.125 2.234375q-1.125 0.796875 -2.515625 0.796875q-1.390625 0 -2.515625 -0.796875q-1.109375 -0.796875 -1.109375 -2.234375zm8.9765625 2.78125l0 -12.65625l1.984375 0l0 4.0625q0.84375 -0.296875 2.0 -0.3125q0.96875 0 1.71875 0.390625q0.75 0.390625 1.15625 1.03125q0.40625 0.640625 0.59375 1.375q0.203125 0.71875 0.203125 1.484375q0 2.25 -1.1875 3.4375q-1.1875 1.1875 -3.671875 1.1875l-2.796875 0zm1.984375 -1.890625l0.8125 0q1.546875 0 2.1875 -0.640625q0.65625 -0.640625 0.65625 -2.140625q0 -0.96875 -0.421875 -1.65625q-0.40625 -0.6875 -1.25 -0.6875q-1.296875 0 -1.984375 0.28125l0 4.84375zm7.0 1.890625l0 -8.65625l1.5 0l0.09375 0.25q0.640625 -0.5 1.796875 -0.5q0.671875 0 1.34375 0.25q0.671875 0.234375 0.875 0.453125q0.765625 -0.6875 2.0625 -0.703125q1.03125 0 1.953125 0.546875q0.921875 0.546875 0.921875 1.546875l0 6.8125l-2.015625 0l0 -6.171875q0 -0.84375 -1.0625 -0.84375q-0.765625 0 -1.203125 0.359375l0 6.65625l-2.015625 0l0 -6.171875q0 -0.84375 -1.0625 -0.84375q-0.765625 0 -1.203125 0.375l0 6.640625l-1.984375 0zm12.5390625 0l0 -8.65625l2.015625 0l0 8.65625l-2.015625 0zm0 -9.96875l0 -1.890625l2.015625 0l0 1.890625l-2.015625 0zm3.453125 8.625l1.3125 -1.375q0.515625 0.390625 0.96875 0.640625q0.859375 0.4375 1.4375 0.4375q0.5 0 0.953125 -0.25q0.46875 -0.265625 0.46875 -0.671875q0 -0.359375 -0.46875 -0.640625q-0.453125 -0.296875 -1.734375 -0.765625q-0.5625 -0.203125 -0.875 -0.328125q-0.3125 -0.140625 -0.75 -0.421875q-0.4375 -0.28125 -0.671875 -0.6875q-0.21875 -0.421875 -0.21875 -0.921875q0 -1.1875 1.046875 -1.875q1.046875 -0.703125 2.296875 -0.703125q0.9375 0 1.984375 0.453125q0.453125 0.1875 1.140625 0.640625l-1.234375 1.46875q-0.46875 -0.28125 -0.75 -0.40625q-0.640625 -0.28125 -1.140625 -0.28125q-0.578125 0 -0.96875 0.21875q-0.390625 0.21875 -0.390625 0.484375q0 0.015625 0.0625 0.078125q0.0625 0.0625 0.296875 0.1875q0.25 0.109375 0.4375 0.1875q0.203125 0.0625 0.5625 0.1875q0.921875 0.359375 1.375 0.5625q0.453125 0.203125 0.984375 0.578125q0.546875 0.359375 0.765625 0.859375q0.234375 0.484375 0.234375 1.125q0 0.9375 -0.625 1.609375q-0.609375 0.65625 -1.34375 0.9375q-0.734375 0.265625 -1.4375 0.265625q-1.046875 0 -2.375 -0.6875q-0.5625 -0.296875 -1.34375 -0.90625zm8.046875 0l1.3125 -1.375q0.515625 0.390625 0.96875 0.640625q0.859375 0.4375 1.4375 0.4375q0.5 0 0.953125 -0.25q0.46875 -0.265625 0.46875 -0.671875q0 -0.359375 -0.46875 -0.640625q-0.453125 -0.296875 -1.734375 -0.765625q-0.5625 -0.203125 -0.875 -0.328125q-0.3125 -0.140625 -0.75 -0.421875q-0.4375 -0.28125 -0.671875 -0.6875q-0.21875 -0.421875 -0.21875 -0.921875q0 -1.1875 1.046875 -1.875q1.046875 -0.703125 2.296875 -0.703125q0.9375 0 1.984375 0.453125q0.453125 0.1875 1.140625 0.640625l-1.234375 1.46875q-0.46875 -0.28125 -0.75 -0.40625q-0.640625 -0.28125 -1.140625 -0.28125q-0.578125 0 -0.96875 0.21875q-0.390625 0.21875 -0.390625 0.484375q0 0.015625 0.0625 0.078125q0.0625 0.0625 0.296875 0.1875q0.25 0.109375 0.4375 0.1875q0.203125 0.0625 0.5625 0.1875q0.921875 0.359375 1.375 0.5625q0.453125 0.203125 0.984375 0.578125q0.546875 0.359375 0.765625 0.859375q0.234375 0.484375 0.234375 1.125q0 0.9375 -0.625 1.609375q-0.609375 0.65625 -1.34375 0.9375q-0.734375 0.265625 -1.4375 0.265625q-1.046875 0 -2.375 -0.6875q-0.5625 -0.296875 -1.34375 -0.90625zm8.609375 1.34375l0 -8.65625l2.015625 0l0 8.65625l-2.015625 0zm0 -9.96875l0 -1.890625l2.015625 0l0 1.890625l-2.015625 0zm4.875 8.890625q-1.265625 -1.34375 -1.265625 -3.25q0 -1.921875 1.265625 -3.25q1.28125 -1.328125 3.28125 -1.328125q1.984375 0 3.265625 1.328125q1.296875 1.328125 1.296875 3.234375q0 1.90625 -1.296875 3.25q-1.28125 1.34375 -3.265625 1.34375q-2.0 0 -3.28125 -1.328125zm1.375 -5.171875q-0.703125 0.765625 -0.703125 1.921875q0 1.15625 0.703125 1.921875q0.71875 0.765625 1.90625 0.765625q1.171875 0 1.875 -0.765625q0.71875 -0.765625 0.71875 -1.921875q0 -1.15625 -0.71875 -1.921875q-0.703125 -0.78125 -1.875 -0.78125q-1.1875 0 -1.90625 0.78125zm7.796875 6.25l0 -8.65625l1.515625 0l0.15625 0.4375q1.046875 -0.6875 2.421875 -0.6875q1.4375 0 2.359375 0.71875q0.9375 0.71875 0.9375 2.171875l0 6.015625l-2.015625 0l0 -6.015625q0 -1.0 -1.28125 -1.0q-1.140625 0 -2.109375 0.671875l0 6.34375l-1.984375 0z" fill-rule="nonzero"/><path fill="#000000" fill-opacity="0.0" d="m656.30316 349.85565l114.99213 0l0 42.897644l-114.99213 0z" fill-rule="evenodd"/><path fill="#ffffff" d="m699.4789 374.30508q0 -1.21875 0.875 -2.03125q0.890625 -0.8125 2.421875 -0.8125l1.796875 0l0 -0.28125q0 -0.609375 -0.203125 -0.8125q-0.1875 -0.21875 -0.828125 -0.21875q-0.5625 0 -1.71875 0.125l-1.4375 0.1875l0 -1.9375q1.15625 -0.078125 1.578125 -0.125q1.421875 -0.125 2.125 -0.140625q1.28125 0 1.890625 0.75q0.625 0.734375 0.625 1.703125l0 6.453125l-1.578125 0l-0.03125 -1.046875l0.046875 0.09375q-1.34375 1.125 -2.71875 1.109375q-1.375 0 -2.109375 -0.9375q-0.734375 -0.9375 -0.734375 -2.078125zm2.046875 0q0 0.53125 0.25 0.90625q0.25 0.375 0.828125 0.375q0.46875 0 1.078125 -0.203125q0.609375 -0.21875 1.09375 -0.5625l0.109375 0.3125l-0.3125 -1.9375l-1.796875 0q-1.25 0 -1.25 1.109375zm6.2734375 -5.796875l2.15625 0l1.5625 5.484375l1.609375 -5.484375l1.84375 0l1.59375 5.484375l1.59375 -5.484375l2.140625 0l-2.734375 8.65625l-2.015625 0l-1.515625 -5.4375l-1.5 5.4375l-2.0 0l-2.734375 -8.65625zm13.3203125 4.296875q0 -2.046875 1.109375 -3.296875q1.125 -1.25 2.9375 -1.25q3.671875 0 3.671875 5.375l-5.703125 0q0.03125 0.546875 0.59375 1.21875q0.578125 0.671875 1.75 0.671875q1.453125 0 2.96875 -0.671875l0 1.96875q-1.46875 0.578125 -2.796875 0.59375q-1.171875 0 -2.0625 -0.375q-0.890625 -0.390625 -1.4375 -1.046875q-0.53125 -0.65625 -0.78125 -1.453125q-0.25 -0.8125 -0.25 -1.734375zm2.0625 -0.875l3.59375 0q-0.0625 -0.625 -0.484375 -1.203125q-0.40625 -0.59375 -1.15625 -0.59375q-0.765625 0 -1.328125 0.578125q-0.546875 0.578125 -0.625 1.21875z" fill-rule="nonzero"/><path fill="#000000" fill-opacity="0.0" d="m224.00656 155.6483l134.20471 0l0 42.89763l-134.20471 0z" fill-rule="evenodd"/><path fill="#ffffff" d="m234.74956 180.09773q0 -1.21875 0.875 -2.03125q0.890625 -0.8125 2.421875 -0.8125l1.796875 0l0 -0.28125q0 -0.609375 -0.203125 -0.8125q-0.1875 -0.21875 -0.828125 -0.21875q-0.5625 0 -1.71875 0.125l-1.4375 0.1875l0 -1.9375q1.15625 -0.078125 1.578125 -0.125q1.421875 -0.125 2.125 -0.140625q1.28125 0 1.890625 0.75q0.625 0.734375 0.625 1.703125l0 6.453125l-1.578125 0l-0.03125 -1.046875l0.046875 0.09375q-1.34375 1.125 -2.71875 1.109375q-1.375 0 -2.109375 -0.9375q-0.734375 -0.9375 -0.734375 -2.078125zm2.046875 0q0 0.53125 0.25 0.90625q0.25 0.375 0.828125 0.375q0.46875 0 1.078125 -0.203125q0.609375 -0.21875 1.09375 -0.5625l0.109375 0.3125l-0.3125 -1.9375l-1.796875 0q-1.25 0 -1.25 1.109375zm6.7890625 -1.4375q0 -1.171875 0.375 -2.1875q0.375 -1.015625 1.25 -1.71875q0.875 -0.703125 2.09375 -0.703125q1.0625 0 2.265625 0.59375l0.171875 -0.34375l1.390625 0l0 9.453125q0 1.5 -0.90625 2.34375q-0.90625 0.859375 -2.609375 0.859375q-1.765625 0 -3.90625 -1.125l1.046875 -1.609375q1.59375 0.859375 2.859375 0.859375q1.515625 0 1.515625 -1.328125l0 -0.875q-0.578125 0.328125 -1.609375 0.328125q-1.875 0 -2.90625 -1.328125q-1.03125 -1.34375 -1.03125 -3.21875zm1.984375 -0.09375q0 0.578125 0.109375 1.046875q0.109375 0.46875 0.328125 0.890625q0.234375 0.421875 0.65625 0.65625q0.4375 0.21875 1.0625 0.21875q0.9375 0 1.40625 -0.25l0 -4.9375q-0.859375 -0.390625 -1.640625 -0.390625q-0.859375 0 -1.390625 0.703125q-0.53125 0.703125 -0.53125 2.0625zm7.2734375 0.09375q0 -1.171875 0.375 -2.1875q0.375 -1.015625 1.25 -1.71875q0.875 -0.703125 2.0937347 -0.703125q1.0625 0 2.265625 0.59375l0.171875 -0.34375l1.390625 0l0 9.453125q0 1.5 -0.90625 2.34375q-0.90625 0.859375 -2.609375 0.859375q-1.7656097 0 -3.9062347 -1.125l1.046875 -1.609375q1.59375 0.859375 2.8593597 0.859375q1.515625 0 1.515625 -1.328125l0 -0.875q-0.578125 0.328125 -1.609375 0.328125q-1.8749847 0 -2.9062347 -1.328125q-1.03125 -1.34375 -1.03125 -3.21875zm1.984375 -0.09375q0 0.578125 0.109375 1.046875q0.109375 0.46875 0.328125 0.890625q0.234375 0.421875 0.65625 0.65625q0.43748474 0.21875 1.0624847 0.21875q0.9375 0 1.40625 -0.25l0 -4.9375q-0.859375 -0.390625 -1.640625 -0.390625q-0.85935974 0 -1.3906097 0.703125q-0.53125 0.703125 -0.53125 2.0625zm7.2734222 4.390625l0 -8.65625l1.515625 0l0.125 0.359375q0.75 -0.578125 1.65625 -0.59375q0.953125 0 2.046875 0.578125l-0.796875 1.625q-0.921875 -0.328125 -1.4375 -0.328125q-0.671875 0 -1.125 0.40625l0 6.609375l-1.984375 0zm6.3046875 -4.359375q0 -2.046875 1.109375 -3.296875q1.125 -1.25 2.9375 -1.25q3.671875 0 3.671875 5.375l-5.703125 0q0.03125 0.546875 0.59375 1.21875q0.578125 0.671875 1.75 0.671875q1.453125 0 2.96875 -0.671875l0 1.96875q-1.46875 0.578125 -2.796875 0.59375q-1.171875 0 -2.0625 -0.375q-0.890625 -0.390625 -1.4375 -1.046875q-0.53125 -0.65625 -0.78125 -1.453125q-0.25 -0.8125 -0.25 -1.734375zm2.0625 -0.875l3.59375 0q-0.0625 -0.625 -0.484375 -1.203125q-0.40625 -0.59375 -1.15625 -0.59375q-0.765625 0 -1.328125 0.578125q-0.546875 0.578125 -0.625 1.21875zm6.53125 3.890625l1.3125 -1.375q0.515625 0.390625 0.96875 0.640625q0.859375 0.4375 1.4375 0.4375q0.5 0 0.953125 -0.25q0.46875 -0.265625 0.46875 -0.671875q0 -0.359375 -0.46875 -0.640625q-0.453125 -0.296875 -1.734375 -0.765625q-0.5625 -0.203125 -0.875 -0.328125q-0.3125 -0.140625 -0.75 -0.421875q-0.4375 -0.28125 -0.671875 -0.6875q-0.21875 -0.421875 -0.21875 -0.921875q0 -1.1875 1.046875 -1.875q1.046875 -0.703125 2.296875 -0.703125q0.9375 0 1.984375 0.453125q0.453125 0.1875 1.140625 0.640625l-1.234375 1.46875q-0.46875 -0.28125 -0.75 -0.40625q-0.640625 -0.28125 -1.140625 -0.28125q-0.578125 0 -0.96875 0.21875q-0.390625 0.21875 -0.390625 0.484375q0 0.015625 0.0625 0.078125q0.0625 0.0625 0.296875 0.1875q0.25 0.109375 0.4375 0.1875q0.203125 0.0625 0.5625 0.1875q0.921875 0.359375 1.375 0.5625q0.453125 0.203125 0.984375 0.578125q0.546875 0.359375 0.765625 0.859375q0.234375 0.484375 0.234375 1.125q0 0.9375 -0.625 1.609375q-0.609375 0.65625 -1.34375 0.9375q-0.734375 0.265625 -1.4375 0.265625q-1.046875 0 -2.375 -0.6875q-0.5625 -0.296875 -1.34375 -0.90625zm8.046875 0l1.3125 -1.375q0.515625 0.390625 0.96875 0.640625q0.859375 0.4375 1.4375 0.4375q0.5 0 0.953125 -0.25q0.46875 -0.265625 0.46875 -0.671875q0 -0.359375 -0.46875 -0.640625q-0.453125 -0.296875 -1.734375 -0.765625q-0.5625 -0.203125 -0.875 -0.328125q-0.3125 -0.140625 -0.75 -0.421875q-0.4375 -0.28125 -0.671875 -0.6875q-0.21875 -0.421875 -0.21875 -0.921875q0 -1.1875 1.046875 -1.875q1.046875 -0.703125 2.296875 -0.703125q0.9375 0 1.984375 0.453125q0.453125 0.1875 1.140625 0.640625l-1.234375 1.46875q-0.46875 -0.28125 -0.75 -0.40625q-0.640625 -0.28125 -1.140625 -0.28125q-0.578125 0 -0.96875 0.21875q-0.390625 0.21875 -0.390625 0.484375q0 0.015625 0.0625 0.078125q0.0625 0.0625 0.296875 0.1875q0.25 0.109375 0.4375 0.1875q0.203125 0.0625 0.5625 0.1875q0.921875 0.359375 1.375 0.5625q0.453125 0.203125 0.984375 0.578125q0.546875 0.359375 0.765625 0.859375q0.234375 0.484375 0.234375 1.125q0 0.9375 -0.625 1.609375q-0.609375 0.65625 -1.34375 0.9375q-0.734375 0.265625 -1.4375 0.265625q-1.046875 0 -2.375 -0.6875q-0.5625 -0.296875 -1.34375 -0.90625zm8.609375 1.34375l0 -8.65625l2.015625 0l0 8.65625l-2.015625 0zm0 -9.96875l0 -1.890625l2.015625 0l0 1.890625l-2.015625 0zm3.3125 1.3125l2.171875 0l2.203125 5.984375l2.234375 -5.984375l2.15625 0l-3.40625 8.65625l-1.96875 0l-3.390625 -8.65625zm9.5546875 4.296875q0 -2.046875 1.109375 -3.296875q1.125 -1.25 2.9375 -1.25q3.671875 0 3.671875 5.375l-5.703125 0q0.03125 0.546875 0.59375 1.21875q0.578125 0.671875 1.75 0.671875q1.453125 0 2.96875 -0.671875l0 1.96875q-1.46875 0.578125 -2.796875 0.59375q-1.171875 0 -2.0625 -0.375q-0.890625 -0.390625 -1.4375 -1.046875q-0.53125 -0.65625 -0.78125 -1.453125q-0.25 -0.8125 -0.25 -1.734375zm2.0625 -0.875l3.59375 0q-0.0625 -0.625 -0.484375 -1.203125q-0.40625 -0.59375 -1.15625 -0.59375q-0.765625 0 -1.328125 0.578125q-0.546875 0.578125 -0.625 1.21875zm6.9375 5.234375l0 -8.65625l1.515625 0l0.15625 0.4375q1.046875 -0.6875 2.421875 -0.6875q1.4375 0 2.359375 0.71875q0.9375 0.71875 0.9375 2.171875l0 6.015625l-2.015625 0l0 -6.015625q0 -1.0 -1.28125 -1.0q-1.140625 0 -2.109375 0.671875l0 6.34375l-1.984375 0zm8.8515625 -4.359375q0 -2.046875 1.109375 -3.296875q1.125 -1.25 2.9375 -1.25q3.671875 0 3.671875 5.375l-5.703125 0q0.03125 0.546875 0.59375 1.21875q0.578125 0.671875 1.75 0.671875q1.453125 0 2.96875 -0.671875l0 1.96875q-1.46875 0.578125 -2.796875 0.59375q-1.171875 0 -2.0625 -0.375q-0.890625 -0.390625 -1.4375 -1.046875q-0.53125 -0.65625 -0.78125 -1.453125q-0.25 -0.8125 -0.25 -1.734375zm2.0625 -0.875l3.59375 0q-0.0625 -0.625 -0.484375 -1.203125q-0.40625 -0.59375 -1.15625 -0.59375q-0.765625 0 -1.328125 0.578125q-0.546875 0.578125 -0.625 1.21875zm6.53125 3.890625l1.3125 -1.375q0.515625 0.390625 0.96875 0.640625q0.859375 0.4375 1.4375 0.4375q0.5 0 0.953125 -0.25q0.46875 -0.265625 0.46875 -0.671875q0 -0.359375 -0.46875 -0.640625q-0.453125 -0.296875 -1.734375 -0.765625q-0.5625 -0.203125 -0.875 -0.328125q-0.3125 -0.140625 -0.75 -0.421875q-0.4375 -0.28125 -0.671875 -0.6875q-0.21875 -0.421875 -0.21875 -0.921875q0 -1.1875 1.046875 -1.875q1.046875 -0.703125 2.296875 -0.703125q0.9375 0 1.984375 0.453125q0.453125 0.1875 1.140625 0.640625l-1.234375 1.46875q-0.46875 -0.28125 -0.75 -0.40625q-0.640625 -0.28125 -1.140625 -0.28125q-0.578125 0 -0.96875 0.21875q-0.390625 0.21875 -0.390625 0.484375q0 0.015625 0.0625 0.078125q0.0625 0.0625 0.296875 0.1875q0.25 0.109375 0.4375 0.1875q0.203125 0.0625 0.5625 0.1875q0.921875 0.359375 1.375 0.5625q0.453125 0.203125 0.984375 0.578125q0.546875 0.359375 0.765625 0.859375q0.234375 0.484375 0.234375 1.125q0 0.9375 -0.625 1.609375q-0.609375 0.65625 -1.34375 0.9375q-0.734375 0.265625 -1.4375 0.265625q-1.046875 0 -2.375 -0.6875q-0.5625 -0.296875 -1.34375 -0.90625zm8.046875 0l1.3125 -1.375q0.515625 0.390625 0.96875 0.640625q0.859375 0.4375 1.4375 0.4375q0.5 0 0.953125 -0.25q0.46875 -0.265625 0.46875 -0.671875q0 -0.359375 -0.46875 -0.640625q-0.453125 -0.296875 -1.734375 -0.765625q-0.5625 -0.203125 -0.875 -0.328125q-0.3125 -0.140625 -0.75 -0.421875q-0.4375 -0.28125 -0.671875 -0.6875q-0.21875 -0.421875 -0.21875 -0.921875q0 -1.1875 1.046875 -1.875q1.046875 -0.703125 2.296875 -0.703125q0.9375 0 1.984375 0.453125q0.453125 0.1875 1.140625 0.640625l-1.234375 1.46875q-0.46875 -0.28125 -0.75 -0.40625q-0.640625 -0.28125 -1.140625 -0.28125q-0.578125 0 -0.96875 0.21875q-0.390625 0.21875 -0.390625 0.484375q0 0.015625 0.0625 0.078125q0.0625 0.0625 0.296875 0.1875q0.25 0.109375 0.4375 0.1875q0.203125 0.0625 0.5625 0.1875q0.921875 0.359375 1.375 0.5625q0.453125 0.203125 0.984375 0.578125q0.546875 0.359375 0.765625 0.859375q0.234375 0.484375 0.234375 1.125q0 0.9375 -0.625 1.609375q-0.609375 0.65625 -1.34375 0.9375q-0.734375 0.265625 -1.4375 0.265625q-1.046875 0 -2.375 -0.6875q-0.5625 -0.296875 -1.34375 -0.90625z" fill-rule="nonzero"/><path fill="#000000" fill-opacity="0.0" d="m213.68898 336.88452l114.99211 0l0 42.897644l-114.99211 0z" fill-rule="evenodd"/><path fill="#ffffff" d="m238.17332 363.09958q-1.3125 -1.34375 -1.3125 -3.234375q0 -1.90625 1.3125 -3.234375q1.328125 -1.34375 3.21875 -1.34375q1.09375 0 2.484375 0.3125l0 1.890625q-1.4375 -0.328125 -2.484375 -0.328125q-1.078125 0 -1.828125 0.796875q-0.734375 0.78125 -0.734375 1.90625q0 1.125 0.734375 1.90625q0.75 0.78125 1.828125 0.78125q1.03125 0 2.484375 -0.3125l0 1.890625q-1.375 0.3125 -2.484375 0.3125q-1.890625 0 -3.21875 -1.34375zm7.984375 0.015625q-1.265625 -1.34375 -1.265625 -3.25q0 -1.921875 1.265625 -3.25q1.28125 -1.328125 3.28125 -1.328125q1.984375 0 3.265625 1.328125q1.296875 1.328125 1.296875 3.234375q0 1.90625 -1.296875 3.25q-1.28125 1.34375 -3.265625 1.34375q-2.0 0 -3.28125 -1.328125zm1.375 -5.171875q-0.703125 0.765625 -0.703125 1.921875q0 1.15625 0.703125 1.921875q0.71875 0.765625 1.90625 0.765625q1.171875 0 1.875 -0.765625q0.71875 -0.765625 0.71875 -1.921875q0 -1.15625 -0.71875 -1.921875q-0.703125 -0.78125 -1.875 -0.78125q-1.1875 0 -1.90625 0.78125zm7.796875 6.25l0 -8.65625l1.5156097 0l0.15625 0.4375q1.046875 -0.6875 2.421875 -0.6875q1.4375 0 2.359375 0.71875q0.9375 0.71875 0.9375 2.171875l0 6.015625l-2.015625 0l0 -6.015625q0 -1.0 -1.28125 -1.0q-1.140625 0 -2.109375 0.671875l0 6.34375l-1.9843597 0zm8.851547 -6.765625l0 -1.890625l1.359375 0l0 -2.328125l2.015625 0l0 2.328125l1.984375 0l0 1.890625l-1.984375 0l0 4.078125q0 0.5 0.09375 0.65625q0.109375 0.140625 0.5625 0.140625l1.15625 0l0 1.890625l-1.765625 0q-0.90625 0 -1.484375 -0.5q-0.578125 -0.5 -0.578125 -1.375l0 -4.890625l-1.359375 0zm6.4296875 2.40625q0 -2.046875 1.109375 -3.296875q1.125 -1.25 2.9375 -1.25q3.671875 0 3.671875 5.375l-5.703125 0q0.03125 0.546875 0.59375 1.21875q0.578125 0.671875 1.75 0.671875q1.453125 0 2.96875 -0.671875l0 1.96875q-1.46875 0.578125 -2.796875 0.59375q-1.171875 0 -2.0625 -0.375q-0.890625 -0.390625 -1.4375 -1.046875q-0.53125 -0.65625 -0.78125 -1.453125q-0.25 -0.8125 -0.25 -1.734375zm2.0625 -0.875l3.59375 0q-0.0625 -0.625 -0.484375 -1.203125q-0.40625 -0.59375 -1.15625 -0.59375q-0.765625 0 -1.328125 0.578125q-0.546875 0.578125 -0.625 1.21875zm6.9375 5.234375l0 -8.65625l1.5 0l0.09375 0.25q0.640625 -0.5 1.796875 -0.5q0.671875 0 1.34375 0.25q0.671875 0.234375 0.875 0.453125q0.765625 -0.6875 2.0625 -0.703125q1.03125 0 1.953125 0.546875q0.921875 0.546875 0.921875 1.546875l0 6.8125l-2.015625 0l0 -6.171875q0 -0.84375 -1.0625 -0.84375q-0.765625 0 -1.203125 0.359375l0 6.65625l-2.015625 0l0 -6.171875q0 -0.84375 -1.0625 -0.84375q-0.765625 0 -1.203125 0.375l0 6.640625l-1.984375 0zm12.4453125 4.0l0 -12.65625l1.390625 0l0.15625 0.328125q1.1875 -0.578125 2.40625 -0.578125q1.21875 0 2.109375 0.703125q0.890625 0.703125 1.265625 1.703125q0.375 1.0 0.375 2.125q0 1.953125 -1.015625 3.296875q-1.015625 1.328125 -2.875 1.328125q-1.203125 0 -1.828125 -0.328125l0 4.078125l-1.984375 0zm1.984375 -5.84375q0.515625 0.265625 1.609375 0.265625q0.78125 0 1.265625 -0.421875q0.5 -0.421875 0.671875 -1.03125q0.171875 -0.625 0.171875 -1.5q0 -1.1875 -0.546875 -1.90625q-0.53125 -0.71875 -1.3125 -0.71875q-0.890625 0 -1.859375 0.40625l0 4.90625zm6.7890625 -4.921875l0 -1.890625l1.359375 0l0 -2.328125l2.015625 0l0 2.328125l1.984375 0l0 1.890625l-1.984375 0l0 4.078125q0 0.5 0.09375 0.65625q0.109375 0.140625 0.5625 0.140625l1.15625 0l0 1.890625l-1.765625 0q-0.90625 0 -1.484375 -0.5q-0.578125 -0.5 -0.578125 -1.375l0 -4.890625l-1.359375 0z" fill-rule="nonzero"/><path fill="#000000" fill-opacity="0.0" d="m341.21127 432.86615l101.19687 0l0 42.897644l-101.19687 0z" fill-rule="evenodd"/><path fill="#ffffff" d="m362.32144 460.17496l0 -8.65625l1.515625 0l0.125 0.359375q0.75 -0.578125 1.65625 -0.59375q0.953125 0 2.046875 0.578125l-0.796875 1.625q-0.921875 -0.328125 -1.4375 -0.328125q-0.671875 0 -1.125 0.40625l0 6.609375l-1.984375 0zm6.3046875 -4.359375q0 -2.046875 1.109375 -3.296875q1.125 -1.25 2.9375 -1.25q3.671875 0 3.671875 5.375l-5.703125 0q0.03125 0.546875 0.59375 1.21875q0.578125 0.671875 1.75 0.671875q1.453125 0 2.96875 -0.671875l0 1.96875q-1.46875 0.578125 -2.796875 0.59375q-1.171875 0 -2.0625 -0.375q-0.890625 -0.390625 -1.4375 -1.046875q-0.53125 -0.65625 -0.78125 -1.453125q-0.25 -0.8125 -0.25 -1.734375zm2.0625 -0.875l3.59375 0q-0.0625 -0.625 -0.484375 -1.203125q-0.40625 -0.59375 -1.15625 -0.59375q-0.765625 0 -1.328125 0.578125q-0.546875 0.578125 -0.625 1.21875zm6.9375 5.234375l0 -8.65625l1.5 0l0.09375 0.25q0.640625 -0.5 1.796875 -0.5q0.671875 0 1.34375 0.25q0.671875 0.234375 0.875 0.453125q0.765625 -0.6875 2.0625 -0.703125q1.03125 0 1.953125 0.546875q0.921875 0.546875 0.921875 1.546875l0 6.8125l-2.015625 0l0 -6.171875q0 -0.84375 -1.0625 -0.84375q-0.765625 0 -1.203125 0.359375l0 6.65625l-2.015625 0l0 -6.171875q0 -0.84375 -1.0625 -0.84375q-0.765625 0 -1.203125 0.375l0 6.640625l-1.984375 0zm13.3984375 -1.078125q-1.265625 -1.34375 -1.265625 -3.25q0 -1.921875 1.265625 -3.25q1.28125 -1.328125 3.28125 -1.328125q1.984375 0 3.265625 1.328125q1.296875 1.328125 1.296875 3.234375q0 1.90625 -1.296875 3.25q-1.28125 1.34375 -3.265625 1.34375q-2.0 0 -3.28125 -1.328125zm1.375 -5.171875q-0.703125 0.765625 -0.703125 1.921875q0 1.15625 0.703125 1.921875q0.71875 0.765625 1.90625 0.765625q1.171875 0 1.875 -0.765625q0.71875 -0.765625 0.71875 -1.921875q0 -1.15625 -0.71875 -1.921875q-0.703125 -0.78125 -1.875 -0.78125q-1.1875 0 -1.90625 0.78125zm7.796875 6.25l0 -8.65625l1.515625 0l0.125 0.359375q0.75 -0.578125 1.65625 -0.59375q0.953125 0 2.046875 0.578125l-0.796875 1.625q-0.921875 -0.328125 -1.4375 -0.328125q-0.671875 0 -1.125 0.40625l0 6.609375l-1.984375 0zm6.1484375 -1.34375l1.3125 -1.375q0.515625 0.390625 0.96875 0.640625q0.859375 0.4375 1.4375 0.4375q0.5 0 0.953125 -0.25q0.46875 -0.265625 0.46875 -0.671875q0 -0.359375 -0.46875 -0.640625q-0.453125 -0.296875 -1.734375 -0.765625q-0.5625 -0.203125 -0.875 -0.328125q-0.3125 -0.140625 -0.75 -0.421875q-0.4375 -0.28125 -0.671875 -0.6875q-0.21875 -0.421875 -0.21875 -0.921875q0 -1.1875 1.046875 -1.875q1.046875 -0.703125 2.296875 -0.703125q0.9375 0 1.984375 0.453125q0.453125 0.1875 1.140625 0.640625l-1.234375 1.46875q-0.46875 -0.28125 -0.75 -0.40625q-0.640625 -0.28125 -1.140625 -0.28125q-0.578125 0 -0.96875 0.21875q-0.390625 0.21875 -0.390625 0.484375q0 0.015625 0.0625 0.078125q0.0625 0.0625 0.296875 0.1875q0.25 0.109375 0.4375 0.1875q0.203125 0.0625 0.5625 0.1875q0.921875 0.359375 1.375 0.5625q0.453125 0.203125 0.984375 0.578125q0.546875 0.359375 0.765625 0.859375q0.234375 0.484375 0.234375 1.125q0 0.9375 -0.625 1.609375q-0.609375 0.65625 -1.34375 0.9375q-0.734375 0.265625 -1.4375 0.265625q-1.046875 0 -2.375 -0.6875q-0.5625 -0.296875 -1.34375 -0.90625zm8.203125 -3.015625q0 -2.046875 1.109375 -3.296875q1.125 -1.25 2.9375 -1.25q3.671875 0 3.671875 5.375l-5.703125 0q0.03125 0.546875 0.59375 1.21875q0.578125 0.671875 1.75 0.671875q1.453125 0 2.96875 -0.671875l0 1.96875q-1.46875 0.578125 -2.796875 0.59375q-1.171875 0 -2.0625 -0.375q-0.890625 -0.390625 -1.4375 -1.046875q-0.53125 -0.65625 -0.78125 -1.453125q-0.25 -0.8125 -0.25 -1.734375zm2.0625 -0.875l3.59375 0q-0.0625 -0.625 -0.484375 -1.203125q-0.40625 -0.59375 -1.15625 -0.59375q-0.765625 0 -1.328125 0.578125q-0.546875 0.578125 -0.625 1.21875z" fill-rule="nonzero"/><path fill="#000000" fill-opacity="0.0" d="m502.20078 432.86615l108.81894 0l0 42.897644l-108.81894 0z" fill-rule="evenodd"/><path fill="#ffffff" d="m514.32117 455.56558q0 -1.109375 0.375 -2.046875q0.390625 -0.953125 1.265625 -1.59375q0.875 -0.65625 2.09375 -0.65625q1.234375 0 1.921875 0.390625l0 -4.140625l2.015625 0l0 12.65625l-1.515625 0l-0.125 -0.375q-0.796875 0.609375 -2.15625 0.625q-1.640625 0 -2.765625 -1.4375q-1.109375 -1.453125 -1.109375 -3.421875zm2.015625 -0.125q0 1.296875 0.59375 2.1875q0.59375 0.890625 1.46875 0.890625q0.921875 0 1.578125 -0.453125l0 -4.515625q-0.78125 -0.46875 -1.8125 -0.46875q-0.828125 0 -1.328125 0.609375q-0.5 0.609375 -0.5 1.75zm7.3984375 4.734375l0 -8.65625l2.015625 0l0 8.65625l-2.015625 0zm0 -9.96875l0 -1.890625l2.015625 0l0 1.890625l-2.015625 0zm3.453125 8.625l1.3125 -1.375q0.515625 0.390625 0.96875 0.640625q0.859375 0.4375 1.4375 0.4375q0.5 0 0.953125 -0.25q0.46875 -0.265625 0.46875 -0.671875q0 -0.359375 -0.46875 -0.640625q-0.453125 -0.296875 -1.734375 -0.765625q-0.5625 -0.203125 -0.875 -0.328125q-0.3125 -0.140625 -0.75 -0.421875q-0.4375 -0.28125 -0.671875 -0.6875q-0.21875 -0.421875 -0.21875 -0.921875q0 -1.1875 1.046875 -1.875q1.046875 -0.703125 2.296875 -0.703125q0.9375 0 1.984375 0.453125q0.453125 0.1875 1.140625 0.640625l-1.234375 1.46875q-0.46875 -0.28125 -0.75 -0.40625q-0.640625 -0.28125 -1.140625 -0.28125q-0.578125 0 -0.96875 0.21875q-0.390625 0.21875 -0.390625 0.484375q0 0.015625 0.0625 0.078125q0.0625 0.0625 0.296875 0.1875q0.25 0.109375 0.4375 0.1875q0.203125 0.0625 0.5625 0.1875q0.921875 0.359375 1.375 0.5625q0.453125 0.203125 0.984375 0.578125q0.546875 0.359375 0.765625 0.859375q0.234375 0.484375 0.234375 1.125q0 0.9375 -0.625 1.609375q-0.609375 0.65625 -1.34375 0.9375q-0.734375 0.265625 -1.4375 0.265625q-1.046875 0 -2.375 -0.6875q-0.5625 -0.296875 -1.34375 -0.90625zm8.203125 -1.515625q0 -1.21875 0.875 -2.03125q0.890625 -0.8125 2.421875 -0.8125l1.796875 0l0 -0.28125q0 -0.609375 -0.203125 -0.8125q-0.1875 -0.21875 -0.828125 -0.21875q-0.5625 0 -1.71875 0.125l-1.4375 0.1875l0 -1.9375q1.15625 -0.078125 1.578125 -0.125q1.421875 -0.125 2.125 -0.140625q1.28125 0 1.890625 0.75q0.625 0.734375 0.625 1.703125l0 6.453125l-1.578125 0l-0.03125 -1.046875l0.046875 0.09375q-1.34375 1.125 -2.71875 1.109375q-1.375 0 -2.109375 -0.9375q-0.734375 -0.9375 -0.734375 -2.078125zm2.046875 0q0 0.53125 0.25 0.90625q0.25 0.375 0.828125 0.375q0.46875 0 1.078125 -0.203125q0.609375 -0.21875 1.09375 -0.5625l0.109375 0.3125l-0.3125 -1.9375l-1.796875 0q-1.25 0 -1.25 1.109375zm6.8515625 6.859375l0 -12.65625l1.390625 0l0.15625 0.328125q1.1875 -0.578125 2.40625 -0.578125q1.21875 0 2.109375 0.703125q0.890625 0.703125 1.265625 1.703125q0.375 1.0 0.375 2.125q0 1.953125 -1.015625 3.296875q-1.015625 1.328125 -2.875 1.328125q-1.203125 0 -1.828125 -0.328125l0 4.078125l-1.984375 0zm1.984375 -5.84375q0.515625 0.265625 1.609375 0.265625q0.78125 0 1.265625 -0.421875q0.5 -0.421875 0.671875 -1.03125q0.171875 -0.625 0.171875 -1.5q0 -1.1875 -0.546875 -1.90625q-0.53125 -0.71875 -1.3125 -0.71875q-0.890625 0 -1.859375 0.40625l0 4.90625zm7.1015625 5.84375l0 -12.65625l1.390625 0l0.15625 0.328125q1.1875 -0.578125 2.40625 -0.578125q1.21875 0 2.109375 0.703125q0.890625 0.703125 1.265625 1.703125q0.375 1.0 0.375 2.125q0 1.953125 -1.015625 3.296875q-1.015625 1.328125 -2.875 1.328125q-1.203125 0 -1.828125 -0.328125l0 4.078125l-1.984375 0zm1.984375 -5.84375q0.515625 0.265625 1.609375 0.265625q0.78125 0 1.265625 -0.421875q0.5 -0.421875 0.671875 -1.03125q0.171875 -0.625 0.171875 -1.5q0 -1.1875 -0.546875 -1.90625q-0.53125 -0.71875 -1.3125 -0.71875q-0.890625 0 -1.859375 0.40625l0 4.90625zm7.0390625 1.84375l0 -8.65625l1.515625 0l0.125 0.359375q0.75 -0.578125 1.65625 -0.59375q0.953125 0 2.046875 0.578125l-0.796875 1.625q-0.921875 -0.328125 -1.4375 -0.328125q-0.671875 0 -1.125 0.40625l0 6.609375l-1.984375 0zm7.5703125 -1.078125q-1.265625 -1.34375 -1.265625 -3.25q0 -1.921875 1.265625 -3.25q1.28125 -1.328125 3.28125 -1.328125q1.984375 0 3.265625 1.328125q1.296875 1.328125 1.296875 3.234375q0 1.90625 -1.296875 3.25q-1.28125 1.34375 -3.265625 1.34375q-2.0 0 -3.28125 -1.328125zm1.375 -5.171875q-0.703125 0.765625 -0.703125 1.921875q0 1.15625 0.703125 1.921875q0.71875 0.765625 1.90625 0.765625q1.171875 0 1.875 -0.765625q0.71875 -0.765625 0.71875 -1.921875q0 -1.15625 -0.71875 -1.921875q-0.703125 -0.78125 -1.875 -0.78125q-1.1875 0 -1.90625 0.78125zm7.25 -2.40625l2.171875 0l2.203125 5.984375l2.234375 -5.984375l2.15625 0l-3.40625 8.65625l-1.96875 0l-3.390625 -8.65625zm9.5546875 5.796875q0 -1.21875 0.875 -2.03125q0.890625 -0.8125 2.421875 -0.8125l1.796875 0l0 -0.28125q0 -0.609375 -0.203125 -0.8125q-0.1875 -0.21875 -0.828125 -0.21875q-0.5625 0 -1.71875 0.125l-1.4375 0.1875l0 -1.9375q1.15625 -0.078125 1.578125 -0.125q1.421875 -0.125 2.125 -0.140625q1.28125 0 1.890625 0.75q0.625 0.734375 0.625 1.703125l0 6.453125l-1.578125 0l-0.03125 -1.046875l0.046875 0.09375q-1.34375 1.125 -2.71875 1.109375q-1.375 0 -2.109375 -0.9375q-0.734375 -0.9375 -0.734375 -2.078125zm2.046875 0q0 0.53125 0.25 0.90625q0.25 0.375 0.828125 0.375q0.46875 0 1.078125 -0.203125q0.609375 -0.21875 1.09375 -0.5625l0.109375 0.3125l-0.3125 -1.9375l-1.796875 0q-1.25 0 -1.25 1.109375zm6.8515625 2.859375l0 -12.65625l2.015625 0l0 12.65625l-2.015625 0z" fill-rule="nonzero"/></g></svg>