<svg version="1.1" viewBox="0.0 0.0 960.0 540.0" fill="none" stroke="none" stroke-linecap="square" stroke-miterlimit="10" xmlns:xlink="http://www.w3.org/1999/xlink" xmlns="http://www.w3.org/2000/svg"><clipPath id="g4da285de38_0_98.0"><path d="m0 0l960.0 0l0 540.0l-960.0 0l0 -540.0z" clip-rule="nonzero"/></clipPath><g clip-path="url(#g4da285de38_0_98.0)"><path fill="#ffffff" d="m0 0l960.0 0l0 540.0l-960.0 0z" fill-rule="evenodd"/><path fill="#ffff00" fill-opacity="0.5769" d="m435.10895 0.0012643045l89.77124 0l0 192.38646l-89.77124 0z" fill-rule="evenodd"/><path fill="#ffff00" fill-opacity="0.5769" d="m524.8802 192.3903l-44.88562 77.6378l-44.88562 -77.6378z" fill-rule="evenodd"/><path fill="#0000ff" fill-opacity="0.5538" d="m524.89905 539.9987l-89.77121 0l0 -192.38647l89.77121 0z" fill-rule="evenodd"/><path fill="#0000ff" fill-opacity="0.5538" d="m435.12784 347.60965l44.88562 -77.63779l44.88559 77.63779z" fill-rule="evenodd"/><path fill="#38761d" fill-opacity="0.5385" d="m750.0029 225.14801l0 89.780334l-192.36694 0l0 -89.780334z" fill-rule="evenodd"/><path fill="#38761d" fill-opacity="0.5385" d="m557.63336 314.92834l-77.62991 -44.890167l77.62991 -44.890167z" fill-rule="evenodd"/><path fill="#ff0000" fill-opacity="0.5231" d="m209.99704 314.85196l0 -89.780334l192.36694 0l0 89.780334z" fill-rule="evenodd"/><path fill="#ff0000" fill-opacity="0.5231" d="m402.36658 225.07162l77.62991 44.890167l-77.62991 44.890167z" fill-rule="evenodd"/></g></svg>