<svg version="1.1" viewBox="0.0 0.0 960.0 540.0" fill="none" stroke="none" stroke-linecap="square" stroke-miterlimit="10" xmlns:xlink="http://www.w3.org/1999/xlink" xmlns="http://www.w3.org/2000/svg"><clipPath id="g4da285de38_0_151.0"><path d="m0 0l960.0 0l0 540.0l-960.0 0l0 -540.0z" clip-rule="nonzero"/></clipPath><g clip-path="url(#g4da285de38_0_151.0)"><path fill="#ffffff" d="m0 0l960.0 0l0 540.0l-960.0 0z" fill-rule="evenodd"/><path fill="#000000" d="m213.01445 274.85455l0 0c0 -147.47308 119.55055 -267.02362 267.02362 -267.02362l0 0c70.81903 0 138.73755 28.132765 188.81421 78.209404c50.07666 50.076645 78.20941 117.99515 78.20941 188.81422l0 0c0 147.47305 -119.55054 267.02362 -267.02362 267.02362l0 0c-147.47308 0 -267.02362 -119.55057 -267.02362 -267.02362z" fill-rule="evenodd"/><path stroke="#595959" stroke-width="1.0" stroke-linejoin="round" stroke-linecap="butt" d="m213.01445 274.85455l0 0c0 -147.47308 119.55055 -267.02362 267.02362 -267.02362l0 0c70.81903 0 138.73755 28.132765 188.81421 78.209404c50.07666 50.076645 78.20941 117.99515 78.20941 188.81422l0 0c0 147.47305 -119.55054 267.02362 -267.02362 267.02362l0 0c-147.47308 0 -267.02362 -119.55057 -267.02362 -267.02362z" fill-rule="evenodd"/><path fill="#d9d9d9" fill-opacity="0.5385" d="m217.90883 269.9945l0 0c0 -72.39331 58.686386 -131.0797 131.0797 -131.0797l0 0c34.764496 0 68.10513 13.810135 92.68735 38.39235c24.582214 24.582214 38.392365 57.92285 38.392365 92.68735l0 0c0 72.39331 -58.6864 131.07968 -131.07971 131.07968l0 0c-72.39331 0 -131.0797 -58.68637 -131.0797 -131.07968z" fill-rule="evenodd"/><path fill="#d9d9d9" fill-opacity="0.5385" d="m480.06824 269.9945l0 0c0 -72.39331 58.68634 -131.0797 131.07971 -131.0797l0 0c34.764465 0 68.1051 13.810135 92.68732 38.39235c24.582214 24.582214 38.392334 57.92285 38.392334 92.68735l0 0c0 72.39331 -58.68634 131.07968 -131.07965 131.07968l0 0c-72.39337 0 -131.07971 -58.68637 -131.07971 -131.07968z" fill-rule="evenodd"/><path fill="#d9d9d9" fill-opacity="0.5385" d="m348.98853 138.91481l0 0c0 -72.39332 58.68637 -131.0797 131.07971 -131.0797l0 0c34.764465 0 68.1051 13.8101425 92.68732 38.392353c24.582214 24.58221 38.392395 57.922848 38.392395 92.68735l0 0c0 72.39331 -58.6864 131.0797 -131.07971 131.0797l0 0c-72.39334 0 -131.07971 -58.686386 -131.07971 -131.0797z" fill-rule="evenodd"/><path fill="#d9d9d9" fill-opacity="0.5385" d="m348.98853 401.0742l0 0c0 -72.39331 58.68637 -131.07968 131.07971 -131.07968l0 0c34.764465 0 68.1051 13.81015 92.68732 38.392365c24.582214 24.582214 38.392395 57.92282 38.392395 92.68732l0 0c0 72.39334 -58.6864 131.07968 -131.07971 131.07968l0 0c-72.39334 0 -131.07971 -58.68634 -131.07971 -131.07968z" fill-rule="evenodd"/><path fill="#d9d9d9" fill-opacity="0.5385" d="m294.6465 455.35324l0 0c-51.183853 -51.183838 -51.183853 -134.16925 0 -185.35309l0 0c24.579346 -24.579361 57.916077 -38.387894 92.676544 -38.387894c34.760437 0 68.0972 13.808533 92.676544 38.387894l0 0c51.18387 51.183838 51.18387 134.16925 0 185.35309l0 0c-51.183838 51.183838 -134.16925 51.183838 -185.35309 0z" fill-rule="evenodd"/><path fill="#d9d9d9" fill-opacity="0.5385" d="m479.9996 270.00015l0 0c-51.183838 -51.183853 -51.183838 -134.16927 0 -185.35312l0 0c24.579346 -24.579353 57.916107 -38.387886 92.676544 -38.387886c34.760437 0 68.09723 13.808533 92.676575 38.387886l0 0c51.183838 51.183846 51.183838 134.16925 0 185.35312l0 0c-51.183838 51.183838 -134.16925 51.183838 -185.35312 0z" fill-rule="evenodd"/><path fill="#d9d9d9" fill-opacity="0.5385" d="m294.6465 270.00015l0 0c-51.183853 -51.183853 -51.183853 -134.16927 0 -185.35312l0 0c24.579346 -24.579353 57.916077 -38.387886 92.676544 -38.387886c34.760437 0 68.0972 13.808533 92.676544 38.387886l0 0c51.18387 51.183846 51.18387 134.16925 0 185.35312l0 0c-51.183838 51.183838 -134.16925 51.183838 -185.35309 0z" fill-rule="evenodd"/><path fill="#d9d9d9" fill-opacity="0.5385" d="m479.9996 455.35324l0 0c-51.183838 -51.183838 -51.183838 -134.16925 0 -185.35309l0 0c24.579346 -24.579361 57.916107 -38.387894 92.676544 -38.387894c34.760437 0 68.09723 13.808533 92.676575 38.387894l0 0c51.183838 51.183838 51.183838 134.16925 0 185.35309l0 0c-51.183838 51.183838 -134.16925 51.183838 -185.35312 0z" fill-rule="evenodd"/></g></svg>