<svg version="1.1" viewBox="0.0 0.0 960.0 540.0" fill="none" stroke="none" stroke-linecap="square" stroke-miterlimit="10" xmlns:xlink="http://www.w3.org/1999/xlink" xmlns="http://www.w3.org/2000/svg"><clipPath id="g4da285de38_0_70.0"><path d="m0 0l960.0 0l0 540.0l-960.0 0l0 -540.0z" clip-rule="nonzero"/></clipPath><g clip-path="url(#g4da285de38_0_70.0)"><path fill="#ffffff" d="m0 0l960.0 0l0 540.0l-960.0 0z" fill-rule="evenodd"/><path fill="#ffff00" fill-opacity="0.5769" d="m590.8144 1.0668262l-111.88977 269.6063l-111.88974 -269.6063z" fill-rule="evenodd"/><path fill="#0000ff" fill-opacity="0.5538" d="m367.06433 539.7767l111.88974 -269.6063l111.8898 269.6063z" fill-rule="evenodd"/><path fill="#38761d" fill-opacity="0.5385" d="m749.60547 381.66528l-269.60632 -111.87402l269.60632 -111.87401z" fill-rule="evenodd"/><path fill="#ff0000" fill-opacity="0.5231" d="m210.39285 157.91531l269.6063 111.87402l-269.6063 111.87402z" fill-rule="evenodd"/><path fill="#00ff00" fill-opacity="0.5769" d="m749.33295 158.2396l-269.7323 111.49606l111.49609 -269.7323z" fill-rule="evenodd"/><path fill="#ff00ff" fill-opacity="0.5923" d="m210.43495 381.53696l269.7323 -111.49606l-111.49606 269.73224z" fill-rule="evenodd"/><path fill="#00ffff" fill-opacity="0.5846" d="m591.1229 539.9974l-111.49606 -269.73227l269.73227 111.49606z" fill-rule="evenodd"/><path fill="#ff9900" fill-opacity="0.5846" d="m368.6421 1.0994872l111.49606 269.73227l-269.73227 -111.49605z" fill-rule="evenodd"/></g></svg>