<svg version="1.1" viewBox="0.0 0.0 960.0 540.0" fill="none" stroke="none" stroke-linecap="square" stroke-miterlimit="10" xmlns:xlink="http://www.w3.org/1999/xlink" xmlns="http://www.w3.org/2000/svg"><clipPath id="g4da285de38_0_12.0"><path d="m0 0l960.0 0l0 540.0l-960.0 0l0 -540.0z" clip-rule="nonzero"/></clipPath><g clip-path="url(#g4da285de38_0_12.0)"><path fill="#ffffff" d="m0 0l960.0 0l0 540.0l-960.0 0z" fill-rule="evenodd"/><path fill="#0000ff" fill-opacity="0.5538" d="m438.63223 374.07507l88.724396 0l0 165.92126l-88.724396 0z" fill-rule="evenodd"/><path fill="#ffff00" fill-opacity="0.5769" d="m437.75766 0.0016l89.20944 0l0 158.09763l-89.20944 0z" fill-rule="evenodd"/><path fill="#ffff00" fill-opacity="0.5769" d="m527.3134 158.01706l-44.358185 108.01636l-44.358215 -108.01636z" fill-rule="evenodd"/><path fill="#0000ff" fill-opacity="0.5538" d="m438.63223 374.05203l44.362183 -108.0l44.362213 108.0z" fill-rule="evenodd"/><path fill="#38761d" fill-opacity="0.5385" d="m748.8902 220.75072l0 89.20946l-158.09766 0l0 -89.20946z" fill-rule="evenodd"/><path fill="#38761d" fill-opacity="0.5385" d="m590.87476 310.3065l-108.01639 -44.358185l108.01639 -44.3582z" fill-rule="evenodd"/><path fill="#ff0000" fill-opacity="0.5231" d="m377.02576 221.16891l0 88.7164l-165.91624 0l0 -88.7164z" fill-rule="evenodd"/><path fill="#ff0000" fill-opacity="0.5231" d="m377.02576 221.16891l108.01636 44.358215l-108.01636 44.358185z" fill-rule="evenodd"/><path fill="#00ff00" fill-opacity="0.5769" d="m639.1904 46.02141l63.081665 63.081676l-111.79376 111.79378l-63.081665 -63.08168z" fill-rule="evenodd"/><path fill="#00ff00" fill-opacity="0.5769" d="m590.7814 221.08363l-107.74692 45.01387l45.013885 -107.74689z" fill-rule="evenodd"/><path fill="#00ffff" fill-opacity="0.5846" d="m639.1904 486.0235l63.081665 -63.081696l-111.79376 -111.79376l-63.081665 63.081665z" fill-rule="evenodd"/><path fill="#00ffff" fill-opacity="0.5846" d="m590.7814 310.96127l-107.74692 -45.013885l45.013885 107.74689z" fill-rule="evenodd"/><path fill="#ff9900" fill-opacity="0.5846" d="m326.9944 46.02141l-63.081696 63.081676l111.79379 111.79378l63.081665 -63.08168z" fill-rule="evenodd"/><path fill="#ff9900" fill-opacity="0.5846" d="m375.40347 221.08363l107.74689 45.01387l-45.013855 -107.74689z" fill-rule="evenodd"/><path fill="#ff00ff" fill-opacity="0.5923" d="m326.9944 486.0235l-63.081696 -63.081696l111.79379 -111.79376l63.081665 63.081665z" fill-rule="evenodd"/><path fill="#ff00ff" fill-opacity="0.5923" d="m375.40347 310.96127l107.74689 -45.013885l-45.013855 107.74689z" fill-rule="evenodd"/></g></svg>