<svg xmlns="http://www.w3.org/2000/svg" viewBox="0 0 335.77 503.96"><defs><style>.cls-1,.cls-4{stroke:#fff;stroke-width:3px;}.cls-1,.cls-2,.cls-4{stroke-miterlimit:10;}.cls-2{fill:none;stroke:#000;stroke-width:0.25px;}.cls-3,.cls-4{fill:#fff;}.cls-5{fill:#4d4d4d;}.cls-6{fill:#ff480a;}</style></defs><g id="Right_Ear_Shadow" data-name="Right Ear Shadow"><path d="M23.58,328.42c.83.28,1.59.28,4.87-.24,2.41-.38,2.87-.52,3.25-.16s.23.83.16,3.24a9,9,0,0,0,.16,3.25c.5,1.14,1.21,1.09,1.74,2.35.43,1,.49,2.28.13,2.44s-.79-.59-1.71-1.54c-1.66-1.72-2.25-1.52-5.07-3.82a22.44,22.44,0,0,1-2.56-2.31c-1.49-1.59-2.93-3.64-2.64-3.94S22.54,328.08,23.58,328.42Z" transform="translate(-13.2 -5.69)"/></g><g id="Hair"><path class="cls-1" d="M36.81,251.26a43.12,43.12,0,0,1-2.84-8,55.27,55.27,0,0,1-1.34-10.51c-.58-8.08-.87-6.45-1.58-15.39-.56-7.06-.23-6.4-.85-17-.87-14.6-1.39-14-.82-16.24.82-3.28,3-9.13,1-12.26a4.39,4.39,0,0,1-.93-2.39c-.08-1.82,1.31-2.44,1.42-4.14s-1.24-1.94-1.83-4c-.76-2.62,1.05-3.64,1.26-7.38.16-2.88-.89-2.67-1.14-6.46-.29-4.44,1.14-4.94.41-8.16-.7-3.06-2.17-3.42-1.91-5.6.28-2.36,2.11-2.72,2.19-5s-1.66-2.47-1.87-4.79c-.26-2.93,2.4-3.88,2.89-7.47.35-2.63-.89-3.56-1.1-5.64-.77-7.52,13.42-14.75,13.07-15.3S32.24,101.65,31.74,101c-.33-.45,3.28-4.56,8.6-6.94,2.72-1.22,4.84-1.52,4.79-1.87C45,91.33,33,92.42,32.92,92S39.31,91,39.33,90s-5.86-1.79-5.8-2.15,7.6,1,8.11-.41c.64-1.75-9.76-6.73-9.33-7.67s9.53,2.72,9.86,2-6.19-4-5.93-4.59,9,4,10.68,1.91c.95-1.18-1.44-3.4-2.88-8.81-1.51-5.64-.85-10.52-.53-10.55s.49,2.77,2,7.23c.56,1.66,1.37,4,1.83,4,.7-.12-1-5.8,1-12.25,1.52-4.85,4.35-7.65,4.51-7.55S48.93,56,50.09,61c.49,2.14,1.89,4.12,2.63,3.94,1.05-.26-.27-4.57,1.14-9.83,1.82-6.77,7.17-11.24,7.59-11S59.52,47.92,60,48.29s4.84-4.8,5.48-4.35-1.63,4-1.42,4.14,2.52-5.66,7.63-10.14c4.49-3.95,7.15-3.34,10.23-7,3.36-4,2.82-9.18,3.61-9.13.63,0,0,5.37,1.1,5.64,1.39.35,4.42-7.88,5.31-7.59.69.23-.84,5.14.29,5.69,1.47.71,6.25-6.54,7-6.05.49.31-1.39,3.4-.61,4.1s3.55-.83,5.56-2.72c2.51-2.35,2.17-3.75,4.59-5.93s5.3-3.1,5.56-2.72c.41.62-6,5-5.4,6s8.37-2.93,8.85-2.07c.33.61-3.33,3-3.09,3.41.5.84,17-8.3,17.54-7.39.27.45-3.31,3.1-3.09,3.41.37.52,10.28-6.93,12.79-4.71.58.52.25,1.12.89,1.59,1.72,1.26,4.93-2.41,9.62-2.92,2.68-.3,3.83.66,6.57,1.29,10,2.3,19.53-4.68,20.18-3.45.4.77-3.52,2.88-3.05,4.23.27.77,2,1.39,11.41.24,11-1.35,10.75-2.47,15.34-2.4,6,.1,5.74,2,16.48,4.06,6.92,1.34,13.16,1.74,13.15,2.6,0,.67-3.75.66-4,1.83s4.32,1.6,9.21,5.23c3.17,2.35,2.6,3.13,5.12,4.63,5,3,10.65,1.88,10.71,2.72.05.64-3.2,1.12-3.16,1.79.06,1.19,10.57,1.16,10.71,2.72.09.87-3.18,1.47-3.12,2.59,0,.68,1.24,1.34,5,2.2,6.21,1.42,10.64,1.38,10.67,1.9s-5.61,1.14-5.6,1.91c0,1.06,10.69,1.46,10.72,2.72,0,.69-3.17,1-3.17,1.79,0,1.42,11.31,1.75,11.61,4.3.15,1.27-2.57,2.17-2.27,3.37s2.77,1.67,4.95,1.38c4.21-.58,7.06-4.48,7.1-4.43s-6.08,5.7-5.36,6.78c.52.77,4.21-1.21,4.87-.24s-2,3.28-1.42,4.14,5-1.33,5.69-.29c.39.56-.71,1.34-.69,2.48.06,3.45,10.34,5.63,10.1,6.82-.15.78-4.73.37-4.83,1s5.42.89,7.55,4.51c1,1.67.57,2.94,1.83,4,1.46,1.2,3-.32,4.91.57,2.59,1.22,3,5.44,2.72,5.56s-1-3.31-3.45-3.9c-1.11-.27-2.68,0-3.21,1-1,1.87,2,6.14,5.32,8.69,2.82,2.18,4.47,2.06,5.07,3.81.88,2.58-2.13,4.42-1.3,6.58,1.17,3,8.36,2.77,8.32,3.65,0,.7-4.55.64-4.79,1.87-.29,1.52,6.2,3.66,5.93,4.59s-6.37-.24-6.49.32,8.51,2.7,8.36,4.47c-.1,1.08-3.42.92-3.94,2.63-.69,2.25,4.21,5.27,3.57,6.34-.48.81-3.62-.57-4.06.2-.62,1.09,5.23,4.67,4.43,7.1-.42,1.25-2.33,1.43-2.32,2.56s1.71,1.32,1.75,2.35c.05,1.42-3.12,2-3.09,3.41,0,1,1.68.89,2.56,2.32,1.36,2.19-1.34,4.35-.4,8.15.45,1.87,1.34,2.31,1,3.21-.73,1.77-4.45.86-5.56,2.72-.81,1.35,1.76,2.82,1,4.83-.24.69-.62.79-1.5,2.52a7.21,7.21,0,0,0-.73,1.66c-.25,1.4.63,2,1,4a13.38,13.38,0,0,1,.12,2.43c.09,4,.33,3.76.28,5.69-.09,3.62-.91,3.53-.53,5.72.24,1.32.69,2.25.17,3.25s-1.4.94-1.55,1.7c-.24,1.28,2.1,2.39,1.79,3.17s-2.05.17-2.39.93c-.27.58.65,1.11.93,2.39s-.37,1.55-.65,3.29c-.33,2,.39,2.44.24,4.87a20.18,20.18,0,0,1-.65,3.29,35.51,35.51,0,0,0-.48,6.53c-.08,3.65-.12,5.48.32,6.5.54,1.26,1.47,2.52,1,3.2-.36.51-1.2.27-1.58.9-.27.45-.07,1,.08,1.62,0,0,.06,1.11.17,3.25a65.47,65.47,0,0,1-.41,8.16,51.73,51.73,0,0,0-2.48,15.58,12.75,12.75,0,0,1-1.3,6.58,12.48,12.48,0,0,1-3.85,4.26c-4.82,3.67-5.31,13.17-5.56,19-.95,22.22-.73,34.22-.73,34.22.44,24.79.81,22.66.48,26-.43,4.48-1.41,11.58.08,17.9.7,2.94.79,6.1,2.07,8.84.68,1.46,1.89,3.65,1.06,4.83-.46.67-1.14.32-1.58.9-1.21,1.57,3.09,5.16,2,8-.68,1.84-3,1.78-3.09,3.41s2.17,2.6,1.83,4c-.24.95-1.43,1-2.36,1.74-1.84,1.56-1.13,4.91-.28,10.6,1.45,9.71,1.17,12.08-.16,13s-2.58,0-3.21,1c-1.2,1.79,3,5.95,2,7.23-.7.85-2.77-.76-4.06.2-1.88,1.39.89,6-1.22,8.2-1.43,1.48-3.6.25-4.79,1.86s.44,3-.57,4.92-3.24,1.33-4.7,3.49,0,3.95-1.34,5.76-3.41.95-6.42,1.95c-4,1.34-3.74,3.9-8.56,7.75-5.45,4.35-7.38,2.3-11.08,6.25-3.43,3.66-3.42,7.18-6.13,7.63-2.46.4-3.27-2.36-5.8-2.15-3.77.31-3.67,6.54-9.3,9.42-3.27,1.67-4.34.09-7.22,2-3.53,2.32-2.36,5-6.09,8.45-2.2,2-4.56,2.92-8.73,4.5-4,1.52-3.72.79-6.41,1.95-6.19,2.65-7.42,6.34-11.89,6.29-1.45,0-1.06-.4-3.29-.65-4.53-.51-6.73,1-10.51,1.34-4.09.37-3.84-1.19-8.2-1.22-6.79,0-11.81,3.52-12.06,3.05s6.65-4.31,6.25-5.2c-.27-.62-3.74,1-8.88,1.26-5.68.27-10.73-1.27-10.68-1.91s7.21-.42,7.27-1.18-6.45-2.05-13.15-2.59c-7-.57-7.61.23-13.84-.13-9.73-.56-19.06-3.15-19-4.74.06-.93,3.25-1.3,3.17-1.79s-4-.06-9-.37c-4.67-.28-10.64-1.3-10.72-2.72-.06-1.07,3.3-1.94,3.13-2.59s-4.55.78-6.58-1.3c-1.09-1.13-.55-2.31-1.78-3.17-1.42-1-2.63.24-4.1-.61-1.76-1-.86-3.2-2.68-4.75-1.65-1.4-3-.14-4.95-1.38-2.47-1.56-1.33-4.25-3.58-6.33-2.53-2.34-5.13,0-8.23-2-3.53-2.34-1.55-6.33-5.36-9.49-3-2.47-5.28-1-7.51-3.7-2-2.47-.65-4.37-2.76-6.37s-4.21-.72-6.66-2.92c-1.57-1.42-1.13-2.34-2.68-4.75-2.55-4-4.79-3.11-6.81-6.17-2.5-3.76.28-6-2.2-11.28-1.78-3.79-3.41-3-4.38-6.3-1.27-4.28.85-7.84-1.3-9.7-1-.9-2.15-.58-2.51-1.5-.58-1.44,2-2.63,2.19-5,.21-2.72-3.06-3.21-3.57-6.33-.62-3.72,3.61-5.52,2.8-9.09-.53-2.3-2.47-2.41-3.49-4.71s.36-4.49,2.72-10.72a74.94,74.94,0,0,0,2.84-8.28c.95-3.89,0-4.65.16-13,0-.84.09-4,.41-8.15.39-5.07.75-6.37,1.09-10.64.26-3.27.14-3.7.33-9.78.05-1.68.26-8.28.81-16.32.35-5.16.72-9.17,1-12.25.59-6.27,1.1-10.64,1.1-10.64.83-7.68,1.11-9.58.2-12.21A14.92,14.92,0,0,0,38.11,261" transform="translate(-13.2 -5.69)"/></g><g id="Cartoon"><path class="cls-2" d="M103.23,253.23a12.65,12.65,0,0,0-3.65,8.32,13,13,0,0,0,1.16,5.24,12.88,12.88,0,0,0,1.68,2.76" transform="translate(-13.2 -5.69)"/><path class="cls-2" d="M121.9,268.58a9.89,9.89,0,0,0-.65-13" transform="translate(-13.2 -5.69)"/><path class="cls-3" d="M76.75,106c7-1.38,10.35,5.72,22.32,7,5.79.63,7-.82,14.57-1.54,16.38-1.55,18.45,4.45,33.57,4,8.72-.25,6.64-2.2,29.79-6.37,9.35-1.69,14.15-2.53,20.22-2.64,6.55-.12,15.8-.28,26.21,3.57,9.92,3.67,10,7,17.5,8.08,8.72,1.29,11-2.86,20.17-3.45,11.36-.73,24,4.64,31.62,13.88,8.5,10.3,8.61,22.77,8.64,26.43.13,14.1-6.53,17.36-4.26,28.69,1.73,8.6,6,9.07,10.76,19.81,2.33,5.29,3.77,10.85,4.79,30.68a370.82,370.82,0,0,1,.44,41.48c-.82,16.79-1.39,28.25-5.15,43.39-3.28,13.17-5.27,21.16-11.49,30.69a75.43,75.43,0,0,1-32.8,27.68c-2.3,1-4.68,3.07-8,2.84-6.22-.45-8.29-7.16-15.3-13.07-2.22-1.87-8.44-4.18-20.78-8.73-15.74-5.79-21.71-7.34-27.28-8.4-10.14-1.94-13.43-1.22-14.69-.89-6.09,1.55-8,4.88-13.6,4.74-3.46-.08-3.8-1.39-9.94-3.57a54.62,54.62,0,0,0-17.25-3.2c-1.87,0-3.75.15-15.3,3.2-12.84,3.39-19.26,5.09-22.45,6.82-1.34.73-1.81,1.06-15.71,11.36-7,5.22-7.12,6.56-9.41,7-10.63,2-22-16.9-22.89-18.39-4-6.81-5-14.23-7.15-28.94-1.35-9.14-2.61-17.67-2.27-29.18s1.85-11.43,2.8-25.37c.56-8.24.08-8.93,0-32.55-.07-21.61.33-24.46,1.06-27.72a107.88,107.88,0,0,1,8.6-23.22c5.7-11.58,8.37-12.42,8.85-18.35.74-9.06-5.22-10.44-6.78-21.63-1.65-11.89,3.5-21.78,6.74-28C67.41,113.56,70.71,107.22,76.75,106Z" transform="translate(-13.2 -5.69)"/><path class="cls-4" d="M106.9,383.66c1.57-1.89,4-4.88,5.48-4.34s.77,4.53,1.87,4.79c.37.09.73-.28,1.06-.63,2.7-2.86,3.51-5.41,4.34-5.34s.76,2.95,1.78,3.17c1.62.35,3.9-6.31,5.4-6,1,.24.49,3.34,1.83,4,1.66.79,4.52-5,6.29-4.38,1.14.39.88,3,1.79,3.16,1.18.2,2.14-4.24,3.85-4.26s2.38,4.59,4.3,4.67,2.91-4.45,4.67-4.3,1.49,4,3.49,4.71c3,1,6.15-6.71,10.27-6.21,3.75.45,5,7.3,7.67,6.94,2.15-.3,2.33-4.86,4.63-5.12s3.91,4.23,5.88,3.78c1.72-.4,1.64-4.05,3.05-4.22,1.83-.23,3.5,5.71,5.15,5.43,1.17-.19,1.21-3.28,2.28-3.36s1.36,3.24,3.45,3.89c1.9.6,3.28-1.69,4.83-1.05,2,.82,1.26,5.2,2.71,5.56s2.95-3.78,4.71-3.49,1.63,4.33,3.49,4.71,3.25-3.11,4.75-2.68c1.65.47,1,5,2.72,5.56s4.3-3,4.75-2.68c.65.48-3,9.43-11.45,15.22a32.06,32.06,0,0,1-7.14,3.61c-3.85,1.43-5.46.67-13,1.46a47.56,47.56,0,0,0-8.07,1.22c-7,1.6-8.42-.81-21.23-1.38-8.39-.37-8.26.64-15.47,0a89.77,89.77,0,0,1-14-2.56c-5.79-1.44-10.75-2.71-16.56-5.68-3.14-1.61-12.62-6.47-11.93-10.8C104.75,386.26,105.47,385.4,106.9,383.66Z" transform="translate(-13.2 -5.69)"/><path d="M34.25,281.5c1-4.73-4.06-9.21-5.4-10.31-3.13-2.58-9.23-5.77-12.37-3.45-.79.59-1.4,1.52-2.16,5.81-.89,5.09-1.34,7.63-1,12.25.8,11.14,5.18,22.77,6.82,22.45.75-.15.1-2.65,1.22-8.2,1.39-6.92,3.34-7.66,4.22-13.23,1-6.49-.74-11.12.24-11.41,1.4-.4,4.52,9.1,6.94,8.61C33.78,283.81,34.17,281.92,34.25,281.5Z" transform="translate(-13.2 -5.69)"/><path class="cls-5" d="M36.93,286.25c0-1.27.09-5.93,2.11-6.61a1.09,1.09,0,0,1,.81,0c1.62.63.84,6.13.45,8.92S39.46,293,39,295.1a88.13,88.13,0,0,0-1.78,13.11A75.19,75.19,0,0,0,37,320.43c.45,5.89,1.47,8.36.45,8.93-1.26.69-4.21-2.32-9.34-7.68-3.1-3.24-4.67-4.89-5.19-6.25-1-2.59-.1-6.4,1.74-13.92,1.65-6.71,2.46-8,3.66-8.32,2.42-.68,4.53,3.06,6.61,2.11,1.87-.85,2.09-4.74,2.15-5.8C37.18,288,36.91,288,36.93,286.25Z" transform="translate(-13.2 -5.69)"/><path d="M315.08,348c1-1.31,2.35-1,4.79-1.87,3.47-1.29,5.3-3.76,5.52-3.53s-1.33,1.26-2.27,3.37c-1.4,3.12.12,4.68-1.3,6.58-.86,1.14-1.4.56-4.75,2.67-2.07,1.31-2.71,2.06-3.17,1.79s0-1.62.53-5.72C314.72,349,314.64,348.63,315.08,348Z" transform="translate(-13.2 -5.69)"/></g><g id="Left_Ear_Shadows" data-name="Left Ear Shadows"><path d="M334.85,271.36a12.22,12.22,0,0,1,5.52-3.53,4.66,4.66,0,0,1,3.24-.16c.39.16,1,.49,2.6,3.12.23.37,1.31,2.12,1.79,3.17,1.77,3.89.7,10.09,0,17.09s-.44,9.73-1.14,9.82c-1.24.16-3.35-8.61-3.77-10.39-.78-3.26-.89-5.25-2.16-10.47-.64-2.66-1.34-5.23-3.61-7.15A9.28,9.28,0,0,0,334.85,271.36Z" transform="translate(-13.2 -5.69)"/><path class="cls-5" d="M322.1,293.16a21.46,21.46,0,0,0-3,4.22c-1.87,3.38-3,7.63-2,8.24.73.44,2-1.45,3.2-1,1,.39,1,2,1.87,4.79s1.18,2.46,1.87,4.79c.53,1.8,2,7-.33,9.78-.27.33,0,.12-2.35,1.75a17,17,0,0,0-3.9,3.45c-.09.12-2,2.64-1.46,3.33.3.34,1.13.08,1.62-.09,4.5-1.47,6.75-2.21,8.77-3.69,1.08-.79.27-.33,4.67-4.3,3.42-3.08,4.32-3.74,5.48-4.34,2.71-1.43,3.19-.84,4-1.83,1.27-1.62-.08-3.29-1.38-11.32a8.34,8.34,0,0,0-1-3.21c-1.13-2-3.21-1-5.84-3-1.48-1.09-.82-1.33-3.45-3.9a13,13,0,0,0-4.22-3A10.43,10.43,0,0,0,322.1,293.16Z" transform="translate(-13.2 -5.69)"/></g><g id="Layer_26" data-name="Layer 26"><path d="M200.05,143.56h13.62a36.63,36.63,0,0,1-.18,3.81,13.15,13.15,0,0,1-2.69,6.84,11.71,11.71,0,0,1-3,2.66,13.76,13.76,0,0,1-3.73,1.63,16.07,16.07,0,0,1-4.27.56,15.1,15.1,0,0,1-5.61-1,12.67,12.67,0,0,1-4.36-2.86,12.93,12.93,0,0,1-2.84-4.41,16.5,16.5,0,0,1,0-11.34,12.4,12.4,0,0,1,2.83-4.39,12.85,12.85,0,0,1,4.43-2.83,15.64,15.64,0,0,1,5.77-1A14.33,14.33,0,0,1,207.3,133a12.29,12.29,0,0,1,4.93,5.53l-6.51,2.69a6.53,6.53,0,0,0-2.36-3.11,5.94,5.94,0,0,0-3.31-.95,6.59,6.59,0,0,0-2.8.58,6.14,6.14,0,0,0-2.15,1.64,8,8,0,0,0-1.4,2.58,10.4,10.4,0,0,0-.51,3.36,10.67,10.67,0,0,0,.44,3.11,7.05,7.05,0,0,0,1.31,2.49,6,6,0,0,0,2.17,1.62,7.28,7.28,0,0,0,3,.58,8.41,8.41,0,0,0,2-.23,5.09,5.09,0,0,0,1.7-.73,4.13,4.13,0,0,0,1.24-1.32,5.16,5.16,0,0,0,.67-2h-5.64Z" transform="translate(-13.2 -5.69)"/><path class="cls-6" d="M169.65,145.13a13.85,13.85,0,0,1,1.08-5.48,13.57,13.57,0,0,1,7.61-7.38,16.75,16.75,0,0,1,11.78,0,13.92,13.92,0,0,1,4.64,3,13.88,13.88,0,0,1,0,19.81,13.89,13.89,0,0,1-4.64,3,16.75,16.75,0,0,1-11.78,0,13.62,13.62,0,0,1-8.69-12.86Zm7.17,0a7,7,0,0,0,.6,2.91,7.33,7.33,0,0,0,1.61,2.31,7.2,7.2,0,0,0,2.36,1.52,7.79,7.79,0,0,0,5.7,0,7.5,7.5,0,0,0,2.38-1.52A7.39,7.39,0,0,0,191.1,148a7,7,0,0,0,.6-2.91,6.94,6.94,0,0,0-.6-2.9,7.17,7.17,0,0,0-1.63-2.31,7.36,7.36,0,0,0-2.38-1.53,7.79,7.79,0,0,0-5.7,0,7.32,7.32,0,0,0-4,3.84A6.94,6.94,0,0,0,176.82,145.13Z" transform="translate(-13.2 -5.69)"/><path d="M171.6,131.94v20.58h8.23v5.81H164.74V131.94Z" transform="translate(-13.2 -5.69)"/><path class="cls-6" d="M147.52,131.94h10.22a7.84,7.84,0,0,1,5.53,1.75,6.51,6.51,0,0,1,1.89,5,6.77,6.77,0,0,1-.72,3.3,6,6,0,0,1-2.18,2.23,8.25,8.25,0,0,1,2.5.85,5.47,5.47,0,0,1,1.68,1.42,5.39,5.39,0,0,1,.93,1.89,9,9,0,0,1,.28,2.24A8,8,0,0,1,167,154a6.73,6.73,0,0,1-1.82,2.42,7.69,7.69,0,0,1-2.85,1.46,13.36,13.36,0,0,1-3.78.5h-11Zm6.86,10.36h1.26c2.15,0,3.22-.86,3.22-2.56s-1.07-2.55-3.22-2.55h-1.26Zm0,10.71h1.51a7.71,7.71,0,0,0,3.71-.67,2.59,2.59,0,0,0,0-4.27,7.73,7.73,0,0,0-3.71-.66h-1.51Z" transform="translate(-13.2 -5.69)"/><path class="cls-6" d="M158,212.83h-9.8l-1.58,4.59h-7.31l10-26.39h7.49l10.05,26.39h-7.32Zm-1.82-5.21-3.08-8.79-3.08,8.79Z" transform="translate(-13.2 -5.69)"/><path d="M135.89,202.65h13.62a36.63,36.63,0,0,1-.18,3.81,13.66,13.66,0,0,1-.7,3.19,12.65,12.65,0,0,1-2,3.66,11.71,11.71,0,0,1-3,2.66,13.87,13.87,0,0,1-3.73,1.62,15.72,15.72,0,0,1-4.27.56,15,15,0,0,1-5.62-1,12.74,12.74,0,0,1-4.35-2.85,13,13,0,0,1-2.84-4.41,15.32,15.32,0,0,1-1-5.69,15.59,15.59,0,0,1,1-5.65,12.46,12.46,0,0,1,2.84-4.4,12.9,12.9,0,0,1,4.43-2.83,15.6,15.6,0,0,1,5.77-1,14.35,14.35,0,0,1,7.25,1.79,12.35,12.35,0,0,1,4.93,5.53l-6.51,2.69a6.65,6.65,0,0,0-2.36-3.11,5.94,5.94,0,0,0-3.31-.95,6.71,6.71,0,0,0-2.8.58,6.11,6.11,0,0,0-2.15,1.65,7.84,7.84,0,0,0-1.4,2.57,10.4,10.4,0,0,0-.51,3.36,10.62,10.62,0,0,0,.44,3.11,7.05,7.05,0,0,0,1.31,2.49,6,6,0,0,0,2.17,1.63,7.41,7.41,0,0,0,3,.57,8.41,8.41,0,0,0,2-.22,5.11,5.11,0,0,0,1.7-.74,4.2,4.2,0,0,0,1.24-1.31,5.27,5.27,0,0,0,.67-2h-5.64Z" transform="translate(-13.2 -5.69)"/><path class="cls-6" d="M224.07,217.42h-8.54L209,207.27v10.15h-6.86V191H212.8a10.52,10.52,0,0,1,3.85.65A7.22,7.22,0,0,1,221,196a9.06,9.06,0,0,1,.54,3.15,7.75,7.75,0,0,1-1.45,4.89,7.29,7.29,0,0,1-4.29,2.53ZM209,202.82h1.3a5,5,0,0,0,3.11-.84,3.22,3.22,0,0,0,0-4.83,5,5,0,0,0-3.11-.84H209Z" transform="translate(-13.2 -5.69)"/><path d="M204.19,196.84H196v4.41h7.7v5.81H196v4.55h8.16v5.81h-15V191h15Z" transform="translate(-13.2 -5.69)"/><path class="cls-6" d="M182.42,191v20.58h8.22v5.81H175.56V191Z" transform="translate(-13.2 -5.69)"/><path d="M168.79,191v20.58H177v5.81H161.94V191Z" transform="translate(-13.2 -5.69)"/><path d="M225.05,204.75,215.42,191h8.19l4.9,7.21,4.87-7.21h8.19l-9.66,13.72v12.67h-6.86Z" transform="translate(-13.2 -5.69)"/><path class="cls-6" d="M172.48,255.78a8.41,8.41,0,0,0-2.24-1.34,6,6,0,0,0-2.17-.44,3.53,3.53,0,0,0-2.17.63,2,2,0,0,0-.84,1.64,1.64,1.64,0,0,0,.42,1.16,3.67,3.67,0,0,0,1.11.79,8.86,8.86,0,0,0,1.54.57c.57.17,1.13.34,1.69.53a10.61,10.61,0,0,1,4.92,3,7.38,7.38,0,0,1,1.56,4.88,9.61,9.61,0,0,1-.68,3.68,7.65,7.65,0,0,1-2,2.82,9.18,9.18,0,0,1-3.22,1.82,13.44,13.44,0,0,1-4.32.64,15.93,15.93,0,0,1-9.28-3l2.94-5.53a12,12,0,0,0,3,2,7.33,7.33,0,0,0,3,.66,3.54,3.54,0,0,0,2.51-.77,2.39,2.39,0,0,0,.61-2.78,2.26,2.26,0,0,0-.7-.8,5.41,5.41,0,0,0-1.28-.69c-.52-.21-1.16-.44-1.91-.7s-1.75-.58-2.6-.92a8.23,8.23,0,0,1-2.28-1.35,6.37,6.37,0,0,1-1.61-2.12,7.46,7.46,0,0,1-.61-3.24,9.2,9.2,0,0,1,.65-3.55,7.79,7.79,0,0,1,1.82-2.73,8,8,0,0,1,2.87-1.77,10.8,10.8,0,0,1,3.79-.63,16.78,16.78,0,0,1,4.1.55,17.88,17.88,0,0,1,4.09,1.59Z" transform="translate(-13.2 -5.69)"/><path d="M160.06,254.84H151.9v4.41h7.7v5.81h-7.7v4.55h8.16v5.81H145V249h15Z" transform="translate(-13.2 -5.69)"/><path class="cls-6" d="M149.17,275.42h-8.54l-6.54-10.15v10.15h-6.86V249H137.9a10.49,10.49,0,0,1,3.85.65,7.2,7.2,0,0,1,4.33,4.35,9.06,9.06,0,0,1,.54,3.15,7.81,7.81,0,0,1-1.45,4.89,7.29,7.29,0,0,1-4.29,2.53Zm-15.08-14.6h1.29a5,5,0,0,0,3.12-.84,3.24,3.24,0,0,0,0-4.83,5,5,0,0,0-3.12-.84h-1.29Z" transform="translate(-13.2 -5.69)"/><path d="M179.46,249v14.35c0,.77,0,1.56.09,2.36a6.29,6.29,0,0,0,.53,2.19,3.64,3.64,0,0,0,1.38,1.59,4.87,4.87,0,0,0,2.66.61,4.77,4.77,0,0,0,2.64-.61,3.78,3.78,0,0,0,1.38-1.59,6.09,6.09,0,0,0,.55-2.19c.05-.8.08-1.59.08-2.36V249h6.83v15.29q0,6.17-2.82,9t-8.66,2.83q-5.85,0-8.68-2.83t-2.84-9V249Z" transform="translate(-13.2 -5.69)"/><path d="M235.37,254.84h-8.16v4.41h7.7v5.81h-7.7v4.55h8.16v5.81h-15V249h15Z" transform="translate(-13.2 -5.69)"/><path class="cls-6" d="M190.94,275.42,195.42,249h6.79l5.28,14.07L212.74,249h6.79L224,275.42h-6.82l-2.28-15.19-6.23,15.19H206L200,260.23l-2.28,15.19Z" transform="translate(-13.2 -5.69)"/><path class="cls-6" d="M172.71,307.94v14.35c0,.77,0,1.55.09,2.36a6.29,6.29,0,0,0,.52,2.18,3.62,3.62,0,0,0,1.38,1.6,4.87,4.87,0,0,0,2.66.61,4.79,4.79,0,0,0,2.65-.61,3.88,3.88,0,0,0,1.38-1.6,6.29,6.29,0,0,0,.54-2.18c.06-.81.09-1.59.09-2.36V307.94h6.82v15.29c0,4.11-.94,7.1-2.81,9s-4.77,2.83-8.67,2.83-6.79-.94-8.68-2.83-2.83-4.89-2.83-9V307.94Z" transform="translate(-13.2 -5.69)"/><path d="M142.28,321.13a13.85,13.85,0,0,1,1.09-5.48,13.57,13.57,0,0,1,7.61-7.38,16.75,16.75,0,0,1,11.78,0,13.92,13.92,0,0,1,4.64,3,13.53,13.53,0,0,1,3,4.42,13.92,13.92,0,0,1-3,15.39,13.89,13.89,0,0,1-4.64,2.95A16.75,16.75,0,0,1,151,334a13.66,13.66,0,0,1-8.7-12.86Zm7.18,0a7.17,7.17,0,0,0,.59,2.91,7.67,7.67,0,0,0,1.61,2.31,7.35,7.35,0,0,0,2.37,1.52,7.64,7.64,0,0,0,8.08-1.52,7.39,7.39,0,0,0,1.63-2.31,7.17,7.17,0,0,0,.59-2.91,7.09,7.09,0,0,0-.59-2.9,7.17,7.17,0,0,0-1.63-2.31,7.36,7.36,0,0,0-2.38-1.53,7.79,7.79,0,0,0-5.7,0,7.21,7.21,0,0,0-2.37,1.53,7.43,7.43,0,0,0-1.61,2.31A7.09,7.09,0,0,0,149.46,321.13Z" transform="translate(-13.2 -5.69)"/><path class="cls-6" d="M129.46,307.94h10.22a7.84,7.84,0,0,1,5.53,1.75,6.51,6.51,0,0,1,1.89,5,6.89,6.89,0,0,1-.71,3.3,6.06,6.06,0,0,1-2.19,2.23,8.25,8.25,0,0,1,2.5.85,5.47,5.47,0,0,1,1.68,1.42,5.39,5.39,0,0,1,.93,1.89,8.54,8.54,0,0,1,.28,2.24,8,8,0,0,1-.65,3.29,6.73,6.73,0,0,1-1.82,2.42,7.69,7.69,0,0,1-2.85,1.46,13.36,13.36,0,0,1-3.78.5h-11Zm6.86,10.36h1.26c2.15,0,3.22-.86,3.22-2.56s-1.07-2.55-3.22-2.55h-1.26Zm0,10.71h1.51a7.68,7.68,0,0,0,3.71-.67,2.59,2.59,0,0,0,0-4.27,7.7,7.7,0,0,0-3.71-.66h-1.51Z" transform="translate(-13.2 -5.69)"/><path d="M124.56,329.74h-9.8l-1.57,4.59h-7.32l10-26.39h7.49l10,26.39h-7.31Zm-1.82-5.21-3.08-8.79-3.08,8.79Z" transform="translate(-13.2 -5.69)"/><path d="M196.38,313.75v20.58h-6.86V313.75h-5.63v-5.81H202v5.81Z" transform="translate(-13.2 -5.69)"/><path d="M247.2,313.75h-8.15v4.41h7.7V324h-7.7v4.55h8.15v5.81h-15V307.94h15Z" transform="translate(-13.2 -5.69)"/><path class="cls-6" d="M202.77,334.33l4.48-26.39H214L219.33,322l5.25-14.07h6.79l4.48,26.39H229l-2.27-15.19-6.23,15.19h-2.73l-5.92-15.19-2.27,15.19Z" transform="translate(-13.2 -5.69)"/></g></svg>