<?xml version="1.0" encoding="UTF-8" standalone="no"?>
<!DOCTYPE svg PUBLIC "-//W3C//DTD SVG 1.1//EN" "http://www.w3.org/Graphics/SVG/1.1/DTD/svg11.dtd">
<svg version="1.1" xmlns="http://www.w3.org/2000/svg" xmlns:xlink="http://www.w3.org/1999/xlink" preserveAspectRatio="xMidYMid meet" viewBox="0 0 640 640" width="640" height="640"><defs><path d="M527.93 384.15C481.39 496.5 352.4 549.94 240.04 503.4C127.69 456.86 74.26 327.86 120.8 215.51C167.34 103.16 296.33 49.73 408.68 96.26C521.04 142.8 574.47 271.8 527.93 384.15Z" id="e1BAGhMtoL"></path><path d="M405.9 117.9L408.5 121.1L410.96 124.4L413.3 127.79L415.49 131.26L417.55 134.81L419.47 138.43L421.26 142.11L422.89 145.87L424.39 149.68L425.74 153.55L426.94 157.46L427.99 161.43L428.89 165.43L429.63 169.48L430.22 173.55L430.66 177.66L430.93 181.79L431.05 185.93L431 190.1L430.78 194.27L430.4 198.45L429.85 202.63L429.13 206.8L428.24 210.97L427.17 215.13L425.93 219.27L424.51 223.38L422.91 227.48L421.15 231.5L419.24 235.42L417.19 239.22L415.01 242.91L412.69 246.49L410.25 249.95L407.68 253.3L404.99 256.52L402.2 259.62L399.29 262.6L396.28 265.45L393.16 268.18L389.95 270.78L386.65 273.24L383.27 275.57L379.8 277.77L376.25 279.83L372.63 281.75L368.95 283.53L365.19 285.17L361.38 286.67L357.51 288.01L353.59 289.22L349.63 290.27L345.62 291.17L341.58 291.91L337.5 292.5L333.4 292.93L329.27 293.21L327.08 293.27L325.58 291.68L322.85 288.57L320.26 285.36L317.79 282.06L315.46 278.67L313.26 275.2L311.2 271.66L309.28 268.04L307.5 264.35L305.86 260.6L304.37 256.78L303.02 252.92L301.82 249L300.77 245.03L299.87 241.03L299.12 236.98L298.53 232.91L298.1 228.8L297.82 224.67L297.71 220.53L297.76 216.37L297.97 212.19L298.36 208.01L298.9 203.84L299.62 199.66L300.52 195.49L301.58 191.33L302.82 187.19L304.24 183.08L305.84 178.98L307.6 174.96L309.51 171.04L311.56 167.24L313.75 163.55L316.06 159.97L318.51 156.51L321.08 153.16L323.76 149.94L326.56 146.84L329.47 143.86L332.48 141.01L335.59 138.28L338.8 135.69L342.1 133.22L345.49 130.89L348.96 128.69L352.5 126.63L356.12 124.71L359.81 122.93L363.56 121.29L367.38 119.8L371.24 118.45L375.16 117.25L379.13 116.2L383.13 115.3L387.17 114.55L391.25 113.96L395.36 113.53L399.48 113.25L401.67 113.19L403.18 114.78L405.9 117.9Z" id="a2SWkmWXQ1"></path><path d="M331.31 297.97L333.91 301.18L336.37 304.48L338.71 307.87L340.9 311.33L342.96 314.88L344.89 318.5L346.67 322.19L348.31 325.94L349.8 329.75L351.15 333.62L352.35 337.54L353.4 341.5L354.3 345.51L355.04 349.55L355.64 353.63L356.07 357.73L356.34 361.86L356.46 366.01L356.41 370.17L356.19 374.34L355.81 378.52L355.26 382.7L354.54 386.88L353.65 391.05L352.58 395.2L351.34 399.34L349.92 403.46L348.32 407.55L346.56 411.58L344.65 415.49L342.6 419.3L340.42 422.99L338.1 426.57L335.66 430.03L333.09 433.37L330.41 436.6L327.61 439.7L324.7 442.68L321.69 445.53L318.57 448.26L315.36 450.85L312.06 453.32L308.68 455.65L305.21 457.84L301.66 459.91L298.04 461.83L294.36 463.61L290.6 465.25L286.79 466.74L282.92 468.09L279.01 469.29L275.04 470.34L271.03 471.24L266.99 471.99L262.92 472.58L258.81 473.01L254.68 473.28L252.49 473.34L250.99 471.75L248.26 468.64L245.67 465.43L243.2 462.13L240.87 458.75L238.67 455.28L236.61 451.73L234.69 448.11L232.91 444.42L231.27 440.67L229.78 436.86L228.43 432.99L227.23 429.07L226.18 425.11L225.28 421.1L224.53 417.06L223.94 412.98L223.51 408.88L223.23 404.75L223.12 400.6L223.17 396.44L223.38 392.27L223.77 388.09L224.32 383.91L225.03 379.73L225.93 375.57L226.99 371.41L228.23 367.27L229.65 363.15L231.25 359.06L233.02 355.03L234.92 351.12L236.97 347.31L239.16 343.62L241.48 340.04L243.92 336.58L246.49 333.24L249.17 330.01L251.97 326.91L254.88 323.93L257.89 321.08L261 318.36L264.21 315.76L267.51 313.3L270.9 310.96L274.37 308.77L277.91 306.71L281.53 304.78L285.22 303L288.97 301.37L292.79 299.87L296.65 298.52L300.57 297.32L304.54 296.27L308.54 295.37L312.58 294.63L316.66 294.04L320.77 293.6L324.89 293.33L327.08 293.27L328.59 294.86L331.31 297.97Z" id="b1GFaXCl8"></path><path d="M408.16 264.16L412.34 264.54L416.52 265.09L420.69 265.81L424.86 266.7L429.02 267.77L433.16 269.01L437.27 270.43L441.37 272.03L445.39 273.79L449.31 275.7L453.11 277.75L456.8 279.93L460.38 282.25L463.84 284.69L467.19 287.26L470.41 289.95L473.51 292.74L476.49 295.65L479.34 298.67L482.07 301.78L484.67 304.99L487.13 308.29L489.46 311.67L491.66 315.14L493.72 318.69L495.64 322.31L497.42 326L499.06 329.75L500.56 333.56L501.9 337.43L503.11 341.35L504.16 345.31L505.06 349.32L505.8 353.36L506.39 357.44L506.82 361.54L507.1 365.67L507.16 367.86L505.57 369.36L502.46 372.09L499.25 374.69L495.95 377.15L492.56 379.48L489.09 381.68L485.55 383.74L481.93 385.66L478.24 387.44L474.49 389.08L470.67 390.57L466.81 391.92L462.89 393.12L458.92 394.17L454.92 395.07L450.87 395.82L446.8 396.41L442.69 396.84L438.56 397.12L434.42 397.23L430.26 397.18L426.08 396.97L421.9 396.59L417.73 396.04L413.55 395.32L409.38 394.42L405.22 393.36L401.08 392.12L396.97 390.7L392.87 389.1L388.85 387.34L384.93 385.43L381.13 383.38L377.44 381.19L373.86 378.88L370.4 376.43L367.05 373.87L363.83 371.18L360.73 368.38L357.75 365.47L354.9 362.46L352.17 359.35L349.58 356.14L347.11 352.84L344.78 349.45L342.58 345.98L340.52 342.44L338.6 338.82L336.82 335.13L335.18 331.38L333.69 327.57L332.34 323.7L331.14 319.78L330.09 315.82L329.19 311.81L328.44 307.77L327.85 303.69L327.42 299.59L327.14 295.46L327.08 293.27L328.67 291.76L331.79 289.04L334.99 286.44L338.29 283.98L341.68 281.64L345.15 279.45L348.7 277.39L352.32 275.47L356 273.68L359.76 272.05L363.57 270.55L367.44 269.2L371.35 268L375.32 266.95L379.32 266.05L383.37 265.31L387.44 264.72L391.55 264.28L395.68 264.01L399.82 263.9L403.99 263.95L408.16 264.16Z" id="b1GWSp6fZI"></path><path d="M228.08 189.57L232.26 189.95L236.44 190.5L240.62 191.22L244.79 192.11L248.94 193.18L253.08 194.42L257.2 195.84L261.29 197.44L265.32 199.2L269.23 201.11L273.04 203.16L276.73 205.34L280.31 207.66L283.77 210.1L287.11 212.67L290.34 215.36L293.44 218.16L296.42 221.06L299.27 224.08L301.99 227.19L304.59 230.4L307.06 233.7L309.39 237.08L311.58 240.55L313.64 244.1L315.57 247.72L317.35 251.41L318.99 255.16L320.48 258.97L321.83 262.84L323.03 266.76L324.08 270.72L324.98 274.73L325.73 278.77L326.32 282.85L326.75 286.95L327.02 291.08L327.08 293.27L325.49 294.77L322.38 297.5L319.17 300.1L315.87 302.56L312.49 304.89L309.02 307.09L305.47 309.15L301.85 311.07L298.16 312.85L294.41 314.49L290.6 315.99L286.73 317.33L282.81 318.53L278.85 319.59L274.84 320.48L270.8 321.23L266.72 321.82L262.62 322.25L258.49 322.53L254.34 322.64L250.18 322.59L246.01 322.38L241.83 322L237.65 321.45L233.47 320.73L229.31 319.84L225.15 318.77L221.01 317.53L216.89 316.11L212.8 314.51L208.77 312.75L204.86 310.84L201.05 308.79L197.36 306.6L193.78 304.29L190.32 301.84L186.98 299.28L183.75 296.59L180.65 293.79L177.67 290.88L174.82 287.87L172.1 284.76L169.5 281.55L167.04 278.25L164.7 274.86L162.51 271.4L160.45 267.85L158.52 264.23L156.74 260.54L155.1 256.79L153.61 252.98L152.26 249.11L151.06 245.19L150.01 241.23L149.11 237.22L148.36 233.18L147.77 229.1L147.34 225L147.07 220.87L147.01 218.68L148.6 217.17L151.71 214.45L154.92 211.85L158.22 209.39L161.61 207.06L165.07 204.86L168.62 202.8L172.24 200.88L175.93 199.1L179.68 197.46L183.49 195.96L187.36 194.61L191.28 193.41L195.24 192.36L199.25 191.46L203.29 190.72L207.37 190.13L211.47 189.69L215.6 189.42L219.75 189.31L223.91 189.36L228.08 189.57Z" id="aRTN9tiXL"></path><path d="M333.48 293.4L337.59 293.83L341.66 294.42L345.71 295.17L349.71 296.07L353.68 297.12L357.6 298.32L361.46 299.67L365.28 301.16L369.03 302.8L372.72 304.58L376.34 306.51L379.88 308.57L383.35 310.76L386.74 313.09L390.04 315.56L393.25 318.15L396.36 320.88L399.37 323.73L402.28 326.71L405.08 329.81L407.76 333.04L410.33 336.38L412.77 339.84L415.09 343.42L417.28 347.11L419.33 350.92L421.23 354.83L423 358.86L424.6 362.95L426.02 367.07L427.26 371.21L428.32 375.36L429.21 379.53L429.93 383.71L430.48 387.89L430.86 392.07L431.08 396.24L431.13 400.4L431.02 404.55L430.74 408.68L430.31 412.78L429.72 416.86L428.97 420.9L428.07 424.91L427.02 428.87L425.82 432.79L424.47 436.66L422.98 440.47L421.34 444.22L419.56 447.91L417.64 451.53L415.58 455.08L413.38 458.54L411.05 461.93L408.58 465.23L405.99 468.44L403.26 471.55L401.76 473.14L399.57 473.08L395.44 472.81L391.33 472.38L387.26 471.78L383.21 471.04L379.21 470.14L375.24 469.09L371.33 467.89L367.46 466.54L363.65 465.05L359.89 463.41L356.21 461.63L352.59 459.7L349.04 457.64L345.57 455.45L342.18 453.11L338.89 450.65L335.68 448.05L332.56 445.33L329.55 442.48L326.64 439.5L323.84 436.4L321.16 433.17L318.59 429.83L316.15 426.37L313.83 422.79L311.65 419.1L309.6 415.29L307.69 411.38L305.92 407.35L304.33 403.26L302.91 399.14L301.67 395L300.6 390.84L299.71 386.68L298.99 382.5L298.44 378.32L298.06 374.14L297.84 369.97L297.79 365.81L297.91 361.66L298.18 357.53L298.61 353.43L299.2 349.35L299.95 345.31L300.85 341.3L301.9 337.34L303.1 333.42L304.45 329.55L305.94 325.74L307.58 321.99L309.36 318.3L311.29 314.68L313.35 311.13L315.54 307.66L317.87 304.28L320.34 300.98L322.94 297.77L325.66 294.66L327.17 293.07L329.36 293.13L333.48 293.4Z" id="k2dW2sZLKY"></path><path d="M258.81 113.53L262.92 113.96L266.99 114.55L271.03 115.3L275.04 116.2L279.01 117.25L282.92 118.45L286.79 119.8L290.6 121.29L294.36 122.93L298.04 124.71L301.66 126.63L305.21 128.69L308.68 130.89L312.06 133.22L315.36 135.69L318.57 138.28L321.69 141.01L324.7 143.86L327.61 146.84L330.41 149.94L333.09 153.16L335.66 156.51L338.1 159.97L340.42 163.55L342.6 167.24L344.65 171.04L346.56 174.96L348.32 178.98L349.92 183.08L351.34 187.2L352.58 191.33L353.65 195.49L354.54 199.66L355.26 203.84L355.81 208.02L356.19 212.19L356.41 216.37L356.46 220.53L356.34 224.68L356.07 228.8L355.64 232.91L355.04 236.98L354.3 241.03L353.4 245.03L352.35 249L351.15 252.92L349.8 256.78L348.31 260.6L346.67 264.35L344.89 268.04L342.96 271.66L340.9 275.2L338.71 278.67L336.37 282.06L333.91 285.36L331.31 288.57L328.59 291.68L327.08 293.27L324.89 293.21L320.77 292.93L316.66 292.5L312.59 291.91L308.54 291.17L304.54 290.27L300.57 289.22L296.65 288.01L292.79 286.67L288.97 285.17L285.22 283.53L281.53 281.75L277.91 279.83L274.37 277.77L270.9 275.57L267.51 273.24L264.21 270.78L261 268.18L257.89 265.46L254.88 262.6L251.97 259.62L249.17 256.52L246.49 253.3L243.92 249.96L241.48 246.49L239.16 242.92L236.97 239.22L234.92 235.42L233.02 231.5L231.25 227.48L229.65 223.39L228.23 219.27L226.99 215.13L225.93 210.97L225.03 206.8L224.32 202.63L223.77 198.45L223.38 194.27L223.17 190.1L223.12 185.93L223.23 181.79L223.51 177.66L223.94 173.55L224.53 169.48L225.28 165.43L226.18 161.43L227.23 157.46L228.43 153.55L229.78 149.68L231.27 145.87L232.91 142.11L234.69 138.43L236.61 134.81L238.67 131.26L240.87 127.79L243.2 124.4L245.67 121.11L248.26 117.9L250.99 114.78L252.49 113.19L254.68 113.25L258.81 113.53Z" id="b1BzuWnYlW"></path><path d="M262.19 263.87L266.29 264.3L270.37 264.89L274.41 265.64L278.42 266.54L282.38 267.59L286.3 268.79L290.17 270.14L293.98 271.63L297.73 273.27L301.42 275.05L305.04 276.97L308.59 279.03L312.06 281.23L315.44 283.56L318.74 286.03L321.95 288.62L325.07 291.35L326.66 292.86L326.6 295.04L326.32 299.17L325.89 303.28L325.3 307.35L324.55 311.4L323.65 315.4L322.6 319.37L321.4 323.29L320.05 327.15L318.56 330.96L316.92 334.72L315.14 338.41L313.22 342.03L311.16 345.57L308.96 349.04L306.63 352.43L304.16 355.73L301.57 358.93L298.84 362.05L295.99 365.06L293.01 367.97L289.91 370.77L286.69 373.45L283.34 376.02L279.88 378.46L276.3 380.78L272.61 382.97L268.8 385.01L264.89 386.92L260.86 388.69L256.77 390.29L252.65 391.7L248.51 392.95L244.36 394.01L240.19 394.9L236.01 395.62L231.83 396.17L227.66 396.55L223.48 396.77L219.32 396.82L215.17 396.7L211.05 396.43L206.94 396L202.87 395.41L198.82 394.66L194.82 393.76L190.85 392.71L186.93 391.51L183.07 390.16L179.25 388.67L175.5 387.03L171.81 385.25L168.19 383.33L164.65 381.27L161.18 379.07L157.79 376.74L154.49 374.27L151.28 371.68L148.17 368.95L146.58 367.45L146.64 365.26L146.91 361.13L147.35 357.02L147.94 352.95L148.68 348.9L149.58 344.9L150.63 340.93L151.83 337.01L153.18 333.15L154.68 329.34L156.32 325.58L158.1 321.89L160.02 318.27L162.08 314.73L164.28 311.26L166.61 307.87L169.07 304.57L171.67 301.37L174.39 298.25L177.25 295.24L180.22 292.33L183.33 289.53L186.55 286.85L189.89 284.28L193.36 281.84L196.93 279.52L200.63 277.33L204.43 275.29L208.35 273.38L212.37 271.61L216.46 270.01L220.58 268.6L224.72 267.35L228.88 266.29L233.05 265.4L237.22 264.68L241.4 264.13L245.58 263.75L249.75 263.53L253.91 263.48L258.06 263.6L262.19 263.87Z" id="cbbiC4QTO"></path><path d="M442.69 189.69L446.8 190.13L450.87 190.72L454.92 191.46L458.92 192.36L462.89 193.41L466.81 194.61L470.67 195.96L474.49 197.46L478.24 199.1L481.93 200.88L485.55 202.8L489.09 204.86L492.56 207.06L495.95 209.39L499.25 211.85L502.46 214.45L505.57 217.17L507.16 218.68L507.1 220.87L506.82 225L506.39 229.1L505.8 233.18L505.06 237.22L504.16 241.23L503.11 245.19L501.9 249.11L500.56 252.98L499.06 256.79L497.42 260.54L495.64 264.23L493.72 267.85L491.66 271.4L489.46 274.86L487.13 278.25L484.67 281.55L482.07 284.76L479.34 287.87L476.49 290.88L473.51 293.79L470.41 296.59L467.19 299.28L463.84 301.84L460.38 304.29L456.8 306.6L453.11 308.79L449.31 310.84L445.39 312.75L441.37 314.51L437.27 316.11L433.16 317.53L429.02 318.77L424.86 319.84L420.69 320.73L416.52 321.45L412.34 322L408.16 322.38L403.99 322.59L399.82 322.64L395.68 322.53L391.55 322.25L387.44 321.82L383.37 321.23L379.32 320.48L375.32 319.59L371.35 318.53L367.44 317.33L363.57 315.99L359.76 314.49L356 312.85L352.32 311.07L348.7 309.15L345.15 307.09L341.68 304.89L338.29 302.56L334.99 300.1L331.79 297.5L328.67 294.77L327.08 293.27L327.14 291.08L327.42 286.95L327.85 282.85L328.44 278.77L329.19 274.73L330.09 270.72L331.14 266.76L332.34 262.84L333.69 258.97L335.18 255.16L336.82 251.41L338.6 247.72L340.52 244.1L342.58 240.55L344.78 237.08L347.11 233.7L349.58 230.4L352.17 227.19L354.9 224.08L357.75 221.06L360.73 218.16L363.83 215.36L367.05 212.67L370.4 210.1L373.86 207.66L377.44 205.34L381.13 203.16L384.93 201.11L388.85 199.2L392.87 197.44L396.97 195.84L401.08 194.42L405.22 193.18L409.38 192.11L413.55 191.22L417.73 190.5L421.9 189.95L426.08 189.57L430.26 189.36L434.42 189.31L438.56 189.42L442.69 189.69Z" id="cgOlCWxxr"></path></defs><g><g><g><use xlink:href="#e1BAGhMtoL" opacity="1" fill="#000000" fill-opacity="1"></use></g><g><use xlink:href="#a2SWkmWXQ1" opacity="1" fill="#fcdc00" fill-opacity="0.67"></use></g><g><use xlink:href="#b1GFaXCl8" opacity="1" fill="#a300fc" fill-opacity="0.67"></use></g><g><use xlink:href="#b1GWSp6fZI" opacity="1" fill="#00d2fc" fill-opacity="0.67"></use></g><g><use xlink:href="#aRTN9tiXL" opacity="1" fill="#fc0000" fill-opacity="0.67"></use></g><g><use xlink:href="#k2dW2sZLKY" opacity="1" fill="#0070fc" fill-opacity="0.67"></use></g><g><use xlink:href="#b1BzuWnYlW" opacity="1" fill="#fc8c00" fill-opacity="0.67"></use></g><g><use xlink:href="#cbbiC4QTO" opacity="1" fill="#e200fc" fill-opacity="0.67"></use></g><g><use xlink:href="#cgOlCWxxr" opacity="1" fill="#b2fc00" fill-opacity="0.67"></use></g></g></g></svg>