<?xml version="1.0" encoding="UTF-8" standalone="no"?>
<!DOCTYPE svg PUBLIC "-//W3C//DTD SVG 1.1//EN" "http://www.w3.org/Graphics/SVG/1.1/DTD/svg11.dtd">
<svg version="1.1" xmlns="http://www.w3.org/2000/svg" xmlns:xlink="http://www.w3.org/1999/xlink" preserveAspectRatio="xMidYMid meet" viewBox="0 0 200 200" width="200" height="200"><defs><path d="M65.91 7.49L68 7.62L70.08 7.83L72.14 8.11L74.19 8.48L76.21 8.92L78.22 9.44L80.2 10.04L82.15 10.7L84.08 11.45L85.97 12.26L87.84 13.15L89.67 14.1L91.46 15.13L93.21 16.22L94.92 17.39L96.58 18.62L98.2 19.91L99.77 21.27L101.29 22.7L102.76 24.19L104.17 25.74L105.52 27.35L106.81 29.02L108.04 30.75L109.21 32.55L110.3 34.39L111.33 36.3L112.29 38.26L113.17 40.28L113.98 42.33L114.68 44.39L115.3 46.47L115.83 48.55L116.28 50.64L116.63 52.73L116.9 54.83L117.08 56.93L117.18 59.02L117.2 61.11L117.13 63.19L116.99 65.26L116.76 67.32L116.45 69.37L116.06 71.4L115.6 73.41L115.06 75.41L114.44 77.38L113.75 79.32L112.99 81.24L112.15 83.12L111.24 84.98L110.26 86.8L109.21 88.58L108.09 90.33L106.9 92.03L105.65 93.7L104.32 95.31L102.94 96.88L101.49 98.4L99.97 99.86L99.97 99.86L97.87 99.9L95.77 99.85L93.68 99.72L91.6 99.51L89.54 99.23L87.49 98.86L85.47 98.42L83.46 97.9L81.48 97.3L79.53 96.64L77.6 95.89L75.7 95.08L73.84 94.19L72.01 93.24L70.22 92.21L68.47 91.12L66.76 89.95L65.09 88.72L63.48 87.43L61.91 86.07L60.39 84.64L58.92 83.15L57.51 81.6L56.16 79.99L54.87 78.32L53.64 76.59L52.47 74.79L51.37 72.95L50.34 71.04L49.39 69.08L48.5 67.06L47.7 65.01L46.99 62.95L46.37 60.87L45.84 58.79L45.4 56.7L45.05 54.61L44.78 52.51L44.59 50.41L44.49 48.32L44.48 46.23L44.54 44.15L44.69 42.08L44.92 40.02L45.23 37.97L45.61 35.94L46.08 33.93L46.62 31.93L47.23 29.96L47.93 28.02L48.69 26.1L49.53 24.22L50.44 22.36L51.42 20.54L52.47 18.76L53.59 17.01L54.78 15.31L56.03 13.64L57.35 12.03L58.74 10.46L60.19 8.94L61.7 7.48L61.7 7.48L63.81 7.44L65.91 7.49Z" id="adRA6u3Lg"></path><path d="M104.18 99.88L106.27 100.01L108.35 100.21L110.41 100.5L112.45 100.87L114.48 101.31L116.48 101.83L118.47 102.42L120.42 103.09L122.35 103.83L124.24 104.65L126.11 105.53L127.93 106.49L129.73 107.52L131.48 108.61L133.19 109.77L134.85 111L136.47 112.3L138.04 113.66L139.56 115.09L141.02 116.57L142.43 118.13L143.79 119.74L145.08 121.41L146.31 123.14L147.47 124.93L148.57 126.78L149.6 128.69L150.56 130.65L151.44 132.66L152.24 134.71L152.95 136.78L153.57 138.85L154.1 140.94L154.55 143.03L154.9 145.12L155.17 147.22L155.35 149.31L155.45 151.41L155.47 153.5L155.4 155.58L155.25 157.65L155.03 159.71L154.72 161.76L154.33 163.79L153.87 165.8L153.33 167.79L152.71 169.76L152.02 171.71L151.26 173.62L150.42 175.51L149.51 177.37L148.53 179.19L147.48 180.97L146.36 182.72L145.17 184.42L143.91 186.08L142.59 187.7L141.21 189.27L139.76 190.79L138.24 192.25L138.24 192.25L136.13 192.29L134.03 192.24L131.95 192.11L129.87 191.9L127.81 191.61L125.76 191.25L123.73 190.81L121.73 190.29L119.75 189.69L117.79 189.02L115.87 188.28L113.97 187.47L112.11 186.58L110.28 185.63L108.49 184.6L106.74 183.5L105.03 182.34L103.36 181.11L101.74 179.82L100.17 178.45L98.66 177.03L97.19 175.54L95.78 173.99L94.43 172.38L93.14 170.71L91.91 168.97L90.74 167.18L89.64 165.33L88.61 163.43L87.66 161.47L86.77 159.45L85.97 157.4L85.26 155.34L84.64 153.26L84.11 151.18L83.67 149.09L83.31 146.99L83.04 144.9L82.86 142.8L82.76 140.71L82.75 138.62L82.81 136.54L82.96 134.46L83.19 132.4L83.5 130.36L83.88 128.33L84.35 126.31L84.89 124.32L85.5 122.35L86.19 120.41L86.96 118.49L87.8 116.6L88.71 114.75L89.69 112.93L90.74 111.14L91.86 109.4L93.05 107.69L94.3 106.03L95.62 104.42L97.01 102.85L98.46 101.33L99.97 99.86L99.97 99.86L102.08 99.83L104.18 99.88Z" id="e6oY493mDw"></path><path d="M141.21 10.46L142.59 12.03L143.91 13.64L145.17 15.31L146.36 17.01L147.48 18.76L148.53 20.54L149.51 22.36L150.42 24.22L151.26 26.1L152.02 28.02L152.71 29.96L153.33 31.93L153.87 33.93L154.33 35.94L154.72 37.97L155.03 40.02L155.25 42.08L155.4 44.15L155.47 46.23L155.45 48.32L155.35 50.41L155.17 52.51L154.9 54.61L154.55 56.7L154.1 58.79L153.57 60.87L152.95 62.95L152.24 65.01L151.44 67.06L150.56 69.08L149.6 71.04L148.57 72.95L147.47 74.79L146.31 76.59L145.08 78.32L143.79 79.99L142.43 81.6L141.02 83.15L139.56 84.64L138.04 86.07L136.47 87.43L134.85 88.72L133.19 89.95L131.48 91.12L129.73 92.21L127.93 93.24L126.11 94.19L124.24 95.08L122.35 95.89L120.42 96.64L118.47 97.3L116.48 97.9L114.48 98.42L112.45 98.86L110.41 99.23L108.35 99.51L106.27 99.72L104.18 99.85L102.08 99.9L99.97 99.86L99.97 99.86L98.46 98.4L97.01 96.88L95.62 95.31L94.3 93.7L93.05 92.03L91.86 90.33L90.74 88.58L89.69 86.8L88.71 84.98L87.8 83.12L86.96 81.24L86.19 79.32L85.5 77.38L84.89 75.41L84.35 73.41L83.88 71.4L83.5 69.37L83.19 67.32L82.96 65.26L82.81 63.19L82.75 61.11L82.76 59.02L82.86 56.93L83.04 54.83L83.31 52.73L83.67 50.64L84.11 48.55L84.64 46.47L85.26 44.39L85.97 42.33L86.77 40.28L87.66 38.26L88.61 36.3L89.64 34.39L90.74 32.55L91.91 30.75L93.14 29.02L94.43 27.35L95.78 25.74L97.19 24.19L98.66 22.7L100.17 21.27L101.74 19.91L103.36 18.62L105.03 17.39L106.74 16.22L108.49 15.13L110.28 14.1L112.11 13.15L113.97 12.26L115.87 11.45L117.79 10.7L119.75 10.04L121.73 9.44L123.73 8.92L125.76 8.48L127.81 8.11L129.87 7.83L131.95 7.62L134.03 7.49L136.13 7.44L138.24 7.48L138.24 7.48L139.76 8.94L141.21 10.46Z" id="biDnf20UX"></path><path d="M102.94 102.85L104.32 104.42L105.65 106.03L106.9 107.69L108.09 109.4L109.21 111.14L110.26 112.93L111.24 114.75L112.15 116.6L112.99 118.49L113.75 120.41L114.44 122.35L115.06 124.32L115.6 126.31L116.06 128.33L116.45 130.36L116.76 132.4L116.99 134.46L117.13 136.54L117.2 138.62L117.18 140.71L117.08 142.8L116.9 144.9L116.63 146.99L116.28 149.09L115.83 151.18L115.3 153.26L114.68 155.34L113.98 157.4L113.17 159.45L112.29 161.47L111.33 163.43L110.3 165.33L109.21 167.18L108.04 168.97L106.81 170.71L105.52 172.38L104.17 173.99L102.76 175.54L101.29 177.03L99.77 178.45L98.2 179.82L96.58 181.11L94.92 182.34L93.21 183.5L91.46 184.6L89.67 185.63L87.84 186.58L85.97 187.47L84.08 188.28L82.15 189.02L80.2 189.69L78.22 190.29L76.21 190.81L74.19 191.25L72.14 191.61L70.08 191.9L68 192.11L65.91 192.24L63.81 192.29L61.7 192.25L61.7 192.25L60.19 190.79L58.74 189.27L57.35 187.7L56.03 186.08L54.78 184.42L53.59 182.72L52.47 180.97L51.42 179.19L50.44 177.37L49.53 175.51L48.69 173.62L47.93 171.71L47.23 169.76L46.62 167.79L46.08 165.8L45.61 163.79L45.23 161.76L44.92 159.71L44.69 157.65L44.54 155.58L44.48 153.5L44.49 151.41L44.59 149.31L44.78 147.22L45.05 145.12L45.4 143.03L45.84 140.94L46.37 138.85L46.99 136.78L47.7 134.71L48.5 132.66L49.39 130.65L50.34 128.69L51.37 126.78L52.47 124.93L53.64 123.14L54.87 121.41L56.16 119.74L57.51 118.13L58.92 116.57L60.39 115.09L61.91 113.66L63.48 112.3L65.09 111L66.76 109.77L68.47 108.61L70.22 107.52L72.01 106.49L73.84 105.53L75.7 104.65L77.6 103.83L79.53 103.09L81.48 102.42L83.46 101.83L85.47 101.31L87.49 100.87L89.54 100.5L91.6 100.21L93.68 100.01L95.77 99.88L97.87 99.83L99.97 99.86L99.97 99.86L101.49 101.33L102.94 102.85Z" id="a8EclFcJo"></path><path d="M157.43 44.72L159.49 44.95L161.54 45.25L163.57 45.64L165.58 46.1L167.58 46.65L169.54 47.26L171.49 47.95L173.41 48.72L175.29 49.56L177.15 50.47L178.97 51.45L180.75 52.5L182.5 53.62L184.2 54.8L185.86 56.06L187.48 57.38L189.05 58.77L190.57 60.22L192.03 61.73L192.03 61.73L192.07 63.84L192.02 65.94L191.89 68.03L191.68 70.1L191.39 72.17L191.03 74.21L190.59 76.24L190.07 78.24L189.47 80.22L188.81 82.18L188.06 84.11L187.25 86L186.36 87.87L185.41 89.69L184.38 91.48L183.29 93.24L182.12 94.94L180.89 96.61L179.6 98.23L178.24 99.8L176.81 101.32L175.32 102.78L173.77 104.19L172.16 105.55L170.49 106.84L168.75 108.07L166.96 109.23L165.11 110.33L163.21 111.36L161.25 112.32L159.23 113.2L157.18 114L155.12 114.71L153.04 115.33L150.96 115.86L148.87 116.3L146.77 116.66L144.68 116.93L142.58 117.11L140.49 117.21L138.4 117.23L136.32 117.16L134.25 117.01L132.18 116.79L130.14 116.48L128.11 116.09L126.09 115.63L124.1 115.09L122.13 114.47L120.19 113.78L118.27 113.01L116.39 112.18L114.53 111.27L112.71 110.29L110.93 109.24L109.18 108.12L107.47 106.93L105.81 105.67L104.2 104.35L102.63 102.96L101.11 101.51L99.64 100L99.64 100L99.61 97.89L99.66 95.79L99.79 93.7L100 91.63L100.28 89.56L100.65 87.52L101.09 85.49L101.61 83.49L102.2 81.51L102.87 79.55L103.61 77.63L104.43 75.73L105.31 73.87L106.27 72.04L107.3 70.25L108.39 68.5L109.56 66.79L110.78 65.12L112.08 63.5L113.44 61.93L114.87 60.41L116.36 58.95L117.91 57.54L119.52 56.19L121.19 54.89L122.92 53.66L124.71 52.5L126.56 51.4L128.47 50.37L130.43 49.41L132.44 48.53L134.5 47.73L136.56 47.02L138.63 46.4L140.72 45.87L142.81 45.43L144.9 45.07L147 44.8L149.09 44.62L151.19 44.52L153.28 44.5L155.36 44.57L157.43 44.72Z" id="dlwO24lj7"></path><path d="M99.63 104.21L99.5 106.3L99.29 108.37L99.01 110.44L98.64 112.48L98.2 114.51L97.68 116.51L97.09 118.49L96.42 120.45L95.68 122.37L94.86 124.27L93.98 126.13L93.02 127.96L91.99 129.75L90.9 131.5L89.73 133.21L88.5 134.88L87.21 136.5L85.85 138.07L84.42 139.59L82.93 141.05L81.38 142.46L79.77 143.81L78.1 145.11L76.37 146.34L74.58 147.5L72.73 148.6L70.82 149.63L68.86 150.59L66.84 151.47L64.79 152.27L62.73 152.98L60.66 153.6L58.57 154.13L56.48 154.57L54.39 154.93L52.29 155.2L50.19 155.38L48.1 155.48L46.01 155.5L43.93 155.43L41.86 155.28L39.8 155.05L37.75 154.75L35.72 154.36L33.71 153.9L31.71 153.35L29.74 152.74L27.8 152.05L25.88 151.28L24 150.44L22.14 149.53L20.32 148.55L18.54 147.5L16.79 146.38L15.09 145.2L13.43 143.94L11.81 142.62L10.24 141.23L8.72 139.78L7.26 138.27L7.26 138.27L7.22 136.16L7.27 134.06L7.4 131.97L7.61 129.9L7.89 127.83L8.26 125.79L8.7 123.76L9.22 121.76L9.82 119.78L10.48 117.82L11.23 115.89L12.04 114L12.93 112.13L13.88 110.31L14.91 108.52L16 106.76L17.17 105.06L18.4 103.39L19.69 101.77L21.05 100.2L22.48 98.68L23.97 97.22L25.52 95.81L27.13 94.45L28.8 93.16L30.54 91.93L32.33 90.77L34.17 89.67L36.08 88.64L38.04 87.68L40.06 86.8L42.11 86L44.17 85.29L46.25 84.67L48.33 84.14L50.42 83.7L52.51 83.34L54.61 83.07L56.71 82.89L58.8 82.79L60.89 82.77L62.97 82.84L65.04 82.99L67.1 83.21L69.15 83.52L71.18 83.91L73.2 84.37L75.19 84.91L77.16 85.53L79.1 86.22L81.02 86.99L82.9 87.82L84.76 88.73L86.58 89.71L88.36 90.76L90.11 91.88L91.81 93.07L93.48 94.33L95.09 95.65L96.66 97.04L98.18 98.49L99.64 100L99.64 100L99.68 102.11L99.63 104.21Z" id="b5sEFaM4Pt"></path><path d="M102.63 97.04L104.2 95.65L105.81 94.33L107.47 93.07L109.18 91.88L110.93 90.76L112.71 89.71L114.53 88.73L116.39 87.82L118.27 86.99L120.19 86.22L122.13 85.53L124.1 84.91L126.09 84.37L128.11 83.91L130.14 83.52L132.18 83.21L134.25 82.99L136.32 82.84L138.4 82.77L140.49 82.79L142.58 82.89L144.68 83.07L146.77 83.34L148.87 83.7L150.96 84.14L153.04 84.67L155.12 85.29L157.18 86L159.23 86.8L161.25 87.68L163.21 88.64L165.11 89.67L166.96 90.77L168.75 91.93L170.49 93.16L172.16 94.45L173.77 95.81L175.32 97.22L176.81 98.68L178.24 100.2L179.6 101.77L180.89 103.39L182.12 105.06L183.29 106.76L184.38 108.52L185.41 110.31L186.36 112.13L187.25 114L188.06 115.89L188.81 117.82L189.47 119.78L190.07 121.76L190.59 123.76L191.03 125.79L191.39 127.83L191.68 129.9L191.89 131.97L192.02 134.06L192.07 136.16L192.03 138.27L192.03 138.27L190.57 139.78L189.05 141.23L187.48 142.62L185.86 143.94L184.2 145.2L182.5 146.38L180.75 147.5L178.97 148.55L177.15 149.53L175.29 150.44L173.41 151.28L171.49 152.05L169.54 152.74L167.58 153.35L165.58 153.9L163.57 154.36L161.54 154.75L159.49 155.05L157.43 155.28L155.36 155.43L153.28 155.5L151.19 155.48L149.09 155.38L147 155.2L144.9 154.93L142.81 154.57L140.72 154.13L138.63 153.6L136.56 152.98L134.5 152.27L132.44 151.47L130.43 150.59L128.47 149.63L126.56 148.6L124.71 147.5L122.92 146.34L121.19 145.11L119.52 143.81L117.91 142.46L116.36 141.05L114.87 139.59L113.44 138.07L112.08 136.5L110.78 134.88L109.56 133.21L108.39 131.5L107.3 129.75L106.27 127.96L105.31 126.13L104.43 124.27L103.61 122.37L102.87 120.45L102.2 118.49L101.61 116.51L101.09 114.51L100.65 112.48L100.28 110.44L100 108.37L99.79 106.3L99.66 104.21L99.61 102.11L99.64 100L99.64 100L101.11 98.49L102.63 97.04Z" id="bkrflaa2C"></path><path d="M50.19 44.62L52.29 44.8L54.39 45.07L56.48 45.43L58.57 45.87L60.66 46.4L62.73 47.02L64.79 47.73L66.84 48.53L68.86 49.41L70.82 50.37L72.73 51.4L74.58 52.5L76.37 53.66L78.1 54.89L79.77 56.19L81.38 57.54L82.93 58.95L84.42 60.41L85.85 61.93L87.21 63.5L88.5 65.12L89.73 66.79L90.9 68.5L91.99 70.25L93.02 72.04L93.98 73.87L94.86 75.73L95.68 77.63L96.42 79.55L97.09 81.51L97.68 83.49L98.2 85.49L98.64 87.52L99.01 89.56L99.29 91.63L99.5 93.7L99.63 95.79L99.68 97.89L99.64 100L99.64 100L98.18 101.51L96.66 102.96L95.09 104.35L93.48 105.67L91.81 106.93L90.11 108.12L88.36 109.24L86.58 110.29L84.76 111.27L82.9 112.18L81.02 113.01L79.1 113.78L77.16 114.47L75.19 115.09L73.2 115.63L71.18 116.09L69.15 116.48L67.1 116.79L65.04 117.01L62.97 117.16L60.89 117.23L58.8 117.21L56.71 117.11L54.61 116.93L52.51 116.66L50.42 116.3L48.33 115.86L46.25 115.33L44.17 114.71L42.11 114L40.06 113.2L38.04 112.32L36.08 111.36L34.17 110.33L32.33 109.23L30.54 108.07L28.8 106.84L27.13 105.55L25.52 104.19L23.97 102.78L22.48 101.32L21.05 99.8L19.69 98.23L18.4 96.61L17.17 94.94L16 93.24L14.91 91.48L13.88 89.69L12.93 87.87L12.04 86L11.23 84.11L10.48 82.18L9.82 80.22L9.22 78.24L8.7 76.24L8.26 74.21L7.89 72.17L7.61 70.1L7.4 68.03L7.27 65.94L7.22 63.84L7.26 61.73L7.26 61.73L8.72 60.22L10.24 58.77L11.81 57.38L13.43 56.06L15.09 54.8L16.79 53.62L18.54 52.5L20.32 51.45L22.14 50.47L24 49.56L25.88 48.72L27.8 47.95L29.74 47.26L31.71 46.65L33.71 46.1L35.72 45.64L37.75 45.25L39.8 44.95L41.86 44.72L43.93 44.57L46.01 44.5L48.1 44.52L50.19 44.62Z" id="a9gtEhrZu"></path><path d="M102.76 24.19L104.17 25.74L105.52 27.35L106.81 29.02L108.04 30.75L109.21 32.55L110.3 34.39L111.33 36.3L112.29 38.26L113.17 40.28L113.98 42.33L114.68 44.39L115.3 46.47L115.83 48.55L116.28 50.64L116.63 52.73L116.9 54.83L117.08 56.93L117.18 59.02L117.2 61.11L117.13 63.19L116.99 65.26L116.76 67.32L116.45 69.37L116.06 71.4L115.6 73.41L115.06 75.41L114.44 77.38L113.75 79.32L112.99 81.24L112.15 83.12L111.24 84.98L110.26 86.8L109.21 88.58L108.09 90.33L106.9 92.03L105.65 93.7L104.32 95.31L102.94 96.88L101.49 98.4L99.97 99.86L99.97 99.86L98.46 98.4L97.01 96.88L95.62 95.31L94.3 93.7L93.05 92.03L91.86 90.33L90.74 88.58L89.69 86.8L88.71 84.98L87.8 83.12L86.96 81.24L86.19 79.32L85.5 77.38L84.89 75.41L84.35 73.41L83.88 71.4L83.5 69.37L83.19 67.32L82.96 65.26L82.81 63.19L82.75 61.11L82.76 59.02L82.86 56.93L83.04 54.83L83.31 52.73L83.67 50.64L84.11 48.55L84.64 46.47L85.26 44.39L85.97 42.33L86.77 40.28L87.66 38.26L88.61 36.3L89.64 34.39L90.74 32.55L91.91 30.75L93.14 29.02L94.43 27.35L95.78 25.74L97.19 24.19L98.66 22.7L99.97 21.46L101.29 22.7L102.76 24.19Z" id="aGonp49o3"></path><path d="M50.19 44.62L52.29 44.8L54.39 45.07L56.48 45.43L58.57 45.87L60.66 46.4L62.73 47.02L64.79 47.73L66.84 48.53L68.86 49.41L70.82 50.37L72.73 51.4L74.58 52.5L76.37 53.66L78.1 54.89L79.77 56.19L81.38 57.54L82.93 58.95L84.42 60.41L85.85 61.93L87.21 63.5L88.5 65.12L89.73 66.79L90.9 68.5L91.99 70.25L93.02 72.04L93.98 73.87L94.86 75.73L95.68 77.63L96.42 79.55L97.09 81.51L97.68 83.49L98.2 85.49L98.64 87.52L99.01 89.56L99.29 91.63L99.5 93.7L99.63 95.79L99.68 97.89L99.65 99.87L97.87 99.9L95.77 99.85L93.68 99.72L91.6 99.51L89.54 99.23L87.49 98.86L85.47 98.42L83.46 97.9L81.48 97.3L79.53 96.64L77.6 95.89L75.7 95.08L73.84 94.19L72.01 93.24L70.22 92.21L68.47 91.12L66.76 89.95L65.09 88.72L63.48 87.43L61.91 86.07L60.39 84.64L58.92 83.15L57.51 81.6L56.16 79.99L54.87 78.32L53.64 76.59L52.47 74.79L51.37 72.95L50.34 71.04L49.39 69.08L48.5 67.06L47.7 65.01L46.99 62.95L46.37 60.87L45.84 58.79L45.4 56.7L45.05 54.61L44.78 52.51L44.59 50.41L44.49 48.32L44.48 46.23L44.53 44.55L46.01 44.5L48.1 44.52L50.19 44.62Z" id="bAArV77Sp"></path><path d="M102.46 102.62L103.87 104.17L105.22 105.79L106.52 107.46L107.75 109.19L108.91 110.98L110.01 112.83L111.04 114.74L112 116.7L112.88 118.71L113.68 120.76L114.39 122.83L115.01 124.9L115.54 126.99L115.98 129.08L116.34 131.17L116.61 133.27L116.79 135.36L116.89 137.46L116.91 139.54L116.84 141.63L116.69 143.7L116.46 145.76L116.16 147.81L115.77 149.84L115.31 151.85L114.77 153.84L114.15 155.81L113.46 157.76L112.69 159.67L111.86 161.56L110.95 163.41L109.96 165.24L108.91 167.02L107.79 168.77L106.61 170.47L105.35 172.13L104.03 173.75L102.64 175.32L101.19 176.83L99.68 178.3L99.68 178.3L98.16 176.83L96.71 175.32L95.33 173.75L94.01 172.13L92.75 170.47L91.56 168.77L90.44 167.02L89.39 165.24L88.41 163.41L87.5 161.56L86.66 159.67L85.9 157.76L85.21 155.81L84.59 153.84L84.05 151.85L83.59 149.84L83.2 147.81L82.89 145.76L82.67 143.7L82.52 141.63L82.45 139.54L82.47 137.46L82.57 135.36L82.75 133.27L83.02 131.17L83.37 129.08L83.82 126.99L84.35 124.9L84.97 122.83L85.68 120.76L86.48 118.71L87.36 116.7L88.32 114.74L89.35 112.83L90.45 110.98L91.61 109.19L92.84 107.46L94.13 105.79L95.49 104.17L96.9 102.62L98.36 101.13L99.68 99.9L101 101.13L102.46 102.62Z" id="bcl5fPLQL"></path><path d="M142.63 82.92L144.73 83.1L146.83 83.37L148.92 83.72L151.01 84.17L153.09 84.7L155.17 85.32L157.23 86.03L159.28 86.83L161.3 87.71L163.26 88.67L165.17 89.7L167.01 90.8L168.81 91.96L170.54 93.19L172.21 94.48L173.82 95.84L175.37 97.25L176.86 98.71L178.1 100.03L176.86 101.35L175.37 102.81L173.82 104.22L172.21 105.57L170.54 106.87L168.81 108.1L167.01 109.26L165.17 110.36L163.26 111.39L161.3 112.35L159.28 113.23L157.23 114.03L155.17 114.74L153.09 115.36L151.01 115.89L148.92 116.33L146.83 116.69L144.73 116.96L142.63 117.14L140.54 117.24L138.45 117.26L136.37 117.19L134.3 117.04L132.24 116.81L130.19 116.51L128.16 116.12L126.15 115.66L124.15 115.11L122.18 114.5L120.24 113.81L118.32 113.04L116.44 112.2L114.58 111.29L112.76 110.31L110.98 109.26L109.23 108.14L107.53 106.96L105.86 105.7L104.25 104.38L102.68 102.99L101.16 101.54L99.7 100.03L99.7 100.03L101.16 98.51L102.68 97.06L104.25 95.68L105.86 94.36L107.53 93.1L109.23 91.91L110.98 90.79L112.76 89.74L114.58 88.76L116.44 87.85L118.32 87.01L120.24 86.25L122.18 85.56L124.15 84.94L126.15 84.4L128.16 83.94L130.19 83.55L132.24 83.24L134.3 83.01L136.37 82.87L138.45 82.8L140.54 82.82L142.63 82.92Z" id="a2rJM0l0jg"></path><path d="M64.2 82.62L66.29 82.81L68.39 83.07L70.48 83.43L72.57 83.87L74.66 84.4L76.73 85.02L78.8 85.73L80.85 86.53L82.86 87.42L84.82 88.37L86.73 89.4L88.58 90.5L90.37 91.67L92.1 92.9L93.77 94.19L95.39 95.54L96.94 96.95L98.43 98.42L99.66 99.73L98.43 101.05L96.94 102.52L95.39 103.93L93.77 105.28L92.1 106.57L90.37 107.8L88.58 108.97L86.73 110.06L84.82 111.09L82.86 112.05L80.85 112.94L78.8 113.74L76.73 114.45L74.66 115.07L72.57 115.6L70.48 116.04L68.39 116.39L66.29 116.66L64.2 116.85L62.1 116.95L60.01 116.96L57.93 116.9L55.86 116.75L53.8 116.52L51.75 116.21L49.72 115.83L47.71 115.36L45.72 114.82L43.75 114.2L41.8 113.51L39.89 112.75L38 111.91L36.15 111L34.32 110.02L32.54 108.97L30.79 107.85L29.09 106.66L27.43 105.41L25.81 104.09L24.24 102.7L22.73 101.25L21.26 99.73L21.26 99.73L22.73 98.22L24.24 96.77L25.81 95.38L27.43 94.06L29.09 92.81L30.79 91.62L32.54 90.5L34.32 89.45L36.15 88.47L38 87.56L39.89 86.72L41.8 85.95L43.75 85.26L45.72 84.65L47.71 84.11L49.72 83.64L51.75 83.26L53.8 82.95L55.86 82.72L57.93 82.57L60.01 82.51L62.1 82.52L64.2 82.62Z" id="f2M1Gby9jE"></path><path d="M99.91 95.89L100.04 93.8L100.25 91.72L100.54 89.66L100.9 87.61L101.34 85.59L101.86 83.58L102.46 81.6L103.13 79.65L103.87 77.72L104.68 75.82L105.57 73.96L106.52 72.13L107.55 70.34L108.65 68.59L109.81 66.88L111.04 65.22L112.33 63.6L113.7 62.03L115.12 60.51L116.61 59.04L118.16 57.63L119.77 56.28L121.44 54.99L123.18 53.76L124.97 52.59L126.82 51.5L128.72 50.47L130.68 49.51L132.7 48.62L134.75 47.82L136.81 47.11L138.89 46.49L140.97 45.96L143.06 45.52L145.16 45.17L147.25 44.9L149.35 44.71L151.44 44.61L153.53 44.6L155.34 44.66L155.39 46.46L155.38 48.55L155.28 50.64L155.1 52.74L154.83 54.84L154.47 56.93L154.03 59.02L153.5 61.1L152.88 63.18L152.17 65.24L151.37 67.29L150.48 69.31L149.53 71.27L148.5 73.18L147.4 75.03L146.23 76.82L145 78.55L143.71 80.22L142.36 81.83L140.95 83.38L139.48 84.87L137.97 86.3L136.4 87.66L134.78 88.95L133.11 90.18L131.4 91.35L129.65 92.44L127.86 93.47L126.03 94.42L124.17 95.31L122.27 96.13L120.35 96.87L118.39 97.54L116.41 98.13L114.41 98.65L112.38 99.09L110.33 99.46L108.27 99.74L106.19 99.95L104.11 100.08L102.01 100.13L99.9 100.09L99.9 100.09L99.86 97.99L99.91 95.89Z" id="aRrRArkvj"></path><path d="M44.24 151.14L44.37 149.05L44.58 146.98L44.87 144.91L45.23 142.87L45.67 140.84L46.19 138.84L46.79 136.86L47.46 134.9L48.2 132.98L49.01 131.08L49.9 129.22L50.85 127.39L51.88 125.6L52.98 123.85L54.14 122.14L55.37 120.47L56.66 118.85L58.03 117.28L59.45 115.76L60.94 114.3L62.49 112.89L64.1 111.54L65.77 110.24L67.51 109.01L69.3 107.85L71.15 106.75L73.05 105.72L75.01 104.76L77.03 103.88L79.08 103.08L81.14 102.37L83.22 101.75L85.3 101.22L87.39 100.78L89.49 100.42L91.58 100.15L93.68 99.97L95.77 99.87L97.86 99.85L99.67 99.91L99.72 101.72L99.71 103.81L99.61 105.9L99.42 107.99L99.16 110.09L98.8 112.19L98.36 114.28L97.83 116.36L97.21 118.43L96.5 120.5L95.7 122.55L94.81 124.57L93.86 126.53L92.83 128.43L91.73 130.28L90.56 132.07L89.33 133.8L88.04 135.48L86.69 137.09L85.28 138.64L83.81 140.13L82.29 141.55L80.72 142.91L79.11 144.21L77.44 145.44L75.73 146.6L73.98 147.7L72.19 148.72L70.36 149.68L68.5 150.57L66.6 151.38L64.68 152.12L62.72 152.79L60.74 153.38L58.73 153.9L56.71 154.35L54.66 154.71L52.6 155L50.52 155.21L48.43 155.34L46.34 155.38L44.23 155.35L44.23 155.35L44.19 153.24L44.24 151.14Z" id="a1yzccjJQ"></path><path d="M103.79 100.03L105.88 100.16L107.96 100.37L110.02 100.65L112.07 101.02L114.09 101.46L116.1 101.98L118.08 102.57L120.03 103.24L121.96 103.98L123.86 104.8L125.72 105.68L127.55 106.64L129.34 107.67L131.09 108.76L132.8 109.92L134.46 111.15L136.08 112.45L137.65 113.81L139.17 115.24L140.64 116.73L142.05 118.28L143.4 119.89L144.69 121.56L145.92 123.29L147.09 125.08L148.19 126.93L149.21 128.84L150.17 130.8L151.06 132.81L151.86 134.87L152.57 136.93L153.19 139L153.72 141.09L154.16 143.18L154.51 145.27L154.78 147.37L154.97 149.46L155.07 151.56L155.08 153.65L155.03 155.45L153.22 155.51L151.13 155.49L149.04 155.39L146.94 155.21L144.84 154.94L142.75 154.59L140.66 154.14L138.58 153.61L136.5 152.99L134.44 152.28L132.39 151.48L130.37 150.6L128.41 149.64L126.5 148.61L124.66 147.52L122.87 146.35L121.13 145.12L119.46 143.83L117.85 142.48L116.3 141.07L114.81 139.6L113.38 138.08L112.02 136.51L110.73 134.89L109.5 133.23L108.33 131.52L107.24 129.77L106.21 127.98L105.26 126.15L104.37 124.28L103.56 122.39L102.81 120.46L102.15 118.51L101.55 116.53L101.03 114.52L100.59 112.49L100.22 110.45L99.94 108.39L99.73 106.31L99.6 104.22L99.55 102.12L99.59 100.01L99.59 100.01L101.69 99.98L103.79 100.03Z" id="a56pTTwNZ9"></path><path d="M48.54 44.36L50.63 44.49L52.7 44.69L54.77 44.98L56.81 45.35L58.84 45.79L60.84 46.31L62.82 46.9L64.78 47.57L66.71 48.31L68.6 49.13L70.47 50.01L72.29 50.97L74.08 52L75.84 53.09L77.54 54.25L79.21 55.48L80.83 56.78L82.4 58.14L83.92 59.57L85.38 61.05L86.79 62.61L88.15 64.22L89.44 65.89L90.67 67.62L91.83 69.41L92.93 71.26L93.96 73.17L94.92 75.13L95.8 77.14L96.6 79.19L97.31 81.26L97.93 83.33L98.46 85.42L98.9 87.51L99.26 89.6L99.53 91.7L99.71 93.79L99.81 95.89L99.83 97.98L99.77 99.78L97.96 99.84L95.88 99.82L93.78 99.72L91.69 99.54L89.59 99.27L87.5 98.92L85.41 98.47L83.32 97.94L81.25 97.32L79.18 96.61L77.13 95.81L75.12 94.93L73.15 93.97L71.25 92.94L69.4 91.84L67.61 90.68L65.88 89.45L64.21 88.16L62.59 86.81L61.04 85.4L59.55 83.93L58.13 82.41L56.77 80.84L55.47 79.22L54.24 77.56L53.08 75.85L51.98 74.1L50.96 72.31L50 70.48L49.12 68.61L48.3 66.72L47.56 64.79L46.89 62.84L46.3 60.86L45.78 58.85L45.34 56.82L44.97 54.78L44.68 52.72L44.47 50.64L44.35 48.55L44.3 46.45L44.33 44.34L44.33 44.34L46.44 44.31L48.54 44.36Z" id="ahictt4Bf"></path></defs><g><g><g><use xlink:href="#adRA6u3Lg" opacity="1" fill="#000000" fill-opacity="1"></use></g><g><use xlink:href="#e6oY493mDw" opacity="1" fill="#000000" fill-opacity="1"></use></g><g><use xlink:href="#biDnf20UX" opacity="1" fill="#000000" fill-opacity="1"></use></g><g><use xlink:href="#a8EclFcJo" opacity="1" fill="#000000" fill-opacity="1"></use></g><g><use xlink:href="#dlwO24lj7" opacity="1" fill="#000000" fill-opacity="1"></use></g><g><use xlink:href="#b5sEFaM4Pt" opacity="1" fill="#000000" fill-opacity="1"></use></g><g><use xlink:href="#bkrflaa2C" opacity="1" fill="#000000" fill-opacity="1"></use></g><g><use xlink:href="#a9gtEhrZu" opacity="1" fill="#000000" fill-opacity="1"></use></g><g><use xlink:href="#aGonp49o3" opacity="1" fill="#ff0000" fill-opacity="1"></use></g><g><use xlink:href="#bAArV77Sp" opacity="1" fill="#000000" fill-opacity="1"></use></g><g><use xlink:href="#bcl5fPLQL" opacity="1" fill="#ff0000" fill-opacity="1"></use></g><g><use xlink:href="#a2rJM0l0jg" opacity="1" fill="#ff0000" fill-opacity="1"></use></g><g><use xlink:href="#f2M1Gby9jE" opacity="1" fill="#ff0000" fill-opacity="1"></use></g><g><use xlink:href="#aRrRArkvj" opacity="1" fill="#ff0000" fill-opacity="1"></use></g><g><use xlink:href="#a1yzccjJQ" opacity="1" fill="#ff0000" fill-opacity="1"></use></g><g><use xlink:href="#a56pTTwNZ9" opacity="1" fill="#ff0000" fill-opacity="1"></use></g><g><use xlink:href="#ahictt4Bf" opacity="1" fill="#ff0000" fill-opacity="1"></use></g></g></g></svg>