<svg width="800" height="315" xmlns="http://www.w3.org/2000/svg">
 <!-- Created with Method Draw - http://github.com/duopixel/Method-Draw/ -->
 <g>
  <title>background</title>
  <rect fill="#fff" id="canvas_background" height="317" width="802" y="-1" x="-1"/>
 </g>
 <g>
  <title>Layer 1</title>
  <g id="g10" transform="matrix(4.8733148162118844,0,0,-4.8733148162118844,38.01245589686154,1866.5756234295761) ">
   <g id="svg_20" transform="translate(-81.75,2.25) scale(0.10000000149011612) ">
    <path fill="#2f2d2e" fill-rule="nonzero" d="m1591.4,3777.28l-89.26,0c-4.94,0 -9.85,-5.18 -10.98,-10.01l-31.69,-147.17l-31.65,-149.81c-1.09,-4.85 -5.99,-12 -10.96,-12l-63.19,0c-62.44,0 -55.21,46.14 -42.42,105.39l25.59,132.03l14.38,71.56c1.03,4.83 -2.19,10.01 -7.16,10.01l-91.68,0c-4.94,0 -9.8,-5.18 -10.84,-10.01l-41.26,-196.86c-22.67,-103.64 -16.64,-199.73 106.73,-202.78c1.95,-0.03 197.41,0 197.41,0c4.94,0 9.88,1.27 10.87,6.08l41.47,197.54l41.79,196.74c1.07,4.85 -2.18,9.29 -7.15,9.29" id="svg_1"/>
    <path fill="#2f2d2e" fill-rule="nonzero" d="m1054.01,3584.67l-18.13,-64.1l-17.5,-56.48c-1.12,-3.91 -6.83,-6.53 -10.87,-6.53l-85.084,0c-64.567,0 -80.242,49.88 -64.567,124.32c15.696,76.17 47.961,123.18 111.465,128.01c86.806,6.56 105.676,-54.78 84.686,-125.22m55.45,-123.9c0,0 40.08,97.48 49.26,153.66c12.32,75.37 -25.32,184.55 -170.962,184.55c-144.813,0 -207.703,-104.27 -231.684,-217.62c-23.965,-114.19 7.473,-214.32 151.406,-213.46l219.81,0.76c4.05,0.04 8.23,3.28 9.28,7.19l18.5,70.56c1.03,3.95 -1.49,7.23 -5.6,7.27l-17.63,0.06l-17.81,0.14c-3.43,0.07 -5.43,2.25 -5,5.23l0.43,1.66" id="svg_2"/>
    <path fill="#2f2d2e" fill-rule="nonzero" d="m1876.45,3381.82c-1.3,-6.53 -7.8,-13.93 -14.43,-13.93l-78.65,0c-6.63,0 -10.9,7.4 -9.61,13.89c0,0 31.69,153.04 33.21,159.47c0,0 13.56,57.6 -29.1,57.6l-36.06,0c-6.7,0 -13.2,-5.4 -14.58,-11.87l-43.86,-205.16c-1.36,-6.5 -7.89,-13.93 -14.51,-13.93l-76.04,0c-6.56,0 -10.91,7.4 -9.51,13.89l62.51,296.26c1.39,6.5 7.89,14.35 14.51,14.35c0,0 130.73,0 160.2,0c129.1,0 90.05,-144.31 90.05,-144.31c-1.75,-6.3 -34.13,-166.26 -34.13,-166.26" id="svg_3"/>
    <path fill="#2f2d2e" fill-rule="nonzero" d="m2062.65,3708.9c-28.44,0 -49.25,8.88 -41.69,44.18c7.61,35.36 32.21,44.18 60.58,44.18c27.15,0 48.63,-8.82 41,-44.18c-7.52,-34.64 -32.15,-44.18 -59.89,-44.18m-25.19,-327.12c-1.36,-6.49 -7.96,-13.89 -14.58,-13.89l-79.29,0c-6.63,0 -10.81,7.4 -9.41,13.83l63.93,293.69c1.45,6.43 7.94,12.92 14.51,12.92l77.06,0c6.66,0 10.91,-7.45 9.58,-13.95l-61.8,-292.6" id="svg_4"/>
    <path fill="#2f2d2e" fill-rule="nonzero" d="m2154.25,3367.63c-6.54,0.26 -10.66,7.86 -9.23,14.35l49.18,223.84c1.4,6.39 -2.81,11.73 -9.44,11.73l-37.86,0c-6.59,0 -10.77,5.24 -9.2,11.7l10.66,46.1c1.56,6.44 8.26,13.19 14.85,13.19l41.47,0c6.53,0 13.12,3.71 14.55,10.28l12.43,53.3c1.36,6.46 7.92,7.89 14.58,7.89l62.08,0c6.6,0 10.87,-2.19 9.48,-8.65l-12.07,-54.13c-1.35,-6.5 2.92,-8.69 9.48,-8.69l52.91,0c6.56,0 10.74,-6.75 9.24,-13.19l-10.84,-46.4c-1.45,-6.46 -8.15,-11.96 -14.74,-11.96l-48.9,0c-6.59,0 -13.15,-5.77 -14.65,-12.24l-49.18,-225.58c-1.33,-6.47 -7.89,-11.74 -14.45,-11.53l-70.35,-0.01" id="svg_5"/>
    <path fill="#992094" fill-rule="nonzero" d="m1295.6,3313.61l24.49,3.37l-5.41,-25.21l-24.34,-3.36l5.26,25.2zm-40.84,-134.6c12.08,9.08 14.64,10.42 16.27,18.49l16.91,79.98l24.51,3.36l-18.51,-87.21c-2.23,-10.75 -5.64,-16.64 -28.16,-30.93l-11.02,16.31" id="svg_6"/>
    <path fill="#992094" fill-rule="nonzero" d="m1313.86,3201.19l5.14,17.48c6.15,-2.19 13.14,-4.2 22.04,-4.2c7.92,0 8.5,2.35 9.3,6.21c0.8,3.7 -1.47,5.71 -10.55,10.59c-16.83,9.07 -17.3,15.12 -14.68,27.39c3.81,17.65 9.19,22.35 31.88,22.35c7.74,0 17.6,-1.67 24.25,-3.86l-4.48,-17.81c-6,1.68 -14.88,3.02 -20.59,3.02c-7.06,0 -8.09,-0.84 -9.09,-5.21c-0.81,-3.86 0.01,-4.7 7.76,-8.91c18.48,-10.08 21.21,-13.61 18.41,-26.55c-4,-18.48 -9.65,-25.88 -34.2,-25.88c-7.56,0 -18.08,2.19 -25.19,5.38" id="svg_7"/>
    <path fill="#992094" fill-rule="nonzero" d="m1445.1,3223.88l-0.42,-2.52c-0.06,-1.68 0.75,-2.52 3.1,-2.52c4.38,0 15.31,4.7 21.46,7.73l10.68,50.91l24.5,3.36l-17.54,-83.34l-20.17,0l0.09,7.56c-12.98,-6.05 -23.19,-9.25 -32.61,-9.25c-10.76,0 -14.74,6.39 -14.38,16.64c0.12,3.36 0.55,6.05 1.18,9.41l11.69,55.62l24.32,3.36l-11.9,-56.96" id="svg_8"/>
    <path fill="#992094" fill-rule="nonzero" d="m1566.15,3253.12c0.21,1.01 0.4,1.85 0.42,2.52c0.06,1.68 -0.75,2.35 -3.1,2.35c-4.38,0 -14.95,-4.37 -21.47,-7.73l-11.09,-52.76l-23.71,0l16.76,79.82l20.96,3.52l-0.49,-9.07c13,6.05 23.2,9.24 32.61,9.24c10.94,0 14.76,-6.22 14.4,-16.63c-0.11,-2.86 -0.36,-5.21 -1.18,-9.41l-12.1,-57.47l-23.71,0l11.7,55.62" id="svg_9"/>
    <path fill="#992094" fill-rule="nonzero" d="m1622.22,3313.61l24.5,3.37l-5.42,-25.21l-24.34,-3.36l5.26,25.2zm-7.66,-36.13l24.49,3.36l-17.7,-83.34l-23.71,0l16.92,79.98" id="svg_10"/>
    <path fill="#992094" fill-rule="nonzero" d="m1682.89,3260.34l-8.65,-40.83l-0.42,-2.19c-0.04,-1.18 0.61,-1.68 2.29,-1.68c4.05,0 8.64,1.68 12.9,3.36l4.13,-16.47c-6.85,-3.69 -16.7,-6.72 -26.29,-6.72c-11.94,0 -18.13,5.71 -17.79,15.46c0.04,1.18 0.26,2.36 0.46,3.53l9.66,45.54l-12.1,0l4.02,19l12.11,0l4.05,19.65l24.5,3.37l-4.85,-23.02l19.52,0l-5.38,-19l-18.16,0" id="svg_11"/>
    <path fill="#992094" fill-rule="nonzero" d="m1778.37,3260.34l-8.65,-40.83l-0.42,-2.19c-0.04,-1.18 0.61,-1.68 2.29,-1.68c4.04,0 8.64,1.68 12.9,3.36l4.13,-16.47c-6.85,-3.69 -16.71,-6.72 -26.3,-6.72c-11.93,0 -18.12,5.71 -17.78,15.46c0.04,1.18 0.25,2.36 0.46,3.53l9.66,45.54l-12.1,0l4.02,19l12.11,0l4.04,19.65l24.51,3.37l-4.84,-23.02l19.5,0l-5.37,-19l-18.16,0" id="svg_12"/>
    <path fill="#992094" fill-rule="nonzero" d="m1849.74,3257.99c0.09,2.86 -2.36,4.71 -6.73,4.71c-8.58,0 -11.28,-4.88 -12.69,-11.6l-1.2,-5.71c4.06,1 5.92,1.34 10.86,2.85c6.45,1.85 9.58,4.88 9.76,9.75zm-43.17,-7.9c4.03,18.82 12.85,30.92 38.75,30.92c15.47,0 27,-6.72 26.53,-20.5c-0.56,-15.96 -9.06,-23.36 -29.45,-29.4c-10.02,-3.03 -10.19,-3.03 -17.32,-4.88l-1.2,-5.71c-0.62,-3.03 -0.37,-5.72 3.99,-5.72c8.59,0 21.17,4.2 32.44,9.08l3.96,-16.81c-10.15,-6.22 -25.96,-11.26 -40.42,-11.26c-16.98,0 -23.96,7.4 -23.47,21.34c0.1,3.03 0.57,6.39 1.36,9.92l4.83,23.02" id="svg_13"/>
    <path fill="#992094" fill-rule="nonzero" d="m1873.8,3201.19l5.15,17.48c6.14,-2.19 13.13,-4.2 22.04,-4.2c7.91,0 8.48,2.35 9.29,6.21c0.81,3.7 -1.47,5.71 -10.55,10.59c-16.83,9.07 -17.3,15.12 -14.68,27.39c3.81,17.65 9.19,22.35 31.88,22.35c7.74,0 17.6,-1.67 24.25,-3.86l-4.48,-17.81c-6,1.68 -14.87,3.02 -20.59,3.02c-7.06,0 -8.1,-0.84 -9.09,-5.21c-0.81,-3.86 0.01,-4.7 7.77,-8.91c18.47,-10.08 21.21,-13.61 18.4,-26.55c-4,-18.48 -9.65,-25.88 -34.2,-25.88c-7.56,0 -18.08,2.19 -25.19,5.38" id="svg_14"/>
    <path fill="#992094" fill-rule="nonzero" d="m1984.12,3260.34l-8.65,-40.83l-0.42,-2.19c-0.04,-1.18 0.61,-1.68 2.29,-1.68c4.05,0 8.64,1.68 12.9,3.36l4.14,-16.47c-6.86,-3.69 -16.71,-6.72 -26.3,-6.72c-11.94,0 -18.13,5.71 -17.79,15.46c0.04,1.18 0.26,2.36 0.46,3.53l9.66,45.54l-12.1,0l4.02,19l12.11,0l4.05,19.65l24.5,3.37l-4.85,-23.02l19.52,0l-5.37,-19l-18.17,0" id="svg_15"/>
    <path fill="#992094" fill-rule="nonzero" d="m2029.19,3313.61l24.5,3.37l-5.42,-25.21l-24.33,-3.36l5.25,25.2zm-7.66,-36.13l24.5,3.36l-17.71,-83.34l-23.71,0l16.92,79.98" id="svg_16"/>
    <path fill="#992094" fill-rule="nonzero" d="m2107.6,3253.12c0.2,1.01 0.4,1.85 0.42,2.52c0.06,1.68 -0.75,2.35 -3.11,2.35c-4.37,0 -14.95,-4.37 -21.46,-7.73l-11.1,-52.76l-23.71,0l16.76,79.82l20.97,3.52l-0.49,-9.07c13,6.05 23.19,9.24 32.61,9.24c10.93,0 14.75,-6.22 14.39,-16.63c-0.11,-2.86 -0.35,-5.21 -1.17,-9.41l-12.1,-57.47l-23.71,0l11.7,55.62" id="svg_17"/>
    <path fill="#992094" fill-rule="nonzero" d="m2166.12,3225.39c-0.99,-4.37 0.12,-6.39 4.32,-6.39c5.21,0 13.74,3.37 18.72,6.39l7.45,35.29c-2.83,0.34 -5.86,0.5 -9.23,0.5c-12.27,0 -14.83,-6.04 -16.63,-13.94l-4.63,-21.85zm19.02,-19.16c-7.04,-4.03 -15.23,-7.05 -24.13,-7.05c-17.83,0 -21.82,10.92 -17.98,29.23l4.01,18.66c4.42,20.67 10.1,33.94 45.08,33.94c8.57,0 21.3,-1.5 31.61,-4.87l-19.32,-90.75c-3.82,-18.31 -11.89,-22.69 -33.75,-22.69c-9.75,0 -26.28,3.03 -36.26,6.39l4.78,16.64c12.51,-3.02 22.7,-4.71 32.45,-4.71c7.07,0 8.85,2.69 10.05,8.24l3.46,16.97" id="svg_18"/>
    <path id="svg_19"/>
   </g>
  </g>
 </g>
</svg>