<svg id="A" xmlns="http://www.w3.org/2000/svg" viewBox="0 0 86 112"><defs><style>.cls-1{stroke:#000;stroke-miterlimit:10;}</style></defs><path class="cls-1" d="M64.29,55.1,63.83,55l-.09.6.8-.24c0,.34,0,.6-.35.74l.19.36c.37,0,.11-.38.3-.49s.21.07.26.18c.16.41.31.83.48,1.24.51,1.24,1,2.49,1.37,3.78.22.71.52,1.4.7,2.13a6.65,6.65,0,0,0,.64,1.51,18.05,18.05,0,0,1,.68,1.69l.81,2c.16.4.33.79.49,1.19,0,.07,0,.16.08.21a4.61,4.61,0,0,1,.67,1.35,3.73,3.73,0,0,1,.41,1.26.34.34,0,0,0,0,.17c.33.82.69,1.63,1,2.46.49,1.28,1.07,2.53,1.46,3.86.18.64.47,1.25.71,1.88a2.47,2.47,0,0,1,.18.52,8.48,8.48,0,0,0,.6,1.78c.27.73.49,1.48.79,2.2s.49,1.53.85,2.27a17.61,17.61,0,0,1,.73,2.08.74.74,0,0,0,.07.21,6,6,0,0,1,.78,1.75c.1.29.23.57.34.85s.08.29.13.44.08.26.13.39c.16.36.33.71.47,1.08a11.74,11.74,0,0,0,.5,1.33,14.31,14.31,0,0,1,.65,1.51c.38,1,.77,1.93,1.15,2.9.07.18.11.38.18.56a24.77,24.77,0,0,0,.88,2.36,8.44,8.44,0,0,0,1.13,2.14,4.43,4.43,0,0,1,.47.89,5.47,5.47,0,0,0,.8,1.33.9.9,0,0,1,0,1,2.13,2.13,0,0,1-.57.59.4.4,0,0,1-.34,0,1.09,1.09,0,0,0-.62,0c-.79.1-1.58.17-2.38.25-.15,0-.3.05-.45.06a17,17,0,0,1-1.88.12c-.91,0-1.8.13-2.7.19a18.41,18.41,0,0,1-2,.12,22.19,22.19,0,0,1-2.7-.13,10.9,10.9,0,0,0-1.28,0,10.21,10.21,0,0,1-1.83-.1c-.63-.16-.75-.29-.88-.94s-.3-1.11-.47-1.66-.31-1-.46-1.49l-.13-.34c-.2-.51-.39-1-.58-1.54,0-.11-.09-.22-.13-.34-.13-.34-.24-.69-.37-1s-.18-.39-.27-.58a1.74,1.74,0,0,1-.2-.5,6.25,6.25,0,0,0-.8-2.09c-.16-.31-.28-.64-.42-1s-.24-.53-.33-.8c-.23-.63-.42-1.27-.66-1.9a3.76,3.76,0,0,0-.32-.55c-.08-.15-.22-.31-.21-.45a2.06,2.06,0,0,0-.31-.94c-.17-.44-.31-.89-.47-1.33a5.42,5.42,0,0,1-.29-.72,13.88,13.88,0,0,0-1.21-2.86c0-.09-.11-.17-.11-.25a4.5,4.5,0,0,0-.64-1.95c-.24-.6-.48-1.21-.73-1.82a3.62,3.62,0,0,0-.2-.45c-.22-.4-.18-.89-.47-1.28-.11-.14,0-.42-.11-.61-.18-.47-.41-.92-.61-1.38s-.45-1-.65-1.46-.38-1-.56-1.54-.26-.84-.41-1.26-.35-1-.55-1.45c-.08-.19-.23-.35-.33-.54a5,5,0,0,1-.38-.72c-.19-.45-.34-.91-.5-1.37l-.78-2.11-.81-2.23c0-.12-.07-.24-.11-.35-.08-.32-.11-.35-.43-.34-1.07,0-2.14.1-3.21.13-.5,0-1,0-1.51,0s-1.25,0-1.87,0-1,0-1.56,0a7.84,7.84,0,0,0-1.37,0c-.61.05-1.22,0-1.83,0s-1.13,0-1.7,0c-.76,0-1.52.15-2.28.23-.38,0-.76.08-1.13.15a2.65,2.65,0,0,1-1,0,1.16,1.16,0,0,0-.31-.07c-.57,0-1.13,0-1.7,0a.53.53,0,0,0-.54.27.29.29,0,0,1-.1.09c-.61.28-.72.88-.92,1.41-.33.89-.64,1.79-1,2.68-.22.6-.43,1.21-.65,1.81,0,0,0,.09-.05.13-.28.69-.61,1.37-.82,2.08s-.53,1.37-.77,2.06-.46,1.49-.68,2.24c-.18.59-.35,1.2-.56,1.78s-.45,1-.65,1.52a5,5,0,0,0-.29,1.15,9,9,0,0,1-.45,1.29c-.25.77-.48,1.55-.72,2.32-.07.22-.11.45-.2.66-.27.68-.57,1.35-.84,2-.15.4-.23.82-.37,1.23-.28.8-.58,1.61-.87,2.41a1.54,1.54,0,0,0-.1.35,10.71,10.71,0,0,1-.68,2c-.21.65-.43,1.3-.65,1.95s-.44,1.27-.66,1.91a.88.88,0,0,0-.1.35,5.77,5.77,0,0,1-.46,1.72s0,.06,0,.08a7.11,7.11,0,0,1-.38,1.44,8.62,8.62,0,0,1-.63,2.06,2.27,2.27,0,0,0-.09.94c0,.17.05.33-.06.48a.41.41,0,0,0-.07.22,1.63,1.63,0,0,1-.9,1.17.59.59,0,0,1-.83-.23c-.27-.38-.31-.39-.76-.25a.48.48,0,0,1-.26.05,5.89,5.89,0,0,0-1.92.06c-.52,0-1,.05-1.56,0a5.63,5.63,0,0,0-1.36.17.54.54,0,0,1-.43,0,1.67,1.67,0,0,0-1.26-.09,8.07,8.07,0,0,1-1.77,0l-1.88,0c-.56,0-1.13-.08-1.69-.09a2.48,2.48,0,0,0-.9.11,1.22,1.22,0,0,1-.75.1,2.81,2.81,0,0,0-.5,0c-.35,0-.62-.12-.75-.53s-.3-.58-.39-.91a2.65,2.65,0,0,1,.06-1.4c.07-.32.14-.38.5-.39A.29.29,0,0,0,.88,106c.11-.4.22-.8.35-1.19,0-.11.14-.2.19-.31a4.19,4.19,0,0,0,.2-.49c0-.11,0-.27.11-.34a.52.52,0,0,0,.09-.67,2.35,2.35,0,0,0,.64-1.11,7.86,7.86,0,0,1,.39-1,9,9,0,0,1,.79-1.54.56.56,0,0,0,.09-.21,11,11,0,0,1,.61-1.87,4.4,4.4,0,0,0,.13-.63,1.14,1.14,0,0,1,.13-.38,6.58,6.58,0,0,0,.74-1.62c.23-.58.33-1.2.54-1.8.34-1,.72-2,1.09-3a.08.08,0,0,0,0,0c.36-1.26,1.07-2.37,1.51-3.59.21-.61.4-1.22.62-1.82.13-.34.31-.67.43-1,.26-.73.48-1.48.74-2.21s.5-1.25.75-1.87c.14-.35.28-.71.43-1.06L12.88,75s0-.06,0-.08c-.07-.49.32-.83.39-1.27A10.57,10.57,0,0,1,13.88,72c.24-.76.58-1.47.8-2.24a14.4,14.4,0,0,1,1.55-3.82.4.4,0,0,0,.09-.15c.12-.48.22-1,.33-1.43a1.34,1.34,0,0,1,.09-.26c.48-1.24,1-2.47,1.44-3.72.23-.61.36-1.27.59-1.88.32-.85.69-1.67,1-2.51s.64-1.71,1-2.57c.09-.21.17-.43.27-.63a33.75,33.75,0,0,0,1.34-3.37c.1-.24.21-.47.31-.71a25.1,25.1,0,0,0,1.05-3c.18-.79.45-1.56.68-2.34a1,1,0,0,1,.1-.21,21.77,21.77,0,0,0,1.24-3,6.43,6.43,0,0,1,.52-1,9,9,0,0,0,.94-2.27,3,3,0,0,1,.43-1,4.9,4.9,0,0,0,.49-1.13c.18-.5.3-1,.46-1.53a.57.57,0,0,1,.14-.28,1,1,0,0,0,.39-.84,13.8,13.8,0,0,1,.64-2.53c.06-.2.12-.41.2-.61s.2-.5.31-.75c0-.06.06-.11.08-.16a12.08,12.08,0,0,1,.53-1.5c.3-.59.36-1.25.71-1.83a8.24,8.24,0,0,0,.6-1.47,6.25,6.25,0,0,1,.24-.6,8.85,8.85,0,0,0,.64-1.81,4.46,4.46,0,0,1,.77-1.56,1,1,0,0,0,.29-.79,1.28,1.28,0,0,1,.37-.92,2.34,2.34,0,0,0,.49-1.1,2.08,2.08,0,0,1,.43-1.14,1.07,1.07,0,0,0,.14-.38,2.3,2.3,0,0,1,.59-1.21.48.48,0,0,0,.15-.32,2.19,2.19,0,0,1,.44-1.19c.15-.24.33-.47.49-.71a.77.77,0,0,0,.17-.59,2.18,2.18,0,0,1,.21-1.12c.21-.6.44-1.2.67-1.8.29-.77.56-1.55.89-2.31.16-.39.4-.75.54-1.16.06-.17.25-.3.42-.48a1.12,1.12,0,0,1,.36-1.12s.07-.07.07-.11c0-.53.45-.82.76-1.16a.89.89,0,0,0,.24-.89c-.05-.21-.15-.45.12-.61a.59.59,0,0,1,.73,0,1.93,1.93,0,0,1,.53.61C43.5,1.89,44,3.06,44.59,4.22c.2.41.45.79.65,1.2s.38.9.58,1.34a5.13,5.13,0,0,0,.43.76,11,11,0,0,1,1.25,2.9.33.33,0,0,0,0,.13c.49.6.48,1.4.8,2.07.08.15.06.36.13.53.33.88.64,1.77,1,2.62a18.59,18.59,0,0,1,.57,1.89l.45,1.24a1.18,1.18,0,0,1,.1.3,13.34,13.34,0,0,0,.71,2.22c.08.24.13.49.2.74a.31.31,0,0,0,.05.17,5.68,5.68,0,0,1,.77,1.79A13.74,13.74,0,0,0,53.13,26c.19.34.31.73.47,1.08.25.54.51,1.07.77,1.61.06.12.1.25.15.37l.9,2.32.21.55.54,1.5.65,2c.19.53.4,1.06.6,1.59a.65.65,0,0,0,.1.15c.34.57.71,1.14,1,1.72.17.3.28.64.43,1s.28.47.39.72c.23.51.43,1,.65,1.55,0,.1.09.19.14.29a1.89,1.89,0,0,1,.23.5,14.75,14.75,0,0,0,.6,1.81c.16.51.38,1,.56,1.5a2.21,2.21,0,0,1,.15.48,7,7,0,0,0,.57,1.78,3.7,3.7,0,0,1,.16.57c.14.51.27,1,.44,1.53a10.57,10.57,0,0,0,.57,1.34A6.74,6.74,0,0,1,64,53.5a5.75,5.75,0,0,0,.33,1C64.4,54.75,64.41,54.74,64.29,55.1ZM57.87,40a3.18,3.18,0,0,1-.37-.36,6.11,6.11,0,0,0-.58-.74,1.23,1.23,0,0,1-.39-1c0-.08,0-.2-.07-.25a3.12,3.12,0,0,1-.59-1.07A18.54,18.54,0,0,0,55,34.79a4.59,4.59,0,0,1-.38-.88.81.81,0,0,1-.07-.22c-.09-.38-.16-.78-.26-1.16A9.63,9.63,0,0,0,53.72,31a19.26,19.26,0,0,1-.92-2.54c0-.11,0-.27-.07-.34A3.52,3.52,0,0,1,52.06,27c-.14-.31-.34-.59-.46-.9a7.14,7.14,0,0,1-.44-1.25c-.17-.84-.75-1.5-.94-2.33,0-.17-.1-.34-.15-.51s-.13-.56-.22-.84-.23-.53-.32-.8A6.49,6.49,0,0,1,49.09,19a15.79,15.79,0,0,0-.49-2,.53.53,0,0,0-.05-.18c-.28-.35-.27-.83-.6-1.16a.66.66,0,0,1-.07-.26,9.56,9.56,0,0,0-.3-.95c-.14-.32-.34-.61-.49-.92a.44.44,0,0,1,0-.35c.18-.28,0-.46-.14-.65a1.58,1.58,0,0,1-.32-.79,2.83,2.83,0,0,0-.41-1.09A4.67,4.67,0,0,1,45.55,9,1.65,1.65,0,0,0,45,8a1.69,1.69,0,0,1-.58-.79,2.3,2.3,0,0,0-.23-.4,6,6,0,0,1-.28-.57A12.32,12.32,0,0,0,43.47,5a15.15,15.15,0,0,0-.89-1.75c-.23-.33-.35-.36-.61-.06a7.87,7.87,0,0,0-.85,1.35,7.65,7.65,0,0,0-.63,1.67c-.19.63-.43,1.24-.66,1.86,0,.14-.16.26-.21.4a32.85,32.85,0,0,1-1.19,3.18c-.33.68-.55,1.42-.84,2.12-.22.54-.49,1.06-.73,1.59-.3.69-.59,1.39-.89,2.09a5.88,5.88,0,0,1-.39,1,15.47,15.47,0,0,0-.87,2.16c-.28.65-.47,1.32-.72,2s-.47,1.06-.68,1.6c-.35.88-.68,1.77-1,2.65q-.24.61-.51,1.23a8.28,8.28,0,0,0-.57,1.63c-.14.62-.37,1.22-.55,1.83s-.32,1.09-.49,1.63c-.05.17-.2.33-.21.5a5.51,5.51,0,0,1-.7,2,14.66,14.66,0,0,0-.67,1.89,7.65,7.65,0,0,1-.92,2,9.68,9.68,0,0,0-1.09,2.27,3.68,3.68,0,0,1-.31.9,6.73,6.73,0,0,0-.83,2.36,28.64,28.64,0,0,1-1,3.14,2.58,2.58,0,0,1-.25.64,4.27,4.27,0,0,0-.78,1.79,14.49,14.49,0,0,1-1.08,2.67c-.15.32-.26.65-.38,1-.22.59-.43,1.18-.66,1.76s-.53,1.23-.79,1.85c0,0,0,.06,0,.09-.19.59-.37,1.19-.58,1.78-.1.29-.23.56-.32.86-.33,1.08-.76,2.13-1.15,3.19,0,.1-.05.2-.09.3-.23.7-.44,1.4-.7,2.08s-.59,1.28-.85,1.93c-.17.42-.26.88-.42,1.3-.28.78-.59,1.54-.89,2.31-.11.28-.26.54-.35.83-.16.54-.29,1.09-.44,1.64a4.17,4.17,0,0,1-.25.78c-.19.4-.44.77-.65,1.16a4.5,4.5,0,0,0-.22.55l-.63,1.77c0,.12-.17.23-.16.32.05.3-.12.49-.25.72a5,5,0,0,0-.27.63c-.27.73-.53,1.47-.79,2.2a3.92,3.92,0,0,0-.13.49c-.06.22-.11.44-.19.65a13.24,13.24,0,0,0-.75,2,5.1,5.1,0,0,1-.33,1c-.38.85-.78,1.69-1.16,2.54a5.37,5.37,0,0,0-.21.56c-.21.59-.41,1.19-.6,1.78-.13.39-.27.78-.38,1.18s-.17.84-.31,1.24-.38.9-.57,1.34l-.06.17c-.2.58-.36,1.17-.61,1.73a16,16,0,0,1-.76,2.14s0,.06,0,.09c-.24.63-.48,1.25-.73,1.88-.08.18-.19.35-.26.53-.27.8-.52,1.6-.81,2.39s-.69,1.73-1,2.6c-.08.22-.18.52-.09.69s.44.11.68.09A16.06,16.06,0,0,1,5,107.36a6.82,6.82,0,0,0,1.69,0,.55.55,0,0,1,.31,0,3.72,3.72,0,0,0,1.59.08,11.65,11.65,0,0,1,2.36-.13c.7.07,1.41,0,2.11,0,.47,0,.77,0,.84-.56a.21.21,0,0,1,.35-.16,1.51,1.51,0,0,0,.26.07c.13-.59.7-.58,1-.84.65.34,1,.2,1.15-.44a10,10,0,0,1,.4-1.45c.09-.28.14-.57.25-.84a1.57,1.57,0,0,0,.15-.8.62.62,0,0,1,.06-.39,1,1,0,0,0,.25-.67,1.07,1.07,0,0,1,.16-.32,3.8,3.8,0,0,0,.31-.6,2.59,2.59,0,0,0,.23-1.06.55.55,0,0,1,.12-.3,3.18,3.18,0,0,0,.47-1.23,2.4,2.4,0,0,1,.33-1,1.28,1.28,0,0,0,.22-.69,3.13,3.13,0,0,1,.52-1.45,2.66,2.66,0,0,0,.45-1.19,1.34,1.34,0,0,1,.2-.65,4,4,0,0,0,.47-1.23,5.91,5.91,0,0,1,.47-1.34,3.26,3.26,0,0,0,.47-1.5,1.13,1.13,0,0,1,.06-.32q.45-1.34.93-2.67c.17-.49.38-1,.53-1.46a10.45,10.45,0,0,0,.61-2s0,0,0-.08A4.07,4.07,0,0,0,24.82,81c.21-.89.64-1.71.88-2.6s.52-1.53.79-2.29c.18-.49.32-1,.54-1.46a4.15,4.15,0,0,0,.65-1.7.43.43,0,0,1,.05-.13c.18-.41.38-.82.56-1.25s.35-.91.5-1.37.27-.9.39-1.36.16-.71.24-1.06a6.32,6.32,0,0,1,.18-.62c.07-.22.15-.44.25-.69l.35.08.07-.07-.37-.59a5.19,5.19,0,0,1,.45-.64c.08-.08.26-.17.34-.13s.15.21.15.33a2.12,2.12,0,0,1-.08.46l.56.08a10.67,10.67,0,0,0,2.33.17,3.11,3.11,0,0,1,1.32.07,2.71,2.71,0,0,0,.64,0c.78,0,1.52-.26,2.31-.26.59,0,1.19-.09,1.79-.08.91,0,1.83,0,2.74,0l1.1,0a.89.89,0,0,1,.23,0,10,10,0,0,0,3.14,0,10.83,10.83,0,0,0,1.27,0,5.39,5.39,0,0,1,1.13,0,5.76,5.76,0,0,0,1.1-.08,9.81,9.81,0,0,1,2.65-.07c.61.05,1,.41.86,1a2.09,2.09,0,0,0-.08.5,1.35,1.35,0,0,0,0,.45c.32.92.67,1.84,1,2.75.19.51.36,1,.54,1.52a7.54,7.54,0,0,0,.34.9c.33.71.7,1.41,1,2.14s.53,1.36.78,2a9.49,9.49,0,0,0,.95,2.36.53.53,0,0,1,.05.18c.09.3.17.62.28.92a12.18,12.18,0,0,1,.76,2.2,1.55,1.55,0,0,0,.2.41c.09.19.2.37.28.57.31.76.41,1.58.78,2.33.52,1.06.89,2.18,1.32,3.27a6.08,6.08,0,0,0,.25.64,7.1,7.1,0,0,1,.69,1.74,3.74,3.74,0,0,0,.4,1.07,7.55,7.55,0,0,1,.73,1.67c.17.57.41,1.12.63,1.67.15.39.33.76.49,1.14.25.62.49,1.25.75,1.86a2.34,2.34,0,0,0,.26.43c.08.14.16.28.23.43.2.5.11,1.11.54,1.54,0,0,0,.14.06.21s.09.33.15.49c.27.72.55,1.45.83,2.18a.67.67,0,0,0,.09.14l.11,0c.16,0,.38,0,.46.08s-.09.28-.18.4l0,0a.66.66,0,0,0,.49.91,2.81,2.81,0,0,1,.71.15.51.51,0,0,1,.23.3c0,.09,0,.21,0,.32.06.39.22.91.57,1a5.42,5.42,0,0,0,.81.08c.23,0,.46,0,.69,0a2.68,2.68,0,0,0,1.48-.14.49.49,0,0,1,.31-.05,6.67,6.67,0,0,0,1.41.13c.24,0,.49,0,.73,0,.54,0,1.07,0,1.61-.06a4.15,4.15,0,0,0,1,0,2.36,2.36,0,0,1,1,0,1.67,1.67,0,0,0,.5,0c.56,0,1.13-.11,1.69-.19a6.74,6.74,0,0,0,.88-.24.29.29,0,0,0,.21-.43,8.33,8.33,0,0,0-.44-1c-.25-.47-.54-.92-.77-1.4-.35-.73-.65-1.48-1-2.22a4.77,4.77,0,0,1-.59-1.81,2.15,2.15,0,0,0-.28-.72l-.44-1-.1-.2a6,6,0,0,1-.26-.58c-.14-.41-.26-.84-.4-1.26a.78.78,0,0,0-.14-.29,2,2,0,0,1-.44-1,1.52,1.52,0,0,0-.2-.6,5,5,0,0,1-.54-1.31,9.32,9.32,0,0,0-.45-1.25c-.16-.34-.42-.63-.33-1,0,0,0-.11-.06-.16l-.77-1.77c-.16-.36-.37-.7-.51-1.06s-.12-.61-.25-.88c-.46-1-.58-2.06-1-3a3.83,3.83,0,0,0-.37-.83.7.7,0,0,1-.09-.3,2.88,2.88,0,0,0-.56-1.57.69.69,0,0,1-.12-.29A19,19,0,0,1,72,78.94c-.06-.24,0-.5-.12-.72-.23-.6-.5-1.18-.75-1.77a.33.33,0,0,0-.1-.15,1.11,1.11,0,0,1-.42-.93,1.21,1.21,0,0,0-.34-.87.74.74,0,0,1-.19-.32c-.13-.42-.26-.84-.38-1.26a19.86,19.86,0,0,0-1-2.68c-.1-.23-.24-.46-.35-.69a8.2,8.2,0,0,1-.55-1.16,11.69,11.69,0,0,0-.63-1.71,9.44,9.44,0,0,0-1-2.12.93.93,0,0,1-.1-.25l-.54-1.94c0-.17-.08-.35-.13-.53a4.59,4.59,0,0,0-.54-1.64,3,3,0,0,1-.44-1.1A13.08,13.08,0,0,0,64,57.75c-.06-.19-.1-.39-.13-.51l-.36-.74c-.17-.37-.35-.74-.51-1.12a2.7,2.7,0,0,1-.11-.43,2.35,2.35,0,0,0-.21-.68,3.56,3.56,0,0,1-.49-1.62l.55.12-.08-.41c-.52,0-.61-.09-.75-.56s-.2-.79-.29-1.2c0-.23-.08-.46-.12-.74-.24-.18-.18-.21-.47-.71a8.25,8.25,0,0,1-.69-1.95c-.13-.47-.2-1-.31-1.43a1.12,1.12,0,0,0-.47-.81.32.32,0,0,1-.13-.22c-.06-.35-.07-.7-.15-1a5,5,0,0,0-.25-.74,6.82,6.82,0,0,0-.62-1.16A2.91,2.91,0,0,1,58,41c0-.15,0-.37-.06-.43C57.68,40.35,57.75,40.18,57.87,40Zm-41.68,66.5a6,6,0,0,0-.6,0,.26.26,0,0,0-.18.17.25.25,0,0,0,.15.18,5.3,5.3,0,0,0,.63.15ZM63.65,53.45H63C63.31,53.77,63.4,53.78,63.65,53.45Zm-12-30.06c-.06-.05-.1-.1-.12-.09a1,1,0,0,0-.13.09s.06.08.08.08A.8.8,0,0,0,51.63,23.39ZM62.85,51.55c-.08-.06-.12-.1-.17-.11s-.09.06-.08.07,0,.11.08.12S62.77,51.59,62.85,51.55Zm-2-4.25-.07.09s.06,0,.07,0,.06,0,.09-.08Z"/><path class="cls-1" d="M58.21,41c-.12.17-.19.35,0,.53s0,.3.07.45a2.81,2.81,0,0,0,.46.85A7.57,7.57,0,0,1,59.43,44a7.32,7.32,0,0,1,.25.75c.08.35.09.71.15,1.07A.41.41,0,0,0,60,46a1.21,1.21,0,0,1,.49.83c.11.49.18,1,.32,1.47a7.61,7.61,0,0,0,.7,2c.29.52.24.55.48.74,0,.28.07.52.12.76.09.41.18.82.3,1.22s.23.54.77.57l.08.43-.56-.13a3.57,3.57,0,0,0,.5,1.66,2,2,0,0,1,.21.7,3.17,3.17,0,0,0,.12.44c.16.38.34.76.52,1.14l.37.76c0,.12.07.33.13.53a11.51,11.51,0,0,1,.42,1.38,2.84,2.84,0,0,0,.45,1.12,4.9,4.9,0,0,1,.56,1.68c0,.19.08.37.13.55.18.66.37,1.32.56,2a.59.59,0,0,0,.1.26,10.11,10.11,0,0,1,1,2.17A12.22,12.22,0,0,1,68.42,70,10,10,0,0,0,69,71.23c.12.24.26.47.37.71a22.29,22.29,0,0,1,1,2.74c.12.43.25.87.39,1.29a.69.69,0,0,0,.19.32,1.3,1.3,0,0,1,.35.9,1.14,1.14,0,0,0,.43,1,.4.4,0,0,1,.1.15c.26.61.53,1.2.77,1.82a4.4,4.4,0,0,1,.12.74,20.44,20.44,0,0,0,.85,2.38.91.91,0,0,0,.13.3,2.91,2.91,0,0,1,.57,1.61.8.8,0,0,0,.09.31,3.34,3.34,0,0,1,.38.84c.46,1,.59,2.11,1,3.1.14.28.14.62.26.91s.36.72.52,1.09c.27.59.53,1.2.79,1.8,0,.06.08.12.07.17-.1.43.17.73.33,1.08a9.63,9.63,0,0,1,.46,1.27,4.64,4.64,0,0,0,.56,1.34,1.67,1.67,0,0,1,.2.62,2.09,2.09,0,0,0,.45,1.07,1,1,0,0,1,.15.29c.14.43.26.87.4,1.3a6.28,6.28,0,0,0,.27.59c0,.07.08.14.11.21l.45,1a2.23,2.23,0,0,1,.29.73,4.63,4.63,0,0,0,.6,1.86c.34.76.65,1.53,1,2.28.24.49.54,1,.79,1.43a8.68,8.68,0,0,1,.45,1,.3.3,0,0,1-.22.44,5.69,5.69,0,0,1-.9.24c-.57.09-1.15.15-1.73.2a1.74,1.74,0,0,1-.51,0,2.2,2.2,0,0,0-1,0,4.31,4.31,0,0,1-1,0l-1.65.06c-.25,0-.5,0-.75,0a6.38,6.38,0,0,1-1.44-.13.52.52,0,0,0-.32,0,2.72,2.72,0,0,1-1.52.14c-.23,0-.47,0-.7,0a5.69,5.69,0,0,1-.83-.08c-.36-.06-.52-.59-.58-1,0-.1,0-.23,0-.32a.51.51,0,0,0-.24-.31,3,3,0,0,0-.72-.15.68.68,0,0,1-.51-.93l0,0c.09-.13.35-.23.19-.41s-.31-.07-.48-.09l-.11,0s-.07-.09-.09-.14c-.29-.75-.57-1.49-.85-2.24-.06-.16-.1-.32-.15-.49s0-.18-.06-.22c-.44-.44-.35-1.06-.56-1.58a4.64,4.64,0,0,0-.23-.44,2.8,2.8,0,0,1-.27-.43c-.27-.64-.51-1.28-.77-1.91-.16-.39-.34-.77-.5-1.17a17.59,17.59,0,0,1-.64-1.71A8.45,8.45,0,0,0,64,95a4.29,4.29,0,0,1-.41-1.1,7,7,0,0,0-.71-1.77c-.11-.21-.16-.44-.25-.66-.44-1.12-.83-2.27-1.35-3.35-.38-.78-.49-1.61-.81-2.39-.08-.2-.19-.39-.29-.59a2.22,2.22,0,0,1-.2-.41,12.08,12.08,0,0,0-.78-2.26c-.11-.31-.19-.63-.28-.94a1,1,0,0,0-.05-.18,9.6,9.6,0,0,1-1-2.42c-.25-.7-.5-1.41-.79-2.09s-.71-1.46-1.05-2.2c-.14-.29-.24-.61-.35-.91-.18-.52-.36-1-.55-1.55l-1-2.82a1.22,1.22,0,0,1,0-.47,2.74,2.74,0,0,1,.07-.5c.19-.63-.25-1-.87-1a10.34,10.34,0,0,0-2.72.07,6,6,0,0,1-1.12.08,5.7,5.7,0,0,0-1.16,0,11.49,11.49,0,0,1-1.31,0,10.17,10.17,0,0,1-3.21,0,.87.87,0,0,0-.23,0l-1.13,0c-.93,0-1.87,0-2.81,0-.61,0-1.22.08-1.83.08-.8,0-1.57.28-2.37.27a2.8,2.8,0,0,1-.65,0,3.09,3.09,0,0,0-1.35-.07A11.76,11.76,0,0,1,31,67.6l-.59-.09a1.69,1.69,0,0,0,.09-.47c0-.12-.06-.31-.15-.34s-.27,0-.35.14a6.8,6.8,0,0,0-.47.65l.39.6-.07.08-.37-.08c-.09.25-.18.47-.25.7s-.13.42-.18.63c-.09.37-.15.73-.25,1.09s-.25.94-.4,1.39-.33.95-.52,1.41-.38.86-.57,1.28a.78.78,0,0,0-.05.14,4.3,4.3,0,0,1-.66,1.73,15.82,15.82,0,0,0-.55,1.5c-.28.78-.6,1.55-.82,2.35s-.68,1.74-.89,2.65a4.08,4.08,0,0,1-.45,1.21.18.18,0,0,0,0,.09,10,10,0,0,1-.62,2c-.15.51-.37,1-.55,1.5-.32.91-.64,1.82-.95,2.74a1.13,1.13,0,0,0-.06.32,3.43,3.43,0,0,1-.48,1.54,6.17,6.17,0,0,0-.48,1.37A4.23,4.23,0,0,1,20.25,95a1.38,1.38,0,0,0-.19.67,2.8,2.8,0,0,1-.47,1.22,3.11,3.11,0,0,0-.53,1.48,1.3,1.3,0,0,1-.23.71,2.62,2.62,0,0,0-.34,1,3.23,3.23,0,0,1-.48,1.26.55.55,0,0,0-.12.3,2.38,2.38,0,0,1-.24,1.09,3.5,3.5,0,0,1-.31.61,1,1,0,0,0-.16.34,1.15,1.15,0,0,1-.26.68.66.66,0,0,0-.06.4,1.67,1.67,0,0,1-.15.82,8.34,8.34,0,0,0-.26.85,9.49,9.49,0,0,0-.41,1.5c-.11.65-.52.79-1.18.44-.36.27-.94.27-1.08.86a.94.94,0,0,1-.26-.07.23.23,0,0,0-.36.16c-.07.53-.38.61-.86.58-.72,0-1.45.09-2.16,0a12.1,12.1,0,0,0-2.41.13,3.73,3.73,0,0,1-1.63-.08.62.62,0,0,0-.33,0,6.61,6.61,0,0,1-1.72,0,17,17,0,0,0-1.88.13c-.25,0-.57.13-.7-.1a1,1,0,0,1,.1-.7c.33-.89.71-1.77,1-2.66s.55-1.64.83-2.45c.07-.19.19-.36.27-.55l.75-1.92s0-.07,0-.09a15.5,15.5,0,0,0,.77-2.2c.26-.57.42-1.17.63-1.76l.06-.18c.2-.46.42-.91.58-1.37s.21-.85.32-1.27.25-.81.39-1.21c.2-.61.4-1.22.61-1.82a5.77,5.77,0,0,1,.22-.58c.39-.87.8-1.73,1.19-2.6a5.31,5.31,0,0,0,.34-1,13.47,13.47,0,0,1,.76-2.07c.09-.22.13-.45.2-.67a4.07,4.07,0,0,1,.13-.5c.27-.75.53-1.5.81-2.25a5.3,5.3,0,0,1,.28-.65,1.12,1.12,0,0,0,.26-.73c0-.1.11-.22.15-.33.22-.61.44-1.21.65-1.82a3.46,3.46,0,0,1,.23-.56c.21-.4.47-.78.67-1.18A4.47,4.47,0,0,0,14,76c.16-.56.28-1.12.45-1.68.09-.29.25-.56.36-.85.31-.78.62-1.57.91-2.36.16-.44.26-.9.43-1.33.27-.67.61-1.31.87-2s.48-1.42.72-2.13c0-.1.06-.21.09-.31.4-1.09.84-2.16,1.18-3.27.09-.3.22-.58.33-.88.21-.6.39-1.21.59-1.82,0,0,0-.07,0-.09.27-.64.55-1.26.81-1.9s.45-1.2.67-1.8c.13-.33.24-.67.39-1a14.47,14.47,0,0,0,1.11-2.73,4.56,4.56,0,0,1,.79-1.84A2,2,0,0,0,24,49.4a27.88,27.88,0,0,0,1-3.21,6.67,6.67,0,0,1,.85-2.42,4.34,4.34,0,0,0,.32-.92,9.9,9.9,0,0,1,1.11-2.32,7.71,7.71,0,0,0,.94-2.09,16.56,16.56,0,0,1,.69-1.94,5.54,5.54,0,0,0,.72-2c0-.17.16-.33.22-.51.17-.55.33-1.11.49-1.66s.43-1.25.57-1.88a9,9,0,0,1,.58-1.68c.19-.41.36-.83.53-1.25.35-.9.69-1.82,1.05-2.72.22-.55.48-1.09.69-1.64s.46-1.36.74-2a15.18,15.18,0,0,1,.9-2.22,6.73,6.73,0,0,0,.4-1c.3-.71.6-1.43.91-2.14.24-.55.52-1.07.75-1.62.3-.72.52-1.48.85-2.18a31.11,31.11,0,0,0,1.22-3.26c0-.14.17-.26.22-.41.23-.63.48-1.26.67-1.9a8.58,8.58,0,0,1,.64-1.71,8.28,8.28,0,0,1,.88-1.38c.26-.31.38-.28.62.06a15.93,15.93,0,0,1,.92,1.79c.19.39.3.82.46,1.23a6.27,6.27,0,0,0,.29.58,4.23,4.23,0,0,1,.23.41,1.72,1.72,0,0,0,.59.82,1.62,1.62,0,0,1,.56,1,4.6,4.6,0,0,0,.65,1.69A3,3,0,0,1,46.66,12a1.66,1.66,0,0,0,.33.81c.17.19.33.38.15.67a.46.46,0,0,0,0,.36c.16.32.36.61.5.94s.21.65.31,1c0,.09,0,.21.08.27.33.33.33.83.6,1.19a.32.32,0,0,1,.06.18,15,15,0,0,1,.5,2.08,6.2,6.2,0,0,0,.45,1.36c.09.28.23.54.33.82s.15.57.23.86l.15.52c.19.85.79,1.53,1,2.39a6.72,6.72,0,0,0,.45,1.28c.13.32.33.6.47.92A3.56,3.56,0,0,0,53,28.75c.07.07,0,.24.07.36a20.17,20.17,0,0,0,.94,2.6,9.78,9.78,0,0,1,.63,1.61c.1.39.17.79.26,1.19a2,2,0,0,0,.08.22,4.76,4.76,0,0,0,.38.9,14.92,14.92,0,0,1,.85,1.87,3.18,3.18,0,0,0,.61,1.09.37.37,0,0,1,.07.26,1.3,1.3,0,0,0,.4,1,5.51,5.51,0,0,1,.59.76A4.51,4.51,0,0,0,58.21,41Zm-9,12.55a.75.75,0,0,0-.23,0c-.35.1-.6-.14-.88-.25s-.19-.32-.21-.5a7.51,7.51,0,0,0-.66-1.88c-.26-.65-.5-1.32-.75-2l-.63-1.76a14.05,14.05,0,0,1-.5-1.42A14.43,14.43,0,0,0,44.65,44c-.32-.78-.68-1.54-1-2.32-.13-.3-.21-.62-.33-.92s-.37-.86-.55-1.3c-.11-.26-.19-.53-.3-.79,0-.09-.12-.22-.2-.24-.33-.06-.44-.31-.57-.57a1.11,1.11,0,0,0-1.13-.31.28.28,0,0,0-.16.16c-.11.26-.21.52-.3.79s-.27.78-.43,1.16a10.73,10.73,0,0,1-.5,1.09,6,6,0,0,0-.32,1.3c-.14.47-.13,1-.55,1.37,0,0,0,.11,0,.17-.09.51-.17,1-.27,1.52a.58.58,0,0,1-.08.22,2.88,2.88,0,0,0-.52,1.55,4.82,4.82,0,0,1-.14.74,7.64,7.64,0,0,1-.1.82c-.07.26-.22.51-.32.77a1,1,0,0,0,0,.18c0,.26,0,.54-.28.69,0,0-.06.14-.09.21-.26.62-.51,1.24-.76,1.86-.12.3-.21.62-.33.93a3.4,3.4,0,0,1-.29.57,1.55,1.55,0,0,0-.36.84,1,1,0,0,1-.17.53.44.44,0,0,0,.05.63c.17.18.31.43.61.39s.86,0,1.22-.29c.18-.51.18-.51.78-.47h.15l1.77.16a2.83,2.83,0,0,0,1.39-.1,1.15,1.15,0,0,1,1.07,0,.73.73,0,0,0,.54.08c.33,0,.68,0,1-.08a1.23,1.23,0,0,0,.55-.06c.15-.08.23-.28.34-.43l.14.49.08,0c.33-.11.7-.06,1-.3a.37.37,0,0,1,.34,0,1.67,1.67,0,0,0,1,.17c.53,0,1.06-.11,1.59-.16s.68-.1.85-.73a2.35,2.35,0,0,0,.11-.35A4.22,4.22,0,0,0,49.17,53.53ZM54.65,67l.1.07c.11-.15.32-.25.19-.54ZM69.7,107.7l-.06-.09-.07.09s0,0,.05.07ZM68.84,106s0,0,0,.06,0,0,.06.06l.07-.08Zm-51.2-7.39a.35.35,0,0,0-.08.12.15.15,0,0,0,.06,0,.41.41,0,0,0,.11-.07Z"/><path class="cls-1" d="M15.53,109.08v.51a5.21,5.21,0,0,1-.65-.15c-.07,0-.16-.13-.15-.18a.27.27,0,0,1,.18-.18C15.09,109.06,15.28,109.08,15.53,109.08Z"/><path class="cls-1" d="M64.13,54.74c-.26.34-.34.33-.63,0Z"/><path class="cls-1" d="M51.82,24c-.08,0-.12.08-.17.08s-.06-.05-.08-.08a.6.6,0,0,1,.13-.09S51.76,23.91,51.82,24Z"/><path class="cls-1" d="M63.32,52.79c-.09.05-.15.1-.18.09s-.07-.08-.08-.12.06-.08.08-.08S63.23,52.74,63.32,52.79Z"/><path class="cls-1" d="M61.25,48.45l.1,0-.09.08-.08,0Z"/><path class="cls-1" d="M49.17,53.53a4.22,4.22,0,0,1,0,.52,2.35,2.35,0,0,1-.11.35c-.17.63-.23.67-.85.73s-1.06.12-1.59.16a1.67,1.67,0,0,1-1-.17.37.37,0,0,0-.34,0c-.3.24-.67.19-1,.3l-.08,0L44,54.9c-.11.15-.19.35-.34.43a1.23,1.23,0,0,1-.55.06c-.33,0-.68,0-1,.08a.73.73,0,0,1-.54-.08,1.15,1.15,0,0,0-1.07,0,2.83,2.83,0,0,1-1.39.1l-1.77-.16H37.2c-.6,0-.6,0-.78.47-.36.31-.81.23-1.22.29s-.44-.21-.61-.39a.44.44,0,0,1-.05-.63,1,1,0,0,0,.17-.53,1.55,1.55,0,0,1,.36-.84,3.4,3.4,0,0,0,.29-.57c.12-.31.21-.63.33-.93.25-.62.5-1.24.76-1.86,0-.07,0-.18.09-.21.29-.15.25-.43.28-.69a1,1,0,0,1,0-.18c.1-.26.25-.51.32-.77a7.64,7.64,0,0,0,.1-.82,4.82,4.82,0,0,0,.14-.74,2.88,2.88,0,0,1,.52-1.55.58.58,0,0,0,.08-.22c.1-.51.18-1,.27-1.52,0-.06,0-.14,0-.17.42-.36.41-.9.55-1.37a6,6,0,0,1,.32-1.3,10.73,10.73,0,0,0,.5-1.09c.16-.38.28-.77.43-1.16s.19-.53.3-.79a.28.28,0,0,1,.16-.16,1.11,1.11,0,0,1,1.13.31c.13.26.24.51.57.57.08,0,.16.15.2.24.11.26.19.53.3.79.18.44.38.86.55,1.3s.2.62.33.92c.32.78.68,1.54,1,2.32a14.43,14.43,0,0,1,.66,1.69,14.05,14.05,0,0,0,.5,1.42l.63,1.76c.25.66.49,1.33.75,2a7.51,7.51,0,0,1,.66,1.88c0,.18,0,.41.21.5s.53.35.88.25A.75.75,0,0,1,49.17,53.53ZM42.81,42.27c-.22-.08-.39-.09-.44-.18-.22-.34-.39-.71-.58-1.07-.1-.19-.2-.38-.31-.57s-.15-.26-.33-.19a.34.34,0,0,0-.23.31,8.78,8.78,0,0,1-.26,1c-.16.54-.34,1.06-.5,1.6l-.33,1.17-.39,1.23a2.34,2.34,0,0,1-.13.4,1.55,1.55,0,0,0-.25,1,.6.6,0,0,1-.06.22c-.09.27-.21.55-.29.83-.17.59-.32,1.18-.48,1.77-.09.3-.18.61-.3.91s-.38.83-.5,1.26a1.63,1.63,0,0,1-.66.93s0,.06,0,.09l.14.64a1.77,1.77,0,0,0,.29,0c.33,0,.66,0,1,0a8.92,8.92,0,0,1,2,.11.88.88,0,0,0,.28,0h1.83l1,0a6.08,6.08,0,0,0,1.95-.19.69.69,0,0,1,.49,0,1.14,1.14,0,0,0,1-.07,5.29,5.29,0,0,0-.13-.6c-.17-.5-.37-1-.54-1.5s-.07-.9-.44-1.23c0,0,0-.12,0-.18a2.29,2.29,0,0,0-.56-1.12.91.91,0,0,1-.26-.49,8.15,8.15,0,0,0-.48-1.47c-.07-.2-.21-.39-.08-.63,0,0,0-.14-.06-.2a4.76,4.76,0,0,1-.75-1.8,3.13,3.13,0,0,0-.3-.68c-.18-.39-.35-.79-.52-1.18Zm5.85,12a.29.29,0,0,0-.08.42C48.76,54.54,48.78,54.42,48.66,54.25Z"/><path class="cls-1" d="M54.65,67l.29-.47c.13.29-.08.39-.19.54Z"/><path class="cls-1" d="M69.7,107.7l-.08.07s-.05,0-.05-.07l.07-.09Z"/><path class="cls-1" d="M68.84,106l.08,0-.07.08s0,0-.06-.06S68.83,106.06,68.84,106Z"/><path class="cls-1" d="M17.64,98.65l.09.1a.41.41,0,0,1-.11.07.15.15,0,0,1-.06,0A.35.35,0,0,1,17.64,98.65Z"/><path class="cls-1" d="M48.66,54.25c.12.17.1.29-.08.42A.29.29,0,0,1,48.66,54.25Z"/></svg>