<svg id="B" xmlns="http://www.w3.org/2000/svg" viewBox="0 0 86 112"><defs><style>.cls-1{stroke:#000;stroke-miterlimit:10;}</style></defs><path class="cls-1" d="M56.32,46.67l.42.84a1.61,1.61,0,0,1-.32.08,3.85,3.85,0,0,1-.76-.09,1.38,1.38,0,0,0-1,.2c0,.07.08.13.13.15a12,12,0,0,0,1.18.31c.54.11,1.08.17,1.62.24a13.28,13.28,0,0,1,1.54.22c.71.18,1.41.45,2.11.7.17.06.32.19.49.26l3,1.24.28.13,1.51.84c.1.05.22.07.28.15a5.7,5.7,0,0,0,1.52,1.15c.46.31,1,.6,1.42.91a3.68,3.68,0,0,1,.38.31c.24.18.48.36.71.55a6.2,6.2,0,0,1,.44.45c.09.09.18.17.26.26l.7.72.46.43.6.62s.06.12.11.14c.5.21.66.74,1,1.09A4.56,4.56,0,0,1,75.57,60c.05.12.18.2.26.31a1.21,1.21,0,0,1,.24.38.5.5,0,0,0,.24.37.59.59,0,0,1,.18.2,15.33,15.33,0,0,1,1,1.85,6.14,6.14,0,0,0,.48.7c.17.32.33.61.08,1a.59.59,0,0,0,.17.11.57.57,0,0,1,.47.6.37.37,0,0,0,.19.38A.2.2,0,0,1,79,66a6.52,6.52,0,0,0,.69,1.86c.05.16.11.32.17.47a17.43,17.43,0,0,0,.69,1.87.72.72,0,0,1,0,.22c.07.37.13.75.21,1.12.17.75.36,1.51.51,2.27a13,13,0,0,1,.13,1.4.93.93,0,0,0,.21.59.48.48,0,0,1,.09.59.72.72,0,0,0,0,.26c0,.25,0,.56-.13.75a3.19,3.19,0,0,0-.28,2.12c0,.09,0,.19,0,.27A17.47,17.47,0,0,0,81,82.31a13.51,13.51,0,0,1-.64,2c-.25.76-.5,1.53-.76,2.3a2.5,2.5,0,0,1-.09.25c-.12.3-.24.59-.37.88a5.6,5.6,0,0,1-.67,1.34,16.55,16.55,0,0,0-1,1.72,16.7,16.7,0,0,1-1.19,1.89c-.66.85-1.42,1.62-2.13,2.43-.42.47-.82,1-1.22,1.43,0,0-.05,0-.06.07-.14.55-.62.8-1,1.14s-.71.75-1.07,1.13-.48.46-.71.69-.58.59-.88.86c-.51.48-1,.93-1.55,1.4,0,0-.14.08-.17.14a1.58,1.58,0,0,1-.79.58c-.32.15-.62.33-.93.5l-1.25.65a1.29,1.29,0,0,0-.16.09c-.33.27-.56.63-1,.74a4.51,4.51,0,0,0-1.14.65,1.17,1.17,0,0,1-.38.17,1.43,1.43,0,0,0-.95.65.6.6,0,0,1-.64.34.53.53,0,0,0-.41.16,2.72,2.72,0,0,1-1,.55,2.15,2.15,0,0,0-.37.19,1.07,1.07,0,0,1-.7.28.45.45,0,0,0-.45.27c-.17.37-.56.44-.86.64-.09.06-.32,0-.46-.12-.37-.22-.73-.41-1.17-.13a.53.53,0,0,1-.26,0,4.28,4.28,0,0,0-1.83.3c-.3.15-.69.11-1,.35,0,0-.1,0-.13,0-.34-.2-.7,0-1-.06a.86.86,0,0,0-.48.23.68.68,0,0,1-.57.19,1.24,1.24,0,0,0-.61.14c-.19.09-.35.16-.54,0a.28.28,0,0,0-.41,0,.5.5,0,0,1-.56.07.19.19,0,0,0-.13,0c-.51.06-1,.14-1.53.18a4.61,4.61,0,0,1-.91,0,9.78,9.78,0,0,0-1.95,0c-.53,0-1.06.12-1.59.18a.55.55,0,0,1-.18,0,5.31,5.31,0,0,0-1.64.08,9.21,9.21,0,0,1-1,0l-2.05,0h-.68l-1,0-2.47-.06c-.19,0-.37,0-.55,0l-1.92.06c-.53,0-1.06,0-1.6,0-.27,0-.54-.05-.82-.05-1.58-.06-3.17-.11-4.75-.15-.43,0-.86.06-1.28.06a8.1,8.1,0,0,1-.86-.06,2.93,2.93,0,0,0-.41-.07c-1.14,0-2.29-.06-3.43,0a14.93,14.93,0,0,0-2.11.12,21.65,21.65,0,0,1-3.32,0c-.48,0-.95,0-1.42,0a.92.92,0,0,0-.44.22.91.91,0,0,1-.72.21c-.61-.07-1.22-.12-1.82-.2a1.22,1.22,0,0,1-.92-.81,2.73,2.73,0,0,1-.16-1.44,15,15,0,0,0,0-1.5,13.4,13.4,0,0,1,.11-1.78A4.22,4.22,0,0,0,5.75,103a2.82,2.82,0,0,1-.06-.87c0-.41.12-.82.11-1.23,0-.68-.07-1.37-.09-2,0-.47,0-1,0-1.42,0-.64.06-1.28.13-1.91a18.63,18.63,0,0,0-.07-2.24,1.13,1.13,0,0,0,0-.41,3.54,3.54,0,0,1-.1-1.45,5.12,5.12,0,0,0,0-.68,25.47,25.47,0,0,1,0-3.15,6.86,6.86,0,0,0-.09-1.69,17.53,17.53,0,0,1-.15-3.83c0-.31,0-.61,0-.92s0-.88.07-1.32a27.83,27.83,0,0,0,.22-3.65c0-.53.07-1.06.07-1.59s-.09-1-.1-1.42c0-.82,0-1.64,0-2.46,0-.49,0-1,0-1.47a21.82,21.82,0,0,1-.08-2.42c.09-1.24-.17-2.46-.14-3.7,0-1.06.08-2.13.11-3.2s0-1.95,0-2.92c0-.64,0-1.29,0-1.93s0-1.25,0-1.87.08-1.25.12-1.87a3.37,3.37,0,0,0,0-.55,9,9,0,0,1,.07-2.14,15.27,15.27,0,0,0,.15-3.38c-.07-.73,0-1.46,0-2.2,0-1,0-2,0-3a6.76,6.76,0,0,0-.11-1.49,15,15,0,0,1-.17-1.5,1.78,1.78,0,0,1,0-.46,8.07,8.07,0,0,0,0-2.14c0-.09,0-.18,0-.27,0-.43,0-.85,0-1.28a2.66,2.66,0,0,1,.09-.63,5.73,5.73,0,0,0,.15-2.22,1.23,1.23,0,0,1,0-.27c0-.79,0-1.58,0-2.37v-.05c-.23-.68,0-1.4-.12-2.09a1.87,1.87,0,0,1,0-.41c0-1,0-2,0-3,0-.5,0-1,.06-1.5a2.48,2.48,0,0,0,0-.27l-.15-2.74c-.06-1.12-.09-2.25-.19-3.37a13.51,13.51,0,0,1,.1-2.7,26.54,26.54,0,0,1,.2-2.81,3.75,3.75,0,0,0,0-.82c0-.82-.11-1.64-.1-2.47s.08-1.67.13-2.5a1.72,1.72,0,0,0-.15-.89.76.76,0,0,1,.51-1A1.84,1.84,0,0,0,7,.42.69.69,0,0,1,7.46.34,6.12,6.12,0,0,0,9.27.47a1.78,1.78,0,0,1,.46,0,12.08,12.08,0,0,0,2.55.11l.55,0A2.37,2.37,0,0,0,14,.54h.05c.75.16,1.46-.21,2.21-.18A13.72,13.72,0,0,0,18.22.26a9.73,9.73,0,0,1,2.09,0,1.88,1.88,0,0,0,.41,0,3,3,0,0,1,1.22.08,1.2,1.2,0,0,0,.5,0c.21,0,.43-.18.63,0,0,0,.14,0,.21,0l.86-.08c.31,0,.63-.07.95-.09s.67,0,1,0c.59,0,1.18,0,1.77,0a18.51,18.51,0,0,1,2,0c1.23.08,2.46.1,3.69.13.23,0,.46-.06.69,0L37,.39c.5,0,1,0,1.5,0s.84.09,1.27.13c.69.07,1.39.13,2.09.22a3.32,3.32,0,0,1,.59.18L42.8,1l1.07.17c.34.06.68.13,1,.17a19.62,19.62,0,0,1,2.16.58h.05a32.44,32.44,0,0,1,3.47,1,3.48,3.48,0,0,1,1.5.66,1.64,1.64,0,0,0,.33.14l.84.35.64.23a8.89,8.89,0,0,1,1,.38c.56.27,1.08.6,1.64.88s.9.38,1.35.56a.2.2,0,0,0,.17,0c.18-.09.28,0,.4.11s.41.31.62.47a.58.58,0,0,1,.2.18,1.36,1.36,0,0,0,.81.62,3.92,3.92,0,0,1,1.28.85,5.08,5.08,0,0,0,.68.46,3.13,3.13,0,0,1,.88.78.9.9,0,0,0,.19.2,3,3,0,0,1,.76.83c.08.16.28.27.42.4a4.72,4.72,0,0,1,1.09,1.34,2,2,0,0,0,.69.89.79.79,0,0,1,.24.27c.27.34.55.69.8,1a4.13,4.13,0,0,1,.45.79c.26.57.51,1.14.73,1.73a26.15,26.15,0,0,0,1,2.64,5.89,5.89,0,0,1,.51,2.2.06.06,0,0,1,0,0,11.19,11.19,0,0,0,.08,2.65c0,.68,0,1.37,0,2.05s-.06,1.21-.07,1.82c0,.42-.12.84-.18,1.25,0,.21-.06.42-.08.63s0,.31-.06.46-.07.15-.06.21a6.63,6.63,0,0,1-.67,2.8c-.08.25-.3.46-.4.7a5.07,5.07,0,0,0-.35,1A5.47,5.47,0,0,1,67.29,37a2.92,2.92,0,0,1-.77.94,2.06,2.06,0,0,0-.48.61,5.84,5.84,0,0,1-1.59,1.62,4.51,4.51,0,0,0-.51.47,15.17,15.17,0,0,0-1.45,1.64,3.13,3.13,0,0,1-.59.56c-.87.68-1.73,1.35-2.61,2A14.08,14.08,0,0,1,57.4,46C57,46.19,56.69,46.44,56.32,46.67ZM79.11,70.18a.74.74,0,0,1-.52-.64c0-.11-.09-.2-.1-.31-.08-.56-.56-1-.48-1.62,0,0,0,0,0-.08a10.9,10.9,0,0,1-.49-1,10.63,10.63,0,0,0-1-2.2c-.39-.67-.82-1.32-1.2-2-.46-.83-1.09-1.54-1.62-2.31a4.54,4.54,0,0,0-.55-.68c-.72-.74-1.46-1.45-2.19-2.19-.2-.2-.35-.46-.56-.65-.49-.43-1-.84-1.52-1.24s-.75-.58-1.14-.84c-.23-.16-.52-.25-.75-.42-.53-.36-1-.76-1.55-1.13a2.07,2.07,0,0,0-.35-.22l-1-.47c-1-.43-2-.87-3-1.27a16.75,16.75,0,0,0-3.8-1c-.73-.11-1.44-.28-2.16-.43l-1.36-.33c-.26-.06-.52-.07-.77-.12a2.74,2.74,0,0,0-1.14,0,1.54,1.54,0,0,1-1.28-.36.66.66,0,0,1-.17-.82,1.34,1.34,0,0,1,.73-.73,8.08,8.08,0,0,1,1.51-.61,6.6,6.6,0,0,0,1.46-.62c.3-.14.6-.28.89-.44s.53-.35.81-.52c.47-.27,1-.52,1.42-.82a8.43,8.43,0,0,0,.74-.6c.75-.53,1.51-1,2.26-1.56a11.69,11.69,0,0,0,1-.77c.74-.65,1.26-1.52,2.07-2.12a.83.83,0,0,0,.15-.17l1.47-1.74c.1-.12.23-.2.34-.31s.28-.2.35-.33c.19-.37.59-.59.64-1,0,0,.08-.08.11-.14a2.67,2.67,0,0,0,.25-.43,9,9,0,0,1,1-2.11,1,1,0,0,0,.15-.38c.11-.56.23-1.11.33-1.66a27,27,0,0,0,.55-3.89c0-.43,0-.86,0-1.28s0-1.07,0-1.6a2.78,2.78,0,0,0-.38-1.62.9.9,0,0,1-.11-.44,9.33,9.33,0,0,0-.43-2.1,3.25,3.25,0,0,1-.12-.54c0-.13-.07-.27-.12-.39-.32-.72-.65-1.44-1-2.17a6,6,0,0,0-1.22-2.16c-.51-.51-.87-1.18-1.35-1.73-.83-1-1.71-1.87-2.56-2.79l-.21-.18C60.13,9.2,59.21,8.57,58.28,8a5.94,5.94,0,0,1-.57-.27,7.29,7.29,0,0,0-1.5-.76c-.57-.27-1.15-.5-1.71-.77a10.4,10.4,0,0,0-1.69-.79c-.3-.09-.58-.2-.87-.31-.86-.33-1.69-.75-2.59-1-.5-.13-1-.35-1.48-.49-.7-.2-1.42-.37-2.12-.56a18,18,0,0,0-2.12-.57c-1.53-.22-3.06-.35-4.6-.5-.62-.05-1.24-.05-1.87-.07-1.33-.05-2.65-.12-4-.14a11,11,0,0,1-1.82-.09,7.2,7.2,0,0,0-1.14-.09c-1.07,0-2.13.06-3.2.08H25.46a7,7,0,0,0-1.77,0,2,2,0,0,1-.77,0A8,8,0,0,0,21,1.51a3,3,0,0,1-1.75-.13,2.75,2.75,0,0,1-.46.13c-.36,0-.72.06-1.09.07s-.81,0-1.22,0c-.17,0-.34,0-.51,0-.67,0-1.33.08-2,.1-.32,0-.64,0-1,0s-.88.08-1.32.08a8.58,8.58,0,0,1-1.68,0,8.67,8.67,0,0,0-2.33,0c-.36,0-.39.07-.4.42s0,.55,0,.82a.79.79,0,0,0,.08.58.25.25,0,0,1,0,.25C7,4.19,7.15,4.63,7.08,5a8.07,8.07,0,0,0,.14,1.89,13.53,13.53,0,0,1,0,1.91,3.17,3.17,0,0,0,.08,1.4.88.88,0,0,1,0,.47,3.08,3.08,0,0,0-.19.56C7,12.37,7,13.49,7,14.62A6.07,6.07,0,0,0,7.08,16a4.8,4.8,0,0,1,.06,1.31c0,.33,0,.67,0,1s.09.63.09.95c0,1,0,2,0,3,0,.38.06.75,0,1.13s-.07.82-.08,1.23,0,.88,0,1.32,0,1.16,0,1.73a13.42,13.42,0,0,0,0,1.42,14.39,14.39,0,0,1-.06,3.47,17.42,17.42,0,0,0-.06,2,10.67,10.67,0,0,1,0,1.13A3.87,3.87,0,0,1,7,37.05c0,.08,0,.21,0,.31.09.66.21,1.32.28,2s.09,1.28.1,1.92c0,.48,0,1,0,1.46,0,1,0,2,0,3.05a.68.68,0,0,0,0,.14,7.58,7.58,0,0,1,0,2.18c0,.41-.12.82-.13,1.23s0,.94,0,1.41c0,1,0,2-.06,3.06a.86.86,0,0,1,0,.32,2.16,2.16,0,0,0-.07,1c0,.28,0,.57,0,.86,0,.6-.07,1.19-.09,1.78a2.81,2.81,0,0,0,0,.82,7.24,7.24,0,0,1,0,1.86c0,.6-.1,1.21-.12,1.82s.1,1,.06,1.46a11.6,11.6,0,0,0,.07,1.77c0,.34.06.67.06,1a15.06,15.06,0,0,0,.18,3.55.27.27,0,0,1,0,.09c0,.68-.06,1.36,0,2,0,.89.1,1.77.12,2.66a18.3,18.3,0,0,1,0,3,1.8,1.8,0,0,0,0,.4c0,.16,0,.31,0,.46-.07.94-.15,1.89-.21,2.83,0,.25.06.51.06.77,0,.65,0,1.3,0,1.95a8.48,8.48,0,0,0,.06.87,10,10,0,0,1,.19,3.13,2.93,2.93,0,0,0,0,.41,6.69,6.69,0,0,1,0,1,8.37,8.37,0,0,0,.18,2.91,1.77,1.77,0,0,1,0,.45,8.28,8.28,0,0,0,.17,2.81.82.82,0,0,1,0,.31,5.07,5.07,0,0,0-.09.54c0,.49-.1,1-.11,1.46,0,.87,0,1.73,0,2.6,0,.54,0,1.07,0,1.6s0,.79,0,1.19,0,.94.08,1.41c0,.21,0,.42,0,.63,0,.75.1,1.5.15,2.27a1.08,1.08,0,0,0,.88-.07,1.61,1.61,0,0,1,1.24,0,.52.52,0,0,0,.26.06c.65,0,1.3-.11,1.95-.15,1,0,1.93-.08,2.89-.12l.4,0c.26,0,.52,0,.78,0l1.1,0c.36,0,.73.06,1.09.07s.76,0,1.19,0c-.14-.59-.3-1.15.36-1.5.59.36.39.87.22,1.38a5.48,5.48,0,0,0,2.12.19,1.89,1.89,0,0,1,.41,0,7.93,7.93,0,0,0,1.54.11c.77,0,1.53.07,2.29.07,1.13,0,2.26,0,3.39,0s2.23,0,3.35,0,2.22-.07,3.33-.11a1.85,1.85,0,0,1,.41,0,17.07,17.07,0,0,0,2.37.08,9,9,0,0,0,1.46,0c.39,0,.79,0,1.18-.06a11.66,11.66,0,0,1,2.05-.17,7.79,7.79,0,0,0,1.35-.17c1.28-.19,2.57-.37,3.85-.57.3,0,.58-.17.88-.22.57-.11,1.14-.19,1.71-.29.3,0,.59-.14.89-.18a3.46,3.46,0,0,0,1.54-.4.35.35,0,0,1,.17-.06,3.81,3.81,0,0,0,1.36-.36c.68-.25,1.4-.42,2.06-.73a22.94,22.94,0,0,0,3.09-1.35.28.28,0,0,1,.13,0,4.57,4.57,0,0,0,1.55-.76c.78-.4,1.54-.87,2.31-1.29a7.69,7.69,0,0,0,1.74-1.25,1.58,1.58,0,0,1,.31-.27,6.27,6.27,0,0,0,1.59-1.36,5.61,5.61,0,0,1,.47-.62c.58-.58,1.19-1.13,1.78-1.7s.82-.91,1.3-1.31l0-.07c.67-.79,1.32-1.6,2-2.37a16,16,0,0,0,1.6-2.06,17.43,17.43,0,0,1,1.27-2.22s0-.08.05-.12c.18-.37.38-.73.55-1.11a7.71,7.71,0,0,0,.33-.84A8.7,8.7,0,0,1,79,83.65a2.53,2.53,0,0,0,.34-.89c.14-.74.25-1.49.35-2.25s.13-1.27.16-1.91a2.22,2.22,0,0,0-.13-.61,1.07,1.07,0,0,1-.09-.34,10.2,10.2,0,0,0,0-2.14,1.27,1.27,0,0,1,0-.27c0-.22,0-.45,0-.67s-.12-.51-.14-.77c0-.51,0-1-.07-1.55a1.7,1.7,0,0,0,0-.22c-.14-.56-.29-1.11-.44-1.67ZM32.34,1a.64.64,0,0,0,.54.14C32.75.9,32.75.9,32.34,1Zm2.2.09h.08a1.34,1.34,0,0,0,0-.2h-.08Zm-.39,0,0-.13-.26,0,0,.09ZM32,1.14l.1-.1L32,1s0,0,0,.05Z"/><path class="cls-1" d="M54.28,109.42a.56.56,0,0,1,.71-.06C54.77,109.59,54.57,109.55,54.28,109.42Z"/><path class="cls-1" d="M56,109h.39C56.25,109.25,56.14,109.26,56,109Z"/><path class="cls-1" d="M79.11,70.18l-.2.18c.15.56.3,1.11.44,1.67a1.7,1.7,0,0,1,0,.22c0,.52,0,1,.07,1.55,0,.26.1.51.14.77s0,.45,0,.67a1.27,1.27,0,0,0,0,.27,10.2,10.2,0,0,1,0,2.14,1.07,1.07,0,0,0,.09.34,2.22,2.22,0,0,1,.13.61c0,.64-.08,1.28-.16,1.91s-.21,1.51-.35,2.25a2.53,2.53,0,0,1-.34.89,8.7,8.7,0,0,0-.82,2.12,7.71,7.71,0,0,1-.33.84c-.17.38-.37.74-.55,1.11,0,0,0,.09-.05.12a17.43,17.43,0,0,0-1.27,2.22,16,16,0,0,1-1.6,2.06c-.69.77-1.34,1.58-2,2.37l0,.07c-.48.4-.85.89-1.3,1.31s-1.2,1.12-1.78,1.7a5.61,5.61,0,0,0-.47.62,6.27,6.27,0,0,1-1.59,1.36,1.58,1.58,0,0,0-.31.27,7.69,7.69,0,0,1-1.74,1.25c-.77.42-1.53.89-2.31,1.29a4.57,4.57,0,0,1-1.55.76.28.28,0,0,0-.13,0A22.94,22.94,0,0,1,58,104.51c-.66.31-1.38.48-2.06.73a3.81,3.81,0,0,1-1.36.36.35.35,0,0,0-.17.06,3.46,3.46,0,0,1-1.54.4c-.3,0-.59.13-.89.18-.57.1-1.14.18-1.71.29-.3,0-.58.18-.88.22-1.28.2-2.57.38-3.85.57a7.79,7.79,0,0,1-1.35.17,11.66,11.66,0,0,0-2.05.17c-.39,0-.79,0-1.18.06a9,9,0,0,1-1.46,0,17.07,17.07,0,0,1-2.37-.08,1.85,1.85,0,0,0-.41,0c-1.11,0-2.22.1-3.33.11s-2.23,0-3.35,0-2.26,0-3.39,0c-.76,0-1.52-.07-2.29-.07a7.93,7.93,0,0,1-1.54-.11,1.89,1.89,0,0,0-.41,0,5.48,5.48,0,0,1-2.12-.19c.17-.51.37-1-.22-1.38-.66.35-.5.91-.36,1.5-.43,0-.81,0-1.19,0s-.73-.05-1.09-.07l-1.1,0c-.26,0-.52,0-.78,0l-.4,0c-1,0-1.93.07-2.89.12-.65,0-1.3.11-1.95.15a.52.52,0,0,1-.26-.06,1.61,1.61,0,0,0-1.24,0,1.08,1.08,0,0,1-.88.07c-.05-.77-.1-1.52-.15-2.27,0-.21,0-.42,0-.63,0-.47-.06-.94-.08-1.41s0-.79,0-1.19,0-1.06,0-1.6c0-.87,0-1.73,0-2.6,0-.49.06-1,.11-1.46a5.07,5.07,0,0,1,.09-.54.82.82,0,0,0,0-.31A8.28,8.28,0,0,1,7.7,93a1.77,1.77,0,0,0,0-.45,8.37,8.37,0,0,1-.18-2.91,6.69,6.69,0,0,0,0-1,2.93,2.93,0,0,1,0-.41,10,10,0,0,0-.19-3.13,8.48,8.48,0,0,1-.06-.87c0-.65,0-1.3,0-1.95,0-.26-.08-.52-.06-.77.06-.94.14-1.89.21-2.83,0-.15,0-.3,0-.46a1.8,1.8,0,0,1,0-.4,18.3,18.3,0,0,0,0-3c0-.89-.1-1.77-.12-2.66,0-.68,0-1.36,0-2a.27.27,0,0,0,0-.09,15.06,15.06,0,0,1-.18-3.55c0-.34-.05-.67-.06-1A11.6,11.6,0,0,1,7,63.75c0-.48-.07-1-.06-1.46s.14-1.22.12-1.82a7.24,7.24,0,0,0,0-1.86,2.81,2.81,0,0,1,0-.82c0-.59.07-1.18.09-1.78,0-.29,0-.58,0-.86a2.16,2.16,0,0,1,.07-1,.86.86,0,0,0,0-.32c0-1,0-2,.06-3.06,0-.47,0-.94,0-1.41s.09-.82.13-1.23a7.58,7.58,0,0,0,0-2.18.68.68,0,0,1,0-.14c0-1,0-2,0-3.05,0-.49,0-1,0-1.46,0-.64,0-1.28-.1-1.92S7.12,38,7,37.36c0-.1-.08-.23,0-.31a3.87,3.87,0,0,0,.17-1.31,10.67,10.67,0,0,0,0-1.13,17.42,17.42,0,0,1,.06-2,14.39,14.39,0,0,0,.06-3.47,13.42,13.42,0,0,1,0-1.42c0-.57,0-1.15,0-1.73s0-.88,0-1.32.07-.82.08-1.23,0-.75,0-1.13c0-1,0-2,0-3,0-.32-.07-.64-.09-.95s0-.67,0-1A4.8,4.8,0,0,0,7.08,16,6.07,6.07,0,0,1,7,14.62c0-1.13,0-2.25.09-3.37a3.08,3.08,0,0,1,.19-.56.88.88,0,0,0,0-.47,3.17,3.17,0,0,1-.08-1.4,13.53,13.53,0,0,0,0-1.91A8.07,8.07,0,0,1,7.08,5c.07-.39-.06-.83.25-1.18a.25.25,0,0,0,0-.25A.79.79,0,0,1,7.26,3c0-.27,0-.55,0-.82s0-.39.4-.42a8.67,8.67,0,0,1,2.33,0,8.58,8.58,0,0,0,1.68,0c.44,0,.88-.06,1.32-.08s.64,0,1,0c.67,0,1.33-.07,2-.1.17,0,.34,0,.51,0,.41,0,.82,0,1.22,0s.73,0,1.09-.07a2.75,2.75,0,0,0,.46-.13A3,3,0,0,0,21,1.51a8,8,0,0,1,1.9.11,2,2,0,0,0,.77,0,7,7,0,0,1,1.77,0H27c1.07,0,2.13-.07,3.2-.08a7.2,7.2,0,0,1,1.14.09,11,11,0,0,0,1.82.09c1.33,0,2.65.09,4,.14.63,0,1.25,0,1.87.07,1.54.15,3.07.28,4.6.5A18,18,0,0,1,45.75,3c.7.19,1.42.36,2.12.56.5.14,1,.36,1.48.49.9.25,1.73.67,2.59,1,.29.11.57.22.87.31a10.4,10.4,0,0,1,1.69.79c.56.27,1.14.5,1.71.77a7.29,7.29,0,0,1,1.5.76,5.94,5.94,0,0,0,.57.27c.93.62,1.85,1.25,2.77,1.88l.21.18c.85.92,1.73,1.84,2.56,2.79.48.55.84,1.22,1.35,1.73a6,6,0,0,1,1.22,2.16c.31.73.64,1.45,1,2.17.05.12.08.26.12.39a3.25,3.25,0,0,0,.12.54,9.33,9.33,0,0,1,.43,2.1.9.9,0,0,0,.11.44A2.78,2.78,0,0,1,68.51,24c0,.53,0,1.06,0,1.6s0,.85,0,1.28A27,27,0,0,1,68,30.72c-.1.55-.22,1.1-.33,1.66a1,1,0,0,1-.15.38,9,9,0,0,0-1,2.11,2.67,2.67,0,0,1-.25.43c0,.06-.1.09-.11.14,0,.45-.45.67-.64,1-.07.13-.23.22-.35.33s-.24.19-.34.31l-1.47,1.74a.83.83,0,0,1-.15.17c-.81.6-1.33,1.47-2.07,2.12a11.69,11.69,0,0,1-1,.77c-.75.53-1.51,1-2.26,1.56a8.43,8.43,0,0,1-.74.6c-.46.3-1,.55-1.42.82-.28.17-.53.37-.81.52s-.59.3-.89.44a6.6,6.6,0,0,1-1.46.62,8.08,8.08,0,0,0-1.51.61,1.34,1.34,0,0,0-.73.73.66.66,0,0,0,.17.82,1.54,1.54,0,0,0,1.28.36A2.74,2.74,0,0,1,53,49c.25.05.51.06.77.12l1.36.33c.72.15,1.43.32,2.16.43a16.75,16.75,0,0,1,3.8,1c1,.4,2,.84,3,1.27l1,.47a2.07,2.07,0,0,1,.35.22c.52.37,1,.77,1.55,1.13.23.17.52.26.75.42.39.26.77.55,1.14.84s1,.81,1.52,1.24c.21.19.36.45.56.65.73.74,1.47,1.45,2.19,2.19a4.54,4.54,0,0,1,.55.68c.53.77,1.16,1.48,1.62,2.31.38.67.81,1.32,1.2,2a10.63,10.63,0,0,1,1,2.2,10.9,10.9,0,0,0,.49,1s0,0,0,.08c-.08.61.4,1.06.48,1.62,0,.11.08.2.1.31A.74.74,0,0,0,79.11,70.18ZM21,58.26v-.09c-.53.09-1,.16-1.57.28a.61.61,0,0,0-.41.32,2.51,2.51,0,0,0-.09,1.62,3.53,3.53,0,0,1,.18,1.43c0,.71-.06,1.41-.07,2.11,0,1.17,0,2.35-.05,3.52a15,15,0,0,0-.07,2.92,1.76,1.76,0,0,1,0,.23c0,.55,0,1.1,0,1.64,0,.37,0,.74,0,1.1,0,1.13,0,2.26,0,3.39,0,.56.05,1.13,0,1.69,0,1.33-.11,2.66-.16,4,0,.63,0,1.25,0,1.88,0,1,.07,1.91.1,2.87s.09,2.2.12,3.29c0,.89,0,1.77,0,2.66,0,.44,0,.88,0,1.32a.89.89,0,0,0,.66.89,1.91,1.91,0,0,0,.53.1,2.36,2.36,0,0,1,1,.2.59.59,0,0,0,.47,0,1.52,1.52,0,0,1,.88-.19c.35,0,.7,0,1.05,0a43.71,43.71,0,0,1,5.12.11c.84.08,1.68.15,2.51.2.58,0,1.16.07,1.74.08.82,0,1.65,0,2.47,0h3c.68,0,1.37,0,2.05,0s1.31-.12,2-.1A8,8,0,0,0,45,95.41a2.7,2.7,0,0,1,.41-.07c.69-.1,1.39-.19,2.08-.3a12.35,12.35,0,0,1,2.5-.27,1.07,1.07,0,0,0,.35-.06c.43-.11.84-.28,1.27-.35A5.59,5.59,0,0,0,53.07,94,4.84,4.84,0,0,1,54,93.6a7.5,7.5,0,0,0,2.36-.93.78.78,0,0,1,.2-.11,2,2,0,0,0,1.11-.6s.1,0,.16-.08c.38-.15.75-.34,1.14-.45A5.93,5.93,0,0,0,61.19,90c.17-.16.36-.3.51-.46a7.11,7.11,0,0,1,1.18-1.08.58.58,0,0,0,.18-.2,3.74,3.74,0,0,1,1.15-1.16,2.34,2.34,0,0,0,1.06-1.33.3.3,0,0,1,.08-.16,5.92,5.92,0,0,0,.88-1.44c.16-.3.35-.57.51-.86a10.18,10.18,0,0,1,.58-1A2,2,0,0,0,67.66,81a6.64,6.64,0,0,1,.06-1.09,5.12,5.12,0,0,0,.06-1.41c-.06-.73-.11-1.46-.14-2.19a5.5,5.5,0,0,0-.33-1.65c-.23-.65-.45-1.3-.63-2a10.18,10.18,0,0,0-.66-2c-.07-.15-.13-.31-.19-.46a11.66,11.66,0,0,0-.78-1.85,16.75,16.75,0,0,0-1.46-1.81c-.21-.26-.45-.5-.67-.74a3.22,3.22,0,0,0-.24-.28c-.61-.64-1.25-1.25-1.84-1.91a3.76,3.76,0,0,0-1.31-.89l-2.29-1.13a1.22,1.22,0,0,1-.19-.12,11.33,11.33,0,0,0-1.44-.88,17.9,17.9,0,0,0-3.33-1.28c-.16,0-.32-.11-.48-.16-.67-.2-1.33-.45-2-.59-1.2-.23-2.41-.38-3.61-.59a8.6,8.6,0,0,0-1.52-.24c-1.49,0-3,0-4.49-.06H38.38c-1,0-2,0-3,0-.61,0-1.22.12-1.83.15-.85,0-1.71.05-2.56.08l-.87,0c-1.23.07-2.47.18-3.7.22-.79,0-1.58-.06-2.38-.09l-.27,0a4.55,4.55,0,0,1-.63.09C22.44,58.25,21.71,58.25,21,58.26ZM34.56,46c.55-.06,1.13-.12,1.7-.2s1-.13,1.44-.23,1.22-.27,1.82-.43a10.39,10.39,0,0,0,1.73-.42c.43-.19.87-.37,1.31-.54a6.24,6.24,0,0,0,.94-.35c.8-.45,1.59-.9,2.42-1.29A26.69,26.69,0,0,0,48.58,41,7.28,7.28,0,0,0,50.2,39.8a3.2,3.2,0,0,1,.61-.61,5.45,5.45,0,0,0,1.42-1.53,1.61,1.61,0,0,1,.25-.32,14.37,14.37,0,0,0,1.8-2.24,1.64,1.64,0,0,0,.23-.63,7.55,7.55,0,0,1,.22-1.17,5.86,5.86,0,0,0,.32-1.23,2.18,2.18,0,0,1,.11-.44,7.33,7.33,0,0,0,.42-1.91.69.69,0,0,0-.07-.3,7,7,0,0,1-.18-.79,3.38,3.38,0,0,0-.13-.94,1.93,1.93,0,0,1-.1-.72,4,4,0,0,0-.08-1.2,4.3,4.3,0,0,0-.79-2,.76.76,0,0,1-.12-.19,6.68,6.68,0,0,0-1-1.7,16.44,16.44,0,0,1-1.15-1.67c-.14-.2-.31-.38-.45-.57l-.52-.75a14,14,0,0,0-1.87-1.73,1.92,1.92,0,0,0-.31-.18c-.16-.09-.32-.17-.48-.27s-.38-.3-.59-.42c-.39-.22-.8-.41-1.19-.64a7,7,0,0,0-1.82-.83c-.79-.19-1.59-.31-2.36-.54a13.47,13.47,0,0,0-2.51-.51,13.74,13.74,0,0,0-2.73-.42,8.56,8.56,0,0,1-1.59-.11c-.59,0-1.18-.13-1.77-.17C32.91,13,32.11,13,31.3,13l-.95,0a1.16,1.16,0,0,0-.37,0,7.19,7.19,0,0,1-2.22,0,7.2,7.2,0,0,0-1.23,0c-.28,0-.57,0-.86,0a1.93,1.93,0,0,0-.41,0,5.79,5.79,0,0,1-1.76.13,11.83,11.83,0,0,0-3.41.21,1,1,0,0,0-.29.11,3.58,3.58,0,0,1-.42.25.85.85,0,0,0-.63,1,1.13,1.13,0,0,0,0,.18c0,.3.06.61.08.91s.06.79.07,1.18a2.44,2.44,0,0,1,0,.81,4.92,4.92,0,0,0-.05,1.53,10.17,10.17,0,0,1,0,1.46c-.17,1.28.1,2.55,0,3.83,0,.65.07,1.31,0,2a19.41,19.41,0,0,0,0,2.29A19,19,0,0,1,19,32.23c0,.35-.08.7-.1,1.05,0,.67,0,1.34-.07,2,0,.28-.08.55-.08.82,0,.77,0,1.53,0,2.29,0,2.09.05,4.17.08,6.26a1.72,1.72,0,0,0,.12.58.46.46,0,0,0,.22.27,2,2,0,0,0,.74.21,8.45,8.45,0,0,1,1.52.24,1.35,1.35,0,0,0,.4,0,7.75,7.75,0,0,1,1-.07c1,0,2.06.16,3.1.12.71,0,1.43.06,2.14.05.93,0,1.86-.06,2.79-.09a8.46,8.46,0,0,0,2.19-.1h.09Zm4.35,7.52c.3.2.49.26.66.15a.69.69,0,0,1,.52,0c.12,0,.25.07.32-.16A3.6,3.6,0,0,0,38.91,53.47Zm-2.35.06a.29.29,0,0,0-.42-.05.18.18,0,0,0,0,.16C36.29,53.77,36.43,53.75,36.56,53.53Zm-.86.11,0-.11-.18,0s0,.08,0,.11Zm-.48-.08c-.12,0-.17,0-.19,0a.29.29,0,0,0-.07.12l0,0Zm-2,.09a.48.48,0,0,0-.11-.08s-.06,0-.06,0,0,.08.06.09S33.15,53.68,33.2,53.65Zm8.53-.14-.11,0s0,0,0,.06l.11,0S41.71,53.54,41.73,53.51Z"/><path class="cls-1" d="M32.34,1c.41-.13.41-.13.54.14A.64.64,0,0,1,32.34,1Z"/><path class="cls-1" d="M34.54,1.12V.92h.08a1.34,1.34,0,0,1,0,.2Z"/><path class="cls-1" d="M34.15,1.08,33.9,1l0-.09.26,0Z"/><path class="cls-1" d="M32,1.14l-.1-.1S32,1,32,1l.15.05Z"/><path class="cls-1" d="M21,58.26c.73,0,1.46,0,2.19,0a4.55,4.55,0,0,0,.63-.09l.27,0c.8,0,1.59.11,2.38.09,1.23,0,2.47-.15,3.7-.22L31,58c.85,0,1.71,0,2.56-.08.61,0,1.22-.14,1.83-.15,1,0,2,0,3,0h1.78c1.5,0,3,.07,4.49.06a8.6,8.6,0,0,1,1.52.24c1.2.21,2.41.36,3.61.59.69.14,1.35.39,2,.59.16,0,.32.12.48.16a17.9,17.9,0,0,1,3.33,1.28,11.33,11.33,0,0,1,1.44.88,1.22,1.22,0,0,0,.19.12l2.29,1.13a3.76,3.76,0,0,1,1.31.89c.59.66,1.23,1.27,1.84,1.91a3.22,3.22,0,0,1,.24.28c.22.24.46.48.67.74a16.75,16.75,0,0,1,1.46,1.81,11.66,11.66,0,0,1,.78,1.85c.06.15.12.31.19.46a10.18,10.18,0,0,1,.66,2c.18.66.4,1.31.63,2a5.5,5.5,0,0,1,.33,1.65c0,.73.08,1.46.14,2.19a5.12,5.12,0,0,1-.06,1.41A6.64,6.64,0,0,0,67.66,81a2,2,0,0,1-.34,1.26,10.18,10.18,0,0,0-.58,1c-.16.29-.35.56-.51.86a5.92,5.92,0,0,1-.88,1.44.3.3,0,0,0-.08.16,2.34,2.34,0,0,1-1.06,1.33,3.74,3.74,0,0,0-1.15,1.16.58.58,0,0,1-.18.2,7.11,7.11,0,0,0-1.18,1.08c-.15.16-.34.3-.51.46a5.93,5.93,0,0,1-2.26,1.48c-.39.11-.76.3-1.14.45-.06,0-.13,0-.16.08a2,2,0,0,1-1.11.6.78.78,0,0,0-.2.11A7.5,7.5,0,0,1,54,93.6a4.84,4.84,0,0,0-.89.35,5.59,5.59,0,0,1-1.45.41c-.43.07-.84.24-1.27.35a1.07,1.07,0,0,1-.35.06,12.35,12.35,0,0,0-2.5.27c-.69.11-1.39.2-2.08.3a2.7,2.7,0,0,0-.41.07,8,8,0,0,1-2.58.24c-.66,0-1.31.07-2,.1s-1.37,0-2.05,0h-3c-.82,0-1.65,0-2.47,0-.58,0-1.16,0-1.74-.08-.83,0-1.67-.12-2.51-.2a43.71,43.71,0,0,0-5.12-.11c-.35,0-.7,0-1.05,0a1.52,1.52,0,0,0-.88.19.59.59,0,0,1-.47,0,2.36,2.36,0,0,0-1-.2,1.91,1.91,0,0,1-.53-.1.89.89,0,0,1-.66-.89c0-.44,0-.88,0-1.32,0-.89,0-1.77,0-2.66,0-1.09-.08-2.19-.12-3.29s-.07-1.91-.1-2.87c0-.63,0-1.25,0-1.88.05-1.32.12-2.65.16-4,0-.56,0-1.13,0-1.69,0-1.13,0-2.26,0-3.39,0-.36,0-.73,0-1.1,0-.54,0-1.09,0-1.64a1.76,1.76,0,0,0,0-.23A15,15,0,0,1,19,67.45c0-1.17,0-2.35.05-3.52,0-.7,0-1.4.07-2.11a3.53,3.53,0,0,0-.18-1.43A2.51,2.51,0,0,1,19,58.77a.61.61,0,0,1,.41-.32c.52-.12,1-.19,1.57-.28ZM20.93,92h0c0,.35,0,.7,0,1,0,.19.06.4.28.41a8.6,8.6,0,0,0,1.95.19,2.88,2.88,0,0,1,.41,0h3.26c.79,0,1.59,0,2.38,0s1.63.19,2.44.34a21.55,21.55,0,0,0,4.25.08c.66,0,1.32-.13,2-.1s1.49-.09,2.24-.09a40.43,40.43,0,0,0,5.61-.34,2.77,2.77,0,0,0,.5-.1,7.05,7.05,0,0,1,1.94-.28c.3,0,.61,0,.91-.06a4.94,4.94,0,0,0,1.42-.31c.32-.13.69-.14,1-.24.72-.21,1.44-.43,2.14-.67A5.31,5.31,0,0,0,55,91.33a7.88,7.88,0,0,1,1.69-.91,8.75,8.75,0,0,0,.83-.37c.42-.21.84-.44,1.25-.66a5.67,5.67,0,0,0,.79-.47c.48-.39,1-.79,1.42-1.22s1-1,1.48-1.44a6.71,6.71,0,0,0,.71-.7,16,16,0,0,0,1.19-1.94A5.5,5.5,0,0,0,65,81.94c.13-.6.35-1.17.53-1.75a1,1,0,0,1,.11-.3,1.63,1.63,0,0,0,.31-1.12c0-.8,0-1.59-.06-2.38a3.07,3.07,0,0,0-.29-1.33,2,2,0,0,1-.14-.48,17.13,17.13,0,0,0-1.22-4,9.77,9.77,0,0,0-1-1.89,11.17,11.17,0,0,0-1.14-1.24c-.55-.56-1-1.18-1.64-1.71-.36-.32-.64-.73-1-1.07a2.76,2.76,0,0,0-.61-.47c-.76-.39-1.54-.75-2.29-1.16a24,24,0,0,0-2.45-1.32A10.44,10.44,0,0,0,51,60.63a.6.6,0,0,1-.22-.06,20.14,20.14,0,0,0-3.69-.84c-.59-.12-1.18-.18-1.76-.31a6.55,6.55,0,0,0-1.71-.13c-1.16.05-2.32,0-3.48,0-.89,0-1.77-.12-2.65-.1s-1.8.13-2.7.2l-1.37.07L31,59.59l-1.1.07c-1,0-2,.1-3.06.11s-1.94,0-2.92,0c-.53,0-1.06,0-1.59,0s-1,0-1.47,0-.5.16-.34.55a2.5,2.5,0,0,1,.19.66,4,4,0,0,1,0,1.62,1,1,0,0,0,0,.22c0,.2.05.41.06.62,0,.76.05,1.52,0,2.28a8.18,8.18,0,0,1,0,1.4,9.7,9.7,0,0,0-.15,1.32,4.26,4.26,0,0,0,0,1.18,4.73,4.73,0,0,1,.05,1c0,1,0,2,0,3.06s0,1.84,0,2.75c0,.38.07.76.06,1.14,0,.76-.09,1.53-.11,2.29,0,1.26,0,2.53,0,3.79,0,.54,0,1.07,0,1.6a9.07,9.07,0,0,0,.06.91c0,.34.1.67.11,1,0,.5,0,1,0,1.51C20.77,89.78,20.86,90.89,20.93,92Z"/><path class="cls-1" d="M34.56,46l-1.44-.1H33a8.46,8.46,0,0,1-2.19.1c-.93,0-1.86.08-2.79.09-.71,0-1.43-.09-2.14-.05-1,0-2.07-.07-3.1-.12a7.75,7.75,0,0,0-1,.07,1.35,1.35,0,0,1-.4,0,8.45,8.45,0,0,0-1.52-.24,2,2,0,0,1-.74-.21.46.46,0,0,1-.22-.27,1.72,1.72,0,0,1-.12-.58c0-2.09-.05-4.17-.08-6.26,0-.76,0-1.52,0-2.29,0-.27.06-.54.08-.82,0-.66,0-1.33.07-2,0-.35.06-.7.1-1.05A19,19,0,0,0,19,28.86a19.41,19.41,0,0,1,0-2.29c0-.65-.06-1.31,0-2,.07-1.28-.2-2.55,0-3.83a10.17,10.17,0,0,0,0-1.46,4.92,4.92,0,0,1,.05-1.53,2.44,2.44,0,0,0,0-.81c0-.39,0-.79-.07-1.18s-.05-.61-.08-.91a1.13,1.13,0,0,1,0-.18.85.85,0,0,1,.63-1,3.58,3.58,0,0,0,.42-.25,1,1,0,0,1,.29-.11,11.83,11.83,0,0,1,3.41-.21A5.79,5.79,0,0,0,25.26,13a1.93,1.93,0,0,1,.41,0c.29,0,.58,0,.86,0a7.2,7.2,0,0,1,1.23,0,7.19,7.19,0,0,0,2.22,0,1.16,1.16,0,0,1,.37,0l.95,0c.81,0,1.61.07,2.42.13.59,0,1.18.12,1.77.17a8.56,8.56,0,0,0,1.59.11,13.74,13.74,0,0,1,2.73.42,13.47,13.47,0,0,1,2.51.51c.77.23,1.57.35,2.36.54a7,7,0,0,1,1.82.83c.39.23.8.42,1.19.64.21.12.39.29.59.42s.32.18.48.27a1.92,1.92,0,0,1,.31.18,14,14,0,0,1,1.87,1.73l.52.75c.14.19.31.37.45.57a16.44,16.44,0,0,0,1.15,1.67,6.68,6.68,0,0,1,1,1.7.76.76,0,0,0,.12.19,4.3,4.3,0,0,1,.79,2A4,4,0,0,1,55.1,27a1.93,1.93,0,0,0,.1.72,3.38,3.38,0,0,1,.13.94,7,7,0,0,0,.18.79.69.69,0,0,1,.07.3,7.33,7.33,0,0,1-.42,1.91,2.18,2.18,0,0,0-.11.44,5.86,5.86,0,0,1-.32,1.23,7.55,7.55,0,0,0-.22,1.17,1.64,1.64,0,0,1-.23.63,14.37,14.37,0,0,1-1.8,2.24,1.61,1.61,0,0,0-.25.32,5.45,5.45,0,0,1-1.42,1.53,3.2,3.2,0,0,0-.61.61A7.28,7.28,0,0,1,48.58,41a26.69,26.69,0,0,1-2.66,1.5c-.83.39-1.62.84-2.42,1.29a6.24,6.24,0,0,1-.94.35c-.44.17-.88.35-1.31.54a10.39,10.39,0,0,1-1.73.42c-.6.16-1.21.31-1.82.43s-1,.17-1.44.23S35.11,45.89,34.56,46Zm-14-31.68c-.39.32-.29.73-.3,1.12,0,.73,0,1.46-.08,2.18,0,.28,0,.55-.05.82s-.13.54.07.79c0,0,0,0,0,.05a1.2,1.2,0,0,0,.07,1.06s0,.06,0,.09c0,.65-.05,1.3,0,2a16.19,16.19,0,0,0,.14,2.31c.13.84-.09,1.67,0,2.5-.16.51.19,1,0,1.54a.18.18,0,0,0,0,.13,1,1,0,0,1,.08.79,2.12,2.12,0,0,0,0,.5c0,.35.06.69.1,1s.05.57.08.85c0,.06,0,.14,0,.18a3.31,3.31,0,0,0-.23,1.49c-.08.75-.08,1.51-.12,2.27a1.43,1.43,0,0,0,0,.41,5.65,5.65,0,0,1,0,1.59,8.65,8.65,0,0,0,.13,1.68,3.29,3.29,0,0,1,0,1.89.65.65,0,0,0,0,.31,3.38,3.38,0,0,1,0,.55,2.43,2.43,0,0,0,.19,1.16.7.7,0,0,1,0,.38c-.07.35,0,.42.31.53a3.08,3.08,0,0,0,1.09,0,27.44,27.44,0,0,1,3,.1c1,.08,2,0,3,0,.41,0,.82,0,1.23,0a10.69,10.69,0,0,0,2.19-.11.45.45,0,0,1,.23,0,4.17,4.17,0,0,0,1.45-.11,1.53,1.53,0,0,1,.37,0,4.41,4.41,0,0,0,1.45,0c.35,0,.7,0,1-.09s.85-.09,1.26-.18,1.06-.29,1.6-.41a17.82,17.82,0,0,0,3.55-1.18c.86-.38,1.67-.87,2.51-1.31.6-.3,1.21-.58,1.8-.9a10,10,0,0,0,1.48-.89c.56-.44,1.07-1,1.59-1.44.27-.25.52-.51.77-.78.1-.11.16-.25.26-.37a7.59,7.59,0,0,0,1.44-1.7.52.52,0,0,1,.19-.2,1.08,1.08,0,0,0,.43-.77c.08-.35,0-.73.27-1,0,0,0-.09,0-.13a12.69,12.69,0,0,1,.54-2.59,2.1,2.1,0,0,0,0-.9,24.21,24.21,0,0,1-.38-3.18,3.51,3.51,0,0,0-.47-1.75C52.56,24,52.3,23.47,52,23c-.16-.27-.43-.47-.6-.74s-.52-.81-.79-1.21a7.78,7.78,0,0,0-1.2-1.48,12.55,12.55,0,0,0-3.29-2.45,18.82,18.82,0,0,0-2-.9,25.63,25.63,0,0,0-2.61-.68,32.79,32.79,0,0,0-3.81-.72,6.09,6.09,0,0,0-2-.17.3.3,0,0,1-.13,0l-1.59-.15a33,33,0,0,0-4.44-.16c-.61,0-1.22-.06-1.82-.08-.35,0-.7,0-1.05,0s-.39,0-.59,0-.58,0-.86,0a8.33,8.33,0,0,1-1,.11,4,4,0,0,1-1-.18c-.31-.08-.6-.34-.91,0,0,0-.11,0-.17,0a4.22,4.22,0,0,0-.62.1A1,1,0,0,1,20.54,14.27Zm.75,31.18,0-.07-.12,0s0,.07,0,.07Z"/><path class="cls-1" d="M38.91,53.47a3.6,3.6,0,0,1,1.5-.06c-.07.23-.2.18-.32.16a.69.69,0,0,0-.52,0C39.4,53.73,39.21,53.67,38.91,53.47Z"/><path class="cls-1" d="M36.56,53.53c-.13.22-.27.24-.43.11a.18.18,0,0,1,0-.16A.29.29,0,0,1,36.56,53.53Z"/><path class="cls-1" d="M35.7,53.64l-.18,0s0-.1,0-.11l.18,0Z"/><path class="cls-1" d="M35.22,53.56l-.21.16,0,0a.29.29,0,0,1,.07-.12S35.1,53.56,35.22,53.56Z"/><path class="cls-1" d="M33.2,53.65c-.05,0-.1.06-.11.05s-.05-.06-.06-.09,0,0,.06,0A.48.48,0,0,1,33.2,53.65Z"/><path class="cls-1" d="M41.73,53.51s0,.07,0,.07l-.11,0s0-.06,0-.06Z"/><path class="cls-1" d="M21.29,45.45l-.12,0s0,0,0-.07l.12,0Z"/></svg>