<svg id="C" xmlns="http://www.w3.org/2000/svg" viewBox="0 0 86 112"><defs><style>.cls-1{stroke:#000;stroke-miterlimit:10;}</style></defs><path class="cls-1" d="M50,1.35a.63.63,0,0,0,.22-.09.89.89,0,0,1,.88-.19l2.27.35a1.94,1.94,0,0,1,.33.07l2.18.63c.28.09.56.17.63.51a1.68,1.68,0,0,1,1.44.1c.43.15.85.36,1.27.54L61,4c.27.11.54.24.83.34.52.18,1,.4,1.54.62a5.08,5.08,0,0,1,1.08.86c.41-.11.72.26,1.09.44s.61.46.94.65.77.36,1.16.54c.09,0,.23.07.27.14.32.6.93.86,1.41,1.27A7.08,7.08,0,0,1,70.54,10a5.52,5.52,0,0,0,1.75,1.26A6.52,6.52,0,0,1,74,12.63a2,2,0,0,0,.73.58.56.56,0,0,1,.41.7c.62.18.89.73,1.28,1.14s.92,1.06,1.39,1.57A6.4,6.4,0,0,0,79.18,18c.06,0,.09.12.14.19.35.55.67,1.12,1.06,1.64A1.84,1.84,0,0,1,80.87,21c0,.1.14.2.22.3a.63.63,0,0,1,0,.9c-.22.2-.45.39-.66.6a1.41,1.41,0,0,1-.55.44c-.22.07-.38.32-.57.49s-.14.15-.18.14c-.38-.13-.49.19-.69.37a5.36,5.36,0,0,1-1,.75,5.38,5.38,0,0,0-1.87,1.64,7.46,7.46,0,0,1-1,.95c-.31.29-.66.54-1,.81l-.82.66-.07.06c-.47.58-1.16.91-1.65,1.48-.26.31-.54.72-1,.67a1.7,1.7,0,0,1-.85-.25c-.54-.44-1-.95-1.52-1.44s-.76-.77-1.15-1.14a19.91,19.91,0,0,0-1.7-1.33,12.8,12.8,0,0,1-1.55-1.49,6.88,6.88,0,0,0-1.29-1.18c-.16-.1-.28-.26-.44-.37l-1.75-1.16-1-.76c-.55-.39-1.07-.82-1.65-1.15a13.24,13.24,0,0,0-2.56-1.19c-.49-.15-1-.35-1.44-.5-.67-.22-1.35-.41-2-.6-.52-.16-1-.32-1.59-.44-.27-.07-.57,0-.85-.09-.75-.16-1.49-.35-2.24-.49a9,9,0,0,0-2.14-.16,22.73,22.73,0,0,0-4,.75c-1,.24-2,.66-2.94,1-.38.13-.78.19-1.15.33a5.93,5.93,0,0,0-.86.46c-.67.4-1.35.79-2,1.22a8.16,8.16,0,0,1-1.15.66,4.19,4.19,0,0,0-.81.59c-.53.41-1.06.82-1.57,1.25s-.91.8-1.35,1.22a4.07,4.07,0,0,0-.51.58,8.2,8.2,0,0,0-1.23,1.57c-.09.22-.19.44-.29.65,0,0,0,0,0,0-.09.41-.55.53-.72.87a1.32,1.32,0,0,1-.74.81.85.85,0,0,0-.36.29,12.11,12.11,0,0,1-.88,1.32A19.21,19.21,0,0,0,21.93,34a4.65,4.65,0,0,0-.58,1.46,9.36,9.36,0,0,1-.49,1.34c0,.11-.1.21-.13.32A36.43,36.43,0,0,1,19.45,41a12.45,12.45,0,0,0-.56,2.32c-.12.77-.2,1.54-.31,2.32,0,.28-.12.55-.18.83a8.61,8.61,0,0,0-.19,2.15c0,.17,0,.34-.05.52a6.32,6.32,0,0,0,0,1.15A12,12,0,0,1,18,52.66a13.33,13.33,0,0,0-.08,2,19.3,19.3,0,0,1,.1,3.4,3.81,3.81,0,0,0,.13.8c.13.89.19,1.78.39,2.66A13.48,13.48,0,0,1,18.9,64a4.76,4.76,0,0,0,.3,1.15c.25.86.38,1.75.59,2.62a10.64,10.64,0,0,0,1,3.13c.24.41.33.9.53,1.33.29.6.61,1.19.92,1.78.11.21.26.4.35.62a13.1,13.1,0,0,0,.87,1.81c.27.49.39,1,.62,1.56a17.73,17.73,0,0,0,1.07,2.19c.25.4.37.89.6,1.31.35.66.73,1.3,1.11,2a.94.94,0,0,0,.14.19c.25.25.49.5.75.73a2.79,2.79,0,0,1,.82,1,.14.14,0,0,0,.06.07c.63.45.94,1.16,1.48,1.68a1.38,1.38,0,0,0,.3.24,6.44,6.44,0,0,1,1.14,1,14.36,14.36,0,0,0,1.76,1.55,24.69,24.69,0,0,0,4,2.5,9,9,0,0,0,2,.78c.76.19,1.48.51,2.23.73a16.74,16.74,0,0,0,1.69.32c1,.17,2,.31,3,.47a5.43,5.43,0,0,0,2,0c1.08-.21,2.18-.33,3.26-.54.4-.07.77-.32,1.17-.39a10,10,0,0,0,1.7-.75c.66-.25,1.29-.57,1.95-.8a9.08,9.08,0,0,0,2.14-1.17,11.91,11.91,0,0,1,2-1.2,3.82,3.82,0,0,0,.68-.45,18.53,18.53,0,0,0,3.2-2.66c.54-.58,1-1.22,1.53-1.83,0,0,.07-.12.12-.15a10.64,10.64,0,0,0,1.9-2,4.88,4.88,0,0,0,.69-1.2c.07-.11.09-.27.18-.33.37-.26.46-.68.65-1a2,2,0,0,0,.13-.61,1.2,1.2,0,0,1,.5-.87,2.48,2.48,0,0,0,.62-.77c.33-.55.65-.68,1.23-.43A6.67,6.67,0,0,1,74.2,79a5.13,5.13,0,0,0,1.51.9,8.11,8.11,0,0,1,.86.51c.57.39,1.13.77,1.68,1.18.35.25.66.56,1,.82a14.56,14.56,0,0,0,1.36,1,27.11,27.11,0,0,1,3,2.22c.31.24.65.45,1,.68a.29.29,0,0,1,.11.14c.09.39.27.76,0,1.15a5.45,5.45,0,0,0-.37.77.82.82,0,0,1-.17.29A4.68,4.68,0,0,0,83.07,90c-.06.09-.12.19-.19.28-.43.57-.84,1.16-1.29,1.71s-.71.78-1.06,1.17a2,2,0,0,0-.5,1c-.52.15-.76.64-1.1,1-.63.66-1.23,1.34-1.92,1.94-.85.74-1.62,1.58-2.42,2.37a.88.88,0,0,0-.18.29,1.34,1.34,0,0,1-.49.57c-.4.3-.78.65-1.17,1,0,0,0,0,0,0-.3.66-1,.87-1.5,1.23a.57.57,0,0,0-.15.12,16.68,16.68,0,0,1-2.78,1.94c-.66.42-1.28.9-2,1.31a14,14,0,0,1-2.75,1.41,2.78,2.78,0,0,0-.76.48,7.71,7.71,0,0,1-1.69.75c-.25.11-.48.24-.73.34l-1.17.4-.86.29c-.56.2-1.12.37-1.66.62a7.59,7.59,0,0,1-2.73.66,1.87,1.87,0,0,0-.32.08l-1.36.43-.14,0c-1.46.09-2.87.47-4.34.43-.59,0-1.18.08-1.77.1s-1,0-1.52,0a16.68,16.68,0,0,0-3.67,0,2,2,0,0,1-1.64-.38,2.86,2.86,0,0,0-.9-.42c-.56-.18-1.09-.43-1.64-.64l-.41-.14-1-.29a3.82,3.82,0,0,0-.51-.11,5.53,5.53,0,0,1-1.94-.63,1.5,1.5,0,0,0-.5-.18,3.44,3.44,0,0,1-1.58-.85,2.21,2.21,0,0,0-.36-.23,1.16,1.16,0,0,1-.33-.18A9.62,9.62,0,0,0,28,106.62c-.34-.24-.7-.44-1.06-.65a14.19,14.19,0,0,1-1.68-1.09c-.11-.08-.31,0-.47-.06-.45,0-.66,0-.72-.56,0-.38-.27-.46-.65-.44a2.15,2.15,0,0,1-.83-.12c-.12,0-.23-.23-.25-.37a2.43,2.43,0,0,0-1-1.36c-.65-.6-1.27-1.22-1.9-1.83A26.75,26.75,0,0,0,17,97.75a5.62,5.62,0,0,1-.86-1c-.19-.24-.35-.5-.53-.74-.48-.67-1-1.35-1.47-2s-.88-1-1.28-1.55a4.87,4.87,0,0,0-.86-.95,1.53,1.53,0,0,1-.34-.45c-.41-.72-.82-1.44-1.22-2.17a13.14,13.14,0,0,0-.61-1.25A26.25,26.25,0,0,1,8,84c-.5-1-.93-2-1.35-3.06-.27-.64-.46-1.3-.68-2s-.47-1.29-.68-1.94-.44-1.4-.67-2.09c-.32-1-.65-1.9-1-2.86-.21-.62-.42-1.24-.62-1.86a1,1,0,0,1,0-.38,5.15,5.15,0,0,0-.21-1.46,22.72,22.72,0,0,1-.33-2.32c-.1-1.14-.32-2.24-.53-3.36a2.43,2.43,0,0,1-.05-.71,49.51,49.51,0,0,0-.06-5.17c-.05-1.57-.19-3.13-.09-4.7.12-1.88.08-3.77.16-5.65A23.43,23.43,0,0,1,2.2,44c.22-1.34.47-2.68.7-4,0-.13.05-.26.09-.38q.33-1.14.69-2.28c.09-.29.24-.56.32-.85a9.58,9.58,0,0,0,.34-1.59,6.93,6.93,0,0,1,.31-1.49c.24-.79.51-1.57.76-2.36.09-.27.15-.55.24-.82a1.9,1.9,0,0,1,.24-.52A4.6,4.6,0,0,0,6.61,28a12.11,12.11,0,0,1,.79-2.21A7.59,7.59,0,0,1,9,23.25a2.05,2.05,0,0,0,.4-.81,4.87,4.87,0,0,1,.88-1.63c.39-.44.77-.89,1.13-1.36a3.31,3.31,0,0,0,.46-.82,3.19,3.19,0,0,1,.65-.92c.44-.57.88-1.14,1.33-1.69.23-.29.48-.55.73-.81.57-.61,1.13-1.22,1.72-1.8.27-.27.59-.48.88-.72s.56-.47.85-.69a14.14,14.14,0,0,0,2.27-2c.25-.3.68-.44.85-.83,0,0,.07-.07.11-.08.48-.06.72-.42,1-.73a2.56,2.56,0,0,1,1.4-.86,1,1,0,0,0,.22-.09L26.2,6.09c.23-.14.46-.29.69-.41,1.08-.6,2.16-1.2,3.26-1.77A16.7,16.7,0,0,1,32,3.12c.74-.26,1.49-.48,2.24-.69s1.33-.34,2-.48,1.3-.21,1.93-.36c.31-.06.58-.26.89-.34.66-.16,1.34-.31,2-.42.42-.06.86,0,1.28,0a11,11,0,0,1,1.72,0A11.71,11.71,0,0,0,45.23.71a3.45,3.45,0,0,1,.71.09,9.45,9.45,0,0,0,1.84.08c.29,0,.57,0,.86.05h1c.31,0,.37.06.4.43,0,.09-.19.18,0,.3C50.17,1.55,50.09,1.45,50,1.35ZM82.21,88c-.3-.39-.3-.4-.18-.65.23-.46.25-.48-.13-.79-.56-.45-1.16-.86-1.73-1.29s-.83-.63-1.25-1c-.1-.07-.18-.17-.28-.25l-1.7-1.24-.74-.53-.83-.56c-.29-.18-.6-.31-.88-.49-.76-.49-1.52-1-2.27-1.5a.32.32,0,0,0-.5.07,2.71,2.71,0,0,0-.23.41c-.06.13-.1.27-.16.4a7.38,7.38,0,0,0-.63,1.17,17.09,17.09,0,0,1-1.57,2.68,7.27,7.27,0,0,1-1.5,1.73c-.16.15-.37.26-.51.42-.45.52-.86,1.07-1.31,1.59a10.2,10.2,0,0,1-1.18,1.19,15.7,15.7,0,0,1-2.28,1.67c-.55.32-1.08.67-1.62,1a15.45,15.45,0,0,0-1.42,1,7.57,7.57,0,0,1-2.07,1.17c-.51.21-1,.39-1.55.63a10.8,10.8,0,0,1-1.2.65,13.38,13.38,0,0,1-2.79,1,1.25,1.25,0,0,0-.27.1,8.25,8.25,0,0,1-4.84.41,9,9,0,0,0-2.88-.46,2.83,2.83,0,0,1-.47-.1L42,96.15l-1.2-.31a1.69,1.69,0,0,0-.38-.07A3.8,3.8,0,0,1,39,95.33a2.58,2.58,0,0,0-.68-.22,7,7,0,0,1-2.76-1.28,7.39,7.39,0,0,0-1.13-.71,4.45,4.45,0,0,1-1.27-.84,3.85,3.85,0,0,0-.94-.65,1.88,1.88,0,0,1-.65-.54,3.2,3.2,0,0,0-.61-.61c-.41-.32-.84-.63-1.26-.94a.86.86,0,0,1-.13-.14c-.48-.55-.95-1.11-1.43-1.67-.29-.34-.58-.68-.89-1s-.5-.49-.75-.73a4,4,0,0,1-.76-.78,7.63,7.63,0,0,0-.39-.75,4.4,4.4,0,0,1-.49-.87,6.19,6.19,0,0,0-.74-1.39,2.6,2.6,0,0,1-.42-.91,5.49,5.49,0,0,0-.88-1.74,4.64,4.64,0,0,1-.55-1.2c-.09-.27-.16-.56-.26-.82a.83.83,0,0,0-.25-.4,1.24,1.24,0,0,1-.42-.72A3.82,3.82,0,0,0,20.77,75a3.23,3.23,0,0,1-.82-1.7,1.55,1.55,0,0,0-.13-.36l-.48-1.14c-.08-.19-.13-.39-.22-.57A8.26,8.26,0,0,1,18.54,70c-.22-.72-.35-1.46-.52-2.19l-.72-3a9.6,9.6,0,0,1-.2-1.07C17,63.18,17,62.6,17,62c-.16-1.14-.38-2.27-.53-3.41-.1-.74-.16-1.49-.19-2.24s0-1.66,0-2.49a4.66,4.66,0,0,1,0-1.24,4.84,4.84,0,0,0,.07-1.13c0-.83.07-1.67.09-2.5,0-.47,0-1,0-1.43a.91.91,0,0,1,0-.33A16.85,16.85,0,0,0,17,44a12.8,12.8,0,0,1,.55-2.82c.24-.66.43-1.34.64-2a3,3,0,0,0,.09-.32c.14-.44.26-.89.41-1.32l.93-2.57a9.3,9.3,0,0,1,.88-2c.1-.16.15-.35.26-.51A14.63,14.63,0,0,1,21.5,31L22,30.3c.53-.77,1.05-1.56,1.59-2.33a2,2,0,0,1,.83-.78.63.63,0,0,0,.22-.18c.25-.33.5-.66.73-1a9.79,9.79,0,0,1,1.21-1.66c.43-.42.89-.82,1.29-1.27a9.79,9.79,0,0,1,2.08-1.88c.14-.09.22-.3.36-.37.5-.27,1-.49,1.5-.81s1-.62,1.51-.91A9.64,9.64,0,0,1,35.5,18a7.33,7.33,0,0,0,.86-.3,14.72,14.72,0,0,1,1.8-.62c.46-.1.91-.25,1.37-.36a14.09,14.09,0,0,1,3.39-.81c.73,0,1.46-.13,2.19-.09a12.61,12.61,0,0,1,3.39.52,2.5,2.5,0,0,0,.29.05l1.89.3a2.57,2.57,0,0,0,.61.09,1,1,0,0,1,.83.29,1.51,1.51,0,0,0,.82.35,5.15,5.15,0,0,1,1,.19c1,.39,2,.8,2.94,1.25a16.55,16.55,0,0,1,1.83,1c.6.39,1.16.84,1.75,1.25s1.15.75,1.71,1.15,1.16.89,1.72,1.36a3.36,3.36,0,0,1,.67.69,5.67,5.67,0,0,0,1.62,1.47,16.46,16.46,0,0,1,2,1.67l1.18,1.11c.15.15.32.43.47.42s.36-.26.55-.4c.94-.71,1.9-1.4,2.83-2.12a14.41,14.41,0,0,0,1.57-1.34,16.52,16.52,0,0,1,2.94-2.34,3.73,3.73,0,0,1,.73-.44,2.1,2.1,0,0,0,1.12-.9c-.07-.27-.1-.54-.4-.64,0,0-.06-.08-.09-.11l-1-1.33c-.19-.25-.47-.39-.55-.75,0-.2-.33-.37-.52-.53a12.79,12.79,0,0,1-1.83-2,5.08,5.08,0,0,0-.39-.41l-1.29-1.27c-.52-.5-1-1-1.57-1.47s-1.22-.8-1.82-1.21a4.14,4.14,0,0,1-.5-.44c-.43-.41-.82-.85-1.28-1.22a16.57,16.57,0,0,0-1.93-1.39,11,11,0,0,0-1.55-1,14.07,14.07,0,0,1-1.71-.92c-.33-.19-.64-.41-1-.62L61.91,6,61,5.66c-.89-.37-1.77-.75-2.66-1.11-.44-.17-.89-.32-1.34-.48s-1.09-.38-1.64-.52c-.77-.2-1.55-.37-2.32-.53s-1.5-.32-2.25-.45a8.12,8.12,0,0,0-.86,0L48.59,2.4l-2.14-.16c-.32,0-.63-.07-.94-.06-.72,0-1.44.13-2.15.1A12.38,12.38,0,0,0,40,2.57c-.59.14-1.17.31-1.77.43s-1.38.24-2.07.36a7.23,7.23,0,0,0-1.62.56c-.86.35-1.75.61-2.62.92-.42.16-.82.36-1.22.54s-.53.23-.78.36L27.68,7c-.5.27-1,.51-1.52.79s-.93.55-1.4.83l-.82.49c-.22.14-.42.28-.63.43a7.57,7.57,0,0,0-.74.52c-.55.45-1.09.93-1.63,1.4-.18.16-.35.32-.54.47l-3,2.43a3.9,3.9,0,0,0-.56.51c-.62.72-1.21,1.45-1.82,2.17a6.68,6.68,0,0,0-.67.74,12.31,12.31,0,0,0-1.52,2.13c0,.12-.2.2-.29.31a2,2,0,0,0-.66,1.14.76.76,0,0,1-.16.29,6.46,6.46,0,0,0-.91,1.72,2.32,2.32,0,0,1-.53.89,4.88,4.88,0,0,0-.89,1.18,20.39,20.39,0,0,0-.94,2.08c-.28.7-.52,1.41-.75,2.12A4.51,4.51,0,0,1,7.13,31a1.81,1.81,0,0,0-.27.6c-.14.54-.25,1.09-.39,1.63-.21.8-.43,1.6-.64,2.4-.11.43-.24.86-.31,1.3A11,11,0,0,1,5,38.41c-.26.85-.37,1.74-.59,2.59-.13.48-.09,1-.2,1.47A20.94,20.94,0,0,0,3.58,46a18.62,18.62,0,0,0,0,2.24c0,.15,0,.29,0,.44,0,.52-.07,1-.09,1.56,0,.82,0,1.63,0,2.45s0,1.69,0,2.54a5.3,5.3,0,0,1,0,1.32,1.67,1.67,0,0,0,.13.68c0,.08.1.17.08.21-.17.36,0,.73,0,1.09-.05.83-.1,1.65-.11,2.48a6,6,0,0,0,.12,1.47,28.81,28.81,0,0,1,.49,3.46c0,.21,0,.41.08.62.07.4.17.8.24,1.21s.07.76.16,1.13a4.7,4.7,0,0,1,.28,1.53.91.91,0,0,0,.11.42,3.1,3.1,0,0,1,.4,1.1,2.72,2.72,0,0,0,.24.83,9.27,9.27,0,0,1,.51,1.78,8.82,8.82,0,0,0,.89,2.37,2,2,0,0,1,.18.39c.27,1.29,1,2.41,1.32,3.69,0,.1.1.2.14.3.15.32.3.64.43,1a25.08,25.08,0,0,0,2.32,4.56A8,8,0,0,1,12.14,88a6,6,0,0,0,.9,1.47c.37.47.78.92,1.16,1.4s.56.81.86,1.21.46.53.68.8c.84,1.06,1.68,2.14,2.53,3.2a6.41,6.41,0,0,0,.63.65,10.63,10.63,0,0,1,1.94,1.91,1.76,1.76,0,0,0,.28.26c.63.55,1.29,1.06,1.87,1.65a11,11,0,0,0,1.92,1.57c.74.48,1.52.87,2.23,1.41.47.36,1,.67,1.51,1s.86.55,1.29.81c.73.45,1.5.86,2.2,1.35a7.16,7.16,0,0,0,2.14.94c1,.3,2.08.59,3.1,1,.51.19,1,.34,1.55.5.15.05.29.13.44.17.43.11.86.25,1.29.32s.83.07,1.24.11a2.56,2.56,0,0,0,.47,0,12.34,12.34,0,0,1,2.58.15,3,3,0,0,0,1.52,0,1.22,1.22,0,0,1,.43,0c.65,0,1.31,0,2-.05.84-.08,1.68-.22,2.52-.33a9.42,9.42,0,0,0,2.56-.58,2.82,2.82,0,0,1,.52-.1c.25,0,.51,0,.75-.12q1-.31,1.95-.66c.41-.14.82-.28,1.21-.45.67-.31,1.31-.66,2-1,.83-.37,1.68-.69,2.5-1.06a15.3,15.3,0,0,0,3.86-2.18,1.48,1.48,0,0,1,.21-.13c.5-.31,1-.61,1.48-1,.91-.66,1.79-1.34,2.67-2a15.91,15.91,0,0,0,2.3-2c.31-.36.65-.7,1-1.07s.9-.73,1.23-1.26A5.59,5.59,0,0,1,76.5,95c.49-.45,1-.91,1.45-1.38a1.75,1.75,0,0,0,.28-.33,11.51,11.51,0,0,1,1-1.29,9.18,9.18,0,0,0,1.73-2.1,1.37,1.37,0,0,1,.16-.18A8.51,8.51,0,0,0,82.21,88ZM63.34,5.31l-.08.1c.11.1.18.27.5.21ZM46.64,1.37c.12.24.12.24.45.29ZM64.82,6.15l0-.08L64.6,6l0,.08ZM48.19,1.92l.09-.07-.21-.25L48,1.68ZM66,7.68a.67.67,0,0,0-.22-.07s-.09.06-.09.07a.45.45,0,0,0,.1.14ZM39.66,2l-.06-.13-.21.14,0,.08ZM71.37,29.85l0-.07-.19-.1,0,.07Z"/><path class="cls-1" d="M82.21,88a8.51,8.51,0,0,1-1.11,1.69,1.37,1.37,0,0,0-.16.18A9.18,9.18,0,0,1,79.21,92a11.51,11.51,0,0,0-1,1.29,1.75,1.75,0,0,1-.28.33c-.48.47-1,.93-1.45,1.38a5.59,5.59,0,0,0-.94.86c-.33.53-.86.81-1.23,1.26s-.65.71-1,1.07a15.91,15.91,0,0,1-2.3,2c-.88.68-1.76,1.36-2.67,2-.47.35-1,.65-1.48,1a1.48,1.48,0,0,0-.21.13,15.3,15.3,0,0,1-3.86,2.18c-.82.37-1.67.69-2.5,1.06-.67.3-1.31.65-2,1-.39.17-.8.31-1.21.45q-1,.35-1.95.66c-.24.07-.5.07-.75.12a2.82,2.82,0,0,0-.52.1,9.42,9.42,0,0,1-2.56.58c-.84.11-1.68.25-2.52.33-.65.05-1.31,0-2,.05a1.22,1.22,0,0,0-.43,0,3,3,0,0,1-1.52,0,12.34,12.34,0,0,0-2.58-.15,2.56,2.56,0,0,1-.47,0c-.41,0-.83,0-1.24-.11s-.86-.21-1.29-.32c-.15,0-.29-.12-.44-.17-.52-.16-1-.31-1.55-.5-1-.38-2.06-.67-3.1-1a7.16,7.16,0,0,1-2.14-.94c-.7-.49-1.47-.9-2.2-1.35q-.64-.39-1.29-.81c-.51-.32-1-.63-1.51-1-.71-.54-1.49-.93-2.23-1.41A11,11,0,0,1,23,100.53c-.58-.59-1.24-1.1-1.87-1.65a1.76,1.76,0,0,1-.28-.26,10.63,10.63,0,0,0-1.94-1.91,6.41,6.41,0,0,1-.63-.65c-.85-1.06-1.69-2.14-2.53-3.2-.22-.27-.47-.52-.68-.8s-.56-.82-.86-1.21-.79-.93-1.16-1.4a6,6,0,0,1-.9-1.47,8,8,0,0,0-.66-1.17,25.08,25.08,0,0,1-2.32-4.56c-.13-.32-.28-.64-.43-1,0-.1-.11-.2-.14-.3-.32-1.28-1-2.4-1.32-3.69a2,2,0,0,0-.18-.39,8.82,8.82,0,0,1-.89-2.37,9.27,9.27,0,0,0-.51-1.78,2.72,2.72,0,0,1-.24-.83,3.1,3.1,0,0,0-.4-1.1.91.91,0,0,1-.11-.42,4.7,4.7,0,0,0-.28-1.53c-.09-.37-.09-.75-.16-1.13s-.17-.81-.24-1.21c0-.21-.06-.41-.08-.62a28.81,28.81,0,0,0-.49-3.46A6,6,0,0,1,3.57,61c0-.83.06-1.65.11-2.48,0-.36-.15-.73,0-1.09,0,0-.06-.13-.08-.21a1.67,1.67,0,0,1-.13-.68,5.3,5.3,0,0,0,0-1.32c0-.85,0-1.7,0-2.54s0-1.63,0-2.45c0-.52.06-1,.09-1.56,0-.15,0-.29,0-.44a18.62,18.62,0,0,1,0-2.24,20.94,20.94,0,0,1,.6-3.51c.11-.48.07-1,.2-1.47.22-.85.33-1.74.59-2.59a11,11,0,0,0,.55-1.52c.07-.44.2-.87.31-1.3.21-.8.43-1.6.64-2.4.14-.54.25-1.09.39-1.63a1.81,1.81,0,0,1,.27-.6,4.51,4.51,0,0,0,.61-1.34c.23-.71.47-1.42.75-2.12a20.39,20.39,0,0,1,.94-2.08,4.88,4.88,0,0,1,.89-1.18,2.32,2.32,0,0,0,.53-.89,6.46,6.46,0,0,1,.91-1.72.76.76,0,0,0,.16-.29,2,2,0,0,1,.66-1.14c.09-.11.24-.19.29-.31a12.31,12.31,0,0,1,1.52-2.13,6.68,6.68,0,0,1,.67-.74c.61-.72,1.2-1.45,1.82-2.17a3.9,3.9,0,0,1,.56-.51l3-2.43c.19-.15.36-.31.54-.47.54-.47,1.08-.95,1.63-1.4a7.57,7.57,0,0,1,.74-.52c.21-.15.41-.29.63-.43l.82-.49c.47-.28.92-.57,1.4-.83s1-.52,1.52-.79L29.9,5.74c.25-.13.52-.24.78-.36s.8-.38,1.22-.54c.87-.31,1.76-.57,2.62-.92a7.23,7.23,0,0,1,1.62-.56c.69-.12,1.39-.22,2.07-.36s1.18-.29,1.77-.43a12.38,12.38,0,0,1,3.38-.29c.71,0,1.43-.08,2.15-.1.31,0,.62,0,.94.06l2.14.16L50,2.53a8.12,8.12,0,0,1,.86,0q1.13.2,2.25.45c.77.16,1.55.33,2.32.53.55.14,1.09.34,1.64.52s.9.31,1.34.48c.89.36,1.77.74,2.66,1.11l.88.35.2.11c.32.21.63.43,1,.62a14.07,14.07,0,0,0,1.71.92,11,11,0,0,1,1.55,1,16.57,16.57,0,0,1,1.93,1.39c.46.37.85.81,1.28,1.22a4.14,4.14,0,0,0,.5.44c.6.41,1.25.76,1.82,1.21s1,1,1.57,1.47l1.29,1.27a5.08,5.08,0,0,1,.39.41,12.79,12.79,0,0,0,1.83,2c.19.16.47.33.52.53.08.36.36.5.55.75l1,1.33s0,.09.09.11c.3.1.33.37.4.64a2.1,2.1,0,0,1-1.12.9,3.73,3.73,0,0,0-.73.44,16.52,16.52,0,0,0-2.94,2.34,14.41,14.41,0,0,1-1.57,1.34c-.93.72-1.89,1.41-2.83,2.12-.19.14-.36.38-.55.4s-.32-.27-.47-.42l-1.18-1.11a16.46,16.46,0,0,0-2-1.67,5.67,5.67,0,0,1-1.62-1.47,3.36,3.36,0,0,0-.67-.69c-.56-.47-1.13-.93-1.72-1.36s-1.14-.76-1.71-1.15-1.15-.86-1.75-1.25a16.55,16.55,0,0,0-1.83-1c-1-.45-2-.86-2.94-1.25a5.15,5.15,0,0,0-1-.19,1.51,1.51,0,0,1-.82-.35,1,1,0,0,0-.83-.29,2.57,2.57,0,0,1-.61-.09l-1.89-.3a2.5,2.5,0,0,1-.29-.05,12.61,12.61,0,0,0-3.39-.52c-.73,0-1.46.08-2.19.09a14.09,14.09,0,0,0-3.39.81c-.46.11-.91.26-1.37.36a14.72,14.72,0,0,0-1.8.62,7.33,7.33,0,0,1-.86.3,9.64,9.64,0,0,0-2.21,1.14c-.51.29-1,.58-1.51.91s-1,.54-1.5.81c-.14.07-.22.28-.36.37a9.79,9.79,0,0,0-2.08,1.88c-.4.45-.86.85-1.29,1.27A9.79,9.79,0,0,0,25.34,26c-.23.34-.48.67-.73,1a.63.63,0,0,1-.22.18,2,2,0,0,0-.83.78C23,28.74,22.5,29.53,22,30.3L21.5,31a14.63,14.63,0,0,0-.71,1.43c-.11.16-.16.35-.26.51a9.3,9.3,0,0,0-.88,2l-.93,2.57c-.15.43-.27.88-.41,1.32a3,3,0,0,1-.09.32c-.21.67-.4,1.35-.64,2A12.8,12.8,0,0,0,17,44a16.85,16.85,0,0,1-.6,3.29.91.91,0,0,0,0,.33c0,.48,0,1,0,1.43,0,.83-.06,1.67-.09,2.5a4.84,4.84,0,0,1-.07,1.13,4.66,4.66,0,0,0,0,1.24c0,.83,0,1.66,0,2.49s.09,1.5.19,2.24c.15,1.14.37,2.27.53,3.41.08.57.08,1.15.15,1.72a9.6,9.6,0,0,0,.2,1.07l.72,3c.17.73.3,1.47.52,2.19a8.26,8.26,0,0,0,.58,1.15c.09.18.14.38.22.57l.48,1.14a1.55,1.55,0,0,1,.13.36,3.23,3.23,0,0,0,.82,1.7,3.82,3.82,0,0,1,.56,1.46,1.24,1.24,0,0,0,.42.72.83.83,0,0,1,.25.4c.1.26.17.55.26.82a4.64,4.64,0,0,0,.55,1.2,5.49,5.49,0,0,1,.88,1.74,2.6,2.6,0,0,0,.42.91,6.19,6.19,0,0,1,.74,1.39,4.4,4.4,0,0,0,.49.87,7.63,7.63,0,0,1,.39.75,4,4,0,0,0,.76.78c.25.24.51.48.75.73s.6.66.89,1c.48.56.95,1.12,1.43,1.67a.86.86,0,0,0,.13.14c.42.31.85.62,1.26.94a3.2,3.2,0,0,1,.61.61,1.88,1.88,0,0,0,.65.54,3.85,3.85,0,0,1,.94.65,4.45,4.45,0,0,0,1.27.84,7.39,7.39,0,0,1,1.13.71,7,7,0,0,0,2.76,1.28,2.58,2.58,0,0,1,.68.22,3.8,3.8,0,0,0,1.46.44,1.69,1.69,0,0,1,.38.07l1.2.31,1.21.28a2.83,2.83,0,0,0,.47.1,9,9,0,0,1,2.88.46,8.25,8.25,0,0,0,4.84-.41,1.25,1.25,0,0,1,.27-.1,13.38,13.38,0,0,0,2.79-1,10.8,10.8,0,0,0,1.2-.65c.51-.24,1-.42,1.55-.63a7.57,7.57,0,0,0,2.07-1.17,15.45,15.45,0,0,1,1.42-1c.54-.35,1.07-.7,1.62-1a15.7,15.7,0,0,0,2.28-1.67,10.2,10.2,0,0,0,1.18-1.19c.45-.52.86-1.07,1.31-1.59.14-.16.35-.27.51-.42a7.27,7.27,0,0,0,1.5-1.73,17.09,17.09,0,0,0,1.57-2.68,7.38,7.38,0,0,1,.63-1.17c.06-.13.1-.27.16-.4a2.71,2.71,0,0,1,.23-.41.32.32,0,0,1,.5-.07c.75.5,1.51,1,2.27,1.5.28.18.59.31.88.49l.83.56.74.53,1.7,1.24c.1.08.18.18.28.25.42.33.83.65,1.25,1s1.17.84,1.73,1.29c.38.31.36.33.13.79C81.91,87.6,81.91,87.61,82.21,88Z"/><path class="cls-1" d="M63.34,5.31l.42.31c-.32.06-.39-.11-.5-.21Z"/><path class="cls-1" d="M46.64,1.37l.45.29C46.76,1.61,46.76,1.61,46.64,1.37Z"/><path class="cls-1" d="M64.82,6.15l-.24-.06,0-.08.24.06Z"/><path class="cls-1" d="M48.19,1.92,48,1.68l.09-.08.21.25Z"/><path class="cls-1" d="M66,7.68l-.21.14a.45.45,0,0,1-.1-.14s.06-.07.09-.07A.67.67,0,0,1,66,7.68Z"/><path class="cls-1" d="M50,1.35c.07.1.15.2,0,.31-.18-.12,0-.21,0-.3Z"/><path class="cls-1" d="M39.66,2l-.23.09,0-.08.21-.14Z"/><path class="cls-1" d="M71.37,29.85l-.19-.1,0-.07.19.1Z"/></svg>