<svg id="D" xmlns="http://www.w3.org/2000/svg" viewBox="0 0 86 112"><defs><style>.cls-1{stroke:#000;stroke-miterlimit:10;}</style></defs><path class="cls-1" d="M83.91,54.33a2.4,2.4,0,0,0-.36,1.59c0,.26-.08.52-.08.78,0,.8,0,1.6,0,2.4a.33.33,0,0,0,.08.22.38.38,0,0,1,0,.5.53.53,0,0,0-.06.33,8,8,0,0,1-.28,2.57c-.09.49-.14,1-.21,1.5a7.76,7.76,0,0,1-.28,1.68c-.32.8-.41,1.64-.67,2.45-.2.62-.34,1.27-.54,1.89s-.44,1.37-.68,2.05c-.18.52-.36,1-.57,1.56s-.56,1.25-.84,1.87a1.48,1.48,0,0,1-.08.13,13.28,13.28,0,0,1-1.21,2.45,1.65,1.65,0,0,0-.14.26,7.52,7.52,0,0,1-1.22,2.22c-.28.48-.72.87-.94,1.36a8.55,8.55,0,0,1-1,1.52c-.44.59-.79,1.24-1.23,1.83s-1,1.27-1.57,1.88-1.33,1.49-2,2.23a1.73,1.73,0,0,1-.28.26c-.08.07-.18.11-.23.18-.48.78-1.29,1.23-1.85,1.92a6.29,6.29,0,0,1-.74.72c-.67.59-1.32,1.22-2,1.77a16.22,16.22,0,0,1-1.74,1.07,7,7,0,0,0-1.44,1.1c-.32.31-.65.61-1,.89-.5.43-1,.83-1.52,1.25a6.53,6.53,0,0,1-1.75,1.07,17.55,17.55,0,0,0-1.6.85,1.73,1.73,0,0,1-.3.16A15.23,15.23,0,0,0,53.05,102c-.29.14-.61.24-.89.4-.66.36-1.28.79-1.95,1.12a18.27,18.27,0,0,1-1.79.67l-1.24.47c-.61.22-1.22.46-1.84.66a1,1,0,0,0-.48.3.86.86,0,0,1-.91.35,1.42,1.42,0,0,0-.68,0c-.58.17-1.15.37-1.72.58-1.13.42-2.24.92-3.4,1.27-.56.17-1.09.41-1.66.56a7.3,7.3,0,0,1-1.48.28,13.58,13.58,0,0,0-2,.46l-.51.12s-.08,0-.1,0a7,7,0,0,1-1.92.34c-.37.06-.74.1-1.12.14s-.55,0-.83,0c-.8,0-1.6.11-2.4.15l-2.05.1h-.59c-1.25-.06-2.51-.17-3.77-.19-1.6,0-3.21.06-4.81.05-.91,0-1.83-.1-2.74-.15a2.72,2.72,0,0,0-.49,0,30.88,30.88,0,0,1-3.47,0c-.71,0-1.41,0-2.11.09s-1.27.13-1.91.2a.56.56,0,0,1-.32,0,1.89,1.89,0,0,1-.9-1.64c0-.56,0-1.11,0-1.67,0-1.11-.06-2.22-.09-3.33a3.89,3.89,0,0,1,0-.59,23.33,23.33,0,0,0-.07-3.13c0-1,0-2,0-3s-.05-2.22-.07-3.33c0-.39,0-.79,0-1.18,0-1.33.08-2.65.09-4,0-.78-.05-1.57-.08-2.35-.06-1.55-.13-3.11-.19-4.66a3.82,3.82,0,0,0,0-.59,7.88,7.88,0,0,1,0-2c0-.93,0-1.86,0-2.79,0-.43,0-.85,0-1.27,0-1,.09-1.9.07-2.85,0-1.92-.13-3.83-.2-5.74a12,12,0,0,1,0-2.16c0-.3-.06-.62,0-.93,0-.63.16-1.27.18-1.9,0-.87,0-1.74,0-2.6,0-1,0-2.07,0-3.1,0-.11,0-.23,0-.34,0-.51,0-1,0-1.52,0-.25,0-.49,0-.74-.07-1.44-.15-2.88-.22-4.31a3.2,3.2,0,0,1,0-.44,5,5,0,0,0,.06-.54c0-1.56.06-3.11.07-4.67s0-3.18,0-4.76c0-1.28.08-2.56.07-3.83s0-2.39-.11-3.58c-.06-.61-.17-1.22-.18-1.85s0-1.44,0-2.16c0-1,.12-2.05.16-3.08a5.82,5.82,0,0,0-.07-.93c-.12-1.59,0-3.17,0-4.76,0-.47,0-.95,0-1.42,0-1.47-.07-2.94-.12-4.42,0-1,0-2,.09-3a10.16,10.16,0,0,0-.08-2.64,5.71,5.71,0,0,1,0-1.37,3.55,3.55,0,0,0-.08-1.21,2.59,2.59,0,0,1,0-1.11c.05-.34.36-.5.67-.59a1,1,0,0,0,.6-.39A.46.46,0,0,1,4,1.21a6.13,6.13,0,0,0,1.91.1c1.29,0,2.59,0,3.88,0,.47,0,.95-.05,1.42-.05l4.23.08c.31,0,.62-.05.93,0,.5,0,1,.06,1.51.1.1,0,.2.05.29.05.61,0,1.22,0,1.81-.12A25.45,25.45,0,0,1,24.69,1c.53,0,1-.05,1.58,0,1.07.07,2.16,0,3.23.11.79.07,1.59.18,2.39.24a6.88,6.88,0,0,1,.77.13l1.16.18.52.14c.1,0,.21.11.28.09.54-.2,1,.18,1.46.26.29,0,.58.11.87.17l.91.19.53.11,1.23.29a4.26,4.26,0,0,0,.47.15,12.35,12.35,0,0,1,2,.61c.55.15,1.08.34,1.62.52l.31.14a2.29,2.29,0,0,0,.31.16L46,5.05c.81.27,1.64.49,2.41.82,1.16.5,2.28,1.08,3.41,1.63s2.36,1.22,3.56,1.77a10.48,10.48,0,0,1,2.22,1.42,15.46,15.46,0,0,0,2.93,1.93,4.88,4.88,0,0,1,1,.75c.14.11.27.24.41.36l.81.69.43.32a3.74,3.74,0,0,1,.68.57,2.93,2.93,0,0,0,1.07.81c.19.1.33.3.52.36.69.22,1,.84,1.48,1.3.78.77,1.49,1.61,2.24,2.4.4.43.84.82,1.24,1.26.25.27.43.61.68.89s.73.75,1.06,1.15a17.14,17.14,0,0,1,1.23,1.58,13.28,13.28,0,0,0,1.4,1.77,8.07,8.07,0,0,1,.65.86,22,22,0,0,1,1.92,3c.39.74.74,1.5,1.09,2.25.28.58.53,1.17.79,1.74a2.37,2.37,0,0,0,.22.33c.17.25.41.48.33.84a.42.42,0,0,0,.08.22,14.67,14.67,0,0,1,1,2.71c.16.48.35.95.53,1.43,0,.12.14.25.12.36A2.17,2.17,0,0,0,82,42a4.72,4.72,0,0,1,.5,1.57.39.39,0,0,1,0,.15c-.12.34.38.54.21.86a1.12,1.12,0,0,0,0,.86c.13.54.26,1.08.4,1.62.1.34.22.68.33,1a2,2,0,0,1,.06.23c.15,1.51.31,3,.45,4.53a1.85,1.85,0,0,1-.11.77A.55.55,0,0,0,83.91,54.33Zm-2-2.77a8,8,0,0,0-.23-2.44c-.16-.63-.34-1.26-.45-1.9-.17-1-.29-2.07-.44-3.11a3.33,3.33,0,0,0-.42-1.45,8.64,8.64,0,0,1-.94-2.26c-.37-1.16-.76-2.33-1.17-3.48-.17-.49-.45-.94-.63-1.43a26.68,26.68,0,0,0-2-4.07c-.31-.56-.7-1.07-1-1.63a11.54,11.54,0,0,0-1.72-2.32,19.78,19.78,0,0,1-1.71-2.16,7.74,7.74,0,0,0-.82-.9c-.15-.17-.36-.3-.49-.48a13.72,13.72,0,0,0-1.61-2c-.68-.66-1.22-1.46-1.9-2.11a13.84,13.84,0,0,0-3.07-2.64.47.47,0,0,1-.15-.13A9.58,9.58,0,0,0,61.2,15.6a1.06,1.06,0,0,1-.3-.26c-.56-.66-1.43-.95-2-1.64-.06-.08-.17-.11-.25-.16-.45-.27-.9-.54-1.33-.83s-.68-.57-1-.81c-.75-.5-1.51-1-2.29-1.42s-1.64-.83-2.45-1.25-1.3-.76-2-1.05c-1.49-.62-3-1.18-4.51-1.75-.71-.27-1.42-.49-2.13-.74-.2-.07-.37-.21-.58-.28l-2.2-.64-.75-.23c-.9-.25-1.78-.55-2.69-.72a7.09,7.09,0,0,1-1.82-.37,1.27,1.27,0,0,0-.34,0l-1.5-.24c-.51-.08-1-.18-1.53-.25-.3,0-.59,0-.89,0l-3.52-.24h-.2c-.31,0-.62.07-.93.07-1.13,0-2.26,0-3.39,0-.94,0-1.89.15-2.84.2S18.06,3,17.21,3a4.48,4.48,0,0,1-.73,0A13,13,0,0,0,14,2.84c-.52,0-1.05.05-1.57,0s-1.28-.06-1.92,0l-4.37.09A12.57,12.57,0,0,0,4.75,3c-.44,0-.49.14-.51.57s-.07.85,0,1.27A7.23,7.23,0,0,0,4.3,6.44a3.37,3.37,0,0,1,0,1.61A7.14,7.14,0,0,0,4.27,9c0,.21,0,.42,0,.63a8.93,8.93,0,0,0-.08,1c0,1.35.14,2.71.18,4.06,0,.9,0,1.81,0,2.71A5.12,5.12,0,0,1,4.28,19a2.23,2.23,0,0,0,0,.63c0,.16,0,.33,0,.49V22c0,.43,0,.85,0,1.28a32.86,32.86,0,0,0-.08,3.58c0,.11,0,.22,0,.34,0,.52,0,1.05,0,1.57,0,.85.15,1.69.18,2.54s0,1.44,0,2.16c0,.88,0,1.77,0,2.65,0,.72-.06,1.44-.07,2.16a2.92,2.92,0,0,0,.12,1.31c0,.09,0,.22,0,.33,0,.39-.13.78-.14,1.17,0,1.42,0,2.85,0,4.27a8.77,8.77,0,0,1,0,.88,27.65,27.65,0,0,0,0,4.07c0,1.18.1,2.35.15,3.53a2.09,2.09,0,0,1,0,.25c0,.67-.08,1.34-.09,2,0,.85,0,1.7,0,2.55s0,1.7,0,2.55c0,.62-.11,1.24-.11,1.86,0,1.48,0,2.95.07,4.42,0,.85,0,1.71,0,2.56a19.7,19.7,0,0,0,.09,2.55,29.87,29.87,0,0,1,.1,3c0,.59,0,1.18.06,1.76a5.16,5.16,0,0,1-.06,1.52,5,5,0,0,0-.09.87c0,1.55.17,3.1.12,4.65,0,.11,0,.23,0,.34a30.26,30.26,0,0,1,0,4.76c0,.29,0,.59,0,.88,0,.7,0,1.41-.07,2.11,0,.19,0,.39,0,.59a12.43,12.43,0,0,1,.07,2.44,5.91,5.91,0,0,0,0,1l0,.44a4.58,4.58,0,0,0,.06,1.65.69.69,0,0,1,0,.24c0,.32,0,.64,0,1a14.74,14.74,0,0,1,.07,2,10.33,10.33,0,0,0-.08,1.76c0,1,.1,2,.15,2.94,0,.25,0,.49,0,.74,0,.48.1.55.55.54s.76,0,1.13-.05a15,15,0,0,1,3.14,0c.32,0,.65,0,1,.07l2.9.1,2.89,0a1.06,1.06,0,0,0,.75-.23,1.39,1.39,0,0,1-.12-.38c0-.09.05-.25.11-.27a.31.31,0,0,1,.29.09.77.77,0,0,1,.12.37,2.54,2.54,0,0,1,0,.39,2.06,2.06,0,0,0,.28,0c.64,0,1.28,0,1.92,0,.81,0,1.63,0,2.45.08s1.53.09,2.3.11c.33,0,.66,0,1-.06a35.16,35.16,0,0,0,5.42-.43l1.82-.37,2.55-.54c.38-.09.75-.21,1.12-.33s.61-.25.91-.37l1.74-.62c.44-.17.87-.37,1.31-.53s1.17-.4,1.76-.6l1.53-.51a.65.65,0,0,1,.19,0,5.69,5.69,0,0,0,1.7-.44c1.11-.47,2.27-.8,3.38-1.3a12.13,12.13,0,0,0,1.43-.75,12.22,12.22,0,0,1,1.07-.59,37.54,37.54,0,0,0,4.25-2.14,2,2,0,0,1,.52-.27,5.57,5.57,0,0,0,1.62-.89c.92-.73,1.9-1.4,2.75-2.22a9,9,0,0,1,1.11-.8c.27-.18.58-.31.84-.5a25.37,25.37,0,0,0,2.77-2.19c.28-.25.59-.47.85-.74.4-.43.76-.9,1.17-1.32.72-.74,1.48-1.44,2.18-2.19a22.55,22.55,0,0,0,2-2.31c.65-.9,1.35-1.77,2-2.65.23-.29.5-.56.71-.87.57-.86,1.11-1.73,1.66-2.6.2-.32.43-.62.61-1,.3-.51.57-1,.84-1.55l.22-.44c.3-.71.61-1.41.9-2.12s.52-1.21.72-1.83c.28-.83.52-1.69.76-2.53a16.38,16.38,0,0,0,.57-2.19,22.72,22.72,0,0,1,.56-2.23,3.7,3.7,0,0,0,.2-.86A9.79,9.79,0,0,1,81.77,62a9.34,9.34,0,0,0,.14-3c-.06-.59-.07-1.2-.09-1.8,0-.31,0-.62,0-.93s0-.49,0-.74c0-.6.1-1.2.07-1.8a5.15,5.15,0,0,0-.27-1.34C81.48,51.88,81.45,51.89,81.87,51.56Z"/><path class="cls-1" d="M81.87,51.56c-.42.33-.39.32-.23.84a5.15,5.15,0,0,1,.27,1.34c0,.6,0,1.2-.07,1.8,0,.25,0,.49,0,.74s0,.62,0,.93c0,.6,0,1.21.09,1.8a9.34,9.34,0,0,1-.14,3,9.79,9.79,0,0,0-.41,2.21,3.7,3.7,0,0,1-.2.86,22.72,22.72,0,0,0-.56,2.23A16.38,16.38,0,0,1,80,69.53c-.24.84-.48,1.7-.76,2.53-.2.62-.47,1.22-.72,1.83S78,75.3,77.65,76l-.22.44c-.27.52-.54,1-.84,1.55-.18.33-.41.63-.61,1-.55.87-1.09,1.74-1.66,2.6-.21.31-.48.58-.71.87-.69.88-1.39,1.75-2,2.65a22.55,22.55,0,0,1-2,2.31c-.7.75-1.46,1.45-2.18,2.19-.41.42-.77.89-1.17,1.32-.26.27-.57.49-.85.74a25.37,25.37,0,0,1-2.77,2.19c-.26.19-.57.32-.84.5a9,9,0,0,0-1.11.8c-.85.82-1.83,1.49-2.75,2.22a5.57,5.57,0,0,1-1.62.89,2,2,0,0,0-.52.27,37.54,37.54,0,0,1-4.25,2.14,12.22,12.22,0,0,0-1.07.59A12.13,12.13,0,0,1,49,102c-1.11.5-2.27.83-3.38,1.3a5.69,5.69,0,0,1-1.7.44.65.65,0,0,0-.19,0l-1.53.51c-.59.2-1.18.39-1.76.6s-.87.36-1.31.53l-1.74.62c-.3.12-.6.26-.91.37s-.74.24-1.12.33l-2.55.54-1.82.37a35.16,35.16,0,0,1-5.42.43c-.32,0-.65.07-1,.06-.77,0-1.53-.08-2.3-.11s-1.64-.07-2.45-.08c-.64,0-1.28,0-1.92,0a2.06,2.06,0,0,1-.28,0,2.54,2.54,0,0,0,0-.39.77.77,0,0,0-.12-.37.31.31,0,0,0-.29-.09c-.06,0-.11.18-.11.27a1.39,1.39,0,0,0,.12.38,1.06,1.06,0,0,1-.75.23l-2.89,0-2.9-.1c-.33,0-.66,0-1-.07a15,15,0,0,0-3.14,0c-.37,0-.75,0-1.13.05s-.52-.06-.55-.54c0-.25,0-.49,0-.74,0-1-.13-2-.15-2.94a10.33,10.33,0,0,1,.08-1.76,14.74,14.74,0,0,0-.07-2c0-.33,0-.65,0-1a.69.69,0,0,0,0-.24,4.58,4.58,0,0,1-.06-1.65l0-.44a5.91,5.91,0,0,1,0-1A12.43,12.43,0,0,0,4.59,93c0-.2,0-.4,0-.59,0-.7.05-1.41.07-2.11,0-.29,0-.59,0-.88a30.26,30.26,0,0,0,0-4.76c0-.11,0-.23,0-.34,0-1.55-.17-3.1-.12-4.65a5,5,0,0,1,.09-.87,5.16,5.16,0,0,0,.06-1.52c0-.58,0-1.17-.06-1.76a29.87,29.87,0,0,0-.1-3A19.7,19.7,0,0,1,4.43,70c0-.85,0-1.71,0-2.56,0-1.47-.06-2.94-.07-4.42,0-.62.1-1.24.11-1.86,0-.85,0-1.7,0-2.55s0-1.7,0-2.55c0-.67.06-1.34.09-2a2.09,2.09,0,0,0,0-.25c0-1.18-.12-2.35-.15-3.53a27.65,27.65,0,0,1,0-4.07,8.77,8.77,0,0,0,0-.88c0-1.42,0-2.85,0-4.27,0-.39.1-.78.14-1.17,0-.11,0-.24,0-.33a2.92,2.92,0,0,1-.12-1.31c0-.72.07-1.44.07-2.16,0-.88,0-1.77,0-2.65,0-.72,0-1.44,0-2.16s-.14-1.69-.18-2.54c0-.52,0-1,0-1.57,0-.12,0-.23,0-.34a32.86,32.86,0,0,1,.08-3.58c0-.43,0-.85,0-1.28V20.09c0-.16,0-.33,0-.49a2.23,2.23,0,0,1,0-.63,5.12,5.12,0,0,0,.08-1.56c0-.9,0-1.81,0-2.71,0-1.35-.13-2.71-.18-4.06a8.93,8.93,0,0,1,.08-1c0-.21,0-.42,0-.63a7.14,7.14,0,0,1,.06-.93,3.37,3.37,0,0,0,0-1.61,7.23,7.23,0,0,1-.11-1.61c0-.42,0-.85,0-1.27S4.31,3,4.75,3a12.57,12.57,0,0,1,1.37-.07l4.37-.09c.64,0,1.28,0,1.92,0s1.05,0,1.57,0a13,13,0,0,1,2.5.09,4.48,4.48,0,0,0,.73,0c.85,0,1.7,0,2.55-.06s1.9-.17,2.84-.2c1.13,0,2.26,0,3.39,0,.31,0,.62,0,.93-.07h.2l3.52.24c.3,0,.59,0,.89,0,.51.07,1,.17,1.53.25l1.5.24a1.27,1.27,0,0,1,.34,0,7.09,7.09,0,0,0,1.82.37c.91.17,1.79.47,2.69.72l.75.23,2.2.64c.21.07.38.21.58.28.71.25,1.42.47,2.13.74,1.51.57,3,1.13,4.51,1.75.69.29,1.32.71,2,1.05s1.65.8,2.45,1.25,1.54.92,2.29,1.42c.37.24.68.56,1,.81s.88.56,1.33.83c.08.05.19.08.25.16.53.69,1.4,1,2,1.64a1.06,1.06,0,0,0,.3.26,9.58,9.58,0,0,1,1.88,1.48.47.47,0,0,0,.15.13,13.84,13.84,0,0,1,3.07,2.64c.68.65,1.22,1.45,1.9,2.11a13.72,13.72,0,0,1,1.61,2c.13.18.34.31.49.48a7.74,7.74,0,0,1,.82.9,19.78,19.78,0,0,0,1.71,2.16,11.54,11.54,0,0,1,1.72,2.32c.3.56.69,1.07,1,1.63a26.68,26.68,0,0,1,2,4.07c.18.49.46.94.63,1.43.41,1.15.8,2.32,1.17,3.48a8.64,8.64,0,0,0,.94,2.26,3.33,3.33,0,0,1,.42,1.45c.15,1,.27,2.08.44,3.11.11.64.29,1.27.45,1.9A8,8,0,0,1,81.87,51.56ZM15.47,15.3c0,.39.09.73.08,1.06,0,.8-.09,1.6-.07,2.4,0,2.24,0,4.49.21,6.72a34.72,34.72,0,0,1,.11,3.68c0,.69-.05,1.37-.07,2.06,0,1.16,0,2.32-.05,3.48,0,.59,0,1.17.05,1.76,0,.8.11,1.6.13,2.41,0,1.93.07,3.86.1,5.79,0,.61.06,1.21.05,1.82a10.79,10.79,0,0,0-.09,2.05,1.4,1.4,0,0,1,0,.35c0,.52-.06,1-.05,1.56s.11,1.31.07,2c-.09,1.83-.14,3.66-.05,5.5,0,.22,0,.45,0,.68,0,1.2-.09,2.39-.13,3.58s-.09,2.62-.14,3.93c0,.62-.07,1.24-.08,1.87,0,.88,0,1.76,0,2.64,0,1.07.15,2.13.21,3.19,0,.5,0,1,0,1.52s-.06,1.31-.1,2c0,.82-.14,1.64-.15,2.45,0,1.35.06,2.69.06,4,0,1.07,0,2.13,0,3.19,0,2,0,4-.12,6a7.74,7.74,0,0,1-.16,2,.31.31,0,0,0,0,.19c.09.31.17.64.28.94a1.45,1.45,0,0,0,.74.68c.25.13.41,0,.6-.07a1.86,1.86,0,0,1,.34-.07,19.89,19.89,0,0,1,3.62,0,7.26,7.26,0,0,0,1.32,0c.41,0,.81-.15,1.21-.22a19.62,19.62,0,0,0,2.16-.42,9.21,9.21,0,0,1,3.3-.36,4.34,4.34,0,0,0,1-.11c.17,0,.32-.08.48-.09a7.12,7.12,0,0,0,2.13-.55,6.52,6.52,0,0,1,.73-.29,6.07,6.07,0,0,0,1.59-.63,2.11,2.11,0,0,1,.53-.24l1.62-.55a10.75,10.75,0,0,0,1.26-.52,3.55,3.55,0,0,1,1.44-.44.8.8,0,0,0,.27-.12l2.34-1.22L43.7,90l3.08-1.63c.37-.2.73-.41,1.1-.64s.82-.52,1.23-.79.94-.59,1.37-.93a29.31,29.31,0,0,1,2.66-1.91A4.65,4.65,0,0,0,54.36,83,5.77,5.77,0,0,1,55,82.3c.44-.4.92-.77,1.37-1.17l2.09-1.93a3.78,3.78,0,0,0,.71-.67,12.49,12.49,0,0,1,1.16-1.45c.9-1.06,1.76-2.15,2.64-3.23a3.7,3.7,0,0,0,.21-.33,18.28,18.28,0,0,1,1.8-2.8.89.89,0,0,1,.35-.26.51.51,0,0,0,.34-.38,1.25,1.25,0,0,1,.21-.37,3,3,0,0,0,.3-.51c.18-.47.32-1,.49-1.43.1-.28.2-.56.32-.83.43-.91.87-1.82,1.31-2.73a4.43,4.43,0,0,0,.12-.43c.07-.25.15-.5.22-.75.2-.77.43-1.54.58-2.32a13.37,13.37,0,0,0,.18-1.66,1.16,1.16,0,0,1,.35-.79.7.7,0,0,0,.17-.89,2.46,2.46,0,0,1-.21-.7,7.6,7.6,0,0,1,0-1.07,13.45,13.45,0,0,1,.09-2.2,10.57,10.57,0,0,0-.15-2.58c0-.6-.19-1.19-.28-1.79A9.73,9.73,0,0,0,69,47.36a15.52,15.52,0,0,1-.74-2.75,9.22,9.22,0,0,0-1-2.87,12.2,12.2,0,0,0-1.17-2.51.58.58,0,0,1,0-.14,5.42,5.42,0,0,0-.82-1.44,3.91,3.91,0,0,1-.63-.93,1.22,1.22,0,0,0-.46-.61,1.14,1.14,0,0,1-.24-.25c-.37-.47-.73-1-1.1-1.43S62,33.47,61.6,33A11,11,0,0,1,61,32c-.05-.08-.07-.21-.14-.25-.36-.21-.5-.6-.74-.9s-.35-.43-.54-.63l-2.46-2.66a1.77,1.77,0,0,1-.17-.24,4.15,4.15,0,0,0-1-1.16,5.92,5.92,0,0,1-1-.91,11,11,0,0,0-2-1.51c-.36-.28-.81-.43-1.17-.71a36.69,36.69,0,0,0-4-2.45c-.67-.41-1.35-.8-2-1.19a25.23,25.23,0,0,0-2.28-1.25c-.85-.37-1.75-.64-2.63-.94a9.21,9.21,0,0,1-1.16-.37,14,14,0,0,0-2.31-.94,9.06,9.06,0,0,0-3-.7s-.06,0-.1,0c-.76-.16-1.52-.35-2.29-.49a7.76,7.76,0,0,0-2.59-.06,4.4,4.4,0,0,1-.89,0l-2.2-.11a1.33,1.33,0,0,0-.34,0,5.26,5.26,0,0,1-2.81,0,1.82,1.82,0,0,0-.57,0c-.36,0-.71.14-1.06.16-.75,0-1.51,0-2.26,0l-.19,0-1.28,0a1.92,1.92,0,0,0-.48,0,2.1,2.1,0,0,1-1,.13.69.69,0,0,0-.36.11A4.63,4.63,0,0,0,15.47,15.3Zm-6,10.29s-.14-.19-.21-.19-.29.19-.31.39,0,.26.21.27S9.44,25.86,9.45,25.59Z"/><path class="cls-1" d="M15.47,15.3a4.63,4.63,0,0,1,.54-.37.69.69,0,0,1,.36-.11,2.1,2.1,0,0,0,1-.13,1.92,1.92,0,0,1,.48,0l1.28,0,.19,0c.75,0,1.51,0,2.26,0,.35,0,.7-.12,1.06-.16a1.82,1.82,0,0,1,.57,0,5.26,5.26,0,0,0,2.81,0,1.33,1.33,0,0,1,.34,0l2.2.11a4.4,4.4,0,0,0,.89,0,7.76,7.76,0,0,1,2.59.06c.77.14,1.53.33,2.29.49,0,0,.07,0,.1,0a9.06,9.06,0,0,1,3,.7,14,14,0,0,1,2.31.94,9.21,9.21,0,0,0,1.16.37c.88.3,1.78.57,2.63.94a25.23,25.23,0,0,1,2.28,1.25c.68.39,1.36.78,2,1.19a36.69,36.69,0,0,1,4,2.45c.36.28.81.43,1.17.71a11,11,0,0,1,2,1.51,5.92,5.92,0,0,0,1,.91,4.15,4.15,0,0,1,1,1.16,1.77,1.77,0,0,0,.17.24l2.46,2.66c.19.2.36.42.54.63s.38.69.74.9c.07,0,.09.17.14.25a11,11,0,0,0,.58,1c.36.51.77,1,1.15,1.47s.73,1,1.1,1.43a1.14,1.14,0,0,0,.24.25,1.22,1.22,0,0,1,.46.61,3.91,3.91,0,0,0,.63.93A5.42,5.42,0,0,1,66,39.09a.58.58,0,0,0,0,.14,12.2,12.2,0,0,1,1.17,2.51,9.22,9.22,0,0,1,1,2.87A15.52,15.52,0,0,0,69,47.36,9.73,9.73,0,0,1,69.3,49c.09.6.24,1.19.28,1.79a10.57,10.57,0,0,1,.15,2.58,13.45,13.45,0,0,0-.09,2.2,7.6,7.6,0,0,0,0,1.07,2.46,2.46,0,0,0,.21.7.7.7,0,0,1-.17.89,1.16,1.16,0,0,0-.35.79,13.37,13.37,0,0,1-.18,1.66c-.15.78-.38,1.55-.58,2.32-.07.25-.15.5-.22.75a4.43,4.43,0,0,1-.12.43c-.44.91-.88,1.82-1.31,2.73-.12.27-.22.55-.32.83-.17.47-.31,1-.49,1.43a3,3,0,0,1-.3.51,1.25,1.25,0,0,0-.21.37.51.51,0,0,1-.34.38.89.89,0,0,0-.35.26,18.28,18.28,0,0,0-1.8,2.8,3.7,3.7,0,0,1-.21.33c-.88,1.08-1.74,2.17-2.64,3.23a12.49,12.49,0,0,0-1.16,1.45,3.78,3.78,0,0,1-.71.67l-2.09,1.93c-.45.4-.93.77-1.37,1.17a5.77,5.77,0,0,0-.62.69,4.65,4.65,0,0,1-1.22,1.12A29.31,29.31,0,0,0,50.48,86c-.43.34-.91.62-1.37.93s-.82.54-1.23.79-.73.44-1.1.64L43.7,90l-1.53.79L39.83,92a.8.8,0,0,1-.27.12,3.55,3.55,0,0,0-1.44.44,10.75,10.75,0,0,1-1.26.52l-1.62.55a2.11,2.11,0,0,0-.53.24,6.07,6.07,0,0,1-1.59.63,6.52,6.52,0,0,0-.73.29,7.12,7.12,0,0,1-2.13.55c-.16,0-.31.07-.48.09a4.34,4.34,0,0,1-1,.11,9.21,9.21,0,0,0-3.3.36,19.62,19.62,0,0,1-2.16.42c-.4.07-.8.18-1.21.22a7.26,7.26,0,0,1-1.32,0,19.89,19.89,0,0,0-3.62,0,1.86,1.86,0,0,0-.34.07c-.19.07-.35.2-.6.07a1.45,1.45,0,0,1-.74-.68c-.11-.3-.19-.63-.28-.94a.31.31,0,0,1,0-.19,7.74,7.74,0,0,0,.16-2c.08-2,.08-4,.12-6,0-1.06.06-2.12,0-3.19,0-1.34-.07-2.68-.06-4,0-.81.11-1.63.15-2.45,0-.65.07-1.31.1-2s0-1,0-1.52c-.06-1.06-.17-2.12-.21-3.19,0-.88,0-1.76,0-2.64,0-.63.06-1.25.08-1.87.05-1.31.09-2.62.14-3.93s.09-2.38.13-3.58c0-.23,0-.46,0-.68-.09-1.84,0-3.67.05-5.5,0-.66-.07-1.31-.07-2s0-1,.05-1.56a1.4,1.4,0,0,0,0-.35A10.79,10.79,0,0,1,16,46.48c0-.61,0-1.21-.05-1.82,0-1.93-.06-3.86-.1-5.79,0-.81-.1-1.61-.13-2.41,0-.59-.05-1.17-.05-1.76,0-1.16,0-2.32.05-3.48,0-.69.07-1.37.07-2.06a34.72,34.72,0,0,0-.11-3.68c-.24-2.23-.17-4.48-.21-6.72,0-.8.06-1.6.07-2.4C15.56,16,15.5,15.69,15.47,15.3ZM51.73,82.19c.37.43.55.16.76,0l.85-.74a3,3,0,0,0,.31-.31A5.3,5.3,0,0,1,55,79.84a2.79,2.79,0,0,0,.8-.64,12,12,0,0,1,1.37-1.39c.28-.28.58-.53.85-.81s.51-.55.76-.84.55-.6.8-.93c.38-.5.74-1,1.11-1.54l1.39-1.85c.23-.33.44-.68.66-1a5.83,5.83,0,0,1,.39-.62,12.51,12.51,0,0,1,.91-1A4.1,4.1,0,0,0,65,67.62c.34-.9.68-1.8,1-2.7.27-.66.58-1.31.85-2a10.3,10.3,0,0,0,.55-1.62,17.15,17.15,0,0,0,.25-1.89,3.1,3.1,0,0,1,.14-1.21c0-.07,0-.19,0-.29,0-.59-.11-1.17-.1-1.76,0-1.05.12-2.09.18-3.14a1.93,1.93,0,0,0,0-.34,28.49,28.49,0,0,0-.5-3.79c-.16-.58-.3-1.17-.45-1.76a16.13,16.13,0,0,1-.42-1.66A9.61,9.61,0,0,0,65.73,43c-.34-.81-.79-1.58-1.13-2.39a12.29,12.29,0,0,0-1.17-2.21c-.41-.59-.82-1.18-1.25-1.76a12,12,0,0,0-.91-1.21,14,14,0,0,1-2-2.82,1.94,1.94,0,0,0-.31-.44c-.84-.95-1.65-1.91-2.52-2.82a29.06,29.06,0,0,0-2.23-2.21,21.91,21.91,0,0,0-2.87-2.21,7.17,7.17,0,0,1-.75-.46,20.71,20.71,0,0,0-3-1.89q-.91-.48-1.8-1c-.52-.31-1-.64-1.52-1a11.13,11.13,0,0,0-2.29-1.08c-.85-.34-1.72-.63-2.57-1-.54-.2-1.06-.45-1.6-.61-1.12-.33-2.24-.63-3.37-.92a17.1,17.1,0,0,0-2-.43c-.86-.11-1.72-.16-2.59-.19-.52,0-1.05.05-1.57.05a35.62,35.62,0,0,0-3.58,0c-1.07.11-2.16.07-3.23.1-.14,0-.27,0-.4,0a13.55,13.55,0,0,1-1.56,0,8.25,8.25,0,0,0-1.57-.06c-.43,0-.51.08-.53.53,0,.6,0,1.21,0,1.81s0,1,0,1.53c0,.88,0,1.77,0,2.65A14.36,14.36,0,0,0,17.6,26a1,1,0,0,1,0,.3c0,2.09-.05,4.19-.07,6.28,0,1.25,0,2.5,0,3.74s.12,2.26.15,3.38c0,1.46,0,2.91,0,4.37,0,1.16.07,2.32.07,3.48s-.07,2.2-.08,3.29c0,1.67,0,3.34,0,5,0,.82,0,1.63,0,2.45,0,.21,0,.43,0,.64a6.4,6.4,0,0,0-.06,2,.67.67,0,0,1,0,.24c0,.39-.08.79-.09,1.18,0,.64,0,1.27,0,1.91,0,1.11-.32,2.2-.2,3.33a8.38,8.38,0,0,1-.06,1.22,23.78,23.78,0,0,0,.18,3.87,22,22,0,0,1-.05,4.52l0,.93c-.05,1-.15,2-.16,2.94s.14,2.09.13,3.13c0,1.61,0,3.23-.15,4.85,0,.12,0,.26,0,.39a6,6,0,0,1,0,.73c0,1.23,0,2.46-.08,3.68,0,.23.08.34.29.37l.49,0c.88.06,1.76.16,2.64.17a17.63,17.63,0,0,0,2.3-.11c.85-.11,1.68-.32,2.52-.47a10.25,10.25,0,0,1,1.11-.17c.65,0,1.31,0,2-.1s1.09-.16,1.64-.23a9,9,0,0,0,2.7-.85,2.63,2.63,0,0,1,.91-.34,1.21,1.21,0,0,0,.52-.23,2,2,0,0,1,.81-.33,7.18,7.18,0,0,0,1.52-.37,32.21,32.21,0,0,0,3.88-1.64c1.25-.69,2.51-1.35,3.77-2,.21-.11.41-.26.62-.38s.35-.18.52-.27l.43-.22,2-1.26c.3-.19.62-.36.91-.57.82-.57,1.61-1.19,2.44-1.74C51.5,82.93,51.79,82.77,51.73,82.19Z"/><path class="cls-1" d="M9.45,25.59c0,.27-.15.47-.31.47s-.22-.13-.21-.27.1-.37.31-.39S9.4,25.55,9.45,25.59Z"/><path class="cls-1" d="M58.4,68.18c-.11.07-.19.17-.24.15a.24.24,0,0,1-.15-.19.25.25,0,0,1,.17-.16C58.24,68,58.3,68.09,58.4,68.18Z"/></svg>