<svg id="E" xmlns="http://www.w3.org/2000/svg" viewBox="0 0 86 112"><defs><style>.cls-1{stroke:#000;stroke-miterlimit:10;}</style></defs><path class="cls-1" d="M3,111c-.17.12-.26.24-.37.25s-.18-.16-.2-.26a.21.21,0,0,1,.23-.27C2.71,110.72,2.8,110.85,3,111Z"/><path class="cls-1" d="M77.71,2.27a.45.45,0,0,1,.47-.37c.15,0,.29.22.45.36C78,2.57,78,2.57,77.71,2.27Z"/><path class="cls-1" d="M2.94,2.51l-.37.25C2.58,2.42,2.63,2.39,2.94,2.51Z"/><path class="cls-1" d="M2.55,6.38l.22-.08s0,.1,0,.1l-.21.12Z"/><path class="cls-1" d="M81.34,14v.27h-.07V14Z"/><path class="cls-1" d="M31.2,2.33l-.25,0s0-.08,0-.08l.25-.12Z"/><path class="cls-1" d="M74.7,15.59c.07,0,.15-.05.21,0s0,.16-.09.16l-.12,0Z"/><path class="cls-1" d="M81.05,15.05H80.8V15l.25,0Z"/><path class="cls-1" d="M80.51,14.24c.18,0,.32.06.27.32l-.26-.33Z"/><path class="cls-1" d="M77.5,2l-.29,0,0-.09.28-.08Z"/><path class="cls-1" d="M2.73,3.68,2.6,3.5l0,0,.18.13Z"/><path class="cls-1" d="M2.83,4.76c-.07,0-.11,0-.14,0s0-.06-.07-.09a.22.22,0,0,1,.11,0S2.78,4.72,2.83,4.76Z"/><path class="cls-1" d="M81.65,12.48l-.16.12,0,0,.13-.15Z"/><path class="cls-1" d="M3,15.1l.07.16-.07,0-.07-.16Z"/><path class="cls-1" d="M84.85,106.69a4.9,4.9,0,0,1-.13-1.37,12.61,12.61,0,0,0,0-1.74,26.13,26.13,0,0,1-.18-2.79c0-.19,0-.39,0-.57-.09-.69-.19-1.38-.28-2.07s-.18-1.63-.28-2.45a4.16,4.16,0,0,0-.22-.82,1.68,1.68,0,0,0-.38-.74,2.66,2.66,0,0,0-1.19-.56,23.45,23.45,0,0,0-3-.21c-1.6,0-3.2.07-4.8.08-1.34,0-2.69-.07-4-.08-1.63,0-3.26,0-4.89,0-.68,0-1.36.07-2,.12l-1.65.12c-1.32.09-2.62-.16-3.94-.13a25.33,25.33,0,0,0-3,.1l-.33,0H52c-.66,0-1.32-.08-2-.09-1.72,0-3.45,0-5.17,0s-3.7.26-5.55.13h-.14c-.84,0-1.68.07-2.52.06-.45,0-.9-.14-1.36-.18s-1.23-.06-1.84-.08c-.18,0-.35,0-.53,0s-.66.06-1,0l-4.22-.17h-.76c-1.35.08-2.69.07-4,0s-2.91,0-4.36,0c-.57,0-1.14,0-1.71.08-.17,0-.33,0-.36-.22-.07-.5-.15-1-.17-1.5s.05-1.14.05-1.71c0-.82-.07-1.64-.05-2.47,0-1,.11-2,.16-2.93a6.33,6.33,0,0,0,0-1.23,10.11,10.11,0,0,1-.14-1.65c0-1.28-.11-2.55-.05-3.83.08-1.68.08-3.35.11-5,0-.41,0-.82,0-1.23.1-1.15.21-2.29.32-3.43.07-.73.14-1.47.18-2.2.06-1,.11-2,.14-3.07,0-.53.07-.62.6-.62.74,0,1.49,0,2.23,0,.44,0,.89,0,1.33,0l4.32,0c.5,0,1,0,1.51.07A25.28,25.28,0,0,0,31,62.6a9,9,0,0,1,1.8,0,16.23,16.23,0,0,0,2.79.2c.37,0,.75-.07,1.13-.06s1,.07,1.57.05c1.34-.06,2.68-.17,4-.23.85,0,1.7,0,2.55,0H45c.28,0,.56,0,.85,0l2.46-.12,1,0,3.23-.16,2.36-.12a7.16,7.16,0,0,1,1.13,0c.6.07.89-.09,1-.65a1.41,1.41,0,0,0,0-.29c0-.72-.1-1.45-.11-2.18a16.9,16.9,0,0,1,.09-1.74,9,9,0,0,0,0-2.37,2.81,2.81,0,0,0-.15-.37A3,3,0,0,0,57,54c0-.75,0-1.51,0-2.26,0-.22,0-.44,0-.66a4.8,4.8,0,0,0,0-.52A17.27,17.27,0,0,1,57,47.86a.29.29,0,0,0-.23-.36,5.61,5.61,0,0,0-1.05-.22c-.62,0-1.23,0-1.85,0h-2c-1.09,0-2.18,0-3.27,0a11.9,11.9,0,0,0-2.46,0c-.1,0-.22,0-.33,0l-1.23,0a2.3,2.3,0,0,1-.37,0,4,4,0,0,0-1.51,0,1,1,0,0,1-.42,0,12.07,12.07,0,0,0-3.12,0,10.59,10.59,0,0,1-1.13,0c-.6,0-1.2,0-1.79-.06l-1.7-.11a1.21,1.21,0,0,1-.18-.05,2.12,2.12,0,0,0-.56,0,5.2,5.2,0,0,1-1.31.13c-.5,0-1,0-1.51,0a7.53,7.53,0,0,0-2.12,0,.74.74,0,0,1-.33,0A8.08,8.08,0,0,0,26,47c-.61.06-1.22.1-1.84.11-.9,0-1.8,0-2.7,0a10.26,10.26,0,0,1-1.36,0c-.78-.06-1.58,0-2.37-.07a.42.42,0,0,1-.32-.12A1.43,1.43,0,0,1,17,45.81a.89.89,0,0,0,0-.23l0-3.18a3.5,3.5,0,0,0,0-.56A23.69,23.69,0,0,1,17,38.58c0-1.66,0-3.32.06-5a2.44,2.44,0,0,1,.2-1.06.51.51,0,0,0,0-.48,1.63,1.63,0,0,1-.26-1C17,30,17,29,17,28c0-.23,0-.47,0-.7,0-.87-.1-1.73-.13-2.6s0-1.67,0-2.5c0-.6.06-1.2.09-1.79,0-.24,0-.47,0-.7s0-.47,0-.7a2.47,2.47,0,0,0,0-1.21,1.85,1.85,0,0,1,0-.87.36.36,0,0,1,.23-.26,12.48,12.48,0,0,1,1.35-.18c.36,0,.73,0,1.09,0,.6,0,1.2-.11,1.79-.08.95,0,1.89,0,2.84,0s1.86-.06,2.78-.1l1.28,0a10.92,10.92,0,0,1,1.28,0,29,29,0,0,0,3.84.07h1.28c.58,0,1.16,0,1.75,0,.93,0,1.86.13,2.79.16,1.34,0,2.69-.07,4,.06a3,3,0,0,0,.42-.06c.57,0,1.13-.07,1.7-.07s.92,0,1.37,0l2,.08a3.19,3.19,0,0,0,.62,0,8.69,8.69,0,0,1,2.22,0c.28,0,.57,0,.85,0a18.06,18.06,0,0,1,1.94-.07c1.41.11,2.81-.18,4.22,0l.19,0c.41,0,.82,0,1.23,0,.77.05,1.54.15,2.31.19,1.12.06,2.24.1,3.36.15s2.37.13,3.56.16c.48,0,1-.07,1.46-.1s1,0,1.56-.09a17,17,0,0,1,2.94-.15,5.44,5.44,0,0,0,.9-.15.6.6,0,0,0,.69.09c.09-.06.25,0,.37,0l1.8.13a.6.6,0,0,0,.32-.05.75.75,0,0,0,.42,0l.16,0a1.13,1.13,0,0,1,.26,0,.6.6,0,0,0,.19,0c0,.42,0,.42.45.4a2.59,2.59,0,0,0,.56,0c.16,0,.37-.1.44-.22a.48.48,0,0,0-.14-.56c-.06-.05-.1-.11-.15-.16.15-.33.15-.33-.18-.9l.45-.52-.16-.25a1.67,1.67,0,0,0,.13-.56.73.73,0,0,1,.06-.58.44.44,0,0,0,0-.23c0-.27-.26-.53,0-.8,0,0,0-.12,0-.17s-.15-.37-.22-.57c-.33.19.08.53-.14.69l0,0a10.85,10.85,0,0,0,0-1.14,0,0,0,0,0,0,0,.59.59,0,0,0,.33-.11c.12-.1,0-.22,0-.34a1.8,1.8,0,0,1-.12-.35l-.19-.48c.32,0,.21-.34.25-.54.1-.42-.38-.25-.54-.47.26-.17.45-.36.21-.67l-.24.11a5.34,5.34,0,0,0-.09-.53l.42-.36c0-.34,0-.66-.06-1s0-.41,0-.61a.91.91,0,0,0,0-.17,4,4,0,0,0,0-.92A1.56,1.56,0,0,1,81.62,4c0-.08,0-.21,0-.32s-.06-.24,0-.32a.55.55,0,0,0-.14-.72l.12-.77-.81-.16v.4l-.5-.17a.91.91,0,0,0-.3-.11c-.35,0-.69,0-1,0a7.77,7.77,0,0,1-1.28,0,2.59,2.59,0,0,0-1.23.1,3.58,3.58,0,0,0-.63-.19c-.77,0-1.54-.06-2.31-.09-1.39,0-2.78,0-4.17-.09s-2.59-.1-3.89-.12c-.85,0-1.7,0-2.56.05l-2.18,0c-.58,0-1.16,0-1.75,0s-1.1-.09-1.65-.1-1,0-1.52,0l-4.21.16a5,5,0,0,1-.67,0,10.8,10.8,0,0,0-2.54.05,15.63,15.63,0,0,1-1.81,0c-.39,0-.78-.07-1.17,0s-.94.09-1.41.13L40.81,2c-.45,0-.91,0-1.37,0a11.57,11.57,0,0,1-1.17-.11A22.52,22.52,0,0,1,36,1.64a3,3,0,0,0-1.08-.08,5.29,5.29,0,0,1-1.32-.05l-.42,0c-1,0-1.92-.09-2.89-.1a9.64,9.64,0,0,0-1.7,0,10.39,10.39,0,0,1-1.37.09c-.31,0-.63,0-.94,0-.53,0-1.07.07-1.61.09-.74,0-1.48,0-2.22.06-.38,0-.76,0-1.14,0-.66,0-1.33,0-2,0a5.23,5.23,0,0,1-1.53,0,1.85,1.85,0,0,0-.33,0c-.38,0-.75,0-1.13,0-.59,0-1.17-.07-1.75-.05s-1,.12-1.55.18l-.56.05c-.93.1-1.85.22-2.78.31a7.15,7.15,0,0,1-.8,0,5.45,5.45,0,0,1-.7,0c-.51,0-1-.13-1.51-.17C6.33,2,6,2,5.69,2a3.13,3.13,0,0,1-2.16-.47.83.83,0,0,0-1.33.54,6.45,6.45,0,0,0-.1,2.36,1.48,1.48,0,0,1,0,.47,1.22,1.22,0,0,0,0,.54,2.28,2.28,0,0,0,.08,1.13v.21c0,.87.09,1.73.13,2.59a10.56,10.56,0,0,0,.05,1.13,4.14,4.14,0,0,0,.16,1.4c0,.07,0,.18,0,.27l0,.38c0,.69,0,1.39-.12,2.08a.75.75,0,0,0,.2.66c-.37.1-.32.35-.32.59,0,.61,0,1.23,0,1.84,0,.36-.09.72-.11,1.08-.06.79-.09,1.58-.16,2.36,0,.41-.16.82-.16,1.22a40.64,40.64,0,0,0,0,4.13,11.63,11.63,0,0,1,.06,1.56c0,.8-.13,1.6-.19,2.4,0,.22,0,.44-.05.66a6.36,6.36,0,0,0-.08.75c0,1.27.07,2.53.12,3.79,0,.84.1,1.67.15,2.51,0,.67.12,1.35.14,2,0,.41-.08.82-.08,1.23,0,.86,0,1.73,0,2.6,0,.67,0,1.34,0,2a30.41,30.41,0,0,0-.29,6.44c0,.1,0,.2,0,.29,0,.7,0,1.4,0,2.09a21.26,21.26,0,0,1-.26,2.64,9.57,9.57,0,0,0-.11,1.6,12.08,12.08,0,0,1,.06,1.7c0,.45-.12.9-.15,1.35a26.24,26.24,0,0,0-.06,2.66c0,.23,0,.47,0,.7a11.17,11.17,0,0,1,.09,1.28,39.7,39.7,0,0,0,.08,4.36c0,.28.11.56.11.84,0,.8,0,1.61,0,2.41a38.64,38.64,0,0,0,.06,3.88c.08,1.37.21,2.74.23,4.12a53.84,53.84,0,0,1-.11,5.68c-.1,1.15-.06,2.31-.07,3.46,0,.53,0,1,0,1.57s-.28,1-.11,1.58a.18.18,0,0,1,0,.14,8.53,8.53,0,0,0-.29,2.57c-.1.82,0,1.66-.05,2.5,0,.61-.09,1.23-.09,1.84s0,1.46.08,2.18l0,.24a4.6,4.6,0,0,1,0,1.92,2.72,2.72,0,0,0,0,.28c0,.22,0,.45,0,.67,0,.44-.05.88,0,1.32a2.28,2.28,0,0,0,.18.78,1.1,1.1,0,0,0,1.48.47,1.48,1.48,0,0,1,.62-.18c1,0,1.92,0,2.88-.1a9.92,9.92,0,0,1,2,.24,1.86,1.86,0,0,0,1.07-.09.68.68,0,0,1,.37,0,6.67,6.67,0,0,0,1.61-.07,11.15,11.15,0,0,1,3.21.12,4.21,4.21,0,0,0,.62,0,2.56,2.56,0,0,1,.41.09c-.05.15-.09.24-.11.32s-.1.39.07.53.26.07.29,0a1.83,1.83,0,0,0,.21-.5c0-.07,0-.15-.06-.23s0-.14-.05-.21c.39-.07.74-.16,1.09-.2a6.6,6.6,0,0,1,1.33-.07,11.66,11.66,0,0,0,2.83.13,1.4,1.4,0,0,1,.29,0l1.6.07,1.23.05c.38,0,.76,0,1.13,0l3,0c.63,0,1.26,0,1.89,0,.82,0,1.64-.09,2.46-.06,1.14,0,2.28,0,3.42.12.84.08,1.7,0,2.55,0s1.77.05,2.66.07a2.93,2.93,0,0,0,.66,0,5.71,5.71,0,0,1,1.75-.07,1.52,1.52,0,0,0,.52,0,3.93,3.93,0,0,1,1.41-.06,3.68,3.68,0,0,0,.47,0l4.16-.08c.11,0,.22,0,.33,0,.57,0,1.14.08,1.71.08s1.1,0,1.66,0c1.13,0,2.27,0,3.41-.08a20.44,20.44,0,0,1,3.41-.05,1.2,1.2,0,0,0,.33,0,3.05,3.05,0,0,1,1.41,0,2.08,2.08,0,0,0,.43,0,14,14,0,0,1,3.3,0,1.52,1.52,0,0,0,.47,0c.38,0,.75-.08,1.13-.09a5.45,5.45,0,0,1,.9.06,1.88,1.88,0,0,1,.57.17.32.32,0,0,0,.43,0,1.17,1.17,0,0,1,.87-.31,7.06,7.06,0,0,1,.8,0c.51,0,1,.06,1.51.06s.79-.09,1.18-.08c.67,0,1.33,0,2,.09a8.63,8.63,0,0,0,2.27,0,2.87,2.87,0,0,1,.71.05c.42,0,.84.08,1.26.14a5.77,5.77,0,0,0,2,0,.61.61,0,0,1,.19,0A2.41,2.41,0,0,0,84,109.1a1.63,1.63,0,0,0,1-1.29A5.27,5.27,0,0,0,84.85,106.69Z"/></svg>