<svg id="F" xmlns="http://www.w3.org/2000/svg" viewBox="0 0 86 112"><defs><style>.cls-1{stroke:#000;stroke-miterlimit:10;}</style></defs><path class="cls-1" d="M17.5,55.19c-.05.58-.14,1.1-.15,1.62,0,1.69-.07,3.37-.08,5,0,.86.07,1.72.06,2.57a19.38,19.38,0,0,0,.07,2c0,.41,0,.82,0,1.23s0,.86,0,1.28,0,.79.06,1.18.09,1,.18,1.56a7.19,7.19,0,0,1-.05,2,11.08,11.08,0,0,0,0,2.7,12.18,12.18,0,0,1,.05,2.18c0,.54-.07,1.08-.07,1.63s0,1.32.08,2a11.48,11.48,0,0,1,0,2.27,11.11,11.11,0,0,0,0,1.29c0,.56,0,1.12,0,1.68s.05,1.15.07,1.73c0,.77.07,1.55.06,2.33,0,1.64-.08,3.29-.13,4.94,0,.55-.07,1.09-.09,1.63a24.79,24.79,0,0,0,.22,3.55,11.63,11.63,0,0,1-.18,3.22,11,11,0,0,0-.09,1.82c0,.17,0,.33,0,.49,0,.42,0,.83,0,1.24.07.72-.12,1.06-.8,1.26-.47.14-1,.24-1.44.34a1,1,0,0,1-.24,0c-.82-.06-1.64-.13-2.46-.18a4.22,4.22,0,0,0-1.42,0c-.72.23-1.4-.07-2.11,0a8,8,0,0,0-1.89.18.53.53,0,0,1-.46,0,1.27,1.27,0,0,0-.75-.18c-.56,0-1.12-.08-1.68-.08a5.09,5.09,0,0,0-1,.13.69.69,0,0,1-.56-.11,2.44,2.44,0,0,0-1.16-.51c-.11,0-.2-.17-.34-.29l.46-.29c-.16-.4-.31-.49-.69-.5A3.94,3.94,0,0,1,.41,108c-.07,0-.13-.11-.26-.23a1.79,1.79,0,0,1,.35,0c.35,0,.69,0,1,0a.74.74,0,0,0,.66-.52l-.67-.36c.67-.19.66-.65.77-1.08a4.22,4.22,0,0,0,.07-1.37c0-.73-.08-1.46,0-2.2,0-.51-.07-1-.09-1.55s0-.75,0-1.13c0-1.25-.08-2.5-.07-3.75,0-.76.12-1.52.15-2.27.05-1,0-1.91.08-2.87,0-.66.07-1.32.11-2,0-.19,0-.39,0-.59.07-1.35.14-2.7.19-4.05a16.14,16.14,0,0,0,0-1.84c-.1-1.09-.26-2.18-.38-3.28-.06-.55-.08-1.11-.14-1.67,0-.33-.1-.65-.12-1a8.17,8.17,0,0,1,0-1c0-.59.09-1.18.14-1.77.08-1.1.19-2.2.23-3.31s0-2.27,0-3.41c0-.31,0-.63,0-.94,0-.66,0-1.32,0-2,0-.81,0-1.62,0-2.43,0-.62,0-1.25,0-1.88a2.81,2.81,0,0,1,0-.29,16.53,16.53,0,0,0,.24-2.9c.11-1.08.16-2.17.21-3.25,0-.54,0-1.09,0-1.63s.06-.89.1-1.33l.39-4c0-.06,0-.15,0-.19.32-.4.13-.85.13-1.28s0-1.15,0-1.73-.07-1.34-.09-2,0-1.38,0-2.07a3.92,3.92,0,0,0-.14-1,4.73,4.73,0,0,1-.08-1.87,11.33,11.33,0,0,0,0-1.17c0-.34,0-.68,0-1a1.4,1.4,0,0,0,0-.29,5.49,5.49,0,0,1,0-2.06.66.66,0,0,0-.07-.46,1,1,0,0,1-.08-.91,3.42,3.42,0,0,0,.08-1.31,12.36,12.36,0,0,1,0-1.36,8,8,0,0,0-.08-2.75c0-.09-.06-.21,0-.28a1.27,1.27,0,0,0,0-1,3.89,3.89,0,0,1,0-1.13,9.72,9.72,0,0,0,.16-2.41,5.19,5.19,0,0,1,0-1c0-.19,0-.39,0-.59,0-.36.1-.71.16-1.07A1.94,1.94,0,0,0,3.46,16a1.17,1.17,0,0,1-.08-.71,8.11,8.11,0,0,0,.06-1.63,14.14,14.14,0,0,1,.13-1.46,4.8,4.8,0,0,0,0-1.85,3,3,0,0,1,0-1,4,4,0,0,0,0-1,5.93,5.93,0,0,1,.07-1.18,9,9,0,0,0,0-2.26,1.34,1.34,0,0,1,.14-1.1,1.37,1.37,0,0,0,.14-.52c.09-.42.25-.52.66-.59a13.81,13.81,0,0,1,2.57-.05c1.07,0,2.14,0,3.22,0A33.41,33.41,0,0,0,14,2.72a14.91,14.91,0,0,1,1.63,0c.36,0,.72,0,1.09,0a1.2,1.2,0,0,0,.89-.33,3.15,3.15,0,0,0,2.17.22,16.53,16.53,0,0,1,2.81-.13h.94c.55,0,1.09,0,1.64,0l3.06-.09c.53,0,1.06,0,1.58,0,.86,0,1.72,0,2.57-.05,1.67,0,3.34-.06,5-.11s3.13-.12,4.7-.17S45.25,2,46.84,2c.9,0,1.81,0,2.72.07a1.94,1.94,0,0,0,.34,0,23.63,23.63,0,0,1,3.76-.1c.91,0,1.82,0,2.72-.06,1.22-.07,2.43-.22,3.65-.28,1.73-.09,3.47-.13,5.2-.16,1.14,0,2.28,0,3.42,0,.74,0,1.48-.1,2.22-.08s1.55.11,2.32.15c.58,0,1.16,0,1.74.05.95,0,1.91.08,2.87,0a24.71,24.71,0,0,0,3.1-.21,6.48,6.48,0,0,0,2-.48.42.42,0,0,1,.33,0A1.21,1.21,0,0,1,84,2c0,.9.16,1.81.2,2.71s.07,1.68.06,2.52-.06,1.42-.12,2.13c-.11,1.43,0,2.86,0,4.29A7.41,7.41,0,0,0,84.26,15a1,1,0,0,1-1,1.22.39.39,0,0,1-.27-.11c-.2-.25-.43-.22-.71-.16a2.92,2.92,0,0,1-1.41,0,6.56,6.56,0,0,0-1.33,0l-3.17,0H76L74.75,16a7.68,7.68,0,0,0-1.27.1,8.33,8.33,0,0,1-1.93.05c-.38,0-.76,0-1.13,0l-2.62.2h-.19a5.29,5.29,0,0,0-1.73,0A3.74,3.74,0,0,1,65,16.2a3.51,3.51,0,0,0-1.37,0,5.45,5.45,0,0,1-2.31.09,4.62,4.62,0,0,0-1.17,0,1.46,1.46,0,0,1-.29,0,9.8,9.8,0,0,0-2.65,0,6.7,6.7,0,0,1-1.47-.17,2.65,2.65,0,0,0-1.12,0,7.47,7.47,0,0,1-1.42,0c-.58,0-1.15,0-1.73,0s-1,.08-1.53.08-1-.08-1.58-.09a11,11,0,0,0-1.52,0,3.93,3.93,0,0,1-1.28,0,3.68,3.68,0,0,0-.74,0l-3.86,0-3.07.05a5.2,5.2,0,0,1-.88-.05,22.15,22.15,0,0,0-3.55.25c-.33,0-.66,0-1,0-.74,0-1.48.1-2.22.1-1.15,0-2.3,0-3.45,0-.4,0-.79.06-1.19.07H22.44c-1.2,0-2.41,0-3.61,0a3.25,3.25,0,0,0-.69.08.55.55,0,0,0-.52.61,12,12,0,0,0,.05,1.34,26.69,26.69,0,0,1-.07,4c0,.48,0,.95,0,1.43,0,1.31,0,2.61,0,3.92,0,.08,0,.16,0,.24a20.14,20.14,0,0,1,.08,4.25c0,2,0,3.89.09,5.83,0,.61,0,1.22.06,1.83,0,.35.12.46.48.47s.63,0,.94,0a1.7,1.7,0,0,1,.39,0,20.9,20.9,0,0,0,3.95.15c.2,0,.39,0,.59,0a11.6,11.6,0,0,1,1.67,0,5.49,5.49,0,0,0,1.81,0,5.32,5.32,0,0,1,.89,0h1.58l2.16,0a.67.67,0,0,0,.2,0,5.54,5.54,0,0,1,1.77-.05c.58,0,1.15.08,1.72.12.12,0,.23,0,.35,0,1.5-.1,3,0,4.49,0,.59,0,1.19,0,1.78.06h1c1,0,2.08-.11,3.12-.09a26,26,0,0,0,3.41-.17c.23,0,.46,0,.69,0,1-.06,2.11-.15,3.16-.18.62,0,1.25.05,1.88.08s.81-.15.92-.71a2.1,2.1,0,0,1,.06-.24.39.39,0,0,1,.67-.19.85.85,0,0,1,.27.35A5.9,5.9,0,0,1,58.42,42c0,.93.16,1.87.21,2.81s0,1.75.07,2.62A22.82,22.82,0,0,0,59,50a18.28,18.28,0,0,1,.18,2.76,3.48,3.48,0,0,0,.12.56A1.52,1.52,0,0,1,59,54.92s-.07.09-.11.1a5,5,0,0,1-1.14.39,20.38,20.38,0,0,1-2.59.09,28.33,28.33,0,0,1-2.91-.13,9,9,0,0,0-3,.11,1.17,1.17,0,0,1-.49,0,5.51,5.51,0,0,0-2.39,0,11.6,11.6,0,0,1-1.77.09c-1.16,0-2.32.08-3.47.06-.82,0-1.65-.13-2.47-.18a3.68,3.68,0,0,0-.74,0,11.07,11.07,0,0,1-3.35-.07,1.5,1.5,0,0,0-.63,0,5.41,5.41,0,0,1-1.88.08c-1.25-.09-2.5-.22-3.75-.28-.84,0-1.68,0-2.52,0s-1.58-.07-2.37-.11l-2.18-.08a3.82,3.82,0,0,1-.59,0,5.56,5.56,0,0,0-1.91.05C18.32,55.17,18,55.17,17.5,55.19Zm-3.66,52.09c.19.5.46.55.81.14.06-.07.11-.16.17-.23a2.22,2.22,0,0,1,.3-.31,1.14,1.14,0,0,0,.48-1.11,2.15,2.15,0,0,1,.1-1.33,6.79,6.79,0,0,0,.26-2.29c-.08-.93-.17-1.87-.2-2.81s.09-1.61.14-2.41c0-.57,0-1.15,0-1.72,0-.39,0-.79,0-1.18,0-.13,0-.26,0-.4,0-.54,0-1.08,0-1.62,0-.74,0-1.49,0-2.23a17.45,17.45,0,0,1,0-3.15,1.94,1.94,0,0,0,0-.24c0-.22,0-.43,0-.64s0-.56,0-.84a2.51,2.51,0,0,1,0-.39,6.86,6.86,0,0,0,0-2.26,6.21,6.21,0,0,1,0-2.15,2.54,2.54,0,0,0,0-1.42,1,1,0,0,1,0-.3c0-1,.07-2,.1-3.06,0-.34,0-.69,0-1s0-.49,0-.73c0-.69.06-1.38.05-2.07s-.07-1.25-.11-1.88-.07-1.45-.18-2.16a3.76,3.76,0,0,1,0-1.42,1.8,1.8,0,0,0,0-.4c0-.76-.07-1.51-.1-2.27s-.05-1.42-.05-2.13,0-1.58,0-2.37c0-.54.05-1.09,0-1.63,0-.38-.1-.75-.14-1.13a2.91,2.91,0,0,0,0-.59,2.4,2.4,0,0,0-.28-.5c.23-.37.42-.73.67-1.06a.82.82,0,0,1,.48-.3c.7-.07,1.41-.14,2.12-.14,1.12,0,2.24.07,3.36.11s2.24.05,3.37.06H27.4c.53,0,1.06,0,1.58,0,.75,0,1.49.07,2.23.12.56,0,1.11.14,1.67.16.91,0,1.81,0,2.72,0s1.94,0,2.91,0c1.35,0,2.7.12,4.06.06,1.7-.08,3.4,0,5.1-.05.77,0,1.55,0,2.32-.06,1.12,0,2.24,0,3.36,0h3c.7,0,.7,0,.81-.7a1.94,1.94,0,0,0,0-.24A18.54,18.54,0,0,0,57,49.92a5.06,5.06,0,0,1-.1-.68c0-1.14-.12-2.28-.11-3.41a27.34,27.34,0,0,1,0-2.86,1,1,0,0,0,0-.25c0-.49-.12-.57-.61-.59l-1.58,0c-1,0-2,0-3.07,0a30.43,30.43,0,0,1-3.16.18c-.89,0-1.78.06-2.68.07-.57,0-1.15,0-1.73,0l-4.25,0c-.45,0-.89-.06-1.34-.06-1,0-2,.05-3,.07s-1.94,0-2.92,0c-.59,0-1.18,0-1.78.06h-.88c-.63,0-1.26.07-1.88.06-1.26,0-2.51,0-3.77,0l-2.37,0-2.27-.08c-.45,0-.89-.06-1.33-.06s-.71,0-1.06.06l-1-.48c-.31-.16-.37-.29-.14-.52a1.21,1.21,0,0,0,.34-1c0-1-.09-2-.12-3-.05-1.45-.17-2.89-.08-4.35.05-.87,0-1.75,0-2.63s-.08-1.81-.1-2.71c0-1.31,0-2.61-.06-3.92,0-.51,0-1,0-1.53,0-.69.12-1.38.12-2.07s-.05-1.61-.08-2.42A6.33,6.33,0,0,0,16,16.35a.84.84,0,0,1,.28-.87,1.22,1.22,0,0,1,1.15-.3,5.18,5.18,0,0,0,.78.09c.58,0,1.16,0,1.74,0,.37,0,.75,0,1.13,0s.72.09,1.08.09c1,0,2-.09,3-.1s1.95.05,2.92,0c1.44,0,2.87-.07,4.31-.11l1.13,0c.7,0,1.39,0,2.08,0,1,0,2.08-.14,3.12-.2a6.84,6.84,0,0,1,1.28,0,30.62,30.62,0,0,0,4.69.11c1.29,0,2.58-.07,3.87-.08H53c.75,0,1.49,0,2.23,0s1.68.06,2.52.07c.45,0,.89-.06,1.34-.06s1.18.06,1.78,0c1.36,0,2.73-.08,4.1-.09,1.22,0,2.44.07,3.66.05,1.6,0,3.2-.09,4.8-.15,1.09,0,2.18-.08,3.27-.09l5.09,0c.54,0,.61-.1.59-.67s0-1,0-1.43c0-1.37.1-2.74.15-4.11,0-.76.09-1.51.12-2.27a13.64,13.64,0,0,0,0-1.43,10.74,10.74,0,0,0-.15-1.12c0-.29-.13-.58-.19-.85a2.2,2.2,0,0,0-1.35.05A9.17,9.17,0,0,1,78.31,3c-.54,0-1.09-.05-1.63,0a18.67,18.67,0,0,1-3.26-.09,2.68,2.68,0,0,0-.49,0H64.47c-.94,0-1.88,0-2.82.06-1.39.07-2.77.17-4.16.26a1.71,1.71,0,0,0-.39,0,16.54,16.54,0,0,1-3.65.2c-1,0-2,0-3,0-.74,0-1.48.06-2.22.08-.26,0-.53-.07-.79-.07-.79,0-1.58.05-2.37.06a36.94,36.94,0,0,0-4.21.14,19.25,19.25,0,0,1-3.31,0c-.48,0-1,0-1.43,0a16.85,16.85,0,0,1-1.73.09,16.51,16.51,0,0,0-2.81.1,6,6,0,0,1-1,0A29.25,29.25,0,0,0,26,3.78c-.47,0-1,0-1.43,0-.67,0-1.35,0-2,0a11.55,11.55,0,0,1-2.12.11s-.09,0-.14,0a7.37,7.37,0,0,1-.93.11c-1.11,0-2.22,0-3.32.06A69.18,69.18,0,0,1,8.45,4C8.31,4,8.16,4,8,4L5.94,4a1.11,1.11,0,0,0-.73.13c0,.46.08.92.08,1.38a13.58,13.58,0,0,0-.06,2.47,2.61,2.61,0,0,1,0,.39,10,10,0,0,0,0,1.34,19.09,19.09,0,0,1,0,2.51,8.62,8.62,0,0,1,0,1.14,12.59,12.59,0,0,0,0,4.33,2.54,2.54,0,0,1,0,1A13.65,13.65,0,0,0,5,21.34c0,.67,0,1.34-.06,2s-.14,1.48-.14,2.21c0,1.16.07,2.31.09,3.47,0,.88,0,1.77.08,2.66C5,32.88,5,34.07,5,35.26c0,.44.07.88.06,1.33a15,15,0,0,0,.08,2.22,7.08,7.08,0,0,1,0,1c0,.15,0,.3,0,.45a22.33,22.33,0,0,1,.21,2.3,18.15,18.15,0,0,1-.19,2.56A8.84,8.84,0,0,1,5,47.45c0,.1,0,.23,0,.35,0,.64-.06,1.28-.11,1.92,0,.34-.09.69-.1,1,0,.78,0,1.55,0,2.33a4.56,4.56,0,0,1,0,.74,11.32,11.32,0,0,0-.21,2.26c0,.65-.07,1.31-.09,2,0,.87,0,1.75-.06,2.62-.17,1.43-.06,2.86-.12,4.3,0,.7,0,1.4-.06,2.11a10.5,10.5,0,0,0,0,1.48,6.33,6.33,0,0,1-.09,2.6,1,1,0,0,0,0,.25,7,7,0,0,1,0,1.37A14.09,14.09,0,0,0,4,76.67c.06,1,.23,2.06.32,3.1.06.56.05,1.12.09,1.67a3.83,3.83,0,0,1,0,1.12,6,6,0,0,0,0,1.53,5.57,5.57,0,0,1,0,1.47,2.64,2.64,0,0,0,0,1.28,1.64,1.64,0,0,1,0,.54c0,.34-.07.68-.09,1s0,.62,0,.94c0,1-.09,1.93-.11,2.9,0,.66,0,1.32,0,2a4,4,0,0,1-.07,1,7.6,7.6,0,0,0-.13,2.07A16,16,0,0,1,4,99.83a1,1,0,0,0,0,.34c0,.13,0,.26,0,.39,0,.49.08,1,.11,1.47,0,.33.06.66.06,1s-.06.72-.06,1.08a20.11,20.11,0,0,1,0,2.69.78.78,0,0,0,.28.71.74.74,0,0,0,.78-.09l.13-.09.28.15c.23-.17.13-.6.54-.53a.83.83,0,0,1,.79.71,1.89,1.89,0,0,0,1.31-.34l.15.26a4.37,4.37,0,0,1,.76.07,1.38,1.38,0,0,0,.83,0,.51.51,0,0,1,.36,0,1,1,0,0,0,1.11-.12l.43-.29-.09.43a.72.72,0,0,0,.76,0A4.09,4.09,0,0,1,13.84,107.28Zm-9.61-90c0,.22.13.28.27.25s0-.11.06-.16Zm.13,1.81c0-.17.09-.33-.23-.38ZM15.42,107.4s0-.07-.05-.07l-.1.07s.06,0,.08,0S15.4,107.42,15.42,107.4Zm.69-65.91a.79.79,0,0,0,.16.1s.06-.05.05-.07-.06-.08-.09-.13Z"/><path class="cls-1" d="M18.64,108.25a.38.38,0,0,1,.07.11.16.16,0,0,1-.11.07s-.05-.05-.08-.08Z"/><path class="cls-1" d="M16.54,110.45l0,.06-.06-.05,0,0Z"/><path class="cls-1" d="M13.84,107.28a4.09,4.09,0,0,0-1.26.39.72.72,0,0,1-.76,0l.09-.43-.43.29a1,1,0,0,1-1.11.12.51.51,0,0,0-.36,0,1.38,1.38,0,0,1-.83,0,4.37,4.37,0,0,0-.76-.07l-.15-.26a1.89,1.89,0,0,1-1.31.34.83.83,0,0,0-.79-.71c-.41-.07-.31.36-.54.53l-.28-.15-.13.09a.74.74,0,0,1-.78.09.78.78,0,0,1-.28-.71,20.11,20.11,0,0,0,0-2.69c0-.36.06-.72.06-1.08s0-.66-.06-1c0-.49-.07-1-.11-1.47,0-.13,0-.26,0-.39a1,1,0,0,1,0-.34,16,16,0,0,0-.14-2.5A7.6,7.6,0,0,1,4,95.26a4,4,0,0,0,.07-1c0-.65,0-1.31,0-2,0-1,.08-1.93.11-2.9,0-.32,0-.63,0-.94s.06-.69.09-1a1.64,1.64,0,0,0,0-.54,2.64,2.64,0,0,1,0-1.28,5.57,5.57,0,0,0,0-1.47,6,6,0,0,1,0-1.53,3.83,3.83,0,0,0,0-1.12c0-.55,0-1.11-.09-1.67-.09-1-.26-2.06-.32-3.1a14.09,14.09,0,0,1,.13-3.89,7,7,0,0,0,0-1.37,1,1,0,0,1,0-.25,6.33,6.33,0,0,0,.09-2.6,10.5,10.5,0,0,1,0-1.48c0-.71,0-1.41.06-2.11.06-1.44,0-2.87.12-4.3.1-.87,0-1.75.06-2.62,0-.66.1-1.32.09-2a11.32,11.32,0,0,1,.21-2.26,4.56,4.56,0,0,0,0-.74c0-.78,0-1.55,0-2.33,0-.34.08-.69.1-1C5,49.08,5,48.44,5,47.8c0-.12,0-.25,0-.35a8.84,8.84,0,0,0,.19-2.3,18.15,18.15,0,0,0,.19-2.56,22.33,22.33,0,0,0-.21-2.3c0-.15,0-.3,0-.45a7.08,7.08,0,0,0,0-1,15,15,0,0,1-.08-2.22c0-.45,0-.89-.06-1.33,0-1.19,0-2.38-.11-3.56-.09-.89-.06-1.78-.08-2.66,0-1.16-.09-2.31-.09-3.47,0-.73.1-1.47.14-2.21s0-1.35.06-2a13.65,13.65,0,0,1,.15-2.71,2.54,2.54,0,0,0,0-1,12.59,12.59,0,0,1,0-4.33,8.62,8.62,0,0,0,0-1.14,19.09,19.09,0,0,0,0-2.51,10,10,0,0,1,0-1.34,2.61,2.61,0,0,0,0-.39,13.58,13.58,0,0,1,.06-2.47c0-.46,0-.92-.08-1.38A1.11,1.11,0,0,1,5.94,4L8,4c.15,0,.3,0,.44,0a69.18,69.18,0,0,0,7.62,0c1.1-.07,2.21,0,3.32-.06a7.37,7.37,0,0,0,.93-.11c.05,0,.1,0,.14,0a11.55,11.55,0,0,0,2.12-.11c.67,0,1.35,0,2,0,.48,0,1,0,1.43,0a29.25,29.25,0,0,1,4.49.05,6,6,0,0,0,1,0,16.51,16.51,0,0,1,2.81-.1,16.85,16.85,0,0,0,1.73-.09c.47,0,.95,0,1.43,0a19.25,19.25,0,0,0,3.31,0,36.94,36.94,0,0,1,4.21-.14c.79,0,1.58,0,2.37-.06.26,0,.53.07.79.07.74,0,1.48-.08,2.22-.08,1,0,2,0,3,0a16.54,16.54,0,0,0,3.65-.2,1.71,1.71,0,0,1,.39,0c1.39-.09,2.77-.19,4.16-.26.94,0,1.88-.05,2.82-.06h8.46a2.68,2.68,0,0,1,.49,0A18.67,18.67,0,0,0,76.68,3c.54,0,1.09,0,1.63,0a9.17,9.17,0,0,0,2.61-.18,2.2,2.2,0,0,1,1.35-.05c.06.27.14.56.19.85a10.74,10.74,0,0,1,.15,1.12,13.64,13.64,0,0,1,0,1.43c0,.76-.08,1.51-.12,2.27,0,1.37-.11,2.74-.15,4.11,0,.48,0,1,0,1.43s0,.66-.59.67l-5.09,0c-1.09,0-2.18.06-3.27.09-1.6.06-3.2.13-4.8.15-1.22,0-2.44-.06-3.66-.05-1.37,0-2.74.07-4.1.09-.6,0-1.19,0-1.78,0s-.89.06-1.34.06c-.84,0-1.68-.06-2.52-.07s-1.48,0-2.23,0H48.53c-1.29,0-2.58.06-3.87.08A30.62,30.62,0,0,1,40,14.9a6.84,6.84,0,0,0-1.28,0c-1,.06-2.08.15-3.12.2-.69,0-1.38,0-2.08,0l-1.13,0c-1.44,0-2.87.09-4.31.11-1,0-1.95,0-2.92,0s-2,.08-3,.1c-.36,0-.72-.08-1.08-.09s-.76,0-1.13,0c-.58,0-1.16,0-1.74,0a5.18,5.18,0,0,1-.78-.09,1.22,1.22,0,0,0-1.15.3.84.84,0,0,0-.28.87A6.33,6.33,0,0,1,16,17.73c0,.81.09,1.62.08,2.42S16,21.53,16,22.22c0,.51,0,1,0,1.53,0,1.31,0,2.61.06,3.92,0,.9.08,1.81.1,2.71s0,1.76,0,2.63c-.09,1.46,0,2.9.08,4.35,0,1,.08,2,.12,3a1.21,1.21,0,0,1-.34,1c-.23.23-.17.36.14.52l1,.48c.35,0,.7-.07,1.06-.06s.88,0,1.33.06l2.27.08,2.37,0c1.26,0,2.51,0,3.77,0,.62,0,1.25,0,1.88-.06h.88c.6,0,1.19-.06,1.78-.06,1,0,1.95,0,2.92,0s2-.06,3-.07c.45,0,.89.05,1.34.06l4.25,0c.58,0,1.16,0,1.73,0,.9,0,1.79-.1,2.68-.07a30.43,30.43,0,0,0,3.16-.18c1-.07,2,0,3.07,0l1.58,0c.49,0,.56.1.61.59a1,1,0,0,1,0,.25,27.34,27.34,0,0,0,0,2.86c0,1.13.06,2.27.11,3.41a5.06,5.06,0,0,0,.1.68A18.54,18.54,0,0,1,57.2,53a1.94,1.94,0,0,1,0,.24c-.11.68-.11.69-.81.7h-3c-1.12,0-2.24,0-3.36,0-.77,0-1.55.06-2.32.06-1.7,0-3.4,0-5.1.05-1.36.06-2.71-.07-4.06-.06-1,0-1.94,0-2.91,0s-1.81,0-2.72,0c-.56,0-1.11-.12-1.67-.16-.74-.05-1.48-.09-2.23-.12-.52,0-1.05,0-1.58,0H25.33c-1.13,0-2.25,0-3.37-.06s-2.24-.11-3.36-.11c-.71,0-1.42.07-2.12.14A.82.82,0,0,0,16,54c-.25.33-.44.69-.67,1.06a2.4,2.4,0,0,1,.28.5,2.91,2.91,0,0,1,0,.59c0,.38.13.75.14,1.13,0,.54,0,1.09,0,1.63,0,.79,0,1.58,0,2.37s0,1.42.05,2.13.07,1.51.1,2.27a1.8,1.8,0,0,1,0,.4,3.76,3.76,0,0,0,0,1.42c.11.71.13,1.44.18,2.16s.11,1.25.11,1.88,0,1.38-.05,2.07c0,.24,0,.49,0,.73s0,.7,0,1c0,1-.07,2-.1,3.06a1,1,0,0,0,0,.3,2.54,2.54,0,0,1,0,1.42,6.21,6.21,0,0,0,0,2.15,6.86,6.86,0,0,1,0,2.26,2.51,2.51,0,0,0,0,.39c0,.28,0,.56,0,.84s0,.42,0,.64a1.94,1.94,0,0,1,0,.24,17.45,17.45,0,0,0,0,3.15c0,.74,0,1.49,0,2.23,0,.54,0,1.08,0,1.62,0,.14,0,.27,0,.4,0,.39,0,.79,0,1.18,0,.57,0,1.15,0,1.72-.05.8-.17,1.6-.14,2.41s.12,1.88.2,2.81a6.79,6.79,0,0,1-.26,2.29,2.15,2.15,0,0,0-.1,1.33,1.14,1.14,0,0,1-.48,1.11,2.22,2.22,0,0,0-.3.31c-.06.07-.11.16-.17.23C14.3,107.83,14,107.78,13.84,107.28Zm-7.81-1s-.06-.08-.07-.08l-.12.05s0,.07.06.07A.93.93,0,0,0,6,106.32Zm7.5-2.36,0-.07s0,0,0,0l-.06,0Z"/><path class="cls-1" d="M4.23,17.26l.33.09s0,.15-.06.16S4.27,17.48,4.23,17.26Z"/><path class="cls-1" d="M4.36,19.07l-.23-.38C4.45,18.74,4.41,18.9,4.36,19.07Z"/><path class="cls-1" d="M15.42,107.4s0,0-.07,0,0,0-.08,0l.1-.07S15.4,107.38,15.42,107.4Z"/><path class="cls-1" d="M16.11,41.49l.12-.1s.07.09.09.13,0,.07-.05.07A.79.79,0,0,1,16.11,41.49Z"/><path class="cls-1" d="M6,106.32a.93.93,0,0,1-.13,0s0,0-.06-.07l.12-.05S6,106.28,6,106.32Z"/><path class="cls-1" d="M13.53,104l-.07,0,.06,0s0,0,0,0Z"/></svg>