<svg id="G" xmlns="http://www.w3.org/2000/svg" viewBox="0 0 86 112"><defs><style>.cls-1{stroke:#000;stroke-miterlimit:10;}</style></defs><path class="cls-1" d="M9,24.27,8.86,24l1.31-2.57.38,0a4.68,4.68,0,0,0,.11-.79,1,1,0,0,1,.49-.85c.22-.14.33-.3.3-.49,0-.38.14-.5.38-.53.17-.33.31-.62.47-.89.27-.48.53-1,.84-1.43.53-.8,1.08-1.59,1.64-2.37s.94-1.24,1.38-1.88a4.36,4.36,0,0,1,1.3-1.16,2.79,2.79,0,0,0,.38-.3c.28-.27.53-.57.83-.82a2.09,2.09,0,0,1,.56-.26c0-.34.34-.54.58-.8.39-.45,1-.65,1.34-1.11a6.59,6.59,0,0,1,1.59-1.22A26.42,26.42,0,0,1,26.26,4.9c.32-.14.6-.4,1-.37a.18.18,0,0,0,.12-.08c.35-.49.94-.57,1.44-.79.77-.35,1.57-.65,2.36-1a3.18,3.18,0,0,1,.33-.09c.45-.13.9-.28,1.36-.4s1-.25,1.42-.36,1.09-.25,1.64-.34c.9-.15,1.81-.24,2.71-.41A25.69,25.69,0,0,1,41.79.72C43.16.64,44.54.61,45.91.6c1,0,1.9,0,2.84.09A16,16,0,0,1,51.33,1c.81.18,1.66.18,2.48.33a26,26,0,0,1,3,.73c1.14.37,2.23.86,3.34,1.3.71.29,1.42.57,2.11.9.35.17.7.34,1.06.48a9,9,0,0,1,1.44.84c.76.5,1.52,1,2.26,1.55s1.39,1.08,2.09,1.61c.2.15.42.27.6.43.63.52,1.24,1.05,1.86,1.58L73.11,12c-.15.2-.63.21-.38.66a1.49,1.49,0,0,1,1.28.2c.55-.14.72.43,1.15.58l-.17.39.33.59.24-.13a.49.49,0,0,1,.66.1c.37.41.75.82,1.1,1.25s.52.69.78,1c0,0,.08.08.08.12a4.61,4.61,0,0,1,0,1.05,1.38,1.38,0,0,1-.67.8A14.21,14.21,0,0,0,76,19.93a.79.79,0,0,1-.58.3.48.48,0,0,0-.44.29,2.38,2.38,0,0,1-1.42,1.16c-.3.08-.28.31-.31.6l-.5-.21s0,0,0,.05c.16.49.15.49-.24.84s-.47.49-.72.73-.3.21-.5.36c0,0,0,.19-.08.25a3.21,3.21,0,0,0-.54.62c-.07.11-.33.1-.54.16a4.48,4.48,0,0,1-1.65,1.61,2.08,2.08,0,0,1-.94.24.63.63,0,0,1-.47-.2c-.24-.27-.42-.58-.64-.87L65.69,25c-.24-.32-.59-.54-.71-1a1.54,1.54,0,0,0-.37-.5c-.19-.21-.45-.38-.54-.68a.29.29,0,0,0-.11-.16c-.49-.38-1-.73-1.46-1.15a7.58,7.58,0,0,0-1.2-.91c-.67-.41-1.33-.84-2-1.23-.23-.14-.51-.22-.76-.34-.57-.27-1.12-.61-1.71-.82s-1.36-.7-2.1-.89-1.53-.33-2.3-.49a1.65,1.65,0,0,1-.32-.07c-.4-.14-.79-.33-1.19-.43a15.8,15.8,0,0,0-3-.51c-.26,0-.51-.14-.76-.16-.58,0-1.17-.05-1.75,0-.75,0-1.5,0-2.24.13a14,14,0,0,0-1.43.3c-.68.14-1.35.27-2,.42-.22.05-.44.13-.65.2-.38.11-.75.21-1.12.34-.66.22-1.32.46-2,.69A9.13,9.13,0,0,0,35,18c-.87.4-1.73.83-2.61,1.23a4.12,4.12,0,0,1-.72.15c-.05.23-.06.22-.34.36a8.1,8.1,0,0,0-2.17,1.59s-.06.09-.1.1c-.53.14-.79.61-1.16.94s-.91.79-1.37,1.17a1.67,1.67,0,0,1-.16.12c-.33.29-.67.58-1,.88a3.06,3.06,0,0,0-.88,1,.86.86,0,0,1-.13.2A9.34,9.34,0,0,0,23,28.1a10,10,0,0,0-.65,1.51,3.45,3.45,0,0,1-.39.67,2,2,0,0,0-.27.61c-.06.19-.29.33-.47.53.1.61-.3,1.16-.47,1.76a7.4,7.4,0,0,1-.78,1.6,14.19,14.19,0,0,0-.73,1.76,17.23,17.23,0,0,0-.56,1.67c-.08.29-.18.51-.54.59.22.27.14.53.13.8A5.65,5.65,0,0,1,18,41.08a2.2,2.2,0,0,0,0,.77,1.59,1.59,0,0,1-.06.61,6.05,6.05,0,0,0-.23,1.35,6.93,6.93,0,0,1-.37,2,5,5,0,0,0-.13.67c-.13.63-.25,1.25-.4,1.86-.1.45-.24.88-.34,1.33a2,2,0,0,0,0,.54c0,.44,0,.88,0,1.32,0,.81,0,1.61,0,2.42,0,0,0,.08,0,.1-.33.49-.1,1.06-.17,1.58a10.54,10.54,0,0,0,.1,1.85c0,.31.05.61.09.92a1.12,1.12,0,0,0,.14.52,5.82,5.82,0,0,1,.65,2c.14.6.23,1.22.34,1.83a4.15,4.15,0,0,1,0,1.41,6.69,6.69,0,0,0,.08,1.6c.06.68.15,1.36.22,2,0,.13,0,.26.05.39s.06.16.06.23a4.94,4.94,0,0,0,.47,2.08,3,3,0,0,0,.15.42,5.63,5.63,0,0,1,.48,1.22,6.35,6.35,0,0,0,.51,1,5.7,5.7,0,0,1,.34.76c.15.44.26.91.42,1.35a3.36,3.36,0,0,0,.32.6,2.64,2.64,0,0,0,.14.78c.41.87.87,1.72,1.31,2.58,0,0,0,.06.06.08.53.36.67,1,1,1.49a.88.88,0,0,0,.12.21c.75,1,1.48,2,2.27,3A35.77,35.77,0,0,0,29,87.61c1,.92,2,1.72,3.05,2.55.78.64,1.67,1.09,2.49,1.65a5.1,5.1,0,0,0,.89.39.78.78,0,0,1,.23.08,3.84,3.84,0,0,0,1.13.46c.39.12.75.32,1.13.48a21.9,21.9,0,0,0,3.58,1,20.39,20.39,0,0,0,3.2.46,14.28,14.28,0,0,0,2,.08c1.15-.06,2.29-.18,3.43-.31a10.83,10.83,0,0,0,1.59-.29,10.37,10.37,0,0,0,2-.71c.64-.35,1.33-.55,2-.88.47-.24.91-.51,1.36-.78a6.46,6.46,0,0,1,.71-.44,3.71,3.71,0,0,0,1-.8c.21-.19.44-.34.66-.51s.65-.54,1-.79a13.72,13.72,0,0,1,1.49-1,5.39,5.39,0,0,0,1.79-1.7c.14-.18.3-.35.43-.54s.28-.43.42-.65a1,1,0,0,1,.16-.24,7.32,7.32,0,0,0,.92-1.44,23.06,23.06,0,0,0,1.24-2.61c.26-.52.45-1.08.7-1.61.16-.34.37-.65.55-1a1.91,1.91,0,0,0,.19-.5c.13-.89.3-1.78.36-2.67a6.31,6.31,0,0,1,.27-1.62,2.21,2.21,0,0,0,0-.92c-.05-.45-.12-.9-.18-1.36A.42.42,0,0,0,68.3,71a9.66,9.66,0,0,0-1.7,0c-.65,0-1.3,0-1.95,0a3.62,3.62,0,0,0-1.31,0,2.26,2.26,0,0,1-.78,0l-2.2-.09c-.36,0-.72,0-1.08,0l-4,0c-.38,0-.75.09-1.13.1a2.82,2.82,0,0,1-.92,0A2.76,2.76,0,0,0,52,71a26,26,0,0,1-3.53.05.86.86,0,0,1-.91-.9c0-.6,0-1.21,0-1.81,0-1-.06-2.07-.1-3.1a9.24,9.24,0,0,0-.1-.92,17.45,17.45,0,0,1,0-2.8c0-.65,0-1.3,0-1.95a3,3,0,0,1,.07-.43.94.94,0,0,0-.16-.84.48.48,0,0,1-.13-.3c0-.5.08-1,.14-1.51a.49.49,0,0,1,.18-.33,2.29,2.29,0,0,1,1.15-.6c.41,0,.81-.15,1.21-.17.65,0,1.31,0,2,0,.85,0,1.7,0,2.55.07,1.26.07,2.51.17,3.77.24.33,0,.66-.05,1,0,.87,0,1.73.08,2.59.12l1.27,0,3.2.1c.34,0,.68,0,1,0,.72,0,1.44,0,2.15,0,1.19,0,2.38,0,3.57.08l1.51.07c.18,0,.35,0,.53.06a5.85,5.85,0,0,0,.59,0,12,12,0,0,0,1.59,0c.61-.08,1.2.2,1.81,0a1.49,1.49,0,0,1,.72.06c.9.26,1.85.06,2.76.29a2.14,2.14,0,0,0,.34,0,5.08,5.08,0,0,1,.78,0,.73.73,0,0,1,.71.73c0,.28.11.55.17.82a1,1,0,0,1,0,.71.34.34,0,0,0,0,.28,7.19,7.19,0,0,1,.14,1.85A2.49,2.49,0,0,1,84.39,62a.17.17,0,0,0,0,.14,6.71,6.71,0,0,1,.1,1.73,16,16,0,0,1,0,2.08c0,.58-.09,1.16-.14,1.74a11.42,11.42,0,0,0-.14,2.09,11.39,11.39,0,0,1-.28,2.55c-.07.63-.2,1.25-.3,1.87,0,.11,0,.23,0,.34s0,.18,0,.23a4.76,4.76,0,0,0-.27,1.39.94.94,0,0,1-.06.24,1.53,1.53,0,0,0-.19,1.08,2.65,2.65,0,0,1-.4,1.49.89.89,0,0,0-.12.6,1.07,1.07,0,0,1-.12.61A7.09,7.09,0,0,0,82,81.6c0,.09,0,.21-.09.28a4.13,4.13,0,0,0-.55,1.74,2.37,2.37,0,0,1-.17.41,4.26,4.26,0,0,1-.26.62,4.14,4.14,0,0,1-.37.46,2.06,2.06,0,0,1-.17.75.78.78,0,0,0-.09.75c-.13.13-.35.22-.26.47,0,0,0,.12,0,.18l-.9,1.89a2.27,2.27,0,0,1-.19.34c-.18.25-.46.48-.51.76-.12.6-.66,1-.69,1.64a1,1,0,0,1-.34.54,6.18,6.18,0,0,0-.83,1.19A3.44,3.44,0,0,1,75.46,95a.52.52,0,0,0-.17.22,5.06,5.06,0,0,1-1.22,1.77.53.53,0,0,0-.15.19,4.49,4.49,0,0,1-1,1.46,5.73,5.73,0,0,0-1,1.5s0,.14-.1.15c-.41.15-.6.54-.88.82-.53.54-1.09,1-1.66,1.54a15.67,15.67,0,0,1-1.5,1.19,15.49,15.49,0,0,1-2.27,1.6,1.29,1.29,0,0,0-.36.25,7,7,0,0,1-1.94,1.19,3.7,3.7,0,0,0-.33.21l-1.13.69a10.61,10.61,0,0,0-.9.58,4.4,4.4,0,0,1-1.46.55c-.25.08-.48.2-.72.28l-1.39.44c-.21.06-.42.09-.62.16l-1.31.52c-.08,0-.18,0-.24.08-.38.32-.9.27-1.32.47-.23.12-.48.21-.72.31s-.24.08-.36.12a2.58,2.58,0,0,0-.54.23,1.19,1.19,0,0,1-.82.22,6.47,6.47,0,0,0-.88,0l-1.71.11a32,32,0,0,1-3.53.07c-.68,0-1.37.09-2.06.1a9.76,9.76,0,0,1-1.32-.09c-.94-.11-1.89-.15-2.84-.21a4.24,4.24,0,0,1-2.1-.37.14.14,0,0,0-.09,0,9.42,9.42,0,0,1-2.5-.66,6,6,0,0,1-1.49-.61,7.32,7.32,0,0,0-1.12-.46,1.46,1.46,0,0,1-.36-.16,11,11,0,0,0-2-1.07L26.56,107a2.07,2.07,0,0,1-.24-.17c-.44-.25-.86-.53-1.32-.75a8.45,8.45,0,0,1-1.79-1.28c-1.24-1.08-2.53-2.07-3.86-3a5.15,5.15,0,0,1-1.28-1.27c-.5-.74-1.07-1.44-1.63-2.15a4.94,4.94,0,0,0-.58-.53c-.08-.07-.2-.13-.25-.23a5.37,5.37,0,0,0-1.2-1.4,16.36,16.36,0,0,1-1.28-1.48,10.24,10.24,0,0,1-.51-1c-.21-.39-.45-.76-.68-1.14l-1.42-2.22a1,1,0,0,1-.14-.32,6.37,6.37,0,0,0-.8-1.61,12.48,12.48,0,0,1-.86-1.76c-.23-.47-.48-.93-.7-1.4-.09-.21-.12-.44-.19-.65s-.08-.21-.12-.32a5.6,5.6,0,0,0-.3-.71c-.39-.64-.54-1.38-1-2a5.45,5.45,0,0,1-1.16-2.3,2.17,2.17,0,0,0-.22-.6,17.74,17.74,0,0,1-.68-2.5c-.12,0-.32.06-.4,0a1.08,1.08,0,0,1-.2-.49,3.07,3.07,0,0,1,.15-1.5A1.29,1.29,0,0,0,3.74,73a2.34,2.34,0,0,1-.39-1.2s0-.08,0-.09c-.43-.41-.12-.94-.23-1.4a7.84,7.84,0,0,1-.24-1.45A7.55,7.55,0,0,0,2.74,68a9.3,9.3,0,0,1-.21-2.24,6.26,6.26,0,0,0-.15-1.21,12.88,12.88,0,0,1-.25-2.63.86.86,0,0,0-.06-.39A1.58,1.58,0,0,1,2,60.72a7.6,7.6,0,0,0-.1-1.06,4.48,4.48,0,0,0-.09-.82,4.9,4.9,0,0,1,0-1.79.28.28,0,0,0,0-.09,14.77,14.77,0,0,1-.13-2.82,14.45,14.45,0,0,1-.06-1.47c0-.65,0-1.3,0-2a6,6,0,0,0,.08-1.32c-.13-.67.2-1.26.16-1.92a8.83,8.83,0,0,1,.2-1.9c.11-.85.19-1.72.36-2.57a11.49,11.49,0,0,0,.19-1.94,3.78,3.78,0,0,1,.12-.82,8.65,8.65,0,0,1,.74-2.48.77.77,0,0,0,.12-.37,7.88,7.88,0,0,1,.43-1.8c.13-.43.35-.83.5-1.25a8.33,8.33,0,0,0,.22-.86c0-.09,0-.22,0-.28a2.3,2.3,0,0,0,.35-1.11c.1-.42.27-.83.35-1.26a2.06,2.06,0,0,1,.37-.92,2.65,2.65,0,0,0,.2-.49l.3-.66c0-.11.11-.2.15-.31.32-.78.62-1.58,1-2.36a11.65,11.65,0,0,1,.6-1,2.19,2.19,0,0,0,.17-.29A.75.75,0,0,1,9,24.27ZM77.85,57c-.11.38-.34.36-.55.36-.42,0-.84,0-1.25,0s-.74.08-1.11.07c-.84,0-1.67-.11-2.5-.16a.66.66,0,0,0-.24,0,4.63,4.63,0,0,1-1.66.05,4.21,4.21,0,0,0-1.12,0,7.47,7.47,0,0,1-1.89,0c-.57,0-1.14-.08-1.71-.08s-1.31,0-2,.06a.58.58,0,0,1-.19,0,4.88,4.88,0,0,0-1.7-.13c-.42,0-.85,0-1.27,0s-.68,0-1,0c-.59,0-1.17.08-1.76.07-.77,0-1.53-.07-2.3-.11l-1.56-.08c-.26,0-.52,0-.78,0-.72,0-1.44,0-2.15,0a7.2,7.2,0,0,0-2.05.25,6.17,6.17,0,0,0,0,1.06,6.85,6.85,0,0,1,0,1.81,35.15,35.15,0,0,0,.09,6.07,13.38,13.38,0,0,0,.13,1.42,4.06,4.06,0,0,1,.14,1.3.38.38,0,0,0,.36.44,6.43,6.43,0,0,0,1,.12c1.47,0,3,0,4.42,0a8.62,8.62,0,0,1,1.13,0c.94.11,1.89-.19,2.84,0a1.23,1.23,0,0,0,.19,0c.29,0,.59,0,.88,0,1.08,0,2.16.07,3.24.09.79,0,1.58,0,2.36,0s1.74,0,2.61,0a.93.93,0,0,1,.82.31.93.93,0,0,0,.43.22.79.79,0,0,1,.48.5,2,2,0,0,1,.22,1.34.53.53,0,0,0,0,.24,4,4,0,0,1,0,1.46c0,.18-.15.36-.12.52a11.8,11.8,0,0,1-.16,1.68c0,.7-.06,1.4-.11,2.1a2.21,2.21,0,0,1-.15.56c-.22.51-.49,1-.66,1.53a30.53,30.53,0,0,1-1.37,3c-.16.37-.29.75-.46,1.12a15.65,15.65,0,0,1-.93,1.77,5.58,5.58,0,0,0-.9,1.35,2,2,0,0,1-.38.63,16.23,16.23,0,0,0-1.38,1.49.48.48,0,0,1-.19.16c-.75.35-1.22,1.08-2,1.43-.08,0-.12.14-.18.22a3.57,3.57,0,0,1-.27.28c-.38.28-.86.42-1.12.84a.16.16,0,0,1-.09.05.75.75,0,0,0-.48.39,1.28,1.28,0,0,1-.34.26c-.11.07-.26.1-.34.2a2.59,2.59,0,0,1-1.39.85.68.68,0,0,0-.22.12,5.4,5.4,0,0,1-1.48.74c-.45.17-.9.31-1.33.51a14.38,14.38,0,0,1-3.61,1.06c-.82.14-1.65.26-2.47.38a.71.71,0,0,1-.25,0,5.71,5.71,0,0,0-1.64.24,2.35,2.35,0,0,1-1.59,0,2.81,2.81,0,0,0-1.42-.21c-.17,0-.33,0-.49,0l-1.26-.14c-.42,0-.78-.3-1.23-.32A14.1,14.1,0,0,1,39.07,96a5.31,5.31,0,0,1-1.15-.19c-.73-.33-1.44-.67-2.16-1-.25-.12-.48-.28-.73-.4s-.65-.28-1-.45a5.67,5.67,0,0,1-.66-.42c-.6-.42-1.19-.86-1.8-1.28s-1-1-1.66-1.1a.52.52,0,0,1-.27-.2,4.54,4.54,0,0,0-1.18-1.09.46.46,0,0,1-.07-.07c-.46-.44-.9-.89-1.37-1.33a6.73,6.73,0,0,1-1.27-1.34,1.74,1.74,0,0,0-.4-.36,1.88,1.88,0,0,1-.26-.22c-.61-.77-1.23-1.53-1.82-2.31-.28-.37-.48-.79-.76-1.14a25,25,0,0,1-2.28-3.41c-.29-.55-.6-1.09-.87-1.65s-.56-1.29-.83-1.93a1.45,1.45,0,0,1,0-.29,9.21,9.21,0,0,0-.2-.91,12.78,12.78,0,0,0-.61-1.55,17.86,17.86,0,0,1-.73-2,8.33,8.33,0,0,0-.29-.84,6.43,6.43,0,0,1-.53-2.28A4,4,0,0,1,16,66.93.49.49,0,0,0,16,66.7a2.76,2.76,0,0,1-.18-1.24,3.08,3.08,0,0,0-.16-1.64.37.37,0,0,1,0-.27.91.91,0,0,0,.13-.75c-.1-.51-.22-1-.33-1.53a3.2,3.2,0,0,0-.21-.9,8.14,8.14,0,0,1-.64-2.16,18.4,18.4,0,0,1-.24-2.67,3.62,3.62,0,0,1,0-.87,20.51,20.51,0,0,0,.26-3.75c0-.38,0-.75,0-1.12a14,14,0,0,1,.16-1.6c.13-.69.33-1.37.5-2.05a.37.37,0,0,1,0-.14,1.17,1.17,0,0,0,.15-.8.48.48,0,0,1,0-.24,8.58,8.58,0,0,0,.38-2.3c0-.37,0-.75.09-1.11s.15-.9.22-1.34a5.7,5.7,0,0,1,.35-1.82,2.87,2.87,0,0,0,.18-.4,15.24,15.24,0,0,1,1-2.85A1.33,1.33,0,0,0,17.8,35a14.29,14.29,0,0,1,.79-1.73c.31-.47.46-1,.72-1.47a1.39,1.39,0,0,0,.06-.19c.18-.52.32-1.05.54-1.55s.59-1.09.9-1.62c.15-.24.33-.46.48-.66a1.55,1.55,0,0,1,0-.48,2.19,2.19,0,0,1,.21-.48l.44.28c0-.16.07-.3,0-.35-.24-.25-.11-.49,0-.71a10.83,10.83,0,0,1,1.37-2c.33-.36.55-.83,1-1.06a3.54,3.54,0,0,0,.71-.58,4.46,4.46,0,0,1,.84-.74,8.5,8.5,0,0,0,1.47-1.26c.53-.44,1.08-.85,1.61-1.27a5.8,5.8,0,0,1,1-.5c.24-.13.45-.3.69-.42.61-.31,1.24-.59,1.85-.9a16.55,16.55,0,0,1,2.79-1.15c.82-.25,1.63-.56,2.44-.84.37-.13.74-.28,1.11-.37.78-.2,1.57-.3,2.33-.57a18.78,18.78,0,0,1,4.17-.56,15.7,15.7,0,0,1,4.57.48c.83.17,1.65.4,2.48.6l1.53.37c.66.17,1.33.34,2,.53a13.82,13.82,0,0,1,2.59,1.27c.38.21.77.37,1.14.59.57.34,1.12.71,1.69,1.07a8.42,8.42,0,0,1,.88.51c1,.81,2.08,1.59,3,2.5a12,12,0,0,1,2,2.56c.15.25.33.47.52.74a4.81,4.81,0,0,0,.43-.32c.35-.29.71-.57,1-.88s.56-.6.85-.88l1.22-1.19c.42-.4.84-.82,1.28-1.2s1-.82,1.52-1.29a4,4,0,0,1,1-.71,3.08,3.08,0,0,0,.48-.32c.17-.13.3-.29.47-.42a.41.41,0,0,0,.17-.51,7.31,7.31,0,0,0-.4-.79c-.2-.3-.22-.32,0-.57a2.81,2.81,0,0,1,.43-.33l-.5-.38-.56,0,.13.4-.1.06-.91-.85a2.52,2.52,0,0,0-.25-.21c-.12-.07-.26-.12-.37-.2l-1.58-1.23a3.21,3.21,0,0,0-.41-.34c-.23-.13-.42-.26-.39-.53a2.61,2.61,0,0,1-.67-.24c-.36-.27-.67-.61-1-.9s-.72-.67-1.09-1c-1-.75-2-1.44-3-2.12-.67-.45-1.37-.84-2-1.29a4.51,4.51,0,0,0-1.42-.75l0,0a10.37,10.37,0,0,0-2.07-1c-.47-.13-.91-.37-1.36-.54-.18-.07-.39-.08-.57-.15-.48-.18-1-.4-1.46-.56-.68-.21-1.37-.37-2.06-.56-.21-.05-.41-.11-.62-.15l-2-.36-1.35-.24a31.65,31.65,0,0,0-3.77-.22c-.26,0-.52-.1-.78-.09-1,0-2,.06-3,.11-.62,0-1.24.11-1.86.17l-2.43.29c-.52.07-1,.15-1.55.25-.73.14-1.45.28-2.17.45l-3.32.83a23.24,23.24,0,0,1-2.45.92c-.06,0-.11.07-.16.1a15.24,15.24,0,0,1-1.61.82A25.17,25.17,0,0,0,23.76,8l-.4.19a2,2,0,0,0-.45.26C22.33,9,21.77,9.5,21.19,10s-1.1,1-1.66,1.5a25,25,0,0,0-2.42,2.29c-.26.3-.49.61-.76.9a5,5,0,0,0-1,1.35,2.26,2.26,0,0,1-.13.2l-1,1.67c-.27.42-.52.86-.83,1.26A11.52,11.52,0,0,0,12,21.42c-.26.58-.53,1.16-.83,1.72-.43.8-.92,1.56-1.34,2.37-.51,1-1,2-1.43,3-.53,1.26-1,2.55-1.48,3.83a3.15,3.15,0,0,0-.33,1.51,1,1,0,0,1-.11.37c0,.16-.1.31-.16.47s-.15.38-.23.57a1.81,1.81,0,0,0-.1.27c-.06.56-.32,1-.42,1.6a16.6,16.6,0,0,1-.64,2,8.74,8.74,0,0,0-.44,1.65,11.23,11.23,0,0,0-.2,2.59.36.36,0,0,1,0,.14c-.06.41-.13.81-.18,1.21,0,.2,0,.4,0,.59a29.06,29.06,0,0,0-.36,3.35c-.06.78-.17,1.56-.23,2.34a26.36,26.36,0,0,0,0,3.77c.08,1.19.1,2.38.15,3.57,0,.31,0,.62,0,.93.13,1.09.26,2.18.4,3.27a2.71,2.71,0,0,1,0,.29c.06.77.08,1.54.17,2.3s.25,1.67.37,2.51.23,1.75.34,2.63a5.28,5.28,0,0,0,.14,1c.17.52.42,1,.62,1.54a1.45,1.45,0,0,1,.12.42c.18,1.08.33,2.16.55,3.24a19.17,19.17,0,0,0,.55,2,4.39,4.39,0,0,0,.31.66c.26.53.49,1.07.79,1.57a6.28,6.28,0,0,1,1.08,2.55c0,.13.07.25.1.38s.15.53.22.79a2.39,2.39,0,0,0,.21.7,4.13,4.13,0,0,1,.75,1.42.87.87,0,0,0,.16.3,13.06,13.06,0,0,1,1.3,2.52,1.94,1.94,0,0,0,.24.37,7.29,7.29,0,0,1,.6,1.05,2,2,0,0,0,.43.7,7.07,7.07,0,0,1,1.38,2.07,2.4,2.4,0,0,0,.58.82c.47.41.93.82,1.37,1.26s.71.78,1.06,1.16c.14.16.3.3.43.47.35.45.66.94,1,1.37A7.68,7.68,0,0,0,20.16,100c.71.48,1.38,1,2.06,1.52s1.28,1,1.93,1.51c.45.34.89.7,1.37,1,.74.46,1.5.88,2.26,1.3.34.18.71.3,1.06.47s.66.37,1,.51a1.91,1.91,0,0,1,.84.48c.06.06.17.07.26.11l1.74.66a.87.87,0,0,1,.11.09,4.86,4.86,0,0,0,2,.79,5.12,5.12,0,0,1,1.66.41,1.25,1.25,0,0,0,.85.14c.11,0,.24,0,.36.09s.17.11.26.12a15.22,15.22,0,0,0,1.75.22,8.56,8.56,0,0,1,2.62.32.44.44,0,0,0,.32,0,1.15,1.15,0,0,1,1.22,0,2.92,2.92,0,0,0,1.57.18l.83,0,1.26-.11.29,0a7.67,7.67,0,0,0,2.86-.28,1,1,0,0,1,.48-.06,4.68,4.68,0,0,0,2.35-.64,5.84,5.84,0,0,1,1.9-.72,1.3,1.3,0,0,0,.36-.13l1.85-.67c.15-.06.31-.09.46-.15.56-.23,1.11-.47,1.67-.69.39-.17.8-.29,1.18-.48a13.73,13.73,0,0,1,2.12-1.1,1,1,0,0,0,.29-.17l1.08-.77c.7-.48,1.44-.91,2.11-1.44,1.14-.92,2.28-1.86,3.35-2.87a18.37,18.37,0,0,0,1.52-1.86c.26-.31.57-.59.81-.92.72-1,1.43-2,2.12-3A17.48,17.48,0,0,0,76,91.32s.07-.08.09-.12a3.2,3.2,0,0,0,.27-.52,6.36,6.36,0,0,1,.76-1.63c.23-.35.43-.72.63-1.1a3.82,3.82,0,0,0,.13-.36c.11-.25.21-.51.33-.75.24-.47.53-.91.73-1.39s.27-1,.41-1.45a2.13,2.13,0,0,1,.18-.41,9.09,9.09,0,0,0,.83-2.45,1.43,1.43,0,0,1,.2-.59c.26-.31.17-.79.55-1,0,0,0-.09,0-.13a10.3,10.3,0,0,1,.5-3.17,10,10,0,0,0,.37-2.6,1.91,1.91,0,0,1,.14-1,2.62,2.62,0,0,0,.32-1.52c0-.2,0-.39,0-.59s0-.61.07-.92c0-.16,0-.32,0-.48,0-.45,0-.91.06-1.36s.06-.93.09-1.4c0-.23,0-.45,0-.68.08-.61.18-1.23.23-1.84,0-.33,0-.66,0-1,0-.62.05-1.24.06-1.86a3.16,3.16,0,0,0-.1-1A3.45,3.45,0,0,1,83,59c0-.11-.08-.22-.09-.33,0-.67-.38-.79-1-.87a16.17,16.17,0,0,1-3.1-.34.41.41,0,0,0-.19,0A.6.6,0,0,1,77.85,57ZM30,19c0,.12,0,.22,0,.24a.82.82,0,0,0,.34.09s.09-.11.14-.16a1.92,1.92,0,0,0-.26-.17A.94.94,0,0,0,30,19ZM27,4.94,26.92,5a.64.64,0,0,0,.13.19.65.65,0,0,0,.23.13s.09-.07.08-.1A.48.48,0,0,0,27.23,5,.82.82,0,0,0,27,4.94ZM74.9,14.67l.31.28C75.21,14.62,75.21,14.62,74.9,14.67Zm-43,3.69a.31.31,0,0,0-.45-.09C31.61,18.44,31.73,18.48,31.92,18.36Zm42.49-4.11c-.12-.21-.23-.19-.38,0Zm9.38,44.51-.37.2C83.6,59,83.77,59,83.79,58.76ZM28.62,20.46c.05-.12.09-.17.09-.22s-.05-.07-.08-.1-.11.07-.12.11S28.56,20.35,28.62,20.46Zm.19-15.91c.05,0,.08.09.11.09s.08,0,.12,0a.58.58,0,0,0-.1-.12S28.87,4.52,28.81,4.55Zm1.54,15,0,.08.19.05,0-.08ZM72.13,12.3s0-.07-.06-.07l-.11.06s0,.06.05.06ZM18.11,38s-.05,0-.05.06,0,0,.06.06.05,0,.05-.06S18.13,38,18.11,38Z"/><path class="cls-1" d="M85.12,51.59l.07-.32.1,0-.08.32Z"/><path class="cls-1" d="M77.85,57a.6.6,0,0,0,.71.44.41.41,0,0,1,.19,0,16.17,16.17,0,0,0,3.1.34c.63.08,1,.2,1,.87,0,.11.09.22.09.33a3.45,3.45,0,0,0,0,1.06,3.16,3.16,0,0,1,.1,1c0,.62,0,1.24-.06,1.86,0,.32.05.65,0,1,0,.61-.15,1.23-.23,1.84,0,.23,0,.45,0,.68,0,.47-.07.93-.09,1.4s0,.91-.06,1.36c0,.16,0,.32,0,.48,0,.31,0,.62-.07.92s0,.39,0,.59a2.62,2.62,0,0,1-.32,1.52,1.91,1.91,0,0,0-.14,1,10,10,0,0,1-.37,2.6,10.3,10.3,0,0,0-.5,3.17s0,.12,0,.13c-.38.23-.29.71-.55,1a1.43,1.43,0,0,0-.2.59,9.09,9.09,0,0,1-.83,2.45,2.13,2.13,0,0,0-.18.41c-.14.48-.23,1-.41,1.45s-.49.92-.73,1.39c-.12.24-.22.5-.33.75a3.82,3.82,0,0,1-.13.36c-.2.38-.4.75-.63,1.1a6.36,6.36,0,0,0-.76,1.63,3.2,3.2,0,0,1-.27.52s-.07.07-.09.12a17.48,17.48,0,0,1-1.66,2.35c-.69,1-1.4,2-2.12,3-.24.33-.55.61-.81.92a18.37,18.37,0,0,1-1.52,1.86c-1.07,1-2.21,2-3.35,2.87-.67.53-1.41,1-2.11,1.44l-1.08.77a1,1,0,0,1-.29.17,13.73,13.73,0,0,0-2.12,1.1c-.38.19-.79.31-1.18.48-.56.22-1.11.46-1.67.69-.15.06-.31.09-.46.15l-1.85.67a1.3,1.3,0,0,1-.36.13,5.84,5.84,0,0,0-1.9.72,4.68,4.68,0,0,1-2.35.64,1,1,0,0,0-.48.06,7.67,7.67,0,0,1-2.86.28l-.29,0-1.26.11-.83,0a2.92,2.92,0,0,1-1.57-.18,1.15,1.15,0,0,0-1.22,0,.44.44,0,0,1-.32,0,8.56,8.56,0,0,0-2.62-.32,15.22,15.22,0,0,1-1.75-.22c-.09,0-.17-.09-.26-.12s-.25-.12-.36-.09a1.25,1.25,0,0,1-.85-.14,5.12,5.12,0,0,0-1.66-.41,4.86,4.86,0,0,1-2-.79.87.87,0,0,0-.11-.09L31,106.85c-.09,0-.2,0-.26-.11a1.91,1.91,0,0,0-.84-.48c-.35-.14-.67-.35-1-.51s-.72-.29-1.06-.47c-.76-.42-1.52-.84-2.26-1.3-.48-.3-.92-.66-1.37-1-.65-.5-1.28-1-1.93-1.51s-1.35-1-2.06-1.52A7.68,7.68,0,0,1,19,98.61c-.38-.43-.69-.92-1-1.37-.13-.17-.29-.31-.43-.47-.35-.38-.69-.79-1.06-1.16s-.9-.85-1.37-1.26a2.4,2.4,0,0,1-.58-.82,7.07,7.07,0,0,0-1.38-2.07,2,2,0,0,1-.43-.7,7.29,7.29,0,0,0-.6-1.05,1.94,1.94,0,0,1-.24-.37,13.06,13.06,0,0,0-1.3-2.52.87.87,0,0,1-.16-.3,4.13,4.13,0,0,0-.75-1.42,2.39,2.39,0,0,1-.21-.7c-.07-.26-.14-.53-.22-.79s-.08-.25-.1-.38A6.28,6.28,0,0,0,8,80.68c-.3-.5-.53-1-.79-1.57a4.39,4.39,0,0,1-.31-.66,19.17,19.17,0,0,1-.55-2C6.13,75.4,6,74.32,5.8,73.24a1.45,1.45,0,0,0-.12-.42c-.2-.52-.45-1-.62-1.54a5.28,5.28,0,0,1-.14-1c-.11-.88-.22-1.75-.34-2.63S4.31,66,4.21,65.17,4.1,63.64,4,62.87a2.71,2.71,0,0,0,0-.29c-.14-1.09-.27-2.18-.4-3.27,0-.31,0-.62,0-.93-.05-1.19-.07-2.38-.15-3.57a26.36,26.36,0,0,1,0-3.77c.06-.78.17-1.56.23-2.34A29.06,29.06,0,0,1,4,45.35c0-.19,0-.39,0-.59.05-.4.12-.8.18-1.21a.36.36,0,0,0,0-.14,11.23,11.23,0,0,1,.2-2.59,8.74,8.74,0,0,1,.44-1.65,16.6,16.6,0,0,0,.64-2c.1-.55.36-1,.42-1.6a1.81,1.81,0,0,1,.1-.27c.08-.19.16-.38.23-.57s.11-.31.16-.47a1,1,0,0,0,.11-.37,3.15,3.15,0,0,1,.33-1.51c.48-1.28,1-2.57,1.48-3.83.43-1,.92-2,1.43-3,.42-.81.91-1.57,1.34-2.37.3-.56.57-1.14.83-1.72A11.52,11.52,0,0,1,13.4,19.2c.31-.4.56-.84.83-1.26l1-1.67a2.26,2.26,0,0,0,.13-.2,5,5,0,0,1,1-1.35c.27-.29.5-.6.76-.9a25,25,0,0,1,2.42-2.29c.56-.48,1.11-1,1.66-1.5S22.33,9,22.91,8.44a2,2,0,0,1,.45-.26l.4-.19a25.17,25.17,0,0,1,3.69-1.8,15.24,15.24,0,0,0,1.61-.82c.05,0,.1-.09.16-.1a23.24,23.24,0,0,0,2.45-.92L35,3.52c.72-.17,1.44-.31,2.17-.45.51-.1,1-.18,1.55-.25l2.43-.29c.62-.06,1.24-.14,1.86-.17,1,0,2-.09,3-.11.26,0,.52.08.78.09a31.65,31.65,0,0,1,3.77.22l1.35.24,2,.36c.21,0,.41.1.62.15.69.19,1.38.35,2.06.56.5.16,1,.38,1.46.56.18.07.39.08.57.15.45.17.89.41,1.36.54a10.37,10.37,0,0,1,2.07,1l0,0a4.51,4.51,0,0,1,1.42.75c.66.45,1.36.84,2,1.29,1,.68,2,1.37,3,2.12.37.29.71.65,1.09,1s.66.63,1,.9a2.61,2.61,0,0,0,.67.24c0,.27.16.4.39.53a3.21,3.21,0,0,1,.41.34l1.58,1.23c.11.08.25.13.37.2a2.52,2.52,0,0,1,.25.21l.91.85.1-.06-.13-.4.56,0,.5.38a2.81,2.81,0,0,0-.43.33c-.26.25-.24.27,0,.57a7.31,7.31,0,0,1,.4.79.41.41,0,0,1-.17.51c-.17.13-.3.29-.47.42a3.08,3.08,0,0,1-.48.32,4,4,0,0,0-1,.71c-.48.47-1,.85-1.52,1.29s-.86.8-1.28,1.2L70.09,23c-.29.28-.55.6-.85.88s-.69.59-1,.88a4.81,4.81,0,0,1-.43.32c-.19-.27-.37-.49-.52-.74a12,12,0,0,0-2-2.56c-.94-.91-2-1.69-3-2.5a8.42,8.42,0,0,0-.88-.51c-.57-.36-1.12-.73-1.69-1.07-.37-.22-.76-.38-1.14-.59a13.82,13.82,0,0,0-2.59-1.27c-.66-.19-1.33-.36-2-.53l-1.53-.37c-.83-.2-1.65-.43-2.48-.6a15.7,15.7,0,0,0-4.57-.48,18.78,18.78,0,0,0-4.17.56c-.76.27-1.55.37-2.33.57-.37.09-.74.24-1.11.37-.81.28-1.62.59-2.44.84a16.55,16.55,0,0,0-2.79,1.15c-.61.31-1.24.59-1.85.9-.24.12-.45.29-.69.42a5.8,5.8,0,0,0-1,.5c-.53.42-1.08.83-1.61,1.27a8.5,8.5,0,0,1-1.47,1.26,4.46,4.46,0,0,0-.84.74,3.54,3.54,0,0,1-.71.58c-.49.23-.71.7-1,1.06A10.83,10.83,0,0,0,22,26c-.12.22-.25.46,0,.71,0,.05,0,.19,0,.35l-.44-.28a2.19,2.19,0,0,0-.21.48,1.55,1.55,0,0,0,0,.48c-.15.2-.33.42-.48.66-.31.53-.64,1.06-.9,1.62s-.36,1-.54,1.55a1.39,1.39,0,0,1-.06.19c-.26.48-.41,1-.72,1.47A14.29,14.29,0,0,0,17.8,35a1.33,1.33,0,0,1-.05.19,15.24,15.24,0,0,0-1,2.85,2.87,2.87,0,0,1-.18.4,5.7,5.7,0,0,0-.35,1.82c-.07.44-.17.89-.22,1.34s0,.74-.09,1.11a8.58,8.58,0,0,1-.38,2.3.48.48,0,0,0,0,.24,1.17,1.17,0,0,1-.15.8.37.37,0,0,0,0,.14c-.17.68-.37,1.36-.5,2.05a14,14,0,0,0-.16,1.6c0,.37,0,.74,0,1.12a20.51,20.51,0,0,1-.26,3.75,3.62,3.62,0,0,0,0,.87,18.4,18.4,0,0,0,.24,2.67,8.14,8.14,0,0,0,.64,2.16,3.2,3.2,0,0,1,.21.9c.11.51.23,1,.33,1.53a.91.91,0,0,1-.13.75.37.37,0,0,0,0,.27,3.08,3.08,0,0,1,.16,1.64A2.76,2.76,0,0,0,16,66.7a.49.49,0,0,1,.06.23,4,4,0,0,0,.12,1.29,6.43,6.43,0,0,0,.53,2.28,8.33,8.33,0,0,1,.29.84,17.86,17.86,0,0,0,.73,2,12.78,12.78,0,0,1,.61,1.55,9.21,9.21,0,0,1,.2.91,1.45,1.45,0,0,0,0,.29c.27.64.53,1.3.83,1.93s.58,1.1.87,1.65a25,25,0,0,0,2.28,3.41c.28.35.48.77.76,1.14.59.78,1.21,1.54,1.82,2.31a1.88,1.88,0,0,0,.26.22,1.74,1.74,0,0,1,.4.36,6.73,6.73,0,0,0,1.27,1.34c.47.44.91.89,1.37,1.33a.46.46,0,0,0,.07.07A4.54,4.54,0,0,1,29.67,91a.52.52,0,0,0,.27.2c.7.15,1.11.73,1.66,1.1s1.2.86,1.8,1.28a5.67,5.67,0,0,0,.66.42c.32.17.65.29,1,.45s.48.28.73.4c.72.34,1.43.68,2.16,1a5.31,5.31,0,0,0,1.15.19,14.1,14.1,0,0,0,1.39.26c.45,0,.81.27,1.23.32l1.26.14c.16,0,.32,0,.49,0a2.81,2.81,0,0,1,1.42.21,2.35,2.35,0,0,0,1.59,0,5.71,5.71,0,0,1,1.64-.24.71.71,0,0,0,.25,0c.82-.12,1.65-.24,2.47-.38a14.38,14.38,0,0,0,3.61-1.06c.43-.2.88-.34,1.33-.51A5.4,5.4,0,0,0,57.23,94a.68.68,0,0,1,.22-.12A2.59,2.59,0,0,0,58.84,93c.08-.1.23-.13.34-.2a1.28,1.28,0,0,0,.34-.26.75.75,0,0,1,.48-.39.16.16,0,0,0,.09-.05c.26-.42.74-.56,1.12-.84a3.57,3.57,0,0,0,.27-.28c.06-.08.1-.19.18-.22.76-.35,1.23-1.08,2-1.43a.48.48,0,0,0,.19-.16,16.23,16.23,0,0,1,1.38-1.49,2,2,0,0,0,.38-.63,5.58,5.58,0,0,1,.9-1.35,15.65,15.65,0,0,0,.93-1.77c.17-.37.3-.75.46-1.12a30.53,30.53,0,0,0,1.37-3c.17-.53.44-1,.66-1.53a2.21,2.21,0,0,0,.15-.56c0-.7.12-1.4.11-2.1a11.8,11.8,0,0,0,.16-1.68c0-.16.08-.34.12-.52a4,4,0,0,0,0-1.46.53.53,0,0,1,0-.24,2,2,0,0,0-.22-1.34.79.79,0,0,0-.48-.5.93.93,0,0,1-.43-.22.93.93,0,0,0-.82-.31c-.87,0-1.74,0-2.61,0s-1.57,0-2.36,0c-1.08,0-2.16-.06-3.24-.09-.29,0-.59,0-.88,0a1.23,1.23,0,0,1-.19,0c-.95-.2-1.9.1-2.84,0a8.62,8.62,0,0,0-1.13,0c-1.47,0-3,0-4.42,0a6.43,6.43,0,0,1-1-.12.38.38,0,0,1-.36-.44,4.06,4.06,0,0,0-.14-1.3,13.38,13.38,0,0,1-.13-1.42A35.15,35.15,0,0,1,49.07,60a6.85,6.85,0,0,0,0-1.81,6.17,6.17,0,0,1,0-1.06,7.2,7.2,0,0,1,2.05-.25c.71,0,1.43,0,2.15,0,.26,0,.52,0,.78,0l1.56.08c.77,0,1.53.1,2.3.11.59,0,1.17-.05,1.76-.07.34,0,.68,0,1,0s.85.08,1.27,0a4.88,4.88,0,0,1,1.7.13.58.58,0,0,0,.19,0c.65,0,1.3-.06,2-.06s1.14,0,1.71.08a7.47,7.47,0,0,0,1.89,0,4.21,4.21,0,0,1,1.12,0,4.63,4.63,0,0,0,1.66-.05.66.66,0,0,1,.24,0c.83.05,1.66.12,2.5.16.37,0,.74-.06,1.11-.07s.83,0,1.25,0C77.51,57.34,77.74,57.36,77.85,57Z"/><path class="cls-1" d="M30,19a.94.94,0,0,1,.24,0,1.92,1.92,0,0,1,.26.17c0,.05-.1.16-.14.16a.82.82,0,0,1-.34-.09S30,19.13,30,19Z"/><path class="cls-1" d="M27,4.94a.82.82,0,0,1,.25.08.48.48,0,0,1,.13.23s-.07.1-.08.1a.65.65,0,0,1-.23-.13A.64.64,0,0,1,26.92,5Z"/><path class="cls-1" d="M74.9,14.67c.31-.05.31-.05.31.28Z"/><path class="cls-1" d="M31.92,18.36c-.19.12-.31.08-.45-.09A.31.31,0,0,1,31.92,18.36Z"/><path class="cls-1" d="M74.41,14.25H74C74.18,14.06,74.29,14,74.41,14.25Z"/><path class="cls-1" d="M83.79,58.76c0,.28-.19.26-.37.2Z"/><path class="cls-1" d="M28.62,20.46c-.06-.11-.12-.17-.11-.21s.08-.08.12-.11.08.07.08.1S28.67,20.34,28.62,20.46Z"/><path class="cls-1" d="M28.81,4.55c.06,0,.11-.08.13-.07a.58.58,0,0,1,.1.12s-.08.05-.12,0S28.86,4.59,28.81,4.55Z"/><path class="cls-1" d="M30.35,19.58l.19.05,0,.08-.19-.05Z"/><path class="cls-1" d="M72.13,12.3l-.12,0s0,0-.05-.06l.11-.06S72.1,12.27,72.13,12.3Z"/><path class="cls-1" d="M18.11,38s.06,0,.06.06,0,0-.05.06-.06,0-.06-.06S18.1,38,18.11,38Z"/></svg>