<svg id="H" xmlns="http://www.w3.org/2000/svg" viewBox="0 0 86 112"><defs><style>.cls-1{stroke:#000;stroke-miterlimit:10;}</style></defs><path class="cls-1" d="M.77,108.84a3.26,3.26,0,0,0,0-.47,24,24,0,0,1,0-3.6c0-1,0-1.92,0-2.88"/><path class="cls-1" d="M.64,93.85c.2,0,.25-.09.26-.43,0-1.29.07-2.57.08-3.86s0-2.4,0-3.6c0-1.43.05-2.86-.05-4.28-.09-1.22,0-2.44,0-3.65,0-.65.14-1.3.16-2,0-1.21,0-2.41,0-3.62,0-.3,0-.62,0-.92a16.59,16.59,0,0,0,0-3c-.05-.72,0-1.44,0-2.17,0-1.94.18-3.87.27-5.81.07-1.57.18-3.13.14-4.69,0-1,.2-1.88.16-2.83s-.05-2,0-2.94c0-.74.08-1.47.1-2.21,0-2.34,0-4.68.07-7,0-.45,0-.9.07-1.34.15-1.54.19-3.09.19-4.63a29.24,29.24,0,0,1,.18-4,.66.66,0,0,0,0-.2,21.28,21.28,0,0,1,.21-3.19,11.92,11.92,0,0,0,.05-1.34c0-1.23.06-2.46,0-3.7-.1-1.49,0-3,0-4.48,0-.36.11-.71.15-1.07.12-1.13.26-2.26.34-3.39A13.91,13.91,0,0,0,3,11.88a5.79,5.79,0,0,1,.11-2,4.46,4.46,0,0,0,.05-.82c0-.6.1-1.2.18-1.79A3.62,3.62,0,0,0,3,5.46,2.3,2.3,0,0,1,2.91,5c-.05-.43-.12-.85-.13-1.28a2.35,2.35,0,0,1,.55-1.56.54.54,0,0,1,.4-.2c.56.08,1.12-.17,1.68.05a.75.75,0,0,0,.3,0l2.69,0c.67,0,1.34,0,2,0a23.08,23.08,0,0,0,2.35,0c.75,0,1.51,0,2.26,0a5.73,5.73,0,0,0,.91-.14l.64-.1.18.47.57-.15a2.58,2.58,0,0,1,.27,1.81,5.13,5.13,0,0,0-.1,1.12l-.12,2a2.89,2.89,0,0,0,.07,1,4.48,4.48,0,0,1,0,1.27c0,.6-.09,1.19-.12,1.79a8.43,8.43,0,0,0,0,.87c0,.75,0,1.5,0,2.25a1,1,0,0,0,0,.25,2.84,2.84,0,0,1-.07,1.53,3.09,3.09,0,0,0-.08.61c0,.6,0,1.2-.05,1.8,0,.37,0,.75,0,1.12a3.12,3.12,0,0,1-.05.75A9,9,0,0,0,17,22.45a1.81,1.81,0,0,0,.18.62A2,2,0,0,0,17,24.63c0,.06,0,.13-.05.2a3.67,3.67,0,0,0-.05.66c0,.91.09,1.81.13,2.72s.07,1.55,0,2.32a22.67,22.67,0,0,1-.09,3,2.32,2.32,0,0,0,.26,1.6A1.26,1.26,0,0,0,17,36a29.47,29.47,0,0,1,0,3.76,1.41,1.41,0,0,0,0,.2c.09,1-.09,1.92-.07,2.87s-.22,1.64-.13,2.48a2.09,2.09,0,0,0,0,.35.47.47,0,0,0,.45.41,22.85,22.85,0,0,0,4.89.07c.6,0,1.2,0,1.8,0,1.22,0,2.43.06,3.65.11.69,0,1.37.1,2.06.13a8.48,8.48,0,0,0,.87-.06h.66c1.05,0,2.1-.06,3.15,0s1.92,0,2.88-.09c.77-.05,1.55.08,2.32.09,1.07,0,2.13,0,3.2,0a.7.7,0,0,1,.25,0,18.76,18.76,0,0,0,4,.2c2.24,0,4.48.11,6.71.05s4.19.07,6.29.13c.74,0,1.48-.06,2.22-.07,1,0,2.06,0,3.09,0s1.83-.06,2.74-.08H69a1.67,1.67,0,0,0,.07-.29c0-1,0-2.05,0-3.08s0-1.78,0-2.68,0-1.61,0-2.42,0-1.51,0-2.27c0-.47-.09-1-.1-1.43,0-.7,0-1.4,0-2.1,0-.5-.07-1-.08-1.49,0-.75,0-1.51,0-2.27,0-1.35.11-2.71.16-4.07,0-.53,0-1.06,0-1.59,0-1.05,0-2.1,0-3.14,0-.31.06-.62.08-.92,0-1,.12-2,.14-3,0-.84,0-1.68-.08-2.52L69,8.93c0-.87-.09-1.75-.11-2.62,0-.24.09-.48.09-.72C69,5.05,69,4.5,69,4a1.82,1.82,0,0,0-.24-.56,1,1,0,0,1,0-.91,2.16,2.16,0,0,1,1-1.25A1.42,1.42,0,0,0,71,1.68a16,16,0,0,1,1.7-.05c.41,0,.82,0,1.23,0a14.76,14.76,0,0,1,2.3.1l.66,0,1.54,0c.85,0,1.71,0,2.57,0a4.61,4.61,0,0,1,1.48.07,2.48,2.48,0,0,0,.65,0l.31.56.39-.09V2c.58,0,.49.54.68.88a1.1,1.1,0,0,0-.67,1c0,.06-.05.14,0,.19a5.43,5.43,0,0,1,.21,2.23c0,.32-.08.64-.1,1,0,.6,0,1.2-.08,1.79,0,.14,0,.28,0,.41s0,.48,0,.71a5.83,5.83,0,0,0,0,.72c.08.66.24,1.31.28,2s0,1.34-.06,2c0,.11,0,.23,0,.34l0,1.59a.74.74,0,0,0,0,.21,3.77,3.77,0,0,1,.15,1.2,12.76,12.76,0,0,1-.06,2.62,4.12,4.12,0,0,0,.07.85,5,5,0,0,1,0,.67c0,.44-.11.88-.16,1.32a2.77,2.77,0,0,0,0,1.07c.13.45.13.94.22,1.41a17.89,17.89,0,0,1-.13,2.64c0,.58,0,1.16,0,1.74s-.05,1.1-.09,1.64a9,9,0,0,0,.1,2.26,5.8,5.8,0,0,1,0,1.18c0,.79-.08,1.58-.06,2.36s.12,1.44.17,2.16c0,.37,0,.75,0,1.12a3.81,3.81,0,0,0,0,.67,6.43,6.43,0,0,1,0,1.64,1.48,1.48,0,0,0,0,.21c.07.69.15,1.39.21,2.09a3.18,3.18,0,0,1,0,.62,2.52,2.52,0,0,0,.14,1.36c0,.06.06.14,0,.18a2.8,2.8,0,0,0-.13,1.76c.06,1.06.14,2.12.22,3.18,0,.51.07,1,.13,1.54a3.05,3.05,0,0,1,0,.8,8.54,8.54,0,0,0,0,1.75,11.5,11.5,0,0,1-.12,2.87,1.49,1.49,0,0,0,0,.21c0,1,0,2,0,3v.1c0,1.87,0,3.74,0,5.61A17.61,17.61,0,0,0,85,71.19a19.28,19.28,0,0,1,.06,2.4c0,.93,0,1.86,0,2.79,0,.36.12.72.1,1.07-.14,2.49,0,5,0,7.48,0,1.44.09,2.88,0,4.33a17.42,17.42,0,0,1-.22,2,9.6,9.6,0,0,0,0,2.21c.06,1.19.41,2.34.36,3.53a4.57,4.57,0,0,0,.07.83,22.78,22.78,0,0,1,.08,4c0,.64,0,1.27,0,1.91a12,12,0,0,1-.09,1.59,12.49,12.49,0,0,0,0,3.29s0,.07,0,0l-.58.29c-.16.09-.31.21-.48.29a.46.46,0,0,1-.66-.16.87.87,0,0,0-.84-.3,7.65,7.65,0,0,1-1.79.06,6.68,6.68,0,0,0-1.89.1,12.63,12.63,0,0,1-2.3,0,8.94,8.94,0,0,0-2.87.17,4.66,4.66,0,0,1-1.13.11c-.73,0-1.47.07-2.21.08a3.88,3.88,0,0,1-1-.11c-.49-.12-.64-.43-.58-.93,0-.32,0-.65,0-1a20.87,20.87,0,0,0-.11-3.87,12.76,12.76,0,0,1,0-1.39c0-.82-.1-1.64-.14-2.47,0-.41,0-.82,0-1.23,0-.79,0-1.58-.07-2.37a16.49,16.49,0,0,1,.2-3.29,6.44,6.44,0,0,0,0-.87c0-1.36,0-2.72,0-4.07,0-.81.09-1.62.17-2.42s.19-1.5.23-2.26a6.79,6.79,0,0,0-.1-1.49,15.8,15.8,0,0,1-.07-3.7,19.14,19.14,0,0,0,0-3.3,18.31,18.31,0,0,1,0-2c0-.91,0-1.82,0-2.73a10.54,10.54,0,0,1,.07-1.38,12.59,12.59,0,0,0-.1-2.88c-.08-1-.3-2.07-.44-3.11a.36.36,0,0,0-.36-.36,16.72,16.72,0,0,0-1.88-.06c-.84,0-1.67.12-2.51.19-.55.05-1.12-.12-1.69-.11a16.83,16.83,0,0,0-3.17.13,4.87,4.87,0,0,1-1.08,0c-1.14,0-2.27,0-3.4.06-.72,0-1.43.11-2.15.17h-.16c-.68-.05-1.36-.13-2-.14a4.23,4.23,0,0,0-1.16.17,3.32,3.32,0,0,1-1.37.11,4.17,4.17,0,0,0-1.32,0,6.42,6.42,0,0,1-1.39.08c-1.29,0-2.57-.06-3.86-.11-.28,0-.55-.09-.82-.1-.62,0-1.24,0-1.85,0s-1-.06-1.55-.08a5.07,5.07,0,0,0-.87,0,12.45,12.45,0,0,1-2.73,0,22.69,22.69,0,0,0-3-.21c-.84,0-1.68.06-2.51.13-1.06.1-2.14,0-3.2,0-.48,0-1,.07-1.44.06-1.38,0-2.75-.09-4.12-.11-.83,0-1.65,0-2.48,0-.3,0-.4.11-.41.42a8.85,8.85,0,0,0,0,1c0,1,.11,1.91.14,2.86,0,.45-.08.89-.1,1.34a3.77,3.77,0,0,0,0,.82,10.61,10.61,0,0,1,.1,3c0,.25,0,.51,0,.77a2,2,0,0,1,0,.55,5,5,0,0,0-.16,1.64,22,22,0,0,1,0,3.35,13.84,13.84,0,0,0,.08,1.69c0,.42,0,.85,0,1.28l0,2.83a.74.74,0,0,1,0,.21,15.54,15.54,0,0,0,0,3.34,2.88,2.88,0,0,0,.09.4,1.77,1.77,0,0,1,0,.4,7,7,0,0,0-.09.8c0,1,.12,2,.13,3,0,.69,0,1.37-.07,2.06a2.11,2.11,0,0,0,0,.25,26.72,26.72,0,0,1,0,3.9c0,.46-.08.93-.11,1.39-.05.77-.13,1.54-.15,2.31s0,1.68,0,2.53c0,.56,0,1.13,0,1.7a.91.91,0,0,0,.23.66,2,2,0,0,1,.31,1.12,3.44,3.44,0,0,1-.06.85c-.05,0-.13,0-.14,0-.23.54-.73.48-1.17.52s-1.1.07-1.65.07c-.38,0-.75-.09-1.12-.13a6.36,6.36,0,0,0-.87-.06c-.91,0-1.82.07-2.73.11a4.62,4.62,0,0,0-.61.11,3.16,3.16,0,0,1-1.16.12c-.34,0-.46-.2-.8-.17a17.08,17.08,0,0,1-2.58,0,2.26,2.26,0,0,0-.85.13,1.18,1.18,0,0,1-1,0,1.54,1.54,0,0,0-.79-.16H.76"/><path class="cls-1" d="M70,49.55c0-.27,0-.43,0-.6,0-.48,0-.52-.54-.55-.68,0-1.37-.07-2.06-.06a11.4,11.4,0,0,1-2.61-.05,1.45,1.45,0,0,0-.36,0H62l-2.42,0h-.87c-.48,0-1-.08-1.44-.08-.77,0-1.54.07-2.31.07-.48,0-1-.08-1.44-.09-.67,0-1.34.05-2,0-.93,0-1.86,0-2.79-.08a14.85,14.85,0,0,0-2.31,0,10.8,10.8,0,0,1-1.38.1,9.92,9.92,0,0,0-1.33,0,2.12,2.12,0,0,1-.67-.05,9.19,9.19,0,0,0-2.45-.2c-.31,0-.62,0-.92,0-.67,0-1.34-.07-2-.07-.41,0-.82,0-1.23.06h-2c-.29,0-.58,0-.88,0-.56,0-1.12,0-1.69,0-.85,0-1.7.06-2.56.07A7.92,7.92,0,0,1,27.58,48a13.62,13.62,0,0,0-2.77-.22c-.53,0-1.06-.07-1.6-.07s-1.2,0-1.8,0-1,.08-1.48.12a2.11,2.11,0,0,0-.36,0,2,2,0,0,1-1.26-.11,1.93,1.93,0,0,0-1.51.07,1.6,1.6,0,0,1-1.57-.17,1,1,0,0,0-.69-.25.23.23,0,0,1-.28-.27,1.61,1.61,0,0,0,.84-1.58,16.75,16.75,0,0,1,.07-2.12c.07-1.09.16-2.19.21-3.29,0-.63,0-1.27,0-1.9,0-.28.09-.55.09-.82s-.1-.68-.12-1a13.66,13.66,0,0,1-.13-2.11,28.14,28.14,0,0,0,.08-3.18c0-.29,0-.59,0-.88s0-.82,0-1.23.05-.58,0-.87c0-.82,0-1.65-.13-2.46a17.47,17.47,0,0,1,.12-4c.06-.56.08-1.13.11-1.7,0-.86.08-1.71.07-2.57a8.8,8.8,0,0,1,.12-2,2.09,2.09,0,0,0,0-.56c0-1.22,0-2.44,0-3.66s.06-2.4.08-3.61a11.53,11.53,0,0,1,0-1.44,8.42,8.42,0,0,0,.07-1.74c0-.73-.11-.8-.93-.81-.06,0-.13,0-.2,0-.86,0-1.72,0-2.57,0s-1.75-.12-2.62-.15-2,0-2.93,0a2.8,2.8,0,0,1-.92-.09,1.65,1.65,0,0,0-1.3.13c0,.43,0,.85.09,1.28,0,.69.15,1.39.17,2.09s0,1.37-.06,2.05c0,.43-.12.85-.13,1.28,0,.92,0,1.85,0,2.78a11.44,11.44,0,0,1,0,1.43c-.06.89-.19,1.78-.28,2.66,0,.52-.1,1-.1,1.55,0,1.26,0,2.52,0,3.79,0,.44,0,.88.06,1.32,0,.91.12,1.82.09,2.73s-.18,1.81-.24,2.72S4,31.35,3.93,32.42s0,1.88,0,2.83c0,.72-.05,1.44,0,2.16,0,.51-.17,1.07.3,1.49A1.29,1.29,0,0,0,3.74,40c0,.24,0,.48,0,.72l0,2.41c0,.57.06,1.13,0,1.69,0,.79-.14,1.58-.16,2.37,0,1.32,0,2.64,0,4,0,.73,0,1.45,0,2.17s-.12,1.61-.12,2.42c0,1.57,0,3.15-.1,4.73-.1,1.9-.31,3.8-.22,5.71,0,.88-.05,1.76,0,2.63.11,1.29,0,2.57,0,3.86,0,.32,0,.65,0,1,0,.48,0,1,0,1.44,0,.88-.07,1.75-.09,2.63,0,1.13,0,2.26,0,3.4,0,.93.08,1.85.09,2.78S3,85.48,3,86.29c0,1.77.08,3.54.12,5.31,0,.14,0,.27,0,.41,0,.36-.05.72-.06,1.08,0,1,0,2-.07,2.92a1.83,1.83,0,0,0,.5,1.69c.26.23.22.46-.07.68a.75.75,0,0,0-.3.67c0,.3,0,.61.29.8l-.41.38c.44.34.36.67,0,1a.39.39,0,0,0-.08.28A5,5,0,0,0,3,102.94a3.36,3.36,0,0,1,.08.9.51.51,0,0,1,0,.25,1.61,1.61,0,0,0-.07,1c.08.4.13.8.19,1.21a1.18,1.18,0,0,1,0,.25c0,.22,0,.43,0,.65s.13.33.36.35c.61,0,1.23.12,1.85.12s1.26-.1,1.9-.12c1,0,2.1,0,3.15,0a3.47,3.47,0,0,0,.45-.06,10.2,10.2,0,0,1,1.23-.1,4.66,4.66,0,0,1,1.38.17c.44.15.62,0,.64-.5s.05-1.06.07-1.59l.06-3.3c0-.34,0-.69,0-1,.07-1.08.18-2.15.25-3.23q.07-1.18.09-2.37c0-.93,0-1.86,0-2.79s0-2,0-2.94c0-.53,0-1.06,0-1.59,0-.28,0-.55,0-.83,0-.6-.07-1.2-.06-1.8s.06-1.45.07-2.17c0-.48-.05-1-.05-1.44a23.46,23.46,0,0,0-.06-2.78,4.14,4.14,0,0,1,0-.61c0-.92.07-1.83.1-2.74a13.76,13.76,0,0,1,0-1.44,29.4,29.4,0,0,0,.24-4.78c0-.46-.13-.92-.13-1.38,0-.89,0-1.79.07-2.68,0-.7.07-1.41.06-2.11a4.13,4.13,0,0,0-.18-1.16A1.37,1.37,0,0,1,14.82,61a.77.77,0,0,1,.46-.15,11.43,11.43,0,0,0,2.11-.08,6.1,6.1,0,0,1,1.54-.07,28.84,28.84,0,0,0,3.35.1c2.2-.08,4.41-.11,6.61-.15l2.21,0c.33,0,.66,0,1,0,.82.07,1.64.2,2.46.24,2,.09,4.09.13,6.13.2.31,0,.62,0,.93,0l1.7,0c1.39,0,2.79,0,4.17,0C49.16,61,50.84,61,52.52,61c1.22,0,2.44-.11,3.66-.16l3.76-.12c.89,0,1.79,0,2.68,0,1.15,0,2.3,0,3.45-.06A8.49,8.49,0,0,0,68,60.41a3.83,3.83,0,0,1,1.16-.17.61.61,0,0,1,.59.33,4.52,4.52,0,0,0,.46.62.8.8,0,0,1,.17.56,7.16,7.16,0,0,0,.22,2A10,10,0,0,1,71,66.36c0,.61,0,1.23,0,1.85a5.93,5.93,0,0,1,0,1.33,9.36,9.36,0,0,0,0,1.59c0,.29,0,.58,0,.87,0,.82-.1,1.65,0,2.47A20.05,20.05,0,0,1,71,77c0,.5-.07,1-.07,1.5s0,1.27,0,1.9a2.88,2.88,0,0,0,.06.72A5.39,5.39,0,0,1,71.23,83c0,.56-.09,1.12-.14,1.68s-.11,1-.19,1.48a5.66,5.66,0,0,0-.06,1.79,3.2,3.2,0,0,1,0,.62c0,.75,0,1.51,0,2.26,0,.31.09.62.07.93,0,.77-.13,1.53-.19,2.3,0,.35,0,.69,0,1,0,1,0,1.92,0,2.88,0,.43.11.85.13,1.28,0,1.29.06,2.58.09,3.86a5.48,5.48,0,0,0,0,.57,9.76,9.76,0,0,1,.18,2.41,2.93,2.93,0,0,0,.07.72.43.43,0,0,0,.41.39,6.76,6.76,0,0,0,1.49,0,21.34,21.34,0,0,1,3.29-.25c.79,0,1.58,0,2.37,0,.22,0,.45,0,.67,0a21.26,21.26,0,0,1,3.29-.15c.34,0,.47-.06.54-.4a4.38,4.38,0,0,0,.14-.87c0-1,.07-2.09.1-3.14,0-.8,0-1.61.06-2.41a8.6,8.6,0,0,0-.1-2.15c-.08-.46-.07-.93-.12-1.39-.08-.82-.19-1.63-.28-2.45a9.19,9.19,0,0,1,0-2.77,13.37,13.37,0,0,0,.15-1.79c0-.46,0-.93,0-1.39,0-.89.09-1.78.09-2.68,0-1.25-.06-2.5-.08-3.76,0-.82,0-1.65,0-2.47,0-.45,0-.89,0-1.34s0-1.2,0-1.8,0-1.2,0-1.8c0-.87,0-1.75,0-2.63,0-.66-.06-1.33-.09-2a.43.43,0,0,0,0-.2,1.41,1.41,0,0,1-.06-.86c0-.48.08-1,.09-1.43,0-.31-.06-.62-.07-.92,0-.67,0-1.34,0-2,0-.28,0-.55,0-.82a2.17,2.17,0,0,0,0-.36,20,20,0,0,1,.08-4.57c.08-.83,0-1.65,0-2.47,0-.51,0-1,0-1.52,0-.86,0-1.72,0-2.58,0-.33-.08-.65-.1-1,0-.65-.05-1.3-.07-1.95,0-.31,0-.62,0-.93,0-1.35,0-2.71,0-4.06,0-.81,0-1.61,0-2.42,0-.12,0-.24,0-.36a22.77,22.77,0,0,1-.2-4.21,9.52,9.52,0,0,0,0-2.77.75.75,0,0,1,0-.15c0-1.07,0-2.13,0-3.2s.07-1.95.11-2.93c0-.67,0-1.34,0-2,0-.48,0-1-.06-1.44,0-.13,0-.27,0-.4a10.88,10.88,0,0,1-.14-1.79,31.8,31.8,0,0,0,.15-3.24c0-.46,0-.92,0-1.38s-.12-1.12-.13-1.69c0-.87,0-1.75,0-2.63a5.46,5.46,0,0,0-.06-1.89,1.18,1.18,0,0,1,0-.46c.11-1.17,0-2.36.24-3.53a10.88,10.88,0,0,0-.15-3.64c0-.19-.1-.32-.32-.34s-.57-.09-.86-.1c-.71,0-1.41,0-2.12,0a15.53,15.53,0,0,0-2.46-.1.75.75,0,0,1-.21,0c-.87-.05-1.74-.16-2.61-.13a22.87,22.87,0,0,0-3,.14c-.19,0-.39,0-.62,0,0,.25,0,.44.07.62a3.31,3.31,0,0,1,.06.82,15.22,15.22,0,0,0,0,3.44c.06,1.08.1,2.16.15,3.24a5.67,5.67,0,0,0,.05,1.17,2.43,2.43,0,0,1,0,1.07,2.18,2.18,0,0,0,0,.51,15.35,15.35,0,0,1,.06,3c0,.58,0,1.17,0,1.75,0,.79-.09,1.58-.1,2.37,0,1,.09,1.91,0,2.88s-.05,1.68-.06,2.52c0,1.44,0,2.88,0,4.32,0,1,0,2,.06,3,0,1.41.05,2.82.08,4.23l0,2.89c0,1.46,0,2.92,0,4.38a9.42,9.42,0,0,0,.19,1.84c.08.37.08.61-.26.83a.78.78,0,0,0-.38.88A.62.62,0,0,1,70,49.55Z"/><path class="cls-1" d="M4.4,2.63l-.07,0a.41.41,0,0,0,0,.08s0,0,.07,0Z"/><path class="cls-1" d="M50.41,44.64l.51.21C50.53,44.88,50.53,44.88,50.41,44.64Z"/><path class="cls-1" d="M70,49.55a.62.62,0,0,0,.24-.65.78.78,0,0,1,.38-.88c.34-.22.34-.46.26-.83a9.42,9.42,0,0,1-.19-1.84c0-1.46,0-2.92,0-4.38l0-2.89c0-1.41-.05-2.82-.08-4.23,0-1-.06-2-.06-3,0-1.44,0-2.88,0-4.32,0-.84,0-1.68.06-2.52s0-1.92,0-2.88c0-.79.07-1.58.1-2.37,0-.58,0-1.17,0-1.75a15.35,15.35,0,0,0-.06-3,2.18,2.18,0,0,1,0-.51,2.43,2.43,0,0,0,0-1.07,5.67,5.67,0,0,1-.05-1.17c0-1.08-.09-2.16-.15-3.24a15.22,15.22,0,0,1,0-3.44,3.31,3.31,0,0,0-.06-.82c0-.18,0-.37-.07-.62.23,0,.43,0,.62,0a22.87,22.87,0,0,1,3-.14c.87,0,1.74.08,2.61.13a.75.75,0,0,0,.21,0,15.53,15.53,0,0,1,2.46.1c.71,0,1.41,0,2.12,0,.29,0,.57.07.86.1s.29.15.32.34a10.88,10.88,0,0,1,.15,3.64c-.2,1.17-.13,2.36-.24,3.53a1.18,1.18,0,0,0,0,.46,5.46,5.46,0,0,1,.06,1.89c0,.88,0,1.76,0,2.63,0,.57.11,1.13.13,1.69s0,.92,0,1.38a31.8,31.8,0,0,1-.15,3.24A10.88,10.88,0,0,0,82.57,24c0,.13,0,.27,0,.4,0,.48.06,1,.06,1.44,0,.67,0,1.34,0,2,0,1-.1,2-.11,2.93s0,2.13,0,3.2a.75.75,0,0,0,0,.15,9.52,9.52,0,0,1,0,2.77,22.77,22.77,0,0,0,.2,4.21c0,.12,0,.24,0,.36,0,.81,0,1.61,0,2.42,0,1.35,0,2.71,0,4.06,0,.31,0,.62,0,.93,0,.65,0,1.3.07,1.95,0,.33.09.65.1,1,0,.86,0,1.72,0,2.58,0,.5.07,1,0,1.52,0,.82.08,1.64,0,2.47A20,20,0,0,0,83,62.91a2.17,2.17,0,0,1,0,.36c0,.27,0,.54,0,.82,0,.67,0,1.34,0,2,0,.3.07.61.07.92,0,.47,0,1-.09,1.43a1.41,1.41,0,0,0,.06.86.43.43,0,0,1,0,.2c0,.67.08,1.34.09,2,0,.88,0,1.76,0,2.63,0,.6,0,1.2,0,1.8s0,1.2,0,1.8,0,.89,0,1.34c0,.82,0,1.65,0,2.47,0,1.26.07,2.51.08,3.76,0,.9-.06,1.79-.09,2.68,0,.46,0,.93,0,1.39A13.37,13.37,0,0,1,83,91.17a9.19,9.19,0,0,0,0,2.77c.09.82.2,1.63.28,2.45,0,.46,0,.93.12,1.39a8.6,8.6,0,0,1,.1,2.15c-.06.8,0,1.61-.06,2.41,0,1-.06,2.1-.1,3.14a4.38,4.38,0,0,1-.14.87c-.07.34-.2.43-.54.4a21.26,21.26,0,0,0-3.29.15c-.22,0-.45,0-.67,0-.79,0-1.58,0-2.37,0a21.34,21.34,0,0,0-3.29.25,6.76,6.76,0,0,1-1.49,0,.43.43,0,0,1-.41-.39,2.93,2.93,0,0,1-.07-.72,9.76,9.76,0,0,0-.18-2.41,5.48,5.48,0,0,1,0-.57c0-1.28-.05-2.57-.09-3.86,0-.43-.12-.85-.13-1.28,0-1,0-1.92,0-2.88,0-.34,0-.68,0-1,.06-.77.15-1.53.19-2.3,0-.31-.07-.62-.07-.93,0-.75,0-1.51,0-2.26a3.2,3.2,0,0,0,0-.62,5.66,5.66,0,0,1,.06-1.79c.08-.49.14-1,.19-1.48s.09-1.12.14-1.68A5.39,5.39,0,0,0,71,81.16a2.88,2.88,0,0,1-.06-.72c0-.63,0-1.27,0-1.9s0-1,.07-1.5a20.05,20.05,0,0,0,0-2.57c-.06-.82,0-1.65,0-2.47,0-.29,0-.58,0-.87a9.36,9.36,0,0,1,0-1.59,5.93,5.93,0,0,0,0-1.33c0-.62,0-1.24,0-1.85a10,10,0,0,0-.48-2.63,7.16,7.16,0,0,1-.22-2,.8.8,0,0,0-.17-.56,4.52,4.52,0,0,1-.46-.62.61.61,0,0,0-.59-.33,3.83,3.83,0,0,0-1.16.17,8.49,8.49,0,0,1-1.89.22c-1.15,0-2.3,0-3.45.06-.89,0-1.79,0-2.68,0l-3.76.12c-1.22,0-2.44.14-3.66.16-1.68,0-3.36.05-5.05.14-1.38.07-2.78,0-4.17,0l-1.7,0c-.31,0-.62,0-.93,0-2-.07-4.09-.11-6.13-.2-.82,0-1.64-.17-2.46-.24-.32,0-.65,0-1,0l-2.21,0c-2.2,0-4.41.07-6.61.15a28.84,28.84,0,0,1-3.35-.1,6.1,6.1,0,0,0-1.54.07,11.43,11.43,0,0,1-2.11.08.77.77,0,0,0-.46.15,1.37,1.37,0,0,0-.25,1.22,4.13,4.13,0,0,1,.18,1.16c0,.7,0,1.41-.06,2.11,0,.89-.07,1.79-.07,2.68,0,.46.13.92.13,1.38a29.4,29.4,0,0,1-.24,4.78,13.76,13.76,0,0,0,0,1.44c0,.91-.07,1.82-.1,2.74a4.14,4.14,0,0,0,0,.61,23.46,23.46,0,0,1,.06,2.78c0,.48.05,1,.05,1.44,0,.72-.07,1.44-.07,2.17s0,1.2.06,1.8c0,.28,0,.55,0,.83,0,.53,0,1.06,0,1.59,0,1,0,2,0,2.94s.05,1.86,0,2.79,0,1.58-.09,2.37c-.07,1.08-.18,2.15-.25,3.23,0,.34,0,.69,0,1l-.06,3.3c0,.53-.05,1.06-.07,1.59s-.2.65-.64.5a4.66,4.66,0,0,0-1.38-.17,10.2,10.2,0,0,0-1.23.1,3.47,3.47,0,0,1-.45.06c-1.05,0-2.1,0-3.15,0-.64,0-1.27.12-1.9.12s-1.24-.08-1.85-.12c-.23,0-.36-.12-.36-.35s0-.43,0-.65a1.18,1.18,0,0,0,0-.25c-.06-.41-.11-.81-.19-1.21a1.61,1.61,0,0,1,.07-1,.51.51,0,0,0,0-.25,3.36,3.36,0,0,0-.08-.9,5,5,0,0,1-.09-1.43.39.39,0,0,1,.08-.28c.35-.33.43-.66,0-1l.41-.38c-.31-.19-.28-.5-.29-.8a.75.75,0,0,1,.3-.67c.29-.22.33-.45.07-.68A1.83,1.83,0,0,1,3,96c.06-1,0-2,.07-2.92,0-.36,0-.72.06-1.08,0-.14,0-.27,0-.41,0-1.77-.09-3.54-.12-5.31,0-.81.08-1.61.07-2.42S3,82,3,81.09c0-1.14,0-2.27,0-3.4,0-.88.06-1.75.09-2.63,0-.48,0-1,0-1.44,0-.32,0-.65,0-1,0-1.29.12-2.57,0-3.86-.07-.87,0-1.75,0-2.63-.09-1.91.12-3.81.22-5.71.08-1.58.1-3.16.1-4.73,0-.81.1-1.62.12-2.42s0-1.44,0-2.17c0-1.32,0-2.64,0-4,0-.79.13-1.58.16-2.37,0-.56,0-1.12,0-1.69l0-2.41c0-.24,0-.48,0-.72a1.29,1.29,0,0,1,.42-1.08c-.47-.42-.29-1-.3-1.49,0-.72,0-1.44,0-2.16,0-1,0-1.89,0-2.83s.08-2.13.15-3.19.22-1.81.24-2.72-.05-1.82-.09-2.73c0-.44-.08-.88-.06-1.32.06-1.27,0-2.53,0-3.79,0-.52,0-1,.1-1.55.09-.88.22-1.77.28-2.66a11.44,11.44,0,0,0,0-1.43c0-.93,0-1.86,0-2.78,0-.43.11-.85.13-1.28,0-.68.08-1.37.06-2.05s-.12-1.4-.17-2.09c0-.43-.06-.85-.09-1.28a1.65,1.65,0,0,1,1.3-.13,2.8,2.8,0,0,0,.92.09c1,0,1.95,0,2.93,0s1.74.12,2.62.15,1.71,0,2.57,0c.07,0,.14,0,.2,0,.82,0,.89.08.93.81a8.42,8.42,0,0,1-.07,1.74,11.53,11.53,0,0,0,0,1.44c0,1.21-.06,2.41-.08,3.61s0,2.44,0,3.66a2.09,2.09,0,0,1,0,.56,8.8,8.8,0,0,0-.12,2c0,.86,0,1.71-.07,2.57,0,.57-.05,1.14-.11,1.7a17.47,17.47,0,0,0-.12,4c.09.81.1,1.64.13,2.46,0,.29,0,.58,0,.87s0,.82,0,1.23,0,.59,0,.88a28.14,28.14,0,0,1-.08,3.18,13.66,13.66,0,0,0,.13,2.11c0,.34.11.68.12,1s-.08.54-.09.82c0,.63,0,1.27,0,1.9-.05,1.1-.14,2.2-.21,3.29a16.75,16.75,0,0,0-.07,2.12,1.61,1.61,0,0,1-.84,1.58.23.23,0,0,0,.28.27,1,1,0,0,1,.69.25,1.6,1.6,0,0,0,1.57.17,1.93,1.93,0,0,1,1.51-.07,2,2,0,0,0,1.26.11,2.11,2.11,0,0,1,.36,0c.49,0,1-.1,1.48-.12s1.2,0,1.8,0,1.07,0,1.6.07a13.62,13.62,0,0,1,2.77.22,7.92,7.92,0,0,0,1.69.06c.86,0,1.71-.06,2.56-.07.57,0,1.13,0,1.69,0,.3,0,.59,0,.88,0h2c.41,0,.82-.07,1.23-.06.67,0,1.34,0,2,.07.3,0,.61,0,.92,0a9.19,9.19,0,0,1,2.45.2,2.12,2.12,0,0,0,.67.05,9.92,9.92,0,0,1,1.33,0,10.8,10.8,0,0,0,1.38-.1,14.85,14.85,0,0,1,2.31,0c.93.09,1.86.07,2.79.08.67,0,1.34,0,2,0,.48,0,1,.1,1.44.09.77,0,1.54-.06,2.31-.07.48,0,1,0,1.44.08h.87l2.42,0H64.4a1.45,1.45,0,0,1,.36,0,11.4,11.4,0,0,0,2.61.05c.69,0,1.38,0,2.06.06.51,0,.5.07.54.55C70,49.12,70,49.28,70,49.55Z"/><path class="cls-1" d="M4.4,2.63l0,.08s-.07,0-.07,0a.41.41,0,0,1,0-.08Z"/></svg>