<svg id="I" xmlns="http://www.w3.org/2000/svg" viewBox="0 0 86 112"><defs><style>.cls-1{stroke:#000;stroke-miterlimit:10;}</style></defs><path class="cls-1" d="M35.07,13c-.08-.09-.17-.14-.17-.21,0-.4,0-.79,0-1.19a.81.81,0,0,0,0-.15,4.54,4.54,0,0,1,0-1.8c0-.11,0-.23,0-.34,0-.32,0-.63.08-.95a.55.55,0,0,0,0-.22c-.15-.4-.21-.79.28-1.07a.78.78,0,0,1-.13-1c.05-.09,0-.23,0-.35s.06-.33.08-.48S35,5,35,4.84s.21-.16.34-.26l-.25-.26L35.39,4c-.15-.25-.3-.48-.43-.73s.16-.33.4-.48c-.34,0-.43-.18-.44-.43,0-.53-.07-1.07,0-1.6s.3-.69.83-.71a1.35,1.35,0,0,1,.78.21,1.69,1.69,0,0,0,1.16.28,2.17,2.17,0,0,1,.36,0A5,5,0,0,0,39.35.42a9.06,9.06,0,0,1,1.5-.17c.1,0,.21,0,.3,0a5.54,5.54,0,0,1,2.53,0s.07,0,.1,0A10.48,10.48,0,0,1,46,.29c.58,0,1.16-.09,1.74-.15.36,0,.75.08,1.09-.13A.21.21,0,0,1,49,0c.23.25.66.31.69.74,0,0,0,0,0,0,.52.32.34.89.47,1.35a.69.69,0,0,1,0,.25,11.24,11.24,0,0,0,.06,2.39c.06.5.13,1,.23,1.49a3.62,3.62,0,0,1,0,1.39,6.93,6.93,0,0,0,0,1.11,4,4,0,0,1-.07.58.91.91,0,0,0,0,.23,7.84,7.84,0,0,1,.13,2.05,7,7,0,0,0,.07.79,7,7,0,0,1,0,1,19,19,0,0,0,0,2.92c0,.47,0,.94,0,1.41,0,.71-.1,1.4,0,2.12a21.38,21.38,0,0,1,0,2.27c0,.23,0,.47,0,.7,0,.73,0,1.45,0,2.17a7.58,7.58,0,0,0,0,1.51,6.31,6.31,0,0,1,.08,1.23c0,.7.1,1.4.13,2.11,0,.26-.07.53,0,.79,0,.89.13,1.78.2,2.67a1.1,1.1,0,0,1,0,.25c-.06,1.1.09,2.18.11,3.27,0,.78,0,1.55,0,2.33,0,.48-.1,1-.12,1.43s0,1.15,0,1.72c0,1,.05,2,.09,3.08l.12,3.12a.7.7,0,0,0,0,.25,2.11,2.11,0,0,1,0,1,6.17,6.17,0,0,0,0,1.14c0,.75-.05,1.49,0,2.23s0,1.71,0,2.56c.06.65.12,1.31.17,2,0,.32,0,.64,0,1s0,.81,0,1.21,0,.87,0,1.3c0,1.08.11,2.15.14,3.23,0,.6,0,1.21,0,1.82s0,1.35.08,2c.06,1.23.14,2.46.21,3.69,0,.28,0,.57,0,.86s.07.59.12.89a1.5,1.5,0,0,1,.06.29c0,.78-.08,1.55-.13,2.32s-.11,1.61-.17,2.41a10.77,10.77,0,0,0,.08,2.72,3.64,3.64,0,0,1,0,.66c0,.55,0,1.11,0,1.66a36.84,36.84,0,0,1-.17,3.79c0,1.23-.09,2.46-.13,3.69,0,.51-.05,1,0,1.51s.09,1.24.12,1.86,0,1,0,1.57,0,1.08,0,1.61c0,1,.08,1.92.11,2.88,0,.66,0,1.31.08,2a.7.7,0,0,0,0,.25,6.3,6.3,0,0,1,.11,2c0,.49,0,1,0,1.46a.4.4,0,0,0,0,.2.84.84,0,0,1,0,1c-.12.28-.11.61-.22.88a8.94,8.94,0,0,1-.59,1,.35.35,0,0,1-.22.1l-.76,0c-1.36,0-2.73,0-4.1,0-1,0-2-.08-3-.09-.58,0-1.17.06-1.76.08l-1.67,0c-.05,0-.11,0-.15,0a6.11,6.11,0,0,1-1.81.06,3.88,3.88,0,0,0-.94.17,1.2,1.2,0,0,1-1.63-1.13,8.83,8.83,0,0,1,0-1.36,46.56,46.56,0,0,0,.3-5.66c0-1.06.1-2.12.15-3.19,0-.35,0-.7,0-1.06,0-1.06,0-2.12,0-3.18,0-.61.12-1.22.06-1.81-.12-1.21.1-2.4.07-3.59,0-1.5,0-3-.16-4.5a27.12,27.12,0,0,1,0-3,13.19,13.19,0,0,1,.13-2.26,1.5,1.5,0,0,0,0-.3c0-1-.13-2-.08-3s-.07-1.95-.09-2.93c0-.57,0-1.14.07-1.71,0-.12,0-.24,0-.35,0-.59,0-1.18,0-1.77s-.07-1.11-.09-1.66-.06-1.21-.08-1.82c0-.92-.07-1.85-.1-2.78,0-1.09,0-2.19-.14-3.28a31.22,31.22,0,0,1-.19-3.48c0-.44,0-.88,0-1.32,0-.67,0-1.34,0-2,0-.91.11-1.81.15-2.72s.05-1.65.06-2.48c0-.62,0-1.24,0-1.87,0-1.23-.08-2.46-.1-3.69,0-.67,0-1.34,0-2,0-.37-.07-.74-.06-1.11,0-1.08.07-2.16.09-3.24a12.08,12.08,0,0,0-.12-2.32,3.3,3.3,0,0,1,0-1c0-.24.12-.47,0-.69a.15.15,0,0,1,0-.09,8.72,8.72,0,0,1,.1-1.69c0-.11.09-.25,0-.33a1.79,1.79,0,0,1-.14-1c0-.61,0-1.22,0-1.81a9.46,9.46,0,0,1,0-1.6c.11-.78-.09-1.54,0-2.31a8.71,8.71,0,0,0-.1-1.76,2.07,2.07,0,0,1,.07-.78c.07-.22-.09-.5-.08-.75a3,3,0,0,1,.13-.73,1.87,1.87,0,0,0,0-.94.94.94,0,0,1,0-.5,7.22,7.22,0,0,0,0-2c0-.56,0-1.11-.09-1.67C34.8,13.43,34.79,13.14,35.07,13Zm1-.54a1.47,1.47,0,0,1,.44,1.06c0,.77,0,1.55,0,2.32.11,1.26-.2,2.51,0,3.77,0,.06,0,.12-.06.19-.05.41-.12.83-.13,1.25a6,6,0,0,0,.1.84c0,.35.07.7.11,1,0,.1,0,.2,0,.3,0,.59,0,1.18-.06,1.77a9.2,9.2,0,0,1,0,1.74.46.46,0,0,0,0,.2,6.2,6.2,0,0,1,0,1.61c0,.37,0,.74,0,1.1,0,.11,0,.21,0,.31,0,.68,0,1.37-.07,2.06s.3,1.3.16,2a8.88,8.88,0,0,0,.09,2.05,2.55,2.55,0,0,1,0,.39,14.9,14.9,0,0,0,0,3.27,2.66,2.66,0,0,1,.07.39c-.09.75.07,1.49,0,2.24a4,4,0,0,0,0,.6c0,.39.07.77,0,1.16a3.85,3.85,0,0,0,.13,1.72.68.68,0,0,1,0,.2c0,.37-.06.74-.07,1.1a9.29,9.29,0,0,0,0,1.67,14.16,14.16,0,0,1,0,2.06c0,.49-.07,1-.11,1.46a8.24,8.24,0,0,1-.11.85,2.72,2.72,0,0,0,0,1.1,5.75,5.75,0,0,1,.1,1.16,16.77,16.77,0,0,0,.19,3.68,18.67,18.67,0,0,1,.07,2.11c0,.79,0,1.59,0,2.38a9.78,9.78,0,0,0,.13,1.71,18,18,0,0,1,.15,2.93c0,1,0,2,0,2.92,0,.09,0,.17,0,.26a5.86,5.86,0,0,1,.05,1.45A4.08,4.08,0,0,0,37.2,74c0,.76.15,1.52.12,2.28s-.09,1.71-.07,2.57c0,.67,0,1.35,0,2,0,.47,0,.94,0,1.42,0,.31,0,.63,0,.95,0,.72.09,1.44.13,2.17a9.36,9.36,0,0,0,.1,1.3,6.65,6.65,0,0,1,.1,1.66c0,.56,0,1.12,0,1.67,0,1-.13,1.92-.15,2.88a7.53,7.53,0,0,0,.13,1,3.09,3.09,0,0,1,0,.43c0,.15-.07.3-.08.45,0,1.06-.1,2.12-.12,3.18,0,2.08-.05,4.15-.07,6.23,0,.47,0,.94,0,1.41,0,.66-.06,1.31-.11,2,0,.28.06.4.36.42s.48,0,.71,0a6.53,6.53,0,0,0,1.71,0q1-.11,2-.12c1.35,0,2.7,0,4.05,0,.72,0,1.45,0,2.17,0a10.76,10.76,0,0,0,1.51-.07c.44-.06.48-.12.49-.56,0-.78,0-1.56,0-2.33,0-.3,0-.6,0-.91s-.07-.77-.06-1.15a35.43,35.43,0,0,0-.11-4.25c0-.32-.11-.64-.1-1,0-.84,0-1.68.08-2.52a.65.65,0,0,0,0-.2c0-.25,0-.51,0-.76,0-.6,0-1.21,0-1.82s0-1.17,0-1.76,0-1.11,0-1.66c.06-1.08.19-2.15.22-3.23,0-1.53,0-3.07,0-4.6,0-.81-.15-1.61-.07-2.43.06-.66,0-1.35.06-2a12.83,12.83,0,0,0,.09-2.32C50.06,73,50,71.55,50,70.12c0-.74,0-1.49,0-2.23a5.06,5.06,0,0,0,0-1,15.19,15.19,0,0,1-.11-2.52c0-.74,0-1.48-.08-2.22a9.18,9.18,0,0,1,0-2.22,10.44,10.44,0,0,0,0-2.5c0-.4,0-.8-.06-1.21,0-.23,0-.46,0-.7a15.38,15.38,0,0,1,0-1.92c.12-1.21,0-2.42,0-3.64,0-.28,0-.57,0-.86,0-.75-.11-1.51-.14-2.26,0-1.37-.06-2.73-.08-4.09,0-.24,0-.47,0-.71,0-1,0-2,0-3a13.3,13.3,0,0,0,.06-1.41,13.69,13.69,0,0,0-.13-3,2.23,2.23,0,0,1,0-.45c0-.81,0-1.62-.08-2.43-.08-1.28-.22-2.56-.28-3.84a30,30,0,0,1,0-4.24A15.66,15.66,0,0,0,49,22c0-.93-.11-1.85-.15-2.78,0-.38.07-.76.08-1.15,0-.65,0-1.31,0-2s0-1.05,0-1.57c0-.33,0-.66.06-1s0-.56,0-.85.07-.87.06-1.3a10,10,0,0,1,.13-2.56,2.69,2.69,0,0,0,0-.85c0-.35-.12-.69-.16-1,0-.18,0-.36,0-.55s-.1-.34,0-.48.22-.26.37-.42c-.2,0-.47.06-.5-.23a9.69,9.69,0,0,1-.09-1.2c0-.19,0-.36-.05-.53a3.64,3.64,0,0,1,.05-1c0-.11.18-.21.36-.41,0,.55.07.92.57,1,.07-.32.15-.62.21-.93s-.15-.33-.37-.29a3.53,3.53,0,0,1-2.12-.36c-.09.06-.19.17-.28.17-.41,0-.82,0-1.24,0s-.8,0-1.2,0c-.57,0-1.14.06-1.71,0a19.62,19.62,0,0,0-3.34.06c-.45.06-1,.26-1.37-.16-.45.34-.44.34-1.1.26a2.62,2.62,0,0,0-.56,0,.39.39,0,0,0-.14,0l-.15.39-.36,0a3.6,3.6,0,0,0-.36,0,2.25,2.25,0,0,1,.14.59.3.3,0,0,1-.38.29c.11.22.21.42.32.62,0,0,.12.07.22.12l-.11-.39c.22-.07.35,0,.41.17a3.07,3.07,0,0,1,.15.46,3.4,3.4,0,0,1,0,.9c0,.11-.28.17-.47.28v.48l.26,0c.05.42.09.81.14,1.2,0,.21.07.41.12.68a.61.61,0,0,0-.12.66,1,1,0,0,1,0,.78.57.57,0,0,0,0,.51c.15.32,0,.52-.36.61l-.15.06c0,.06,0,.08,0,.09a.75.75,0,0,0,.12.07c.43.1.58.29.41.7a1.4,1.4,0,0,0-.07.83C36.29,12.16,36.29,12.33,36,12.42ZM49.39,4.27c.37-.14.31-.46.42-.73l-.38-.15C49.3,3.69,49.17,3.94,49.39,4.27ZM35.7.56,35.56.51c-.15.12-.25.25-.08.56ZM36,6.36c-.1-.05-.15-.1-.18-.09a.33.33,0,0,0-.13.13s.06.09.08.09A1.67,1.67,0,0,0,36,6.36Zm-.79,2.55.07.11.22-.14-.07-.11A1.64,1.64,0,0,0,35.19,8.91ZM36,9a.53.53,0,0,0-.2-.07s-.05.06-.07.09.08.07.12.07S35.93,9,36,9Zm-.27-.41.12-.13s-.08-.08-.1-.07-.09.06-.14.1Zm.09,4.36-.1.11s0,.06.06.06a.35.35,0,0,0,.11,0Zm-.34,2.22a.43.43,0,0,0,.09-.1l0-.06-.11.09ZM49.8,6.52l0-.09-.15.06s0,.08,0,.08Zm-14,.58L35.75,7a.27.27,0,0,0-.1.08s0,.07.05.07A.6.6,0,0,0,35.81,7.1Zm-.72.64-.05.1.23,0Z"/><path class="cls-1" d="M36,12.42c.27-.09.27-.26.24-.46a1.4,1.4,0,0,1,.07-.83c.17-.41,0-.6-.41-.7a.75.75,0,0,1-.12-.07s0,0,0-.09l.15-.06c.37-.09.51-.29.36-.61a.57.57,0,0,1,0-.51,1,1,0,0,0,0-.78.61.61,0,0,1,.12-.66c-.05-.27-.09-.47-.12-.68,0-.39-.09-.78-.14-1.2l-.26,0V5.33c.19-.11.45-.17.47-.28a3.4,3.4,0,0,0,0-.9,3.07,3.07,0,0,0-.15-.46c-.06-.2-.19-.24-.41-.17l.11.39c-.1-.05-.19-.07-.22-.12-.11-.2-.21-.4-.32-.62a.3.3,0,0,0,.38-.29,2.25,2.25,0,0,0-.14-.59,3.6,3.6,0,0,1,.36,0l.36,0,.15-.39a.39.39,0,0,1,.14,0,2.62,2.62,0,0,1,.56,0c.66.08.65.08,1.1-.26.4.42.92.22,1.37.16A19.62,19.62,0,0,1,43,1.69c.57,0,1.14,0,1.71,0,.4,0,.8,0,1.2,0s.83,0,1.24,0c.09,0,.19-.11.28-.17a3.53,3.53,0,0,0,2.12.36c.22,0,.4.11.37.29s-.14.61-.21.93c-.5-.09-.58-.46-.57-1-.18.2-.34.3-.36.41a3.64,3.64,0,0,0-.05,1c0,.17,0,.34.05.53a9.69,9.69,0,0,0,.09,1.2c0,.29.3.19.5.23-.15.16-.32.27-.37.42s0,.32,0,.48,0,.37,0,.55c0,.35.13.69.16,1a2.69,2.69,0,0,1,0,.85,10,10,0,0,0-.13,2.56c0,.43,0,.87-.06,1.3s0,.57,0,.85-.06.67-.06,1c0,.52,0,1,0,1.57s0,1.31,0,2c0,.39-.09.77-.08,1.15,0,.93.13,1.85.15,2.78a15.66,15.66,0,0,1-.13,1.66,30,30,0,0,0,0,4.24c.06,1.28.2,2.56.28,3.84,0,.81.06,1.62.08,2.43a2.23,2.23,0,0,0,0,.45,13.69,13.69,0,0,1,.13,3,13.3,13.3,0,0,1-.06,1.41c0,1,0,2,0,3,0,.24,0,.47,0,.71,0,1.36,0,2.72.08,4.09,0,.75.1,1.51.14,2.26,0,.29,0,.58,0,.86,0,1.22.1,2.43,0,3.64a15.38,15.38,0,0,0,0,1.92c0,.24,0,.47,0,.7,0,.41,0,.81.06,1.21a10.44,10.44,0,0,1,0,2.5,9.18,9.18,0,0,0,0,2.22c.08.74.06,1.48.08,2.22A15.19,15.19,0,0,0,50,66.94a5.06,5.06,0,0,1,0,1c0,.74,0,1.49,0,2.23,0,1.43.08,2.86.16,4.29a12.83,12.83,0,0,1-.09,2.32c-.08.66,0,1.35-.06,2-.08.82.07,1.62.07,2.43,0,1.53,0,3.07,0,4.6,0,1.08-.16,2.15-.22,3.23,0,.55,0,1.1,0,1.66s0,1.17,0,1.76,0,1.22,0,1.82c0,.25,0,.51,0,.76a.65.65,0,0,1,0,.2c0,.84-.07,1.68-.08,2.52,0,.31.08.63.1,1a35.43,35.43,0,0,1,.11,4.25c0,.38,0,.77.06,1.15s0,.61,0,.91c0,.77,0,1.55,0,2.33,0,.44,0,.5-.49.56a10.76,10.76,0,0,1-1.51.07c-.72,0-1.45,0-2.17,0-1.35,0-2.7,0-4.05,0q-1,0-2,.12a6.53,6.53,0,0,1-1.71,0c-.23,0-.47,0-.71,0s-.38-.14-.36-.42c0-.66.09-1.31.11-2,0-.47,0-.94,0-1.41,0-2.08,0-4.15.07-6.23,0-1.06.08-2.12.12-3.18,0-.15.07-.3.08-.45a3.09,3.09,0,0,0,0-.43,7.53,7.53,0,0,1-.13-1c0-1,.11-1.92.15-2.88,0-.55,0-1.11,0-1.67a6.65,6.65,0,0,0-.1-1.66,9.36,9.36,0,0,1-.1-1.3c0-.73-.09-1.45-.13-2.17,0-.32,0-.64,0-.95,0-.48,0-1,0-1.42,0-.67,0-1.35,0-2,0-.86,0-1.72.07-2.57s-.09-1.52-.12-2.28a4.08,4.08,0,0,1,.08-1.1,5.86,5.86,0,0,0-.05-1.45c0-.09,0-.17,0-.26,0-1,0-2,0-2.92a18,18,0,0,0-.15-2.93,9.78,9.78,0,0,1-.13-1.71c0-.79,0-1.59,0-2.38a18.67,18.67,0,0,0-.07-2.11,16.77,16.77,0,0,1-.19-3.68,5.75,5.75,0,0,0-.1-1.16,2.72,2.72,0,0,1,0-1.1,8.24,8.24,0,0,0,.11-.85c0-.49.1-1,.11-1.46a14.16,14.16,0,0,0,0-2.06,9.29,9.29,0,0,1,0-1.67c0-.36,0-.73.07-1.1a.68.68,0,0,0,0-.2,3.85,3.85,0,0,1-.13-1.72c0-.39,0-.77,0-1.16a4,4,0,0,1,0-.6c.1-.75-.06-1.49,0-2.24a2.66,2.66,0,0,0-.07-.39,14.9,14.9,0,0,1,0-3.27,2.55,2.55,0,0,0,0-.39A8.88,8.88,0,0,1,36.57,34c.14-.72-.21-1.34-.16-2s.05-1.38.07-2.06c0-.1,0-.2,0-.31,0-.36,0-.73,0-1.1a6.2,6.2,0,0,0,0-1.61.46.46,0,0,1,0-.2,9.2,9.2,0,0,0,0-1.74c0-.59,0-1.18.06-1.77,0-.1,0-.2,0-.3,0-.35-.07-.7-.11-1a6,6,0,0,1-.1-.84c0-.42.08-.84.13-1.25,0-.07.07-.13.06-.19-.18-1.26.13-2.51,0-3.77-.06-.77,0-1.55,0-2.32A1.47,1.47,0,0,0,36,12.42Zm-.1-9.15c.32,0,.32,0,.3-.26Z"/><path class="cls-1" d="M49.39,4.27c-.22-.33-.09-.58,0-.88l.38.15C49.7,3.81,49.76,4.13,49.39,4.27Z"/><path class="cls-1" d="M35.7.56l-.22.51c-.17-.31-.07-.44.08-.56Z"/><path class="cls-1" d="M36,6.36a1.67,1.67,0,0,1-.23.13s-.09-.08-.08-.09a.33.33,0,0,1,.13-.13S35.88,6.31,36,6.36Z"/><path class="cls-1" d="M35.19,8.91a1.64,1.64,0,0,1,.22-.14l.07.11L35.26,9Z"/><path class="cls-1" d="M36,9c-.08,0-.11.09-.15.09s-.08,0-.12-.07,0-.1.07-.09A.53.53,0,0,1,36,9Z"/><path class="cls-1" d="M35.74,8.58l-.12-.1c.05,0,.09-.09.14-.1s.06,0,.1.07Z"/><path class="cls-1" d="M35.83,12.94l.07.14a.35.35,0,0,1-.11,0s-.06,0-.06-.06Z"/><path class="cls-1" d="M35.49,15.16l-.07-.07.11-.09,0,.06A.43.43,0,0,1,35.49,15.16Z"/><path class="cls-1" d="M49.8,6.52l-.16.05s0-.05,0-.08l.15-.06Z"/><path class="cls-1" d="M35.81,7.1a.6.6,0,0,1-.11.06s-.06-.07-.05-.07a.27.27,0,0,1,.1-.08Z"/><path class="cls-1" d="M35.09,7.74l.18.15-.23,0Z"/><path class="cls-1" d="M35.92,3.27l.3-.26C36.24,3.25,36.24,3.25,35.92,3.27Z"/></svg>