<svg id="J" xmlns="http://www.w3.org/2000/svg" viewBox="0 0 86 112"><defs><style>.cls-1{stroke:#000;stroke-miterlimit:10;}</style></defs><path class="cls-1" d="M78,80.37a8.76,8.76,0,0,0-.32,1.11,9.25,9.25,0,0,1-.62,1.69c0,.06-.08.12-.08.17.09.69-.47,1.18-.53,1.84,0,.34-.34.65-.53,1-.07.13-.2.23-.24.36a25.55,25.55,0,0,1-1.57,3.35,9.82,9.82,0,0,1-.78,1.23,18.4,18.4,0,0,0-1.79,2.85,6.88,6.88,0,0,1-1.26,1.71c-.27.28-.5.6-.75.9a1.39,1.39,0,0,1-.23.25,10.74,10.74,0,0,0-1.43,1.51,4.1,4.1,0,0,0-.35.47,7.28,7.28,0,0,1-1.46,1.42,9.42,9.42,0,0,0-.9.89,8.27,8.27,0,0,1-.74.54,3.47,3.47,0,0,0-.29.25,5.3,5.3,0,0,1-.57.59c-.88.61-1.81,1.17-2.67,1.81a14.49,14.49,0,0,1-2,1.13l-1.74,1a.44.44,0,0,1-.19.07c-.61.14-1.24.27-1.85.43s-1,.32-1.53.49l-.23.07-1.45.39-1.61.41-2.16.55a2.25,2.25,0,0,1-.62.11,5.11,5.11,0,0,0-1.86.34,2.21,2.21,0,0,1-.62.09,17.57,17.57,0,0,0-3.39.35,5.66,5.66,0,0,1-.92,0,12.68,12.68,0,0,0-2.82-.14,1.16,1.16,0,0,1-.49,0c-.73-.16-1.48-.15-2.21-.37s-1.63-.34-2.44-.51a1.44,1.44,0,0,1-.42-.11,1.27,1.27,0,0,0-.78-.24c-.08,0-.18-.07-.27-.1l-1-.32a2.37,2.37,0,0,1-.55-.18,10.31,10.31,0,0,0-3.29-1.06c-.11,0-.23,0-.34,0s-.37-.08-.42-.19a2.23,2.23,0,0,0-.84-.72c-.41-.29-.84-.56-1.25-.84a14.93,14.93,0,0,1-1.34-.9,8.49,8.49,0,0,0-2.05-1.22,2.94,2.94,0,0,1-.47-.34,16.81,16.81,0,0,1-2.21-1.92c-.34-.37-.72-.7-1.08-1.06-.54-.52-1.06-1-1.6-1.58l-.4-.36a1.78,1.78,0,0,1-.26-.22c-.7-.88-1.46-1.73-2.08-2.69-.42-.66-.85-1.31-1.31-1.94-.32-.45-.71-.85-1-1.29s-.37-.61-.56-.91a2.38,2.38,0,0,0-.2-.39,7.2,7.2,0,0,1-1.25-2.14,29.92,29.92,0,0,1-1.64-5.31c-.24-1.07-.53-2.12-.79-3.18a.63.63,0,0,1,0-.19,32.1,32.1,0,0,0-.59-3.37,19.47,19.47,0,0,1-.36-2.76,2.15,2.15,0,0,1,.48-1.36,1,1,0,0,1,.49-.28A4.05,4.05,0,0,1,6,71.32c1-.11,1.91-.27,2.86-.3,1.36,0,2.71.06,4.06,0a38.6,38.6,0,0,0,4.3-.12,1.93,1.93,0,0,1,.48,0c.34,0,.68.07,1,.1a.84.84,0,0,1,.81.6,12,12,0,0,1,.57,2.77,5,5,0,0,0,.46,1.73,4.83,4.83,0,0,1,.3,1.13,5.05,5.05,0,0,0,.45,1.43A15.28,15.28,0,0,1,22,80.53a32,32,0,0,0,1.61,3.71,2.85,2.85,0,0,0,.26.41,5.11,5.11,0,0,1,.48.73c.41.63.9,1.22,1.36,1.83.06.08.19.12.21.2.06.39.38.54.63.77a1.82,1.82,0,0,1,.31.31,2.58,2.58,0,0,0,.88.76,1.37,1.37,0,0,1,.49.31,8.91,8.91,0,0,0,1.7,1.3c.19.15.47.19.64.35a9.27,9.27,0,0,0,2,1.28,1,1,0,0,0,.32.13,20.84,20.84,0,0,1,2,.68,9.06,9.06,0,0,0,1.25.21c.52.08,1,.14,1.56.19l2,.14a2.12,2.12,0,0,1,.44,0,6.34,6.34,0,0,0,3,0,2.51,2.51,0,0,0,.46-.16,5.47,5.47,0,0,1,2-.36A5.44,5.44,0,0,0,47.32,93c.63-.17,1.24-.38,1.86-.6a3.7,3.7,0,0,0,1.1-.71,11.43,11.43,0,0,1,1.38-1c.46-.28,1-.51,1.43-.75a3.93,3.93,0,0,0,1.65-1.68,3.46,3.46,0,0,1,.49-.65c.47-.5.89-1,1.35-1.54.26-.29.56-.54.85-.81.07-.06.17-.1.24-.17a13.31,13.31,0,0,0,1.9-2.27c0-.05,0-.09.07-.13q1-2.05,1.94-4.11a3.46,3.46,0,0,0,.29-.93,9.49,9.49,0,0,1,.7-2.17,14.84,14.84,0,0,0,.89-3.45A16.45,16.45,0,0,1,64,69.3c.3-1,.22-1.94.48-2.88s0-1.81.19-2.7a20,20,0,0,0,.26-2c.07-.78.15-1.56.19-2.34s.06-1.52.08-2.29.08-1.82.1-2.73,0-1.79,0-2.69.06-2,.08-3c0-.56,0-1.11,0-1.66,0-.82,0-1.63,0-2.44,0-1,0-2,0-3,0-.53,0-1.05,0-1.57,0-.71,0-1.42-.08-2.14a26,26,0,0,1-.08-3.75c.05-1,0-1.91,0-2.87,0-.78-.15-1.56-.19-2.33,0-.46.06-.91.06-1.37,0-.73,0-1.46,0-2.18s0-1.2.07-1.8,0-1,0-1.55,0-1.14,0-1.71c0-1-.11-2-.13-3,0-.41.06-.81.08-1.22s0-1.06,0-1.6c0-.86,0-1.72,0-2.58,0-.52,0-1,0-1.56s0-1.33,0-2c0-.14-.07-.28-.07-.42,0-.42,0-.84,0-1.26,0-.85,0-1.69,0-2.54s0-1.68,0-2.53A5.09,5.09,0,0,0,65,.82c-.06-.46.08-.66.53-.76a.76.76,0,0,0,.56-.34c.06-.09.16-.2.23-.2s.15.18.15.31a.88.88,0,0,0,.05.19,11.74,11.74,0,0,0,1.57.14c.8,0,1.58-.18,2.38-.25s1.87-.15,2.81-.18a4.32,4.32,0,0,0,1-.1,5.22,5.22,0,0,1,1.25-.15c.58,0,1.17,0,1.76.05A6.77,6.77,0,0,1,78-.3l.33-.43c.24.29.44.41.75.14s.39,0,.58.11.41.28.71.48c0,.47,0,1.05,0,1.63a6.84,6.84,0,0,0,0,1.2,2.37,2.37,0,0,1-.24,1,1.53,1.53,0,0,0,0,.52c0,.46.26,1-.09,1.4A.2.2,0,0,0,80,6a.68.68,0,0,1,.3.67,14.47,14.47,0,0,0,.08,2.55c0,.08,0,.18,0,.23-.18.21-.16.39.06.52-.14.39-.68.11-.8.61l.59-.2s.1.09.1.14c0,.54,0,1.07,0,1.6a2.54,2.54,0,0,1,0,.39c0,.27,0,.55,0,.82a2.81,2.81,0,0,0,.13,1.81.18.18,0,0,1,0,.1c-.12.93.26,1.83.16,2.76-.06.46-.09.93-.13,1.39s-.11.94-.12,1.41a4.24,4.24,0,0,1-.26,1.77.15.15,0,0,0,0,.09,10.12,10.12,0,0,1,.07,2.46,2.67,2.67,0,0,1-.23,1.63A1.88,1.88,0,0,1,80,27.8c-.05.5,0,1,0,1.51,0,.79-.07,1.59-.11,2.38A1.35,1.35,0,0,0,80,32a8.08,8.08,0,0,1,.11,2.14,6.91,6.91,0,0,0,.1,1c.07.83.14,1.65.2,2.48a6,6,0,0,0,.07,1.21,6.44,6.44,0,0,1,.06,1.58c0,.68,0,1.36,0,2,0,.31-.06.61-.06.92,0,.55.06,1.1.08,1.66a7.46,7.46,0,0,1,0,1.16,17.79,17.79,0,0,0,0,2.53,5.8,5.8,0,0,0,0,.59,1,1,0,0,0,.13.49.77.77,0,0,1,.16.73A6.25,6.25,0,0,0,80.75,53a6.59,6.59,0,0,1,0,1.17q0,.51,0,1c0,.34,0,.68,0,1,0,.16,0,.32,0,.48a1.3,1.3,0,0,1,0,.34,11.2,11.2,0,0,0-.06,3.06,13.52,13.52,0,0,1-.09,1.41,5.79,5.79,0,0,0,0,.72.65.65,0,0,1,0,.19,17.09,17.09,0,0,1-.26,2.86.62.62,0,0,0,0,.38,1.2,1.2,0,0,1-.05,1A3.17,3.17,0,0,0,80.11,68c0,.26-.07.51-.09.77a4.64,4.64,0,0,0,0,.53,8.7,8.7,0,0,1,0,1,5.14,5.14,0,0,1-.23.83c0,.06,0,.13,0,.19a2.42,2.42,0,0,1-.19,1.28,7.67,7.67,0,0,0-.17,2.08.55.55,0,0,1-.08.31,1.36,1.36,0,0,0-.23.83c0,.31,0,.62-.06.93a3.81,3.81,0,0,0,.24,1.53.42.42,0,0,1-.14.56.76.76,0,0,0-.27.5c0,.22-.14.43-.2.65C78.54,80.53,78.51,80.55,78,80.37Zm1.28-65.11a2.86,2.86,0,0,1-.38-1.67,3.15,3.15,0,0,0,0-.92,6.74,6.74,0,0,1,0-1.85,14,14,0,0,0-.07-2.59L79,8.11C79,8.05,78.86,8,78.85,8c-.07-.43-.14-.86-.17-1.29s0-.93,0-1.4c0-.32-.07-.64-.06-1s.05-.71.08-1.07c0-.57.07-1.15.16-1.73,0-.38-.1-.64-.46-.53a6.31,6.31,0,0,1-1.79.07,7,7,0,0,0-1.45.05,6.3,6.3,0,0,1-1.29.2c-.39,0-.77.05-1.16.08l-1,.09a1.4,1.4,0,0,0-.29,0,19.58,19.58,0,0,1-3.59.34,7.62,7.62,0,0,0-1,.14c-.18.68.09,1.38-.28,2,.06.09.16.18.17.28a4.19,4.19,0,0,1,0,2.11.72.72,0,0,0,0,.56,1.25,1.25,0,0,1,0,.39c0,.32,0,.65,0,1,0,.7,0,1.39,0,2.09,0,.22-.07.43-.09.66a7.59,7.59,0,0,1,0,2,2.25,2.25,0,0,0,0,.58c0,.27.14.5.11.78,0,.65-.1,1.31-.11,2s0,1.42,0,2.13c0,.33,0,.65,0,1,0,.79.12,1.59.15,2.38,0,1,0,2,0,3,0,.57-.05,1.13,0,1.7s.1,1.12.14,1.68a.93.93,0,0,1,0,.23c0,.08-.1.17-.1.25,0,.85,0,1.69,0,2.54,0,1.18.26,2.35.16,3.54-.07.81,0,1.63,0,2.44a2.64,2.64,0,0,0,0,.29c.06,1.06.15,2.12.19,3.18s0,2.18,0,3.27c0,.8,0,1.59.07,2.39,0,.21,0,.42,0,.63,0,.45,0,.9,0,1.35,0,.69-.07,1.37-.05,2a21.36,21.36,0,0,1,0,2.53c0,.65,0,1.31,0,2,0,.86.07,1.73,0,2.59s-.15,1.6-.17,2.42c0,1.34-.21,2.68-.33,4a1.34,1.34,0,0,1-.07.18,4.42,4.42,0,0,0-.13.61c-.08.93-.15,1.85-.22,2.77a5.47,5.47,0,0,1,0,.82c-.16.7-.35,1.39-.52,2.08-.08.31-.13.63-.18.95a5.75,5.75,0,0,1-.12.86c-.23.65-.08,1.33-.35,2-.35.87-.55,1.79-.88,2.68s-.49,1.71-.73,2.57a.94.94,0,0,1-.06.24c-.26.48-.53,1-.79,1.45s-.63,1.18-.92,1.78A9.31,9.31,0,0,1,60,85.55a.24.24,0,0,0-.06.08,2.71,2.71,0,0,1-1,1.12,5.12,5.12,0,0,0-1.23,1.31,11.24,11.24,0,0,1-.86,1.1c-.37.41-.79.77-1.15,1.19a6.15,6.15,0,0,1-2.35,1.78,1.07,1.07,0,0,0-.46.35,4.31,4.31,0,0,1-1.54,1.1c-.1,0-.24.07-.3.15a3.3,3.3,0,0,1-1.49.81c-.12,0-.24.09-.37.12s-.48.09-.71.16c-.42.13-.82.31-1.25.4s-1.12.17-1.69.24a8.6,8.6,0,0,0-2.24.47,2.61,2.61,0,0,1-1.33.15C41.54,96,41.1,96,40.66,96l-1-.06a1.66,1.66,0,0,0-.44,0,2.39,2.39,0,0,1-1,0c-.36-.07-.71-.1-1.07-.15-.63-.07-1.27-.09-1.88-.22A24.17,24.17,0,0,1,33,94.83a9.22,9.22,0,0,1-1.13-.46c-.44-.21-.87-.44-1.3-.67a8.08,8.08,0,0,1-2-1.38,4.56,4.56,0,0,0-.72-.49l-.66-.49c-.13-.1-.23-.24-.36-.33a14,14,0,0,1-2.68-2.48c-.3-.34-.61-.67-.89-1a13.88,13.88,0,0,1-1.8-3l-.81-2c-.17-.42-.33-.85-.5-1.27a5.35,5.35,0,0,1-.56-1.6,2.33,2.33,0,0,0-.13-.52c-.31-1.13-.63-2.26-.93-3.39a5.65,5.65,0,0,1-.34-1.91.5.5,0,0,0-.2-.41,11.19,11.19,0,0,0-1.2-.49.76.76,0,0,0-.3,0c-.4,0-.81,0-1.22,0-.89,0-1.79-.07-2.68-.07-1.26,0-2.51.06-3.76.1a4.06,4.06,0,0,0-1.72.33.88.88,0,0,1-.28.06c-.49.07-.54.12-.54.63a11.06,11.06,0,0,0,.39,2.69A8.64,8.64,0,0,1,7,78.07a18.27,18.27,0,0,0,.65,2.84c.16.73.46,1.43.6,2.16A23.41,23.41,0,0,0,9,85.94a5.3,5.3,0,0,0,1.15,2.17.41.41,0,0,1,.1.21,1.26,1.26,0,0,0,.38.77,2.64,2.64,0,0,1,.27.46,3.48,3.48,0,0,0,.22.43c.48.68,1,1.35,1.46,2s1.14,1.62,1.76,2.39,1.14,1.38,1.74,2,1.48,1.52,2.23,2.27a2.31,2.31,0,0,0,.23.18c.19.17.38.35.58.51a9,9,0,0,0,1.7,1.37,10,10,0,0,1,1.12.7c.61.41,1.18.87,1.81,1.24a16.24,16.24,0,0,0,2.64,1.48c1,.36,2,.77,3,1.16l.18.08a12.88,12.88,0,0,0,2.62.9c.31.1.63.17.94.27a3.77,3.77,0,0,0,1.82.27.92.92,0,0,1,.52.08,6.73,6.73,0,0,0,2.78.35,9.33,9.33,0,0,1,1.4.11,2.91,2.91,0,0,0,1.06,0,5.58,5.58,0,0,1,1.21-.16,25.43,25.43,0,0,0,3.6-.26c.68-.07,1.35-.22,2-.35.42-.08.83-.17,1.24-.27s1.07-.29,1.61-.4c1-.22,2.11-.41,3.16-.62l.18-.06,1.16-.39a9.49,9.49,0,0,0,2.57-1,.61.61,0,0,1,.14-.07,16.7,16.7,0,0,0,2.54-1.43c.16-.11.34-.19.51-.29a10.81,10.81,0,0,0,2.23-1.57,9.86,9.86,0,0,1,.76-.69c.43-.37.87-.73,1.3-1.11l.92-.86a4,4,0,0,0,.83-.88,7.93,7.93,0,0,1,.63-.86l.76-1a1.37,1.37,0,0,1,.16-.18c.45-.36.7-.88,1.12-1.27a5.49,5.49,0,0,0,.87-1.35c.13-.22.16-.49.29-.72.26-.43.54-.85.82-1.27a14.64,14.64,0,0,0,1.26-1.91c.49-1,1-2,1.45-3a16.51,16.51,0,0,0,1.23-3.17.32.32,0,0,1,0-.09c.21-.6.44-1.18.62-1.79.3-1,.61-1.92.85-2.9s.39-2,.56-2.92.32-1.87.47-2.8c.1-.59.21-1.18.31-1.78s.22-1.28.27-1.93,0-1.17,0-1.75c0-.34.09-.67.11-1,0-.72.07-1.44.11-2.15.07-1.25.14-2.51.11-3.76,0-.83,0-1.66,0-2.49,0-.34-.1-.67-.14-1a2.49,2.49,0,0,1-.07-.53c.07-.68.16-1.36.23-2,0-.37.09-.75.1-1.12,0-.8,0-1.59,0-2.38,0-2,0-4,.05-6,0-.56-.05-1.13-.06-1.7,0-.94,0-1.89,0-2.83s-.15-1.72-.13-2.58-.14-2,0-3a.41.41,0,0,0,0-.19,2.92,2.92,0,0,1-.11-1.21c0-.27,0-.55,0-.83,0-1.23,0-2.47-.07-3.7a5.93,5.93,0,0,1,0-.73A6.08,6.08,0,0,1,78.6,25a1.21,1.21,0,0,0,0-.43c0-.4,0-.81,0-1.21s0-.55.06-.82,0-.36,0-.59l.24.17.09-.07a4.59,4.59,0,0,1-.26-.49c-.05-.12-.14-.3-.09-.39a1.71,1.71,0,0,0,.14-1,.27.27,0,0,1,.28-.33l.43-.06-.66-.36A1.64,1.64,0,0,0,79,18.26a4.69,4.69,0,0,1,0-.92c0-.43,0-.87,0-1.31,0-.13,0-.26,0-.38.34,0,.51.43.84.17-.11-.24-.11-.26,0-.42-.25-.3-.25-.3-.63-.12Zm-.69,63.53-.09,0c-.11.23-.25.47-.34.71s0,.36.25.35ZM77.48.14l0,.11.73.35.37-.24Zm2.33,2.08-.08-.12-.44,0c0,.24.1.36.25.34S79.72,2.31,79.81,2.22Zm-.6,2.3c.42-.19.44-.25.18-.56C79.14,4.07,79.27,4.29,79.21,4.52Zm.54,5.3c-.08-.08-.14-.19-.17-.18a1.11,1.11,0,0,0-.24.16s.1.14.14.14S79.63,9.88,79.75,9.82Zm.14-1.24-.12-.49-.41.13Zm-.37,2.83a1.59,1.59,0,0,0-.17.24s.08.14.09.13a.41.41,0,0,0,.2-.14S79.58,11.53,79.52,11.41Zm-.29,6.73,0,.09.34.08v-.06Zm.25,1.26.06,0-.17-.21-.06.06ZM79.39,7l-.08.09.21.12,0-.07ZM80,47.9c-.07,0-.11-.08-.14-.08s0,.06-.08.09.07.06.11.06S80,47.94,80,47.9Zm-.45-23.61-.07,0-.07.22.07,0ZM79.86,20,79.8,20s0,0,0,.05,0,.06,0,.06S79.84,20.06,79.86,20Zm-.45,6.76.08,0s0-.06,0-.06,0,0-.08,0Zm0-9.81s0,0,0,.06,0,0,0,.05l.06-.08ZM80,12.9c0-.05.09-.08.09-.12s0-.06-.08-.09-.09.05-.09.09S80,12.85,80,12.9Z"/><path class="cls-1" d="M24.8,106.26c-.17.08-.25.14-.33.14s-.27-.06-.24-.22.14-.16.2-.14A1.29,1.29,0,0,1,24.8,106.26Z"/><path class="cls-1" d="M66.77,105.52c0-.1-.1-.16-.1-.21s.07-.09.11-.13.1.09.1.14S66.83,105.42,66.77,105.52Z"/><path class="cls-1" d="M79.26,15.28c.38-.18.38-.18.63.12-.14.16-.14.18,0,.42-.33.26-.5-.18-.84-.17,0,.12,0,.25,0,.38,0,.44,0,.88,0,1.31a4.69,4.69,0,0,0,0,.92,1.64,1.64,0,0,1-.11,1.18l.66.36-.43.06a.27.27,0,0,0-.28.33,1.71,1.71,0,0,1-.14,1c0,.09,0,.27.09.39a4.59,4.59,0,0,0,.26.49l-.09.07L78.72,22c0,.23,0,.41,0,.59s0,.54-.06.82,0,.81,0,1.21a1.21,1.21,0,0,1,0,.43,6.08,6.08,0,0,0-.19,2.08,5.93,5.93,0,0,0,0,.73c0,1.23,0,2.47.07,3.7,0,.28,0,.56,0,.83a2.92,2.92,0,0,0,.11,1.21.41.41,0,0,1,0,.19c-.1,1,.06,2,0,3s.1,1.72.13,2.58,0,1.89,0,2.83c0,.57.06,1.14.06,1.7,0,2,0,4-.05,6,0,.79,0,1.58,0,2.38,0,.37-.06.75-.1,1.12-.07.68-.16,1.36-.23,2a2.49,2.49,0,0,0,.07.53c0,.33.13.66.14,1,0,.83,0,1.66,0,2.49,0,1.25,0,2.51-.11,3.76,0,.71-.07,1.43-.11,2.15,0,.34-.1.67-.11,1,0,.58,0,1.17,0,1.75s-.17,1.29-.27,1.93-.21,1.19-.31,1.78c-.15.93-.3,1.87-.47,2.8s-.33,2-.56,2.92-.55,1.94-.85,2.9c-.18.61-.41,1.19-.62,1.79a.32.32,0,0,0,0,.09,16.51,16.51,0,0,1-1.23,3.17c-.4,1-1,2-1.45,3a14.64,14.64,0,0,1-1.26,1.91c-.28.42-.56.84-.82,1.27-.13.23-.16.5-.29.72a5.49,5.49,0,0,1-.87,1.35c-.42.39-.67.91-1.12,1.27a1.37,1.37,0,0,0-.16.18l-.76,1a7.93,7.93,0,0,0-.63.86,4,4,0,0,1-.83.88l-.92.86c-.43.38-.87.74-1.3,1.11a9.86,9.86,0,0,0-.76.69,10.81,10.81,0,0,1-2.23,1.57c-.17.1-.35.18-.51.29a16.7,16.7,0,0,1-2.54,1.43.61.61,0,0,0-.14.07,9.49,9.49,0,0,1-2.57,1l-1.16.39-.18.06c-1.05.21-2.11.4-3.16.62-.54.11-1.07.27-1.61.4s-.82.19-1.24.27c-.67.13-1.34.28-2,.35a25.43,25.43,0,0,1-3.6.26,5.58,5.58,0,0,0-1.21.16,2.91,2.91,0,0,1-1.06,0,9.33,9.33,0,0,0-1.4-.11,6.73,6.73,0,0,1-2.78-.35.92.92,0,0,0-.52-.08,3.77,3.77,0,0,1-1.82-.27c-.31-.1-.63-.17-.94-.27a12.88,12.88,0,0,1-2.62-.9l-.18-.08c-1-.39-2-.8-3-1.16a16.24,16.24,0,0,1-2.64-1.48c-.63-.37-1.2-.83-1.81-1.24a10,10,0,0,0-1.12-.7,9,9,0,0,1-1.7-1.37c-.2-.16-.39-.34-.58-.51a2.31,2.31,0,0,1-.23-.18c-.75-.75-1.51-1.49-2.23-2.27s-1.19-1.33-1.74-2S13.2,92.8,12.62,92s-1-1.34-1.46-2a3.48,3.48,0,0,1-.22-.43,2.64,2.64,0,0,0-.27-.46,1.26,1.26,0,0,1-.38-.77.41.41,0,0,0-.1-.21A5.3,5.3,0,0,1,9,85.94a23.41,23.41,0,0,1-.79-2.87c-.14-.73-.44-1.43-.6-2.16A18.27,18.27,0,0,1,7,78.07a8.64,8.64,0,0,0-.33-1.38A11.06,11.06,0,0,1,6.28,74c0-.51,0-.56.54-.63a.88.88,0,0,0,.28-.06A4.06,4.06,0,0,1,8.82,73c1.25,0,2.5-.09,3.76-.1.89,0,1.79.06,2.68.07.41,0,.82,0,1.22,0a.76.76,0,0,1,.3,0,11.19,11.19,0,0,1,1.2.49.5.5,0,0,1,.2.41,5.65,5.65,0,0,0,.34,1.91c.3,1.13.62,2.26.93,3.39a2.33,2.33,0,0,1,.13.52,5.35,5.35,0,0,0,.56,1.6c.17.42.33.85.5,1.27l.81,2a13.88,13.88,0,0,0,1.8,3c.28.37.59.7.89,1A14,14,0,0,0,26.82,91c.13.09.23.23.36.33l.66.49a4.56,4.56,0,0,1,.72.49,8.08,8.08,0,0,0,2,1.38c.43.23.86.46,1.3.67a9.22,9.22,0,0,0,1.13.46,24.17,24.17,0,0,0,2.35.67c.61.13,1.25.15,1.88.22.36,0,.71.08,1.07.15a2.39,2.39,0,0,0,1,0,1.66,1.66,0,0,1,.44,0l1,.06c.44,0,.88,0,1.31.09a2.61,2.61,0,0,0,1.33-.15,8.6,8.6,0,0,1,2.24-.47c.57-.07,1.14-.13,1.69-.24s.83-.27,1.25-.4c.23-.07.48-.1.71-.16s.25-.08.37-.12a3.3,3.3,0,0,0,1.49-.81c.06-.08.2-.1.3-.15a4.31,4.31,0,0,0,1.54-1.1,1.07,1.07,0,0,1,.46-.35,6.15,6.15,0,0,0,2.35-1.78c.36-.42.78-.78,1.15-1.19a11.24,11.24,0,0,0,.86-1.1,5.12,5.12,0,0,1,1.23-1.31,2.71,2.71,0,0,0,1-1.12.24.24,0,0,1,.06-.08,9.31,9.31,0,0,0,1.57-2.62c.29-.6.61-1.19.92-1.78s.53-1,.79-1.45a.94.94,0,0,0,.06-.24c.24-.86.42-1.74.73-2.57s.53-1.81.88-2.68c.27-.67.12-1.35.35-2a5.75,5.75,0,0,0,.12-.86c0-.32.1-.64.18-.95.17-.69.36-1.38.52-2.08a5.47,5.47,0,0,0,0-.82c.07-.92.14-1.84.22-2.77a4.42,4.42,0,0,1,.13-.61,1.34,1.34,0,0,0,.07-.18c.12-1.35.3-2.69.33-4,0-.82.1-1.62.17-2.42s0-1.73,0-2.59c0-.66,0-1.32,0-2a21.36,21.36,0,0,0,0-2.53c0-.68,0-1.36.05-2,0-.45,0-.9,0-1.35,0-.21,0-.42,0-.63,0-.8-.06-1.59-.07-2.39,0-1.09,0-2.18,0-3.27s-.13-2.12-.19-3.18a2.64,2.64,0,0,1,0-.29c0-.81,0-1.63,0-2.44.1-1.19-.15-2.36-.16-3.54,0-.85,0-1.69,0-2.54,0-.08.07-.17.1-.25a.93.93,0,0,0,0-.23c0-.56-.12-1.12-.14-1.68s0-1.13,0-1.7c0-1,0-2,0-3,0-.79-.11-1.59-.15-2.38,0-.33,0-.65,0-1,0-.71,0-1.42,0-2.13s.06-1.32.11-2c0-.28-.12-.51-.11-.78a2.25,2.25,0,0,1,0-.58,7.59,7.59,0,0,0,0-2c0-.23.09-.44.09-.66,0-.7,0-1.39,0-2.09,0-.32,0-.65,0-1a1.25,1.25,0,0,0,0-.39.72.72,0,0,1,0-.56,4.19,4.19,0,0,0,0-2.11c0-.1-.11-.19-.17-.28.37-.6.1-1.3.28-2a7.62,7.62,0,0,1,1-.14,19.58,19.58,0,0,0,3.59-.34,1.4,1.4,0,0,1,.29,0l1-.09c.39,0,.77-.07,1.16-.08a6.3,6.3,0,0,0,1.29-.2,7,7,0,0,1,1.45-.05A6.31,6.31,0,0,0,78.38,1c.36-.11.51.15.46.53-.09.58-.11,1.16-.16,1.73,0,.36-.08.72-.08,1.07s.05.64.06,1c0,.47,0,.93,0,1.4s.1.86.17,1.29c0,0,.12.09.19.15l-.23.12a14,14,0,0,1,.07,2.59,6.74,6.74,0,0,0,0,1.85,3.15,3.15,0,0,1,0,.92,2.86,2.86,0,0,0,.38,1.67l.16.15,0-.08ZM47.11,99.11c.69.07,1-.06,1.13-.51C47.81,98.63,47.36,98.57,47.11,99.11Zm-12.65,1c-.24-.18-.41-.2-.6,0A.41.41,0,0,0,34.46,100.16Z"/><path class="cls-1" d="M78.58,78.79l-.18,1c-.27,0-.31-.18-.25-.35s.23-.48.34-.71Z"/><path class="cls-1" d="M77.48.14l1,.22L78.16.6,77.43.25Z"/><path class="cls-1" d="M79.81,2.22c-.09.09-.17.24-.27.25s-.26-.1-.25-.34l.44,0Z"/><path class="cls-1" d="M79.21,4.52c.06-.23-.07-.45.18-.56C79.65,4.27,79.63,4.33,79.21,4.52Z"/><path class="cls-1" d="M79.75,9.82c-.12.06-.19.12-.27.12s-.09-.09-.14-.14a1.11,1.11,0,0,1,.24-.16S79.67,9.74,79.75,9.82Z"/><path class="cls-1" d="M79.89,8.58l-.53-.36.41-.13Z"/><path class="cls-1" d="M79.52,11.41c.06.12.13.2.12.23a.41.41,0,0,1-.2.14s-.1-.1-.09-.13A1.59,1.59,0,0,1,79.52,11.41Z"/><path class="cls-1" d="M79.23,18.14l.32.11v.06l-.34-.08Z"/><path class="cls-1" d="M79.48,19.4l-.17-.2.06-.06.17.21Z"/><path class="cls-1" d="M79.39,7l.17.14,0,.07-.21-.12Z"/><path class="cls-1" d="M80,47.9s-.08.08-.11.07-.07,0-.11-.06,0-.08.08-.09S80,47.86,80,47.9Z"/><path class="cls-1" d="M79.57,24.29l-.07.22-.07,0,.07-.22Z"/><path class="cls-1" d="M79.86,20s0,.05-.06.05,0,0,0-.06,0,0,0-.05Z"/><path class="cls-1" d="M79.41,26.8l0-.07s.06,0,.08,0,0,0,0,.06Z"/><path class="cls-1" d="M79.44,17l.07,0-.06.08s0,0,0-.05S79.42,17,79.44,17Z"/><path class="cls-1" d="M80,12.9c0-.05-.09-.09-.08-.12s.06-.06.09-.09.08.06.08.09S80.05,12.85,80,12.9Z"/><path class="cls-1" d="M47.11,99.11c.25-.54.7-.48,1.13-.51C48.08,99.05,47.8,99.18,47.11,99.11Z"/><path class="cls-1" d="M34.46,100.16a.41.41,0,0,1-.6,0C34.05,100,34.22,100,34.46,100.16Z"/><path class="cls-1" d="M79.26,15.28l.21.05,0,.08-.16-.15Z"/></svg>