<svg id="K" xmlns="http://www.w3.org/2000/svg" viewBox="0 0 86 112"><defs><style>.cls-1{stroke:#000;stroke-miterlimit:10;}</style></defs><path class="cls-1" d="M4.45-.48s.1,0,.12,0c.22.38.56.4.95.41C6.09,0,6.67.09,7.24.1a14.11,14.11,0,0,0,2.6,0A16.71,16.71,0,0,1,12.4,0c.73,0,1.46,0,2.19,0a4,4,0,0,1,.6,0,1.54,1.54,0,0,0,1-.2c.24-.13.49-.25.74-.36a.83.83,0,0,1,1.16,1,15.27,15.27,0,0,0-.3,3.63c0,.71.15,1.42.21,2.13,0,.36,0,.73,0,1.09s.07,1,.1,1.5c0,.13.05.25.05.37,0,.83,0,1.67,0,2.5a2.07,2.07,0,0,1-.05.5,1.33,1.33,0,0,0,0,.86.5.5,0,0,1,0,.13c0,.65.07,1.31.1,2,0,.47,0,.94.05,1.41a1.1,1.1,0,0,1,0,.41,2.6,2.6,0,0,0-.05,1.27c.07.62.1,1.24.15,1.86a.58.58,0,0,1,0,.23,4.74,4.74,0,0,0-.2,1.4c-.09.75-.2,1.5-.29,2.26,0,.22,0,.45,0,.68s0,.6,0,.91c0,.79,0,1.58,0,2.37,0,.41-.06.82,0,1.23.06,1.22.15,2.43.22,3.65a.89.89,0,0,1,0,.23,14.24,14.24,0,0,0,.18,3.13c0,.43,0,.85.07,1.28,0,.62,0,1.24.06,1.87a2.48,2.48,0,0,1-.06.54,3.41,3.41,0,0,0-.05,1.49c.06.32.25.42.52.24a7.13,7.13,0,0,0,1-.77c.48-.46.91-1,1.39-1.45s1.17-1.07,1.76-1.6c.76-.66,1.54-1.29,2.3-2,.93-.81,1.86-1.62,2.77-2.46,1.19-1.08,2.37-2.19,3.55-3.29.42-.39.8-.8,1.21-1.19.61-.57,1.24-1.12,1.86-1.69.26-.24.48-.51.74-.74s.47-.33.69-.53c.55-.5,1.11-1,1.64-1.52,1.31-1.3,2.61-2.62,3.92-3.91,1-1,2-1.95,3-2.92a1.24,1.24,0,0,1,.18-.14,33.25,33.25,0,0,0,3.88-3.33.81.81,0,0,0,.12-.14,1.73,1.73,0,0,1,.8-.78.62.62,0,0,0,.18-.14c.9-1.14,2-2.09,3-3.13.16-.18.29-.39.43-.58A4.1,4.1,0,0,1,54.4,8.23,3.45,3.45,0,0,0,55,7.78,11.46,11.46,0,0,0,57,5.56a2.41,2.41,0,0,1,.4-.44c.87-.83,1.74-1.67,2.63-2.48a9.05,9.05,0,0,1,1-.7,2.31,2.31,0,0,0,.35-.21C62,1.17,62.54.62,63.11.05a2.2,2.2,0,0,1,2-.76,3.72,3.72,0,0,0,.82,0c.42,0,.85-.05,1.28,0,1,0,2.07.14,3.1.16a12,12,0,0,0,1.46-.15,6.49,6.49,0,0,1,.77-.05l5.21.14c.17,0,.33.05.5.07a8,8,0,0,0,1.81.17c1-.1,2,0,3.06,0l.82,0a1.41,1.41,0,0,1,.41,0c.4.07.46.19.5.61a.79.79,0,0,1-.2.7,1.06,1.06,0,0,0-.17.42.87.87,0,0,1-.86.63c-.48,0-.49,0-.66.52a.67.67,0,0,1-.21.33A7.16,7.16,0,0,0,81.44,4a2.86,2.86,0,0,1-.41.36l-.43.4-.6.55c-.12.12-.26.22-.38.33s-.11.16-.18.21a20,20,0,0,0-1.88,1.91,4.53,4.53,0,0,0-.76,1,3.85,3.85,0,0,1-.88.92,7,7,0,0,0-.62.6c-.24.23-.48.47-.7.72s-.35.41-.53.62c0,0-.08.13-.14.18-.5.44-1,.87-1.51,1.32-.19.17-.36.36-.54.54a3.22,3.22,0,0,1-.24.28c-1,.85-2,1.71-3,2.55-.78.65-1.58,1.28-2.39,1.9a13.4,13.4,0,0,0-2.37,2.39,2.39,2.39,0,0,1-.22.23l-.94.93a4.72,4.72,0,0,1-.83.71,12.32,12.32,0,0,0-1.48,1.13c-.46.4-.86.86-1.29,1.28-.21.2-.45.36-.68.54a17.17,17.17,0,0,0-2.12,1.88c-.39.44-.91.76-1.34,1.16s-.92.9-1.37,1.35a2,2,0,0,1-.37.34,5.37,5.37,0,0,0-1.14,1c-.55.61-1.15,1.17-1.74,1.75s-.92.9-1.39,1.32S47.7,35.44,47.09,36a.79.79,0,0,0-.17.14,15.69,15.69,0,0,1-2.28,2c-.77.65-1.59,1.23-2.37,1.87-.43.34-.81.75-1.22,1.11l-1.73,1.5c-.17.14-.34.3-.51.45s-.54.45-.82.65a12.13,12.13,0,0,0-1.49,1.55l-1.36,1.34a3.31,3.31,0,0,0-.32.33A4.81,4.81,0,0,1,33.67,48a2.23,2.23,0,0,0-.58.64.38.38,0,0,0,.11.6A5,5,0,0,1,35,51.11c.87,1.22,1.88,2.32,2.86,3.45.29.33.61.64.91,1,.54.58,1.09,1.15,1.63,1.74.17.18.34.38.51.58.4.48.79,1,1.2,1.44s1.1,1.22,1.62,1.86a17.78,17.78,0,0,0,1.66,1.7c.42.4.8.84,1.18,1.28s.78.89,1.16,1.35a3.42,3.42,0,0,1,.49.66,9,9,0,0,0,1.68,2.1c1,1,2.06,2,3.1,3s2.21,2,3.3,3.1c.78.77,1.53,1.57,2.29,2.37.49.52,1,1.06,1.44,1.6s.64.81,1,1.21c.53.65,1.07,1.29,1.61,1.93.72.87,1.44,1.73,2.17,2.59.29.34.59.66.88,1s.62.75.93,1.13.55.65.84,1q.78.85,1.59,1.71A9.33,9.33,0,0,1,70,90a17.78,17.78,0,0,0,2.08,2.25,28.29,28.29,0,0,1,2.11,2.4c.1.14.17.29.27.42.22.32.43.63.67.93.38.47.78.93,1.19,1.38.24.27.52.51.79.76a10.49,10.49,0,0,0,1.49,1.41.49.49,0,0,1,.16.16,12.27,12.27,0,0,0,1.55,1.67c.66.68,1.28,1.39,1.91,2.1.11.11.2.23.31.33.63.53,1.14,1.17,1.79,1.69a5.05,5.05,0,0,1,1.44,1.64,1.21,1.21,0,0,1,.15.64c-.08,1-.24,1.19-1.23,1.41a2,2,0,0,1-.76,0,8.84,8.84,0,0,0-2.24,0,13.26,13.26,0,0,1-2.6.1,25.07,25.07,0,0,0-2.6,0l-1.6.06c-1.45,0-2.9,0-4.35,0-.49,0-1-.09-1.46-.09a2.65,2.65,0,0,0-.84.15.86.86,0,0,1-.75,0c-.5-.29-1-.55-1.52-.83-.12-.06-.29,0-.38-.12a.45.45,0,0,1-.06-.37.24.24,0,0,0,0-.36,1,1,0,0,0-.21-.25,9.45,9.45,0,0,1-1.22-1.46.94.94,0,0,0-.78-.41.52.52,0,0,1-.39-.17,5,5,0,0,1-.45-.68A5.69,5.69,0,0,1,62,104a7.52,7.52,0,0,0-1.22-1.68,3.72,3.72,0,0,0-.49-.48l-2-2-.06-.07c-.68-1-1.66-1.62-2.4-2.51a16.33,16.33,0,0,1-2-2.35,6,6,0,0,0-.63-.72c-.3-.36-.58-.75-.89-1.1s-.77-.86-1.17-1.28a5,5,0,0,1-.92-1.13,1.44,1.44,0,0,0-.31-.39c-.54-.5-1.09-1-1.62-1.48-.26-.24-.5-.49-.74-.74s-.71-.72-1-1.11c-.52-.67-1-1.38-1.51-2.07a1.66,1.66,0,0,0-.16-.21,21.1,21.1,0,0,1-1.64-2c-.57-.67-1.19-1.3-1.79-2-.09-.1-.2-.19-.3-.29l-1.5-1.72c-.38-.42-.75-.84-1.12-1.27-.9-1-1.78-2.13-2.72-3.15a21.26,21.26,0,0,0-1.65-1.5,7.37,7.37,0,0,1-.58-.52c-.67-.71-1.31-1.45-2-2.16-.43-.45-.91-.86-1.34-1.31-.28-.28-.5-.61-.75-.91-.43-.52-.84-1-1.29-1.54s-.87-.77-1.27-1.19A11.86,11.86,0,0,1,26.11,64c-.1-.13-.19-.28-.29-.41l-.84-1a5.17,5.17,0,0,0-1.09-1.1,5.5,5.5,0,0,1-.95-.92c-.32-.35-.61-.72-.92-1.08a.69.69,0,0,0-1-.14c-.6.5-1.2,1-1.77,1.53-.31.28-.54.67-.88.92a1.38,1.38,0,0,0-.52,1.37c.05.44,0,.88.05,1.32s.05.61.06.92c0,.47,0,.94,0,1.41,0,.31-.06.61-.07.91,0,1.16-.08,2.32-.1,3.48,0,.42,0,.85,0,1.27s0,1,0,1.42l.18,3.24a2.33,2.33,0,0,1,0,.59,10,10,0,0,0-.08,2c0,.51-.05,1-.08,1.55,0,.18,0,.36,0,.55,0,1.11.06,2.22,0,3.33,0,2.59-.11,5.18-.16,7.77,0,.59.05,1.19.07,1.78a1.74,1.74,0,0,1,0,.32c-.23.94.11,1.89-.09,2.82a21.1,21.1,0,0,0,.26,2.63.59.59,0,0,1,0,.23l.09,1.64.15,2.69a5.06,5.06,0,0,1,0,.55,1.09,1.09,0,0,0,0,.31,5,5,0,0,1-.12,2,1.28,1.28,0,0,1-.95,1.07,7.79,7.79,0,0,1-2.59.23,9.45,9.45,0,0,0-1.19,0c-.89.06-1.79.16-2.68.24l-.27,0A4.49,4.49,0,0,1,8,109.46a7.94,7.94,0,0,0-3-.23,4.33,4.33,0,0,1-2-.43.85.85,0,0,1-.46-1.14c0-.16,0-.33.09-.49a3.4,3.4,0,0,1,.21-.79A3.31,3.31,0,0,0,3,104.51c-.07-.71-.08-1.4-.09-2.1,0-1.42,0-2.83-.08-4.25,0-1.08-.09-2.16-.13-3.24,0-.26,0-.52,0-.77a14.43,14.43,0,0,0,0-1.47c0-.89-.12-1.79-.19-2.69a1.46,1.46,0,0,1,0-.36,7,7,0,0,0,0-1.59c0-.44.06-.88.08-1.32a16.69,16.69,0,0,0,.12-2.55,15,15,0,0,1,0-2.51,27.13,27.13,0,0,0,0-3.93c-.06-.92,0-1.86,0-2.79,0-.13,0-.27,0-.41,0-.74-.08-1.49-.11-2.23-.05-1.19-.09-2.38-.11-3.56,0-.37.05-.73.05-1.1,0-.76,0-1.52,0-2.28,0-.41,0-.82.06-1.23s0-.58,0-.87a18.09,18.09,0,0,0,0-2.55A7.32,7.32,0,0,1,2.79,59a2,2,0,0,0,0-.76,2.74,2.74,0,0,1-.07-.95,14.56,14.56,0,0,0,0-1.87c0-1.23-.06-2.47-.09-3.7v-.09a18.82,18.82,0,0,1,0-4c0-.29,0-.58,0-.87,0-.54-.06-1.09-.07-1.64,0-1,0-2,0-2.93,0-.45.09-.91.09-1.36,0-.71,0-1.41,0-2.11s.08-1.43.12-2.14a4.56,4.56,0,0,0,0-.64,5.3,5.3,0,0,1,.07-1.59,8.36,8.36,0,0,0,0-1c0-.43,0-.85,0-1.28,0-.26,0-.52,0-.78l0-1.18a1.64,1.64,0,0,0,0-.22c-.1-1.16,0-2.31,0-3.47s0-2.44,0-3.66A1.73,1.73,0,0,1,3,22.32,2.56,2.56,0,0,0,3,21.06a1.68,1.68,0,0,1,.07-.58,3,3,0,0,0,.1-.49c0-.56,0-1.12,0-1.69s0-.88-.07-1.32,0-.6-.06-.9c-.07-.71.05-1.4,0-2.1S3,12.88,3,12.34c0-.34.06-.67.05-1,0-.83,0-1.68-.08-2.51a13.57,13.57,0,0,1,.09-2.55,8.34,8.34,0,0,0,0-1c0-.18,0-.36,0-.54s.1-.6.11-.91c0-1.12.07-2.25.1-3.38A1.09,1.09,0,0,1,3.42.08a.35.35,0,0,1,.5-.2c.27.12.32.1.43-.17,0,0,0-.09,0-.13A.22.22,0,0,1,4.45-.48ZM82.39,106.75c-.54-.65-1-1.24-1.53-1.8s-.88-.84-1.31-1.28a10.18,10.18,0,0,0-.73-.87c-.43-.37-.82-.77-1.22-1.17a26,26,0,0,0-2-1.88,4.18,4.18,0,0,1-.94-1,11.09,11.09,0,0,0-.91-1.14.77.77,0,0,0-.26-.25A2.63,2.63,0,0,1,72.37,96a6.67,6.67,0,0,0-1.15-1.53c-.19-.19-.39-.39-.57-.59l-1.52-1.71c-.17-.19-.35-.38-.53-.56s-.4-.38-.59-.57-.56-.56-.81-.85-.38-.56-.61-.8a22.6,22.6,0,0,1-2.34-2.55c-.19-.26-.37-.53-.56-.78s-.29-.34-.45-.51a4.68,4.68,0,0,1-.69-.72,21.29,21.29,0,0,0-1.63-2c-.7-.91-1.46-1.76-2.2-2.63-.45-.52-.92-1-1.37-1.53s-1.05-1.23-1.59-1.83c-.28-.3-.61-.56-.9-.84l-1.78-1.72c-.55-.53-1.12-1-1.65-1.58-1.09-1.11-2.17-2.24-3.23-3.37-.41-.45-.79-.93-1.16-1.41s-.64-1-1-1.41c-.73-.88-1.48-1.75-2.24-2.6-.46-.51-1-1-1.43-1.48-.71-.78-1.39-1.58-2.07-2.38-.27-.31-.51-.64-.77-1s-.39-.54-.61-.79-.56-.47-.81-.74-.65-.76-1-1.15a4.78,4.78,0,0,0-.64-.71A14.17,14.17,0,0,1,35,53.93c-.27-.33-.55-.65-.83-1l-.2-.18c-.58-.63-1.15-1.27-1.73-1.89a.82.82,0,0,1-.28-.65.5.5,0,0,0-.33-.54,1.26,1.26,0,0,1-.42-.27.7.7,0,0,1-.23-.37A1.19,1.19,0,0,1,31.29,48l.76-.73A13.75,13.75,0,0,0,34.37,45a1.71,1.71,0,0,1,.2-.18l1.07-1.07c.65-.64,1.29-1.3,2-1.91s1.64-1.41,2.45-2.12c.59-.52,1.13-1.07,1.72-1.58.42-.38.88-.7,1.32-1.06s1-.8,1.53-1.23,1.21-1.11,1.83-1.66c.24-.21.5-.4.74-.61s.55-.48.82-.72c.73-.67,1.48-1.32,2.19-2,.51-.5.94-1.08,1.45-1.58s1.32-1.18,2-1.77c.22-.2.43-.43.65-.64.67-.6,1.34-1.2,2-1.81.25-.22.47-.48.72-.7.59-.54,1.18-1.06,1.78-1.58s1-.75,1.43-1.14a15.81,15.81,0,0,0,2.06-1.87c.33-.4.68-.78,1-1.15s.86-.82,1.31-1.2c1-.83,2-1.64,3-2.47.5-.42,1-.87,1.47-1.31.21-.19.41-.4.62-.6l.86-.75c.23-.2.48-.38.71-.57s.74-.63,1.1-1,.58-.61.88-.92c.46-.47.93-.92,1.39-1.39a5.66,5.66,0,0,1,.4-.44A6.77,6.77,0,0,0,76.43,6.5a5.93,5.93,0,0,1,1-1,14.94,14.94,0,0,0,2-1.74s.05,0,.07-.06l.78-.7c.21-.18.4-.37.62-.53s.51-.34.75-.52a.51.51,0,0,0,.18-.54c0-.22-.22-.24-.38-.25q-.75,0-1.5-.06c-.32,0-.64.05-1,.05S78.18,1,77.8,1C76.89,1,76,1,75.06.9a1.09,1.09,0,0,1-.54-.19.52.52,0,0,0-.63-.06,1.69,1.69,0,0,1-.55.21c-.57.05-1.15.07-1.73.1a1.42,1.42,0,0,0-.36,0A4.51,4.51,0,0,1,69,1.05a4.51,4.51,0,0,0-.72-.12c-1,0-1.92-.05-2.88-.12a1.21,1.21,0,0,0-1.18.62,2.42,2.42,0,0,1-.72.74,8.92,8.92,0,0,0-1.2.84L59,5.83a1.7,1.7,0,0,0-.22.24l-1.66,2c-.15.17-.32.32-.49.48-.69.64-1.41,1.26-2.08,1.93S53.09,12,52.36,12.76c-.29.31-.63.58-.89.91A29.61,29.61,0,0,1,48.24,17c-1,1-2.19,1.84-3.29,2.76a14.55,14.55,0,0,0-1.79,1.63c-.39.45-.85.83-1.27,1.25-.26.26-.53.5-.78.77s-.67.83-1,1.21a18.28,18.28,0,0,0-1.72,1.69,2.39,2.39,0,0,1-.23.22c-1,.86-2,1.7-3,2.56-.42.37-.83.77-1.24,1.16s-1,1-1.54,1.49c-.86.78-1.75,1.52-2.6,2.31-.61.55-1.17,1.15-1.77,1.72-.33.31-.69.6-1,.89s-.48.38-.7.58L25,38.36a2.43,2.43,0,0,1-.35.2c-.21.15-.43.28-.63.45s-.4.37-.6.56c-.44.42-.9.82-1.34,1.24s-1,1-1.47,1.5-1,1-1.57,1.45c-.08.07-.16.17-.25.19-.37.1-.49.37-.58.7a1.91,1.91,0,0,1-.3.7c-.17.26-.38.27-.63.08a1.33,1.33,0,0,1-.53-1c0-.35-.06-.7-.07-1a3.45,3.45,0,0,1,0-.91,7.28,7.28,0,0,0,0-1.68c0-.73,0-1.47,0-2.2s0-1.21-.08-1.82-.09-1.43-.13-2.14a1.32,1.32,0,0,1,0-.28,5.56,5.56,0,0,0,0-1.82,6.41,6.41,0,0,1-.13-1.22c.07-.85-.18-1.66-.09-2.51,0-.46,0-.94.13-1.4a2.91,2.91,0,0,0,0-.59c0-.16-.05-.31-.05-.46,0-1,0-1.94.05-2.92v-.09c.11-.63.18-1.27.32-1.89a6.69,6.69,0,0,0,.12-2.18,9.08,9.08,0,0,1,.11-2.15,1.26,1.26,0,0,0-.09-.79,1.11,1.11,0,0,1-.09-.48,9.48,9.48,0,0,0,0-2.13,4.06,4.06,0,0,1,0-1.77,1.31,1.31,0,0,0,0-.28c0-.6.05-1.21.06-1.82a3.94,3.94,0,0,0,0-.77c-.09-.73-.23-1.44-.31-2.17,0-.42,0-.85,0-1.28,0-.63,0-1.28-.05-1.91a5,5,0,0,1,0-1.09A1.27,1.27,0,0,0,16.32,2,.48.48,0,0,0,16,1.71l-2.24,0c-.31,0-.61,0-.91,0a10.64,10.64,0,0,0-1.87,0,11.46,11.46,0,0,1-1.55.15c-.68,0-1.37-.06-2-.1l-2.1-.16a.39.39,0,0,0-.47.33,8.71,8.71,0,0,0-.27,2c0,.33,0,.67,0,1l0,2.88c0,.94,0,1.89,0,2.83,0,.44,0,.88,0,1.32,0,.67,0,1.34,0,2,0,.33,0,.65,0,1,0,.66,0,1.33-.08,2,0,.2,0,.4,0,.59.06.52.15,1,.21,1.54a4.49,4.49,0,0,1,0,.82c-.05.76-.14,1.52-.16,2.28,0,1.22-.06,2.44-.07,3.66a12.4,12.4,0,0,0,0,2.28,7.61,7.61,0,0,1,.06,1c0,.86-.1,1.73,0,2.6s0,1.73,0,2.6-.07,2-.1,3c0,.47,0,.95,0,1.42s-.08,1.24-.09,1.87c0,1,0,2,0,3,0,.4,0,.8,0,1.19s0,.79.07,1.19l0,.73c0,.84.09,1.67.1,2.51,0,1.18,0,2.35,0,3.53,0,.27,0,.54.07.82s.07.82.07,1.23c0,.68,0,1.37-.09,2,0,.31,0,.61-.07.91a6.71,6.71,0,0,0,0,2,5.12,5.12,0,0,1,0,1c0,.55,0,1.1,0,1.64a7.07,7.07,0,0,1,0,.92,5.62,5.62,0,0,0-.07,1.36,8.73,8.73,0,0,1,0,1.14,6.33,6.33,0,0,0,0,1.23,22.47,22.47,0,0,1,.12,3.38c0,.78,0,1.55.08,2.33a11,11,0,0,1,0,1.28,20.18,20.18,0,0,0,.12,2.91c0,.7.1,1.4.12,2.1s0,1.19,0,1.78c0,1.33,0,2.66,0,4,0,.42-.08.85-.1,1.27s0,1,0,1.55c0,1.18,0,2.35,0,3.53a9.11,9.11,0,0,0,.14,1.73A4.61,4.61,0,0,1,4.67,94c0,.88-.12,1.76-.1,2.64,0,1.22.09,2.44.16,3.66a7.74,7.74,0,0,1,0,2,.41.41,0,0,0,0,.19,32.29,32.29,0,0,1,.12,3.41c0,1.18,0,1.17,1.14,1.25a24.92,24.92,0,0,0,3.46.2,23.42,23.42,0,0,1,2.37,0,1.13,1.13,0,0,0,.18,0c.76-.09,1.51-.2,2.26-.27.4,0,.79,0,1.19,0s.58-.13.62-.45a10.69,10.69,0,0,0,.08-2.26,14.35,14.35,0,0,1-.24-2.53.34.34,0,0,0,0-.14c0-.36-.07-.73-.11-1.09a2.66,2.66,0,0,0-.09-.63,2.08,2.08,0,0,1-.05-1,2.87,2.87,0,0,0,.07-.5,26.18,26.18,0,0,0,0-3.43.81.81,0,0,1,0-.22c0-.43.06-.85.06-1.28,0-1.1,0-2.2,0-3.29.05-1.94.13-3.88.19-5.81,0-.72,0-1.44,0-2.15,0-1,.14-2,.17-3.06,0-.73,0-1.46-.05-2.19,0-.41-.08-.82-.12-1.23,0-.19,0-.39,0-.59,0-.62,0-1.25,0-1.87,0-.33,0-.67,0-1s0-.76.05-1.14c0-.73,0-1.47.07-2.2a25.18,25.18,0,0,0,.16-3,1.94,1.94,0,0,0-.22-.77.68.68,0,0,1-.07-.52,2.48,2.48,0,0,0-.08-1.87,2.08,2.08,0,0,1-.13-.71.6.6,0,0,1,.11-.39,10.37,10.37,0,0,1,.93-1.06c.39-.36.85-.65,1.23-1,.83-.82,1.8-1.5,2.59-2.37a1.08,1.08,0,0,1,1.52-.07c.48.46,1,.93,1.42,1.42.68.73,1.33,1.51,2,2.24,1,1.1,2.06,2.17,3.09,3.25l.76.8c.55.59,1.16,1.13,1.65,1.77a22.55,22.55,0,0,0,2,2.22c.3.31.56.64.84,1,.11.13.22.26.34.38l1.06,1L37,72.74c.45.41.94.78,1.35,1.23s1,1.18,1.52,1.77c.28.32.59.61.87.92s.58.71.88,1.06c.55.63,1.1,1.26,1.67,1.88.24.27.53.51.78.77A23.17,23.17,0,0,1,46,82.73c.32.45.71.84,1,1.28a13.19,13.19,0,0,0,1.63,2.09c.44.4.86.82,1.29,1.22.2.19.43.35.61.55.5.54,1,1.09,1.46,1.64s1,1.09,1.52,1.65c.36.4.69.84,1,1.25s.53.51.76.79c.45.55.88,1.13,1.3,1.7.12.16.22.33.34.48s.46.57.7.85.29.31.44.46c.61.55,1.23,1.09,1.83,1.65s1,1,1.49,1.49a9.72,9.72,0,0,1,1,1.11,6.66,6.66,0,0,0,1.3,1.4,3.55,3.55,0,0,1,.4.38l.76.85c.16.18.35.34.5.53.48.59.94,1.19,1.42,1.78.25.3.53.58.85,1,.06-.21.09-.35.13-.49a.57.57,0,0,1,1-.28,1.8,1.8,0,0,1,.3.5,4.12,4.12,0,0,1,.18.56h1a1.12,1.12,0,0,0,1.07-.37c.14-.18.32-.16.49,0a3.07,3.07,0,0,1,.26.25.66.66,0,0,0,.52.24c.77,0,1.53,0,2.29,0,1.34,0,2.68-.14,4-.19.7,0,1.4,0,2.1,0A3.4,3.4,0,0,0,82.39,106.75Z"/><path class="cls-1" d="M82.39,106.75A3.4,3.4,0,0,1,81,107c-.7,0-1.4,0-2.1,0-1.34,0-2.68.14-4,.19-.76,0-1.52,0-2.29,0a.66.66,0,0,1-.52-.24,3.07,3.07,0,0,0-.26-.25c-.17-.14-.35-.16-.49,0a1.12,1.12,0,0,1-1.07.37h-1a4.12,4.12,0,0,0-.18-.56,1.8,1.8,0,0,0-.3-.5.57.57,0,0,0-1,.28c0,.14-.07.28-.13.49-.32-.37-.6-.65-.85-1-.48-.59-.94-1.19-1.42-1.78-.15-.19-.34-.35-.5-.53l-.76-.85a3.55,3.55,0,0,0-.4-.38,6.66,6.66,0,0,1-1.3-1.4,9.72,9.72,0,0,0-1-1.11c-.49-.5-1-1-1.49-1.49s-1.22-1.1-1.83-1.65c-.15-.15-.3-.3-.44-.46s-.47-.56-.7-.85-.22-.32-.34-.48c-.42-.57-.85-1.15-1.3-1.7-.23-.28-.52-.51-.76-.79s-.69-.85-1-1.25c-.5-.56-1-1.1-1.52-1.65s-1-1.1-1.46-1.64c-.18-.2-.41-.36-.61-.55-.43-.4-.85-.82-1.29-1.22A13.19,13.19,0,0,1,47,84c-.32-.44-.71-.83-1-1.28A23.17,23.17,0,0,0,44,80.37c-.25-.26-.54-.5-.78-.77-.57-.62-1.12-1.25-1.67-1.88-.3-.35-.58-.71-.88-1.06s-.59-.6-.87-.92c-.51-.59-1-1.21-1.52-1.77s-.9-.82-1.35-1.23l-1.59-1.45-1.06-1c-.12-.12-.23-.25-.34-.38-.28-.32-.54-.65-.84-1a22.55,22.55,0,0,1-2-2.22c-.49-.64-1.1-1.18-1.65-1.77l-.76-.8c-1-1.08-2.07-2.15-3.09-3.25-.68-.73-1.33-1.51-2-2.24-.45-.49-.94-1-1.42-1.42a1.08,1.08,0,0,0-1.52.07c-.79.87-1.76,1.55-2.59,2.37-.38.37-.84.66-1.23,1a10.37,10.37,0,0,0-.93,1.06.6.6,0,0,0-.11.39,2.08,2.08,0,0,0,.13.71A2.48,2.48,0,0,1,16,64.74a.68.68,0,0,0,.07.52,1.94,1.94,0,0,1,.22.77,25.18,25.18,0,0,1-.16,3c-.09.73-.05,1.47-.07,2.2,0,.38,0,.76-.05,1.14s0,.67,0,1c0,.62,0,1.25,0,1.87,0,.2,0,.4,0,.59,0,.41.1.82.12,1.23,0,.73.07,1.46.05,2.19,0,1-.12,2-.17,3.06,0,.71,0,1.43,0,2.15-.06,1.93-.14,3.87-.19,5.81,0,1.09,0,2.19,0,3.29,0,.43,0,.85-.06,1.28a.81.81,0,0,0,0,.22,26.18,26.18,0,0,1,0,3.43,2.87,2.87,0,0,1-.07.5,2.08,2.08,0,0,0,.05,1,2.66,2.66,0,0,1,.09.63c0,.36.07.73.11,1.09a.34.34,0,0,1,0,.14,14.35,14.35,0,0,0,.24,2.53,10.69,10.69,0,0,1-.08,2.26c0,.32-.22.45-.62.45s-.79,0-1.19,0c-.75.07-1.5.18-2.26.27a1.13,1.13,0,0,1-.18,0,23.42,23.42,0,0,0-2.37,0,24.92,24.92,0,0,1-3.46-.2c-1.13-.08-1.16-.07-1.14-1.25a32.29,32.29,0,0,0-.12-3.41.41.41,0,0,1,0-.19,7.74,7.74,0,0,0,0-2c-.07-1.22-.15-2.44-.16-3.66,0-.88.06-1.76.1-2.64a4.61,4.61,0,0,0-.12-1.17,9.11,9.11,0,0,1-.14-1.73c0-1.18,0-2.35,0-3.53,0-.51,0-1,0-1.55s.09-.85.1-1.27c0-1.33,0-2.66,0-4,0-.59,0-1.19,0-1.78s-.1-1.4-.12-2.1A20.18,20.18,0,0,1,4.37,74a11,11,0,0,0,0-1.28c0-.78-.07-1.55-.08-2.33A22.47,22.47,0,0,0,4.12,67a6.33,6.33,0,0,1,0-1.23,8.73,8.73,0,0,0,0-1.14,5.62,5.62,0,0,1,.07-1.36,7.07,7.07,0,0,0,0-.92c0-.54,0-1.09,0-1.64a5.12,5.12,0,0,0,0-1,6.71,6.71,0,0,1,0-2c0-.3.05-.6.07-.91,0-.68.08-1.37.09-2,0-.41,0-.82-.07-1.23s-.07-.55-.07-.82c0-1.18,0-2.35,0-3.53,0-.84-.06-1.67-.1-2.51l0-.73c0-.4-.05-.79-.07-1.19s0-.79,0-1.19c0-1,0-2,0-3,0-.63.07-1.25.09-1.87s0-1,0-1.42c0-1,.12-2,.1-3s.07-1.74,0-2.6.08-1.74,0-2.6a7.61,7.61,0,0,0-.06-1,12.4,12.4,0,0,1,0-2.28c0-1.22,0-2.44.07-3.66,0-.76.11-1.52.16-2.28a4.49,4.49,0,0,0,0-.82c-.06-.51-.15-1-.21-1.54,0-.19,0-.39,0-.59,0-.67.06-1.34.08-2,0-.32,0-.64,0-1,0-.67,0-1.34,0-2,0-.44,0-.88,0-1.32,0-.94,0-1.89,0-2.83l0-2.88c0-.33,0-.67,0-1a8.71,8.71,0,0,1,.27-2,.39.39,0,0,1,.47-.33l2.1.16c.68,0,1.37.11,2.05.1A11.46,11.46,0,0,0,11,1.64a10.64,10.64,0,0,1,1.87,0c.3,0,.6,0,.91,0l2.24,0a.48.48,0,0,1,.34.24,1.27,1.27,0,0,1,.12.66,5,5,0,0,0,0,1.09c.05.63,0,1.28.05,1.91,0,.43-.05.86,0,1.28.08.73.22,1.44.31,2.17a3.94,3.94,0,0,1,0,.77c0,.61,0,1.22-.06,1.82a1.31,1.31,0,0,1,0,.28,4.06,4.06,0,0,0,0,1.77,9.48,9.48,0,0,1,0,2.13,1.11,1.11,0,0,0,.09.48,1.26,1.26,0,0,1,.09.79,9.08,9.08,0,0,0-.11,2.15,6.69,6.69,0,0,1-.12,2.18c-.14.62-.21,1.26-.32,1.89v.09c0,1,0,1.95-.05,2.92,0,.15,0,.3.05.46a2.91,2.91,0,0,1,0,.59c-.09.46-.08.94-.13,1.4-.09.85.16,1.66.09,2.51a6.41,6.41,0,0,0,.13,1.22,5.56,5.56,0,0,1,0,1.82,1.32,1.32,0,0,0,0,.28c0,.71.09,1.42.13,2.14s.06,1.22.08,1.82.08,1.47,0,2.2a7.28,7.28,0,0,1,0,1.68,3.45,3.45,0,0,0,0,.91c0,.35,0,.7.07,1a1.33,1.33,0,0,0,.53,1c.25.19.46.18.63-.08a1.91,1.91,0,0,0,.3-.7c.09-.33.21-.6.58-.7.09,0,.17-.12.25-.19.53-.48,1.06-1,1.57-1.45s1-1,1.47-1.5.9-.82,1.34-1.24c.2-.19.39-.39.6-.56s.42-.3.63-.45a2.43,2.43,0,0,0,.35-.2l1.24-1.15c.22-.2.47-.38.7-.58s.71-.58,1-.89c.6-.57,1.16-1.17,1.77-1.72.85-.79,1.74-1.53,2.6-2.31.53-.48,1-1,1.54-1.49s.82-.79,1.24-1.16c1-.86,2-1.7,3-2.56a2.39,2.39,0,0,0,.23-.22,18.28,18.28,0,0,1,1.72-1.69c.38-.38.7-.81,1-1.21s.52-.51.78-.77c.42-.42.88-.8,1.27-1.25A14.55,14.55,0,0,1,45,19.73c1.1-.92,2.25-1.78,3.29-2.76a29.61,29.61,0,0,0,3.23-3.3c.26-.33.6-.6.89-.91.73-.76,1.43-1.54,2.17-2.28s1.39-1.29,2.08-1.93c.17-.16.34-.31.49-.48l1.66-2A1.7,1.7,0,0,1,59,5.83L62.33,3a8.92,8.92,0,0,1,1.2-.84,2.42,2.42,0,0,0,.72-.74A1.21,1.21,0,0,1,65.43.81c1,.07,1.92.08,2.88.12a4.51,4.51,0,0,1,.72.12A4.51,4.51,0,0,0,71.25,1a1.42,1.42,0,0,1,.36,0c.58,0,1.16,0,1.73-.1a1.69,1.69,0,0,0,.55-.21.52.52,0,0,1,.63.06,1.09,1.09,0,0,0,.54.19C76,1,76.89,1,77.8,1c.38,0,.76.08,1.14.09s.64-.05,1-.05q.75,0,1.5.06c.16,0,.35,0,.38.25a.51.51,0,0,1-.18.54c-.24.18-.51.33-.75.52s-.41.35-.62.53l-.78.7s0,0-.07.06a14.94,14.94,0,0,1-2,1.74,5.93,5.93,0,0,0-1,1A6.77,6.77,0,0,1,75.07,8a5.66,5.66,0,0,0-.4.44c-.46.47-.93.92-1.39,1.39-.3.31-.57.63-.88.92s-.73.65-1.1,1-.48.37-.71.57l-.86.75c-.21.2-.41.41-.62.6-.49.44-1,.89-1.47,1.31-1,.83-2,1.64-3,2.47-.45.38-.89.79-1.31,1.2s-.72.75-1,1.15a15.81,15.81,0,0,1-2.06,1.87c-.47.39-1,.75-1.43,1.14s-1.19,1-1.78,1.58c-.25.22-.47.48-.72.7-.66.61-1.33,1.21-2,1.81-.22.21-.43.44-.65.64-.66.59-1.35,1.15-2,1.77s-.94,1.08-1.45,1.58c-.71.69-1.46,1.34-2.19,2-.27.24-.54.49-.82.72s-.5.4-.74.61c-.62.55-1.21,1.12-1.83,1.66s-1,.83-1.53,1.23-.9.68-1.32,1.06c-.59.51-1.13,1.06-1.72,1.58-.81.71-1.65,1.39-2.45,2.12s-1.32,1.27-2,1.91l-1.07,1.07a1.71,1.71,0,0,0-.2.18,13.75,13.75,0,0,1-2.32,2.19l-.76.73A1.19,1.19,0,0,0,31,49.06a.7.7,0,0,0,.23.37,1.26,1.26,0,0,0,.42.27.5.5,0,0,1,.33.54.82.82,0,0,0,.28.65c.58.62,1.15,1.26,1.73,1.89l.2.18c.28.32.56.64.83,1a14.17,14.17,0,0,0,1.46,1.74,4.78,4.78,0,0,1,.64.71c.33.39.64.78,1,1.15s.56.48.81.74.41.53.61.79.5.66.77,1c.68.8,1.36,1.6,2.07,2.38.45.51,1,1,1.43,1.48.76.85,1.51,1.72,2.24,2.6.37.44.66,1,1,1.41s.75,1,1.16,1.41c1.06,1.13,2.14,2.26,3.23,3.37.53.54,1.1,1,1.65,1.58L54.86,76c.29.28.62.54.9.84.54.6,1.06,1.22,1.59,1.83s.92,1,1.37,1.53c.74.87,1.5,1.72,2.2,2.63a21.29,21.29,0,0,1,1.63,2,4.68,4.68,0,0,0,.69.72c.16.17.31.33.45.51s.37.52.56.78a22.6,22.6,0,0,0,2.34,2.55c.23.24.39.54.61.8s.54.57.81.85.4.37.59.57.36.37.53.56l1.52,1.71c.18.2.38.4.57.59A6.67,6.67,0,0,1,72.37,96a2.63,2.63,0,0,0,1.08,1.32.77.77,0,0,1,.26.25,11.09,11.09,0,0,1,.91,1.14,4.18,4.18,0,0,0,.94,1,26,26,0,0,1,2,1.88c.4.4.79.8,1.22,1.17a10.18,10.18,0,0,1,.73.87c.43.44.9.83,1.31,1.28S81.85,106.1,82.39,106.75Z"/></svg>