<svg id="L" xmlns="http://www.w3.org/2000/svg" viewBox="0 0 86 112"><defs><style>.cls-1{stroke:#000;stroke-miterlimit:10;}</style></defs><path class="cls-1" d="M.81,108.49c.28-.16.28-.25.11-.53s-.2-.71.24-.95a.37.37,0,0,0,.25-.36c0-.54.2-1.08,0-1.61a.12.12,0,0,1,0-.1,7.63,7.63,0,0,0,.05-2.29c0-.78-.13-1.56-.18-2.34,0-.62-.06-1.23-.06-1.84,0-1,.06-1.91,0-2.87-.05-.62,0-1.25-.05-1.88s0-1.07,0-1.6c0-.31,0-.63.06-.94a.49.49,0,0,0,0-.24,4.11,4.11,0,0,1-.06-1.31c0-.42,0-.84-.05-1.26a18.4,18.4,0,0,1,0-3.06,2.06,2.06,0,0,0,0-.43c0-1.21-.1-2.42-.09-3.63,0-.88.17-1.75.2-2.63.06-1.55.09-3.09.08-4.63,0-1-.11-1.91-.16-2.87,0-.28,0-.57,0-.85,0-1,0-2,.05-3s0-2.14,0-3.21a1.79,1.79,0,0,0,0-.33A13.8,13.8,0,0,1,1,61.23C1,59.5,1,57.77,1.06,56a3.75,3.75,0,0,1,.05-.47,1.18,1.18,0,0,0,0-.37c-.14-.83.1-1.66,0-2.49S1,51,1,50.21c0-.5,0-1,0-1.51,0-.74-.05-1.48-.07-2.22,0-.22,0-.44,0-.66L1,44.55c0-.22,0-.43,0-.65C1,43,.91,42.17.89,41.3a12.25,12.25,0,0,1,.13-3,3,3,0,0,0,0-1.59,2.07,2.07,0,0,1,0-.7c0-.53,0-1.06,0-1.6s.05-1.28.07-1.92a.6.6,0,0,0,0-.23A5.25,5.25,0,0,1,1.25,30a.36.36,0,0,0,0-.27,1.21,1.21,0,0,1-.1-.77c0-.77,0-1.54.08-2.31,0-.41.08-.81.1-1.22s0-.69,0-1,0-.44.43-.53a.54.54,0,0,0,.16-.09,1.09,1.09,0,0,0-.18-.15c-.4-.14-.41-.14-.4-.54a9.59,9.59,0,0,1,.14-2.45c.07-.23.17-.45.26-.69-.11-.08-.34-.17-.39-.31a1.8,1.8,0,0,1,.06-.67l.41.15a.25.25,0,0,0-.19-.35c-.26-.09-.29-.28-.29-.52s0-.56,0-.85,0-.75.05-1.12c0-.09.12-.18.11-.26l-.07-1.76.37-.07v-.69l-.3.34c-.21-.12-.15-.31-.13-.49.08-.54.35-.71,1-.6,0-.26-.2-.33-.37-.42s-.22-.39-.56-.16c0-.31,0-.53,0-.76s0-.72-.07-1.08-.06-.52.27-.66.17-.13.1-.43l-.13,0c-.26.11-.39,0-.41-.21C1,8.43,1,7.82,1,7.21A7.74,7.74,0,0,1,1,5.06a2,2,0,0,0,0-.42,1.15,1.15,0,0,1,0-.37,2.5,2.5,0,0,0,.08-1.12c0-.33,0-.65,0-1A1.46,1.46,0,0,0,1,1.62.88.88,0,0,1,1,.77L1,.72C1.42.1,1.33-.12,2.2.35A1.65,1.65,0,0,0,2.84.4h.69c.08,0,.17,0,.23,0A2.45,2.45,0,0,1,5.05.4c.66.07,1.32.11,2,.13.9,0,1.8,0,2.69,0,.44,0,.87.08,1.31.11a5.7,5.7,0,0,0,.71,0c.2,0,.4-.06.61-.06A8.21,8.21,0,0,0,14.13.45a2.26,2.26,0,0,1,.52,0c.23,0,.46,0,.7,0,.39,0,.55.09.59.49,0,.12,0,.25,0,.38,0,.73-.07,1.46,0,2.19s-.13,1.7-.1,2.54A13.62,13.62,0,0,0,16,8.68a7.53,7.53,0,0,1,.05,1.17,6.41,6.41,0,0,0,.18,2,.22.22,0,0,1,0,.14c0,.43-.11.86-.13,1.3s.1.6.05.92c-.13.93-.2,1.87-.3,2.81a.66.66,0,0,0,0,.14c0,.49.05,1,.06,1.45s0,1.17,0,1.75a16.17,16.17,0,0,0,.15,2.95,13.93,13.93,0,0,1,.07,1.83c0,.85-.06,1.71,0,2.54.05.48.12,1,.18,1.44a15.53,15.53,0,0,1-.06,2.46c0,.68-.12,1.36-.09,2.06s-.06,1.22,0,1.83c.09,1.42.23,2.83.33,4.24s.14,2.58.18,3.87c0,1,0,2,0,3.06a4.93,4.93,0,0,0,.07.66,1.26,1.26,0,0,1,0,.28c-.07.81-.15,1.62-.23,2.43,0,.27-.07.53-.09.8a17.25,17.25,0,0,0,0,3A12.45,12.45,0,0,1,16.31,56a19.25,19.25,0,0,0,0,3.87c.07.72,0,1.45.07,2.17a5,5,0,0,0,.21,1.72.61.61,0,0,1,0,.14,22.81,22.81,0,0,0,.19,3.2c0,.5,0,1,0,1.51,0,.74,0,1.48,0,2.22,0,1.19-.1,2.39-.13,3.58,0,.91,0,1.82,0,2.73,0,.49,0,1,0,1.46s.07.75.11,1.12a1.23,1.23,0,0,1,0,.19c0,.66,0,1.32,0,2a3.57,3.57,0,0,0,0,.46A12.56,12.56,0,0,1,17,84.77a6.12,6.12,0,0,0,0,.85c.07.92.16,1.84.21,2.77,0,.56,0,1.13,0,1.69,0,.08-.05.17,0,.23A6.5,6.5,0,0,1,17.29,92c.06.51.14.58.67.58s1.1-.07,1.64-.06c2.22,0,4.44.08,6.66.1,1.18,0,2.36,0,3.54,0a13.17,13.17,0,0,1,2.26.18,2.66,2.66,0,0,0,1.62-.14A.89.89,0,0,1,34,92.5c.87,0,1.73.06,2.6.07s1.64,0,2.45,0l3.59,0c.47,0,.94,0,1.42,0a7.93,7.93,0,0,1,1,.07,24.35,24.35,0,0,0,3.82,0c.7,0,1.39-.09,2.08-.09s1.32.06,2,.08c.2,0,.4,0,.61,0s.25,0,.31,0a.74.74,0,0,0,.85.06,1.6,1.6,0,0,1,.78-.08c.55,0,1.1.06,1.65.08s1.1.08,1.65.08,1,0,1.55-.07a1.33,1.33,0,0,1,.28,0l2.64.07c.41,0,.82,0,1.22,0s.53.08.79.1a4.34,4.34,0,0,0,.51,0,20.29,20.29,0,0,0,3-.11,3.65,3.65,0,0,1,.47,0c.7,0,1.41,0,2.11,0a2.61,2.61,0,0,1,.79.12,2.77,2.77,0,0,0,1.4,0,10.2,10.2,0,0,1,1.11-.14,9.26,9.26,0,0,0,2-.21,2.11,2.11,0,0,1,.56-.09l3.68-.07a1.86,1.86,0,0,1,.33,0,2.77,2.77,0,0,0,1.4,0,1.93,1.93,0,0,1,2,.6.57.57,0,0,1,.19.5.45.45,0,0,0,.12.31c.15.26-.07,1-.18,1.49-.06.27-.09.86-.14,1.59a2.47,2.47,0,0,0,.08.89,2.85,2.85,0,0,1,0,1,10.07,10.07,0,0,0,0,1.82,7.67,7.67,0,0,1,0,1.07c0,.42.09.84.13,1.26a.66.66,0,0,1,0,.28,8.61,8.61,0,0,0-.11,2.48,15.65,15.65,0,0,0,.21,2,.57.57,0,0,1-.29.68c-.12.07-.23.17-.35.23a1.1,1.1,0,0,1-.35.11c-.25,0-.5,0-.74.05s-.41.07-.61.07l-4.44.12c-.76,0-1.53.1-2.3.14-.37,0-.76,0-1.13,0a2.65,2.65,0,0,0-.74.27.61.61,0,0,1-.66,0c-.48-.31-.5-.3-.86.17l-.1.07c-.06,0-.15,0-.18-.1a.8.8,0,0,0-.78-.34,17,17,0,0,1-1.89,0,4.24,4.24,0,0,0-1.7.31,2.38,2.38,0,0,1-1.62,0c-.36-.14-.77-.28-1.06.24-.2-.36-.43-.33-.74-.3a2.44,2.44,0,0,1-1.23,0,3.25,3.25,0,0,0-1.12,0,.91.91,0,0,1-.4,0,.46.46,0,0,0-.49.06.25.25,0,0,1-.17.06c-.45,0-.91,0-1.36-.07a10,10,0,0,0-2.51,0c-.25,0-.5,0-.75,0s-.45.08-.74.14c-.18-.26-.54-.25-.87-.33a.22.22,0,0,0-.14,0c-.55.25-1.11,0-1.66,0s-1.38.08-2.07.1a6.26,6.26,0,0,1-.75,0L48,109.05a.42.42,0,0,0-.28,0c-.28.24-.57.1-.85,0a2.07,2.07,0,0,0-1,0,1.15,1.15,0,0,1-.37,0c-.05,0-.11,0-.14,0-.47.29-1,0-1.51.23a1.67,1.67,0,0,1-.55.08.33.33,0,0,1-.26-.08c-.19-.26-.42-.23-.71-.18a8.1,8.1,0,0,1-1.21,0,.21.21,0,0,1-.13,0c-.21-.22-.44-.12-.7-.07a10.17,10.17,0,0,1-1.11.11c-.06,0-.13-.08-.2-.11a.75.75,0,0,0-.31-.1,8.63,8.63,0,0,0-2.15.16.42.42,0,0,1-.27,0,4.85,4.85,0,0,0-2.14.19.44.44,0,0,0-.22.1.34.34,0,0,1-.53,0c-.16-.14-.3-.12-.4.11a1.77,1.77,0,0,1-.27.37c-.1,0-.15,0-.16,0-.39-.58-1-.43-1.54-.4a4.43,4.43,0,0,1-1.2-.14,1.59,1.59,0,0,0-1.16.16.69.69,0,0,0-.7-.12,1.56,1.56,0,0,1-1.08-.05,1.3,1.3,0,0,0-1.39.09.65.65,0,0,1-.79,0,1.7,1.7,0,0,0-1.23-.16,2.47,2.47,0,0,1-.6,0c-.21,0-.42-.07-.64-.07a9,9,0,0,1-1,0,11.52,11.52,0,0,0-2.49,0c-.09,0-.5,0-1,.07s-.81.08-1.13.12l-1-.13-1.07-.09a1,1,0,0,0-.33,0,1.88,1.88,0,0,1-1.28-.07,2,2,0,0,0-1.15,0,3.29,3.29,0,0,1-1.13,0,1.39,1.39,0,0,0-.78.06.44.44,0,0,1-.27,0,18.42,18.42,0,0,0-2.68.08c-.49,0-1,0-1.46,0l-2,.08h-.1a6.28,6.28,0,0,1-2.08.21"/><path class="cls-1" d="M2.93,19.45a11.62,11.62,0,0,0-.13,1.19c0,.72.08,1.44,0,2.15a8.88,8.88,0,0,0-.06,2.06.61.61,0,0,1,0,.14c0,.57,0,1.13,0,1.69,0,.28,0,.56,0,.84s0,.76,0,1.13,0,.91,0,1.37l0,2.31a6,6,0,0,0,0,1.41,18.79,18.79,0,0,1,.05,2.49A9.34,9.34,0,0,1,2.66,38a6.83,6.83,0,0,0-.1,2q.06.35.09.69c0,.66,0,1.33.08,2a18.45,18.45,0,0,1,0,2.78c0,.82-.09,1.63-.12,2.45,0,.31,0,.63,0,.94.06,1.1.06,2.21.2,3.29a33.29,33.29,0,0,1-.05,4.24c0,.69-.11,1.38-.1,2.07,0,1.45.08,2.9.12,4.34,0,.44,0,.89.06,1.32a4.42,4.42,0,0,1,0,1.81,2.07,2.07,0,0,0,0,.56c0,.36,0,.72,0,1.09s0,1,0,1.46c0,.31,0,.62,0,.93,0,.6,0,1.2,0,1.79s.1.91.12,1.36,0,.82,0,1.23a6.7,6.7,0,0,1,0,1.55,3.55,3.55,0,0,0,0,.8,22,22,0,0,1,0,3.81c0,.4-.06.81-.07,1.22s0,1,0,1.56A10.8,10.8,0,0,1,3,84.52a30.1,30.1,0,0,0,0,3.29c0,1.49.07,3,.11,4.48a8.34,8.34,0,0,0,.1,1.5,4.38,4.38,0,0,1,.09.88c0,.61,0,1.22,0,1.84,0,.36,0,.72,0,1.08s0,.66,0,1c0,.14,0,.28,0,.42l.09,2.53s0,.09,0,.14c.06.48.13,1,.15,1.45a6.66,6.66,0,0,0,.11,2s0,.1,0,.14l0,1.83s0,.06.06.1a2.06,2.06,0,0,0,.26,0,13.75,13.75,0,0,1,1.7,0A7.05,7.05,0,0,0,8,107.12a5.88,5.88,0,0,1,1,0,4.22,4.22,0,0,0,.94,0,12.77,12.77,0,0,1,2.83-.08,2.17,2.17,0,0,1,.41.09,2.56,2.56,0,0,0,.54.1c.57,0,1.13,0,1.7,0,.26,0,.35-.08.39-.42a1,1,0,0,1,.72-1,.43.43,0,0,1,.27.52c-.06.51.2.76.72.73a1.48,1.48,0,0,1,.42,0,7.61,7.61,0,0,0,2.52-.24.85.85,0,0,0,.25-.13c.31-.21.31-.21.56.07s.35.22.53,0c0-.06.07-.14.12-.2.18-.24.34-.25.53,0a.85.85,0,0,1,.14.19.59.59,0,0,0,.71.32,1.24,1.24,0,0,1,.47,0c.32,0,.65,0,1,0a.39.39,0,0,0,.24-.12.8.8,0,0,1,1.06-.1.37.37,0,0,0,.22,0,1.41,1.41,0,0,1,.79,0c.34,0,.68.07,1,.07s.75-.06,1.13,0a1.13,1.13,0,0,0,1-.41s.05,0,.09,0v.32a7.33,7.33,0,0,1,.95-.29,5,5,0,0,1,1,0c.25,0,.49.11.74.14a6.14,6.14,0,0,0,1.77.11c.34,0,.69,0,1,0a3.23,3.23,0,0,0,1.57-.16.31.31,0,0,1,.23,0,1.17,1.17,0,0,0,.74,0c.51-.06,1-.09,1.55-.12a.59.59,0,0,1,.31.09.53.53,0,0,0,.49,0,2.44,2.44,0,0,1,1.49,0,2.42,2.42,0,0,0,.93,0c.35,0,.65-.07.87.32.18-.17.33-.3.47-.45a.46.46,0,0,1,.66,0l-.25.36a.55.55,0,0,0,.63-.09.41.41,0,0,1,.56,0,.46.46,0,0,0,.49,0,.79.79,0,0,1,.76,0,.55.55,0,0,0,.62.05.84.84,0,0,1,.85,0,.59.59,0,0,0,.45.07c.34-.1.72.09,1.05-.13,0,0,.15,0,.22,0,.37.11.73.34,1.12.08a.14.14,0,0,1,.09,0,4.8,4.8,0,0,0,2-.08.45.45,0,0,1,.23,0,10.53,10.53,0,0,0,2.1.21A6.28,6.28,0,0,0,57.8,107a1.18,1.18,0,0,0,.45-.14.57.57,0,0,1,.54,0,2,2,0,0,0,.68.14c.93,0,1.85,0,2.78,0a.88.88,0,0,1,.28,0,3.24,3.24,0,0,0,1.2.07c.66,0,1.31,0,2-.07,0,0,.09,0,.14,0a5.07,5.07,0,0,0,.56,0c.8,0,1.59-.09,2.39-.12.16,0,.31,0,.47,0a7.69,7.69,0,0,0,1.27,0,4.42,4.42,0,0,1,1.81-.06.59.59,0,0,0,.23,0l1.69-.12a.83.83,0,0,1,.42,0,1.22,1.22,0,0,0,.88,0,10,10,0,0,1,2.44-.07h1.36c.51,0,1,0,1.51,0a12.46,12.46,0,0,0,1.36-.11.56.56,0,0,0,.53-.62c0-.85,0-1.7,0-2.55s0-1.51,0-2.26a10,10,0,0,0-.11-2.11,3.28,3.28,0,0,1-.07-1c0-.77.1-1.53.15-2.3a2.41,2.41,0,0,0,0-.38c0-.2-.1-.28-.3-.26a3.11,3.11,0,0,1-.61,0,.63.63,0,0,1-.6-.55l.89-.45A1.16,1.16,0,0,0,81.4,94c-.77,0-1.55.12-2.31.09a5.7,5.7,0,0,0-1.31.06c-.36.06-.71.13-1.07.18a5.48,5.48,0,0,1-.7,0,7.26,7.26,0,0,0-1.54,0A8,8,0,0,1,73,94.5c-1.16,0-2.33,0-3.49.06-.27,0-.54,0-.8,0-.41,0-.82.06-1.23.06H65.29c-.18,0-.37.12-.55.11-1,0-2-.1-3-.15h-.24L60,94.77a1.82,1.82,0,0,1-.33,0c-.39,0-.78-.09-1.17-.11-.73-.05-1.45-.1-2.17-.1s-1.16.09-1.74.13c-.06,0-.14,0-.18,0-.31-.24-.67-.12-1-.12-.61,0-1.21-.1-1.83,0-1,.08-2,0-3,.06a10.48,10.48,0,0,0-2.44,0,.66.66,0,0,1-.14,0l-1.84,0a.8.8,0,0,0-.27,0,.7.7,0,0,1-.55,0,2.64,2.64,0,0,0-.73-.15,5.91,5.91,0,0,0-.94,0c-.8,0-1.6.07-2.4.09-1.19,0-2.39,0-3.58,0-.76,0-1.51,0-2.27,0a30,30,0,0,1-4.24-.08,4,4,0,0,0-.85,0,2.22,2.22,0,0,1-1.25,0c-.07,0-.16,0-.24,0-1,0-1.92.07-2.88.07-.8,0-1.6-.07-2.4-.08a26.8,26.8,0,0,0-2.69,0c-.81.07-1.68-.16-2.42.37a2,2,0,0,0-1.17-.68.51.51,0,0,1-.33-.28.42.42,0,0,1,.16-.34.75.75,0,0,0,.37-.71c0-.21,0-.41,0-.62.1-1.2-.1-2.41-.07-3.62,0-.84-.06-1.69-.11-2.54s-.11-1.54-.16-2.31c-.07-1.16-.13-2.32-.2-3.48,0-.66-.15-1.32-.17-2,0-.83,0-1.67,0-2.5,0-.55.08-1.1.1-1.65C15,73,15,72,15,70.9c0-.84,0-1.69,0-2.53s-.11-1.8-.18-2.69-.13-1.6-.18-2.4-.08-1.48-.11-2.21,0-1.54-.08-2.3c0-.52-.05-1-.07-1.55a1.27,1.27,0,0,1,0-.28c0-.27.08-.53.11-.8.05-.56.1-1.13.13-1.69,0-.28,0-.56,0-.85,0-.66-.1-1.32-.07-2s.16-1.35.24-2a5.89,5.89,0,0,0,.07-1.92,5.08,5.08,0,0,1,0-1.17c0-.61,0-1.22,0-1.83,0-.42,0-.85-.06-1.27,0-.64,0-1.29,0-1.93,0-.42-.09-.84-.13-1.26,0-.17,0-.35,0-.52,0-.72-.07-1.44-.12-2.17s-.14-1.6-.12-2.4a8.65,8.65,0,0,0,0-2,.61.61,0,0,1,0-.19c0-.44.08-.87.1-1.31.05-.79.11-1.57.11-2.36,0-.61-.11-1.22-.14-1.83,0-.37.05-.75,0-1.13,0-.87-.05-1.75-.08-2.63a9.92,9.92,0,0,0-.05-1.64,27.43,27.43,0,0,1-.12-3.62c0-.37,0-.75,0-1.13a5.28,5.28,0,0,1,.17-1.77,1.55,1.55,0,0,0,0-.43,3,3,0,0,1,0-.42c.06-.67.14-1.34.2-2a4.85,4.85,0,0,0,0-.66c0-.44,0-.88,0-1.32a16.85,16.85,0,0,0,0-1.74,14,14,0,0,1-.24-1.72c0-.64,0-1.29,0-1.93s.12-1.09.12-1.64a6.63,6.63,0,0,0-.11-1.26c-.05-.36-.15-.42-.49-.45-.11,0-.25,0-.32,0s-.24-.07-.37,0A.69.69,0,0,1,13,2,26.43,26.43,0,0,1,10.29,2L7.75,2c-.59,0-1.19,0-1.79-.06-.28,0-.55-.11-.83-.15a2,2,0,0,0-.42,0c-.34,0-.68.07-1,.09-.17,0-.34,0-.51,0-.38,0-.55.06-.53.49a1.24,1.24,0,0,1-.08.46,2.34,2.34,0,0,0-.06,1,5.35,5.35,0,0,1,0,1.74,4.41,4.41,0,0,0-.07,1.26c0,.54.1,1.08.17,1.62a5.6,5.6,0,0,0,.21,1.3,4.62,4.62,0,0,1,.12,1.33,3.88,3.88,0,0,1-.16,1.21,8.56,8.56,0,0,0,.08,1.52c0,.77,0,1.54,0,2.31,0,.09,0,.19,0,.28a6.56,6.56,0,0,0,0,1,4.12,4.12,0,0,1,0,1.31c0,.09,0,.19,0,.28s0,.23,0,.35Z"/><path class="cls-1" d="M1.53,11.39c.3-.24.3-.24.08-.75Z"/><path class="cls-1" d="M1.73,17l.1,0c0-.46,0-.48-.32-.45Z"/><path class="cls-1" d="M1.75,15.05a1.19,1.19,0,0,0-.19.17s.05.1.08.15a.65.65,0,0,0,.16-.13S1.78,15.15,1.75,15.05Z"/><path class="cls-1" d="M1.46,4.32c-.05,0-.09-.06-.13-.05a.14.14,0,0,0-.09.08.94.94,0,0,0,.09.12Z"/><path class="cls-1" d="M1.77,18.55s.09-.07.09-.1-.05-.06-.08-.09-.07.05-.08.09S1.74,18.51,1.77,18.55Z"/><path class="cls-1" d="M15.15,4.81c0,.05-.09.08-.08.11a.11.11,0,0,0,.07.08.11.11,0,0,0,.08-.08S15.18,4.86,15.15,4.81Z"/><path class="cls-1" d="M27,109.86c.09-.08.16-.18.22-.17a.17.17,0,1,1,0,.34C27.13,110,27.06,109.94,27,109.86Z"/><path class="cls-1" d="M60.72,109.71c0,.05.07.1.06.11a.54.54,0,0,1-.12.09s0-.08,0-.11S60.68,109.75,60.72,109.71Z"/><path class="cls-1" d="M38.82,109.88l-.07,0s0,0,0-.06l.07,0Z"/><path class="cls-1" d="M2.93,19.45l-.18-.13c0-.12,0-.24,0-.35s0-.19,0-.28a4.12,4.12,0,0,0,0-1.31,6.56,6.56,0,0,1,0-1c0-.09,0-.19,0-.28,0-.77-.08-1.54,0-2.31a8.56,8.56,0,0,1-.08-1.52,3.88,3.88,0,0,0,.16-1.21,4.62,4.62,0,0,0-.12-1.33,5.6,5.6,0,0,1-.21-1.3c-.07-.54-.15-1.08-.17-1.62a4.41,4.41,0,0,1,.07-1.26,5.35,5.35,0,0,0,0-1.74,2.34,2.34,0,0,1,.06-1,1.24,1.24,0,0,0,.08-.46c0-.43.15-.46.53-.49.17,0,.34,0,.51,0,.35,0,.69-.06,1-.09a2,2,0,0,1,.42,0c.28,0,.55.13.83.15.6,0,1.2,0,1.79.06L10.29,2A26.43,26.43,0,0,0,13,2a.69.69,0,0,0,.28-.05c.13-.07.23-.13.37,0s.21,0,.32,0c.34,0,.44.09.49.45a6.63,6.63,0,0,1,.11,1.26c0,.55-.1,1.09-.12,1.64s0,1.29,0,1.93A14,14,0,0,0,14.65,9a16.85,16.85,0,0,1,0,1.74c0,.44,0,.88,0,1.32a4.85,4.85,0,0,1,0,.66c-.06.67-.14,1.34-.2,2a3,3,0,0,0,0,.42,1.55,1.55,0,0,1,0,.43,5.28,5.28,0,0,0-.17,1.77c0,.38-.06.76,0,1.13a27.43,27.43,0,0,0,.12,3.62,9.92,9.92,0,0,1,.05,1.64c0,.88.07,1.76.08,2.63,0,.38-.06.76,0,1.13,0,.61.14,1.22.14,1.83,0,.79-.06,1.57-.11,2.36,0,.44-.07.87-.1,1.31a.61.61,0,0,0,0,.19,8.65,8.65,0,0,1,0,2c0,.8.08,1.6.12,2.4s.08,1.45.12,2.17c0,.17,0,.35,0,.52,0,.42.11.84.13,1.26,0,.64,0,1.29,0,1.93,0,.42.06.85.06,1.27,0,.61,0,1.22,0,1.83a5.08,5.08,0,0,0,0,1.17,5.89,5.89,0,0,1-.07,1.92c-.08.67-.21,1.34-.24,2s0,1.31.07,2c0,.29,0,.57,0,.85,0,.56-.08,1.13-.13,1.69,0,.27-.08.53-.11.8a1.27,1.27,0,0,0,0,.28c0,.51,0,1,.07,1.55,0,.76,0,1.53.08,2.3s.06,1.47.11,2.21.13,1.6.18,2.4.16,1.79.18,2.69,0,1.69,0,2.53c0,1.07,0,2.14-.07,3.21,0,.55-.09,1.1-.1,1.65,0,.83-.06,1.67,0,2.5,0,.66.12,1.32.17,2,.07,1.16.13,2.32.2,3.48,0,.77.11,1.54.16,2.31s.14,1.7.11,2.54c0,1.21.17,2.42.07,3.62,0,.21,0,.41,0,.62a.75.75,0,0,1-.37.71.42.42,0,0,0-.16.34.51.51,0,0,0,.33.28,2,2,0,0,1,1.17.68c.74-.53,1.61-.3,2.42-.37a26.8,26.8,0,0,1,2.69,0c.8,0,1.6.08,2.4.08,1,0,1.92-.05,2.88-.07.08,0,.17,0,.24,0a2.22,2.22,0,0,0,1.25,0,4,4,0,0,1,.85,0,30,30,0,0,0,4.24.08c.76,0,1.51,0,2.27,0,1.19,0,2.39,0,3.58,0,.8,0,1.6,0,2.4-.09a5.91,5.91,0,0,1,.94,0,2.64,2.64,0,0,1,.73.15.7.7,0,0,0,.55,0,.8.8,0,0,1,.27,0l1.84,0a.66.66,0,0,0,.14,0,10.48,10.48,0,0,1,2.44,0c1,0,2,0,3-.06.62-.05,1.22,0,1.83,0,.34,0,.7-.12,1,.12,0,0,.12,0,.18,0,.58,0,1.16-.13,1.74-.13s1.44,0,2.17.1c.39,0,.78.08,1.17.11a1.82,1.82,0,0,0,.33,0l1.55-.13h.24c1,0,2,.11,3,.15.18,0,.37-.11.55-.11H67.5c.41,0,.82,0,1.23-.06.26,0,.53,0,.8,0,1.16,0,2.33,0,3.49-.06a8,8,0,0,0,1.45-.13,7.26,7.26,0,0,1,1.54,0,5.48,5.48,0,0,0,.7,0c.36,0,.71-.12,1.07-.18a5.7,5.7,0,0,1,1.31-.06c.76,0,1.54-.05,2.31-.09a1.16,1.16,0,0,1,.71.09l-.89.45a.63.63,0,0,0,.6.55,3.11,3.11,0,0,0,.61,0c.2,0,.3.06.3.26a2.41,2.41,0,0,1,0,.38c0,.77-.12,1.53-.15,2.3a3.28,3.28,0,0,0,.07,1,10,10,0,0,1,.11,2.11c0,.75,0,1.51,0,2.26s0,1.7,0,2.55a.56.56,0,0,1-.53.62,12.46,12.46,0,0,1-1.36.11c-.5,0-1,0-1.51,0H78a10,10,0,0,0-2.44.07,1.22,1.22,0,0,1-.88,0,.83.83,0,0,0-.42,0l-1.69.12a.59.59,0,0,1-.23,0,4.42,4.42,0,0,0-1.81.06,7.69,7.69,0,0,1-1.27,0c-.16,0-.31,0-.47,0-.8,0-1.59.08-2.39.12a5.07,5.07,0,0,1-.56,0s-.09,0-.14,0c-.65,0-1.3.06-2,.07a3.24,3.24,0,0,1-1.2-.07.88.88,0,0,0-.28,0c-.93,0-1.85,0-2.78,0a2,2,0,0,1-.68-.14.57.57,0,0,0-.54,0,1.18,1.18,0,0,1-.45.14,6.28,6.28,0,0,1-1.77.11,10.53,10.53,0,0,1-2.1-.21.45.45,0,0,0-.23,0,4.8,4.8,0,0,1-2,.08.14.14,0,0,0-.09,0c-.39.26-.75,0-1.12-.08-.07,0-.18-.07-.22,0-.33.22-.71,0-1.05.13a.59.59,0,0,1-.45-.07.84.84,0,0,0-.85,0,.55.55,0,0,1-.62-.05.79.79,0,0,0-.76,0,.46.46,0,0,1-.49,0,.41.41,0,0,0-.56,0,.55.55,0,0,1-.63.09l.25-.36a.46.46,0,0,0-.66,0c-.14.15-.29.28-.47.45-.22-.39-.52-.36-.87-.32a2.42,2.42,0,0,1-.93,0,2.44,2.44,0,0,0-1.49,0,.53.53,0,0,1-.49,0,.59.59,0,0,0-.31-.09c-.52,0-1,.06-1.55.12a1.17,1.17,0,0,1-.74,0,.31.31,0,0,0-.23,0,3.23,3.23,0,0,1-1.57.16c-.35,0-.7-.07-1,0a6.14,6.14,0,0,1-1.77-.11c-.25,0-.49-.12-.74-.14a5,5,0,0,0-1,0,7.33,7.33,0,0,0-.95.29v-.32s-.08,0-.09,0a1.13,1.13,0,0,1-1,.41c-.38,0-.76,0-1.13,0s-.69,0-1-.07a1.41,1.41,0,0,0-.79,0,.37.37,0,0,1-.22,0,.8.8,0,0,0-1.06.1.39.39,0,0,1-.24.12c-.32,0-.65,0-1,0a1.24,1.24,0,0,0-.47,0,.59.59,0,0,1-.71-.32.85.85,0,0,0-.14-.19c-.19-.22-.35-.21-.53,0,0,.06-.07.14-.12.2-.18.24-.33.24-.53,0s-.25-.28-.56-.07a.85.85,0,0,1-.25.13,7.61,7.61,0,0,1-2.52.24,1.48,1.48,0,0,0-.42,0c-.52,0-.78-.22-.72-.73a.43.43,0,0,0-.27-.52,1,1,0,0,0-.72,1c0,.34-.13.42-.39.42-.57,0-1.13,0-1.7,0a2.56,2.56,0,0,1-.54-.1,2.17,2.17,0,0,0-.41-.09,12.77,12.77,0,0,0-2.83.08,4.22,4.22,0,0,1-.94,0,5.88,5.88,0,0,0-1,0,7.05,7.05,0,0,1-2.29.16,13.75,13.75,0,0,0-1.7,0,2.06,2.06,0,0,1-.26,0s-.06-.07-.06-.1l0-1.83s0-.1,0-.14a6.66,6.66,0,0,1-.11-2c0-.48-.09-1-.15-1.45,0,0,0-.09,0-.14L3.24,99c0-.14,0-.28,0-.42,0-.33,0-.66,0-1s0-.72,0-1.08c0-.62,0-1.23,0-1.84a4.38,4.38,0,0,0-.09-.88,8.34,8.34,0,0,1-.1-1.5c0-1.49-.06-3-.11-4.48a30.1,30.1,0,0,1,0-3.29,10.8,10.8,0,0,0-.06-1.27c0-.52,0-1,0-1.56s0-.82.07-1.22a22,22,0,0,0,0-3.81,3.55,3.55,0,0,1,0-.8,6.7,6.7,0,0,0,0-1.55c0-.41,0-.82,0-1.23S3,72.18,3,71.72s0-1.19,0-1.79c0-.31,0-.62,0-.93,0-.49,0-1,0-1.46s0-.73,0-1.09a2.07,2.07,0,0,1,0-.56,4.42,4.42,0,0,0,0-1.81c0-.43,0-.88-.06-1.32,0-1.44-.1-2.89-.12-4.34,0-.69.11-1.38.1-2.07a33.29,33.29,0,0,0,.05-4.24c-.14-1.08-.14-2.19-.2-3.29,0-.31,0-.63,0-.94,0-.82.09-1.63.12-2.45a18.45,18.45,0,0,0,0-2.78c-.07-.65,0-1.32-.08-2q0-.35-.09-.69a6.83,6.83,0,0,1,.1-2,9.34,9.34,0,0,0,.15-1.73,18.79,18.79,0,0,0-.05-2.49,6,6,0,0,1,0-1.41l0-2.31c0-.46,0-.91,0-1.37s0-.75,0-1.13,0-.56,0-.84c0-.56,0-1.12,0-1.69a.61.61,0,0,0,0-.14,8.88,8.88,0,0,1,.06-2.06c.06-.71,0-1.43,0-2.15A11.62,11.62,0,0,1,2.93,19.45ZM29,102.86c-.48.26-.58.49-.44.86.07.19.2.24.35.1s.23-.25.36-.39Zm-5.23,3.46a1.51,1.51,0,0,0-.13.22s.08.1.09.09a.38.38,0,0,0,.15-.13S23.81,106.41,23.75,106.32ZM65.5,106l.07,0a.41.41,0,0,0,0-.08l-.06,0Z"/><path class="cls-1" d="M1.53,11.39l.08-.75C1.83,11.15,1.83,11.15,1.53,11.39Z"/><path class="cls-1" d="M1.73,17l-.22-.49c.36,0,.37,0,.32.45Z"/><path class="cls-1" d="M1.75,15.05c0,.1.07.17.05.19a.65.65,0,0,1-.16.13s-.09-.12-.08-.15A1.19,1.19,0,0,1,1.75,15.05Z"/><path class="cls-1" d="M1.46,4.32l-.13.15a.94.94,0,0,1-.09-.12.14.14,0,0,1,.09-.08S1.41,4.3,1.46,4.32Z"/><path class="cls-1" d="M1.77,18.55s-.07-.08-.07-.1.05-.06.08-.09.08.06.08.09S1.81,18.51,1.77,18.55Z"/><path class="cls-1" d="M15.15,4.81c0,.05.08.08.07.11a.11.11,0,0,1-.08.08.11.11,0,0,1-.07-.08S15.11,4.86,15.15,4.81Z"/><path class="cls-1" d="M29,102.86l.27.57c-.13.14-.24.28-.36.39s-.28.09-.35-.1C28.4,103.35,28.5,103.12,29,102.86Z"/><path class="cls-1" d="M23.75,106.32c.06.09.13.16.11.18a.38.38,0,0,1-.15.13s-.09-.07-.09-.09A1.51,1.51,0,0,1,23.75,106.32Z"/><path class="cls-1" d="M65.5,106l0-.07.06,0a.41.41,0,0,1,0,.08Z"/></svg>