<svg id="M" xmlns="http://www.w3.org/2000/svg" viewBox="0 0 86 112"><defs><style>.cls-1{stroke:#000;stroke-miterlimit:10;}</style></defs><path class="cls-1" d="M69.65,27.71a2.8,2.8,0,0,0-.39.46A21.27,21.27,0,0,1,67.93,30a13.13,13.13,0,0,0-.81,1.28c-.23.41-.43.85-.65,1.27,0,.07-.14.12-.21.19a4.51,4.51,0,0,0-1,1.42.75.75,0,0,1-.15.24,2.69,2.69,0,0,0-.38.59,4.09,4.09,0,0,1-.92,1.36c-.06.07-.16.14-.17.23-.13.7-.74,1.13-1,1.75a3.82,3.82,0,0,1-.81.91c-.11.13-.2.28-.31.41l-.29.36c0,.05-.11.08-.14.13-.36.67-.71,1.34-1.1,2a5.55,5.55,0,0,1-.71,1,4.59,4.59,0,0,0-.9,1.26,15.84,15.84,0,0,1-1.23,1.87c-.35.53-.7,1.07-1,1.61-.09.15-.15.32-.25.46-.37.54-.76,1.06-1.12,1.6s-.56,1-.87,1.42c-.46.67-.94,1.31-1.42,2s-.92,1.25-1.35,1.9q-.83,1.23-1.59,2.49c-.38.62-.71,1.28-1.08,1.91a8.78,8.78,0,0,1-.64,1.06,13.57,13.57,0,0,0-1.08,1.89c-.34.64-.81,1.22-1.19,1.84s-.7,1.21-1,1.83a1.67,1.67,0,0,1-1,1,1.56,1.56,0,0,1-.54.15.72.72,0,0,1-.65-.55,7.51,7.51,0,0,0-1.1-2.05c-.28-.42-.61-.81-.89-1.23-.52-.76-1-1.55-1.53-2.3s-1.06-1.37-1.53-2.08-.93-1.52-1.39-2.28c-.33-.54-.67-1.08-1-1.61a20.79,20.79,0,0,1-1.32-2,6.81,6.81,0,0,0-.53-.79l-1.25-1.69c-.16-.21-.35-.4-.51-.62s-.38-.55-.57-.82-.3-.49-.47-.72c-.55-.8-1.08-1.61-1.66-2.38-.4-.53-.88-1-1.29-1.52A15.31,15.31,0,0,1,24.84,41c-.33-.81-.68-1.61-1.07-2.38-.29-.57-.67-1.09-1-1.64a24.47,24.47,0,0,0-1.55-2.22,17.52,17.52,0,0,1-1.53-2.19c-.32-.64-.78-1.2-1.1-1.83a20.79,20.79,0,0,0-1.26-1.85c-.05-.08-.09-.16-.17-.32a1.42,1.42,0,0,0-.1.26c0,1,0,2.07,0,3.11,0,.53.15,1.06.19,1.59s0,1.37.07,2,.12,1.49.17,2.24c0,.33,0,.67,0,1,0,.54,0,1.08,0,1.62,0,.89-.07,1.78-.11,2.67-.07,1.29-.17,2.57-.2,3.86s0,2.32,0,3.48c0,.66,0,1.31,0,2,0,.37-.06.75-.07,1.12a2.45,2.45,0,0,0,0,.38.89.89,0,0,1,0,.32A4.31,4.31,0,0,0,17.16,56a.66.66,0,0,1,0,.24,16.15,16.15,0,0,0,0,3c0,1.16,0,2.32-.06,3.48a24.55,24.55,0,0,0,.05,2.57,2.13,2.13,0,0,0,.19.78.81.81,0,0,1,0,.68,1.81,1.81,0,0,0-.12.64c0,.58,0,1.15,0,1.72a2.32,2.32,0,0,0,0,.53,8.35,8.35,0,0,1,.17,2.18A7.28,7.28,0,0,0,17.48,73a13.61,13.61,0,0,1-.05,3.19c0,.34,0,.69-.05,1s-.05.64-.07.95a3.46,3.46,0,0,0,.1,1.66.76.76,0,0,1,0,.37c-.05.83-.14,1.65-.15,2.47s0,1.72.05,2.58c0,.22,0,.45,0,.67,0,.49.09,1,.14,1.47a1.61,1.61,0,0,1,0,.38,11,11,0,0,0,.11,2.56,2.59,2.59,0,0,1-.07.55,1.57,1.57,0,0,0-.09.51,7,7,0,0,0,.1,1.65.7.7,0,0,1,0,.29c-.05,1.3-.14,2.61-.12,3.91,0,.84,0,1.68,0,2.52a4.86,4.86,0,0,0,.06.85c.09.89.2,1.77.27,2.66,0,.49,0,1,0,1.48a16.82,16.82,0,0,1-.12,2.56,4.34,4.34,0,0,0,.08,1.08.46.46,0,0,1-.25.52l-.5.27c-.19,0-.47.1-.81.15a22.86,22.86,0,0,1-3.29,0c-.69,0-1.37.07-2.05,0-.86,0-1.71,0-2.57.08a13.6,13.6,0,0,0-1.56.09,8.13,8.13,0,0,1-1.48,0l-1.81-.06a1.66,1.66,0,0,0-.37.09.62.62,0,0,1-.78-.3,3.39,3.39,0,0,1-.46-1.68c0-.41,0-.83,0-1.24s.05-.57.05-.86a39.58,39.58,0,0,0-.09-4.62c0-.17,0-.35,0-.52,0-.75,0-1.49-.05-2.24a.62.62,0,0,1,0-.23.9.9,0,0,0,0-.91c0-.05,0-.18,0-.27a10,10,0,0,0,.12-3.09.81.81,0,0,0-.52-.73c.51-.61.34-1.31.36-2,0-.38,0-.76,0-1.14a3.06,3.06,0,0,0,0-.32A3,3,0,0,1,1.55,89c0-.33.05-.67.05-1,0-.6,0-1.21,0-1.81a.27.27,0,0,1,0-.09c.14-1.32-.05-2.65.21-4a.3.3,0,0,0,0-.23,2.7,2.7,0,0,1-.09-1.23c0-1.21,0-2.42,0-3.63,0-.38.08-.76.1-1.14.07-1.9.13-3.79.2-5.69,0-.2,0-.41,0-.62a1.23,1.23,0,0,0,0-.47,5.1,5.1,0,0,1-.23-2c0-.57,0-1.14,0-1.72,0-1,0-2-.05-3,0-.33,0-.66,0-1,.06-1.07.11-2.13.16-3.2,0-.13,0-.25,0-.38,0-.6,0-1.21-.07-1.81,0-1-.11-2-.13-3,0-.67.07-1.34,0-2-.1-1.18,0-2.36,0-3.54,0-.51.09-1,.12-1.52a20.84,20.84,0,0,0-.1-3.62,9.45,9.45,0,0,1,0-1.19c0-.58,0-1.15,0-1.72,0-.15,0-.29,0-.43,0-1.31,0-2.61,0-3.92s0-2.35.09-3.53,0-2.32,0-3.47c0-.24,0-.48,0-.72,0-1,0-2.07,0-3.1,0-.67.12-1.33.17-2a6.76,6.76,0,0,0,0-.9c0-.48-.09-1-.13-1.43a1.2,1.2,0,0,1,0-.38A10.29,10.29,0,0,0,2,17.8c0-.28.09-.57.11-.85a13.39,13.39,0,0,0,0-2.9,13.45,13.45,0,0,1,0-1.42c0-.77,0-1.53,0-2.29s0-1.5.06-2.24a6,6,0,0,0-.05-1.27c0-.1-.06-.21,0-.29A2.23,2.23,0,0,0,2,5.14a1,1,0,0,1,0-.38A11.27,11.27,0,0,0,2,2.23,2.82,2.82,0,0,1,2.3.88.55.55,0,0,1,2.61.63,1.07,1.07,0,0,0,3.18.32a.34.34,0,0,1,.55,0,.55.55,0,0,0,.51.16,6.72,6.72,0,0,1,1.1,0A11.4,11.4,0,0,0,7.67.28,7.4,7.4,0,0,1,9,.24a19.51,19.51,0,0,0,3,0c.72-.05,1.43-.1,2.14-.12.49,0,1,0,1.48,0s.85,0,1.28-.08.46,0,.56.36a4.84,4.84,0,0,0,.17.54,7.45,7.45,0,0,0,.46.77c.05.1.14.18.19.28a8,8,0,0,0,1.18,1.71l.06.08c.4.83,1,1.53,1.47,2.32.31.54.72,1,1,1.52.43.71,1,1.34,1.4,2a13.67,13.67,0,0,0,1.23,1.68A16.37,16.37,0,0,1,25.71,13c.21.32.47.61.67.93s.48.9.73,1.34A31.38,31.38,0,0,0,29,18.15a7.19,7.19,0,0,1,.61,1.13,11.42,11.42,0,0,0,1,1.65c.19.27.44.49.63.76.45.67.89,1.34,1.33,2,.09.14.15.31.24.46a8.12,8.12,0,0,0,.69,1.13A9.18,9.18,0,0,1,35,27.8c.26.68.55,1.36.84,2a3.24,3.24,0,0,0,.33.52c.13.2.28.39.39.6a5.74,5.74,0,0,0,.82,1.34,1.8,1.8,0,0,1,.17.34,5.39,5.39,0,0,0,.52.79,1.84,1.84,0,0,1,.55.82.2.2,0,0,0,0,.08L40,36.18a1.66,1.66,0,0,1,.13.14,11.69,11.69,0,0,0,1.3,2,.57.57,0,0,1,.14.25,1.63,1.63,0,0,0,.55.92,2.07,2.07,0,0,1,.5,1,.88.88,0,0,0,.18.29,1.15,1.15,0,0,0,.27-.21c.46-.67.89-1.36,1.36-2,.37-.51.79-1,1.18-1.47,0-.06.06-.15.11-.21.22-.29.46-.56.67-.86s.55-.8.82-1.2c.09-.13.18-.25.28-.37s.21-.18.24-.28a1.59,1.59,0,0,1,.51-.78s.08-.08.08-.12c0-.44.38-.67.64-1,0,0,.11-.09.12-.15a5.67,5.67,0,0,1,.77-1.51,7.31,7.31,0,0,1,.56-.81c.36-.49.73-1,1.09-1.44l.14-.19c.33-.51.67-1,1-1.53a20.61,20.61,0,0,0,1.29-1.91,8.57,8.57,0,0,1,.87-1.23.88.88,0,0,0,.18-.29,6.22,6.22,0,0,1,.92-1.6,8.25,8.25,0,0,1,.79-.89,4.34,4.34,0,0,0,.48-.58,16.75,16.75,0,0,0,1.3-2.44,7.68,7.68,0,0,1,.86-1.42c.61-.9,1.24-1.77,1.85-2.66.3-.43.57-.88.86-1.32A.85.85,0,0,1,62.3,12a1.73,1.73,0,0,0,.62-.82c.15-.3.34-.57.52-.86l.19-.33A9.91,9.91,0,0,1,65,7.69c.1-.12.14-.29.23-.42a2,2,0,0,1,.45-.54,2.08,2.08,0,0,0,.74-.85,7.38,7.38,0,0,0,.4-.91c.11-.25.2-.51.53-.56.17,0,.23-.14.21-.31a1.93,1.93,0,0,1,.54-1.27s.09-.06.11-.1L69.39.9a1.88,1.88,0,0,1,.36-.5.75.75,0,0,1,.51-.21,15.2,15.2,0,0,0,1.65.09c.14,0,.28-.06.42-.07a2.7,2.7,0,0,1,.85,0,4,4,0,0,0,1.46,0c.33,0,.66-.09,1-.13.1,0,.22,0,.28,0a1.53,1.53,0,0,0,.84.11,19,19,0,0,1,2,0,5.51,5.51,0,0,1,1.62.16s.07,0,.08,0c.36-.36.82-.12,1.23-.21a5.71,5.71,0,0,1,1.24,0,7.53,7.53,0,0,1,1,0A11,11,0,0,1,85.16.5a.22.22,0,0,1,.14.17c0,.31.24.58.1.93a2,2,0,0,0,0,.69,10.84,10.84,0,0,1,0,1.14c-.06.7.08,1.4,0,2.11a7.19,7.19,0,0,0,.07,1.23,2,2,0,0,1-.16,1.33,1.12,1.12,0,0,1,.18.83c0,.47,0,.94,0,1.41a16,16,0,0,1-.07,3.1.65.65,0,0,0,0,.24,5.12,5.12,0,0,1,0,1.61c0,.19,0,.38,0,.57,0,.7-.06,1.4-.09,2.09,0,.19,0,.39,0,.57-.08.94-.18,1.87-.25,2.8,0,.24,0,.48,0,.71,0,.43-.08.87,0,1.29,0,.83-.11,1.65-.09,2.47,0,.62.09,1.24.13,1.86.06,1.09.11,2.19.16,3.29s.09,2.38.13,3.57a1.94,1.94,0,0,1,0,.24,10.57,10.57,0,0,0-.14,1.13c0,1.16,0,2.32-.07,3.48,0,.49,0,1,0,1.47a33.12,33.12,0,0,0-.09,3.73,8.48,8.48,0,0,1,0,1,4.92,4.92,0,0,0,.14,1.08,8.6,8.6,0,0,1,.11,1.61c0,.89,0,1.78,0,2.67a1.83,1.83,0,0,0,0,.33,7,7,0,0,1-.08,2.09c0,.38,0,.76-.07,1.14s.19.26.3.41a2.56,2.56,0,0,0-.11.24,1.82,1.82,0,0,0-.17.58c0,1.13,0,2.26,0,3.39,0,.73-.15,1.45-.2,2.18s-.07,1.49-.1,2.23c0,.24,0,.48-.06.71a12.48,12.48,0,0,0-.05,2.52c.1,1.44.13,2.89.14,4.34,0,.6-.13,1.2-.18,1.8a27.59,27.59,0,0,0-.18,3c0,.62-.07,1.23-.06,1.84,0,.85,0,1.69,0,2.53s.08,1.49,0,2.23a11.07,11.07,0,0,0-.06,1.15c0,.84.06,1.68.08,2.52,0,.6,0,1.2,0,1.8,0,.26,0,.51,0,.76s0,.79,0,1.18c0,.84,0,1.68,0,2.52,0,.27,0,.54,0,.81l-.09,2.14c0,.48,0,1,0,1.42,0,.62,0,1.24,0,1.86s.1,1.53.12,2.29c0,.33-.07.66-.09,1,0,.84-.1,1.68-.11,2.52s.06,1.66.11,2.49a3.68,3.68,0,0,0,.16.54,1,1,0,0,1,.08.32,1.86,1.86,0,0,0,.18,1.22l-.44.15a.65.65,0,0,1,0,.33,1.41,1.41,0,0,1-1.69.83.57.57,0,0,0-.39-.13.4.4,0,0,0-.22.08,1.25,1.25,0,0,1-.83.16c-.66,0-1.33,0-2,0a.61.61,0,0,1-.19,0,8.82,8.82,0,0,0-2.9-.07,4.11,4.11,0,0,1-.7,0l-.14,0A27.85,27.85,0,0,1,72,109.9a.93.93,0,0,0-.49.09c-.27.12-.52.3-.8.43a.82.82,0,0,0-.48.42c-.09.21-.27.21-.41,0a2.09,2.09,0,0,1-.3-.64c-.09-.29-.09-.59-.41-.77-.06,0-.08-.19-.07-.29s.07-.31.08-.46c0-.42,0-.83,0-1.24,0-1,.24-2,.13-3.09a13.15,13.15,0,0,1,.06-1.77.89.89,0,0,0-.06-.46,1.89,1.89,0,0,1-.08-.94c.07-.83.16-1.65.21-2.47,0-.43,0-.86,0-1.29v-.38c0-.54,0-1.08,0-1.61,0-1,0-2.07-.05-3.1a4.91,4.91,0,0,0,0-.86,6.57,6.57,0,0,1,0-1.47c0-.25,0-.51,0-.76.06-.84.15-1.68.21-2.52s.11-1.65.16-2.47.08-1.36.13-2a1.31,1.31,0,0,0,0-.28A6.79,6.79,0,0,1,69.7,80c0-.81,0-1.63.07-2.43.15-1.42,0-2.84.15-4.25s-.12-2.64,0-4c0-.7.07-1.4.06-2.1s-.08-1.46-.11-2.19c0-.43,0-.86,0-1.29,0-.25-.06-.51-.07-.76-.07-1.38-.15-2.76-.19-4.15,0-.74,0-1.49,0-2.24,0-.45,0-.89,0-1.33s0-.86,0-1.29,0-1,.07-1.57a29.12,29.12,0,0,0,0-3.1c0-.74.07-1.49.11-2.24,0-.25,0-.51,0-.76a18.24,18.24,0,0,1,.21-3.47,15.26,15.26,0,0,0,0-2.24c0-.4,0-.8,0-1.19,0-.59-.11-1.18-.14-1.76s0-1.34,0-2A12.56,12.56,0,0,1,70.12,33a1.85,1.85,0,0,0,0-.66,14,14,0,0,1-.27-2.66c0-.36-.09-.71-.1-1.07a6.67,6.67,0,0,1,.07-.89ZM3.81,102.15a.49.49,0,0,0-.08.63.91.91,0,0,1,.07.41c0,.3,0,.6,0,.9s0,.42,0,.62a7.2,7.2,0,0,0,0,1.23,1.91,1.91,0,0,1,0,.92.74.74,0,0,0,.78.93l2.28-.07c.29,0,.57-.07.85-.08a3.59,3.59,0,0,0,1.42-.1.53.53,0,0,1,.28,0c.5,0,1-.18,1.49,0,0,0,.09,0,.14,0a19.88,19.88,0,0,1,2.18-.1c.48,0,1,0,1.43,0a.81.81,0,0,0,.92-.76,12.53,12.53,0,0,0,.14-1.93c0-1.13-.14-2.26-.21-3.38a27.24,27.24,0,0,1-.1-2.86c0-.76,0-1.53,0-2.29a17.61,17.61,0,0,0,0-2.62,10.45,10.45,0,0,1,0-1.48c.08-1.4.12-2.8.1-4.2,0-.58,0-1.15-.08-1.72a28.05,28.05,0,0,1-.08-4.2c0-.44,0-.89,0-1.34,0-1,0-2.06.09-3.09,0-.59.1-1.18.13-1.77s0-1.46.09-2.19A9.14,9.14,0,0,0,15.53,71a3.34,3.34,0,0,1-.11-1.13,18.41,18.41,0,0,0,0-3.15c0-.92-.14-1.84-.19-2.76q0-1,0-2.1c0-.81.09-1.62.11-2.42,0-.64,0-1.27,0-1.91s0-1.55,0-2.33c0-.48,0-1,0-1.43,0-.94.05-1.88.08-2.82a6.43,6.43,0,0,1,0-.76,25.56,25.56,0,0,0,0-4c0-.54,0-1.08.05-1.61.08-.83.18-1.65.24-2.47,0-.43,0-.86,0-1.29,0-.85.07-1.69.08-2.53s0-1.85-.05-2.77c0-.67-.08-1.34-.13-2-.08-1.13-.21-2.25-.24-3.38,0-.9.07-1.81.11-2.72,0-.43,0-.86.06-1.29a.94.94,0,0,1,.54-.84,1.6,1.6,0,0,1,1.22.36,4.67,4.67,0,0,1,.63,1.1c.58,1.09,1.5,1.94,2.06,3a19.89,19.89,0,0,0,1,1.73c.33.53.69,1,1.06,1.53s.58.68.83,1.05c.43.66.82,1.35,1.25,2a9.19,9.19,0,0,1,.58.81,9.44,9.44,0,0,1,.94,1.78c.08.33.39.61.45.93a8.29,8.29,0,0,0,.71,1.61,3.21,3.21,0,0,0,.46.88c.46.63,1,1.23,1.45,1.83s1.23,1.47,1.8,2.23S31.76,48,32.4,48.93c.23.32.48.63.68,1a1.92,1.92,0,0,0,.53.67.91.91,0,0,1,.18.21c.27.38.53.76.8,1.13a8.1,8.1,0,0,1,.85,1.25A7.66,7.66,0,0,0,36,54l.88,1.23a1.47,1.47,0,0,1,.3.48,2.84,2.84,0,0,0,.44.93c.67,1.18,1.48,2.25,2.22,3.37.2.31.45.58.67.87a7.89,7.89,0,0,0,1,1.35.53.53,0,0,1,.13.2,11.38,11.38,0,0,0,1.66,2.34,2,2,0,0,0,.32-.35c.42-.88,1.13-1.58,1.5-2.49,0,0,.06-.07.08-.11.16-.26.31-.52.46-.78a2.69,2.69,0,0,1,.16-.29c.18-.26.38-.51.55-.78s.48-.85.73-1.28c.35-.59.69-1.18,1.06-1.76s.6-1.59,1.31-2.14c0,0,0,0,0-.08a17.1,17.1,0,0,1,2-2.82.45.45,0,0,0,.06-.12,6.76,6.76,0,0,1,.46-.72,12,12,0,0,0,1.36-1.95,8.26,8.26,0,0,1,1.31-2,1.43,1.43,0,0,0,.14-.2l1.6-2.6c.17-.26.38-.51.56-.77.37-.52.73-1,1.08-1.57.12-.17.18-.37.3-.54.37-.53.77-1,1.13-1.58a9.43,9.43,0,0,1,1.38-2,.69.69,0,0,0,.13-.2c.39-.54.77-1.09,1.15-1.63a4.37,4.37,0,0,0,.92-1.44.82.82,0,0,1,.12-.2l1.1-1.62c.16-.25.29-.53.46-.78a15.39,15.39,0,0,1,1.12-1.53,15,15,0,0,0,1.06-1.58c.44-.62.86-1.26,1.29-1.89a4.59,4.59,0,0,0,1-1.72c0-.12.17-.23.27-.32s.2-.07.25-.14c.24-.4.57-.25.87-.12s.6.3,1,.49c0,.78,0,1.59,0,2.4s-.06,1.62,0,2.42.1,1.62.2,2.43a8.15,8.15,0,0,1,0,1.71,19.26,19.26,0,0,0,0,2.15c0,1.05.13,2.09.17,3.14a30.78,30.78,0,0,1,0,3.72c-.06.61-.13,1.21-.16,1.81,0,.95,0,1.91-.09,2.86,0,.4-.06.8-.06,1.2,0,1.16,0,2.32,0,3.48,0,.41-.06.83-.07,1.24,0,1.37-.07,2.74-.1,4.11,0,.44,0,.89,0,1.33,0,1.12.12,2.23.17,3.34,0,.83,0,1.66.09,2.49s.14,1.94.16,2.91,0,1.88,0,2.82c0,.38.06.76.07,1.14,0,1.32-.08,2.64,0,4a22,22,0,0,1-.12,2.43c0,.64-.06,1.27-.07,1.91,0,.49,0,1,0,1.48,0,.29,0,.58,0,.86a11.88,11.88,0,0,1-.07,2.07,20,20,0,0,1-.25,3.28,5,5,0,0,1-.07,1.59c0,1.12,0,2.25,0,3.37,0,.49,0,1,0,1.47,0,.33,0,.66,0,1,0,.65,0,1.31,0,2,0,.11,0,.22,0,.33a9.28,9.28,0,0,1,0,2,11.25,11.25,0,0,0-.11,1.28c0,.86,0,1.72,0,2.58,0,.51,0,1,0,1.5.64.22.69.29.56.91l-.36,1.64c-.09.42-.06.43.38.49.9.13,1.8.25,2.69.42a7.67,7.67,0,0,0,2.66,0,7.78,7.78,0,0,1,1.18-.06c1.06,0,2.1.11,3.16.16a2.27,2.27,0,0,0,.52,0,.33.33,0,0,0,.29-.33c0-.32,0-.64,0-1a1.09,1.09,0,0,0-.16-.38,1.55,1.55,0,0,0,.16-.52,8.21,8.21,0,0,0-.18-.83.82.82,0,0,1,0-.31,1.63,1.63,0,0,0,.11-.31c0-.52.1-1,.13-1.57s0-1.15,0-1.72c0-.92,0-1.85,0-2.77,0-.41-.07-.82-.08-1.23,0-.6,0-1.2,0-1.8,0-.37,0-.73,0-1.1,0-1.19,0-2.38,0-3.57,0-.82,0-1.63,0-2.44,0-.51,0-1,0-1.53a16.37,16.37,0,0,0,0-2.71,2.21,2.21,0,0,1,0-.89,2.79,2.79,0,0,0,.08-1c0-.73-.07-1.46-.07-2.19,0-1.56.13-3.11.11-4.67,0-.67.08-1.33.13-2,.09-1.13.19-2.25.27-3.38A17.59,17.59,0,0,0,83,67.55a31,31,0,0,1,0-3.34c0-.45.11-.89.1-1.33A11.23,11.23,0,0,1,83.19,61c0-.3.06-.61.08-.91l.12-2.47c0-.21,0-.41,0-.62,0-.91,0-1.82,0-2.72s.09-1.65.11-2.48c0-.54-.06-1.08-.07-1.62,0-.72,0-1.43,0-2.15s-.18-1.68-.18-2.52a24.68,24.68,0,0,1,.06-3.1,16.46,16.46,0,0,0,0-1.72c0-.7,0-1.4,0-2.1a15.63,15.63,0,0,1,0-1.81c.09-1,.11-2,.14-3a14.43,14.43,0,0,0,0-1.86,10.32,10.32,0,0,1,0-2.08,2.56,2.56,0,0,0,0-.62,17.68,17.68,0,0,1-.2-2.9c0-.65,0-1.31,0-2,.06-1.33.24-2.65.25-4A14.13,14.13,0,0,1,83.79,19c.07-.82.12-1.65.18-2.47,0-.38,0-.76,0-1.15,0-.79,0-1.58.07-2.37,0-.34,0-.67,0-1s0-.76,0-1.14c0-.68-.08-1.36-.1-2s0-1.11,0-1.67-.09-1.4-.07-2.1a10,10,0,0,1,0-1.64,7.08,7.08,0,0,0,0-1.38c0-.21-.11-.31-.32-.33-.63-.07-1.25-.18-1.89-.21a7.9,7.9,0,0,0-1.61.08,6.28,6.28,0,0,1-2,0,6.53,6.53,0,0,0-.88,0,3.88,3.88,0,0,1-.48,0,5.64,5.64,0,0,0-1.31-.07,12.6,12.6,0,0,1-1.74,0,7,7,0,0,1-2-.22,1.22,1.22,0,0,0-1,.28,1.88,1.88,0,0,0-.63.76c-.23.43-.69.73-.69,1.28,0,.08-.14.16-.22.24a3.8,3.8,0,0,0-.51.56c-.33.54-.62,1.11-.92,1.66,0,0,0,0-.1.08l-.16,0h-.22c.19.5.17.49-.14.9a4.65,4.65,0,0,0-.74,1.09,7.24,7.24,0,0,1-.81,1.28L64,11.59a1.43,1.43,0,0,0-.08.22,1.49,1.49,0,0,1-.45.76,2.35,2.35,0,0,0-.35.55,3,3,0,0,1-.46.71,4.78,4.78,0,0,0-1.14,1.62,6.76,6.76,0,0,1-.9,1.39c-.19.21-.46.43-.5.68a2.9,2.9,0,0,1-.66,1.19,2.61,2.61,0,0,0-.19.27c-.28.5-.53,1-.82,1.51s-.38.79-.87.87c0,.17,0,.34,0,.45a5.9,5.9,0,0,1-.66,1,4.77,4.77,0,0,0-1.15,1.66.94.94,0,0,1-.16.23c-.2.29-.41.57-.6.86s-.34.54-.52.8-.44.62-.66.94-.55.92-.89,1.33a5.9,5.9,0,0,0-.58.74c-.17.28-.38.54-.56.82-.53.83-1,1.71-1.59,2.48a10.93,10.93,0,0,0-.9,1.49,2.59,2.59,0,0,1-.32.47c-.28.32-.58.63-.85,1s-.36.47-.55.72l-.4-.22c.32.5,0,.84-.25,1.21a3.75,3.75,0,0,0-.28.65,1.84,1.84,0,0,1-.15.35c-.21.31-.44.61-.66.92s-.18.33-.28.5a1.16,1.16,0,0,1-.14.24c-.35.43-.71.85-1,1.29a4.58,4.58,0,0,0-.34.6.81.81,0,0,0-.21.09c-.53.27-.66.24-1.08-.16a.83.83,0,0,0-.66-.34.82.82,0,0,1-.77-.37,7.63,7.63,0,0,1-.64-1c-.41-.69-.81-1.39-1.26-2.07a31.2,31.2,0,0,1-2.1-3.22.3.3,0,0,0-.12-.15,1.32,1.32,0,0,1-.52-.77,1.38,1.38,0,0,0-.18-.34c-.28-.38-.59-.75-.84-1.14s-.62-1-.9-1.52c-.4-.76-.78-1.53-1.18-2.3a9.38,9.38,0,0,1-.86-1.74,1.15,1.15,0,0,0-.11-.31c-.26-.38-.54-.74-.79-1.12-.52-.79-1-1.58-1.52-2.37-.38-.6-.72-1.23-1.15-1.79a12.62,12.62,0,0,1-1-1.5,13.44,13.44,0,0,0-1.42-2.36.47.47,0,0,1-.09-.22,1.32,1.32,0,0,0-.46-.71,2,2,0,0,1-.66-1,2.36,2.36,0,0,0-.32-.68C24.8,14.2,24.36,13.62,24,13c-.1-.14-.12-.34-.22-.48L22.49,10.8c-.5-.72-1-1.43-1.48-2.17s-.88-1.21-1.23-1.87a3.56,3.56,0,0,1-.49-1c0-.07-.08-.13-.12-.19L18.77,5A13.47,13.47,0,0,0,18,3.85a4.35,4.35,0,0,0-1.42-1.31c-.14-.06-.23-.25-.3-.4s-.27-.55-.58-.59a4.91,4.91,0,0,0-1.38,0,6.21,6.21,0,0,1-2.54,0,1.27,1.27,0,0,0-.33,0,12.38,12.38,0,0,1-1.49.06,7.56,7.56,0,0,0-2.42.07,6.09,6.09,0,0,1-1.75.22c-.49,0-1,0-1.48,0s-.46.1-.48.49c0,.74,0,1.49,0,2.23,0,.55,0,1.11-.06,1.66s0,.86,0,1.29,0,.76,0,1.14.17.78,0,1.16a.53.53,0,0,0,0,.28,9.62,9.62,0,0,1,.13,1.19c0,.92,0,1.85,0,2.77s0,1.59,0,2.39c0,.54,0,1.08-.07,1.62A16.65,16.65,0,0,0,3.59,21c0,.44,0,.89,0,1.33s0,.92,0,1.38a7.88,7.88,0,0,1,0,1.61,2.13,2.13,0,0,0,.05.61,1.94,1.94,0,0,1,0,.24c0,.72-.08,1.45-.08,2.17a11.34,11.34,0,0,1,0,1.65,12.86,12.86,0,0,0,0,1.76c0,.64,0,1.27-.06,1.91,0,.27,0,.54,0,.81a2.73,2.73,0,0,1,0,.57c-.1.79.15,1.57,0,2.36a.46.46,0,0,0,0,.23,3.53,3.53,0,0,1,.06,1.17c0,.63,0,1.27,0,1.91,0,.31-.06.63,0,.94,0,.94.15,1.88.18,2.82s0,1.61-.07,2.42c0,.25,0,.5,0,.75s0,.75-.06,1.13c0,.11,0,.24,0,.33a4.48,4.48,0,0,0-.08,1.71c0,.84.07,1.68.1,2.52,0,.49,0,1,0,1.47A39.24,39.24,0,0,1,3.68,60c0,.52-.07,1-.07,1.57s0,.88-.06,1.31c0,.84,0,1.68,0,2.52a13.28,13.28,0,0,0,.16,3.33c.16.74.07,1.52.24,2.26,0,.07,0,.15,0,.23-.06.7-.13,1.39-.17,2.09a4.49,4.49,0,0,0,.09.61.82.82,0,0,1,0,.27c0,.27-.08.53-.1.8,0,.48,0,1,0,1.43a7.64,7.64,0,0,0,0,2.24.88.88,0,0,1,0,.28,21,21,0,0,0-.05,2.24c.09,1.23,0,2.45,0,3.68,0,.25-.05.5-.05.76,0,.54,0,1.08,0,1.62s0,1.17,0,1.76c0,.9.1,1.81.15,2.71s.1,1.82.11,2.72c0,.73,0,1.47-.05,2.2,0,.57-.08,1.15,0,1.71a14.12,14.12,0,0,1-.11,3.05C3.55,101.73,3.54,102,3.81,102.15Z"/><path class="cls-1" d="M59.17,70.85l-.33-.26c.06,0,.12-.13.17-.13S59.19,70.63,59.17,70.85Z"/><path class="cls-1" d="M3.81,102.15c-.27-.19-.26-.42-.21-.72a14.12,14.12,0,0,0,.11-3.05c0-.56,0-1.14,0-1.71,0-.73.06-1.47.05-2.2,0-.9-.07-1.81-.11-2.72S3.58,89.94,3.55,89c0-.59,0-1.18,0-1.76s0-1.08,0-1.62c0-.26,0-.51.05-.76,0-1.23.1-2.45,0-3.68A21,21,0,0,1,3.68,79a.88.88,0,0,0,0-.28,7.64,7.64,0,0,1,0-2.24c0-.47,0-.95,0-1.43,0-.27.07-.53.1-.8a.82.82,0,0,0,0-.27,4.49,4.49,0,0,1-.09-.61c0-.7.11-1.39.17-2.09,0-.08.06-.16,0-.23-.17-.74-.08-1.52-.24-2.26a13.28,13.28,0,0,1-.16-3.33c0-.84,0-1.68,0-2.52,0-.43.05-.87.06-1.31s.05-1,.07-1.57a39.24,39.24,0,0,0-.07-5.2c0-.48,0-1,0-1.47,0-.84-.1-1.68-.1-2.52a4.48,4.48,0,0,1,.08-1.71c0-.09,0-.22,0-.33,0-.38,0-.75.06-1.13s0-.5,0-.75c0-.81.09-1.62.07-2.42s-.13-1.88-.18-2.82c0-.31,0-.63,0-.94,0-.64-.07-1.28,0-1.91a3.53,3.53,0,0,0-.06-1.17.46.46,0,0,1,0-.23c.16-.79-.09-1.57,0-2.36a2.73,2.73,0,0,0,0-.57c0-.27,0-.54,0-.81,0-.64.05-1.27.06-1.91a12.86,12.86,0,0,1,0-1.76,11.34,11.34,0,0,0,0-1.65c0-.72,0-1.45.08-2.17a1.94,1.94,0,0,0,0-.24,2.13,2.13,0,0,1-.05-.61,7.88,7.88,0,0,0,0-1.61c0-.46,0-.92,0-1.38s0-.89,0-1.33a16.65,16.65,0,0,1,.07-2.91c.07-.54,0-1.08.07-1.62,0-.8,0-1.59,0-2.39s0-1.85,0-2.77a9.62,9.62,0,0,0-.13-1.19.53.53,0,0,1,0-.28c.21-.38,0-.77,0-1.16s0-.76,0-1.14,0-.86,0-1.29,0-1.11.06-1.66c0-.74,0-1.49,0-2.23,0-.39.07-.47.48-.49s1,0,1.48,0a6.09,6.09,0,0,0,1.75-.22A7.56,7.56,0,0,1,9.91,1.6a12.38,12.38,0,0,0,1.49-.06,1.27,1.27,0,0,1,.33,0,6.21,6.21,0,0,0,2.54,0,4.91,4.91,0,0,1,1.38,0c.31,0,.44.33.58.59s.16.34.3.4A4.35,4.35,0,0,1,18,3.85,13.47,13.47,0,0,1,18.77,5l.4.54c0,.06.11.12.12.19a3.56,3.56,0,0,0,.49,1c.35.66.83,1.24,1.23,1.87s1,1.45,1.48,2.17l1.24,1.74c.1.14.12.34.22.48.41.6.85,1.18,1.26,1.79a2.36,2.36,0,0,1,.32.68,2,2,0,0,0,.66,1,1.32,1.32,0,0,1,.46.71.47.47,0,0,0,.09.22,13.44,13.44,0,0,1,1.42,2.36,12.62,12.62,0,0,0,1,1.5c.43.56.77,1.19,1.15,1.79.5.79,1,1.58,1.52,2.37.25.38.53.74.79,1.12a1.15,1.15,0,0,1,.11.31,9.38,9.38,0,0,0,.86,1.74c.4.77.78,1.54,1.18,2.3.28.51.58,1,.9,1.52s.56.76.84,1.14a1.38,1.38,0,0,1,.18.34,1.32,1.32,0,0,0,.52.77.3.3,0,0,1,.12.15,31.2,31.2,0,0,0,2.1,3.22c.45.68.85,1.38,1.26,2.07a7.63,7.63,0,0,0,.64,1,.82.82,0,0,0,.77.37.83.83,0,0,1,.66.34c.42.4.55.43,1.08.16a.81.81,0,0,1,.21-.09,4.58,4.58,0,0,1,.34-.6c.34-.44.7-.86,1-1.29a1.16,1.16,0,0,0,.14-.24c.1-.17.18-.34.28-.5s.45-.61.66-.92a1.84,1.84,0,0,0,.15-.35,3.75,3.75,0,0,1,.28-.65c.25-.37.57-.71.25-1.21l.4.22c.19-.25.36-.49.55-.72s.57-.64.85-1a2.59,2.59,0,0,0,.32-.47,10.93,10.93,0,0,1,.9-1.49c.6-.77,1.06-1.65,1.59-2.48.18-.28.39-.54.56-.82a5.9,5.9,0,0,1,.58-.74c.34-.41.59-.89.89-1.33s.45-.62.66-.94.34-.54.52-.8.4-.57.6-.86a.94.94,0,0,0,.16-.23,4.77,4.77,0,0,1,1.15-1.66,5.9,5.9,0,0,0,.66-1c.06-.11,0-.28,0-.45.49-.08.65-.51.87-.87s.54-1,.82-1.51a2.61,2.61,0,0,1,.19-.27,2.9,2.9,0,0,0,.66-1.19c0-.25.31-.47.5-.68a6.76,6.76,0,0,0,.9-1.39,4.78,4.78,0,0,1,1.14-1.62,3,3,0,0,0,.46-.71,2.35,2.35,0,0,1,.35-.55,1.49,1.49,0,0,0,.45-.76,1.43,1.43,0,0,1,.08-.22L65.5,9.37a7.24,7.24,0,0,0,.81-1.28A4.65,4.65,0,0,1,67.05,7c.31-.41.33-.4.14-.9h.22l.16,0c.05,0,.08,0,.1-.08.3-.55.59-1.12.92-1.66a3.8,3.8,0,0,1,.51-.56c.08-.08.22-.16.22-.24,0-.55.46-.85.69-1.28a1.88,1.88,0,0,1,.63-.76,1.22,1.22,0,0,1,1-.28,7,7,0,0,0,2,.22,12.6,12.6,0,0,0,1.74,0,5.64,5.64,0,0,1,1.31.07,3.88,3.88,0,0,0,.48,0,6.53,6.53,0,0,1,.88,0,6.28,6.28,0,0,0,2,0,7.9,7.9,0,0,1,1.61-.08c.64,0,1.26.14,1.89.21.21,0,.32.12.32.33a7.08,7.08,0,0,1,0,1.38,10,10,0,0,0,0,1.64c0,.7,0,1.4.07,2.1s0,1.11,0,1.67.08,1.36.1,2c0,.38,0,.76,0,1.14s0,.67,0,1c0,.79,0,1.58-.07,2.37,0,.39,0,.77,0,1.15-.06.82-.11,1.65-.18,2.47a14.13,14.13,0,0,0-.18,1.42c0,1.34-.19,2.66-.25,4,0,.65,0,1.31,0,2a17.68,17.68,0,0,0,.2,2.9,2.56,2.56,0,0,1,0,.62,10.32,10.32,0,0,0,0,2.08,14.43,14.43,0,0,1,0,1.86c0,1-.05,2-.14,3a15.63,15.63,0,0,0,0,1.81c0,.7,0,1.4,0,2.1a16.46,16.46,0,0,1,0,1.72,24.68,24.68,0,0,0-.06,3.1c0,.84.15,1.68.18,2.52s0,1.43,0,2.15c0,.54.08,1.08.07,1.62,0,.83-.09,1.65-.11,2.48s0,1.81,0,2.72c0,.21,0,.41,0,.62l-.12,2.47c0,.3,0,.61-.08.91A11.23,11.23,0,0,0,83,62.88c0,.44-.1.88-.1,1.33a31,31,0,0,0,0,3.34A17.59,17.59,0,0,1,83,70.36c-.08,1.13-.18,2.25-.27,3.38-.05.67-.13,1.33-.13,2,0,1.56-.13,3.11-.11,4.67,0,.73,0,1.46.07,2.19a2.79,2.79,0,0,1-.08,1,2.21,2.21,0,0,0,0,.89,16.37,16.37,0,0,1,0,2.71c0,.51,0,1,0,1.53,0,.81,0,1.62,0,2.44,0,1.19,0,2.38,0,3.57,0,.37,0,.73,0,1.1,0,.6,0,1.2,0,1.8,0,.41.08.82.08,1.23,0,.92,0,1.85,0,2.77,0,.57,0,1.15,0,1.72s-.08,1.05-.13,1.57a1.63,1.63,0,0,1-.11.31.82.82,0,0,0,0,.31,8.21,8.21,0,0,1,.18.83,1.55,1.55,0,0,1-.16.52,1.09,1.09,0,0,1,.16.38c0,.32,0,.64,0,1a.33.33,0,0,1-.29.33,2.27,2.27,0,0,1-.52,0c-1.06,0-2.1-.12-3.16-.16a7.78,7.78,0,0,0-1.18.06,7.67,7.67,0,0,1-2.66,0c-.89-.17-1.79-.29-2.69-.42-.44-.06-.47-.07-.38-.49l.36-1.64c.13-.62.08-.69-.56-.91,0-.48,0-1,0-1.5,0-.86,0-1.72,0-2.58a11.25,11.25,0,0,1,.11-1.28,9.28,9.28,0,0,0,0-2c0-.11,0-.22,0-.33,0-.65,0-1.31,0-2,0-.33,0-.66,0-1,0-.49,0-1,0-1.47,0-1.12-.09-2.25,0-3.37a5,5,0,0,0,.07-1.59,20,20,0,0,0,.25-3.28,11.88,11.88,0,0,0,.07-2.07c0-.28,0-.57,0-.86,0-.49,0-1,0-1.48,0-.64,0-1.27.07-1.91a22,22,0,0,0,.12-2.43c-.09-1.32,0-2.64,0-4,0-.38-.07-.76-.07-1.14,0-.94.07-1.88,0-2.82S71.64,66,71.59,65s0-1.66-.09-2.49c0-1.11-.12-2.22-.17-3.34,0-.44,0-.89,0-1.33,0-1.37.06-2.74.1-4.11,0-.41.07-.83.07-1.24,0-1.16,0-2.32,0-3.48,0-.4.05-.8.06-1.2,0-1,0-1.91.09-2.86,0-.6.1-1.2.16-1.81a30.78,30.78,0,0,0,0-3.72c0-1-.12-2.09-.17-3.14a19.26,19.26,0,0,1,0-2.15,8.15,8.15,0,0,0,0-1.71c-.1-.81-.17-1.62-.2-2.43s0-1.61,0-2.42,0-1.62,0-2.4c-.35-.19-.64-.36-1-.49s-.63-.28-.87.12c0,.07-.18.08-.25.14s-.24.2-.27.32a4.59,4.59,0,0,1-1,1.72c-.43.63-.85,1.27-1.29,1.89a15,15,0,0,1-1.06,1.58A15.39,15.39,0,0,0,64.76,32c-.17.25-.3.53-.46.78l-1.1,1.62a.82.82,0,0,0-.12.2A4.37,4.37,0,0,1,62.16,36c-.38.54-.76,1.09-1.15,1.63a.69.69,0,0,1-.13.2,9.43,9.43,0,0,0-1.38,2c-.36.54-.76,1-1.13,1.58-.12.17-.18.37-.3.54-.35.53-.71,1.05-1.08,1.57-.18.26-.39.51-.56.77l-1.6,2.6a1.43,1.43,0,0,1-.14.2,8.26,8.26,0,0,0-1.31,2A12,12,0,0,1,52,51.05a6.76,6.76,0,0,0-.46.72.45.45,0,0,1-.06.12,17.1,17.1,0,0,0-2,2.82s0,.07,0,.08c-.71.55-.86,1.44-1.31,2.14s-.71,1.17-1.06,1.76c-.25.43-.47.86-.73,1.28s-.37.52-.55.78a2.69,2.69,0,0,0-.16.29c-.15.26-.3.52-.46.78,0,0-.06.07-.08.11-.37.91-1.08,1.61-1.5,2.49a2,2,0,0,1-.32.35,11.38,11.38,0,0,1-1.66-2.34.53.53,0,0,0-.13-.2,7.89,7.89,0,0,1-1-1.35c-.22-.29-.47-.56-.67-.87-.74-1.12-1.55-2.19-2.22-3.37a2.84,2.84,0,0,1-.44-.93,1.47,1.47,0,0,0-.3-.48L36,54a7.66,7.66,0,0,1-.56-.84,8.1,8.1,0,0,0-.85-1.25c-.27-.37-.53-.75-.8-1.13a.91.91,0,0,0-.18-.21,1.92,1.92,0,0,1-.53-.67c-.2-.34-.45-.65-.68-1-.64-.91-1.26-1.84-1.92-2.74s-1.2-1.48-1.8-2.23-1-1.2-1.45-1.83a3.21,3.21,0,0,1-.46-.88,8.29,8.29,0,0,1-.71-1.61c-.06-.32-.37-.6-.45-.93a9.44,9.44,0,0,0-.94-1.78,9.19,9.19,0,0,0-.58-.81c-.43-.67-.82-1.36-1.25-2-.25-.37-.57-.69-.83-1.05s-.73-1-1.06-1.53a19.89,19.89,0,0,1-1-1.73c-.56-1.1-1.48-1.95-2.06-3a4.67,4.67,0,0,0-.63-1.1A1.6,1.6,0,0,0,16,25.29a.94.94,0,0,0-.54.84c0,.43,0,.86-.06,1.29,0,.91-.13,1.82-.11,2.72,0,1.13.16,2.25.24,3.38,0,.66.1,1.33.13,2,0,.92.05,1.85.05,2.77s-.06,1.68-.08,2.53c0,.43,0,.86,0,1.29-.06.82-.16,1.64-.24,2.47-.05.53-.05,1.07-.05,1.61a25.56,25.56,0,0,1,0,4,6.43,6.43,0,0,0,0,.76c0,.94-.07,1.88-.08,2.82,0,.48,0,.95,0,1.43,0,.78,0,1.55,0,2.33s0,1.27,0,1.91c0,.8-.09,1.61-.11,2.42s0,1.4,0,2.1c0,.92.17,1.84.19,2.76a18.41,18.41,0,0,1,0,3.15A3.34,3.34,0,0,0,15.53,71a9.14,9.14,0,0,1,.15,2.66c0,.73,0,1.46-.09,2.19s-.11,1.18-.13,1.77c-.05,1-.07,2.06-.09,3.09,0,.45,0,.9,0,1.34a28.05,28.05,0,0,0,.08,4.2c.06.57.07,1.14.08,1.72,0,1.4,0,2.8-.1,4.2a10.45,10.45,0,0,0,0,1.48,17.61,17.61,0,0,1,0,2.62c0,.76,0,1.53,0,2.29a27.24,27.24,0,0,0,.1,2.86c.07,1.12.18,2.25.21,3.38a12.53,12.53,0,0,1-.14,1.93.81.81,0,0,1-.92.76c-.47,0-.95,0-1.43,0a19.88,19.88,0,0,0-2.18.1c-.05,0-.11,0-.14,0-.49-.22-1,0-1.49,0a.53.53,0,0,0-.28,0,3.59,3.59,0,0,1-1.42.1c-.28,0-.56.07-.85.08l-2.28.07a.74.74,0,0,1-.78-.93,1.91,1.91,0,0,0,0-.92,7.2,7.2,0,0,1,0-1.23c0-.2,0-.41,0-.62s0-.6,0-.9a.91.91,0,0,0-.07-.41A.49.49,0,0,1,3.81,102.15Zm7.57-83.61c-.08.25-.07.43.11.56a.25.25,0,0,0,.39-.06A.7.7,0,0,0,11.38,18.54ZM5.51,97.66l0,.11c.32.3.45.31.78,0ZM82.3,75.52c.21-.6.22-.77,0-1.12Zm.11-1.7h.12v-.27h-.08ZM12,46.8l0,.06,0,0,0-.06Z"/><path class="cls-1" d="M11.38,18.54a.7.7,0,0,1,.5.5.25.25,0,0,1-.39.06C11.31,19,11.3,18.79,11.38,18.54Z"/><path class="cls-1" d="M82.3,75.52l0-1.12C82.52,74.75,82.51,74.92,82.3,75.52Z"/><path class="cls-1" d="M82.41,73.82l0-.26h.08v.27Z"/><path class="cls-1" d="M12,46.8l0,0,0,.06,0,0Z"/></svg>