<svg id="N" xmlns="http://www.w3.org/2000/svg" viewBox="0 0 86 112"><defs><style>.cls-1{stroke:#000;stroke-miterlimit:10;}</style></defs><path class="cls-1" d="M1.82,108a.38.38,0,0,0,.17-.45c0-.1-.09-.19-.13-.29-.1-.25-.26-.47-.1-.76,0-.08,0-.23-.05-.38a.8.8,0,0,1,.18-.19.84.84,0,0,0,.34-.68c0-1.12.16-2.24.17-3.36a15.48,15.48,0,0,0-.22-2.71c-.13-.73-.13-1.49-.2-2.23,0-.42-.14-.84-.14-1.26,0-.65.08-1.3.1-2s-.05-1.38,0-2.06a21,21,0,0,0,0-2.38c0-1,0-2.06,0-3.09,0-.86-.05-1.72-.08-2.58s0-1.87-.06-2.8c0-.56-.12-1.11-.14-1.67s0-.85,0-1.27c0-.84.06-1.69.08-2.53a23.49,23.49,0,0,1,.09-2.52,24.68,24.68,0,0,0,0-2.85c0-.43,0-.85.05-1.27S2,68,2,67.57c0-.56,0-1.12,0-1.68A19.07,19.07,0,0,1,2,63.5c.16-1.44-.1-2.87,0-4.3A2.38,2.38,0,0,0,2,58.83a2,2,0,0,1-.08-.41c0-1,0-2,0-3.05,0,0,0-.09,0-.14a15.23,15.23,0,0,1-.1-2.79,8.09,8.09,0,0,1,.07-2.94,3.52,3.52,0,0,0,0-1.07,5,5,0,0,1,0-1.63,2.19,2.19,0,0,0,0-.51c0-1.19,0-2.38,0-3.56,0-.87-.07-1.75-.08-2.62,0-.36.05-.71.06-1.07s0-1,0-1.45a11,11,0,0,0-.1-2.15,1.94,1.94,0,0,1,0-.24c0-1.15,0-2.31,0-3.46,0-.22,0-.44.05-.66a.69.69,0,0,0,0-.32,2.86,2.86,0,0,1-.08-1.2c0-.89,0-1.78.05-2.67,0-.26.07-.52.1-.79s.06-.62.07-.93c0-.7,0-1.4.06-2.11a14.42,14.42,0,0,1,.14-1.86,17.67,17.67,0,0,0,0-3.17c0-.5.06-1,.09-1.49,0-.05,0-.1,0-.14a6.13,6.13,0,0,1-.07-1.48,2.1,2.1,0,0,1,0-.56,4.62,4.62,0,0,0,0-1.53c0-.45-.07-.9-.11-1.35,0-.2-.08-.4-.09-.6s0-.53,0-.79,0-.43,0-.64c0-.5,0-1,.11-1.49A7,7,0,0,0,2.1,6a5.75,5.75,0,0,1,0-2.15A1.78,1.78,0,0,0,2,3.14a1.71,1.71,0,0,1,0-.78c.08-.41.07-.84.13-1.25A3.13,3.13,0,0,1,2.34.3c.17-.34.48-.37.82-.18A3.3,3.3,0,0,1,4.54,1.67a1.11,1.11,0,0,0,.22.3c.34.31.71.6,1,.93a9.15,9.15,0,0,1,.62.75l.9,1A8.77,8.77,0,0,1,8.46,5.88L8.52,6a16,16,0,0,1,1.84,2.11c.39.42.83.8,1.26,1.19.24.23.5.43.74.65a1.73,1.73,0,0,1,.21.25,1.3,1.3,0,0,0,.08.17c.34.4.59.86.89,1.29a4.45,4.45,0,0,0,1.07.89,4.56,4.56,0,0,1,.81.77c.3.35.58.73.85,1.09.47.64,1.09,1.1,1.6,1.68a18.57,18.57,0,0,1,1.37,1.59c.58.85,1.34,1.52,2,2.33.21.27.56.44.73.72a39.79,39.79,0,0,0,2.64,3.16c.31.41.72.73,1.07,1.11.6.65,1.17,1.3,1.77,1.95s1,1,1.47,1.57,1,1.26,1.54,1.89c.17.21.37.41.56.62s.36.35.52.54c.88,1,1.75,2,2.64,3,.52.59,1.08,1.14,1.61,1.71.24.25.45.53.69.77.39.4.81.78,1.21,1.17.07.06.17.11.2.19.24.71.87,1.09,1.31,1.64s.89,1,1.34,1.56a1.26,1.26,0,0,0,.22.24,10.64,10.64,0,0,1,1.61,1.81c.63.7,1.24,1.4,1.88,2.09.51.54,1.1,1,1.58,1.59s.91.93,1.29,1.47a6.74,6.74,0,0,0,1.68,1.69,1.27,1.27,0,0,1,.27.25l1.22,1.36a5,5,0,0,1,.92,1.16,3.76,3.76,0,0,0,.66.73c.64.68,1.24,1.4,1.93,2s.9,1.28,1.48,1.8a12.9,12.9,0,0,1,1.31,1.64,8.3,8.3,0,0,0,1.19,1.18A10.13,10.13,0,0,1,59,62.05c.66.74,1.33,1.49,2,2.22s1.37,1.45,2,2.19,1.19,1.48,1.82,2.18a9.24,9.24,0,0,0,1.06.91s.15.09.17.15c.14.38.52.54.73.83a12.78,12.78,0,0,1,1.36,1.66,4,4,0,0,0,.81.89l.67.72a5.38,5.38,0,0,0,.08-.79c0-.65-.07-1.3-.11-2a1.77,1.77,0,0,1,0-.23c0-.66.06-1.31,0-2s-.09-1.21-.13-1.82c0-.21,0-.43,0-.65,0-.54.07-1.09.1-1.63a.88.88,0,0,0,0-.28,2,2,0,0,1,.06-1.29,1.13,1.13,0,0,0,0-.41c0-1.07.15-2.12.06-3.19A12.41,12.41,0,0,1,70,57.77a5.34,5.34,0,0,0,0-.8,13.87,13.87,0,0,1,0-3.22.91.91,0,0,0,0-.23c0-.53-.11-1.05-.15-1.58s0-1.12-.08-1.68c0-.23,0-.46,0-.7a.86.86,0,0,1,0-.32A5.83,5.83,0,0,0,69.75,47a1.06,1.06,0,0,1,.1-.72.64.64,0,0,0,.07-.27c.06-1,.09-2.06.16-3.09A5.72,5.72,0,0,0,69.83,41a4.48,4.48,0,0,1-.06-1.89,8.52,8.52,0,0,0-.07-2.85,11.21,11.21,0,0,1,0-1.3c0-.17,0-.34,0-.51a1.23,1.23,0,0,1,0-.38,3.62,3.62,0,0,0-.05-1.39c0-.49,0-1,0-1.49,0-.3-.07-.59-.09-.88a3.65,3.65,0,0,1,0-.74,5.05,5.05,0,0,0,.07-1.86,4.26,4.26,0,0,1,0-.51c0-.66,0-1.31-.07-2,0-.05,0-.1,0-.14l0-1.87c0-.33,0-.66,0-1,0-.75-.16-1.48-.11-2.23a19.46,19.46,0,0,0,0-2.16c0-.61,0-1.21-.07-1.82V16a21.87,21.87,0,0,0,.13-2.8c.16-1,0-2,.11-2.94a10,10,0,0,0,0-1.45,2.9,2.9,0,0,1,0-.51,14.06,14.06,0,0,0-.12-2.34c0-.62-.06-1.24,0-1.86,0-.9.23-1.77.31-2.65,0-.21.09-.35.31-.39a.75.75,0,0,0,.25-.13.68.68,0,0,1,.65-.07,3.78,3.78,0,0,0,1.7.26,1.86,1.86,0,0,1,.47,0l2.34,0c1.34,0,2.68.07,4,.07,1,0,1.94-.07,2.91-.08a1.61,1.61,0,0,0,1-.18c.22-.15.44,0,.51.28a.7.7,0,0,0,0,.14A5.25,5.25,0,0,1,84,3.7a20.34,20.34,0,0,1,.07,2.7c-.12,1.09.1,2.18-.11,3.27a7.44,7.44,0,0,0,0,1.49c0,.31,0,.63,0,.94a.6.6,0,0,1,0,.23,4.07,4.07,0,0,0-.14,1.39c-.07,1-.11,2-.15,3,0,.2,0,.41,0,.61,0,.68,0,1.37,0,2.05s0,1.44,0,2.16a.65.65,0,0,0,0,.14,13.4,13.4,0,0,1,.1,2.37c0,.71-.06,1.43-.06,2.15s0,1.68,0,2.52c0,.31,0,.62,0,.93,0,.81,0,1.63,0,2.44,0,.62,0,1.25,0,1.87s.05,1.43.07,2.15c0,.91.06,1.81.06,2.72s-.06,1.68-.06,2.53c0,.46,0,.93.09,1.4s.13,1.12.15,1.68a5.47,5.47,0,0,1-.12,1.06,4.69,4.69,0,0,0,0,1.67A7.69,7.69,0,0,1,84,50a7.31,7.31,0,0,0-.08,1.4c0,1.17,0,2.35,0,3.52v.28c0,.62,0,1.25,0,1.87,0,1.2,0,2.41,0,3.61,0,.7-.05,1.4-.06,2.11s0,1.71,0,2.57c0,.55,0,1.09-.07,1.64,0,1.06-.07,2.12-.08,3.18,0,1.37,0,2.75,0,4.12,0,1,0,2,0,3a2.5,2.5,0,0,0,0,.47,8.52,8.52,0,0,1,0,2.47,11.48,11.48,0,0,0-.07,1.17c0,.81,0,1.62,0,2.43,0,.41.12.81.11,1.21,0,.7,0,1.4-.09,2.09a14.66,14.66,0,0,0,0,2.81,14.86,14.86,0,0,1,0,2.31c0,.64,0,1.28.07,1.92a1.13,1.13,0,0,1,0,.41,3.24,3.24,0,0,0-.09,1.85,2.16,2.16,0,0,1-.07,1,2.33,2.33,0,0,0,0,1.2,1.41,1.41,0,0,1-.09,1.39.56.56,0,0,0,0,.23c0,.64-.12,1.27-.12,1.91a4.91,4.91,0,0,0,0,1.43.52.52,0,0,1-.07.31,2.06,2.06,0,0,0,0,1.78,1.17,1.17,0,0,1,.08.46c0,.45,0,.9,0,1.35,0,.08-.07.16-.1.25s-.11.23-.08.33-.07.35-.26.43-.5.19-.75.26a.5.5,0,0,1-.32,0,5.92,5.92,0,0,1-.83-.43.69.69,0,0,1-.27-.36,3.15,3.15,0,0,0-.69-1c-.59-.67-1.2-1.32-1.81-2-.31-.32-.67-.61-1-.93s-.65-.71-1-1.06l-.21-.25c-.39-.4-.79-.8-1.17-1.21a.59.59,0,0,1-.17-.28,1.72,1.72,0,0,0-.56-.79c-.7-.71-1.39-1.43-2.1-2.13-.48-.48-1-.91-1.48-1.38a6.72,6.72,0,0,1-.84-.93,11.34,11.34,0,0,0-1.26-1.51c-.3-.31-.5-.71-.78-1-.43-.53-.89-1-1.33-1.56-.09-.11-.2-.21-.28-.32a11.1,11.1,0,0,0-1.65-2c-.22-.22-.41-.48-.63-.69-.57-.56-1.15-1.1-1.71-1.66-.2-.2-.38-.42-.56-.63-.61-.73-1.22-1.47-1.84-2.19-.24-.27-.53-.49-.77-.75s-.61-.79-.95-1.16c-.52-.58-1.07-1.13-1.6-1.7a8.3,8.3,0,0,1-.64-.69,20.38,20.38,0,0,0-2.47-2.62A32.12,32.12,0,0,1,51.06,75c-1-1-1.91-2.07-2.87-3.1-.65-.69-1.3-1.38-2-2.06-.42-.42-.85-.83-1.27-1.26-.15-.15-.3-.31-.44-.48-.31-.33-.6-.67-.91-1-.5-.56-1-1.15-1.51-1.66-.73-.68-1.29-1.49-1.94-2.22-.12-.14-.27-.26-.4-.4l-2.25-2.32-2.58-2.65c-.39-.42-.76-.86-1.15-1.29a24.31,24.31,0,0,0-2.35-2.41,3.41,3.41,0,0,1-.45-.48,26.43,26.43,0,0,0-2.55-2.74,11.82,11.82,0,0,1-1-1.12c-.21-.25-.39-.52-.61-.77-1-1.13-2-2.24-3.16-3.27a15.15,15.15,0,0,1-1.85-2A21.33,21.33,0,0,0,20,42l-1.08-1.17c-.12-.13-.25-.24-.36-.36l-1.34-1.44s0-.09-.07-.12-.34-.34-.57-.26-.23.34-.22.57L16.44,41c0,.13,0,.25.06.37s.07.22.05.32a5.06,5.06,0,0,0,.06,1.4c.06.47.05,1,.12,1.44a2.85,2.85,0,0,1-.12,1.2,3.4,3.4,0,0,0-.08.64c0,1,0,1.93,0,2.9a.87.87,0,0,0,0,.32,9.84,9.84,0,0,1,0,1.63,17.43,17.43,0,0,0,0,2.89,1,1,0,0,1-.1.88.4.4,0,0,0,0,.19,16.41,16.41,0,0,0,.16,1.72,4.4,4.4,0,0,1,.06,1.49,3.12,3.12,0,0,0,.13,1.71.68.68,0,0,1,0,.32c-.08,1.42.05,2.84.11,4.26a6,6,0,0,1,0,.74c0,1-.1,2-.14,3a3.59,3.59,0,0,0,0,.46,1.17,1.17,0,0,1,0,.37,7,7,0,0,0-.08,2.09c0,.68,0,1.36,0,2,0,.45.05.9.05,1.35,0,1.34,0,2.69,0,4,0,.93.06,1.87.09,2.81,0,.1,0,.21.05.32.11,1,.27,2,.31,3.07,0,1.18-.05,2.37-.05,3.56,0,.53.09,1.06.09,1.59s0,1.31,0,2c0,.84-.11,1.68-.16,2.52,0,.29-.06.59-.06.88a6.28,6.28,0,0,0,0,.75,1.41,1.41,0,0,1,0,.5A2.41,2.41,0,0,0,17,98a4,4,0,0,1,0,.6c0,.19,0,.37,0,.56l.09,2.06,0,.42a1.22,1.22,0,0,1,0,.32c-.17.79.11,1.59,0,2.37s0,1.68-.19,2.5a1.33,1.33,0,0,0,.12,1c.39.63-.15,1.14-.62,1.31a1.7,1.7,0,0,1-.46.08,14.11,14.11,0,0,1-3.18-.1,7,7,0,0,0-1.12-.07c-.5,0-1,0-1.49.07l-2,0c-.64,0-1.28.1-1.92.07a8.22,8.22,0,0,0-1.79.25,1.84,1.84,0,0,1-.33,0,1.28,1.28,0,0,0-1,.3c-.23.19-.33.13-.54-.11a4.63,4.63,0,0,0-.55-.5,1,1,0,0,0-.06-.3.44.44,0,0,0-.16-.21"/><path class="cls-1" d="M81.51,105.25c0-.46.09-.88.12-1.29s0-.62.05-.93,0-.68,0-1,0-.71.08-1.07l.09-1c0-.17,0-.34,0-.51A8.43,8.43,0,0,0,82,97.87a13.31,13.31,0,0,1,0-1.67c0-.39,0-.78.07-1.17,0-.92.12-1.84.15-2.76,0-.5,0-1-.06-1.49,0-.81-.08-1.62-.11-2.43a1.77,1.77,0,0,1,0-.32,3.34,3.34,0,0,0,0-1.26,2.28,2.28,0,0,1,0-1.16,1.72,1.72,0,0,0,0-.51,11.62,11.62,0,0,1,0-2.57.79.79,0,0,0,0-.46,1.08,1.08,0,0,1,0-.64,11.13,11.13,0,0,0,.18-2.23c0-.16,0-.31,0-.47,0-1,0-2-.1-3-.1-1.28,0-2.55,0-3.82,0-.91,0-1.81.08-2.71,0-.14,0-.28,0-.42s0-.3,0-.45a4.87,4.87,0,0,1-.07-1.21,8.78,8.78,0,0,0,.1-2.61,3.43,3.43,0,0,1-.07-1.39,7.74,7.74,0,0,0,.14-1.92c0-.48,0-1,0-1.44,0-.27,0-.53,0-.8s0-.81,0-1.21.11-1,.1-1.45c0-.66-.15-1.32-.17-2s0-1.34.07-2c0-.31,0-.62,0-.93,0-.7-.06-1.41,0-2.11s.08-1.34.12-2v-.18c0-.8,0-1.6,0-2.39a9.54,9.54,0,0,0-.07-2.2,5.65,5.65,0,0,1-.12-.92c-.06-.89.14-1.77.05-2.67,0-.47.06-1,0-1.45,0-.79-.09-1.58-.12-2.37a17.94,17.94,0,0,1,0-2.2,21.24,21.24,0,0,0,0-3.09,2.79,2.79,0,0,1,0-1.25.91.91,0,0,0,0-.37c0-1,0-2-.1-2.94s.18-1.64.15-2.47,0-1.52,0-2.28,0-1.43-.06-2.14a.34.34,0,0,1,0-.18,1.19,1.19,0,0,0,.07-1,.79.79,0,0,1,0-.37,9.3,9.3,0,0,0,.07-1.49,14.06,14.06,0,0,1,.17-2.15,3.62,3.62,0,0,0,0-1.43.45.45,0,0,1,0-.28,4.6,4.6,0,0,0,0-1.81c0-.11-.06-.24,0-.32A1.56,1.56,0,0,0,82.75,8a.88.88,0,0,1,0-.23l0-.89a22.81,22.81,0,0,1,0-2.48c0-.23.09-.45.12-.69.1-.82-.12-1-1-1s-1.4.09-2.1.08c-1.19,0-2.38,0-3.56-.1a2.59,2.59,0,0,0-1.38.07s-.09,0-.14,0a12.54,12.54,0,0,1-1.5-.06,11.23,11.23,0,0,0-2.09,0c-.28,0-.42.14-.43.4a15,15,0,0,0,0,2.76,14.9,14.9,0,0,1,.13,1.77c0,.4-.06.81-.08,1.21a5.09,5.09,0,0,0,0,1.17,9.16,9.16,0,0,1,0,2.28,13.8,13.8,0,0,0-.06,2.57,1.62,1.62,0,0,1,0,.38A10.69,10.69,0,0,0,70.67,18a2.59,2.59,0,0,1,0,.56c0,.68-.06,1.36-.09,2.05a14.12,14.12,0,0,0,.17,2.51c.06.54.13,1.09.14,1.63,0,.8-.05,1.59-.06,2.39s0,1.5,0,2.25,0,1.28,0,1.92c0,.29,0,.59,0,.89s0,.87,0,1.31c0,.9.12,1.81.16,2.71,0,1.06-.14,2.11,0,3.17.08.72.11,1.43.16,2.15a9.76,9.76,0,0,1,0,1.08,18.68,18.68,0,0,0-.08,2.8,7.85,7.85,0,0,1,0,.84c0,.75-.1,1.49-.12,2.24,0,.58,0,1.16,0,1.73,0,1.24.08,2.47.13,3.7,0,1.06.12,2.12.15,3.18,0,.53-.06,1.06-.08,1.59-.07,2.05-.12,4.1-.19,6.15,0,.57-.08,1.15-.07,1.73,0,1,.08,2,.11,2.95a10.71,10.71,0,0,0,0,1.39,13.7,13.7,0,0,1,.16,2.71,6.3,6.3,0,0,1-.25,1.28.66.66,0,0,0,.05.48c.46,1.1.34,1.18-.5,1.72a1,1,0,0,1-1.57-.63,3.42,3.42,0,0,0-1-1.81,3,3,0,0,1-.8-1c-.06-.13-.22-.22-.33-.33a2.41,2.41,0,0,1-.24-.21L65,71.06a4.12,4.12,0,0,0-.28-.31c-.42-.42-.85-.82-1.27-1.25a8.27,8.27,0,0,1-.51-.66l-1.16-1.47a4.12,4.12,0,0,0-.52-.65A15.74,15.74,0,0,1,59,64.5c-.23-.29-.47-.55-.71-.81-.9-1-1.81-1.9-2.69-2.87-.53-.57-1-1.2-1.51-1.79S53,57.74,52.39,57.11c-.23-.26-.48-.49-.71-.74-.48-.54-.94-1.09-1.41-1.63l-.15-.18c-.4-.5-.77-1-1.21-1.48S47.78,52,47.22,51.41c-.06-.06-.13-.13-.13-.19,0-.32-.21-.45-.45-.59a1.62,1.62,0,0,1-.42-.37c-.53-.59-1.07-1.17-1.58-1.78a3.88,3.88,0,0,1-.78-1c-.06-.15-.27-.24-.43-.35a4.22,4.22,0,0,1-.61-.39,3.4,3.4,0,0,1-.92-1.11.86.86,0,0,0-.22-.25c-.17-.18-.37-.34-.52-.53-.37-.48-.73-1-1.1-1.46a.83.83,0,0,0-.17-.15,7.38,7.38,0,0,1-.82-.76c-.26-.33-.54-.64-.82-1-.64-.69-1.21-1.43-1.82-2.15l-.23-.23-.69-.7c-.44-.44-.87-.88-1.3-1.33a14,14,0,0,1-1-1.07,8.65,8.65,0,0,0-1.4-1.5,3.31,3.31,0,0,1-.27-.26c-.62-.68-1.24-1.35-1.84-2s-1.22-1.46-1.82-2.2c-.12-.16-.18-.37-.31-.52-.39-.41-.8-.81-1.21-1.22l-.19-.2c-.95-1.08-1.87-2.19-2.86-3.23-.5-.53-1-1.08-1.45-1.64s-1.1-1.36-1.68-2a8.84,8.84,0,0,1-.81-1c-.43-.68-.95-1.31-1.43-2-.09-.11-.2-.2-.3-.3a6.63,6.63,0,0,0-.54-.52,3.54,3.54,0,0,1-1.06-1.15c0-.05-.1-.07-.14-.11-.42-.44-.86-.87-1.26-1.33s-.92-.81-1.08-1.43c0-.07-.11-.12-.17-.17a5,5,0,0,1-.5-.42,2.35,2.35,0,0,1-.5-.6c-.13-.29-.24-.53-.57-.62-.11,0-.18-.17-.26-.26a12.34,12.34,0,0,0-1-1.08A9.94,9.94,0,0,1,8.94,8.47c-.41-.6-1.13-.93-1.4-1.65,0-.05-.11-.07-.15-.11a.72.72,0,0,1-.22-.24A3.3,3.3,0,0,0,6.1,5.09a8.17,8.17,0,0,1-.71-.61l-.78-.75.31-.2c-.31-.13-.59-.23-.85-.36s-.49-.28-.79-.46a4.86,4.86,0,0,0,0,1.78,8.81,8.81,0,0,1,0,2.76c-.13,1,0,2,0,2.94,0,.42,0,.84,0,1.26,0,.68.09,1.37.1,2.05s-.06,1.38,0,2.06a27,27,0,0,1-.06,4.22,1.76,1.76,0,0,0,0,.23c0,.73,0,1.46.06,2.19,0,.23-.07.46-.08.69,0,.84-.07,1.68-.1,2.53,0,.5,0,1-.07,1.5a5.55,5.55,0,0,0,0,2,.41.41,0,0,1,0,.19,7.6,7.6,0,0,0,0,2.38A2.41,2.41,0,0,1,3,32.81.32.32,0,0,0,3,33c0,.89.09,1.77.13,2.66,0,.28,0,.56,0,.84a3,3,0,0,0,0,.41c0,.12.05.25.05.37,0,.91-.05,1.81,0,2.72,0,1.09.09,2.18.12,3.27,0,.86,0,1.72,0,2.58,0,.41,0,.81,0,1.22,0,.69,0,1.38,0,2.06s0,1.32,0,2,.12,1,.13,1.49c0,1.13,0,2.25,0,3.38.05,1.86.13,3.72.2,5.57,0,.89.09,1.78.12,2.67,0,.63,0,1.25,0,1.87s0,1.29,0,1.93v.56c0,.93-.1,1.87-.13,2.8s0,1.91-.06,2.86-.09,2.06-.09,3.08,0,1.9.06,2.85c0,.36.09.72.08,1.08a22.23,22.23,0,0,0,.1,2.94c.1,1,.09,1.93.13,2.9a3.7,3.7,0,0,1,0,.47c0,.59-.09,1.18-.06,1.77.05,1.28.07,2.56,0,3.84a22,22,0,0,0,.23,5.13c.21,1.1.26,2.24.37,3.35a2.44,2.44,0,0,1,0,.47c0,.8-.08,1.59-.15,2.38,0,.62-.11,1.24-.19,1.85a.82.82,0,0,0,.93,1c.26,0,.53,0,.79,0,.46,0,.91,0,1.36,0l2.44,0c.22,0,.44,0,.65,0,.55,0,1.09-.09,1.64-.08s1.21.09,1.82.13a.93.93,0,0,0,.41-.07,4,4,0,0,1,.52-.31,1.87,1.87,0,0,1,.58,0,3.57,3.57,0,0,1,.19-.65,1.86,1.86,0,0,0,.22-.89c.08-.7,0-1.39.07-2.1a14.78,14.78,0,0,0,0-2.4,19.13,19.13,0,0,1-.05-2.62,2.35,2.35,0,0,0,0-.37c0-.12,0-.25,0-.37V96.05c0-.25,0-.5,0-.75,0-.68,0-1.37,0-2,0-.14,0-.28,0-.42,0-.56.05-1.12.06-1.67s0-.82,0-1.22,0-.81,0-1.21,0-.91,0-1.36c0-.64.06-1.28,0-1.92,0-1.08-.19-2.14-.16-3.22a17.52,17.52,0,0,0-.11-1.77,3.14,3.14,0,0,1,0-.61,4.82,4.82,0,0,0,0-1.2c0-.43-.1-.87-.11-1.3,0-.84,0-1.69,0-2.53a5,5,0,0,0,0-1c-.09-.36-.24-.69,0-1,.06-.06,0-.18,0-.27l-.09-1.31c0-.2,0-.41,0-.61,0-.39.07-.77.08-1.16s0-1,0-1.55c0-.69,0-1.37,0-2.06,0-.48-.06-1-.06-1.45s.06-1.25.06-1.87c0-1.6-.17-3.21-.12-4.81v-.05c0-.53-.05-1.06-.08-1.58-.06-1.66-.11-3.31-.2-5a40,40,0,0,1,.16-4.64c0-.27,0-.55,0-.83a2.86,2.86,0,0,1,0-.51,5,5,0,0,0,0-1.54A13.42,13.42,0,0,1,15,41c.06-.59,0-1.19,0-1.78a2.66,2.66,0,0,0-.2-1.42.64.64,0,0,1,0-.23,13,13,0,0,1,0-1.87c.08-.35.43-.6.73-.42a2.48,2.48,0,0,1,1.06.81,3.64,3.64,0,0,0,.8.91c.56.48,1.08,1,1.59,1.53.9.92,1.76,1.86,2.66,2.78.53.54,1.13,1,1.68,1.56s.91.9,1.36,1.35a3.36,3.36,0,0,1,.24.29,7.52,7.52,0,0,0,.47.64c.6.63,1.22,1.24,1.82,1.87s1.4,1.51,2.1,2.27c.39.42.76.86,1.16,1.28s.86.82,1.26,1.25,1,1.14,1.48,1.69c.25.26.53.48.79.73s.39.36.57.55.32.42.51.61.66.66,1,1a1.28,1.28,0,0,1,.17.22,5.7,5.7,0,0,0,.42.55c.42.43.86.83,1.28,1.25s.53.57.8.85L40.39,61a3.25,3.25,0,0,1,.45.46c.22.35.69.52.72,1,0,0,.1.06.14.11.43.45.87.9,1.27,1.37a3,3,0,0,0,.69.69,2.05,2.05,0,0,1,.44.52c.1.12.17.27.28.38L46,67a9.22,9.22,0,0,1,.74.79,6.8,6.8,0,0,0,1.58,1.63.58.58,0,0,1,.13.14c.25.25.5.51.74.77s.23.26.34.39l.36.41a8.33,8.33,0,0,0,1,.92,7.6,7.6,0,0,1,1,1c.45.52.87,1.06,1.31,1.58.29.35.59.68.87,1a6,6,0,0,0,1.31,1.39,2.93,2.93,0,0,1,.43.36,22.17,22.17,0,0,1,2.45,2.76,8.39,8.39,0,0,0,.56.63l1.44,1.46c.25.26.49.53.74.78a10.58,10.58,0,0,1,1.78,2,2.36,2.36,0,0,0,.35.43c.33.37.68.73,1,1.1l.4.39c.38.35.76.69,1.13,1a1,1,0,0,1,.17.27,1.36,1.36,0,0,0,.13.24c.51.58,1,1.14,1.54,1.71.32.36.66.7,1,1.06a7.45,7.45,0,0,1,.52.6,6.16,6.16,0,0,0,.44.65,6.84,6.84,0,0,1,.94,1.27,1.47,1.47,0,0,0,1.34.82s0,0,.07,0c.16.27-.21.3-.23.52.15.12.36.22.44.38a3.31,3.31,0,0,0,.86,1,16.09,16.09,0,0,1,1.89,1.8c.69.86,1.46,1.67,2.19,2.5l.54.64c.35.4.69.81,1,1.19s1,1,1.53,1.51a1.67,1.67,0,0,0,.95.57s0,0,.05.05l-.1.29Z"/><path class="cls-1" d="M81.51,105.25l-.49-.06.1-.29s0-.05-.05-.05a1.67,1.67,0,0,1-.95-.57c-.52-.49-1-1-1.53-1.51s-.7-.79-1-1.19l-.54-.64c-.73-.83-1.5-1.64-2.19-2.5a16.09,16.09,0,0,0-1.89-1.8,3.31,3.31,0,0,1-.86-1c-.08-.16-.29-.26-.44-.38,0-.22.39-.25.23-.52,0,0,0,0-.07,0a1.47,1.47,0,0,1-1.34-.82,6.84,6.84,0,0,0-.94-1.27,6.16,6.16,0,0,1-.44-.65,7.45,7.45,0,0,0-.52-.6c-.32-.36-.66-.7-1-1.06-.52-.57-1-1.13-1.54-1.71a1.36,1.36,0,0,1-.13-.24,1,1,0,0,0-.17-.27c-.37-.36-.75-.7-1.13-1l-.4-.39c-.34-.37-.69-.73-1-1.1a2.36,2.36,0,0,1-.35-.43,10.58,10.58,0,0,0-1.78-2c-.25-.25-.49-.52-.74-.78l-1.44-1.46a8.39,8.39,0,0,1-.56-.63,22.17,22.17,0,0,0-2.45-2.76,2.93,2.93,0,0,0-.43-.36,6,6,0,0,1-1.31-1.39c-.28-.36-.58-.69-.87-1-.44-.52-.86-1.06-1.31-1.58a7.6,7.6,0,0,0-1-1,8.33,8.33,0,0,1-1-.92l-.36-.41c-.11-.13-.22-.27-.34-.39s-.49-.52-.74-.77a.58.58,0,0,0-.13-.14,6.8,6.8,0,0,1-1.58-1.63A9.22,9.22,0,0,0,46,67l-1.61-1.49c-.11-.11-.18-.26-.28-.38a2.05,2.05,0,0,0-.44-.52,3,3,0,0,1-.69-.69c-.4-.47-.84-.92-1.27-1.37,0,0-.14-.07-.14-.11,0-.49-.5-.66-.72-1a3.25,3.25,0,0,0-.45-.46l-1.68-1.76c-.27-.28-.53-.58-.8-.85s-.86-.82-1.28-1.25a5.7,5.7,0,0,1-.42-.55,1.28,1.28,0,0,0-.17-.22c-.33-.33-.67-.65-1-1s-.34-.41-.51-.61-.37-.37-.57-.55-.54-.47-.79-.73c-.5-.55-1-1.14-1.48-1.69s-.85-.83-1.26-1.25-.77-.86-1.16-1.28c-.7-.76-1.39-1.52-2.1-2.27S26,45.73,25.36,45.1a7.52,7.52,0,0,1-.47-.64,3.36,3.36,0,0,0-.24-.29c-.45-.45-.9-.91-1.36-1.35s-1.15-1-1.68-1.56c-.9-.92-1.76-1.86-2.66-2.78-.51-.53-1-1-1.59-1.53a3.64,3.64,0,0,1-.8-.91,2.48,2.48,0,0,0-1.06-.81c-.3-.18-.65.07-.73.42a13,13,0,0,0,0,1.87.64.64,0,0,0,0,.23,2.66,2.66,0,0,1,.2,1.42c0,.59,0,1.19,0,1.78a13.42,13.42,0,0,0,.16,2.61,5,5,0,0,1,0,1.54,2.86,2.86,0,0,0,0,.51c0,.28,0,.56,0,.83a40,40,0,0,0-.16,4.64c.09,1.65.14,3.3.2,5,0,.52.05,1.05.08,1.58v.05c-.05,1.6.12,3.21.12,4.81,0,.62-.06,1.25-.06,1.87s.06,1,.06,1.45c0,.69,0,1.37,0,2.06,0,.52,0,1,0,1.55s-.07.77-.08,1.16c0,.2,0,.41,0,.61l.09,1.31c0,.09,0,.21,0,.27-.29.34-.14.67,0,1a5,5,0,0,1,0,1c0,.84,0,1.69,0,2.53,0,.43.06.87.11,1.3a4.82,4.82,0,0,1,0,1.2,3.14,3.14,0,0,0,0,.61,17.52,17.52,0,0,1,.11,1.77c0,1.08.12,2.14.16,3.22,0,.64,0,1.28,0,1.92,0,.45,0,.9,0,1.36s0,.8,0,1.21,0,.81,0,1.22,0,1.11-.06,1.67c0,.14,0,.28,0,.42,0,.68,0,1.37,0,2,0,.25,0,.5,0,.75v1.36c0,.12,0,.25,0,.37a2.35,2.35,0,0,1,0,.37,19.13,19.13,0,0,0,.05,2.62,14.78,14.78,0,0,1,0,2.4c-.1.71,0,1.4-.07,2.1a1.86,1.86,0,0,1-.22.89,3.57,3.57,0,0,0-.19.65,1.87,1.87,0,0,0-.58,0,4,4,0,0,0-.52.31.93.93,0,0,1-.41.07c-.61,0-1.21-.12-1.82-.13s-1.09,0-1.64.08c-.21,0-.43,0-.65,0l-2.44,0c-.45,0-.9,0-1.36,0-.26,0-.53,0-.79,0a.82.82,0,0,1-.93-1c.08-.61.15-1.23.19-1.85.07-.79.11-1.58.15-2.38a2.44,2.44,0,0,0,0-.47c-.11-1.11-.16-2.25-.37-3.35a22,22,0,0,1-.23-5.13c.05-1.28,0-2.56,0-3.84,0-.59,0-1.18.06-1.77a3.7,3.7,0,0,0,0-.47c0-1,0-1.94-.13-2.9a22.23,22.23,0,0,1-.1-2.94c0-.36-.07-.72-.08-1.08,0-1-.07-1.9-.06-2.85s.06-2.05.09-3.08,0-1.9.06-2.86.09-1.87.13-2.8V68c0-.64,0-1.29,0-1.93s0-1.24,0-1.87c0-.89-.09-1.78-.12-2.67-.07-1.85-.15-3.71-.2-5.57,0-1.13,0-2.25,0-3.38,0-.49-.12-1-.13-1.49s0-1.31,0-2,0-1.37,0-2.06c0-.41,0-.81,0-1.22,0-.86,0-1.72,0-2.58,0-1.09-.1-2.18-.12-3.27,0-.91,0-1.81,0-2.72,0-.12,0-.25-.05-.37a3,3,0,0,1,0-.41c0-.28,0-.56,0-.84C3.08,34.72,3,33.84,3,33a.32.32,0,0,1,0-.14,2.41,2.41,0,0,0,.05-1.33,7.6,7.6,0,0,1,0-2.38.41.41,0,0,0,0-.19,5.55,5.55,0,0,1,0-2c.06-.5,0-1,.07-1.5,0-.85.06-1.69.1-2.53,0-.23.08-.46.08-.69,0-.73,0-1.46-.06-2.19a1.76,1.76,0,0,1,0-.23,27,27,0,0,0,.06-4.22c-.06-.68,0-1.37,0-2.06s-.07-1.37-.1-2.05c0-.42,0-.84,0-1.26,0-1-.09-2,0-2.94a8.81,8.81,0,0,0,0-2.76,4.86,4.86,0,0,1,0-1.78c.3.18.54.34.79.46s.54.23.85.36l-.31.2.78.75a8.17,8.17,0,0,0,.71.61A3.3,3.3,0,0,1,7.17,6.47a.72.72,0,0,0,.22.24s.13.06.15.11c.27.72,1,1,1.4,1.65a9.94,9.94,0,0,0,1.69,1.74,12.34,12.34,0,0,1,1,1.08c.08.09.15.23.26.26.33.09.44.33.57.62a2.35,2.35,0,0,0,.5.6,5,5,0,0,0,.5.42c.06.05.15.1.17.17.16.62.68,1,1.08,1.43s.84.89,1.26,1.33c0,0,.12.06.14.11a3.54,3.54,0,0,0,1.06,1.15,6.63,6.63,0,0,1,.54.52c.1.1.21.19.3.3.48.65,1,1.28,1.43,2a8.84,8.84,0,0,0,.81,1c.58.65,1.11,1.35,1.68,2s.95,1.11,1.45,1.64c1,1,1.91,2.15,2.86,3.23l.19.2c.41.41.82.81,1.21,1.22.13.15.19.36.31.52.6.74,1.2,1.48,1.82,2.2s1.22,1.36,1.84,2a3.31,3.31,0,0,0,.27.26,8.65,8.65,0,0,1,1.4,1.5,14,14,0,0,0,1,1.07c.43.45.86.89,1.3,1.33l.69.7.23.23c.61.72,1.18,1.46,1.82,2.15.28.31.56.62.82,1a7.38,7.38,0,0,0,.82.76.83.83,0,0,1,.17.15c.37.49.73,1,1.1,1.46.15.19.35.35.52.53a.86.86,0,0,1,.22.25,3.4,3.4,0,0,0,.92,1.11,4.22,4.22,0,0,0,.61.39c.16.11.37.2.43.35a3.88,3.88,0,0,0,.78,1c.51.61,1,1.19,1.58,1.78a1.62,1.62,0,0,0,.42.37c.24.14.45.27.45.59,0,.06.07.13.13.19.56.55,1.15,1.09,1.69,1.67s.81,1,1.21,1.48l.15.18c.47.54.93,1.09,1.41,1.63.23.25.48.48.71.74.58.63,1.16,1.27,1.72,1.92s1,1.22,1.51,1.79c.88,1,1.79,1.91,2.69,2.87.24.26.48.52.71.81a15.74,15.74,0,0,0,2.25,2.22,4.12,4.12,0,0,1,.52.65L63,68.84a8.27,8.27,0,0,0,.51.66c.42.43.85.83,1.27,1.25a4.12,4.12,0,0,1,.28.31l1.69,2.07a2.41,2.41,0,0,0,.24.21c.11.11.27.2.33.33a3,3,0,0,0,.8,1,3.42,3.42,0,0,1,1,1.81,1,1,0,0,0,1.57.63c.84-.54,1-.62.5-1.72a.66.66,0,0,1-.05-.48,6.3,6.3,0,0,0,.25-1.28,13.7,13.7,0,0,0-.16-2.71,10.71,10.71,0,0,1,0-1.39c0-1-.09-2-.11-2.95,0-.58,0-1.16.07-1.73.07-2.05.12-4.1.19-6.15,0-.53.09-1.06.08-1.59,0-1.06-.1-2.12-.15-3.18,0-1.23-.09-2.46-.13-3.7,0-.57,0-1.15,0-1.73,0-.75.08-1.49.12-2.24a7.85,7.85,0,0,0,0-.84,18.68,18.68,0,0,1,.08-2.8,9.76,9.76,0,0,0,0-1.08c0-.72-.08-1.43-.16-2.15-.13-1.06.06-2.11,0-3.17,0-.9-.12-1.81-.16-2.71,0-.44,0-.88,0-1.31s0-.6,0-.89c0-.64,0-1.28,0-1.92s0-1.5,0-2.25.07-1.59.06-2.39c0-.54-.08-1.09-.14-1.63a14.12,14.12,0,0,1-.17-2.51c0-.69.07-1.37.09-2.05a2.59,2.59,0,0,0,0-.56,10.69,10.69,0,0,1,.08-2.71,1.62,1.62,0,0,0,0-.38,13.8,13.8,0,0,1,.06-2.57,9.16,9.16,0,0,0,0-2.28,5.09,5.09,0,0,1,0-1.17c0-.4.09-.81.08-1.21a14.9,14.9,0,0,0-.13-1.77,15,15,0,0,1,0-2.76c0-.26.15-.39.43-.4a11.23,11.23,0,0,1,2.09,0,12.54,12.54,0,0,0,1.5.06s.11,0,.14,0a2.59,2.59,0,0,1,1.38-.07c1.18.06,2.37.09,3.56.1.7,0,1.4,0,2.1-.08s1,.18,1,1c0,.24-.09.46-.12.69a22.81,22.81,0,0,0,0,2.48l0,.89a.88.88,0,0,0,0,.23,1.56,1.56,0,0,1-.08,1.35c0,.08,0,.21,0,.32a4.6,4.6,0,0,1,0,1.81.45.45,0,0,0,0,.28,3.62,3.62,0,0,1,0,1.43,14.06,14.06,0,0,0-.17,2.15,9.3,9.3,0,0,1-.07,1.49.79.79,0,0,0,0,.37,1.19,1.19,0,0,1-.07,1,.34.34,0,0,0,0,.18c0,.71.06,1.43.06,2.14s0,1.52,0,2.28-.22,1.63-.15,2.47.07,2,.1,2.94a.91.91,0,0,1,0,.37,2.79,2.79,0,0,0,0,1.25,21.24,21.24,0,0,1,0,3.09,17.94,17.94,0,0,0,0,2.2c0,.79.1,1.58.12,2.37,0,.49-.08,1,0,1.45.09.9-.11,1.78-.05,2.67a5.65,5.65,0,0,0,.12.92,9.54,9.54,0,0,1,.07,2.2c0,.79,0,1.59,0,2.39v.18c0,.67-.11,1.34-.12,2s0,1.41,0,2.11c0,.31,0,.62,0,.93,0,.67-.09,1.34-.07,2s.14,1.33.17,2c0,.48-.07,1-.1,1.45s0,.81,0,1.21,0,.53,0,.8c0,.48,0,1,0,1.44a7.74,7.74,0,0,1-.14,1.92,3.43,3.43,0,0,0,.07,1.39,8.78,8.78,0,0,1-.1,2.61,4.87,4.87,0,0,0,.07,1.21c0,.15,0,.3,0,.45s0,.28,0,.42c0,.9-.07,1.8-.08,2.71,0,1.27-.15,2.54,0,3.82.07,1,.07,2,.1,3,0,.16,0,.31,0,.47a11.13,11.13,0,0,1-.18,2.23,1.08,1.08,0,0,0,0,.64.79.79,0,0,1,0,.46,11.62,11.62,0,0,0,0,2.57,1.72,1.72,0,0,1,0,.51,2.28,2.28,0,0,0,0,1.16,3.34,3.34,0,0,1,0,1.26,1.77,1.77,0,0,0,0,.32c0,.81.07,1.62.11,2.43,0,.49.07,1,.06,1.49,0,.92-.1,1.84-.15,2.76,0,.39-.07.78-.07,1.17a13.31,13.31,0,0,0,0,1.67,8.43,8.43,0,0,1-.09,1.58c0,.17,0,.34,0,.51l-.09,1c0,.36-.06.71-.08,1.07s0,.68,0,1,0,.62-.05.93S81.55,104.79,81.51,105.25Z"/><path class="cls-1" d="M49.47,111.63a.67.67,0,0,1,0-.19s.08-.06.1,0a.12.12,0,0,1,.06.1S49.53,111.56,49.47,111.63Z"/></svg>