<svg id="O" xmlns="http://www.w3.org/2000/svg" viewBox="0 0 86 112"><defs><style>.cls-1{stroke:#000;stroke-miterlimit:10;}</style></defs><path class="cls-1" d="M78.5,108.18l.33-.24C78.82,108.25,78.82,108.25,78.5,108.18Z"/><path class="cls-1" d="M36.32,75.58c-.08.08-.14.17-.17.17a.36.36,0,0,1-.18-.14s.07-.16.1-.15S36.21,75.52,36.32,75.58Z"/><path class="cls-1" d="M8.74,91.54c0,.07.09.12.09.16s-.06.07-.09.1-.08-.08-.09-.12S8.7,91.6,8.74,91.54Z"/><path class="cls-1" d="M12,77.46l.88.18c-.39.32-.54.3-.91,0Z"/><path class="cls-1" d="M23.73,106.47a9.88,9.88,0,0,1-1.59-1.36,5.85,5.85,0,0,0-1-1.16,2.71,2.71,0,0,1-.41-.42,3.41,3.41,0,0,0-.52-.55A21.32,21.32,0,0,1,17,99.82c-.46-.52-.95-1-1.42-1.52s-.92-1-1.36-1.5a4.37,4.37,0,0,1-.44-.62c-.3-.49-.59-1-.89-1.47s-.58-.84-.87-1.26l-.83-1.27c-.47-.74-.94-1.49-1.42-2.22a13.9,13.9,0,0,1-1.42-2.8A3.24,3.24,0,0,0,8,86.34,15.66,15.66,0,0,1,6.82,84c-.47-1-.92-1.92-1.36-2.89a4.88,4.88,0,0,1-.31-.91c-.24-.88-.48-1.76-.69-2.65-.16-.68-.25-1.37-.42-2-.43-1.7-.92-3.4-1.33-5.11-.18-.79-.22-1.61-.33-2.41-.08-.62-.17-1.24-.25-1.86S2,64.69,1.82,64c-.3-1.57-.29-3.17-.44-4.75A11.23,11.23,0,0,1,1.3,57a1,1,0,0,0-.07-.45A4,4,0,0,1,1,55.19C1,54.8,1,54.42.93,54a4,4,0,0,1,0-.69c0-.25.06-.5.07-.75s0-.67,0-1c.14-1.32.4-2.61.64-3.9a21.8,21.8,0,0,0,.52-3.1,11.6,11.6,0,0,1,.29-1.54c.08-.38.12-.77.19-1.15,0-.2.06-.4.11-.6.16-.57.32-1.14.49-1.7.29-.93.38-1.91.64-2.85.2-.77.31-1.56.46-2.34A11.9,11.9,0,0,1,5,32.34c.35-.86.74-1.7,1.11-2.56a.83.83,0,0,0,.1-.34,2.34,2.34,0,0,1,.62-1.36,4,4,0,0,0,.55-1.24c.13-.42.27-.83.43-1.24a16.51,16.51,0,0,1,.7-1.68c.26-.53.62-1,.92-1.51s.47-.82.7-1.23a.67.67,0,0,1,.13-.22,9.83,9.83,0,0,0,1.1-1.62.62.62,0,0,0,.11-.17,18.27,18.27,0,0,1,1.26-2,14.42,14.42,0,0,1,1.85-2.28,7,7,0,0,0,.54-.68,3.48,3.48,0,0,1,1-1.09,1.89,1.89,0,0,0,.37-.42,2.51,2.51,0,0,1,1-.88c.1,0,.17-.16.25-.25s.09-.16.16-.2c.85-.49,1.32-1.39,2.09-2,.27-.21.57-.38.83-.59.56-.46,1.13-.92,1.67-1.4a10.63,10.63,0,0,1,1.67-1.24,14.59,14.59,0,0,0,1.61-1.23,1.74,1.74,0,0,1,.15-.13L27.62,4a4.62,4.62,0,0,0,1-.48A3.75,3.75,0,0,1,29.84,3c.7-.23,1.39-.52,2.09-.77a6,6,0,0,1,.82-.25c.9-.21,1.82-.4,2.72-.6,1.22-.27,2.44-.56,3.66-.82A8.89,8.89,0,0,1,41.6.23,11.06,11.06,0,0,0,43.3,0a2,2,0,0,1,.65,0c.61.14,1.2.33,1.81.46.81.18,1.63.32,2.45.47l2.9.49a.76.76,0,0,0,.26,0,7,7,0,0,1,3.39.86,1.19,1.19,0,0,1,.22.12l1.57,1.2a11.32,11.32,0,0,0,1.19.75c.82.49,1.73.78,2.55,1.25.06,0,.15.06.16.11.11.38.44.37.72.44A3.08,3.08,0,0,1,62.71,7a1.47,1.47,0,0,0,.42.28,8.59,8.59,0,0,1,1.54,1.06c1,.68,1.83,1.56,2.8,2.25a30.13,30.13,0,0,1,2.25,2.11A3.85,3.85,0,0,1,70,13c.18.2.36.39.52.6.31.41.62.81.91,1.23s.69,1.16,1.09,1.7.53,1.07,1.12,1.34c.09,0,.14.18.2.28a4,4,0,0,0,1.08,1.32,4.22,4.22,0,0,1,.59.67s0,.1.08.14a19.56,19.56,0,0,1,2,3.6.53.53,0,0,1,.08.24,6.49,6.49,0,0,0,1.09,2.73,3.8,3.8,0,0,1,.15.58c.07.22.12.46.21.67s.36.65.52,1,.11.62-.39.69a.41.41,0,0,0-.28.18c.09,0,.18.11.27.1.59,0,.59,0,.48.65l.32-.23a2.09,2.09,0,0,1,.46.87c.25.68.5,1.36.74,2.05a1.34,1.34,0,0,1,.08.53.88.88,0,0,0,.29.91.32.32,0,0,1,.15.25c0,.61.33,1.08.49,1.62s.36,1.12.54,1.68c.06.2.12.39.17.59l.36,1.47.12.49c.08.42.17.83.24,1.25s.12.73.17,1.1a1.7,1.7,0,0,1,.05.8A3.37,3.37,0,0,0,84,45.71a4.27,4.27,0,0,1,0,2A.37.37,0,0,0,84,48a6.34,6.34,0,0,1,.34,2.33,3.66,3.66,0,0,1,0,1.36.2.2,0,0,0,0,.15,6.06,6.06,0,0,1,.29,2.54c0,.43-.07.87-.1,1.3a.43.43,0,0,0,0,.2,1.8,1.8,0,0,1,.15.94,21.16,21.16,0,0,1-.06,2.87c-.1,1.08,0,2.17-.08,3.25a5.26,5.26,0,0,1-.29,2.15,1,1,0,0,0-.06.54,4.1,4.1,0,0,1-.32,2,3.86,3.86,0,0,0-.23,1.34,2,2,0,0,1,0,.35c-.19.72-.41,1.43-.58,2.15a6.14,6.14,0,0,0-.12,1c0,.15,0,.31,0,.45-.14.51-.29,1-.44,1.51-.07.23-.16.44-.24.67-.12.4-.27.8-.35,1.21a6.23,6.23,0,0,0-.43,1.75c0,.09-.13.19-.18.3s-.16.4-.25.6c-.18.45-.38.89-.55,1.34s-.39,1.18-.59,1.77c-.13.36-.27.73-.42,1.08-.24.54-.49,1.08-.76,1.6A6.65,6.65,0,0,0,78.3,86a6.23,6.23,0,0,1-.69,1.23,12.35,12.35,0,0,0-1,1.83,9.47,9.47,0,0,1-.73,1.27l-1.85,3.07-.3.47a3.3,3.3,0,0,0-.49.82,4.82,4.82,0,0,1-.84,1.44,1.43,1.43,0,0,0-.38.69.22.22,0,0,1-.08.13,1.87,1.87,0,0,0-.32.43,87.51,87.51,0,0,1-8.08,7.89l-.59.48c-5.41,4.29-12.65,5.77-13.44,5.93C49.53,111.66,34.61,114.36,23.73,106.47ZM78.08,28.63c-.16-.27-.34-.54-.49-.82s-.24-.48-.36-.71-.15-.27-.2-.41c-.22-.59-.39-1.2-.65-1.77a28.07,28.07,0,0,0-1.9-3.75,2.05,2.05,0,0,0-.51-.55c-.42-.33-.88-.63-1.32-.94a1.32,1.32,0,0,1-.58-.61,8.79,8.79,0,0,0-1.38-2.3c-.27-.35-.52-.71-.78-1.07s-.62-.89-1-1.31-.73-.76-1-1.18a4.63,4.63,0,0,0-1.74-1.52.75.75,0,0,1-.29-.21,19.78,19.78,0,0,0-3.33-2.72,4,4,0,0,1-.8-.61C61.27,7.6,60.5,7.51,60,7a.67.67,0,0,0-.28-.1,8.64,8.64,0,0,1-2.92-1.39,3.35,3.35,0,0,0-.53-.28,3.91,3.91,0,0,1-.41-.2c-.5-.32-1-.67-1.49-1s-1.11-.56-1.67-.83a.75.75,0,0,0-.3,0l-1.12-.05a10.55,10.55,0,0,1-3-.45,4,4,0,0,0-.6-.1,5.77,5.77,0,0,1-.82-.2,1.43,1.43,0,0,0-.79-.14.8.8,0,0,1-.48-.07,2.42,2.42,0,0,0-1.56-.27A4.44,4.44,0,0,1,42,1.77a.91.91,0,0,0-.54,0,2,2,0,0,1-1,0A1.43,1.43,0,0,0,39.4,2a4.6,4.6,0,0,1-1.32.52c-.52.13-1.06.18-1.59.29l-1.92.45c-.66.14-1.34.22-2,.39S31.5,4,31,4.18c-.18.07-.35.18-.54.27a5.74,5.74,0,0,0-1.81.88,1.16,1.16,0,0,1-.58.3,3.91,3.91,0,0,0-1.79.85,25.17,25.17,0,0,0-2.39,2,13.85,13.85,0,0,1-1.21.93,5.73,5.73,0,0,0-1,.67c-.51.54-1.23.87-1.58,1.55a.27.27,0,0,1-.08.07L18,13.47c-.11.1-.2.23-.3.34-.41.47-.84.93-1.21,1.43a8,8,0,0,1-1.12,1.41c-.16.13-.22.38-.38.53a11.79,11.79,0,0,0-1.29,1.69,6,6,0,0,0-.39.59L12.38,21a.27.27,0,0,1-.07.08,1.93,1.93,0,0,0-.67,1.05.68.68,0,0,1-.15.26c-.24.33-.49.65-.72,1a2.78,2.78,0,0,0-.67,1.24.87.87,0,0,1-.14.27,6.27,6.27,0,0,0-.29.58c-.29.76-.58,1.52-.85,2.28a5.21,5.21,0,0,0-.27,1,1.61,1.61,0,0,1-.29.73,3.11,3.11,0,0,0-.71,1.28,5.56,5.56,0,0,1-.33,1c-.15.43-.31.86-.49,1.28-.1.25-.25.48-.36.72a2.82,2.82,0,0,0-.23.61C6,35,6,35.5,5.88,36a8.6,8.6,0,0,0-.37,1.76,9.74,9.74,0,0,1-.44,1.81.79.79,0,0,0-.05.25,2.09,2.09,0,0,1-.19,1c-.06.21-.09.43-.13.64s0,.37-.08.55c-.11.58-.25,1.16-.36,1.74-.16.83-.25,1.69-.43,2.52S3.47,48.07,3.3,49a1.62,1.62,0,0,0,0,.2,11.23,11.23,0,0,0-.16,1.72c.05.81,0,1.61,0,2.42,0,.52.08,1,.11,1.56a.69.69,0,0,1,0,.25c-.16.48,0,1-.28,1.48,0,0,0,.13,0,.2s0,.44,0,.65A8.33,8.33,0,0,0,3,58.3c0,.18,0,.36.07.55a9.45,9.45,0,0,0,.31,2.75.17.17,0,0,1,0,.1,4.56,4.56,0,0,0,.18,1.8c.11.72.28,1.43.38,2.15.14.93.22,1.88.35,2.81.07.42.23.81.31,1.22.18.93.33,1.87.51,2.79a1.91,1.91,0,0,0,.27.71,2.45,2.45,0,0,1,.36,1.25,5.34,5.34,0,0,0,.13.8c.18.65.38,1.29.55,1.93s.4,1.5.55,2.26a11.41,11.41,0,0,0,.37,1.08,14.92,14.92,0,0,0,1.37,2.88c.09.17.15.34.23.51.21.47.42,1,.65,1.42s.6,1.1.89,1.64l.32.58c.3.49.6,1,.89,1.47a5.11,5.11,0,0,0,.62,1,10.77,10.77,0,0,1,1,1.52c.31.45.56,1,.87,1.41a4,4,0,0,1,.75,1.14.22.22,0,0,0,.09.12,1.67,1.67,0,0,1,.51.74,1.22,1.22,0,0,0,.24.32c.38.41.78.8,1.15,1.22.81.91,1.6,1.83,2.4,2.75a3.88,3.88,0,0,0,.31.26c.5.46,1,.93,1.49,1.38.22.21.47.39.69.59a18.68,18.68,0,0,1,1.54,1.4,7,7,0,0,0,1.45,1.26,4,4,0,0,1,1.14.82c.06.08.17.11.25.17.47.3,1,.58,1.41.91a1.27,1.27,0,0,0,.73.3.5.5,0,0,1,.47.31,3,3,0,0,0,.56.56.4.4,0,0,0,.59,0c.33-.3.56-.22.71.19s.33.55.8.44l.46-.09c.12.52.23.64.5.67s.43-.36.72-.45a2,2,0,0,1,.55.21,1,1,0,0,0,1.1,0,1.14,1.14,0,0,1,.63-.07,8.28,8.28,0,0,1,1,.38,2.88,2.88,0,0,1,.77-.08c.21,0,.48.1.63,0,.59-.36,1.19-.1,1.82-.15-.1.5.18.71.56.84a.27.27,0,0,0,.38-.27.81.81,0,0,0-.08-.34c-.14-.39,0-.53.45-.64,0,.11,0,.22,0,.33,0,.39.1.48.49.39l.19,0a.54.54,0,0,1,.62,0,.35.35,0,0,0,.49-.08c0-.53-.07-.56-.52-.65a.84.84,0,0,1-.5-.17.93.93,0,0,1,1.13,0,1.25,1.25,0,0,1,1.28-.7l-.73.69a5.13,5.13,0,0,1,.63.5c.24.25.27.28.6.1a.38.38,0,0,1,.46,0c.09.07.21.12.3.2a.67.67,0,0,0,.71.09,7.34,7.34,0,0,1,.84-.18c.41-.1.87,0,1.22-.38a.53.53,0,0,1,.57-.06,1.65,1.65,0,0,0,.49.06c.22,0,.43,0,.65,0a2.73,2.73,0,0,0,.5-.06,3.52,3.52,0,0,0,.71-.25c.44-.21.87-.44,1.3-.68a.33.33,0,0,0,.16-.19c.11-.29.37-.36.63-.46a1.83,1.83,0,0,0,1.12-.72.73.73,0,0,1,.74-.42.91.91,0,0,0,.66-.2.5.5,0,0,1,.27-.12,1.42,1.42,0,0,0,1-.54.72.72,0,0,1,.37-.24,2,2,0,0,0,1.27-.77,1.16,1.16,0,0,1,.8-.47.53.53,0,0,0,.27-.13c.4-.31.79-.64,1.18-1,.15-.12.31-.21.48,0-.31.33-.61.65-.92,1-.51.51-1.26.72-1.67,1.35a4.85,4.85,0,0,0-1.21.84,3.87,3.87,0,0,1-1.57.78c-.07,0-.12.2-.18.3a1.11,1.11,0,0,0,.29.14.29.29,0,0,0,.2,0l1.4-.69.64-.31a4.3,4.3,0,0,0,1.16-.69,5,5,0,0,1,.82-.64,8.33,8.33,0,0,0,1.4-1,12.38,12.38,0,0,1,1.23-1,5.42,5.42,0,0,0,.83-.65,5.55,5.55,0,0,1,1.81-1.27l.88-.44-.44-.6a4,4,0,0,1,.51-.1c.2,0,.4,0,.61,0,.6,0,.73-.1.87-.68,0-.11.09-.28.16-.29.43-.07.59-.42.81-.71a1.47,1.47,0,0,1,.76-.65A.68.68,0,0,0,70,96a5.51,5.51,0,0,1,1.32-1.78,1.13,1.13,0,0,0,.16-.26l1.08-1.66a14.59,14.59,0,0,0,.89-1.46,10.45,10.45,0,0,1,1.29-2.12,2.64,2.64,0,0,0,.74-1.19A4.31,4.31,0,0,1,76.24,86a3.18,3.18,0,0,0,.26-.44c.2-.46.38-.94.58-1.4.52-1.19,1.06-2.38,1.58-3.57.06-.16.08-.33.13-.49.1-.32.2-.64.31-1s.23-.56.34-.85a15.41,15.41,0,0,1,.69-1.79,4.68,4.68,0,0,0,.51-1.53c0-.23.11-.45.17-.68s.19-.51.25-.77c.21-1,.4-2,.61-3,.08-.39.19-.79.29-1.18A6.82,6.82,0,0,0,82.43,67a.68.68,0,0,1,0-.15A21,21,0,0,0,83,63c0-.66,0-1.32,0-2,0-.33,0-.67.07-1s0-.6,0-.9,0-.51,0-.76c0-.52,0-1.05,0-1.57,0-.27,0-.54,0-.81,0-.49-.05-1,0-1.47,0-.81.1-1.61.16-2.42a.21.21,0,0,0,0-.14c-.25-.28-.15-.56,0-.85-.44-.18-.43-.54-.4-.91a8.44,8.44,0,0,0,0-1c0-.84-.24-1.66-.26-2.52a7.77,7.77,0,0,1-.06-2.31.45.45,0,0,0,0-.2c-.12-.39-.24-.77-.35-1.16a4.7,4.7,0,0,1-.14-.73A4.62,4.62,0,0,0,81.69,40a1.83,1.83,0,0,1-.06-.25c-.15-.51-.3-1-.47-1.55s-.43-1.17-.64-1.76a1,1,0,0,1,0-.25,15.46,15.46,0,0,0-.83-2.92c-.16-.37-.35-.74-.48-1.12s-.23-1-.43-1.45a9.13,9.13,0,0,1-.68-2.07.83.83,0,0,0,.13.07.38.38,0,0,0,.18,0s0-.11,0-.11a.25.25,0,0,0-.17,0S78.12,28.6,78.08,28.63ZM53.76,107.34c.5-.07.55-.1.87-.53C54.22,106.76,54,107,53.76,107.34Zm3.1,2.66c-.27-.24-.44-.22-.59-.09s-.05.17-.11.38Zm3.63-.67v-.15a3.17,3.17,0,0,0-.41-.12c-.06,0-.13.07-.2.11s.09.21.15.21A2.49,2.49,0,0,0,60.49,109.33Zm-1.56.36c.23.13.4.15.55,0a.19.19,0,0,0,0-.18C59.25,109.36,59.1,109.46,58.93,109.69Zm-4.4,1.08.07.14a3.53,3.53,0,0,0,.46-.15s.07-.14,0-.17-.15-.11-.19-.09A3.39,3.39,0,0,0,54.53,110.77Zm.31-4.08c.29,0,.36,0,.33-.32ZM53.7,110.5l0,.13.25.07a.53.53,0,0,0,0-.11Zm7.64-1.87c-.05,0-.08-.09-.11-.1s-.07,0-.07,0a.17.17,0,0,0,.05.12S61.28,108.65,61.34,108.63Zm-16,.11s0-.07,0-.08,0,0-.08,0l0,.12Z"/><path class="cls-1" d="M82.93,88.05c-.14-.22-.14-.22,0-.44C83.11,87.84,83.11,87.84,82.93,88.05Z"/><path class="cls-1" d="M67.25,103.85c-.08.05-.15.12-.17.1s-.09-.1-.13-.15.1-.09.15-.09S67.18,103.79,67.25,103.85Z"/><path class="cls-1" d="M63.65,108.09l0-.4c.09.06.16.08.16.1s0,.2-.05.31Z"/><path class="cls-1" d="M71.35,100.65s.07.11.06.13a.48.48,0,0,1-.14.09s0-.09,0-.13S71.3,100.69,71.35,100.65Z"/><path class="cls-1" d="M76.37,111.22l-.06-.1a.6.6,0,0,1,.11-.06s.06.06,0,.07A.45.45,0,0,1,76.37,111.22Z"/><path class="cls-1" d="M25.22,110.82l0,.06-.08-.07s.05,0,.07,0S25.2,110.8,25.22,110.82Z"/><path class="cls-1" d="M78.07,28.62a9.13,9.13,0,0,0,.68,2.07c.2.46.27,1,.43,1.45s.32.75.48,1.12a15.46,15.46,0,0,1,.83,2.92,1,1,0,0,0,0,.25c.21.59.44,1.17.64,1.76s.32,1,.47,1.55a1.83,1.83,0,0,0,.06.25,4.62,4.62,0,0,1,.41,2.26,4.7,4.7,0,0,0,.14.73c.11.39.23.77.35,1.16a.45.45,0,0,1,0,.2,7.77,7.77,0,0,0,.06,2.31c0,.86.22,1.68.26,2.52a8.44,8.44,0,0,1,0,1c0,.37,0,.73.4.91-.19.29-.29.57,0,.85a.21.21,0,0,1,0,.14c-.06.81-.13,1.61-.16,2.42,0,.49,0,1,0,1.47,0,.27,0,.54,0,.81,0,.52,0,1,0,1.57,0,.25,0,.51,0,.76s0,.6,0,.9-.06.68-.07,1c0,.66,0,1.32,0,2a21,21,0,0,1-.55,3.86.68.68,0,0,0,0,.15A6.82,6.82,0,0,1,82,69.28c-.1.39-.21.79-.29,1.18-.21,1-.4,2-.61,3-.06.26-.17.51-.25.77s-.13.45-.17.68a4.68,4.68,0,0,1-.51,1.53,15.41,15.41,0,0,0-.69,1.79c-.11.29-.24.56-.34.85s-.21.64-.31,1c-.05.16-.07.33-.13.49-.52,1.19-1.06,2.38-1.58,3.57-.2.46-.38.94-.58,1.4a3.18,3.18,0,0,1-.26.44,4.31,4.31,0,0,0-.72,1.55,2.64,2.64,0,0,1-.74,1.19,10.45,10.45,0,0,0-1.29,2.12,14.59,14.59,0,0,1-.89,1.46L71.52,94a1.13,1.13,0,0,1-.16.26A5.51,5.51,0,0,0,70,96a.68.68,0,0,1-.36.33,1.47,1.47,0,0,0-.76.65c-.22.29-.38.64-.81.71-.07,0-.13.18-.16.29-.14.58-.27.69-.87.68-.21,0-.41,0-.61,0a4,4,0,0,0-.51.1l.44.6-.88.44A5.55,5.55,0,0,0,63.71,101a5.42,5.42,0,0,1-.83.65,12.38,12.38,0,0,0-1.23,1,8.33,8.33,0,0,1-1.4,1,5,5,0,0,0-.82.64,4.3,4.3,0,0,1-1.16.69l-.64.31-1.4.69a.29.29,0,0,1-.2,0,1.11,1.11,0,0,1-.29-.14c.06-.1.11-.28.18-.3a3.87,3.87,0,0,0,1.57-.78A4.85,4.85,0,0,1,58.7,104c.41-.63,1.16-.84,1.67-1.35.31-.3.61-.62.92-1-.17-.19-.33-.1-.48,0-.39.31-.78.64-1.18,1a.53.53,0,0,1-.27.13,1.16,1.16,0,0,0-.8.47,2,2,0,0,1-1.27.77.72.72,0,0,0-.37.24,1.42,1.42,0,0,1-1,.54.5.5,0,0,0-.27.12.91.91,0,0,1-.66.2.73.73,0,0,0-.74.42,1.83,1.83,0,0,1-1.12.72c-.26.1-.52.17-.63.46a.33.33,0,0,1-.16.19c-.43.24-.86.47-1.3.68a3.52,3.52,0,0,1-.71.25,2.73,2.73,0,0,1-.5.06c-.22,0-.43,0-.65,0a1.65,1.65,0,0,1-.49-.06.53.53,0,0,0-.57.06c-.35.34-.81.28-1.22.38a7.34,7.34,0,0,0-.84.18.67.67,0,0,1-.71-.09c-.09-.08-.21-.13-.3-.2a.38.38,0,0,0-.46,0c-.33.18-.36.15-.6-.1a5.13,5.13,0,0,0-.63-.5l.73-.69a1.25,1.25,0,0,0-1.28.7.93.93,0,0,0-1.13,0,.84.84,0,0,0,.5.17c.45.09.48.12.52.65a.35.35,0,0,1-.49.08.54.54,0,0,0-.62,0l-.19,0c-.39.09-.5,0-.49-.39,0-.11,0-.22,0-.33-.5.11-.59.25-.45.64a.81.81,0,0,1,.08.34.27.27,0,0,1-.38.27c-.38-.13-.66-.34-.56-.84-.63,0-1.23-.21-1.82.15-.15.1-.42,0-.63,0a2.88,2.88,0,0,0-.77.08,8.28,8.28,0,0,0-1-.38,1.14,1.14,0,0,0-.63.07,1,1,0,0,1-1.1,0,2,2,0,0,0-.55-.21c-.29.09-.36.49-.72.45s-.38-.15-.5-.67l-.46.09c-.47.11-.63,0-.8-.44s-.38-.49-.71-.19a.4.4,0,0,1-.59,0,3,3,0,0,1-.56-.56.5.5,0,0,0-.47-.31,1.27,1.27,0,0,1-.73-.3c-.45-.33-.94-.61-1.41-.91-.08-.06-.19-.09-.25-.17a4,4,0,0,0-1.14-.82,7,7,0,0,1-1.45-1.26,18.68,18.68,0,0,0-1.54-1.4c-.22-.2-.47-.38-.69-.59-.5-.45-1-.92-1.49-1.38a3.88,3.88,0,0,1-.31-.26c-.8-.92-1.59-1.84-2.4-2.75-.37-.42-.77-.81-1.15-1.22a1.22,1.22,0,0,1-.24-.32,1.67,1.67,0,0,0-.51-.74.22.22,0,0,1-.09-.12A4,4,0,0,0,14.18,93c-.31-.46-.56-1-.87-1.41a10.77,10.77,0,0,0-1-1.52,5.11,5.11,0,0,1-.62-1c-.29-.49-.59-1-.89-1.47L10.48,87c-.29-.54-.6-1.09-.89-1.64s-.44-1-.65-1.42c-.08-.17-.14-.34-.23-.51A14.92,14.92,0,0,1,7.34,80.5,11.41,11.41,0,0,1,7,79.42c-.15-.76-.35-1.51-.55-2.26s-.37-1.28-.55-1.93a5.34,5.34,0,0,1-.13-.8,2.45,2.45,0,0,0-.36-1.25,1.91,1.91,0,0,1-.27-.71c-.18-.92-.33-1.86-.51-2.79-.08-.41-.24-.8-.31-1.22-.13-.93-.21-1.88-.35-2.81-.1-.72-.27-1.43-.38-2.15a4.56,4.56,0,0,1-.18-1.8.17.17,0,0,0,0-.1,9.45,9.45,0,0,1-.31-2.75c0-.19-.05-.37-.07-.55a8.33,8.33,0,0,1-.08-.86c0-.21,0-.43,0-.65s0-.16,0-.2c.31-.45.12-1,.28-1.48a.69.69,0,0,0,0-.25c0-.52-.11-1-.11-1.56,0-.81.06-1.61,0-2.42a11.23,11.23,0,0,1,.16-1.72,1.62,1.62,0,0,1,0-.2c.17-.89.33-1.79.53-2.68s.27-1.69.43-2.52c.11-.58.25-1.16.36-1.74,0-.18,0-.37.08-.55s.07-.43.13-.64a2.09,2.09,0,0,0,.19-1,.79.79,0,0,1,.05-.25,9.74,9.74,0,0,0,.44-1.81A8.6,8.6,0,0,1,5.88,36C6,35.5,6,35,6.14,34.42a2.82,2.82,0,0,1,.23-.61c.11-.24.26-.47.36-.72.18-.42.34-.85.49-1.28a5.56,5.56,0,0,0,.33-1,3.11,3.11,0,0,1,.71-1.28,1.61,1.61,0,0,0,.29-.73,5.21,5.21,0,0,1,.27-1c.27-.76.56-1.52.85-2.28a6.27,6.27,0,0,1,.29-.58.87.87,0,0,0,.14-.27,2.78,2.78,0,0,1,.67-1.24c.23-.33.48-.65.72-1a.68.68,0,0,0,.15-.26,1.93,1.93,0,0,1,.67-1.05.27.27,0,0,0,.07-.08l.88-1.52a6,6,0,0,1,.39-.59,11.79,11.79,0,0,1,1.29-1.69c.16-.15.22-.4.38-.53a8,8,0,0,0,1.12-1.41c.37-.5.8-1,1.21-1.43.1-.11.19-.24.3-.34L20,11.66a.27.27,0,0,0,.08-.07c.35-.68,1.07-1,1.58-1.55a5.73,5.73,0,0,1,1-.67,13.85,13.85,0,0,0,1.21-.93,25.17,25.17,0,0,1,2.39-2A3.91,3.91,0,0,1,28,5.63a1.16,1.16,0,0,0,.58-.3,5.74,5.74,0,0,1,1.81-.88c.19-.09.36-.2.54-.27C31.5,4,32,3.75,32.58,3.6s1.33-.25,2-.39l1.92-.45c.53-.11,1.07-.16,1.59-.29A4.6,4.6,0,0,0,39.4,2a1.43,1.43,0,0,1,1.06-.16,2,2,0,0,0,1,0,.91.91,0,0,1,.54,0,4.44,4.44,0,0,0,2.11.15,2.42,2.42,0,0,1,1.56.27.8.8,0,0,0,.48.07,1.43,1.43,0,0,1,.79.14,5.77,5.77,0,0,0,.82.2,4,4,0,0,1,.6.1,10.55,10.55,0,0,0,3,.45l1.12.05a.75.75,0,0,1,.3,0c.56.27,1.13.53,1.67.83s1,.65,1.49,1a3.91,3.91,0,0,0,.41.2,3.35,3.35,0,0,1,.53.28,8.64,8.64,0,0,0,2.92,1.39A.67.67,0,0,1,60,7c.51.5,1.28.59,1.77,1.14a4,4,0,0,0,.8.61,19.78,19.78,0,0,1,3.33,2.72.75.75,0,0,0,.29.21,4.63,4.63,0,0,1,1.74,1.52c.31.42.71.77,1,1.18s.64.87,1,1.31.51.72.78,1.07a8.79,8.79,0,0,1,1.38,2.3,1.32,1.32,0,0,0,.58.61c.44.31.9.61,1.32.94a2.05,2.05,0,0,1,.51.55,28.07,28.07,0,0,1,1.9,3.75c.26.57.43,1.18.65,1.77,0,.14.14.27.2.41s.23.48.36.71.33.55.49.82Zm-61.76,36c0,.34,0,.93.06,1.52s.19,1.4.3,2.1a4.43,4.43,0,0,0,.15.43c.19.57.42,1.14.57,1.73.25,1,.42,1.91.67,2.86.15.57.4,1.1.59,1.66A4.92,4.92,0,0,1,19,76.25a5.14,5.14,0,0,0,.36,1.67,11.62,11.62,0,0,0,.57,1.3c.3.6.56,1.22.92,1.79.45.73.78,1.54,1.23,2.27.56.91,1.19,1.77,1.79,2.65.23.35.48.69.72,1,.6.86,1.18,1.73,1.81,2.57s1.35,1.24,1.75,2.09c0,0,.08.07.11.1.69.66,1.4,1.28,2.05,2A12.62,12.62,0,0,0,31.88,95c.57.43,1.17.8,1.75,1.21a10.72,10.72,0,0,0,3.14,1.51,12.38,12.38,0,0,0,2.63.52c1,.09,2.05.16,3.08.24a1.11,1.11,0,0,1,.44.12,1.78,1.78,0,0,0,1,.13,3.72,3.72,0,0,1,1.41,0,.79.79,0,0,0,.3,0c.9-.22,1.81-.43,2.7-.66s1.89-.52,2.83-.78a9.79,9.79,0,0,0,3.21-1.69c.46-.34.91-.7,1.38-1s.83-.57,1.25-.85a27.57,27.57,0,0,0,3.09-2.38,1.34,1.34,0,0,0,.37-.46,6.52,6.52,0,0,1,1.28-2,2.59,2.59,0,0,0,.82-1.25,1,1,0,0,1,.21-.34A15.72,15.72,0,0,0,64,85.45c.56-1.09,1-2.25,1.51-3.37.3-.64.65-1.26,1-1.88a7.17,7.17,0,0,0,.65-1.26c.25-.85.73-1.59,1-2.42.18-.5.41-1,.6-1.49.08-.22.08-.47.14-.69.16-.63.34-1.24.49-1.87.21-.9.41-1.81.62-2.72a4.75,4.75,0,0,1,.3-1.12,3.12,3.12,0,0,0,.27-1.27,2.17,2.17,0,0,1,0-.36c.28-1.12.2-2.29.53-3.4a.77.77,0,0,0,0-.15c.11-.7.2-1.41.34-2.11A8.59,8.59,0,0,0,71.61,59c-.07-.88-.11-1.76-.12-2.63s.08-1.84,0-2.75c-.08-1.49-.41-3-.46-4.48,0-.74-.08-1.48-.15-2.22,0-.58-.09-1.15-.19-1.72-.19-1-.44-2-.63-3a13.18,13.18,0,0,0-1-3.15,8.8,8.8,0,0,1-.77-2.87A6,6,0,0,0,67.6,34c-.31-.58-.63-1.15-.9-1.75-.41-.89-.77-1.81-1.18-2.7-.32-.67-.68-1.33-1-2-.19-.35-.43-.69-.63-1L63,25a1.54,1.54,0,0,0-.29-.34c-.58-.52-1.17-1-1.76-1.53-.1-.09-.18-.2-.28-.29a4.23,4.23,0,0,0-.7-.58,7.55,7.55,0,0,1-2.22-1.83,9.2,9.2,0,0,0-2.34-1.92,6.16,6.16,0,0,1-1.91-1.41,1,1,0,0,0-.31-.26c-.61-.3-1.21-.61-1.83-.88a17.4,17.4,0,0,1-2.43-.83l-.15,0a10.48,10.48,0,0,0-2.29-.41,1,1,0,0,1-.35-.07,3,3,0,0,0-1.55-.15,2.72,2.72,0,0,1-.9-.07,1.51,1.51,0,0,0-.94.06,2.25,2.25,0,0,1-.68.16,3.81,3.81,0,0,0-1.73.35,1.05,1.05,0,0,1-.19.05,7.34,7.34,0,0,0-2.47.69,1,1,0,0,1-.49.1,1,1,0,0,0-.73.31,2.18,2.18,0,0,1-1,.54A9.85,9.85,0,0,0,34,17.2c-.79.44-1.56.94-2.31,1.44-.55.36-1.07.76-1.58,1.17a4.69,4.69,0,0,1-1,.73,1.68,1.68,0,0,0-.46.39l-.53.54c-.47.47-1,.91-1.4,1.4C26,23.56,25.4,24.3,24.76,25a12,12,0,0,0-2.11,3.22c-.23.5-.48,1-.72,1.51-.15.3-.31.6-.45.9-.27.56-.53,1.13-.8,1.69s-.61,1.07-.83,1.64a26.3,26.3,0,0,0-1.08,2.68A24.48,24.48,0,0,0,18,39.45c-.1.63-.37,1.23-.53,1.85-.21.77-.35,1.56-.61,2.31a18.52,18.52,0,0,0-.64,3.54c-.09.66-.14,1.34-.23,2-.12.82-.25,1.64-.38,2.46-.06.33-.13.66-.18,1s-.08.74-.09,1.11,0,.77,0,1.16A14,14,0,0,0,15.77,59a15.6,15.6,0,0,1,.46,2.28A16.44,16.44,0,0,1,16.31,64.58Zm49.13,33.8A4.42,4.42,0,0,0,64,99.64,8.77,8.77,0,0,0,65.33,99C65.52,98.9,65.63,98.69,65.44,98.38Zm-21.54,5.8H44a1.5,1.5,0,0,0,.09-.35c0-.15-.05-.31-.25-.32s-.21.16-.14.4A1.56,1.56,0,0,0,43.9,104.18Zm5.91,1.26c.24-.08.5-.08.45-.4,0-.06-.17-.15-.26-.15S49.74,105.07,49.81,105.44Zm-3.13,2.27.06.15c.24,0,.43,0,.54-.42Zm16-7.21.07.13c.22,0,.41-.08.43-.41Zm-16.47,7c-.23,0-.32.05-.32.23a.13.13,0,0,0,.09.1C46.19,107.82,46.25,107.7,46.23,107.49Zm1.41-1.16s.09-.08.09-.12-.06-.06-.09-.09l-.12.11Zm-4.13-.73.07,0-.06,0s0,0,0,0A.25.25,0,0,0,43.51,105.6Z"/><path class="cls-1" d="M53.76,107.34c.26-.34.46-.58.87-.53C54.31,107.24,54.26,107.27,53.76,107.34Z"/><path class="cls-1" d="M49.93,112.37c-.07-.14-.16-.32,0-.4a.53.53,0,0,1,.42,0,.16.16,0,0,1,0,.3,2.69,2.69,0,0,1-.4,0Z"/><path class="cls-1" d="M56.86,110l-.7.29c.06-.21.06-.33.11-.38S56.59,109.76,56.86,110Z"/><path class="cls-1" d="M60.49,109.33a2.49,2.49,0,0,1-.46,0c-.06,0-.1-.14-.15-.21s.14-.12.2-.11a3.17,3.17,0,0,1,.41.12Z"/><path class="cls-1" d="M58.93,109.69c.17-.23.32-.33.54-.18a.19.19,0,0,1,0,.18C59.33,109.84,59.16,109.82,58.93,109.69Z"/><path class="cls-1" d="M54.53,110.77a3.39,3.39,0,0,1,.39-.27s.14,0,.19.09,0,.16,0,.17a3.53,3.53,0,0,1-.46.15Z"/><path class="cls-1" d="M54.84,106.69l.33-.32C55.2,106.67,55.13,106.73,54.84,106.69Z"/><path class="cls-1" d="M53.7,110.5l.25.09a.53.53,0,0,1,0,.11l-.25-.07Z"/><path class="cls-1" d="M78.08,28.63s.07-.08.11-.09a.25.25,0,0,1,.17,0s0,.11,0,.11a.38.38,0,0,1-.18,0,.83.83,0,0,1-.13-.07Z"/><path class="cls-1" d="M61.34,108.63c-.06,0-.11.06-.13.05a.17.17,0,0,1-.05-.12s.05,0,.07,0S61.29,108.58,61.34,108.63Z"/><path class="cls-1" d="M45.3,108.74l-.07.06,0-.12s.06,0,.08,0S45.29,108.71,45.3,108.74Z"/><path class="cls-1" d="M16.31,64.58a16.44,16.44,0,0,0-.08-3.34A15.6,15.6,0,0,0,15.77,59a14,14,0,0,1-.42-4.08c0-.39,0-.78,0-1.16s.05-.74.09-1.11.12-.67.18-1c.13-.82.26-1.64.38-2.46.09-.66.14-1.34.23-2a18.52,18.52,0,0,1,.64-3.54c.26-.75.4-1.54.61-2.31.16-.62.43-1.22.53-1.85a24.48,24.48,0,0,1,.78-2.82A26.3,26.3,0,0,1,19.85,34c.22-.57.56-1.09.83-1.64s.53-1.13.8-1.69c.14-.3.3-.6.45-.9.24-.51.49-1,.72-1.51A12,12,0,0,1,24.76,25c.64-.69,1.23-1.43,1.88-2.12.44-.49.93-.93,1.4-1.4l.53-.54a1.68,1.68,0,0,1,.46-.39,4.69,4.69,0,0,0,1-.73c.51-.41,1-.81,1.58-1.17.75-.5,1.52-1,2.31-1.44a9.85,9.85,0,0,1,1.51-.59,2.18,2.18,0,0,0,1-.54,1,1,0,0,1,.73-.31,1,1,0,0,0,.49-.1A7.34,7.34,0,0,1,40.11,15a1.05,1.05,0,0,0,.19-.05A3.81,3.81,0,0,1,42,14.57a2.25,2.25,0,0,0,.68-.16,1.51,1.51,0,0,1,.94-.06,2.72,2.72,0,0,0,.9.07,3,3,0,0,1,1.55.15,1,1,0,0,0,.35.07,10.48,10.48,0,0,1,2.29.41l.15,0a17.4,17.4,0,0,0,2.43.83c.62.27,1.22.58,1.83.88a1,1,0,0,1,.31.26,6.16,6.16,0,0,0,1.91,1.41,9.2,9.2,0,0,1,2.34,1.92,7.55,7.55,0,0,0,2.22,1.83,4.23,4.23,0,0,1,.7.58c.1.09.18.2.28.29.59.51,1.18,1,1.76,1.53A1.54,1.54,0,0,1,63,25l.89,1.6c.2.35.44.69.63,1,.36.65.72,1.31,1,2,.41.89.77,1.81,1.18,2.7.27.6.59,1.17.9,1.75a6,6,0,0,1,.77,2.19,8.8,8.8,0,0,0,.77,2.87,13.18,13.18,0,0,1,1,3.15c.19,1,.44,2,.63,3,.1.57.14,1.14.19,1.72.07.74.13,1.48.15,2.22,0,1.51.38,3,.46,4.48,0,.91,0,1.83,0,2.75s.05,1.75.12,2.63a8.59,8.59,0,0,1-.09,2.32c-.14.7-.23,1.41-.34,2.11a.77.77,0,0,1,0,.15c-.33,1.11-.25,2.28-.53,3.4a2.17,2.17,0,0,0,0,.36,3.12,3.12,0,0,1-.27,1.27,4.75,4.75,0,0,0-.3,1.12c-.21.91-.41,1.82-.62,2.72-.15.63-.33,1.24-.49,1.87-.06.22-.06.47-.14.69-.19.5-.42,1-.6,1.49-.3.83-.78,1.57-1,2.42a7.17,7.17,0,0,1-.65,1.26c-.33.62-.68,1.24-1,1.88-.51,1.12-1,2.28-1.51,3.37a15.72,15.72,0,0,1-1.21,1.76,1,1,0,0,0-.21.34,2.59,2.59,0,0,1-.82,1.25,6.52,6.52,0,0,0-1.28,2,1.34,1.34,0,0,1-.37.46A27.57,27.57,0,0,1,57,93.63c-.42.28-.84.56-1.25.85s-.92.69-1.38,1A9.79,9.79,0,0,1,51.2,97.2c-.94.26-1.88.53-2.83.78s-1.8.44-2.7.66a.79.79,0,0,1-.3,0,3.72,3.72,0,0,0-1.41,0,1.78,1.78,0,0,1-1-.13,1.11,1.11,0,0,0-.44-.12c-1-.08-2.06-.15-3.08-.24a12.38,12.38,0,0,1-2.63-.52,10.72,10.72,0,0,1-3.14-1.51c-.58-.41-1.18-.78-1.75-1.21a12.62,12.62,0,0,1-1.54-1.3c-.65-.69-1.36-1.31-2.05-2,0,0-.09-.06-.11-.1-.4-.85-1.21-1.36-1.75-2.09S25.22,87.82,24.62,87c-.24-.34-.49-.68-.72-1-.6-.88-1.23-1.74-1.79-2.65-.45-.73-.78-1.54-1.23-2.27-.36-.57-.62-1.19-.92-1.79a11.62,11.62,0,0,1-.57-1.3A5.14,5.14,0,0,1,19,76.25a4.92,4.92,0,0,0-.38-1.37c-.19-.56-.44-1.09-.59-1.66-.25-1-.42-1.91-.67-2.86-.15-.59-.38-1.16-.57-1.73a4.43,4.43,0,0,1-.15-.43c-.11-.7-.23-1.4-.3-2.1S16.32,64.92,16.31,64.58Zm1.8.74a6.21,6.21,0,0,0,.36,2.35c0,.15.06.3.1.45a8.16,8.16,0,0,0,.26,1,7.71,7.71,0,0,1,.55,2,4,4,0,0,0,.26.88c.08.24.19.47.26.71.2.7.39,1.4.59,2.1,0,.11.08.22.12.33a9.19,9.19,0,0,1,.45,1.5,5.51,5.51,0,0,0,.74,2c.12.2.23.41.34.62.48.91.93,1.84,1.45,2.73.38.66.84,1.27,1.25,1.91.06.08.09.18.15.27l.6.93.39.53.49.7a24.42,24.42,0,0,1,1.58,2.06,5,5,0,0,0,.8,1c1,1,1.95,1.88,2.93,2.8a6.71,6.71,0,0,0,1,.89,3.51,3.51,0,0,1,.76.57,1.55,1.55,0,0,0,.24.19,16.42,16.42,0,0,0,4.1,2,1.87,1.87,0,0,0,.4.07c.74.09,1.48.19,2.22.27s1.51.18,2.27.23a9.42,9.42,0,0,1,1.06,0,7,7,0,0,0,1.7.19,3.2,3.2,0,0,0,.7-.07c1.29-.35,2.57-.73,3.87-1.08a6.27,6.27,0,0,0,2.44-1.06c.33-.26.67-.53,1-.77.89-.62,1.82-1.18,2.65-1.87a13.13,13.13,0,0,0,2.34-1.93c.07-.1.23-.14.33-.23a2.34,2.34,0,0,0,.54-.65,4.3,4.3,0,0,1,.84-1.38A25.5,25.5,0,0,0,62,85.06a5.24,5.24,0,0,0,.54-.87c.34-.66.65-1.33,1-2,.11-.23.24-.45.33-.69a12.87,12.87,0,0,1,1.56-3.18,2,2,0,0,0,.25-.54,11.28,11.28,0,0,1,.41-1.2,15.37,15.37,0,0,0,1.1-2.77c.06-.23.17-.44.22-.67.13-.61.2-1.24.35-1.84.26-1,.58-2.09.85-3.13a11.31,11.31,0,0,0,.45-2.89,1.06,1.06,0,0,1,0-.25c.19-1,.37-1.93.58-2.89a13.58,13.58,0,0,0,.26-3.54,22.36,22.36,0,0,1,0-3.75,2.26,2.26,0,0,0,0-.45c-.08-.9-.19-1.79-.25-2.68-.12-1.74-.22-3.48-.31-5.22A5.13,5.13,0,0,0,69,44.81a1.67,1.67,0,0,1-.12-.49,17,17,0,0,0-1-4.29,9.8,9.8,0,0,1-.61-1.75c-.1-.58-.33-1.14-.43-1.72a6.92,6.92,0,0,0-.74-2c-.33-.67-.71-1.3-1-2-.4-1.08-.87-2.13-1.31-3.19a3.24,3.24,0,0,0-.21-.35c-.31-.48-.63-.95-.92-1.44a15.05,15.05,0,0,0-1.31-2,5.08,5.08,0,0,1-.61-1,.75.75,0,0,0-.48-.41,4.92,4.92,0,0,1-1.72-1.05c-.41-.35-.84-.67-1.27-1a1.93,1.93,0,0,1-.3-.27,4.71,4.71,0,0,0-1.52-1.39.42.42,0,0,1-.18-.17,1.09,1.09,0,0,0-.77-.53A2.57,2.57,0,0,1,53.37,19a3.45,3.45,0,0,0-.62-.59,11.49,11.49,0,0,0-1.3-.69c-.74-.36-1.5-.7-2.25-1a.74.74,0,0,0-.29-.05,2.72,2.72,0,0,1-2-.67c-.16-.14-.3-.21-.49-.06a.88.88,0,0,1-1,0,1.34,1.34,0,0,0-.44-.1c-1,0-2.09.06-3.14.13a3.72,3.72,0,0,0-1.23.27,3.8,3.8,0,0,1-1.32.31,1.4,1.4,0,0,0-.54.1q-.8.35-1.56.75a11.46,11.46,0,0,1-1.5.81,7,7,0,0,0-1.4.68,9.71,9.71,0,0,0-1.07.68,6.61,6.61,0,0,1-1.86,1,.64.64,0,0,0-.34.26,3.88,3.88,0,0,1-1.55,1.43,1.74,1.74,0,0,0-.82.85,1.47,1.47,0,0,1-.47.58,3.89,3.89,0,0,0-.78.79,10.27,10.27,0,0,1-1.55,1.74,7.14,7.14,0,0,0-1.57,2.21,19.19,19.19,0,0,1-1,2.14,6.31,6.31,0,0,0-.75,1.49,6.94,6.94,0,0,1-.6,1.33A10.23,10.23,0,0,0,21,35.34c-.41,1.34-.9,2.66-1.34,4a6.64,6.64,0,0,0-.18.74c-.17.81-.33,1.62-.5,2.43,0,.1-.08.19-.11.29-.17.54-.34,1.09-.49,1.64a9.69,9.69,0,0,0-.23,1c-.14.75-.28,1.5-.41,2.25,0,.26,0,.54,0,.81-.08.51-.2,1-.27,1.55-.1.87-.18,1.74-.26,2.62,0,.47-.06.94-.06,1.42a.7.7,0,0,0,.16.41.62.62,0,0,1,.08.83c-.06.12-.1.25-.16.37a2.29,2.29,0,0,0-.08,1.78,15.86,15.86,0,0,1,.44,1.93c.13.69.18,1.4.3,2.1A13.29,13.29,0,0,1,18.11,65.32Z"/><path class="cls-1" d="M65.44,98.38c.19.31.08.52-.11.63a8.77,8.77,0,0,1-1.31.63A4.42,4.42,0,0,1,65.44,98.38Z"/><path class="cls-1" d="M43.9,104.18a1.56,1.56,0,0,1-.16-.28c-.07-.24,0-.41.14-.4s.25.17.25.32a1.5,1.5,0,0,1-.09.35Z"/><path class="cls-1" d="M49.81,105.44c-.07-.37,0-.54.19-.55s.25.09.26.15C50.31,105.36,50.05,105.36,49.81,105.44Z"/><path class="cls-1" d="M46.68,107.71l.6-.27c-.11.41-.3.46-.54.42Z"/><path class="cls-1" d="M62.7,100.5l.5-.28c0,.33-.21.39-.43.41Z"/><path class="cls-1" d="M46.23,107.49c0,.21,0,.33-.23.33a.13.13,0,0,1-.09-.1C45.91,107.54,46,107.46,46.23,107.49Z"/><path class="cls-1" d="M47.64,106.33l-.12-.1.12-.11s.08.06.09.09S47.67,106.28,47.64,106.33Z"/><path class="cls-1" d="M43.51,105.6a.25.25,0,0,1,0-.07s0,0,0,0l.06,0Z"/></svg>