<svg id="P" xmlns="http://www.w3.org/2000/svg" viewBox="0 0 86 112"><defs><style>.cls-1{stroke:#000;stroke-miterlimit:10;}</style></defs><path class="cls-1" d="M7.91,8.4c-.32-.17-.31-.45-.33-.76a9.38,9.38,0,0,0-.16-1.4A4,4,0,0,1,7.47,5a1.24,1.24,0,0,0,0-.69,1.7,1.7,0,0,1-.07-.46c0-.15,0-.3,0-.46s-.07-.3,0-.41A2.59,2.59,0,0,0,7.4,1.86a.81.81,0,0,1,.14-.42c.17-.26.37-.5.57-.76l.11,0c.36.06.65,0,.74-.43,0-.09.2-.16.32-.22a.41.41,0,0,1,.19,0c.71.1,1.42.19,2.12.31a5.11,5.11,0,0,0,1.87,0A9.31,9.31,0,0,1,16.83.2a3.94,3.94,0,0,0,.84,0c.77,0,1.54,0,2.3-.06h1.12a.65.65,0,0,0,.14,0,7.6,7.6,0,0,1,2.38,0,7.37,7.37,0,0,0,.93-.11,1.37,1.37,0,0,1,.4.05,2.56,2.56,0,0,0,.53.13,23.13,23.13,0,0,1,2.63.1A5.81,5.81,0,0,0,29.4.23c.08,0,.16-.05.23,0a7.16,7.16,0,0,0,2.61,0c.95,0,1.91,0,2.87,0l1,0c.53,0,1.07,0,1.6,0,.69,0,1.37-.06,2.06-.06.89,0,1.78,0,2.67,0h2.58c.9,0,1.79,0,2.69,0,.47,0,.95.13,1.42.19.13,0,.25,0,.38,0a1.54,1.54,0,0,1,.37,0,7.5,7.5,0,0,0,2.26.34s.11,0,.14,0c.38.31.84.18,1.27.21a.93.93,0,0,1,.69.24.25.25,0,0,0,.16.08,10.07,10.07,0,0,0,1.83.38,3.38,3.38,0,0,1,1.13.27c.66.19,1.32.37,2,.59s1.49.33,2.24.49a3.25,3.25,0,0,1,.4.15l.39.1.55.15.62.15c.09,0,.22,0,.27.06.33.38.88.34,1.25.63a.54.54,0,0,0,.34.14,4.42,4.42,0,0,1,1.93.91c.44.27.84.61,1.25.92l0,0c.21.52.76.65,1.12,1a1.41,1.41,0,0,1,.18.29s0,.09,0,.1a4.73,4.73,0,0,1,1.52,1.33,5.63,5.63,0,0,0,.85.77c.35.26.49.67.76,1a12,12,0,0,0,1.27,1.59.84.84,0,0,1,.3.35,1.05,1.05,0,0,0,.48.54.35.35,0,0,1,.17.21,4.54,4.54,0,0,0,.91,1.58c.29.45.55.91.8,1.38,0,.06,0,.2-.08.33l.54.19a6.32,6.32,0,0,0,.37.57c.22.25.33.5.07.81a1.58,1.58,0,0,1,.83.95c.19.39.48.72.69,1.1a18.66,18.66,0,0,1,.93,1.84,7.48,7.48,0,0,1,.25,1.18,1,1,0,0,0,.18.43,1.16,1.16,0,0,1,.3,1.08,2.85,2.85,0,0,0,.13,1.16,2.74,2.74,0,0,1,0,.5c0,.07,0,.17,0,.2.23.22.21.52.26.79.11.59.2,1.19.28,1.79s0,.92.09,1.38c0,.25.07.49.11.74,0,.07,0,.17,0,.22a.88.88,0,0,0,0,.89,1.11,1.11,0,0,1,.15.76.59.59,0,0,0,.09.34,3.58,3.58,0,0,0-.23.64c-.11.59-.18,1.19-.26,1.79,0,0,0,.06,0,.09-.35.55-.18,1.21-.37,1.79,0,.08,0,.19,0,.23-.27.25-.18.54-.13.83a1.93,1.93,0,0,1-.21,1.08,4.2,4.2,0,0,0-.41,1.24,7.72,7.72,0,0,1-.4,1.52,6.48,6.48,0,0,1-.54,1.13c-.12.25-.21.52-.32.78l-.27.74s-.06.09-.06.13c0,.48-.34.82-.45,1.25,0,.06,0,.15-.08.17-.32.15-.31.47-.4.75,0,0,0,0,0,0-.29.49-.56,1-.87,1.48s-.61.79-.89,1.19a1.88,1.88,0,0,0-.25.56,1,1,0,0,1-.45.63.83.83,0,0,0-.28.25L74.26,53.6l-.15.18-2.19,2c-.19.17-.4.31-.58.49a4.28,4.28,0,0,0-.4.45c-.07.08-.13.18-.2.26-.53.49-1,1-1.59,1.46a3.07,3.07,0,0,1-.67.43,3.23,3.23,0,0,0-1.2.87,1.48,1.48,0,0,1-.89.59.5.5,0,0,0-.13,0,5.13,5.13,0,0,1-2,.88c-1.55.65-3.13,1.22-4.68,1.85a10.16,10.16,0,0,1-2.81.75.62.62,0,0,0-.23,0,10.85,10.85,0,0,1-3.21.36c-.19,0-.37.05-.56.06a3.37,3.37,0,0,1-.55,0c-.27,0-.53-.08-.79-.09a25.56,25.56,0,0,0-2.77.13c-.85.07-1.7,0-2.55,0a4.43,4.43,0,0,0-.89,0,26.4,26.4,0,0,1-3.66.27,14.5,14.5,0,0,1-2.38-.16,12.21,12.21,0,0,0-1.6,0H35a11.47,11.47,0,0,0-1.31,0c-1.08.08-2.16.16-3.23.29s-2,.33-3,.47a6,6,0,0,1-2.39,0,2.63,2.63,0,0,0-1.21.09.29.29,0,0,0-.26.33c0,.3.05.6,0,.89,0,.76-.05,1.51-.08,2.26,0,.3,0,.6,0,.9v3c0,.38.06.75.06,1.13,0,.67-.06,1.35,0,2,0,.93-.05,1.85-.08,2.77s.05,2.1,0,3.15a14.81,14.81,0,0,1,0,2.58,9.6,9.6,0,0,0,0,1.42c0,.75-.07,1.5,0,2.25s.16,1.69.21,2.54.05,1.5.05,2.26c0,1.06-.05,2.13-.05,3.2,0,.75.05,1.5.08,2.26a1.2,1.2,0,0,1,0,.19,9.77,9.77,0,0,0,.06,2c0,.6,0,1.22,0,1.83s0,1.46,0,2.2a8.47,8.47,0,0,1-.1,1.12,5.42,5.42,0,0,0,.16,2,.89.89,0,0,0,.08.17c.23.41.14.37-.06.76-.47.9-1.32.81-2.08.89a16.24,16.24,0,0,1-2,0,21.15,21.15,0,0,0-4.5.27,19.06,19.06,0,0,1-2.25.16l-.9.06c-.26,0-.53,0-.79,0l-.57,0c-.54,0-1.1,0-1.64-.12a3.2,3.2,0,0,1-.91-.36c-.11-.06-.14-.26-.2-.4A5.5,5.5,0,0,1,8,108.5a1,1,0,0,1,0-.44A3.42,3.42,0,0,0,8,106.71c0-.11-.06-.22,0-.33.13-1-.16-2.06-.06-3.1,0-.46-.06-.94,0-1.41a7.42,7.42,0,0,0-.13-1.76.75.75,0,0,1,0-.36,2.25,2.25,0,0,0,0-.93,8.09,8.09,0,0,1,0-1.48c0-.29.12-.58.11-.88,0-.86-.06-1.72-.06-2.57,0-1,0-2,0-3,0-.53-.06-1.06-.1-1.59a1.42,1.42,0,0,1,0-.41,5,5,0,0,0,0-2.15,12,12,0,0,1,0-1.34,10.11,10.11,0,0,0,.06-2.33,10,10,0,0,1,0-1.73,1.82,1.82,0,0,1,.1-.45c0-.09.06-.2,0-.27A5.66,5.66,0,0,1,7.8,79a18.58,18.58,0,0,1,0-2,1.14,1.14,0,0,0,0-.37,3.13,3.13,0,0,1,0-1.55,1.27,1.27,0,0,0-.12-.83c-.06-.08,0-.23,0-.35s.09-.39.09-.59c0-.42,0-.85,0-1.27S7.7,71,7.69,70.47a8.77,8.77,0,0,1,.11-1c0-.14,0-.28,0-.42,0-1.46,0-2.92,0-4.37,0-.72-.08-1.44-.12-2.16a1.84,1.84,0,0,1,0-.33,1.11,1.11,0,0,0,0-.51,4.47,4.47,0,0,1,0-1.67c0-1.38.11-2.76.1-4.14,0-.93-.13-1.87-.2-2.8a25.71,25.71,0,0,1-.15-2.77c0-.63-.09-1.25-.12-1.88a7.37,7.37,0,0,1,0-.94c0-.83.16-1.66.15-2.49,0-.64.1-1.28.06-1.91a14.76,14.76,0,0,1,0-1.88c0-.61.08-1.22.1-1.83s0-1.38,0-2.07c0-.34,0-.69,0-1,0-.79,0-1.57-.05-2.35a7.25,7.25,0,0,0-.09-.8,16.6,16.6,0,0,1,0-2.82,29.31,29.31,0,0,0,0-3.38,10.87,10.87,0,0,1,.13-2.84,9.32,9.32,0,0,0,.06-1.5,8.54,8.54,0,0,0-.13-2.2,1.86,1.86,0,0,1,0-.47c0-.72,0-1.45.07-2.17a7.14,7.14,0,0,0-.14-1c0-.25,0-.5,0-.74a4.06,4.06,0,0,0-.09-.7c0-.09-.08-.2-.06-.27a3.93,3.93,0,0,0,0-1.45c0-.34,0-.68,0-1,0-.72-.08-1.44,0-2.15A4.53,4.53,0,0,1,7.91,8.4Zm65,4.33c-.25,0-.41,0-.52-.23a4,4,0,0,0-.51-.66,2.69,2.69,0,0,1-.67-1,.46.46,0,0,0-.15-.22L69.46,9.34l-.06-.07a3.74,3.74,0,0,0-1.14-1,8.76,8.76,0,0,1-1.15-.81,13.46,13.46,0,0,0-1.77-1.16A6.46,6.46,0,0,0,64,5.6c-.68-.28-1.36-.56-2.06-.78-.88-.27-1.79-.47-2.68-.71l-2.58-.69C56.1,3.26,55.53,3.12,55,3s-.89-.18-1.34-.26c-.88-.14-1.77-.29-2.65-.41s-1.49-.14-2.24-.23a5.14,5.14,0,0,0-1.21-.15c-.56.08-1.09-.06-1.63,0h-.33a15.92,15.92,0,0,1-3-.07,2.74,2.74,0,0,0-.7,0c-.71,0-1.41.07-2.12.08s-1.16-.06-1.74,0a14.89,14.89,0,0,1-1.77.06c-1.16-.08-2.32-.1-3.48-.11s-2.2,0-3.3,0a21.33,21.33,0,0,0-2.4,0,8.39,8.39,0,0,1-1.12,0,20.53,20.53,0,0,0-3.76,0,.86.86,0,0,1-.23,0,5.36,5.36,0,0,0-1.6,0c-.72,0-1.44.07-2.16.1a1.41,1.41,0,0,1-.28,0c-.59-.07-1.18-.18-1.77-.21-.79,0-1.58,0-2.41-.05-.17.38-.48.37-.86.28a3.26,3.26,0,0,0-1.07-.12,2.92,2.92,0,0,1-1.32-.17,1.32,1.32,0,0,0-1,0,.69.69,0,0,1-.68,0A3.64,3.64,0,0,1,8.92,3a1.33,1.33,0,0,1-1,.94c.48.11.59.34.54.71a5.33,5.33,0,0,0,0,1c0,.1.06.2.07.31a1.16,1.16,0,0,1-.09.93c.34.44.34.5.06.89a1.26,1.26,0,0,1,0,1.62,1,1,0,0,1,.15.21,3.13,3.13,0,0,1,.2.66,3.18,3.18,0,0,1,0,.69c0,.33,0,.66-.07,1,0,.17-.08.32.07.47a.39.39,0,0,1,0,.35,3.26,3.26,0,0,0,0,1.39,2.62,2.62,0,0,1,0,.79,2.71,2.71,0,0,0-.08.69c0,.45.12.89.16,1.35,0,.22-.08.45-.07.68,0,.42.09.84.13,1.26a1.74,1.74,0,0,1,0,.51,3.34,3.34,0,0,0,0,1.26c.06.67.13,1.34.15,2,0,.42-.05.85-.07,1.27,0,.67-.05,1.35-.08,2,0,.19,0,.38,0,.57,0,.5,0,1,0,1.5s-.06.72-.07,1.08a4,4,0,0,1-.12,1.57.45.45,0,0,0,0,.23c.05.61.07,1.22.17,1.83a10.36,10.36,0,0,1,.13,2.15,20,20,0,0,0,.08,3,11,11,0,0,1,0,1.4l-.06,1.41C9,41.5,9,42.33,9,43.16a9.27,9.27,0,0,1,0,2,2.86,2.86,0,0,0-.11.64c0,.5,0,1,0,1.5a2,2,0,0,1,0,.6,5.46,5.46,0,0,0-.14,2A15.41,15.41,0,0,0,9,52.58a1.31,1.31,0,0,1,0,.52,3.4,3.4,0,0,0,.06,1.31,4.72,4.72,0,0,1,0,1.59,3.47,3.47,0,0,0,0,.56c0,.45.12.91.12,1.36a17.67,17.67,0,0,0-.09,3,1.28,1.28,0,0,1,0,.19c0,.6-.07,1.21-.05,1.82,0,.82.13,1.63.17,2.44s0,1.35,0,2a2.06,2.06,0,0,1,0,.7,3.3,3.3,0,0,0-.07,1.25,6,6,0,0,1,0,.85,9.32,9.32,0,0,0,.08,2.53,2.13,2.13,0,0,1-.07,1A2.13,2.13,0,0,0,9.2,75a5.46,5.46,0,0,1,.19,2.09,3.12,3.12,0,0,0,0,.52c0,.57.08,1.15.11,1.73a2.61,2.61,0,0,1-.06.27c0,.2,0,.4,0,.6s0,.32,0,.47c-.08,1-.17,2.1-.26,3.15a1.34,1.34,0,0,0,0,.28c0,.4.08.81.07,1.22a31,31,0,0,1,.12,3.61s0,.06,0,.09a17.73,17.73,0,0,1,.09,2.82,3.82,3.82,0,0,0,.08.75.7.7,0,0,1,0,.32,2.72,2.72,0,0,0,0,1.3,3.57,3.57,0,0,1,0,1,5,5,0,0,0,0,1.49,4.83,4.83,0,0,1,0,.85,6.46,6.46,0,0,0,0,1.07A14.21,14.21,0,0,1,9.65,101a1.85,1.85,0,0,0,0,.23c0,.33,0,.66,0,1a3.19,3.19,0,0,0,.07,1.44.75.75,0,0,1,0,.33,3.82,3.82,0,0,0,.07,1.54,4.1,4.1,0,0,1-.28,2.16l-.11.3.36,0a3,3,0,0,1,.42,0c.32,0,.65.06,1,0l3.81-.17a1.37,1.37,0,0,0,.28-.05,10.76,10.76,0,0,1,2.93-.38,1.69,1.69,0,0,0,.54-.12,1.1,1.1,0,0,1,1,0,.64.64,0,0,0,.26.1h1.32a.28.28,0,0,0,.3-.29,2.61,2.61,0,0,0,0-.56,3,3,0,0,1,0-1.12,7,7,0,0,0,0-1.83,3.5,3.5,0,0,1,.08-.64c0-.19,0-.37,0-.55a3,3,0,0,0,0-.42l0-.75c0-.39-.06-.78-.05-1.17a2.62,2.62,0,0,0-.06-.88,1.58,1.58,0,0,1,0-.65c0-.23.1-.46.11-.69,0-.87.05-1.73.06-2.59,0-.12-.05-.25-.06-.37a4.86,4.86,0,0,1,0-.54c0-.13.07-.25.07-.37a11.21,11.21,0,0,0-.13-3.27,1.15,1.15,0,0,1,0-.37c0-.79,0-1.57-.07-2.35a5.32,5.32,0,0,1,0-2.14,1,1,0,0,0,0-.43,5.54,5.54,0,0,1,0-1.77.77.77,0,0,0-.1-.44.44.44,0,0,1,0-.4,1.36,1.36,0,0,0,.05-.41c0-.67,0-1.34,0-2,0-.33.06-.65.06-1,0-.61,0-1.22,0-1.83a4.23,4.23,0,0,0,0-.7,8.61,8.61,0,0,1,.1-1.83,1.32,1.32,0,0,0,0-.56,1.72,1.72,0,0,1-.06-.87,2.18,2.18,0,0,0,0-.57,6.17,6.17,0,0,1,0-1.82.66.66,0,0,0-.06-.36.7.7,0,0,1,0-.55c0-.16,0-.34.08-.51a6.94,6.94,0,0,0,0-1.44,8.14,8.14,0,0,0-.22-1.85.39.39,0,0,1,.06-.39,1.22,1.22,0,0,0,.16-1A4.31,4.31,0,0,1,22,63.69l1.08-.06c.33,0,.66,0,1,0a3,3,0,0,1,1.34,0,2.48,2.48,0,0,0,1.11.09c.65-.11,1.28-.3,1.93-.35a2,2,0,0,0,.42-.08,6.47,6.47,0,0,1,2.54-.36.73.73,0,0,0,.33,0,5.53,5.53,0,0,1,2.18-.18,7,7,0,0,1,1.77,0,1.2,1.2,0,0,0,.38,0,4,4,0,0,1,1.54,0s.12,0,.18,0a8.2,8.2,0,0,1,2.57.12,1.2,1.2,0,0,0,.33,0,29.83,29.83,0,0,0,4.22-.29c.42,0,.84-.09,1.26-.1.88,0,1.76,0,2.64,0a3.57,3.57,0,0,0,.56,0,6.56,6.56,0,0,1,2.38,0,2.51,2.51,0,0,0,.61,0c.88,0,1.75-.15,2.63-.16A13,13,0,0,0,57.27,62a14.86,14.86,0,0,0,1.43-.46c.51-.16,1-.3,1.53-.47a4,4,0,0,0,.63-.3c.14-.07.26-.18.41-.24,1-.4,2-.65,2.94-1.1.74-.34,1.5-.63,2.24-1A3.16,3.16,0,0,0,67,58a2.41,2.41,0,0,1,.24-.21,4.46,4.46,0,0,0,1.59-1.43s.1-.07.14-.11l1.17-1c.07-.06.09-.17.14-.24a1,1,0,0,1,.17-.23c.55-.46,1.12-.9,1.67-1.35a.93.93,0,0,0,.18-.16c.42-.52.81-1.07,1.26-1.55a4,4,0,0,0,1.26-1.68l0,0L75.65,49a2.48,2.48,0,0,0,.68-1,.42.42,0,0,1,.08-.12,5.19,5.19,0,0,0,.87-1.8,1.59,1.59,0,0,1,.57-.9.88.88,0,0,1,.07-.9,9.82,9.82,0,0,1,.58-1.38c.17-.25.16-.61.3-.89a12.56,12.56,0,0,0,.79-2.55,3.92,3.92,0,0,0,.13-.49c0-.46,0-.93.12-1.39s.22-.94.33-1.41c0-.09.06-.2,0-.26a1.19,1.19,0,0,1,.07-1,1.49,1.49,0,0,0,.08-1.19,1.49,1.49,0,0,1-.07-1,1.48,1.48,0,0,0,0-.47c0-.51-.05-1-.09-1.54A14.11,14.11,0,0,0,80,28.89c-.09-.46-.18-.91-.26-1.37a11.65,11.65,0,0,0-.31-1.95,5.82,5.82,0,0,0-.14-.63.36.36,0,0,1,.1-.5l-.23-.35a1,1,0,0,1-.24-.66A2.24,2.24,0,0,0,78.54,22L78,21.21a.75.75,0,0,1-.12-.8.3.3,0,0,0-.2-.45,1.49,1.49,0,0,1-.92-1,2.79,2.79,0,0,0-.62-1,.6.6,0,0,1-.16-.23,6.4,6.4,0,0,0-.8-1.3,10.49,10.49,0,0,1-.78-1.22,5.12,5.12,0,0,0-1.17-1.69A.87.87,0,0,1,72.87,12.73ZM8,2.15c-.23.21-.08.46,0,.64S8.3,3,8.57,3c0-.1,0-.23,0-.3S8.2,2.33,8,2.15Zm1.25-1C9.05.83,8.82.79,8.39,1c.08.4.08.39.42.29Zm1.59.19-.48-.17C10.42,1.52,10.42,1.52,10.85,1.37ZM80.41,41.16c0-.19,0-.31-.2-.34s-.15.09-.29.17Zm-.09-1,.1-.13-.24-.11-.05.06A1.57,1.57,0,0,0,80.32,40.18Zm-70.24-39c-.21-.08-.29,0-.26.2ZM80.76,26.63l-.07.06.19.16.05,0ZM65.32,5.41c.07-.08.12-.12.13-.16s0-.1-.07-.1a.22.22,0,0,0-.14.08S65.28,5.32,65.32,5.41ZM76.19,16.27l0-.1s-.08,0-.1.06,0,.07,0,.1ZM61.33,3.9l.07,0-.06-.19h-.05ZM13.18,1.61l.08-.06-.06-.1s-.07,0-.07.05A.54.54,0,0,0,13.18,1.61Z"/><path class="cls-1" d="M72.87,12.73a.87.87,0,0,0,.35.77,5.12,5.12,0,0,1,1.17,1.69,10.49,10.49,0,0,0,.78,1.22,6.4,6.4,0,0,1,.8,1.3.6.6,0,0,0,.16.23,2.79,2.79,0,0,1,.62,1,1.49,1.49,0,0,0,.92,1,.3.3,0,0,1,.2.45.75.75,0,0,0,.12.8l.55.81A2.24,2.24,0,0,1,79,23.43a1,1,0,0,0,.24.66l.23.35a.36.36,0,0,0-.1.5,5.82,5.82,0,0,1,.14.63,11.65,11.65,0,0,1,.31,1.95c.08.46.17.91.26,1.37a14.11,14.11,0,0,1,.17,1.72c0,.51.06,1,.09,1.54a1.48,1.48,0,0,1,0,.47,1.49,1.49,0,0,0,.07,1,1.49,1.49,0,0,1-.08,1.19,1.19,1.19,0,0,0-.07,1c0,.06,0,.17,0,.26-.11.47-.25.93-.33,1.41s-.07.93-.12,1.39a3.92,3.92,0,0,1-.13.49A12.56,12.56,0,0,1,78.8,42c-.14.28-.13.64-.3.89a9.82,9.82,0,0,0-.58,1.38.88.88,0,0,0-.07.9,1.59,1.59,0,0,0-.57.9,5.19,5.19,0,0,1-.87,1.8.42.42,0,0,0-.08.12,2.48,2.48,0,0,1-.68,1l-.81,1.07,0,0a4,4,0,0,1-1.26,1.68c-.45.48-.84,1-1.26,1.55a.93.93,0,0,1-.18.16c-.55.45-1.12.89-1.67,1.35a1,1,0,0,0-.17.23c0,.07-.07.18-.14.24l-1.17,1s-.11.06-.14.11a4.46,4.46,0,0,1-1.59,1.43A2.41,2.41,0,0,0,67,58a3.16,3.16,0,0,1-.54.44c-.74.34-1.5.63-2.24,1-.95.45-2,.7-2.94,1.1-.15.06-.27.17-.41.24a4,4,0,0,1-.63.3c-.51.17-1,.31-1.53.47a14.86,14.86,0,0,1-1.43.46,13,13,0,0,1-2.32.37c-.88,0-1.75.11-2.63.16a2.51,2.51,0,0,1-.61,0,6.56,6.56,0,0,0-2.38,0,3.57,3.57,0,0,1-.56,0c-.88,0-1.76,0-2.64,0-.42,0-.84.07-1.26.1a29.83,29.83,0,0,1-4.22.29,1.2,1.2,0,0,1-.33,0,8.2,8.2,0,0,0-2.57-.12c-.06,0-.13,0-.18,0a4,4,0,0,0-1.54,0,1.2,1.2,0,0,1-.38,0,7,7,0,0,0-1.77,0,5.53,5.53,0,0,0-2.18.18.73.73,0,0,1-.33,0,6.47,6.47,0,0,0-2.54.36,2,2,0,0,1-.42.08c-.65,0-1.28.24-1.93.35a2.48,2.48,0,0,1-1.11-.09,3,3,0,0,0-1.34,0c-.32,0-.65,0-1,0L22,63.69a4.31,4.31,0,0,0-.13,1.36,1.22,1.22,0,0,1-.16,1,.39.39,0,0,0-.06.39,8.14,8.14,0,0,1,.22,1.85,6.94,6.94,0,0,1,0,1.44c0,.17,0,.35-.08.51a.7.7,0,0,0,0,.55.66.66,0,0,1,.06.36,6.17,6.17,0,0,0,0,1.82,2.18,2.18,0,0,1,0,.57,1.72,1.72,0,0,0,.06.87,1.32,1.32,0,0,1,0,.56,8.61,8.61,0,0,0-.1,1.83,4.23,4.23,0,0,1,0,.7c0,.61,0,1.22,0,1.83,0,.33-.06.65-.06,1,0,.68,0,1.35,0,2a1.36,1.36,0,0,1-.05.41.44.44,0,0,0,0,.4.77.77,0,0,1,.1.44,5.54,5.54,0,0,0,0,1.77,1,1,0,0,1,0,.43,5.32,5.32,0,0,0,0,2.14c.06.78.05,1.56.07,2.35a1.15,1.15,0,0,0,0,.37A11.21,11.21,0,0,1,21.9,94c0,.12-.06.24-.07.37a4.86,4.86,0,0,0,0,.54c0,.12.06.25.06.37,0,.86,0,1.72-.06,2.59,0,.23-.09.46-.11.69a1.58,1.58,0,0,0,0,.65,2.62,2.62,0,0,1,.06.88c0,.39,0,.78.05,1.17l0,.75a3,3,0,0,1,0,.42c0,.18,0,.36,0,.55a3.5,3.5,0,0,0-.08.64,7,7,0,0,1,0,1.83,3,3,0,0,0,0,1.12,2.61,2.61,0,0,1,0,.56.28.28,0,0,1-.3.29H20.11a.64.64,0,0,1-.26-.1,1.1,1.1,0,0,0-1,0,1.69,1.69,0,0,1-.54.12,10.76,10.76,0,0,0-2.93.38,1.37,1.37,0,0,1-.28.05l-3.81.17c-.33,0-.66,0-1,0a3,3,0,0,0-.42,0l-.36,0,.11-.3a4.1,4.1,0,0,0,.28-2.16A3.82,3.82,0,0,1,9.81,104a.75.75,0,0,0,0-.33,3.19,3.19,0,0,1-.07-1.44c0-.33,0-.66,0-1a1.85,1.85,0,0,1,0-.23,14.21,14.21,0,0,0-.16-2.35,6.46,6.46,0,0,1,0-1.07,4.83,4.83,0,0,0,0-.85,5,5,0,0,1,0-1.49,3.57,3.57,0,0,0,0-1,2.72,2.72,0,0,1,0-1.3.7.7,0,0,0,0-.32,3.82,3.82,0,0,1-.08-.75A17.73,17.73,0,0,0,9.38,89s0-.06,0-.09a31,31,0,0,0-.12-3.61c0-.41,0-.82-.07-1.22a1.34,1.34,0,0,1,0-.28c.09-1,.18-2.1.26-3.15,0-.15,0-.31,0-.47s0-.4,0-.6a2.61,2.61,0,0,0,.06-.27c0-.58-.07-1.16-.11-1.73a3.12,3.12,0,0,1,0-.52A5.46,5.46,0,0,0,9.2,75a2.13,2.13,0,0,1,.07-1.25,2.13,2.13,0,0,0,.07-1,9.32,9.32,0,0,1-.08-2.53,6,6,0,0,0,0-.85,3.3,3.3,0,0,1,.07-1.25,2.06,2.06,0,0,0,0-.7c0-.67,0-1.35,0-2s-.14-1.62-.17-2.44c0-.61,0-1.22.05-1.82a1.28,1.28,0,0,0,0-.19,17.67,17.67,0,0,1,.09-3c0-.45-.08-.91-.12-1.36a3.47,3.47,0,0,1,0-.56,4.72,4.72,0,0,0,0-1.59,3.4,3.4,0,0,1-.06-1.31,1.31,1.31,0,0,0,0-.52,15.41,15.41,0,0,1-.31-2.7,5.46,5.46,0,0,1,.14-2,2,2,0,0,0,0-.6c0-.5,0-1,0-1.5a2.86,2.86,0,0,1,.11-.64,9.27,9.27,0,0,0,0-2c0-.83.08-1.66.12-2.48l.06-1.41a11,11,0,0,0,0-1.4,20,20,0,0,1-.08-3A10.36,10.36,0,0,0,9,32.72c-.1-.61-.12-1.22-.17-1.83a.45.45,0,0,1,0-.23,4,4,0,0,0,.12-1.57c0-.36.07-.72.07-1.08s0-1,0-1.5c0-.19,0-.38,0-.57,0-.67,0-1.35.08-2,0-.42.09-.85.07-1.27,0-.67-.09-1.34-.15-2a3.34,3.34,0,0,1,0-1.26,1.74,1.74,0,0,0,0-.51c0-.42-.11-.84-.13-1.26,0-.23.08-.46.07-.68,0-.46-.13-.9-.16-1.35a2.71,2.71,0,0,1,.08-.69,2.62,2.62,0,0,0,0-.79,3.26,3.26,0,0,1,0-1.39.39.39,0,0,0,0-.35c-.15-.15-.1-.3-.07-.47,0-.33,0-.66.07-1a3.18,3.18,0,0,0,0-.69,3.13,3.13,0,0,0-.2-.66,1,1,0,0,0-.15-.21,1.26,1.26,0,0,0,0-1.62c.28-.39.28-.45-.06-.89a1.16,1.16,0,0,0,.09-.93c0-.11-.07-.21-.07-.31a5.33,5.33,0,0,1,0-1c0-.37-.06-.6-.54-.71a1.33,1.33,0,0,0,1-.94,3.64,3.64,0,0,0-.11-1.29.69.69,0,0,0,.68,0,1.32,1.32,0,0,1,1,0,2.92,2.92,0,0,0,1.32.17A3.26,3.26,0,0,1,12.84,2c.38.09.69.1.86-.28.83,0,1.62,0,2.41.05.59,0,1.18.14,1.77.21a1.41,1.41,0,0,0,.28,0c.72,0,1.44-.05,2.16-.1a5.36,5.36,0,0,1,1.6,0,.86.86,0,0,0,.23,0,20.53,20.53,0,0,1,3.76,0,8.39,8.39,0,0,0,1.12,0,21.33,21.33,0,0,1,2.4,0c1.1,0,2.2,0,3.3,0s2.32,0,3.48.11A14.89,14.89,0,0,0,38,1.86c.58,0,1.16,0,1.74,0s1.41-.06,2.12-.08a2.74,2.74,0,0,1,.7,0,15.92,15.92,0,0,0,3,.07h.33c.54,0,1.07.11,1.63,0a5.14,5.14,0,0,1,1.21.15c.75.09,1.5.13,2.24.23s1.77.27,2.65.41c.45.08.89.16,1.34.26s1.15.27,1.73.43l2.58.69c.89.24,1.8.44,2.68.71.7.22,1.38.5,2.06.78a6.46,6.46,0,0,1,1.34.67,13.46,13.46,0,0,1,1.77,1.16,8.76,8.76,0,0,0,1.15.81,3.74,3.74,0,0,1,1.14,1l.06.07L71,10.66a.46.46,0,0,1,.15.22,2.69,2.69,0,0,0,.67,1,4,4,0,0,1,.51.66C72.46,12.7,72.62,12.74,72.87,12.73ZM66.7,31.35a1.89,1.89,0,0,0,0-.38c0-.46-.12-.9-.17-1.36-.08-.71-.11-1.43-.24-2.13a12.44,12.44,0,0,0-.53-1.9c-.34-.9-.73-1.8-1.13-2.68-.27-.59-.62-1.15-.93-1.72,0,0-.07-.07-.1-.1-.45-.52-.91-1-1.33-1.58-.29-.37-.72-.6-.92-1,0,0-.07-.06-.11-.09a3.62,3.62,0,0,1-.42-.36,6.06,6.06,0,0,0-1.52-1.29,3.4,3.4,0,0,1-.47-.38,1,1,0,0,0-.27-.19,18.47,18.47,0,0,0-2.05-.77,7,7,0,0,1-1.91-.62,8.94,8.94,0,0,0-2.09-.49,7.36,7.36,0,0,0-2.25-.1,1.74,1.74,0,0,1-.32,0c-.8,0-1.6-.06-2.4-.07-.55,0-1.1,0-1.65,0-.34,0-.69,0-1,0-.61,0-1.21.08-1.82.12-.06,0-.14,0-.18,0-.26-.2-.54-.09-.82-.08a9,9,0,0,1-1,0c-.7,0-1.4-.06-2.1-.06a9.08,9.08,0,0,1-1.95,0,1,1,0,0,0-.24,0H36.1l-.94,0a.58.58,0,0,1-.23,0A2.89,2.89,0,0,0,33.59,14l-1.4,0-1,0a5,5,0,0,1-1.77,0A.52.52,0,0,0,29,14c-.56.28-1.18,0-1.75.18a.16.16,0,0,1-.13,0,2,2,0,0,0-1.33-.09c-.83.09-1.66.31-2.5.34-.13,0-.27,0-.37,0-.44-.22-.82.07-1.23.09a.21.21,0,0,0-.16.1A2,2,0,0,0,21,15.77c0,.4.08.8.09,1.21a13,13,0,0,1,0,2.25,3.21,3.21,0,0,0,0,.76c0,.74.1,1.48.16,2.22a.61.61,0,0,1,0,.14,3.13,3.13,0,0,0,.05,1.58,5.86,5.86,0,0,1-.11,1.92,5.77,5.77,0,0,0,.08.58c0,.21,0,.42,0,.62s.07.39.08.59,0,.63.06.94,0,.56.06.84-.05.6,0,.89c.05.7.12,1.4.18,2.1,0,.11,0,.25,0,.31a1,1,0,0,0-.16.72c0,.69.06,1.38.08,2.07,0,.89.05,1.79.05,2.68,0,.66,0,1.32,0,2,0,.14-.05.28-.06.41a1.06,1.06,0,0,0,0,.31c0,.11.05.21.05.32,0,.45-.09.9-.12,1.35a7.48,7.48,0,0,0,0,2.06,2.38,2.38,0,0,1-.09.69c0,.09,0,.2,0,.26.18.24.08.48.07.73s0,.4,0,.6c0,.45.15.91-.09,1.35a.49.49,0,0,0,.06.34,1.6,1.6,0,0,1,0,1.27.88.88,0,0,1-.68.53l-.21,0-.05.08a1.77,1.77,0,0,0,.44.31,1.89,1.89,0,0,1,.73.41,1,1,0,0,0,.74.24c.84,0,1.69,0,2.53-.09a22.36,22.36,0,0,1,2.59,0,7.6,7.6,0,0,0,1.57.21,2.26,2.26,0,0,1,.52,0c.48,0,1,.13,1.45.15s1.16-.06,1.73,0a5.7,5.7,0,0,0,1.7-.07,16.61,16.61,0,0,1,1.87-.1L38,51.48a17.81,17.81,0,0,1,1.93-.09,10,10,0,0,0,1.73,0h.05a22.56,22.56,0,0,0,3.29,0c1-.15,2.12,0,3.19-.1s2-.23,2.94-.39a12.52,12.52,0,0,0,3.46-1,4.81,4.81,0,0,1,.51-.25l2.34-.85a5.48,5.48,0,0,0,1.32-.61,8.15,8.15,0,0,1,.82-.53c.41-.2.84-.36,1.25-.53.1-.05.25-.09.27-.17a3.19,3.19,0,0,1,.82-1.07c.2-.22.44-.39.65-.6a2.42,2.42,0,0,0,.31-.33c.44-.51.87-1,1.3-1.55A3.54,3.54,0,0,0,65,42.3c.1-.27.11-.58.39-.76.06,0,0-.18.08-.27a.73.73,0,0,1,.12-.3,3.07,3.07,0,0,0,.55-1.22,8.06,8.06,0,0,0,.52-1.94c.1-.67.33-1.33.46-2a4.92,4.92,0,0,0,0-1.58c-.06-.59,0-1.19,0-1.78A1.48,1.48,0,0,0,66.7,31.35ZM20.38,14.19c.17.39.51.41.91.07A.86.86,0,0,0,20.38,14.19Z"/><path class="cls-1" d="M8,2.15c.19.18.37.33.53.51s0,.2,0,.3C8.3,3,8.06,3,8,2.79S7.78,2.36,8,2.15Z"/><path class="cls-1" d="M9.26,1.18l-.45.11c-.34.1-.34.11-.42-.29C8.82.79,9.05.83,9.26,1.18Z"/><path class="cls-1" d="M10.85,1.37c-.43.15-.43.15-.48-.17Z"/><path class="cls-1" d="M80.41,41.16,79.92,41c.14-.08.22-.18.29-.17S80.43,41,80.41,41.16Z"/><path class="cls-1" d="M80.32,40.18a1.57,1.57,0,0,1-.19-.18l.05-.06.24.11Z"/><path class="cls-1" d="M10.08,1.16l-.26.2C9.79,1.13,9.87,1.08,10.08,1.16Z"/><path class="cls-1" d="M80.76,26.63l.17.18-.05,0-.19-.16Z"/><path class="cls-1" d="M65.32,5.41c0-.09-.09-.15-.08-.18a.22.22,0,0,1,.14-.08s.08.07.07.1S65.39,5.33,65.32,5.41Z"/><path class="cls-1" d="M76.19,16.27l-.1.06s0-.08,0-.1.06,0,.1-.06Z"/><path class="cls-1" d="M61.33,3.9l0-.2h.05l.06.19Z"/><path class="cls-1" d="M13.18,1.61a.54.54,0,0,1,0-.11s0,0,.07-.05l.06.1Z"/><path class="cls-1" d="M66.7,31.35a1.48,1.48,0,0,1,.42,1.1c0,.59,0,1.19,0,1.78a4.92,4.92,0,0,1,0,1.58c-.13.67-.36,1.33-.46,2a8.06,8.06,0,0,1-.52,1.94A3.07,3.07,0,0,1,65.6,41a.73.73,0,0,0-.12.3c0,.09,0,.23-.08.27-.28.18-.29.49-.39.76a3.54,3.54,0,0,1-.84,1.11c-.43.52-.86,1-1.3,1.55a2.42,2.42,0,0,1-.31.33c-.21.21-.45.38-.65.6A3.19,3.19,0,0,0,61.09,47c0,.08-.17.12-.27.17-.41.17-.84.33-1.25.53a8.15,8.15,0,0,0-.82.53,5.48,5.48,0,0,1-1.32.61l-2.34.85a4.81,4.81,0,0,0-.51.25,12.52,12.52,0,0,1-3.46,1c-1,.16-1.95.32-2.94.39s-2.14,0-3.19.1a22.56,22.56,0,0,1-3.29,0h-.05a10,10,0,0,1-1.73,0,17.81,17.81,0,0,0-1.93.09l-1.78.09a16.61,16.61,0,0,0-1.87.1,5.7,5.7,0,0,1-1.7.07c-.57-.06-1.16,0-1.73,0s-1-.1-1.45-.15a2.26,2.26,0,0,0-.52,0,7.6,7.6,0,0,1-1.57-.21,22.36,22.36,0,0,0-2.59,0c-.84.06-1.69.06-2.53.09a1,1,0,0,1-.74-.24,1.89,1.89,0,0,0-.73-.41,1.77,1.77,0,0,1-.44-.31l.05-.08.21,0a.88.88,0,0,0,.68-.53,1.6,1.6,0,0,0,0-1.27.49.49,0,0,1-.06-.34c.24-.44.08-.9.09-1.35,0-.2,0-.4,0-.6s.11-.49-.07-.73c0-.06,0-.17,0-.26a2.38,2.38,0,0,0,.09-.69,7.48,7.48,0,0,1,0-2.06c0-.45.09-.9.12-1.35,0-.11,0-.21-.05-.32a1.06,1.06,0,0,1,0-.31c0-.13,0-.27.06-.41,0-.65,0-1.31,0-2,0-.89,0-1.79-.05-2.68,0-.69-.06-1.38-.08-2.07a1,1,0,0,1,.16-.72c.06-.06,0-.2,0-.31-.06-.7-.13-1.4-.18-2.1,0-.29,0-.59,0-.89s0-.56-.06-.84,0-.63-.06-.94-.07-.39-.08-.59,0-.41,0-.62a5.77,5.77,0,0,1-.08-.58,5.86,5.86,0,0,0,.11-1.92,3.13,3.13,0,0,1-.05-1.58.61.61,0,0,0,0-.14c-.06-.74-.13-1.48-.16-2.22a3.21,3.21,0,0,1,0-.76,13,13,0,0,0,0-2.25c0-.41-.07-.81-.09-1.21a2,2,0,0,1,.54-1.17.21.21,0,0,1,.16-.1c.41,0,.79-.31,1.23-.09.1,0,.24,0,.37,0,.84,0,1.67-.25,2.5-.34a2,2,0,0,1,1.33.09.16.16,0,0,0,.13,0c.57-.21,1.19.1,1.75-.18a.52.52,0,0,1,.37,0,5,5,0,0,0,1.77,0l1,0,1.4,0a2.89,2.89,0,0,1,1.34.13.58.58,0,0,0,.23,0l.94,0h.65a1,1,0,0,1,.24,0,9.08,9.08,0,0,0,1.95,0c.7,0,1.4.05,2.1.06a9,9,0,0,0,1,0c.28,0,.56-.12.82.08,0,0,.12,0,.18,0,.61,0,1.21-.1,1.82-.12.34,0,.69,0,1,0,.55,0,1.1,0,1.65,0,.8,0,1.6.05,2.4.07a1.74,1.74,0,0,0,.32,0,7.36,7.36,0,0,1,2.25.1,8.94,8.94,0,0,1,2.09.49,7,7,0,0,0,1.91.62,18.47,18.47,0,0,1,2.05.77,1,1,0,0,1,.27.19,3.4,3.4,0,0,0,.47.38A6.06,6.06,0,0,1,60.86,18a3.62,3.62,0,0,0,.42.36s.1.05.11.09c.2.44.63.67.92,1,.42.55.88,1.06,1.33,1.58,0,0,.08.06.1.1.31.57.66,1.13.93,1.72.4.88.79,1.78,1.13,2.68a12.44,12.44,0,0,1,.53,1.9c.13.7.16,1.42.24,2.13.05.46.12.9.17,1.36A1.89,1.89,0,0,1,66.7,31.35Zm-24.93-16a3.6,3.6,0,0,1-.55.15c-.71,0-1.43.11-2.15.12-1.14,0-2.29,0-3.44,0-.83,0-1.66-.09-2.49-.11-.52,0-1,0-1.55,0l-2.07.05c-.6,0-1.19.1-1.79.09s-1.24-.12-1.86-.18l-.12,0a3.46,3.46,0,0,1-.53.14c-.62.11-1.24.19-1.86.29-.18,0-.43,0-.53.11s0,.38-.08.57a8.33,8.33,0,0,0-.08,1.73c.08,1.52.11,3,.17,4.57,0,.48.08,1,.08,1.45a29.17,29.17,0,0,0,0,3.1A16.47,16.47,0,0,1,23,30.27c-.07,1.26,0,2.52,0,3.77a32.73,32.73,0,0,0,.08,3.43,4.15,4.15,0,0,1,0,.61c0,1-.05,2-.07,3.06S23,43.24,23,44.3c0,.78,0,1.57,0,2.35,0,.52-.05,1-.09,1.55,0,.36-.09.72-.12,1.08s.08.37.33.37l2.21,0c.56,0,1.13,0,1.69,0,1.33.11,2.66.26,4,.39a2.41,2.41,0,0,0,.38,0c1,0,1.95,0,2.92-.08l3.11-.17c.55,0,1.11-.12,1.67-.13,1,0,2.07,0,3.1,0a23.16,23.16,0,0,0,3.63,0,15.05,15.05,0,0,1,1.78-.06c.19,0,.38-.05.56-.05a13.9,13.9,0,0,0,3.63-.52c.32-.08.64-.17.95-.28.73-.28,1.45-.59,2.19-.87a14.26,14.26,0,0,0,2.8-1.23,9.05,9.05,0,0,1,1.45-.75,3,3,0,0,0,1-.67,8.25,8.25,0,0,0,1.31-1.39,10,10,0,0,1,1.3-1.4.54.54,0,0,0,.19-.39.74.74,0,0,1,.31-.53,1.17,1.17,0,0,0,.5-.6,12,12,0,0,0,1-2.66c.16-.64.39-1.26.49-1.91s.15-1.56.2-2.34a4.86,4.86,0,0,0-.21-2,2.55,2.55,0,0,1-.11-.55c-.15-1.07-.28-2.14-.45-3.2-.07-.48-.22-.94-.33-1.41a10.29,10.29,0,0,0-.38-1.5,18.9,18.9,0,0,0-1-2,9,9,0,0,0-2.1-2.87,1.21,1.21,0,0,1-.16-.16A16.76,16.76,0,0,0,58.19,18a10.2,10.2,0,0,0-2.63-1.24c-.85-.28-1.73-.46-2.6-.68a4.07,4.07,0,0,0-.5-.13l-2.67-.21c-.87,0-1.75-.09-2.63-.11s-1.6,0-2.4,0c-.39,0-.87.15-1.15-.32h-.09c-.16.36-.18.37-.57.33a1.2,1.2,0,0,0-.42,0A.84.84,0,0,1,41.77,15.34ZM26.05,15a.34.34,0,0,0,0-.44C26,14.76,25.86,14.88,26.05,15ZM65.83,31.8v.06h.26v-.07Zm-2.28-9.74s.07.07.1.07.07-.05.1-.07a.34.34,0,0,0-.12-.09S63.58,22,63.55,22.06ZM41.37,15.3l.08-.07-.13-.1-.06,0Z"/><path class="cls-1" d="M20.38,14.19a.86.86,0,0,1,.91.07C20.89,14.6,20.55,14.58,20.38,14.19Z"/><path class="cls-1" d="M26.05,15c-.19-.16-.08-.28,0-.44A.34.34,0,0,1,26.05,15Z"/><path class="cls-1" d="M65.83,31.8h.26v.07h-.26Z"/><path class="cls-1" d="M63.55,22.06s.07-.1.08-.09a.34.34,0,0,1,.12.09s-.06.07-.1.07S63.59,22.09,63.55,22.06Z"/><path class="cls-1" d="M41.37,15.3l-.11-.13.06,0,.13.1Z"/></svg>