<svg id="Q" xmlns="http://www.w3.org/2000/svg" viewBox="0 0 86 112"><defs><style>.cls-1{stroke:#000;stroke-miterlimit:10;}</style></defs><path class="cls-1" d="M75.8,24.15a1.25,1.25,0,0,0,.39.15c.47,0,.59.16.46.63.35.26.58.46.22.89.15.32.15.32,0,.55l.61.26,0,.42.4.08.31.66c-.21,0-.24-.34-.49-.15,0,.19.35.31,0,.56l.7.15a1,1,0,0,0,.34.83s.09.07.09.11c0,.47.4.72.58,1.09a14.66,14.66,0,0,1,.7,1.69,2.61,2.61,0,0,0,.44.9.94.94,0,0,1,.24.61.25.25,0,0,0,0,.19,1.55,1.55,0,0,1,.22,1,.16.16,0,0,0,0,.13,1,1,0,0,1,.3.89,4.41,4.41,0,0,0,.41,1.47,1,1,0,0,1,.13.56,2.39,2.39,0,0,0,.37,1.46,4.08,4.08,0,0,1,.36,1.4c.06.4.13.79.21,1.19s.24,1,.34,1.46a2.86,2.86,0,0,1,.06.87c-.06.58.24,1.14,0,1.72a1,1,0,0,0,0,.34c0,.43.1.87.16,1.3a6.69,6.69,0,0,0,.18.76c-.18.2,0,.52,0,.83a4.66,4.66,0,0,1,.08,1.62,1.41,1.41,0,0,0,0,.2,5.07,5.07,0,0,1,0,.87,7.84,7.84,0,0,0,.07,2.51c.18.88.3,1.79.44,2.68a5.93,5.93,0,0,1,.19,1.09c0,.84-.12,1.68-.2,2.52a1.74,1.74,0,0,1-.13.36.86.86,0,0,0-.1.37,22.35,22.35,0,0,0,0,3,2.21,2.21,0,0,1-.25,1.3.44.44,0,0,0-.07.19,20.48,20.48,0,0,1-.66,2.41,3.08,3.08,0,0,0,0,.91A1.25,1.25,0,0,1,83,70a.75.75,0,0,0-.1.32,6.24,6.24,0,0,1-.55,1.86,4.86,4.86,0,0,0-.29,1.24,4.8,4.8,0,0,1-.37,1c0,.1-.13.2-.13.3a11.78,11.78,0,0,1-.36,2.44c-.15.66-.22,1.34-.4,2a8,8,0,0,1-.58,1.39,15.77,15.77,0,0,0-.83,1.64,4.76,4.76,0,0,1-.92,1.61.22.22,0,0,0-.06.13,4.15,4.15,0,0,1-.69,1.58,1.45,1.45,0,0,0-.12.42,1,1,0,0,1-.6.76c-.19.06-.27.17-.19.36s0,.33-.18.45a1.39,1.39,0,0,0-.49.86,2.54,2.54,0,0,1-.48,1,7,7,0,0,0-.8,1.43c-.24.46-.5.9-.76,1.35-.11.2-.24.38-.37.57s-.06.08-.07.13-.08.24,0,.27c.33.32,0,.84.38,1.15a8.36,8.36,0,0,1,1.65,1.9c.41.58.91,1.09,1.36,1.64.32.39.62.8.93,1.19s.51.63.78.93a9.08,9.08,0,0,1,1.31,1.48c.31.55.8.94,1.09,1.49a3.84,3.84,0,0,0,.55.67c.85,1,1.7,2,2.54,3,.25.29.46.62.7.93.1.12.23.22.34.35a1.29,1.29,0,0,1,.22.3,1.09,1.09,0,0,1-.91,1.57,2.21,2.21,0,0,1-1.34-.11,1.72,1.72,0,0,0-.38-.08,16.27,16.27,0,0,0-1.84-.25c-.67,0-1.35.08-2,.1-.52,0-1,0-1.56,0H75.74a5.67,5.67,0,0,0-1.79.15,4.17,4.17,0,0,1-.87,0l-1.17.07q-1,.06-2,.15c-.55,0-1.1.11-1.64.2a1.24,1.24,0,0,0-.47.24,1,1,0,0,1-1.55-.21c-.29-.38-.53-.79-.82-1.15-.65-.79-1.32-1.57-2-2.34-.32-.39-.65-.76-1-1.14l-.08-.12c-.35-.45-.49-.47-.91-.1a5.73,5.73,0,0,0-.54.56,6.13,6.13,0,0,1-1.39,1.2l-1.06.7c-.12.08-.25.15-.38.22-.46.23-.91.48-1.38.7s-.67.25-1,.37c-.66.22-1.32.44-2,.64-.44.13-.89.19-1.32.31a5.94,5.94,0,0,0-.57.27,3.44,3.44,0,0,1-.55.15,10.7,10.7,0,0,0-1.28.23,9.18,9.18,0,0,1-2.14.46c-.77.07-1.54.23-2.31.34-.4,0-.8.06-1.2.12-.71.1-1.42.19-2.11.35a6.44,6.44,0,0,1-2.66,0c-.64-.1-1.29-.17-1.92-.29s-1.16-.29-1.74-.43l-2.07-.52a16,16,0,0,1-1.84-.47A10.26,10.26,0,0,1,29.68,109c-.72-.49-1.54-.84-2.31-1.26-.48-.27-.94-.57-1.42-.85s-1.17-.67-1.75-1c-.28-.18-.54-.41-.81-.61-.51-.37-1.05-.71-1.55-1.1a22.19,22.19,0,0,1-3.21-2.75,14.22,14.22,0,0,1-1.8-2.28,2,2,0,0,0-.41-.4c-.24-.22-.48-.43-.71-.66s-.47-.49-.69-.74c-.49-.57-1-1.12-1.45-1.71-.32-.42-.57-.9-.85-1.35a2.72,2.72,0,0,0-.33-.48c-.25-.3-.54-.56-.78-.87a14,14,0,0,1-.81-1.2c-.58-1-1.15-2-1.71-3S8,86.9,7.57,86c-.28-.55-.47-1.14-.7-1.7a3.65,3.65,0,0,0-.18-.34c-.2-.36-.39-.73-.61-1.09s-.41-1-1-1.13a.64.64,0,0,1-.53-.8,4.67,4.67,0,0,1-.25-1.81,11,11,0,0,0-.26-1.92,6.35,6.35,0,0,0-.68-2,2.69,2.69,0,0,1-.24-.48,20.06,20.06,0,0,1-.86-2.62,20.74,20.74,0,0,1-.43-2.62c-.09-1.1-.26-2.19-.38-3.29,0-.26,0-.52,0-.78,0-.63-.08-1.26-.09-1.89,0-.95,0-1.91,0-2.86a6.68,6.68,0,0,0-.07-.77s0-.1,0-.14a5,5,0,0,0,.12-2c0-.68-.05-1.36-.06-2,0-.47,0-.94.07-1.41a2.1,2.1,0,0,0,0-.43,3.79,3.79,0,0,1,0-1c.05-.78.07-1.56.11-2.33,0-.26.08-.51.1-.77a10.66,10.66,0,0,0,0-1.6,11.39,11.39,0,0,1,.17-1.73c.05-.52.12-1,.13-1.55a7.47,7.47,0,0,1,.33-2.2c.36-1.2.64-2.42,1-3.62.14-.51.35-1,.5-1.52s.2-.89.31-1.32.19-.62.29-.93a18.17,18.17,0,0,1,.63-2,16.11,16.11,0,0,0,.6-1.69c.12-.33.24-.67.39-1s.42-.9.66-1.34c.09-.17.34-.31.34-.45a.49.49,0,0,1,.2-.47c.07-.06,0-.25,0-.37,0-.29.06-.47.27-.53a2.35,2.35,0,0,1,0-.61c.15-.4.35-.79.52-1.19a2.84,2.84,0,0,1,.64-1,8.9,8.9,0,0,0,.66-.83c.15-.18.33-.33.57-.57a1.71,1.71,0,0,1,.45-1,1.22,1.22,0,0,0,.32-.64c.07-.32.19-.55.51-.61a5.25,5.25,0,0,1,.92-1.77c.15-.21.26-.45.42-.65a7.22,7.22,0,0,1,1.63-1.77.24.24,0,0,0,.13-.13.74.74,0,0,1,1-.5l-.38-.33a.67.67,0,0,1,.56-.19c.33,0,.33,0,.42-.34a2.59,2.59,0,0,1,.14-.29c-.28-.25-.28-.25,0-.45l.16-.11.36-.38-.15-.24c.45-.47.89-.91,1.32-1.37.2-.22.38-.47.58-.69a3.47,3.47,0,0,1,.37-.3s.12-.06.16-.11a6.44,6.44,0,0,1,1.4-1.36s0,0,0,0a5.87,5.87,0,0,1,1.62-1.32c.05,0,.11-.05.12-.09.16-.42.56-.45.91-.57a.92.92,0,0,0,.45-.33,1.39,1.39,0,0,1,1-.6A.49.49,0,0,0,24.5,7a5,5,0,0,0,.81-.78s0-.07.06-.07c.44,0,.54-.45.86-.61A9.63,9.63,0,0,0,27.16,5c.09,0,.18-.13.27-.19a2.75,2.75,0,0,1,.73-.41c.29-.1.71-.13.89-.5a.32.32,0,0,1,.24-.13A18.75,18.75,0,0,0,31.1,3.1c.92-.26,1.73-.83,2.68-1a3.84,3.84,0,0,0,.78-.28A10.56,10.56,0,0,1,38,1a1.28,1.28,0,0,0,.33-.06A12.68,12.68,0,0,1,41.19.65c.82,0,1.64-.13,2.46-.19a6.73,6.73,0,0,1,2,.19,3.32,3.32,0,0,0,.76.11,19.29,19.29,0,0,1,3,.37,9.26,9.26,0,0,1,2.08.63c.7.3,1.41.55,2.13.81.45.17.92.3,1.38.46a8.57,8.57,0,0,0,1.05.33A8.81,8.81,0,0,1,57.51,4l1.19.53c.28.14.54.3.81.43.46.23.93.44,1.38.68a8.34,8.34,0,0,1,1,.63c.59.42,1.18.84,1.73,1.32a22.27,22.27,0,0,1,2.24,2,.62.62,0,0,0,.18.14,1.31,1.31,0,0,1,.67.6.46.46,0,0,0,.17.17,6.12,6.12,0,0,1,1.6,1.61l1.69,2.06c0,.06.13.11.15.18.14.49.58.77.84,1.17.12.18.35.27.6.45l.2.76h.19L72.82,18a2,2,0,0,0,.19.28,2.49,2.49,0,0,1,.34.4,1.24,1.24,0,0,1,0,.48l-.26,0s0,.06.06.06a.85.85,0,0,1,.86.84.64.64,0,0,0,.37.61l-.46,0,0,.08c.11.05.24.16.35.15.35,0,.5.17.6.45,0,.13.08.28.14.41s.11.22.2.25c.34.12.45.4.55.77l-.79.28,0,.07a7.12,7.12,0,0,0,.8,0c.32,0,.41.29.69.35l0,.52-.64.08s.08-.07.09-.11a2.26,2.26,0,0,0,0-.26h-.09a2,2,0,0,0,0,.24A.74.74,0,0,0,75.8,24.15Zm6.5,83.54.06-.09a3.76,3.76,0,0,0-.3-.47c-.72-.89-1.47-1.77-2.19-2.67s-1.38-1.75-2.07-2.64c-.17-.23-.31-.49-.48-.73a3.65,3.65,0,0,0-.39-.49c-.21-.22-.45-.41-.66-.63s-.29-.39-.45-.58l-2.06-2.52a24.79,24.79,0,0,0-1.57-2c-.25-.25-.45-.55-.68-.83A.92.92,0,0,1,71.39,93a.94.94,0,0,0,.13-.42c0-.49.21-.73.61-.93a1.41,1.41,0,0,0,.77-.71c.15-.39.49-.7.48-1.16,0-.07.08-.14.13-.2s.27-.32.38-.49.35-.58.56-.85a1.09,1.09,0,0,0,.31-.59.52.52,0,0,1,.1-.26c.31-.44.63-.87.91-1.32a1.43,1.43,0,0,0,.36-.87,2,2,0,0,1,.3-.8c.12-.26.29-.51.39-.77a4.93,4.93,0,0,1,.75-1.46,3,3,0,0,0,.51-.86,5.55,5.55,0,0,1,.76-1.52,1.84,1.84,0,0,0,.31-.75c.09-.48.12-1,.19-1.45a1.81,1.81,0,0,1,.14-.45,2.16,2.16,0,0,0,.26-1,1.31,1.31,0,0,1,.06-.38c.11-.5.25-1,.34-1.51a15.48,15.48,0,0,1,.43-1.69c.24-.74.42-1.5.59-2.26a12,12,0,0,0,.34-2.15A6,6,0,0,1,81.67,67c.12-.44.35-.86.45-1.31a10.9,10.9,0,0,0,.31-2.84,3.33,3.33,0,0,1,0-.63c.14-1,.32-2,.4-3a5.76,5.76,0,0,0-.08-1.94,6.11,6.11,0,0,1-.18-.85c-.14-1-.27-1.93-.4-2.89a5,5,0,0,1,0-1.84,2.71,2.71,0,0,0,0-1.06c-.12-1.09-.26-2.19-.37-3.28,0-.47,0-.94,0-1.41a5.93,5.93,0,0,1,0-.73,13.71,13.71,0,0,0-.8-5.16A19.17,19.17,0,0,1,80.44,38a33.68,33.68,0,0,0-1.06-3.94,10.93,10.93,0,0,0-.93-2.28c-.32-.56-.6-1.14-.87-1.73a7.3,7.3,0,0,1-.44-1.18,8.61,8.61,0,0,0-.78-1.82c-.25-.45-.51-.89-.74-1.35-.14-.29-.22-.61-.37-.9-.29-.55-.64-1.08-.92-1.65a6.91,6.91,0,0,0-1-1.38,1.47,1.47,0,0,1-.1-.22c-.18-.34-.35-.71-.56-1-.46-.67-1-1.31-1.4-2s-.62-1.1-1-1.62-.68-.92-1-1.36a7.37,7.37,0,0,0-.85-1,3,3,0,0,1-.75-.93.72.72,0,0,0-.14-.2c-.31-.37-.63-.74-1-1.1s-.56-.59-.85-.87-.35-.22-.49-.37a17.67,17.67,0,0,0-2.46-2.2l-1.29-1A7.09,7.09,0,0,0,60.17,7c-1-.39-1.86-.93-2.78-1.41a6.36,6.36,0,0,0-1.25-.49c-.53-.15-1-.36-1.56-.56A14.89,14.89,0,0,0,53.09,4a11.23,11.23,0,0,1-2.18-.82,6.56,6.56,0,0,0-1.68-.47c-.2,0-.42,0-.62-.08a6.84,6.84,0,0,0-2.51-.15,1.47,1.47,0,0,1-.5-.09,5.17,5.17,0,0,0-1.12-.3c-.78,0-1.56.08-2.35.12a.74.74,0,0,1-.14,0,7.79,7.79,0,0,1-1,.09,3.58,3.58,0,0,0-1.3.13,3.55,3.55,0,0,1-.8.16c-.47.07-.93.09-1.4.16A9.9,9.9,0,0,0,36.21,3c-.47.12-.92.31-1.37.47s-1.16.4-1.74.62-.88.39-1.33.58c-.26.11-.54.19-.8.29s-.73.27-1.08.44a16.29,16.29,0,0,0-1.49.79c-.61.37-1.2.77-1.8,1.16a9.48,9.48,0,0,0-1.28.85,4.17,4.17,0,0,1-1.59,1c-.06,0-.14,0-.17.09-.27.39-.73.42-1.08.57,0,.1,0,.2,0,.25a1.51,1.51,0,0,1-.33.38c-.13.11-.31.17-.45.27s-.37.31-.54.47-.23.17-.23.25-.18.28-.31.39a13.86,13.86,0,0,0-1.7,1.64,8.11,8.11,0,0,1-1.06,1.13,2.74,2.74,0,0,0-.86,1,3.06,3.06,0,0,1-.48.67c-.13.15-.27.33-.52.29,0,0-.05,0-.08.07l.13.26a5.59,5.59,0,0,0-.48.61c-.19.34-.41.61-.84.57,0,.1.08.19.06.23s-.22.18-.23.29a1.42,1.42,0,0,1-.43.69,7.3,7.3,0,0,0-.65.71,3.58,3.58,0,0,0-.67,1.21,1.33,1.33,0,0,1-.45.66,1.38,1.38,0,0,0-.46.88.59.59,0,0,1,0,.23c-.26.36-.54.71-.79,1.09s-.77.67-.79,1.23a.42.42,0,0,1-.08.12,4.62,4.62,0,0,0-1.12,1.73,11.17,11.17,0,0,0-.48,1.41A6.29,6.29,0,0,1,8,30.3c-.06.13-.18.23-.23.36-.31.76-.62,1.52-.9,2.29-.21.59-.38,1.2-.56,1.81-.24.77-.46,1.54-.7,2.31s-.48,1.58-.71,2.37a2.56,2.56,0,0,0-.23,1.28.32.32,0,0,1,0,.19c-.17.47-.36.94-.5,1.42A11.08,11.08,0,0,0,3.7,44a14.5,14.5,0,0,0-.05,1.75c0,.28.1.57-.13.83-.06.06,0,.22,0,.33s0,.32,0,.48c0,.52-.12,1-.14,1.55,0,1-.07,2-.09,3,0,.29,0,.58.06.87s.11.64-.22.89a.59.59,0,0,1,.27.74,1.32,1.32,0,0,0,.06.47,1.65,1.65,0,0,1-.19,1.35.74.74,0,0,0-.14.44,5.18,5.18,0,0,0,.39,2c-.36.16-.29.51-.31.81s.05.57.05.86a1.29,1.29,0,0,0,.22.95s0,.14,0,.24l-.21-.15a.85.85,0,0,0,.13.45.41.41,0,0,1,.06.49,1.29,1.29,0,0,0-.07,1.16.89.89,0,0,1,0,.28A6.53,6.53,0,0,0,3.25,65c0,.35,0,.78.37,1-.35.41-.35.48-.18,1a1.53,1.53,0,0,1,.14.73,1.13,1.13,0,0,0,.14,1c0,.08.09.21.06.26a.73.73,0,0,0,0,.66,2.21,2.21,0,0,1,0,.81,1.17,1.17,0,0,0,.12.7,2.67,2.67,0,0,1,.37.93c.1.4.07.86.5,1.12a.32.32,0,0,1,.1.21,8.51,8.51,0,0,0,.65,2.21A11,11,0,0,0,6,77.3a.43.43,0,0,1,0,.2,8.87,8.87,0,0,0,.55,3.18c.14.4.15.88.63,1.08l0,0a.91.91,0,0,0,.69.59c0,.2-.13.43-.06.51a1.79,1.79,0,0,1,.33.84,1.23,1.23,0,0,0,.36.56.84.84,0,0,1,.35.7,1.21,1.21,0,0,0,.21.63c.45.73.95,1.44,1.39,2.17s.83,1.44,1.25,2.16c.19.34.41.66.6,1a2.89,2.89,0,0,0,.3.61c.3.34.5.81,1,1a.21.21,0,0,1,.11.1c.24.49.7.84.84,1.41a.7.7,0,0,0,.34.38c.49.26.67.77,1,1.16.13.15.22.35.36.51.59.66,1.2,1.31,1.79,2a4.72,4.72,0,0,0,1.28,1.24.42.42,0,0,1,.23.24c.08.53.52.82.83,1.17a2.46,2.46,0,0,0,1.45.93l.18.06a.6.6,0,0,1,.5.47.62.62,0,0,0,.49.43,2.34,2.34,0,0,0,.38.09.53.53,0,0,1,.56.5.43.43,0,0,0,.15.29c.52.35.92.88,1.57,1a.45.45,0,0,1,.24.16,1.08,1.08,0,0,0,.73.44,1.73,1.73,0,0,1,1,.62,2.6,2.6,0,0,0,1.17.75,6.32,6.32,0,0,1,1.6.68,4.06,4.06,0,0,0,1.21.57c.2.06.39.17.59.24a5.82,5.82,0,0,0,1.48.44c.8,0,1.49.44,2.27.51.09,0,.17.09.26.13a5.73,5.73,0,0,0,1.09.4c1,.17,2.06.28,3.09.4a.89.89,0,0,0,.43,0,1.72,1.72,0,0,1,1.1,0,1.61,1.61,0,0,0,1.14,0,6.19,6.19,0,0,1,1.63-.46c.5-.06,1-.36,1.51-.17,0,0,.13,0,.19,0a5.86,5.86,0,0,1,1-.1,5.6,5.6,0,0,0,2.19-.35c.48-.18.94-.39,1.42-.52.64-.17,1.3-.27,1.95-.41a7.13,7.13,0,0,0,2.64-.93,1,1,0,0,1,.41-.14,3.3,3.3,0,0,0,1.48-.78c.4-.33.82-.64,1.2-1s1-.94,1.47-1.41l1-1a.62.62,0,0,1,.84-.08c.22.14.46.24.68.37s.2.11.22.19c.08.39.42.55.67.8.44.45.85.94,1.3,1.38a17.72,17.72,0,0,1,2.22,2.44.77.77,0,0,0,.71.36c.34,0,.67-.06,1-.1.13,0,.25-.06.38-.07.54,0,1.07,0,1.61-.06.94,0,1.88,0,2.82,0a6,6,0,0,0,1.64-.14,1.6,1.6,0,0,1,.44,0c.58,0,1.17,0,1.75,0s1,0,1.56-.07,1.26-.12,1.89-.13a3.74,3.74,0,0,1,.85.16Zm-8.08-85.4c.24-.3.22-.37-.13-.47Zm-52-13.64c0,.13.06.27.24.18a.24.24,0,0,0,.08-.2C22.45,8.49,22.34,8.55,22.23,8.65ZM14.17,18V17.9l-.25,0V18Zm7.9-8.09L22,10s.05,0,.07,0a.17.17,0,0,0,.06-.06S22.1,10,22.07,9.93Zm-7.44,6.89.07,0s0-.06-.06-.05-.06,0-.09.05Z"/><path class="cls-1" d="M82.3,107.69l-.45-.1a3.74,3.74,0,0,0-.85-.16c-.63,0-1.26.09-1.89.13s-1,.06-1.56.07-1.17,0-1.75,0a1.6,1.6,0,0,0-.44,0,6,6,0,0,1-1.64.14c-.94,0-1.88,0-2.82,0-.54,0-1.07,0-1.61.06-.13,0-.25,0-.38.07-.34,0-.67.09-1,.1a.77.77,0,0,1-.71-.36A17.72,17.72,0,0,0,65,105.26c-.45-.44-.86-.93-1.3-1.38-.25-.25-.59-.41-.67-.8,0-.08-.13-.14-.22-.19s-.46-.23-.68-.37a.62.62,0,0,0-.84.08l-1,1c-.48.47-1,1-1.47,1.41s-.8.65-1.2,1a3.3,3.3,0,0,1-1.48.78,1,1,0,0,0-.41.14,7.13,7.13,0,0,1-2.64.93c-.65.14-1.31.24-1.95.41-.48.13-.94.34-1.42.52a5.6,5.6,0,0,1-2.19.35,5.86,5.86,0,0,0-1,.1c-.06,0-.14,0-.19,0-.53-.19-1,.11-1.51.17a6.19,6.19,0,0,0-1.63.46,1.61,1.61,0,0,1-1.14,0,1.72,1.72,0,0,0-1.1,0,.89.89,0,0,1-.43,0c-1-.12-2.06-.23-3.09-.4a5.73,5.73,0,0,1-1.09-.4c-.09,0-.17-.12-.26-.13-.78-.07-1.47-.47-2.27-.51a5.82,5.82,0,0,1-1.48-.44c-.2-.07-.39-.18-.59-.24a4.06,4.06,0,0,1-1.21-.57,6.32,6.32,0,0,0-1.6-.68,2.6,2.6,0,0,1-1.17-.75,1.73,1.73,0,0,0-1-.62,1.08,1.08,0,0,1-.73-.44.45.45,0,0,0-.24-.16c-.65-.15-1.05-.68-1.57-1a.43.43,0,0,1-.15-.29.53.53,0,0,0-.56-.5,2.34,2.34,0,0,1-.38-.09.62.62,0,0,1-.49-.43.6.6,0,0,0-.5-.47l-.18-.06a2.46,2.46,0,0,1-1.45-.93c-.31-.35-.75-.64-.83-1.17a.42.42,0,0,0-.23-.24,4.72,4.72,0,0,1-1.28-1.24c-.59-.68-1.2-1.33-1.79-2-.14-.16-.23-.36-.36-.51-.34-.39-.52-.9-1-1.16a.7.7,0,0,1-.34-.38c-.14-.57-.6-.92-.84-1.41a.21.21,0,0,0-.11-.1c-.5-.14-.7-.61-1-1a2.89,2.89,0,0,1-.3-.61c-.19-.33-.41-.65-.6-1-.42-.72-.81-1.45-1.25-2.16s-.94-1.44-1.39-2.17A1.21,1.21,0,0,1,8.94,85a.84.84,0,0,0-.35-.7,1.23,1.23,0,0,1-.36-.56,1.79,1.79,0,0,0-.33-.84c-.07-.08,0-.31.06-.51a.91.91,0,0,1-.69-.59l0,0c-.48-.2-.49-.68-.63-1.08a8.87,8.87,0,0,1-.55-3.18.43.43,0,0,0,0-.2,11,11,0,0,1-.47-1.7,8.51,8.51,0,0,1-.65-2.21.32.32,0,0,0-.1-.21c-.43-.26-.4-.72-.5-1.12A2.67,2.67,0,0,0,4,71.13a1.17,1.17,0,0,1-.12-.7,2.21,2.21,0,0,0,0-.81.73.73,0,0,1,0-.66s0-.18-.06-.26a1.13,1.13,0,0,1-.14-1A1.53,1.53,0,0,0,3.44,67c-.17-.53-.17-.6.18-1-.38-.24-.34-.67-.37-1a6.53,6.53,0,0,1,.13-1.24.89.89,0,0,0,0-.28,1.29,1.29,0,0,1,.07-1.16.41.41,0,0,0-.06-.49.85.85,0,0,1-.13-.45l.21.15c0-.1.05-.2,0-.24a1.29,1.29,0,0,1-.22-.95c0-.29-.07-.58-.05-.86s0-.65.31-.81a5.18,5.18,0,0,1-.39-2,.74.74,0,0,1,.14-.44,1.65,1.65,0,0,0,.19-1.35,1.32,1.32,0,0,1-.06-.47.59.59,0,0,0-.27-.74c.33-.25.24-.58.22-.89s-.07-.58-.06-.87c0-1,0-2,.09-3,0-.52.1-1,.14-1.55,0-.16,0-.32,0-.48s0-.27,0-.33c.23-.26.13-.55.13-.83A14.5,14.5,0,0,1,3.7,44a11.08,11.08,0,0,1,.41-1.7c.14-.48.33-.95.5-1.42a.32.32,0,0,0,0-.19,2.56,2.56,0,0,1,.23-1.28c.23-.79.48-1.58.71-2.37s.46-1.54.7-2.31c.18-.61.35-1.22.56-1.81.28-.77.59-1.53.9-2.29,0-.13.17-.23.23-.36a6.29,6.29,0,0,0,.62-1.7,11.17,11.17,0,0,1,.48-1.41,4.62,4.62,0,0,1,1.12-1.73.42.42,0,0,0,.08-.12c0-.56.52-.83.79-1.23s.53-.73.79-1.09a.59.59,0,0,0,0-.23,1.38,1.38,0,0,1,.46-.88,1.33,1.33,0,0,0,.45-.66A3.58,3.58,0,0,1,13.47,20a7.3,7.3,0,0,1,.65-.71,1.42,1.42,0,0,0,.43-.69c0-.11.16-.19.23-.29s0-.13-.06-.23c.43,0,.65-.23.84-.57a5.59,5.59,0,0,1,.48-.61l-.13-.26s.06-.07.08-.07c.25,0,.39-.14.52-.29a3.06,3.06,0,0,0,.48-.67,2.74,2.74,0,0,1,.86-1,8.11,8.11,0,0,0,1.06-1.13,13.86,13.86,0,0,1,1.7-1.64c.13-.11.31-.16.31-.39s.14-.17.23-.25.35-.32.54-.47.32-.16.45-.27a1.51,1.51,0,0,0,.33-.38s0-.15,0-.25c.35-.15.81-.18,1.08-.57,0,0,.11-.07.17-.09a4.17,4.17,0,0,0,1.59-1,9.48,9.48,0,0,1,1.28-.85c.6-.39,1.19-.79,1.8-1.16a16.29,16.29,0,0,1,1.49-.79c.35-.17.71-.3,1.08-.44s.54-.18.8-.29c.45-.19.88-.4,1.33-.58s1.16-.42,1.74-.62.9-.35,1.37-.47a9.9,9.9,0,0,1,1.32-.25c.47-.07.93-.09,1.4-.16a3.55,3.55,0,0,0,.8-.16A3.58,3.58,0,0,1,41,2.32a7.79,7.79,0,0,0,1-.09.74.74,0,0,0,.14,0c.79,0,1.57-.13,2.35-.12a5.17,5.17,0,0,1,1.12.3,1.47,1.47,0,0,0,.5.09,6.84,6.84,0,0,1,2.51.15c.2.06.42,0,.62.08a6.56,6.56,0,0,1,1.68.47A11.23,11.23,0,0,0,53.09,4a14.89,14.89,0,0,1,1.49.59c.52.2,1,.41,1.56.56a6.36,6.36,0,0,1,1.25.49c.92.48,1.81,1,2.78,1.41a7.09,7.09,0,0,1,1.37.91l1.29,1a17.67,17.67,0,0,1,2.46,2.2c.14.15.34.23.49.37s.58.57.85.87.64.73,1,1.1a.72.72,0,0,1,.14.2,3,3,0,0,0,.75.93,7.37,7.37,0,0,1,.85,1c.35.44.72.88,1,1.36s.62,1.1,1,1.62.94,1.31,1.4,2c.21.32.38.69.56,1a1.47,1.47,0,0,0,.1.22,6.91,6.91,0,0,1,1,1.38c.28.57.63,1.1.92,1.65.15.29.23.61.37.9.23.46.49.9.74,1.35a8.61,8.61,0,0,1,.78,1.82,7.3,7.3,0,0,0,.44,1.18c.27.59.55,1.17.87,1.73a10.93,10.93,0,0,1,.93,2.28A33.68,33.68,0,0,1,80.44,38,19.17,19.17,0,0,0,81,40.07a13.71,13.71,0,0,1,.8,5.16,5.93,5.93,0,0,0,0,.73c0,.47,0,.94,0,1.41.11,1.09.25,2.19.37,3.28a2.71,2.71,0,0,1,0,1.06,5,5,0,0,0,0,1.84c.13,1,.26,1.93.4,2.89a6.11,6.11,0,0,0,.18.85,5.76,5.76,0,0,1,.08,1.94c-.08,1-.26,2-.4,3a3.33,3.33,0,0,0,0,.63,10.9,10.9,0,0,1-.31,2.84c-.1.45-.33.87-.45,1.31a6,6,0,0,0-.17,1.11,12,12,0,0,1-.34,2.15c-.17.76-.35,1.52-.59,2.26a15.48,15.48,0,0,0-.43,1.69c-.09.51-.23,1-.34,1.51a1.31,1.31,0,0,0-.06.38,2.16,2.16,0,0,1-.26,1,1.81,1.81,0,0,0-.14.45c-.07.49-.1,1-.19,1.45a1.84,1.84,0,0,1-.31.75,5.55,5.55,0,0,0-.76,1.52,3,3,0,0,1-.51.86,4.93,4.93,0,0,0-.75,1.46c-.1.26-.27.51-.39.77a2,2,0,0,0-.3.8,1.43,1.43,0,0,1-.36.87c-.28.45-.6.88-.91,1.32a.52.52,0,0,0-.1.26,1.09,1.09,0,0,1-.31.59c-.21.27-.37.57-.56.85s-.26.33-.38.49-.13.13-.13.2c0,.46-.33.77-.48,1.16a1.41,1.41,0,0,1-.77.71c-.4.2-.66.44-.61.93a.94.94,0,0,1-.13.42.92.92,0,0,0,.12,1.08c.23.28.43.58.68.83a24.79,24.79,0,0,1,1.57,2l2.06,2.52c.16.19.28.4.45.58s.45.41.66.63a3.65,3.65,0,0,1,.39.49c.17.24.31.5.48.73.69.89,1.37,1.77,2.07,2.64s1.47,1.78,2.19,2.67a3.76,3.76,0,0,1,.3.47ZM42.36,96.29v0c.26,0,.52,0,.78,0,.87-.06,1.75-.1,2.61-.2.4,0,.78-.25,1.18-.32a10,10,0,0,0,2.39-.59c.54-.23,1.09-.42,1.63-.62a1.3,1.3,0,0,0,.26-.14c.46-.35,1-.58,1.46-1s.92-.91,1.42-1.31c.25-.19.38-.52.74-.58.08,0,.15-.13.22-.19l.59-.57a7.1,7.1,0,0,0,1.07-1,4,4,0,0,1,.89-1c.52-.38.94-.89,1.43-1.31A12.64,12.64,0,0,1,60.84,86a.64.64,0,0,0,.38-.58,1.44,1.44,0,0,1,.45-.94c.3-.38.6-.76.88-1.16s.76-1.12,1.16-1.68.68-.79.95-1.23a16,16,0,0,0,.84-1.65c.22-.48.4-1,.63-1.46a5.23,5.23,0,0,0,.56-1.81,1.68,1.68,0,0,1,.22-.64A8.58,8.58,0,0,0,68,72.21c.32-1.58.72-3.15,1.07-4.73.14-.62.24-1.24.32-1.86.06-.46,0-.93.08-1.4a4,4,0,0,1,.07-.48,6.17,6.17,0,0,0,.09-.62c0-.52.16-1,.16-1.56a14,14,0,0,1,0-1.83,25,25,0,0,0,.14-3c0-.36,0-.72,0-1.07,0-.65-.1-1.29-.16-1.94-.1-1.21-.21-2.42-.31-3.63,0-.51,0-1,0-1.52a9.14,9.14,0,0,0-.2-1.82c-.15-.82-.35-1.64-.51-2.47s-.25-1.42-.38-2.14a1.94,1.94,0,0,0,0-.24c-.07-.46-.11-.93-.22-1.39s-.34-1.21-.51-1.82a17.51,17.51,0,0,0-.85-2.06c-.32-.75-.52-1.56-.78-2.34-.12-.35-.24-.7-.35-1a10.37,10.37,0,0,0-.34-1.12c-.15-.33-.36-.63-.48-1a5.3,5.3,0,0,0-.55-.9,15.51,15.51,0,0,1-1.08-2.06,8.55,8.55,0,0,0-.8-1.49c-.26-.38-.64-.68-.93-1.05A7.79,7.79,0,0,1,60,23.87a.4.4,0,0,0-.07-.13c-.44-.45-.88-.89-1.33-1.33-.25-.25-.53-.48-.78-.73-.44-.42-.74-1-1.31-1.28a1.65,1.65,0,0,1-.51-.35,4.37,4.37,0,0,0-1.18-.95,23.08,23.08,0,0,1-2.08-1.35,4.13,4.13,0,0,0-.42-.31c-.71-.36-1.42-.7-2.12-1.06-.2-.1-.37-.28-.57-.36a10.51,10.51,0,0,0-1.78-.64A15.17,15.17,0,0,0,45.16,15a4.76,4.76,0,0,1-1.54-.16,3.46,3.46,0,0,0-1.15-.18c-.88,0-1.77.14-2.65.23l-1.41.17a12.82,12.82,0,0,0-1.53.23l-1.25.35c-.7.21-1.36.51-2.05.74a3.29,3.29,0,0,0-1.11.47c-.24.19-.54.29-.79.47-.45.31-1.08.39-1.33,1a.24.24,0,0,1-.11.09,6.53,6.53,0,0,0-2,1.81c-.48.61-1,1.19-1.48,1.84a30.71,30.71,0,0,0-2.31,3.24,1.12,1.12,0,0,1-.25.35,4,4,0,0,0-1.06,1.55c-.3.69-.63,1.38-1,2.07-.16.35-.36.68-.54,1a18.16,18.16,0,0,0-.86,1.63c-.31.79-.52,1.6-.79,2.4a10.12,10.12,0,0,1-.56,1.45A5.47,5.47,0,0,0,18.87,37c-.15.59-.37,1.17-.53,1.76-.07.25-.05.51-.1.77A10.91,10.91,0,0,0,18,41c-.05,1.31-.53,2.53-.69,3.81,0,.05,0,.09-.05.14-.18.71-.39,1.41-.51,2.12a22.15,22.15,0,0,1-.4,2.55,2.58,2.58,0,0,0,0,.29c-.08.82-.15,1.64-.22,2.46,0,.3-.07.61-.12.92A16.36,16.36,0,0,0,16,56c0,1,0,1.91,0,2.87A10,10,0,0,0,16,60c.1.64.22,1.28.32,1.92s.1,1,.16,1.5a8.77,8.77,0,0,0,.08,1.53,8.38,8.38,0,0,1,.24,1.73,21.81,21.81,0,0,0,1,4.45c.34,1.13.83,2.21,1.13,3.36.2.73.47,1.45.72,2.16.32.89.65,1.77,1,2.65a4,4,0,0,1,.12.52,4.41,4.41,0,0,0,.23.83c.53,1,1.09,2.07,1.64,3.1a2.57,2.57,0,0,0,.22.32,12,12,0,0,1,1.39,2.06.85.85,0,0,0,.14.19c.39.44.78.87,1.18,1.3.2.21.44.39.64.6.88.91,1.74,1.83,2.63,2.73.35.35.81.61,1.13,1a3.81,3.81,0,0,0,1.58,1.17c.3.12.61.23.9.38.66.34,1.3.72,2,1a10.34,10.34,0,0,0,2.41.92,2,2,0,0,1,.82.27,1.82,1.82,0,0,0,.93.36,2.64,2.64,0,0,1,.57.14,2.89,2.89,0,0,0,1.2.17Z"/><path class="cls-1" d="M74.22,22.29l-.13-.47C74.44,21.92,74.46,22,74.22,22.29Z"/><path class="cls-1" d="M22.23,8.65c.11-.1.22-.16.32,0a.24.24,0,0,1-.08.2C22.29,8.92,22.26,8.78,22.23,8.65Z"/><path class="cls-1" d="M75.8,24.15a.74.74,0,0,1,0-.14,2,2,0,0,1,0-.24h.09a2.26,2.26,0,0,1,0,.26s-.06.07-.09.11Z"/><path class="cls-1" d="M14.17,18h-.25v-.08l.25,0Z"/><path class="cls-1" d="M22.07,9.93s.06.06.06.08a.17.17,0,0,1-.06.06S22,10,22,10Z"/><path class="cls-1" d="M14.63,16.82l-.08,0s.06-.05.09-.05,0,0,.06.05Z"/><path class="cls-1" d="M42.36,96.29l-2,.06a2.89,2.89,0,0,1-1.2-.17A2.64,2.64,0,0,0,38.6,96a1.82,1.82,0,0,1-.93-.36,2,2,0,0,0-.82-.27,10.34,10.34,0,0,1-2.41-.92c-.66-.33-1.3-.71-2-1-.29-.15-.6-.26-.9-.38A3.81,3.81,0,0,1,30,91.89c-.32-.38-.78-.64-1.13-1-.89-.9-1.75-1.82-2.63-2.73-.2-.21-.44-.39-.64-.6-.4-.43-.79-.86-1.18-1.3a.85.85,0,0,1-.14-.19A12,12,0,0,0,22.89,84a2.57,2.57,0,0,1-.22-.32c-.55-1-1.11-2.06-1.64-3.1a4.41,4.41,0,0,1-.23-.83,4,4,0,0,0-.12-.52c-.32-.88-.65-1.76-1-2.65-.25-.71-.52-1.43-.72-2.16-.3-1.15-.79-2.23-1.13-3.36a21.81,21.81,0,0,1-1-4.45,8.38,8.38,0,0,0-.24-1.73,8.77,8.77,0,0,1-.08-1.53c-.06-.5-.09-1-.16-1.5S16.12,60.59,16,60a10,10,0,0,1-.11-1.1c0-1,0-1.91,0-2.87a16.36,16.36,0,0,1,0-2.71c.05-.31.09-.62.12-.92.07-.82.14-1.64.22-2.46a2.58,2.58,0,0,1,0-.29,22.15,22.15,0,0,0,.4-2.55c.12-.71.33-1.41.51-2.12,0,0,0-.09.05-.14.16-1.28.64-2.5.69-3.81a10.91,10.91,0,0,1,.29-1.47c.05-.26,0-.52.1-.77.16-.59.38-1.17.53-1.76a5.47,5.47,0,0,1,.56-1.23A10.12,10.12,0,0,0,20,34.3c.27-.8.48-1.61.79-2.4a18.16,18.16,0,0,1,.86-1.63c.18-.35.38-.68.54-1,.33-.69.66-1.38,1-2.07a4,4,0,0,1,1.06-1.55,1.12,1.12,0,0,0,.25-.35A30.71,30.71,0,0,1,26.76,22c.46-.65,1-1.23,1.48-1.84a6.53,6.53,0,0,1,2-1.81.24.24,0,0,0,.11-.09c.25-.59.88-.67,1.33-1,.25-.18.55-.28.79-.47a3.29,3.29,0,0,1,1.11-.47c.69-.23,1.35-.53,2.05-.74l1.25-.35a12.82,12.82,0,0,1,1.53-.23l1.41-.17c.88-.09,1.77-.19,2.65-.23a3.46,3.46,0,0,1,1.15.18,4.76,4.76,0,0,0,1.54.16,15.17,15.17,0,0,1,2.69.39,10.51,10.51,0,0,1,1.78.64c.2.08.37.26.57.36.7.36,1.41.7,2.12,1.06a4.13,4.13,0,0,1,.42.31,23.08,23.08,0,0,0,2.08,1.35,4.37,4.37,0,0,1,1.18.95,1.65,1.65,0,0,0,.51.35c.57.3.87.86,1.31,1.28.25.25.53.48.78.73.45.44.89.88,1.33,1.33a.4.4,0,0,1,.07.13,7.79,7.79,0,0,0,1.41,1.77c.29.37.67.67.93,1.05a8.55,8.55,0,0,1,.8,1.49,15.51,15.51,0,0,0,1.08,2.06,5.3,5.3,0,0,1,.55.9c.12.35.33.65.48,1a10.37,10.37,0,0,1,.34,1.12c.11.35.23.7.35,1,.26.78.46,1.59.78,2.34a17.51,17.51,0,0,1,.85,2.06c.17.61.36,1.21.51,1.82s.15.93.22,1.39a1.94,1.94,0,0,1,0,.24c.13.72.25,1.43.38,2.14s.36,1.65.51,2.47a9.14,9.14,0,0,1,.2,1.82c0,.5,0,1,0,1.52.1,1.21.21,2.42.31,3.63.06.65.12,1.29.16,1.94,0,.35,0,.71,0,1.07a25,25,0,0,1-.14,3,14,14,0,0,0,0,1.83c0,.53-.13,1-.16,1.56a6.17,6.17,0,0,1-.09.62,4,4,0,0,0-.07.48c0,.47,0,.94-.08,1.4-.08.62-.18,1.24-.32,1.86-.35,1.58-.75,3.15-1.07,4.73a8.58,8.58,0,0,1-1.06,2.6,1.68,1.68,0,0,0-.22.64,5.23,5.23,0,0,1-.56,1.81c-.23.47-.41,1-.63,1.46a16,16,0,0,1-.84,1.65c-.27.44-.64.81-.95,1.23s-.76,1.13-1.16,1.68-.58.78-.88,1.16a1.44,1.44,0,0,0-.45.94.64.64,0,0,1-.38.58A12.64,12.64,0,0,0,59,87.41c-.49.42-.91.93-1.43,1.31a4,4,0,0,0-.89,1,7.1,7.1,0,0,1-1.07,1l-.59.57c-.07.06-.14.17-.22.19-.36.06-.49.39-.74.58-.5.4-.91.91-1.42,1.31s-1,.6-1.46,1a1.3,1.3,0,0,1-.26.14c-.54.2-1.09.39-1.63.62a10,10,0,0,1-2.39.59c-.4.07-.78.27-1.18.32-.86.1-1.74.14-2.61.2-.26,0-.52,0-.78,0ZM18.2,60.87c0,.3-.08.55-.08.8s0,.78.06,1.17a31.41,31.41,0,0,0,.58,4.43c.22,1,.49,2,.74,3.07a1,1,0,0,0,.07.18,3.74,3.74,0,0,1,.48,1.15c.09.36.22.71.33,1.07.24.8.48,1.61.74,2.41s.46,1.31.69,2c.12.33.26.66.36,1a9,9,0,0,0,1,2.41c.11.18.27.33.36.51.24.51.46,1,.7,1.53a1,1,0,0,0,.19.23,6.71,6.71,0,0,1,.6.7c.29.44.54.92.81,1.37a3.17,3.17,0,0,0,.36.46l1.36,1.4c.2.2.44.37.64.59.55.61,1.08,1.24,1.63,1.85a1.44,1.44,0,0,0,.49.39,1.11,1.11,0,0,1,.53.47,2.54,2.54,0,0,0,1.53,1,.81.81,0,0,1,.36.22.87.87,0,0,0,.59.38,2.53,2.53,0,0,1,.53.24c.32.18.63.41,1,.56.73.33,1.46.64,2.2.93a12.6,12.6,0,0,0,1.61.52,12.39,12.39,0,0,0,1.72.31,1.41,1.41,0,0,0,.84-.14,1,1,0,0,1,1,0,2.16,2.16,0,0,0,.88.22A12.77,12.77,0,0,0,46.19,94a28.34,28.34,0,0,0,3.6-1,7.26,7.26,0,0,0,2.14-1.33,17.61,17.61,0,0,1,2.33-1.82,9,9,0,0,0,1.49-1.39,15.43,15.43,0,0,1,1.8-1.9c.19-.16.35-.34.53-.5a6.19,6.19,0,0,0,.8-1.1c.43-.6,1-1.13,1.43-1.7s.75-.94,1.1-1.43.76-1.18,1.19-1.72A8.61,8.61,0,0,0,63.87,78c.18-.43.42-.84.61-1.27a5.51,5.51,0,0,0,.32-1,6.67,6.67,0,0,1,.78-2.23,4.6,4.6,0,0,0,.76-1.89,9.47,9.47,0,0,1,.54-2.22A4.07,4.07,0,0,0,67,68.7c.08-.44.15-.89.23-1.34.17-.87.38-1.74.52-2.62.11-.7.16-1.42.21-2.13a17.41,17.41,0,0,0,.09-2,6.55,6.55,0,0,1,.06-1.25c0-.21.06-.42.06-.63,0-.73,0-1.45,0-2.18,0-.47,0-.94,0-1.41a8.85,8.85,0,0,0-.14-1.55A4.75,4.75,0,0,1,68,51.87a2.84,2.84,0,0,0,0-.77c-.06-.55-.18-1.08-.23-1.62s0-1.26-.11-1.89c0-.46-.22-.92-.27-1.38a9.27,9.27,0,0,0-.39-2.1,2.35,2.35,0,0,1-.09-.53,7.59,7.59,0,0,0-.41-2.31c0-.12,0-.25-.08-.38-.29-1.12-.54-2.24-.88-3.34-.26-.87-.64-1.7-1-2.54-.07-.17-.09-.35-.16-.51a26.68,26.68,0,0,0-1.24-2.85c-.22-.39-.42-.8-.62-1.2-.29-.58-.59-1.16-.87-1.74a9.17,9.17,0,0,0-1.17-1.95c-.28-.32-.55-.63-.81-1a3.23,3.23,0,0,0-.77-.92,1.27,1.27,0,0,1-.27-.34,2,2,0,0,0-.45-.5,6.37,6.37,0,0,1-.81-.75c-.4-.4-.78-.83-1.19-1.22a13.08,13.08,0,0,0-1.08-.89c-.37-.29-.78-.52-1.13-.83a11.23,11.23,0,0,0-2.46-1.53,13.72,13.72,0,0,1-1.24-.71A10.08,10.08,0,0,0,48.25,17a6.25,6.25,0,0,0-.74-.21,12.06,12.06,0,0,0-1.76-.32c-.78-.05-1.56,0-2.33,0-.13,0-.26.07-.38.06a2.76,2.76,0,0,1-1-.07,1.66,1.66,0,0,0-.85-.07,1.58,1.58,0,0,1-.43.05,5.31,5.31,0,0,0-2,.19,2.22,2.22,0,0,1-.38,0,15.33,15.33,0,0,0-1.67.29c-.67.19-1.3.51-2,.69a4.59,4.59,0,0,0-1.75,1,1.33,1.33,0,0,1-1.23.35h-.13l-.12.69-.1-.07c-.2.08-.48.11-.58.25a1.24,1.24,0,0,1-1.09.49c.21.34,0,.53-.19.76a7.09,7.09,0,0,0-1.29,1.68,6.28,6.28,0,0,1-1,1.17c-.33.41-.62.83-.92,1.25S26,26,25.7,26.38a12.43,12.43,0,0,0-1,1.44c-.32.66-.62,1.32-1,2-.25.46-.52.91-.76,1.37-.42.79-.73,1.63-1.07,2.46-.09.23-.13.49-.22.73s-.16.38-.24.58A9.79,9.79,0,0,1,21,36.24a11.73,11.73,0,0,0-.9,2.76c-.17.7-.31,1.42-.46,2.13a.92.92,0,0,0-.05.28,7.45,7.45,0,0,1-.36,2.15,3.59,3.59,0,0,0-.17,1,1.24,1.24,0,0,1-.16.61,7.09,7.09,0,0,0-.49,2c-.11.68-.19,1.36-.3,2s-.2,1.18-.28,1.77-.09,1.07-.12,1.6a2.55,2.55,0,0,0,0,.39c0,.09,0,.2,0,.28a5,5,0,0,0-.13,1.93c.06,1.39.11,2.78.17,4.18A2.17,2.17,0,0,0,18.2,60.87Z"/></svg>