<svg id="R" xmlns="http://www.w3.org/2000/svg" viewBox="0 0 86 112"><defs><style>.cls-1{stroke:#000;stroke-miterlimit:10;}</style></defs><path class="cls-1" d="M26.24,102.52l.08-.07s0-.06-.05,0-.05,0-.08,0Z"/><path class="cls-1" d="M26.24,102.52l0-.07s0,0,.08,0,0,0,.05,0Z"/><path class="cls-1" d="M76.81,30.16a8.54,8.54,0,0,1,.92.81c.28.32.16.75.15,1.14-.35.12-.35.12-.44.45l.3-.13c.42.34.3.84.3,1.28,0,.08-.18.19-.29.24s-.41.17-.43.49l.56-.31c0,.17,0,.26,0,.36,0,.31,0,.62,0,.92a6,6,0,0,1-.1.61,3.14,3.14,0,0,0-.12.51.56.56,0,0,1-.26.57.35.35,0,0,0-.1.35c.23.45-.08.8-.19,1.18,0,.1-.27.13-.45.2.07.22.55.24.39.6a4.44,4.44,0,0,1-.39.65c.27.47-.13.94-.2,1.44-.36.07-.3-.27-.49-.4a1,1,0,0,0-.14.75l.36.11c-.08.36-.16.69-.24,1a.26.26,0,0,1-.06.14c-.48.3-.4.81-.38,1.22a1.77,1.77,0,0,1-.45,1.16,3,3,0,0,1-.35.39c0,.36.07.65.1.93a1.49,1.49,0,0,0-.65,1,1.92,1.92,0,0,1-.19.48,2,2,0,0,0-.16.44,1.33,1.33,0,0,1-.44.84,3,3,0,0,0-.42.71c-.12.26-.22.54-.32.82a5.89,5.89,0,0,1-1.43,1.75,7.49,7.49,0,0,1-.6.49s-.12.1-.12.15c0,.57-.48.85-.72,1.27-.37.62-1,1-1.32,1.69-.06.16-.34.22-.51.33a3.07,3.07,0,0,0-.43.26,16.31,16.31,0,0,0-1.69,1.4c-.36.37-.87.53-1.17,1a2.44,2.44,0,0,1-.73.56,13.92,13.92,0,0,0-2.21,1.51,1.24,1.24,0,0,1-.27.17c-.26.11-.55.17-.66.5,0,.08-.16.14-.25.17a4.43,4.43,0,0,0-1.36.84c-.08,0-.13.13-.21.16l-2,.76a1.14,1.14,0,0,0-.42.18,3,3,0,0,1-1.24.61c-.58.19-.66.54-.24,1a6,6,0,0,1,.39.59c.5.64,1,1.26,1.52,1.9s.86,1.22,1.33,1.78a14.08,14.08,0,0,1,1.16,1.89c.27.44.58.86.86,1.3s.39.65.61.95c.52.73,1.13,1.41,1.57,2.18s1,1.34,1.5,2c0,0,0,0,0,0A3.8,3.8,0,0,0,65.14,80a3.27,3.27,0,0,1,.32.52c.2.31.43.62.63.94s.33.6.51.9a1.26,1.26,0,0,0,.27.37,9,9,0,0,1,1.61,2c.1.16.22.31.33.47.24.33.49.66.72,1a4.26,4.26,0,0,0,.89,1.19,2.14,2.14,0,0,1,.49.72A7.66,7.66,0,0,0,72,89.79c.42.55.8,1.12,1.21,1.67a16.55,16.55,0,0,0,1.51,1.94,14.6,14.6,0,0,1,1.58,1.84c.57.78,1.06,1.62,1.6,2.42.24.36.51.7.76,1s.47.68.72,1a13.29,13.29,0,0,0,1,1.15A26.78,26.78,0,0,1,82.05,103a12.66,12.66,0,0,1,1,1.46c.2.33.53.59.76.91a8.6,8.6,0,0,1,.75,1.23c.15.28.1.3.36.48,0,.32.06.63.07.94s-.07.43-.43.4a.53.53,0,0,0-.5.17.75.75,0,0,1-.51.14,27.17,27.17,0,0,0-3.26.13l-.62,0c-.68,0-1.35-.12-2-.12s-1.23.11-1.85.13-1.25,0-1.87,0c-.36,0-.72,0-1.08,0s-.48,0-.72,0a10,10,0,0,0-2.79.06,6.65,6.65,0,0,1-.77.06.39.39,0,0,0-.34.17c0,.12.11.23.06.32a.35.35,0,0,1-.4.07c-.22-.07-.22-.29-.46-.37a.79.79,0,0,0-.38,0,3.24,3.24,0,0,1-1.86-.55,1,1,0,0,1-.37-.7,3.34,3.34,0,0,0-.84-1.8c-.68-.92-1.35-1.84-2-2.78a3.29,3.29,0,0,1-.53-1.12,4.4,4.4,0,0,0-1-1.81c-1-1.26-1.92-2.53-2.83-3.84A24.59,24.59,0,0,0,55.73,94a13.89,13.89,0,0,1-1-1.62,12.15,12.15,0,0,0-1.44-2.14,5.26,5.26,0,0,1-.7-1,4.55,4.55,0,0,0-1-1.22,2,2,0,0,1-.25-.26c-1.06-1.47-2.11-3-3.19-4.42-.52-.69-1.09-1.33-1.63-2s-.82-1.11-1.23-1.67c-.76-1-1.55-2-2.27-3-.59-.85-1.1-1.75-1.65-2.63a4,4,0,0,0-.29-.43c-.76-.94-1.53-1.88-2.28-2.82-.37-.46-.7-1-1-1.42a2.58,2.58,0,0,0-.35-.45,4.85,4.85,0,0,1-1.05-1.41.87.87,0,0,0-.81-.5,13.7,13.7,0,0,0-2.22.1,4,4,0,0,1-.91-.08c-.07,0-.15-.06-.2,0-.31.16-.61,0-.91,0a1.3,1.3,0,0,0-.56,0,3.1,3.1,0,0,1-1.73.16A15.52,15.52,0,0,0,26,67a11.48,11.48,0,0,1-1.55,0H24c-.22,0-.45,0-.67,0-.69,0-1.37-.14-2.06-.14a11.78,11.78,0,0,0-1.16.21c-.62.06-1.24.09-1.87.11-.37,0-.46.08-.44.45a3.57,3.57,0,0,1,0,.56c-.13.83-.33,1.66-.38,2.51-.08,1.25-.05,2.52-.08,3.78,0,.45-.07.9-.07,1.35,0,.62,0,1.24.07,1.86a3.07,3.07,0,0,1-.05,1.13,3.22,3.22,0,0,0-.08.76A20.82,20.82,0,0,1,17,82.28a8.11,8.11,0,0,0,.06,1.55c0,.2,0,.41,0,.62a15,15,0,0,0,.06,2.84,1.85,1.85,0,0,1,0,.57,1.4,1.4,0,0,0,0,.86.12.12,0,0,1,0,.1,12.36,12.36,0,0,0,0,2.58c0,.47,0,.93,0,1.4a.41.41,0,0,0,0,.11c.12.8-.11,1.61,0,2.42a.77.77,0,0,1,0,.26,10.42,10.42,0,0,0,0,3.25,3.62,3.62,0,0,1,0,.93,11.08,11.08,0,0,0,.19,3.15,7.66,7.66,0,0,1,0,.83,15.07,15.07,0,0,0,.07,1.65,3.14,3.14,0,0,1,0,1.33,1.09,1.09,0,0,0,.07.81.75.75,0,0,1,.07.4c0,.34-.07.68-.11,1s-.42.61-.76.78-.46-.07-.64-.21a5.33,5.33,0,0,1-.42-.4A.83.83,0,0,0,14.5,109a.73.73,0,0,1-.64.06,1.57,1.57,0,0,0-.58,0c-.65,0-.76.18-1.23.11-.25,0-.18-.1-.43-.11s-.72,0-1.08.08a1.07,1.07,0,0,1-.25,0l-2-.14a1.17,1.17,0,0,0-.46,0,4.06,4.06,0,0,1-1.34.14,2.8,2.8,0,0,0-.92.12,1.45,1.45,0,0,1-1.16-.07,2.14,2.14,0,0,0-1.32-.11,4.54,4.54,0,0,1-.51.09.89.89,0,0,1-1.08-.65,3.57,3.57,0,0,1-.13-1.78,2.37,2.37,0,0,0,0-.46c0-.45,0-.9,0-1.34a4.42,4.42,0,0,0,0-1.7,1.08,1.08,0,0,1,0-.31c.05-.71.13-1.41.15-2.12.05-1.36.08-2.73.09-4.09,0-.74-.09-1.49-.12-2.23a5.83,5.83,0,0,1,.06-.72.59.59,0,0,0,0-.26,13.78,13.78,0,0,1-.12-3.08c0-.38,0-.76-.08-1.13a1.48,1.48,0,0,1,0-.21c0-.6.07-1.21.07-1.81s-.08-1-.09-1.55a21.59,21.59,0,0,1,.12-3.21,36.61,36.61,0,0,0,.14-5.34c0-.71.05-1.42,0-2.12,0-1.4-.07-2.8-.08-4.21,0-.91.05-1.83.05-2.75,0-.5-.05-1-.06-1.5s.05-.82.05-1.24c0-.27,0-.55,0-.82a10.55,10.55,0,0,0,.15-2.1c.19-.3.05-.61,0-.91a7.18,7.18,0,0,1,.09-2.17.66.66,0,0,0,0-.31,4.71,4.71,0,0,1-.11-1.83,9.88,9.88,0,0,0-.1-1.8.25.25,0,0,1,0-.15c.4-.67.06-1.41.2-2.12a15.89,15.89,0,0,0,.06-2.29c0-.61,0-1.2,0-1.8v0c.09-.77.22-1.54.27-2.31A5.74,5.74,0,0,0,2,45.62a7.12,7.12,0,0,1-.13-1.12c0-.66.11-1.31.14-2,.05-1.09.08-2.17.11-3.26,0-.29,0-.59,0-.88,0-.52,0-1-.05-1.55-.16-1.39-.21-2.79-.28-4.19a3.45,3.45,0,0,1,0-1.28,3.78,3.78,0,0,0,0-1.34c0-.47,0-.94,0-1.4a1.78,1.78,0,0,1,.06-.57A5,5,0,0,0,2,26.54a19.32,19.32,0,0,1,.22-3.72,1.88,1.88,0,0,0,0-.41c0-.33.07-.65.07-1a6.73,6.73,0,0,0-.05-1.19,13.66,13.66,0,0,1,.11-2.48c0-.85,0-1.69.06-2.54,0-.5.06-1,.1-1.5,0-.09.05-.18,0-.26-.21-1.06.16-2.13-.06-3.2a2.42,2.42,0,0,1,0-.46,3.17,3.17,0,0,0-.06-.76,1.52,1.52,0,0,1,0-.87,2.59,2.59,0,0,0,0-1.78.76.76,0,0,1,0-.3c0-.78-.08-1.56-.08-2.34,0-.39.09-.79.11-1.18,0-.64,0-1.28,0-1.92,0-.48.08-.61.56-.63C4,0,4.91,0,5.83,0A16.9,16.9,0,0,0,9.24,0a9,9,0,0,1,1,0c1.31,0,2.63-.09,3.94-.13.52,0,1,0,1.56,0a2.85,2.85,0,0,0,1.33-.11.73.73,0,0,1,.46,0,3,3,0,0,0,1.64-.06,3.92,3.92,0,0,1,1.6,0,1.8,1.8,0,0,0,.52,0,1.1,1.1,0,0,1,.25,0,8.7,8.7,0,0,0,1.84.06c.43,0,.88,0,1.33,0,.82.07,1.65.05,2.47.05.47,0,.94-.07,1.4-.08a14.35,14.35,0,0,1,1.61.07,13.85,13.85,0,0,0,2.95.07,9,9,0,0,1,1,0,13,13,0,0,0,2.49,0A.58.58,0,0,1,37-.1a4.05,4.05,0,0,0,1.59,0,10.34,10.34,0,0,1,2.16.21A18.54,18.54,0,0,0,43.88.2a1.75,1.75,0,0,1,.69.17,1,1,0,0,0,.79.06,2.24,2.24,0,0,1,1.23,0,4.68,4.68,0,0,0,1.54,0,1.81,1.81,0,0,1,.57,0c.81,0,1.62.09,2.42.17a5.14,5.14,0,0,1,1,.25,5.61,5.61,0,0,0,2,.28,8.4,8.4,0,0,1,2.28.46c.49.12,1,.26,1.45.39A2,2,0,0,1,59,2.52a.63.63,0,0,0,.23.12c.59.25,1.17.51,1.77.74a6,6,0,0,1,1.39.68.81.81,0,0,0,.32.16,4.52,4.52,0,0,1,1.52.87c.5.34,1,.66,1.51,1s.74.51,1.11.76.59.35.88.54a12.77,12.77,0,0,1,1.64,1.73,13.7,13.7,0,0,1,1.18,1.44c.3.38.65.73.92,1.13.39.58.74,1.2,1.11,1.8.21.32.46.6.65.93.33.55.57,1.15.93,1.67s.51,1.46.91,2.13a2,2,0,0,1,.17.54c0,.05,0,.12,0,.15A6.7,6.7,0,0,1,76,20.45a5,5,0,0,1,.68,1.82A2.22,2.22,0,0,0,77,23.6c.09.11.07.3.08.45,0,.33.07.66.09,1a2.36,2.36,0,0,1,0,.46c0,.19,0,.37.11.54a.59.59,0,0,1,.11.33,1,1,0,0,0,.22.83s0,.07,0,.09c-.23.61.28,1.12.2,1.71a2.77,2.77,0,0,1,0,.41c-.07.32-.22.59-.59.63A3.44,3.44,0,0,0,76.81,30.16Zm5.5,76.74a1.92,1.92,0,0,0-.17-.4c-.44-.53-.66-1.23-1.25-1.65a.56.56,0,0,1-.17-.25,6,6,0,0,0-.93-1.43c-.79-.87-1.27-2-2.14-2.78a.86.86,0,0,1-.13-.23,5,5,0,0,0-1.1-1.49,4.11,4.11,0,0,1-.85-1.1,8.42,8.42,0,0,0-1.39-2,3.19,3.19,0,0,1-.33-.4c-.33-.43-.55-1-1.09-1.22-.13-.06-.2-.23-.29-.35L72,92.87l-.39-.55c-.35-.53-.68-1.08-1-1.6s-.9-1.18-1.33-1.79c-.64-.92-1.25-1.87-1.9-2.79-.39-.54-.85-1-1.24-1.59-.69-1-1.35-1.92-2-2.88-.31-.44-.62-.87-.94-1.3a10.78,10.78,0,0,1-1-1.29,5.37,5.37,0,0,0-.88-1.26,11.3,11.3,0,0,1-1.42-2c-.13-.23-.24-.47-.38-.68-.31-.46-.65-.9-1-1.35-.21-.29-.39-.6-.6-.9l-.76-1.1c-.25-.37-.48-.76-.74-1.13-.15-.21-.35-.38-.5-.59-.42-.57-.82-1.16-1.24-1.72-.14-.2-.33-.36-.48-.55a6.24,6.24,0,0,1-.5-.65,6.64,6.64,0,0,0-.66-1,2.49,2.49,0,0,1-.5-1,.73.73,0,0,1,.07-.79,4.06,4.06,0,0,1,1-.71c.92-.39,1.88-.71,2.81-1.08a9.58,9.58,0,0,0,1.49-.68c.22-.13.38-.37.64-.51a6.19,6.19,0,0,1,1.43-.72.26.26,0,0,0,.13-.08c.25-.42.73-.56,1.07-.86a6.08,6.08,0,0,1,1.13-.83,16.9,16.9,0,0,0,2.29-1.66c.57-.44,1.11-.93,1.71-1.33a8.2,8.2,0,0,0,1.92-1.7c.35-.43.62-1,1.17-1.17.06-.54.06-.55.6-.6.22,0,.34-.1.34-.3A1.84,1.84,0,0,1,71,50.77a1.87,1.87,0,0,0,.24-.38c0-.11.07-.23.13-.34.27-.46.55-.91.8-1.38a4.83,4.83,0,0,0,.42-1,1.59,1.59,0,0,1,.31-.64,2.68,2.68,0,0,0,.71-1.41,13.17,13.17,0,0,1,.65-2.56,1.61,1.61,0,0,1,.41-.7.55.55,0,0,0,.24-.54,1.21,1.21,0,0,1,.22-.94,2.46,2.46,0,0,0,.2-.47c.2-.54.1-1.16.5-1.64a.24.24,0,0,0,0-.2.79.79,0,0,1,.22-.81s0-.16,0-.24c0-.32-.11-.63.26-.81,0,0,.07-.15.07-.24a1.69,1.69,0,0,0,0-1.11c0-.1,0-.27,0-.4-.1-.82.33-1.59.19-2.41L76.54,32a1.9,1.9,0,0,1,0-.41,4.15,4.15,0,0,0-.13-2,.52.52,0,0,1,0-.21A16.39,16.39,0,0,0,76,27c-.21-1.05-.34-2.11-.5-3.17-.07-.49-.12-1-.2-1.48a1.72,1.72,0,0,0-.26-.77,9.11,9.11,0,0,1-.85-1.36,4.93,4.93,0,0,1-.36-.85c-.16-.49-.24-1-.44-1.49a15,15,0,0,0-1.5-2.72c-.37-.52-.68-1.08-1-1.61s-.71-1.11-1.12-1.62c-.59-.73-1.19-1.44-1.84-2.12A22.37,22.37,0,0,0,66,8.07a11.33,11.33,0,0,0-1.45-.9c-1.2-.72-2.4-1.46-3.62-2.13a19.29,19.29,0,0,0-2-.9c-.35-.15-.74-.22-1.08-.39A16.28,16.28,0,0,0,53,2.46l-2.72-.41a9.38,9.38,0,0,0-1.64-.23,13.44,13.44,0,0,1-2.69,0c-.2,0-.41,0-.62-.05L42,1.75a5.08,5.08,0,0,1-.67-.07,19.57,19.57,0,0,0-2-.21c-1.52,0-3.05.08-4.57.06s-2.94-.13-4.41-.17c-1.16,0-2.32-.05-3.48-.07l-4.21-.1c-1,0-2.07-.07-3.11-.07s-1.9.08-2.85.11-2,.06-3,0a7.44,7.44,0,0,0-1.7.11,3,3,0,0,1-.67.06,13.7,13.7,0,0,0-2.64.12,4,4,0,0,1-.78,0L4.74,1.41c-.6,0-.65,0-.75.59a2,2,0,0,0,0,.26A11.48,11.48,0,0,1,3.86,3.7,10,10,0,0,0,4,6.32c0,.41.09.82.11,1.24,0,1.31.08,2.62.11,3.94a5.06,5.06,0,0,1,0,.87,7.67,7.67,0,0,0,0,1.66,14.08,14.08,0,0,1-.23,4.34,2.86,2.86,0,0,0-.07.92,36.69,36.69,0,0,1,0,4.57c0,.1,0,.2,0,.31,0,.29-.1.57-.14.87s0,.58,0,.87c0,.54-.07,1.07-.08,1.61,0,.76,0,1.52,0,2.28,0,1,0,2,0,3.07,0,.39,0,.79,0,1.18.07,1,.21,1.89.23,2.84,0,1.33,0,2.66,0,4,0,.5-.11,1-.12,1.49s0,1.25,0,1.87a10,10,0,0,0,.11,1.34,4,4,0,0,1,.06,1.29,7.5,7.5,0,0,0-.12,1.34c0,1.41-.31,2.81-.23,4.22,0,0,0,0,0,0,0,.69,0,1.38-.11,2.06-.14,1.22.11,2.45-.09,3.67a.07.07,0,0,0,0,0,13.7,13.7,0,0,1,.06,2.22c-.06.75,0,1.51,0,2.27,0,.93,0,1.87,0,2.8,0,.73,0,1.45,0,2.18s-.13,1.42-.11,2.12c0,1.26.13,2.52.2,3.78,0,.26,0,.52,0,.78a16.07,16.07,0,0,1,0,1.7c0,1,0,2,0,3a17.53,17.53,0,0,1,0,1.92,33.84,33.84,0,0,0-.22,4.15q0,2.38.06,4.77c0,.61,0,1.21,0,1.82,0,.89.15,1.79.19,2.68.05,1.07.08,2.15.1,3.22,0,.65,0,1.31-.06,2A21,21,0,0,0,3.32,102a12.77,12.77,0,0,1-.08,3.21,4.64,4.64,0,0,0,.25,1.84.37.37,0,0,0,.43.28l2.17,0,3.42,0,.47,0a7.32,7.32,0,0,1,.81,0c.9,0,1.8.06,2.7,0a13.66,13.66,0,0,0,1.72-.28,3.51,3.51,0,0,0,.13-.58c0-.78,0-1.56,0-2.34,0-.57-.12-1.14-.13-1.71,0-.88.05-1.76,0-2.64s-.05-1.69-.06-2.53.12-1.75.07-2.64a20.94,20.94,0,0,1,.11-2.23,8.56,8.56,0,0,0,0-1.24,18.75,18.75,0,0,1-.18-2.9c.06-1.06,0-2.13,0-3.19a8.36,8.36,0,0,0,0-1.87,4.62,4.62,0,0,1,.09-1.85,2,2,0,0,0,.08-.41c.07-1.27.13-2.55.2-3.83.06-1,0-1.93.05-2.9s0-1.83,0-2.75A19.87,19.87,0,0,1,16,68.53a4.37,4.37,0,0,0,0-1.69,3.33,3.33,0,0,1-.05-.77.65.65,0,0,1,.72-.71c.62,0,1.25,0,1.87,0a14.67,14.67,0,0,0,2.57.08,17,17,0,0,1,2.47,0,14.05,14.05,0,0,0,2.9,0,9.44,9.44,0,0,1,1.5.05,6.75,6.75,0,0,0,1.74,0,3.19,3.19,0,0,1,.62-.08c.46,0,.93,0,1.39,0a17.57,17.57,0,0,0,1.91-.16,15.07,15.07,0,0,1,1.9,0,5,5,0,0,0,.78,0c.84-.12,1.27.39,1.61,1a2.56,2.56,0,0,0,.11.24c.18.27.36.54.56.8s.59.72.88,1.09.59.81.9,1.19.52.54.76.83.28.44.46.61a3,3,0,0,1,.71,1,2.32,2.32,0,0,0,.31.46c.22.29.45.56.66.85s.48.67.72,1a4.27,4.27,0,0,1,.29.41,13.66,13.66,0,0,0,.77,1.41c.93,1.24,1.9,2.46,2.85,3.69.49.62,1,1.23,1.47,1.87S50.5,83.24,51,84a15.85,15.85,0,0,0,1.62,2.27,8,8,0,0,1,.84,1q.69.93,1.35,1.89c.2.28.36.59.55.88l1.86,2.73a1.08,1.08,0,0,1,.08.19,3.19,3.19,0,0,0,.92,1.29,1,1,0,0,1,.25.33A19.46,19.46,0,0,1,60,97a2.21,2.21,0,0,0,.26.44c.36.51.73,1,1.09,1.51s.85,1.18,1.3,1.75a2.49,2.49,0,0,1,.55,1,2.74,2.74,0,0,0,.42.88c.46.73.94,1.45,1.43,2.16.29.43.62.83.92,1.26a7.1,7.1,0,0,1,.57.92c.18.36.22.4.62.38l1.77-.09,3.1-.17c.21,0,.41,0,.62,0s.48.06.72.06c1.9,0,3.8-.09,5.7,0h.26l2.64-.2Zm-8-61.22c.21-.16.22-.31.1-.43s-.18,0-.35,0Zm-.07.65L74,45.81C73.75,46.16,74,46.25,74.2,46.33ZM77.57,33s0-.07,0-.08,0,0-.08,0l0,.11Z"/><path class="cls-1" d="M82.31,106.9l-.35,0-2.64.2h-.26c-1.9-.1-3.8,0-5.7,0-.24,0-.48,0-.72-.06s-.41,0-.62,0l-3.1.17-1.77.09c-.4,0-.44,0-.62-.38A7.1,7.1,0,0,0,66,106c-.3-.43-.63-.83-.92-1.26-.49-.71-1-1.43-1.43-2.16a2.74,2.74,0,0,1-.42-.88,2.49,2.49,0,0,0-.55-1c-.45-.57-.87-1.16-1.3-1.75s-.73-1-1.09-1.51A2.21,2.21,0,0,1,60,97a19.46,19.46,0,0,0-1.5-2.48,1,1,0,0,0-.25-.33,3.19,3.19,0,0,1-.92-1.29,1.08,1.08,0,0,0-.08-.19L55.38,90c-.19-.29-.35-.6-.55-.88q-.66-1-1.35-1.89a8,8,0,0,0-.84-1A15.85,15.85,0,0,1,51,84c-.52-.75-1.1-1.45-1.64-2.18s-1-1.25-1.47-1.87C47,78.71,46,77.49,45.06,76.25a13.66,13.66,0,0,1-.77-1.41,4.27,4.27,0,0,0-.29-.41c-.24-.34-.47-.68-.72-1s-.44-.56-.66-.85a2.32,2.32,0,0,1-.31-.46,3,3,0,0,0-.71-1c-.18-.17-.29-.42-.46-.61s-.52-.54-.76-.83-.6-.8-.9-1.19-.59-.72-.88-1.09-.38-.53-.56-.8a2.56,2.56,0,0,1-.11-.24c-.34-.64-.77-1.15-1.61-1a5,5,0,0,1-.78,0,15.07,15.07,0,0,0-1.9,0,17.57,17.57,0,0,1-1.91.16c-.46,0-.93,0-1.39,0a3.19,3.19,0,0,0-.62.08,6.75,6.75,0,0,1-1.74,0,9.44,9.44,0,0,0-1.5-.05,14.05,14.05,0,0,1-2.9,0,17,17,0,0,0-2.47,0,14.67,14.67,0,0,1-2.57-.08c-.62,0-1.25,0-1.87,0a.65.65,0,0,0-.72.71,3.33,3.33,0,0,0,.05.77,4.37,4.37,0,0,1,0,1.69,19.87,19.87,0,0,0-.31,2.78c-.05.92.05,1.84,0,2.75s0,1.94-.05,2.9c-.07,1.28-.13,2.56-.2,3.83a2,2,0,0,1-.08.41,4.62,4.62,0,0,0-.09,1.85,8.36,8.36,0,0,1,0,1.87c0,1.06,0,2.13,0,3.19a18.75,18.75,0,0,0,.18,2.9,8.56,8.56,0,0,1,0,1.24,20.94,20.94,0,0,0-.11,2.23c.05.89-.08,1.76-.07,2.64s.06,1.69.06,2.53-.05,1.76,0,2.64c0,.57.11,1.14.13,1.71,0,.78,0,1.56,0,2.34a3.51,3.51,0,0,1-.13.58,13.66,13.66,0,0,1-1.72.28c-.9,0-1.8,0-2.7,0a7.32,7.32,0,0,0-.81,0l-.47,0-3.42,0-2.17,0a.37.37,0,0,1-.43-.28,4.64,4.64,0,0,1-.25-1.84A12.77,12.77,0,0,0,3.32,102a21,21,0,0,1,.06-2.38c0-.66.06-1.32.06-2,0-1.07,0-2.15-.1-3.22,0-.89-.15-1.79-.19-2.68,0-.61,0-1.21,0-1.82q0-2.39-.06-4.77A33.84,33.84,0,0,1,3.31,81a17.53,17.53,0,0,0,0-1.92c0-1-.05-2,0-3a16.07,16.07,0,0,0,0-1.7c0-.26,0-.52,0-.78-.07-1.26-.17-2.52-.2-3.78,0-.7.09-1.41.11-2.12s0-1.45,0-2.18c0-.93,0-1.87,0-2.8,0-.76,0-1.52,0-2.27a13.7,13.7,0,0,0-.06-2.22.07.07,0,0,1,0,0c.2-1.22-.05-2.45.09-3.67.08-.68.08-1.37.11-2.06,0,0,0,0,0,0-.08-1.41.26-2.81.23-4.22a7.5,7.5,0,0,1,.12-1.34,4,4,0,0,0-.06-1.29,10,10,0,0,1-.11-1.34c0-.62,0-1.24,0-1.87s.11-1,.12-1.49c0-1.33,0-2.66,0-4,0-1-.16-1.89-.23-2.84,0-.39,0-.79,0-1.18,0-1,0-2,0-3.07,0-.76,0-1.52,0-2.28,0-.54,0-1.07.08-1.61,0-.29,0-.58,0-.87s.09-.58.14-.87c0-.11,0-.21,0-.31a36.69,36.69,0,0,0,0-4.57,2.86,2.86,0,0,1,.07-.92A14.08,14.08,0,0,0,4.12,14a7.67,7.67,0,0,1,0-1.66,5.06,5.06,0,0,0,0-.87c0-1.32-.07-2.63-.11-3.94,0-.42-.08-.83-.11-1.24A10,10,0,0,1,3.86,3.7,11.48,11.48,0,0,0,4,2.26,2,2,0,0,1,4,2c.1-.58.15-.62.75-.59l3.11.17a4,4,0,0,0,.78,0,13.7,13.7,0,0,1,2.64-.12,3,3,0,0,0,.67-.06,7.44,7.44,0,0,1,1.7-.11c1,0,2,0,3,0s1.9-.1,2.85-.11,2.07,0,3.11.07l4.21.1c1.16,0,2.32,0,3.48.07,1.47,0,2.94.15,4.41.17s3-.07,4.57-.06a19.57,19.57,0,0,1,2,.21,5.08,5.08,0,0,0,.67.07l3.37.05c.21,0,.42,0,.62.05a13.44,13.44,0,0,0,2.69,0,9.38,9.38,0,0,1,1.64.23L53,2.46a16.28,16.28,0,0,1,4.79,1.29c.34.17.73.24,1.08.39a19.29,19.29,0,0,1,2,.9c1.22.67,2.42,1.41,3.62,2.13a11.33,11.33,0,0,1,1.45.9,22.37,22.37,0,0,1,1.9,1.75c.65.68,1.25,1.39,1.84,2.12.41.51.76,1.07,1.12,1.62s.66,1.09,1,1.61a15,15,0,0,1,1.5,2.72c.2.47.28,1,.44,1.49a4.93,4.93,0,0,0,.36.85A9.11,9.11,0,0,0,75,21.59a1.72,1.72,0,0,1,.26.77c.08.49.13,1,.2,1.48.16,1.06.29,2.12.5,3.17a16.39,16.39,0,0,1,.37,2.4.52.52,0,0,0,0,.21,4.15,4.15,0,0,1,.13,2,1.9,1.9,0,0,0,0,.41l.09.54c.14.82-.29,1.59-.19,2.41,0,.13,0,.3,0,.4a1.69,1.69,0,0,1,0,1.11c0,.09,0,.21-.07.24-.37.18-.31.49-.26.81,0,.08,0,.2,0,.24a.79.79,0,0,0-.22.81.24.24,0,0,1,0,.2c-.4.48-.3,1.1-.5,1.64a2.46,2.46,0,0,1-.2.47,1.21,1.21,0,0,0-.22.94.55.55,0,0,1-.24.54,1.61,1.61,0,0,0-.41.7,13.17,13.17,0,0,0-.65,2.56A2.68,2.68,0,0,1,72.92,47a1.59,1.59,0,0,0-.31.64,4.83,4.83,0,0,1-.42,1c-.25.47-.53.92-.8,1.38-.06.11-.08.23-.13.34a1.87,1.87,0,0,1-.24.38,1.84,1.84,0,0,0-.73,1.32c0,.2-.12.28-.34.3-.54,0-.54.06-.6.6-.55.2-.82.74-1.17,1.17a8.2,8.2,0,0,1-1.92,1.7c-.6.4-1.14.89-1.71,1.33a16.9,16.9,0,0,1-2.29,1.66,6.08,6.08,0,0,0-1.13.83c-.34.3-.82.44-1.07.86a.26.26,0,0,1-.13.08,6.19,6.19,0,0,0-1.43.72c-.26.14-.42.38-.64.51a9.58,9.58,0,0,1-1.49.68c-.93.37-1.89.69-2.81,1.08a4.06,4.06,0,0,0-1,.71.73.73,0,0,0-.07.79,2.49,2.49,0,0,0,.5,1,6.64,6.64,0,0,1,.66,1,6.24,6.24,0,0,0,.5.65c.15.19.34.35.48.55.42.56.82,1.15,1.24,1.72.15.21.35.38.5.59.26.37.49.76.74,1.13l.76,1.1c.21.3.39.61.6.9.31.45.65.89,1,1.35.14.21.25.45.38.68a11.3,11.3,0,0,0,1.42,2,5.37,5.37,0,0,1,.88,1.26,10.78,10.78,0,0,0,1,1.29c.32.43.63.86.94,1.3.67,1,1.33,1.93,2,2.88.39.55.85,1,1.24,1.59.65.92,1.26,1.87,1.9,2.79.43.61.9,1.18,1.33,1.79s.7,1.07,1,1.6l.39.55.48.68c.09.12.16.29.29.35.54.26.76.79,1.09,1.22a3.19,3.19,0,0,0,.33.4,8.42,8.42,0,0,1,1.39,2,4.11,4.11,0,0,0,.85,1.1,5,5,0,0,1,1.1,1.49.86.86,0,0,0,.13.23c.87.8,1.35,1.91,2.14,2.78a6,6,0,0,1,.93,1.43.56.56,0,0,0,.17.25c.59.42.81,1.12,1.25,1.65A1.92,1.92,0,0,1,82.31,106.9ZM58,19.24a.48.48,0,0,0-.16-.62c-.34-.28-.66-.56-1-.84s-.77-.86-1.38-1a.88.88,0,0,1-.17-.12,9.64,9.64,0,0,0-2.92-1.63c-.32-.12-.62-.3-.94-.43l-2.32-.88A5.85,5.85,0,0,0,48,13.43c-1-.17-2-.34-2.93-.45s-1.79-.12-2.69-.14-1.59,0-2.39,0a1.54,1.54,0,0,1-.3,0A20.93,20.93,0,0,0,37,12.6a2.35,2.35,0,0,0-.26,0H36c-.24,0-.48,0-.72,0l-2.08.08-.88,0-2.85.13h-.88c-.59,0-1.18,0-1.77,0-.28,0-.57.09-.86.12a2.56,2.56,0,0,1-.82.07,8.87,8.87,0,0,0-2.77.13,5.78,5.78,0,0,1-.93,0c-.48,0-1-.08-1.45-.08-.7,0-1.41.08-2.11.12a2.57,2.57,0,0,0-1.25.3c-.28.18-.49.39-.39.77a1.05,1.05,0,0,1,0,.3c-.05.45-.13.89-.15,1.34a25.15,25.15,0,0,0,.12,3.68c.13,1,.11,2.08.15,3.11a4.41,4.41,0,0,1,0,.52c-.05.52-.12,1-.16,1.55s-.07.86-.08,1.3c0,.6-.05,1.21,0,1.81s.16.93.14,1.39c-.07,1.47.06,2.94-.09,4.41-.13,1.23-.09,2.49-.11,3.74s0,2.56,0,3.84a3.23,3.23,0,0,0,0,.88,8.58,8.58,0,0,1,0,2.53,36.92,36.92,0,0,0,.13,4.46c.08.63.11,1.27.15,1.91a1,1,0,0,0,.9,1l.87.15c.68.12,1.35.27,2,.35s1.21.06,1.81.06a9.46,9.46,0,0,0,1.07-.12,2.25,2.25,0,0,1,.35-.09l2.39-.13c.65,0,1.31-.06,2-.14a5,5,0,0,1,1.5,0,4,4,0,0,0,.77.05,35.6,35.6,0,0,1,4.26-.1,5.21,5.21,0,0,0,.67-.06l.61-.08,1.6-.1c1.13-.07,2.25-.12,3.37-.21.7,0,1.41-.1,2.11-.22a19.06,19.06,0,0,1,3.7-.41,7.52,7.52,0,0,0,1.95-.21c.93-.23,1.83-.58,2.75-.87.09,0,.2,0,.3-.06l1-.37a4.83,4.83,0,0,1,.52-.23A5.76,5.76,0,0,0,55,48c.45-.4,1-.71,1.46-1.07a9.37,9.37,0,0,0,1.31-1c1.1-1.21,2.2-2.42,3.4-3.55a2.19,2.19,0,0,0,.25-.33c.24-.37.46-.77.72-1.13s.34-.4.23-.69a.22.22,0,0,1,0-.19c.16-.22.34-.42.5-.65a.88.88,0,0,0,.13-.33c0-.17.06-.34.1-.51.11-.43.25-.86.33-1.3s.35-.84.13-1.3c0,0,0-.13,0-.2a21.08,21.08,0,0,0,.09-2.63c-.12-1.45-.37-2.89-.55-4.33a2.84,2.84,0,0,1,0-.92,2.08,2.08,0,0,0-.13-1A26.83,26.83,0,0,1,62,23.64a.19.19,0,0,0,0-.1c-.33-.54-.65-1.09-1-1.62s-.64-.9-1-1.34a2.51,2.51,0,0,0-.36-.37c-.43-.39-1.06-.51-1.42-1C58.16,19.2,58.08,19.23,58,19.24Z"/><path class="cls-1" d="M74.27,45.68,74,45.2c.17,0,.3,0,.35,0S74.48,45.52,74.27,45.68Z"/><path class="cls-1" d="M74.2,46.33c-.24-.08-.45-.17-.21-.52Z"/><path class="cls-1" d="M77.57,33l-.07,0,0-.11s.06,0,.08,0S77.56,33,77.57,33Z"/><path class="cls-1" d="M58,19.24c.1,0,.18,0,.2,0,.36.48,1,.6,1.42,1a2.51,2.51,0,0,1,.36.37c.33.44.67.88,1,1.34s.67,1.08,1,1.62a.19.19,0,0,1,0,.1A26.83,26.83,0,0,0,63,26.93a2.08,2.08,0,0,1,.13,1,2.84,2.84,0,0,0,0,.92c.18,1.44.43,2.88.55,4.33a21.08,21.08,0,0,1-.09,2.63c0,.07-.06.15,0,.2.22.46,0,.88-.13,1.3s-.22.87-.33,1.3c0,.17-.06.34-.1.51a.88.88,0,0,1-.13.33c-.16.23-.34.43-.5.65a.22.22,0,0,0,0,.19c.11.29-.07.48-.23.69s-.48.76-.72,1.13a2.19,2.19,0,0,1-.25.33c-1.2,1.13-2.3,2.34-3.4,3.55a9.37,9.37,0,0,1-1.31,1c-.49.36-1,.67-1.46,1.07a5.76,5.76,0,0,1-2.3,1.13,4.83,4.83,0,0,0-.52.23l-1,.37c-.1,0-.21,0-.3.06-.92.29-1.82.64-2.75.87a7.52,7.52,0,0,1-1.95.21,19.06,19.06,0,0,0-3.7.41c-.7.12-1.41.17-2.11.22-1.12.09-2.24.14-3.37.21l-1.6.1-.61.08a5.21,5.21,0,0,1-.67.06,35.6,35.6,0,0,0-4.26.1,4,4,0,0,1-.77-.05,5,5,0,0,0-1.5,0c-.65.08-1.31.11-2,.14l-2.39.13a2.25,2.25,0,0,0-.35.09,9.46,9.46,0,0,1-1.07.12c-.6,0-1.21,0-1.81-.06s-1.36-.23-2-.35L17.12,52a1,1,0,0,1-.9-1c0-.64-.07-1.28-.15-1.91a36.92,36.92,0,0,1-.13-4.46,8.58,8.58,0,0,0,0-2.53,3.23,3.23,0,0,1,0-.88c0-1.28,0-2.56,0-3.84s0-2.51.11-3.74c.15-1.47,0-2.94.09-4.41,0-.46-.13-.93-.14-1.39s0-1.21,0-1.81c0-.44,0-.87.08-1.3s.11-1,.16-1.55a4.41,4.41,0,0,0,0-.52c0-1,0-2.08-.15-3.11A25.15,25.15,0,0,1,16,15.9c0-.45.1-.89.15-1.34a1.05,1.05,0,0,0,0-.3c-.1-.38.11-.59.39-.77a2.57,2.57,0,0,1,1.25-.3c.7,0,1.41-.1,2.11-.12.49,0,1,.06,1.45.08a5.78,5.78,0,0,0,.93,0A8.87,8.87,0,0,1,25.09,13a2.56,2.56,0,0,0,.82-.07c.29,0,.58-.11.86-.12.59,0,1.18,0,1.77,0h.88l2.85-.13.88,0,2.08-.08c.24,0,.48,0,.72,0h.77a2.35,2.35,0,0,1,.26,0,20.93,20.93,0,0,1,2.74.21,1.54,1.54,0,0,0,.3,0c.8,0,1.59,0,2.39,0s1.8.05,2.69.14,2,.28,2.93.45a5.85,5.85,0,0,1,1.08.33l2.32.88c.32.13.62.31.94.43a9.64,9.64,0,0,1,2.92,1.63.88.88,0,0,0,.17.12c.61.1.95.59,1.38,1s.64.56,1,.84A.48.48,0,0,1,58,19.24ZM17.71,44.37h0c0,.41,0,.83,0,1.24a21.48,21.48,0,0,0,.25,4.24.68.68,0,0,0,.61.65,10.76,10.76,0,0,0,2.83.29c1.39-.08,2.77-.16,4.15-.22,1.58-.06,3.15-.1,4.73-.14,1.16,0,2.31-.11,3.47-.1A37.61,37.61,0,0,0,39,50.11c1-.12,1.92-.1,2.88-.29.65-.13,1.33-.13,2-.21.49,0,1-.19,1.47-.2.3,0,.61-.07.92,0a1.48,1.48,0,0,0,1-.19c.08-.06.23,0,.35,0a2.11,2.11,0,0,0,.36,0l1.85-.47a1.46,1.46,0,0,0,.38-.17,1.52,1.52,0,0,1,1-.37c.09,0,.19-.07.29-.1a9.59,9.59,0,0,1,1.37-.46,1.92,1.92,0,0,0,1.39-.89c.1-.15.19-.38.34-.42.54-.17.84-.75,1.44-.79a.21.21,0,0,0,.16-.12c.38-.75,1.26-1.08,1.57-1.89,0,0,.07-.08.11-.12.32-.31.65-.61.95-1a11.33,11.33,0,0,0,1.34-1.61,19.31,19.31,0,0,0,1.25-2.49,5.49,5.49,0,0,0,.35-1.45c.08-.6.1-1.21.12-1.81a17.45,17.45,0,0,0-.19-3.68,19.23,19.23,0,0,1-.33-3.3,6.12,6.12,0,0,0-.47-2.38c-.33-.8-.64-1.6-1-2.4a2,2,0,0,0-.35-.63,24.32,24.32,0,0,0-2-2.2,13.82,13.82,0,0,0-2.38-2.07c-.06,0-.1-.1-.15-.14-.4-.27-.79-.55-1.19-.81s-.93-.6-1.4-.89a2.94,2.94,0,0,0-.51-.23c-.19-.07-.41-.09-.6-.17a16.75,16.75,0,0,0-4.26-1.28c-1.05-.15-2.1-.26-3.15-.35-.77-.07-1.55-.07-2.33-.1l-1.13,0-2-.06c-1,0-2.08-.1-3.12-.09-1.8,0-3.6.09-5.4.13-1.21,0-2.42,0-3.63,0-.66,0-1.32.13-2,.09a40.37,40.37,0,0,1-4.4,0,3.81,3.81,0,0,0-.82,0l-.52.06c-.86,0-.82.18-1,.91a.65.65,0,0,0,0,.2,23.87,23.87,0,0,0,.05,2.54,9.79,9.79,0,0,0,.23,2.42s0,.1,0,.15c0,.31,0,.62,0,.93l.06,2.39a1.57,1.57,0,0,1-.05.3A13.36,13.36,0,0,0,17.71,28c0,1,.13,2,.17,3,0,.56,0,1.14,0,1.7-.06,1.44-.17,2.87-.22,4.3,0,.92,0,1.84,0,2.75,0,.28,0,.55,0,.83s-.05.65-.05,1C17.67,42.46,17.69,43.41,17.71,44.37Zm44.74-6.28c-.11-.08-.17-.16-.23-.16s-.11.09-.17.14.09.12.14.12A.88.88,0,0,0,62.45,38.09Z"/><path class="cls-1" d="M62.45,38.09a.88.88,0,0,1-.26.1s-.09-.08-.14-.12.11-.14.17-.14S62.34,38,62.45,38.09Z"/></svg>