<svg id="S" xmlns="http://www.w3.org/2000/svg" viewBox="0 0 86 112"><defs><style>.cls-1{stroke:#000;stroke-miterlimit:10;}</style></defs><path class="cls-1" d="M60.66,108.64s-7.54,3.91-15.88,3.29l-1.52-.12a16.45,16.45,0,0,1-2.32-.25l-2.18-.21a10,10,0,0,1-1.08-.16c-.79-.17-1.57-.37-2.36-.56-.63-.15-1.28-.29-1.89-.49s-.94-.44-1.42-.65a5.43,5.43,0,0,0-.53-.17,4.29,4.29,0,0,1-.72-.22c-.88-.43-1.76-.88-2.63-1.33a2.68,2.68,0,0,1-.28-.18l-1.4-.82a5.55,5.55,0,0,1-.94-.56,6.5,6.5,0,0,0-1.59-.93,4,4,0,0,1-.52-.4l-1.68-1.26c-.4-.31-.78-.65-1.18-1a5.35,5.35,0,0,0-.9-.62,10.64,10.64,0,0,1-2.09-1.41c-.32-.26-.68-.47-1-.73s-.75-.67-1.13-1c-.13-.11-.28-.21-.41-.31s-.21-.13-.25-.22a2.79,2.79,0,0,0-.73-.8c-.32-.31-.6-.66-.92-1s-.66-.59-1-.89l-.84-.77c-.34-.32-.68-.62-1-1s-.55-.61-.83-.92L8.5,92l-.11-.09A8.19,8.19,0,0,0,7.2,90.84a2.51,2.51,0,0,1-.44-.61c0-.08,0-.19-.11-.26a1.56,1.56,0,0,1-.15-1.42,1,1,0,0,1,.25-.44c.51-.53,1-1,1.54-1.56.13-.13.24-.26.36-.39S8.73,86,8.8,86c.72-.33.87-1.18,1.47-1.62a1.25,1.25,0,0,0,.25-.34c.45-.67.9-1.34,1.34-2a9,9,0,0,1,1.4-1.43c.38-.38.74-.78,1.14-1.14s1-1,1.62-1.41A1.05,1.05,0,0,1,17.23,78a3.3,3.3,0,0,1,.48.31c.89.81,1.79,1.62,2.66,2.46.53.51,1,1.07,1.51,1.59.25.25.56.46.84.7l.39.34c.52.44,1.07.86,1.56,1.33a20.32,20.32,0,0,1,1.6,1.48,10.93,10.93,0,0,0,1.58,1.38c.92.68,1.86,1.34,2.81,2,.36.25.77.43,1.16.65.56.33,1.14.63,1.68,1a6,6,0,0,1,1,.9A4.35,4.35,0,0,0,36.1,93c.66.27,1.34.49,2,.77.51.23,1,.52,1.47.78a2.06,2.06,0,0,0,.48.21l1.8.45a2,2,0,0,0,.24,0c1.15,0,2.25.41,3.39.52a6,6,0,0,0,.85,0c.33,0,.67-.06,1-.06a8.76,8.76,0,0,0,3.73-.87,16.13,16.13,0,0,0,2.5-1.4,4.61,4.61,0,0,0,.73-.67c.37-.37.7-.79,1.1-1.12a11.1,11.1,0,0,0,2.39-2.94c.48-.84,1-1.64,1.5-2.49A11.55,11.55,0,0,0,60,84.62a4.28,4.28,0,0,0,.22-1.34,13.6,13.6,0,0,1,.11-1.41,4.85,4.85,0,0,0-.41-2.13c0-.09-.14-.16-.22-.23a2.08,2.08,0,0,1-.36-.29c-.53-.7-1-1.42-1.58-2.09a5.56,5.56,0,0,0-1-.85c-.49-.38-1-.73-1.51-1.08a15.87,15.87,0,0,0-1.42-.87c-.47-.25-1-.45-1.47-.66-.11,0-.24-.06-.31-.13a11.32,11.32,0,0,0-2.15-1.21,17.87,17.87,0,0,0-1.91-1c-.27-.13-.54-.28-.8-.43L46,70.26l-1-.6a1.2,1.2,0,0,0-.24-.15,19.66,19.66,0,0,1-2.47-1.34c-.85-.42-1.68-.9-2.52-1.34l0,0c-.68-.66-1.68-.82-2.37-1.47a4.94,4.94,0,0,0-.76-.49c-.52-.34-1-.68-1.57-1s-1.38-.79-2.07-1.17c-.24-.13-.49-.24-.73-.36l-1.8-.86a20.64,20.64,0,0,1-4.06-2.31,16.13,16.13,0,0,0-1.82-1c-.63-.37-1.24-.76-1.87-1.14l-.82-.49c-.56-.32-1.12-.65-1.7-1s-.9-.41-1.35-.6a1.53,1.53,0,0,1-.81-.56.76.76,0,0,0-.24-.23A23.2,23.2,0,0,0,15,52.4a7.22,7.22,0,0,1-2.12-1.67c-.49-.54-1.06-1-1.53-1.56a3.56,3.56,0,0,1-1-1.27.31.31,0,0,0-.06-.13,4.11,4.11,0,0,1-.91-1.27,1.14,1.14,0,0,0-.26-.28,2.21,2.21,0,0,1-.68-.83,2.58,2.58,0,0,0-.54-.61,1.24,1.24,0,0,1-.36-.65,6.31,6.31,0,0,0-.74-1.9A4.15,4.15,0,0,1,6.49,41a1.76,1.76,0,0,0-.21-.66,4.64,4.64,0,0,1-.54-2,5.73,5.73,0,0,0-.16-.69c0-.15-.08-.3-.12-.45a10.62,10.62,0,0,0-.31-1.14,4.8,4.8,0,0,1-.33-2.19,14.11,14.11,0,0,0,.1-2.76A10.24,10.24,0,0,1,5,29.59a11.63,11.63,0,0,1,1-3.81c.26-.69.52-1.37.79-2.05s.56-1.45.88-2.16c.17-.39.43-.74.62-1.12.3-.58.57-1.17.85-1.76a5.24,5.24,0,0,1,1-1.57,3.1,3.1,0,0,0,.27-.34c.59-.78,1.18-1.57,1.78-2.35.39-.52.77-1,1.19-1.55.83-1,1.67-1.92,2.53-2.85.42-.46.91-.84,1.35-1.28.28-.29.52-.64.78-1s.32-.35.49-.52A9.12,9.12,0,0,1,21,5.55a.67.67,0,0,0,.19-.14,3.85,3.85,0,0,1,1.47-.87c.44-.18.86-.4,1.29-.6s1.07-.5,1.61-.73A22.52,22.52,0,0,1,28.3,2.07c.7-.19,1.4-.41,2.1-.62h0a7.64,7.64,0,0,1,2.2-.6.39.39,0,0,1,.18,0A3.66,3.66,0,0,0,34.17.56,3,3,0,0,1,35.53.41,1.56,1.56,0,0,0,36,.35c.63-.1,1.25-.24,1.88-.3s1.27,0,1.9,0A.57.57,0,0,0,40,0,8.47,8.47,0,0,1,42.1-.21a5.27,5.27,0,0,1,1,.08l1.51.2c.51.06,1,.09,1.52.14l.52.06A11.82,11.82,0,0,0,48,.41,4.11,4.11,0,0,1,49.52.8c.18.07.37.12.54.18.56.2,1.1.41,1.66.6.36.12.73.2,1.09.32a8.19,8.19,0,0,1,1.89.78,4.28,4.28,0,0,0,1,.33,3.33,3.33,0,0,1,.64.16c.94.53,1.88,1.07,2.81,1.62a3,3,0,0,1,.51.36,2.07,2.07,0,0,0,.91.49,1.49,1.49,0,0,1,.39.17c.7.34,1.41.66,2.09,1,.51.28,1,.63,1.48,1l.3.23c.93.66,1.87,1.32,2.79,2,.45.32.88.68,1.33,1a8.18,8.18,0,0,0,.79.51,11.7,11.7,0,0,1,4,3.56,7.5,7.5,0,0,0,.54.6c.27.33.54.67.78,1a.64.64,0,0,1,0,.8,2.51,2.51,0,0,0-.32.52,1.43,1.43,0,0,1-.59.67c-.55.37-1.09.77-1.66,1.1a7.3,7.3,0,0,0-1.2,1l-1,.86a.76.76,0,0,0-.2.2,2.11,2.11,0,0,1-.84.81,10.37,10.37,0,0,0-1.43,1.38c-.11.12-.24.21-.35.32l-.73.75c-.19.19-.39.37-.59.54s-.54.44-.8.67-.75.24-1.11.38c-.06,0-.19-.06-.24-.13a8.55,8.55,0,0,1-1-1.17,2,2,0,0,0-.73-.66c-.74-.48-1.51-.94-2.26-1.41-.1-.06-.18-.14-.28-.19a10.41,10.41,0,0,1-2-1.28c-.62-.44-1.17-1-1.79-1.42s-1.33-.86-2-1.26-1.54-.88-2.32-1.3a7,7,0,0,0-.78-.38c-.66-.27-1.33-.52-2-.78a4.22,4.22,0,0,0-1.12-.24c-1-.09-1.95-.25-2.92-.39l-.52-.07-.85-.13-.66,0c-.55,0-1.11-.09-1.66-.08-.84,0-1.69,0-2.53.07-.22,0-.44.09-.66.09A5.23,5.23,0,0,0,35,17a.54.54,0,0,1-.16.1l-2.57,1a7.09,7.09,0,0,0-2.07,1.05c-.6.5-1.24.95-1.81,1.47s-1,1-1.46,1.5-1,.94-1.48,1.42l-1.19,1.17a.39.39,0,0,0-.1.16,9.39,9.39,0,0,1-1,1.79c-.4.85-.77,1.71-1.13,2.57a1.25,1.25,0,0,0-.09.51,13.43,13.43,0,0,0,.18,2.9,1,1,0,0,1,0,.38,5.47,5.47,0,0,0,0,2.17c.08.31.13.63.2.94a1.14,1.14,0,0,0,.49.79.75.75,0,0,1,.35.81.75.75,0,0,0,.49,1,2.71,2.71,0,0,1,.95.83,5.57,5.57,0,0,0,1,.84c.1.08.24.12.31.22.5.7,1.33,1,2,1.45.92.69,2,1.17,2.88,1.85a9.29,9.29,0,0,0,2.6,1.38.91.91,0,0,1,.3.14,7.26,7.26,0,0,0,1.94.89c.4.14.77.37,1.16.55s.53.22.78.35a20.87,20.87,0,0,1,2.56,1.46,4.48,4.48,0,0,0,.72.38l.91.41c.94.43,1.75,1.08,2.72,1.46.74.29,1.45.65,2.16,1s1.1.62,1.65.94L50.29,54a2.8,2.8,0,0,1,.41.25,18,18,0,0,0,2.85,1.72c.46.28.92.56,1.39.83a7.5,7.5,0,0,0,2.37,1,1.67,1.67,0,0,1,.51.23c.42.23.84.46,1.25.71.2.12.38.27.58.4.49.32,1,.66,1.48.95s1.3.65,1.94,1a13.14,13.14,0,0,1,1.11.72,3.73,3.73,0,0,0,1.37.84.64.64,0,0,1,.31.21,6.06,6.06,0,0,0,1.51,1c.08,0,.18.08.23.15a6.93,6.93,0,0,0,1.29,1.19c.24.2.41.49.64.7.43.42.9.8,1.33,1.22a6.88,6.88,0,0,1,1.73,2.13,9.16,9.16,0,0,0,.5.92l.5.91c.11.2.24.38.36.57.26.4.53.79.76,1.2A16.76,16.76,0,0,1,75.62,75,5.58,5.58,0,0,1,76,76.22c.07.45.21.89.32,1.34a2.68,2.68,0,0,1,.08,1,9.75,9.75,0,0,0,0,1.62,6.64,6.64,0,0,1,0,2.59,3.63,3.63,0,0,0,0,1.09s0,.06,0,.09a6.48,6.48,0,0,1-.33,1.9,1.38,1.38,0,0,0-.15.4c-.16.87-.31,1.74-.48,2.61-.06.3-.16.59-.24.88a3.41,3.41,0,0,0-.14.55,4.27,4.27,0,0,1-.43,1.45,1.48,1.48,0,0,0-.1.27c-.18.77-.34,1.55-.55,2.31a8.7,8.7,0,0,1-.5,1.18c-.15.35-.32.69-.49,1l-.18.34c-.41.66-1.38,2.26-1.63,2.63A32.9,32.9,0,0,1,60.66,108.64ZM25.11,5a3.48,3.48,0,0,1-.5.44c-.61.35-1.23.67-1.84,1l-.33.2c-.5.32-1,.68-1.51,1a3.88,3.88,0,0,0-1,.79,1.28,1.28,0,0,1-.5.43A3.29,3.29,0,0,0,18.07,10a1.43,1.43,0,0,1-.32.28A7.42,7.42,0,0,0,16,12a5.39,5.39,0,0,1-.47.6,15.35,15.35,0,0,0-1.7,2.22,1.7,1.7,0,0,1-.17.23c-.34.4-.69.79-1,1.21a5.53,5.53,0,0,1-.79.89,3.54,3.54,0,0,0-.55.71c-.13.18-.21.39-.33.58a4.09,4.09,0,0,0-.6,1.54,1.27,1.27,0,0,1-.34.67,1.58,1.58,0,0,0-.56,1.11.92.92,0,0,1-.1.32L8.7,23.65a1.26,1.26,0,0,0-.15.45c0,.58-.42,1-.56,1.56-.08.32-.21.62-.32.93s-.18.54-.3.8a5.53,5.53,0,0,0-.59,1.9c-.06.61-.07,1.23-.09,1.85,0,.27,0,.54.06.81a1.48,1.48,0,0,1,0,.42,9.4,9.4,0,0,0,0,2.9,7.48,7.48,0,0,0,.36,1.37,2.89,2.89,0,0,1,.19.68,11.06,11.06,0,0,0,.49,2.42,9.15,9.15,0,0,0,1.5,2.95.76.76,0,0,1,.16.29,2.16,2.16,0,0,0,.44.93,30.64,30.64,0,0,0,2.64,3.56c.34.4.73.76,1.06,1.16a7.13,7.13,0,0,0,2.38,2,12.14,12.14,0,0,1,2.36,1.51,1.08,1.08,0,0,0,.73.27c.59,0,.69.05.88.59a1.57,1.57,0,0,0,.72.86c.59.37,1.19.74,1.8,1.07s1.15.54,1.71.84,1.16.66,1.73,1l3.3,1.92c.36.2.72.41,1.09.59.65.32,1.32.62,2,.95.31.15.6.35.91.51.52.27,1.07.5,1.57.8,1,.56,1.9,1.16,2.85,1.74l.79.43c.65.37,1.3.74,1.95,1.09.34.18.71.29,1,.48,1.15.67,2.29,1.36,3.48,2,1.5.77,2.93,1.67,4.41,2.47,1.08.6,2.2,1.13,3.31,1.69.39.21.78.43,1.17.63a22.4,22.4,0,0,1,2.89,1.57c.33.22.64.47,1,.69a6.14,6.14,0,0,1,.62.34,5.09,5.09,0,0,1,1.25,1.52,2.88,2.88,0,0,0,.93,1,1.55,1.55,0,0,1,.51.54,4.91,4.91,0,0,1,.83,1.9.68.68,0,0,0,.09.22,4.37,4.37,0,0,1,.48,2c0,.84,0,1.68-.07,2.52a1.21,1.21,0,0,1-.15.44,9.87,9.87,0,0,0-.57,1.3,7.93,7.93,0,0,1-.92,1.87,15,15,0,0,0-.93,1.59,12.83,12.83,0,0,1-1.18,1.87A10.31,10.31,0,0,1,57,92.87c-.35.34-.73.66-1.09,1s-.55.57-.86.82a15,15,0,0,1-1.45,1.07,13.08,13.08,0,0,1-2.46,1.14,13.21,13.21,0,0,1-1.83.54,20.07,20.07,0,0,1-4.51.32,3.38,3.38,0,0,1-.71-.1c-.4-.09-.79-.23-1.2-.29a4.9,4.9,0,0,1-2-.39.58.58,0,0,0-.14,0c-.65-.19-1.33-.33-2-.58a8.33,8.33,0,0,1-1.88-.9,1.66,1.66,0,0,0-.43-.19l-1.2-.47a7.38,7.38,0,0,1-2.59-1.75,2.1,2.1,0,0,0-.46-.32l-1.83-1c-.33-.19-.67-.37-1-.59A8.79,8.79,0,0,1,28,90.18a5.53,5.53,0,0,0-1.29-1A7.51,7.51,0,0,1,25.07,88c-.36-.36-.71-.73-1.09-1.06-.67-.57-1.33-1.13-2-1.66a8.12,8.12,0,0,1-1.8-1.76,6.16,6.16,0,0,0-.74-.8c-.34-.33-.72-.63-1-1a4.21,4.21,0,0,0-.95-.79,2.18,2.18,0,0,1-.47-.38c-.3-.35-.38-.37-.73,0-.58.54-1.15,1.09-1.72,1.65q-.42.42-.81.87c-.34.4-.66.82-1,1.22s-.62.73-.92,1.1-.45.65-.7,1A18.34,18.34,0,0,1,9,88.71c-.28.25-.25.43,0,.68s.41.41.59.62c.45.5.88,1,1.32,1.51s.83.92,1.27,1.36c.25.24.59.4.82.65.62.68,1.38,1.21,2,1.89a16.62,16.62,0,0,0,2.37,2.22,7.68,7.68,0,0,1,.63.5,16.4,16.4,0,0,0,3.22,2.45,26.32,26.32,0,0,1,2.95,2.1c.43.32.82.7,1.28,1,.72.46,1.47.88,2.22,1.29,1.11.61,2.23,1.22,3.36,1.79a16.25,16.25,0,0,0,2,.87c.88.31,1.78.57,2.68.82a13.15,13.15,0,0,0,2.47.55c.54,0,1.08.09,1.61.18a10.93,10.93,0,0,0,2.55.32,3.7,3.7,0,0,1,.57.07,4,4,0,0,0,1.46.05,3.14,3.14,0,0,1,.81,0,1.91,1.91,0,0,0,.47,0c.52-.1,1,.09,1.56,0,.26-.06.56,0,.84-.1a1.24,1.24,0,0,1,.84.1,1.87,1.87,0,0,0,.4.13.31.31,0,0,0,.37-.21.53.53,0,0,1,.81-.29l.32.17.44-.37c.35.27.35.27.75.18l.28,0a4.19,4.19,0,0,0,1.51-.41,3,3,0,0,1,.58-.17,6.21,6.21,0,0,0,1.75-.47c.21-.1.37-.22.32-.49-.2-.1-.31,0-.45.1s-.39.27-.59.39-.36.09-.46-.19a1.7,1.7,0,0,0,.87-.55,1.05,1.05,0,0,1,.51-.2,2.33,2.33,0,0,0,.55-.12,1.4,1.4,0,0,1,1-.12.54.54,0,0,0,.66-.24.5.5,0,0,1,.69-.2.94.94,0,0,0,1.07-.32,1.71,1.71,0,0,1,1-.68,3.29,3.29,0,0,0,1.06-.71,3.7,3.7,0,0,1,.71-.54,3.86,3.86,0,0,0,1.23-1,12.9,12.9,0,0,1,2.45-2.39A15.35,15.35,0,0,0,68.84,99a1.83,1.83,0,0,1,.35-.33,2.45,2.45,0,0,0,.87-1.16,2.49,2.49,0,0,1,.25-.52c.24-.35.52-.67.74-1a8.28,8.28,0,0,0,.78-1.47c.36-1,.65-1.95,1-2.94.22-.71.41-1.43.65-2.13A7.17,7.17,0,0,0,74,87a3.15,3.15,0,0,1,.09-.42,8.94,8.94,0,0,0,.29-1.83,2.76,2.76,0,0,1,.14-1.39c.11-.24,0-.57,0-.85A6.57,6.57,0,0,0,74.42,80c-.1-.42-.11-.86-.24-1.27-.2-.63-.47-1.24-.71-1.86-.1-.27-.18-.55-.28-.81a8.78,8.78,0,0,0-.33-.85c-.22-.51-.49-1-.68-1.52a32.43,32.43,0,0,0-1.73-4,8.68,8.68,0,0,0-2-2.57c-.43-.38-.86-.75-1.27-1.16A7.79,7.79,0,0,0,66,65c-1.26-.86-2.55-1.66-3.87-2.43-.83-.49-1.65-1-2.47-1.53l-2.26-1.33c-.36-.21-.73-.4-1.09-.59l-.69-.31A16.31,16.31,0,0,1,54,58.1c-.74-.45-1.48-.92-2.25-1.34-1.53-.81-3-1.71-4.54-2.53-1-.54-2-1.15-3-1.71-1.18-.65-2.41-1.21-3.63-1.81-.28-.14-.57-.27-.85-.42-.59-.32-1.15-.69-1.75-1-.83-.39-1.69-.73-2.53-1.1a2.7,2.7,0,0,1-.5-.27,7.63,7.63,0,0,0-1.34-.82c-.58-.25-1.14-.54-1.72-.82a24.81,24.81,0,0,1-4.19-2.6c-.35-.27-.76-.46-1.13-.7s-.53-.34-.8-.52a4.72,4.72,0,0,0-.55-.36,2.24,2.24,0,0,1-.89-.78A4.31,4.31,0,0,0,23,40.09a4.65,4.65,0,0,1-.72-.61c-.36-.34-.67-.72-1-1a.87.87,0,0,1-.35-.74,1.48,1.48,0,0,0-.17-.82,1.93,1.93,0,0,1-.26-1.29.32.32,0,0,0,0-.23c-.35-.7,0-1.51-.3-2.22,0-.07,0-.16,0-.24l0-1.33c0-.62,0-1.24,0-1.86s.49-1.15.66-1.76.37-.9.53-1.36a5.69,5.69,0,0,1,1.08-2,1.79,1.79,0,0,0,.19-.42c.06-.14.09-.33.2-.41A6.85,6.85,0,0,1,23.83,23a1.5,1.5,0,0,0,.65-.57,12.61,12.61,0,0,1,1-1.2c.19-.21.4-.41.59-.62a6.8,6.8,0,0,1,1.68-1.53A3.68,3.68,0,0,0,29,18.26s.08-.05.12-.08c.61-.39,1.3-.64,1.91-1.05a12.53,12.53,0,0,1,2.44-1,4.56,4.56,0,0,0,1.77-.89,1.07,1.07,0,0,1,.53-.31c.68-.16,1.37-.29,2.06-.41a6.69,6.69,0,0,1,.9-.07c.9-.05,1.81-.13,2.71-.11.73,0,1.46.15,2.18.23l.57,0,.57,0c.68.08,1.36.14,2,.24.46.07.9.18,1.35.28.26,0,.52.14.78.18a3.29,3.29,0,0,1,1.33.35,3.31,3.31,0,0,0,.67.24,6.71,6.71,0,0,1,.78.32,8.38,8.38,0,0,1,1.66.92l.05,0c.76.39,1.53.77,2.29,1.17a1.65,1.65,0,0,1,.27.19c.23.17.45.35.69.51.64.45,1.31.85,1.91,1.34a11.15,11.15,0,0,0,1.69,1.22,26.09,26.09,0,0,1,3.55,2.32c.7.54.91.45,1.53-.07l.11-.1c.67-.59,1.34-1.17,2-1.77s1.5-1.38,2.24-2.07a2.82,2.82,0,0,1,1-.76A.7.7,0,0,0,71,19a8.1,8.1,0,0,1,1.32-1c.21-.14.43-.27.64-.42s.35-.47,0-.69a6.89,6.89,0,0,1-1.43-1.71,10.2,10.2,0,0,0-1.92-1.68c-.71-.53-1.46-1-2.19-1.52-.4-.28-.77-.6-1.17-.88s-.77-.52-1.16-.76-.58-.32-.87-.48a1.23,1.23,0,0,1-.35-.22,3.91,3.91,0,0,0-1.57-1.13c-.58-.26-1.15-.54-1.72-.83a30.94,30.94,0,0,1-3.28-1.84,6.27,6.27,0,0,0-1.58-.88c-.58-.17-1.15-.38-1.71-.59-1.21-.44-2.4-.9-3.61-1.35-.16-.06-.33-.09-.5-.14a4,4,0,0,1-.46-.14c-.38-.15-.75-.35-1.14-.47A4.22,4.22,0,0,0,46.59,2a4.12,4.12,0,0,1-1.05,0c-1.18-.14-2.35-.31-3.53-.46-.54-.07-1.08-.11-1.62-.14a1.81,1.81,0,0,0-.51.08,11.07,11.07,0,0,1-1.49.26A11.74,11.74,0,0,0,35.32,2a3.57,3.57,0,0,1-.47,0q-.48.09-1,.21c-.26.06-.51.17-.77.22-.7.16-1.41.25-2.09.46a20.53,20.53,0,0,1-2.86.88,1.75,1.75,0,0,0-.51.22,3.94,3.94,0,0,1-.73.32,2.56,2.56,0,0,0-.74.28C25.84,4.87,25.52,5.2,25.11,5ZM56.88,107.44l0,.13c.1.11.2.13.37-.08Zm13.8-6.7c-.06-.06-.09-.13-.13-.14s-.09.05-.14.08a.86.86,0,0,0,.1.16S70.6,100.79,70.68,100.74Z"/><path class="cls-1" d="M25.11,5c.41.17.73-.16,1.08-.36a2.56,2.56,0,0,1,.74-.28,3.94,3.94,0,0,0,.73-.32,1.75,1.75,0,0,1,.51-.22A20.53,20.53,0,0,0,31,3c.68-.21,1.39-.3,2.09-.46.26,0,.51-.16.77-.22s.64-.15,1-.21a3.57,3.57,0,0,0,.47,0,11.74,11.74,0,0,1,3.07-.38,11.07,11.07,0,0,0,1.49-.26,1.81,1.81,0,0,1,.51-.08c.54,0,1.08.07,1.62.14,1.18.15,2.35.32,3.53.46a4.12,4.12,0,0,0,1.05,0,4.22,4.22,0,0,1,1.73.27c.39.12.76.32,1.14.47a4,4,0,0,0,.46.14c.17,0,.34.08.5.14,1.21.45,2.4.91,3.61,1.35.56.21,1.13.42,1.71.59a6.27,6.27,0,0,1,1.58.88A30.94,30.94,0,0,0,60.6,7.63c.57.29,1.14.57,1.72.83a3.91,3.91,0,0,1,1.57,1.13,1.23,1.23,0,0,0,.35.22c.29.16.59.31.87.48s.78.49,1.16.76.77.6,1.17.88c.73.51,1.48,1,2.19,1.52a10.2,10.2,0,0,1,1.92,1.68A6.89,6.89,0,0,0,73,16.84c.32.22.28.46,0,.69s-.43.28-.64.42A8.1,8.1,0,0,0,71,19a.7.7,0,0,1-.28.19,2.82,2.82,0,0,0-1,.76C69,20.6,68.21,21.3,67.45,22s-1.32,1.18-2,1.77l-.11.1c-.62.52-.83.61-1.53.07a26.09,26.09,0,0,0-3.55-2.32,11.15,11.15,0,0,1-1.69-1.22c-.6-.49-1.27-.89-1.91-1.34-.24-.16-.46-.34-.69-.51a1.65,1.65,0,0,0-.27-.19c-.76-.4-1.53-.78-2.29-1.17l-.05,0a8.38,8.38,0,0,0-1.66-.92,6.71,6.71,0,0,0-.78-.32,3.31,3.31,0,0,1-.67-.24,3.29,3.29,0,0,0-1.33-.35c-.26,0-.52-.13-.78-.18-.45-.1-.89-.21-1.35-.28-.67-.1-1.35-.16-2-.24l-.57,0-.57,0c-.72-.08-1.45-.21-2.18-.23-.9,0-1.81.06-2.71.11a6.69,6.69,0,0,0-.9.07c-.69.12-1.38.25-2.06.41a1.07,1.07,0,0,0-.53.31,4.56,4.56,0,0,1-1.77.89,12.53,12.53,0,0,0-2.44,1c-.61.41-1.3.66-1.91,1.05,0,0-.09,0-.12.08a3.68,3.68,0,0,1-1.27.81,6.8,6.8,0,0,0-1.68,1.53c-.19.21-.4.41-.59.62a12.61,12.61,0,0,0-1,1.2,1.5,1.5,0,0,1-.65.57,6.85,6.85,0,0,0-1.07.71c-.11.08-.14.27-.2.41a1.79,1.79,0,0,1-.19.42,5.69,5.69,0,0,0-1.08,2c-.16.46-.39.9-.53,1.36S20.08,29,20.1,29.7s0,1.24,0,1.86l0,1.33c0,.08,0,.17,0,.24.3.71-.05,1.52.3,2.22a.32.32,0,0,1,0,.23,1.93,1.93,0,0,0,.26,1.29,1.48,1.48,0,0,1,.17.82.87.87,0,0,0,.35.74c.37.33.68.71,1,1a4.65,4.65,0,0,0,.72.61,4.31,4.31,0,0,1,1.3,1.25,2.24,2.24,0,0,0,.89.78,4.72,4.72,0,0,1,.55.36c.27.18.53.36.8.52s.78.43,1.13.7a24.81,24.81,0,0,0,4.19,2.6c.58.28,1.14.57,1.72.82a7.63,7.63,0,0,1,1.34.82,2.7,2.7,0,0,0,.5.27c.84.37,1.7.71,2.53,1.1.6.29,1.16.66,1.75,1,.28.15.57.28.85.42,1.22.6,2.45,1.16,3.63,1.81,1,.56,2,1.17,3,1.71,1.53.82,3,1.72,4.54,2.53.77.42,1.51.89,2.25,1.34a16.31,16.31,0,0,0,1.66.72l.69.31c.36.19.73.38,1.09.59l2.26,1.33c.82.51,1.64,1,2.47,1.53,1.32.77,2.61,1.57,3.87,2.43a7.79,7.79,0,0,1,1.15,1c.41.41.84.78,1.27,1.16a8.68,8.68,0,0,1,2,2.57,32.43,32.43,0,0,1,1.73,4c.19.52.46,1,.68,1.52a8.78,8.78,0,0,1,.33.85c.1.26.18.54.28.81.24.62.51,1.23.71,1.86.13.41.14.85.24,1.27a6.57,6.57,0,0,1,.11,2.46c0,.28.07.61,0,.85a2.76,2.76,0,0,0-.14,1.39,8.94,8.94,0,0,1-.29,1.83A3.15,3.15,0,0,0,74,87a7.17,7.17,0,0,1-.52,2.46c-.24.7-.43,1.42-.65,2.13-.32,1-.61,2-1,2.94A8.28,8.28,0,0,1,71.05,96c-.22.37-.5.69-.74,1a2.49,2.49,0,0,0-.25.52,2.45,2.45,0,0,1-.87,1.16,1.83,1.83,0,0,0-.35.33,15.35,15.35,0,0,1-2.18,1.85,12.9,12.9,0,0,0-2.45,2.39,3.86,3.86,0,0,1-1.23,1,3.7,3.7,0,0,0-.71.54,3.29,3.29,0,0,1-1.06.71,1.71,1.71,0,0,0-1,.68.94.94,0,0,1-1.07.32.5.5,0,0,0-.69.2.54.54,0,0,1-.66.24,1.4,1.4,0,0,0-1,.12,2.33,2.33,0,0,1-.55.12,1.05,1.05,0,0,0-.51.2,1.7,1.7,0,0,1-.87.55c.1.28.27.29.46.19s.4-.26.59-.39.25-.2.45-.1c0,.27-.11.39-.32.49a6.21,6.21,0,0,1-1.75.47,3,3,0,0,0-.58.17,4.19,4.19,0,0,1-1.51.41l-.28,0c-.4.09-.4.09-.75-.18l-.44.37-.32-.17a.53.53,0,0,0-.81.29.31.31,0,0,1-.37.21,1.87,1.87,0,0,1-.4-.13,1.24,1.24,0,0,0-.84-.1c-.28.09-.58,0-.84.1-.53.12-1-.07-1.56,0a1.91,1.91,0,0,1-.47,0,3.14,3.14,0,0,0-.81,0,4,4,0,0,1-1.46-.05,3.7,3.7,0,0,0-.57-.07,10.93,10.93,0,0,1-2.55-.32c-.53-.09-1.07-.13-1.61-.18a13.15,13.15,0,0,1-2.47-.55c-.9-.25-1.8-.51-2.68-.82a16.25,16.25,0,0,1-2-.87c-1.13-.57-2.25-1.18-3.36-1.79-.75-.41-1.5-.83-2.22-1.29-.46-.29-.85-.67-1.28-1a26.32,26.32,0,0,0-2.95-2.1A16.4,16.4,0,0,1,18,98.14a7.68,7.68,0,0,0-.63-.5A16.62,16.62,0,0,1,15,95.42c-.62-.68-1.38-1.21-2-1.89-.23-.25-.57-.41-.82-.65-.44-.44-.85-.9-1.27-1.36s-.87-1-1.32-1.51c-.18-.21-.39-.42-.59-.62s-.29-.43,0-.68a18.34,18.34,0,0,0,2.09-2.4c.25-.32.46-.66.7-1s.61-.73.92-1.1.65-.82,1-1.22.53-.59.81-.87c.57-.56,1.14-1.11,1.72-1.65.35-.32.43-.3.73,0a2.18,2.18,0,0,0,.47.38,4.21,4.21,0,0,1,.95.79c.31.35.69.65,1,1a6.16,6.16,0,0,1,.74.8A8.12,8.12,0,0,0,22,85.26c.7.53,1.36,1.09,2,1.66.38.33.73.7,1.09,1.06a7.51,7.51,0,0,0,1.63,1.23,5.53,5.53,0,0,1,1.29,1,8.79,8.79,0,0,0,1.42.95c.31.22.65.4,1,.59l1.83,1a2.1,2.1,0,0,1,.46.32,7.38,7.38,0,0,0,2.59,1.75l1.2.47a1.66,1.66,0,0,1,.43.19,8.33,8.33,0,0,0,1.88.9c.63.25,1.31.39,2,.58a.58.58,0,0,1,.14,0,4.9,4.9,0,0,0,2,.39c.41.06.8.2,1.2.29a3.38,3.38,0,0,0,.71.1,20.07,20.07,0,0,0,4.51-.32,13.21,13.21,0,0,0,1.83-.54,13.08,13.08,0,0,0,2.46-1.14,15,15,0,0,0,1.45-1.07c.31-.25.57-.55.86-.82s.74-.66,1.09-1a10.31,10.31,0,0,0,1.44-1.52,12.83,12.83,0,0,0,1.18-1.87,15,15,0,0,1,.93-1.59A7.93,7.93,0,0,0,61.49,86a9.87,9.87,0,0,1,.57-1.3,1.21,1.21,0,0,0,.15-.44c0-.84.06-1.68.07-2.52a4.37,4.37,0,0,0-.48-2,.68.68,0,0,1-.09-.22,4.91,4.91,0,0,0-.83-1.9,1.55,1.55,0,0,0-.51-.54,2.88,2.88,0,0,1-.93-1,5.09,5.09,0,0,0-1.25-1.52,6.14,6.14,0,0,0-.62-.34c-.33-.22-.64-.47-1-.69A22.4,22.4,0,0,0,53.71,72c-.39-.2-.78-.42-1.17-.63-1.11-.56-2.23-1.09-3.31-1.69-1.48-.8-2.91-1.7-4.41-2.47-1.19-.62-2.33-1.31-3.48-2-.33-.19-.7-.3-1-.48-.65-.35-1.3-.72-1.95-1.09l-.79-.43c-1-.58-1.89-1.18-2.85-1.74-.5-.3-1.05-.53-1.57-.8-.31-.16-.6-.36-.91-.51-.66-.33-1.33-.63-2-.95-.37-.18-.73-.39-1.09-.59l-3.3-1.92c-.57-.34-1.14-.69-1.73-1s-1.15-.54-1.71-.84-1.21-.7-1.8-1.07A1.57,1.57,0,0,1,19.9,53c-.19-.54-.29-.6-.88-.59a1.08,1.08,0,0,1-.73-.27,12.14,12.14,0,0,0-2.36-1.51,7.13,7.13,0,0,1-2.38-2c-.33-.4-.72-.76-1.06-1.16a30.64,30.64,0,0,1-2.64-3.56A2.16,2.16,0,0,1,9.41,43a.76.76,0,0,0-.16-.29,9.15,9.15,0,0,1-1.5-2.95,11.06,11.06,0,0,1-.49-2.42,2.89,2.89,0,0,0-.19-.68,7.48,7.48,0,0,1-.36-1.37,9.4,9.4,0,0,1,0-2.9,1.48,1.48,0,0,0,0-.42c0-.27-.06-.54-.06-.81,0-.62,0-1.24.09-1.85a5.53,5.53,0,0,1,.59-1.9c.12-.26.2-.53.3-.8s.24-.61.32-.93c.14-.54.53-1,.56-1.56a1.26,1.26,0,0,1,.15-.45l.72-1.56a.92.92,0,0,0,.1-.32,1.58,1.58,0,0,1,.56-1.11,1.27,1.27,0,0,0,.34-.67,4.09,4.09,0,0,1,.6-1.54c.12-.19.2-.4.33-.58a3.54,3.54,0,0,1,.55-.71,5.53,5.53,0,0,0,.79-.89c.3-.42.65-.81,1-1.21a1.7,1.7,0,0,0,.17-.23,15.35,15.35,0,0,1,1.7-2.22A5.39,5.39,0,0,0,16,12a7.42,7.42,0,0,1,1.73-1.76,1.43,1.43,0,0,0,.32-.28,3.29,3.29,0,0,1,1.35-1.1,1.28,1.28,0,0,0,.5-.43,3.88,3.88,0,0,1,1-.79c.52-.29,1-.65,1.51-1l.33-.2c.61-.34,1.23-.66,1.84-1A3.48,3.48,0,0,0,25.11,5Z"/></svg>