<svg id="T" xmlns="http://www.w3.org/2000/svg" viewBox="0 0 86 112"><defs><style>.cls-1{stroke:#000;stroke-miterlimit:10;}</style></defs><path class="cls-1" d="M3,10.23l-.32-.12c-.16-.09-.26-.22-.19-.39a1.69,1.69,0,0,0,0-1,9.67,9.67,0,0,1,0-1.94c0-.24-.15-.51.12-.71,0,0,0-.13,0-.18a1.34,1.34,0,0,1-.08-.84c.05-.78.07-1.56.12-2.34a2.16,2.16,0,0,1,.15-.5A1.32,1.32,0,0,1,2.55,2a.41.41,0,0,1,0-.6c.23-.24.49-.45.74-.68L3.76,1C3.88.41,4.29.48,4.7.5A9.77,9.77,0,0,0,6.41.5c.32,0,.66.05,1,0,.93,0,1.87-.08,2.8-.08a12.33,12.33,0,0,1,2.11.11,23.36,23.36,0,0,0,2.77.14,1.19,1.19,0,0,0,.33,0A4.75,4.75,0,0,1,17.14.63c.26,0,.53.13.79.12.41,0,.82-.13,1.23-.14a9,9,0,0,1,2.37,0,3.23,3.23,0,0,0,.76,0c.8,0,1.6,0,2.4,0S26.44.52,27.32.48s1.94,0,2.92,0a9.07,9.07,0,0,1,1.28.06A7,7,0,0,0,34.17.39a.45.45,0,0,1,.23,0A5.33,5.33,0,0,0,36,.24a1.66,1.66,0,0,0,.33-.12,2.14,2.14,0,0,0,1.58.4c1,0,2,0,3-.05.59,0,1.18.06,1.77.08l1.75.07c.27,0,.54.07.81.1a6.76,6.76,0,0,0,2.33-.1A4,4,0,0,1,48.91.56a1.55,1.55,0,0,0,.42,0,3.88,3.88,0,0,1,1.48,0,.14.14,0,0,0,.09,0c.44-.06.87-.15,1.3-.19a11.06,11.06,0,0,1,1.15,0c.56,0,1.11,0,1.67.06.19,0,.38,0,.57,0A12.65,12.65,0,0,1,57,.59a4.23,4.23,0,0,0,1.33,0,1.39,1.39,0,0,1,.61,0,3.42,3.42,0,0,0,1.27.13,30.26,30.26,0,0,1,3.16,0A8.27,8.27,0,0,0,66.1.56a.69.69,0,0,1,.47,0A7.33,7.33,0,0,0,68.1.82a5.83,5.83,0,0,0,2,.18,1.21,1.21,0,0,1,.38,0,2.16,2.16,0,0,0,1.13,0,5.86,5.86,0,0,1,2,0A8.54,8.54,0,0,0,76.08.82c.65-.07,1.3-.08,2-.11.26,0,.52,0,.77,0a5.49,5.49,0,0,1,1.89.15,2.43,2.43,0,0,0,.71,0,2.46,2.46,0,0,0,.33-.07c.13.27.15.6.5.65.07,0,.15-.07.26-.12L82.18.82a.33.33,0,0,1,.45.22,1.82,1.82,0,0,1,.08.65c0,.2.18.45-.1.62,0,0,0,.21,0,.25.22.15.21.37.22.59A6.25,6.25,0,0,1,83,4.82a3.24,3.24,0,0,0,0,.62c0,1,0,2,0,3a3.16,3.16,0,0,0,.16.8c.07.3.13.59-.14.82,0,.2.27.3.11.54s0,.33.07.5a2.61,2.61,0,0,1,.11.61c0,.5-.07,1-.12,1.51a2.82,2.82,0,0,0,.1,1.32c.2.55.11.77-.33,1.16a.58.58,0,0,1-.57.12,11.11,11.11,0,0,0-2.3-.34c-.41,0-.82-.13-1.23-.16a4.94,4.94,0,0,0-.94.05,13,13,0,0,1-3,0,12.82,12.82,0,0,0-1.86,0c-.42,0-.83,0-1.25,0-1.08,0-2.17.05-3.26.07-.31,0-.64,0-.95,0-1.76-.12-3.52,0-5.27,0-.82,0-1.63-.06-2.44-.07a25.8,25.8,0,0,0-2.92,0,20.08,20.08,0,0,1-2.33-.07c-.91,0-1.82,0-2.73,0l-.82,0a1.51,1.51,0,0,0-.28.05c0,.26,0,.5,0,.73s0,.44,0,.67c0,.07,0,.17,0,.23a2.92,2.92,0,0,0-.06,1.55c0,.21,0,.41,0,.62,0,.67-.05,1.34-.07,2a2.09,2.09,0,0,0,0,.34,1.19,1.19,0,0,1,0,.56,3.84,3.84,0,0,0-.08,1.43c0,1.32.06,2.65.1,4,0,.26,0,.52,0,.77-.06.76-.13,1.53-.19,2.29a13.66,13.66,0,0,0-.1,1.91c.07,1,0,1.91.09,2.87s.15,2.16.22,3.25c0,.36.08.73.07,1.09,0,.78-.1,1.56-.12,2.34s0,1.31,0,2,.06,1.19.1,1.78c0,.31.06.63.08,1a6.7,6.7,0,0,1,0,1,19.45,19.45,0,0,0,0,2.29c.06.94,0,1.88,0,2.83,0,1.32-.07,2.65-.08,4,0,.78,0,1.56,0,2.34,0,.56.11,1.11.16,1.67a1.85,1.85,0,0,1,0,.23c0,.35,0,.7,0,1.05a2.58,2.58,0,0,1,0,1.14.25.25,0,0,0,0,.09A17.72,17.72,0,0,0,51,66.34a.58.58,0,0,1,0,.19c0,.57,0,1.14,0,1.72a10.9,10.9,0,0,0-.08,1.8c.14,1.19-.18,2.36-.07,3.54.06.65.1,1.3.14,2a2.26,2.26,0,0,1,0,.52,4,4,0,0,0,0,1.43,11.85,11.85,0,0,1,0,2.15c-.06,1,0,2,0,3,0,.13,0,.26,0,.39,0,.88.06,1.75.08,2.63,0,.58,0,1.15,0,1.73s0,1,0,1.53c0,1,0,2,0,3.06a3.26,3.26,0,0,1-.1,1.28,0,0,0,0,0,0,0,6.89,6.89,0,0,1,.1,1.51c.07.46.14.91.17,1.37a6.62,6.62,0,0,1,0,.77,6.42,6.42,0,0,0,0,.76c0,.41.06.83.08,1.24a.46.46,0,0,1-.06.28,2.27,2.27,0,0,0-.14,1.21c0,.73,0,1.47,0,2.2a13.81,13.81,0,0,0,.11,2.49,1.79,1.79,0,0,0,.11.51,1.47,1.47,0,0,1,.12,1.07.82.82,0,0,0,.15.52,2.16,2.16,0,0,1,.28,1.11c0,.41-.09.55-.52.61a3.64,3.64,0,0,1-1.23,0,10.13,10.13,0,0,0-2.58,0c-.79.07-1.59.1-2.39.14-.12,0-.26,0-.38,0-1.2.23-2.42.11-3.63.24a8.1,8.1,0,0,0-1.19.11,2.59,2.59,0,0,1-.62,0c-.38,0-.76,0-1.14,0a11.61,11.61,0,0,1-2.43,0,.76.76,0,0,1-.59-.5,5.62,5.62,0,0,1-.24-1,15.46,15.46,0,0,1-.27-1.79c-.05-.89,0-1.79,0-2.68a19.64,19.64,0,0,1,.06-3,6.07,6.07,0,0,0,0-1,1.22,1.22,0,0,1,0-.33,15.75,15.75,0,0,0,.37-3.61A24.56,24.56,0,0,0,35,91.9a17.47,17.47,0,0,1-.1-2.29,17.15,17.15,0,0,1,.07-1.76,28.4,28.4,0,0,0,0-3.06c0-.67-.05-1.34-.09-2,0-.34-.1-.69-.13-1s0-.79,0-1.18a15.46,15.46,0,0,0,0-1.67,21.12,21.12,0,0,1,0-2.25c0-.66,0-1.31,0-2,0-1.15.11-2.29.21-3.44.08-.92,0-1.85,0-2.78,0-.54,0-1.08,0-1.62,0-.29,0-.58,0-.86,0-1-.06-1.92-.06-2.88,0-1.14.07-2.27.09-3.4a10.46,10.46,0,0,0,0-1.77,5.19,5.19,0,0,1,.06-1.24c0-.76,0-1.53.16-2.29a27.4,27.4,0,0,0,.15-2.86A22.14,22.14,0,0,0,35.32,48a13.15,13.15,0,0,1,0-2.43,56.06,56.06,0,0,0,.08-5.65c0-.9-.07-1.79-.1-2.68a.65.65,0,0,1,0-.24,22,22,0,0,0,.19-3.15,16,16,0,0,0,0-2.68c0-.43,0-.86,0-1.29a15,15,0,0,0-.15-2.33A19.94,19.94,0,0,1,35.29,24a6.73,6.73,0,0,0-.07-1c0-.51-.06-1-.07-1.53,0-.69-.06-1.37-.06-2.06,0-.88,0-1.75,0-2.63,0-.35,0-.7,0-1a.38.38,0,0,0-.4-.39h-.24l-1.52.13a.93.93,0,0,1-.29,0,8.31,8.31,0,0,0-2.9-.08l-.24,0c-1.67,0-3.35.07-5,.09-.67,0-1.34-.05-2-.08h-.14a22.93,22.93,0,0,1-3.21,0c-.46,0-.93-.05-1.39-.05-.65,0-1.3,0-2,0a5.07,5.07,0,0,1-.56-.05,1.26,1.26,0,0,0-.38,0,35.08,35.08,0,0,1-4.35,0c-.37,0-.73.07-1.1.06-1,0-2.07,0-3.11,0-.64,0-1.27.06-1.91.07a7.35,7.35,0,0,1-1.24-.05.74.74,0,0,1-.53-1,2,2,0,0,0,0-.88,3.75,3.75,0,0,1,0-.67c0-.48,0-1,0-1.43a.38.38,0,0,0,0-.1C2.49,10.9,2.46,10.49,3,10.23ZM36,2.79c0-.1,0-.17-.07-.25-.08-.43-.08-.43-.52-.44s-1,0-1.43,0c-1.5,0-3,0-4.5,0-.79,0-1.57,0-2.34.12a13.59,13.59,0,0,1-3.25,0A12.86,12.86,0,0,0,22,2.19c-.5,0-1,.06-1.49.06-1,0-2,0-3,0-.44,0-.89.06-1.33,0-1.37,0-2.74-.09-4.11-.14l-.91,0C10.37,2.05,9.58,2,8.8,2c-.41,0-.82.11-1.23.11-.92,0-1.85,0-2.78-.06-.34,0-.5.12-.53.46a7.3,7.3,0,0,0,0,.81,4,4,0,0,1,0,.85,3,3,0,0,0,0,1,2.58,2.58,0,0,1-.09,1.32.91.91,0,0,0,0,.33,4.92,4.92,0,0,1-.06,1.38,2.56,2.56,0,0,0,0,.62c0,.21,0,.41,0,.62a6.46,6.46,0,0,0,.07,1.32,3,3,0,0,1,.11.88,7.82,7.82,0,0,0,0,1.81c.07.46.2.55.66.5A8.65,8.65,0,0,1,6,14c.19,0,.38,0,.57,0,.89,0,1.78-.11,2.68-.15.28,0,.57,0,.86,0,.78,0,1.55-.06,2.33-.06s1.79.09,2.68.06a24.69,24.69,0,0,0,2.72,0c.66-.1,1.34,0,2-.07s1.35,0,2,0l1.48.05.38,0,3.77.05h.76l1.15,0c.45,0,.9,0,1.34,0,.84-.08,1.68-.24,2.51-.24a10.24,10.24,0,0,1,2.7.27,1,1,0,0,1,.63.43,1,1,0,0,1,.17,1,1.46,1.46,0,0,0,0,.47l0,2.11c0,.45,0,.89,0,1.34s.15,1,.12,1.58-.1,1.3-.1,2c0,.84.07,1.69.12,2.53.09,1.84.19,3.67.27,5.5,0,.83.06,1.66,0,2.49,0,1-.07,2-.13,3a23.65,23.65,0,0,0,0,3.26c0,.36.07.73.07,1.09,0,.8,0,1.6-.06,2.4,0,.44,0,.89,0,1.34,0,1.21-.14,2.42-.1,3.63s.15,2.26.08,3.4c-.06.94,0,1.89-.06,2.83,0,.62-.13,1.24-.17,1.86a18.63,18.63,0,0,0,0,4,.9.9,0,0,1,0,.23,6.66,6.66,0,0,0-.12.76,10.64,10.64,0,0,0,.07,2.39.91.91,0,0,1,0,.23c0,.35-.08.7-.08,1,0,1.21,0,2.42,0,3.64,0,.35,0,.7,0,1.05,0,.8-.07,1.6-.07,2.39,0,1.5.13,3,0,4.5a4.51,4.51,0,0,0,0,.52c0,.43,0,.86,0,1.29a3.45,3.45,0,0,0,.23,1.45.94.94,0,0,1,0,.55c0,.32-.15.65-.16,1s.09.85.13,1.27a1.43,1.43,0,0,1,0,.29,6.84,6.84,0,0,0-.08.9c0,.93.14,1.85.16,2.77,0,1.17.06,2.33,0,3.49a9.26,9.26,0,0,0,0,1.29c0,.42.07.85.1,1.28a1.21,1.21,0,0,1,.05.18,11.35,11.35,0,0,1,.13,1.42c0,.84-.12,1.68-.18,2.52a.33.33,0,0,0,0,.14,4.58,4.58,0,0,1,0,1.43c0,.35,0,.7,0,1s0,.41,0,.62c-.05.7-.13,1.4-.13,2.09,0,1,.05,2,.09,3.07,0,.3,0,.6,0,.9s.1.54.12.8c0,.45.06.5.49.52h.19c1.34.09,2.68-.23,4,0a1,1,0,0,0,.24,0l1.19-.06,3.06-.08a23.87,23.87,0,0,1,2.67-.25c.19,0,.23-.13.22-.3s0-.41,0-.62c0-.56,0-1.11,0-1.67s0-.87,0-1.3.1-1.11.09-1.67-.07-1.34-.1-2a4.15,4.15,0,0,1,0-.61,9.3,9.3,0,0,0,.15-1,8.88,8.88,0,0,1,0-1.71,1.94,1.94,0,0,0,0-.34,17.39,17.39,0,0,1-.09-3.68,5.51,5.51,0,0,0,0-.91c0-.46,0-.92,0-1.38,0-.16,0-.32,0-.48,0-.78,0-1.56,0-2.35,0-.23,0-.48,0-.71,0-.9-.11-1.79-.12-2.68,0-1.62,0-3.23,0-4.85,0-.28,0-.57,0-.86,0-.78,0-1.56-.06-2.35,0-.33,0-.67,0-1a10.77,10.77,0,0,1,0-2.34,5,5,0,0,0,0-.67c0-.39.07-.79.1-1.19,0-.64.06-1.28.08-1.91,0-.36,0-.71,0-1.06l-.06-2.68c0-.11,0-.23,0-.34,0-.52,0-1.05-.05-1.58,0-.89,0-1.78,0-2.68a12.88,12.88,0,0,1-.07-1.38c.13-1.15,0-2.29.1-3.44C49,54,49,53.1,49,52.16c0-.1,0-.19,0-.29,0-.48,0-1,0-1.43a7.33,7.33,0,0,0,0-1.24A6.9,6.9,0,0,1,49,47.33a5.57,5.57,0,0,0,0-1c-.06-1.13-.19-2.26-.21-3.39s.08-2.3.1-3.45c0-.67,0-1.34,0-2,0-.52-.1-1-.13-1.57a10.24,10.24,0,0,1-.14-2.71,21.22,21.22,0,0,1,.2-4.06c0-.3.14-.6.15-.9,0-.65,0-1.3,0-2s0-1.14,0-1.72,0-1,.05-1.48,0-.95,0-1.43c0-.88.07-1.76.1-2.63a2.54,2.54,0,0,0,0-.39,13.88,13.88,0,0,1,.08-2.14,6.41,6.41,0,0,0-.06-2,.54.54,0,0,1,.56-.7c1.06,0,2.1,0,3.16-.08a10.86,10.86,0,0,1,2.67.05,3.75,3.75,0,0,0,.67,0c.8,0,1.6-.06,2.4-.07.34,0,.69,0,1,0h2.35l4.45.07c.78,0,1.57,0,2.34.08a11.53,11.53,0,0,0,1.66,0,16.48,16.48,0,0,1,2-.06c.81.07,1.62.09,2.43.13a6.24,6.24,0,0,0,1.43,0,2,2,0,0,1,1.15.14.67.67,0,0,0,.28,0c.36,0,.72-.11,1.09-.14a2.12,2.12,0,0,1,.46.1,1.77,1.77,0,0,1,.72,0c.54.18,1.07-.09,1.61.1a2.1,2.1,0,0,0,.08-.35c0-.43,0-.85,0-1.28s0-.89,0-1.33,0-.95,0-1.42a6.51,6.51,0,0,0-.11-.9c-.1-.48,0-1-.13-1.45a6.68,6.68,0,0,1,0-1.48c0-.3,0-.6,0-.87l.62-.3,0-.1-.29,0c-.21,0-.31,0-.32-.24,0-.6-.07-1.2-.1-1.81,0-.3-.08-.39-.39-.42a4.81,4.81,0,0,1-.77-.06,6.91,6.91,0,0,0-1.76-.06c-.74,0-1.49.08-2.23.1s-1.6,0-2.39,0a35.86,35.86,0,0,1-3.88,0c-.44,0-.89-.11-1.33-.13-.7,0-1.41,0-2.11,0-1.2,0-2.4,0-3.59.06a20.8,20.8,0,0,1-3.06,0,28.2,28.2,0,0,0-3.68,0,3.63,3.63,0,0,1-.57,0c-.41,0-.82-.09-1.24-.12s-.54,0-.81,0a14.87,14.87,0,0,0-2.67.07,4.74,4.74,0,0,1-1.76,0,1.84,1.84,0,0,0-.7,0c-.38,0-.76.12-1.14.15-.54,0-1.08.07-1.63.09a5.77,5.77,0,0,1-.72,0l-1.8-.18a2.16,2.16,0,0,0-.44,0L41,2.23c-.55.06-1.1-.17-1.64,0h-.1l-1.47-.16L37.06,2a.56.56,0,0,0-.67.32A2.15,2.15,0,0,1,36,2.79ZM82.41,7.26c-.69.64-.79,1-.43,1.24Zm-.34-1.59.06-.06-.2-.17a.17.17,0,0,0,0,.15Zm0,.41a.9.9,0,0,0-.07.11s0,.06,0,0a.3.3,0,0,0,.11-.06Z"/><path class="cls-1" d="M36,2.79a2.15,2.15,0,0,0,.41-.47A.56.56,0,0,1,37.06,2l.76.09,1.47.16h.1c.54-.19,1.09,0,1.64,0l1.62-.14a2.16,2.16,0,0,1,.44,0l1.8.18a5.77,5.77,0,0,0,.72,0c.55,0,1.09,0,1.63-.09.38,0,.76-.11,1.14-.15a1.84,1.84,0,0,1,.7,0,4.74,4.74,0,0,0,1.76,0A14.87,14.87,0,0,1,53.51,2c.27,0,.54,0,.81,0s.83.08,1.24.12a3.63,3.63,0,0,0,.57,0,28.2,28.2,0,0,1,3.68,0,20.8,20.8,0,0,0,3.06,0c1.19-.1,2.39-.05,3.59-.06.7,0,1.41,0,2.11,0,.44,0,.89.1,1.33.13a35.86,35.86,0,0,0,3.88,0c.79,0,1.59,0,2.39,0s1.49-.12,2.23-.1a6.91,6.91,0,0,1,1.76.06,4.81,4.81,0,0,0,.77.06c.31,0,.38.12.39.42,0,.61.06,1.21.1,1.81,0,.19.11.29.32.24l.29,0,0,.1-.62.3c0,.27,0,.57,0,.87a6.68,6.68,0,0,0,0,1.48c.09.48,0,1,.13,1.45a6.51,6.51,0,0,1,.11.9c0,.47,0,.94,0,1.42s0,.89,0,1.33,0,.85,0,1.28a2.1,2.1,0,0,1-.08.35c-.54-.19-1.07.08-1.61-.1a1.77,1.77,0,0,0-.72,0,2.12,2.12,0,0,0-.46-.1c-.37,0-.73.1-1.09.14a.67.67,0,0,1-.28,0A2,2,0,0,0,76.17,14a6.24,6.24,0,0,1-1.43,0c-.81,0-1.62-.06-2.43-.13a16.48,16.48,0,0,0-2,.06,11.53,11.53,0,0,1-1.66,0c-.77-.09-1.56-.06-2.34-.08l-4.45-.07H59.52c-.35,0-.7,0-1,0-.8,0-1.6,0-2.4.07a3.75,3.75,0,0,1-.67,0,10.86,10.86,0,0,0-2.67-.05c-1.06.11-2.1.07-3.16.08a.54.54,0,0,0-.56.7,6.41,6.41,0,0,1,.06,2A13.88,13.88,0,0,0,49,18.63,2.54,2.54,0,0,1,49,19c0,.87-.07,1.75-.1,2.63,0,.48,0,1,0,1.43s-.05,1-.05,1.48,0,1.15,0,1.72.05,1.31,0,2c0,.3-.12.6-.15.9a21.22,21.22,0,0,0-.2,4.06,10.24,10.24,0,0,0,.14,2.71c0,.53.11,1.05.13,1.57,0,.67,0,1.34,0,2,0,1.15-.12,2.3-.1,3.45s.15,2.26.21,3.39a5.57,5.57,0,0,1,0,1A6.9,6.9,0,0,0,49,49.2a7.33,7.33,0,0,1,0,1.24c0,.47,0,1,0,1.43,0,.1,0,.19,0,.29C49,53.1,49,54,49,55c-.08,1.15,0,2.29-.1,3.44a12.88,12.88,0,0,0,.07,1.38c0,.9,0,1.79,0,2.68,0,.53,0,1.06.05,1.58,0,.11,0,.23,0,.34l.06,2.68c0,.35,0,.7,0,1.06,0,.63,0,1.27-.08,1.91,0,.4-.08.8-.1,1.19a5,5,0,0,1,0,.67,10.77,10.77,0,0,0,0,2.34c0,.33,0,.67,0,1,0,.79,0,1.57.06,2.35,0,.29,0,.58,0,.86,0,1.62,0,3.23,0,4.85,0,.89.08,1.78.12,2.68,0,.23,0,.48,0,.71,0,.79,0,1.57,0,2.35,0,.16,0,.32,0,.48,0,.46,0,.92,0,1.38a5.51,5.51,0,0,1,0,.91,17.39,17.39,0,0,0,.09,3.68,1.94,1.94,0,0,1,0,.34,8.88,8.88,0,0,0,0,1.71,9.3,9.3,0,0,1-.15,1,4.15,4.15,0,0,0,0,.61c0,.67.1,1.34.1,2s-.07,1.12-.09,1.67,0,.87,0,1.3,0,1.11,0,1.67c0,.21,0,.42,0,.62s0,.31-.22.3a23.87,23.87,0,0,0-2.67.25l-3.06.08-1.19.06a1,1,0,0,1-.24,0c-1.34-.21-2.68.11-4,0h-.19c-.43,0-.47-.07-.49-.52,0-.26-.09-.53-.12-.8s0-.6,0-.9c0-1-.09-2-.09-3.07,0-.69.08-1.39.13-2.09,0-.21,0-.41,0-.62s0-.7,0-1a4.58,4.58,0,0,0,0-1.43.33.33,0,0,1,0-.14c.06-.84.15-1.68.18-2.52a11.35,11.35,0,0,0-.13-1.42,1.21,1.21,0,0,0-.05-.18c0-.43-.07-.86-.1-1.28a9.26,9.26,0,0,1,0-1.29c.06-1.16,0-2.32,0-3.49,0-.92-.12-1.84-.16-2.77a6.84,6.84,0,0,1,.08-.9,1.43,1.43,0,0,0,0-.29c0-.42-.13-.84-.13-1.27s.12-.65.16-1a.94.94,0,0,0,0-.55,3.45,3.45,0,0,1-.23-1.45c0-.43,0-.86,0-1.29a4.51,4.51,0,0,1,0-.52c.14-1.5,0-3,0-4.5,0-.79,0-1.59.07-2.39,0-.35,0-.7,0-1.05,0-1.22,0-2.43,0-3.64,0-.35,0-.7.08-1a.91.91,0,0,0,0-.23,10.64,10.64,0,0,1-.07-2.39,6.66,6.66,0,0,1,.12-.76.9.9,0,0,0,0-.23,18.63,18.63,0,0,1,0-4c0-.62.14-1.24.17-1.86,0-.94,0-1.89.06-2.83.07-1.14-.05-2.27-.08-3.4s.07-2.42.1-3.63c0-.45,0-.9,0-1.34,0-.8.05-1.6.06-2.4,0-.36,0-.73-.07-1.09a23.65,23.65,0,0,1,0-3.26c.06-1,.11-2,.13-3,0-.83,0-1.66,0-2.49-.08-1.83-.18-3.66-.27-5.5,0-.84-.11-1.69-.12-2.53,0-.66.06-1.31.1-2s-.1-1.05-.12-1.58,0-.89,0-1.34l0-2.11a1.46,1.46,0,0,1,0-.47,1,1,0,0,0-.17-1,1,1,0,0,0-.63-.43,10.24,10.24,0,0,0-2.7-.27c-.83,0-1.67.16-2.51.24-.44,0-.89,0-1.34,0l-1.15,0h-.76l-3.77-.05-.38,0-1.48-.05c-.67,0-1.35,0-2,0s-1.34,0-2,.07a24.69,24.69,0,0,1-2.72,0c-.89,0-1.78-.06-2.68-.06s-1.55,0-2.33.06c-.29,0-.58,0-.86,0-.9,0-1.79.1-2.68.15-.19,0-.38,0-.57,0a8.65,8.65,0,0,0-1.14,0c-.46.05-.59,0-.66-.5a7.82,7.82,0,0,1,0-1.81,3,3,0,0,0-.11-.88A6.46,6.46,0,0,1,4,9.49c0-.21,0-.41,0-.62a2.56,2.56,0,0,1,0-.62,4.92,4.92,0,0,0,.06-1.38.91.91,0,0,1,0-.33A2.58,2.58,0,0,0,4.2,5.22a3,3,0,0,1,0-1,4,4,0,0,0,0-.85,7.3,7.3,0,0,1,0-.81c0-.34.19-.47.53-.46.93,0,1.86.06,2.78.06C8,2.12,8.39,2,8.8,2c.78,0,1.57,0,2.35.07l.91,0c1.37.05,2.74.11,4.11.14.44,0,.89,0,1.33,0,1,0,2,0,3,0,.5,0,1-.06,1.49-.06a12.86,12.86,0,0,1,1.86.07,13.59,13.59,0,0,0,3.25,0c.77-.08,1.55-.11,2.34-.12,1.5,0,3,0,4.5,0,.47,0,.95,0,1.43,0s.44,0,.52.44C35.93,2.62,36,2.69,36,2.79Z"/></svg>