<svg id="U" xmlns="http://www.w3.org/2000/svg" viewBox="0 0 86 112"><defs><style>.cls-1{stroke:#000;stroke-miterlimit:10;}</style></defs><path class="cls-1" d="M18.55,2.26a.5.5,0,0,1-.05.19,3.74,3.74,0,0,0-.4,2.16C18.1,5,18,5.47,18,5.9c0,.62,0,1.24,0,1.86V9.34a10.17,10.17,0,0,1,0,1.1,14.91,14.91,0,0,1-.08,1.76,8,8,0,0,0,0,2.24c0,.1,0,.2,0,.29a24,24,0,0,1-.07,2.4,29.44,29.44,0,0,0-.06,3c0,.28-.06.56-.06.84,0,.79,0,1.57,0,2.35,0,1.12.1,2.24,0,3.36a27.25,27.25,0,0,1-.29,3.93.59.59,0,0,0,0,.14V33.6c0,.59,0,1.18,0,1.77s0,1,0,1.44a8.61,8.61,0,0,1-.08,1.24,14.92,14.92,0,0,0-.06,2.5c0,.61,0,1.22-.06,1.82,0,.05,0,.11,0,.15a5.5,5.5,0,0,1,.14,1.9,15.18,15.18,0,0,1-.08,1.9c0,.72,0,1.44,0,2.16,0,1.24,0,2.47,0,3.7,0,.69-.13,1.37-.19,2.06,0,.12-.06.27,0,.37a1.94,1.94,0,0,1,0,1c0,.44-.07.89-.09,1.34,0,1-.07,2-.1,3a1.31,1.31,0,0,0,0,.28c.08.6.18,1.2.27,1.81a2.26,2.26,0,0,1,0,.52,4.75,4.75,0,0,0,.14,1.91.59.59,0,0,1,0,.23c0,.72,0,1.44,0,2.17s0,1.66,0,2.5a7.31,7.31,0,0,0,0,1.48c.18.76.24,1.54.37,2.31a2.34,2.34,0,0,0,.09.38c.32,1.07.64,2.14,1,3.2.22.66.51,1.31.74,2,.15.4.24.83.39,1.24a1.91,1.91,0,0,0,.31.58,2.68,2.68,0,0,1,.62,1.22,8,8,0,0,0,.3.76,5.78,5.78,0,0,0,1.82,2.54,3.44,3.44,0,0,1,.27.27,10.31,10.31,0,0,0,1.9,1.52,1.86,1.86,0,0,1,.41.33c.69.72,1.36,1.45,2,2.17.2.21.43.39.65.58a9.08,9.08,0,0,0,1.67,1.27c.52.28,1,.7,1.46,1a5.19,5.19,0,0,0,1.13.5c.71.22,1.44.35,2.14.57s1.47.53,2.21.8a3.28,3.28,0,0,0,.51.15c.63.12,1.26.23,1.89.32a11.26,11.26,0,0,0,1.53.12,17.34,17.34,0,0,0,1.77-.07c1.18-.12,2.35-.27,3.52-.49a16.41,16.41,0,0,1,3.28-.46,2.53,2.53,0,0,0,1.35-.25.45.45,0,0,1,.19,0,19,19,0,0,0,2.69-.51,5,5,0,0,0,1.24-.48,2.45,2.45,0,0,1,.31-.12,1.1,1.1,0,0,0,.73-.42.69.69,0,0,1,.29-.25,1.84,1.84,0,0,0,1-.72A3.13,3.13,0,0,1,58,90.4c.5-.38,1-.74,1.5-1.11a2.4,2.4,0,0,0,.28-.27l.91-.78A2.37,2.37,0,0,0,61,88c.07-.08.13-.18.21-.26.57-.58,1.11-1.19,1.71-1.73A9.53,9.53,0,0,0,64,84.73c.35-.45.62-1,1-1.42a5.4,5.4,0,0,0,.68-1.41,10.89,10.89,0,0,1,.53-1,7.24,7.24,0,0,0,.7-1.79,4.55,4.55,0,0,1,.33-.79,5.78,5.78,0,0,0,.39-1,5.86,5.86,0,0,1,.55-1.72,4.3,4.3,0,0,0,.42-2c0-.5,0-1,0-1.49V72c.11-.75.21-1.49.32-2.24A7.88,7.88,0,0,0,69,67.84a8.18,8.18,0,0,1,.14-1.38.89.89,0,0,0,0-.46,4.61,4.61,0,0,1-.34-2,4.14,4.14,0,0,0-.16-1.56c-.05-.1,0-.28.08-.41a1.33,1.33,0,0,0,.14-.92,1.82,1.82,0,0,1,0-.52c0-.45,0-.9.11-1.34a17.54,17.54,0,0,0,0-2.05,5.39,5.39,0,0,0,0-1.33,4.49,4.49,0,0,1,0-1c0-.46,0-.92,0-1.38V51.55a1.55,1.55,0,0,0,0-.43,7.1,7.1,0,0,1,0-2.6,2.08,2.08,0,0,0,0-.61A3.37,3.37,0,0,1,69,46.3a4.44,4.44,0,0,0,.06-1.1c0-.19,0-.38,0-.56a2.71,2.71,0,0,0,.06-.38c0-.58,0-1.15,0-1.73s0-.88,0-1.32a.34.34,0,0,0,0-.14,7.81,7.81,0,0,1,0-2c0-.33,0-.67,0-1s0-.86.06-1.29.05-.8,0-1.2c0-1-.13-1.94-.2-2.92a1.93,1.93,0,0,1,0-.33,2,2,0,0,0,.07-.71c-.2-.83.2-1.67,0-2.5a1,1,0,0,1,0-.24c0-.58.05-1.15.08-1.73s.11-1.18.12-1.77,0-1-.06-1.57a4.12,4.12,0,0,1,.05-.7,2.25,2.25,0,0,0,0-1,1.3,1.3,0,0,1,0-.52,17,17,0,0,0-.17-3.34c-.05-.52,0-1.05-.06-1.58-.06-1.28.12-2.55.18-3.82,0-.13,0-.26.06-.38a2,2,0,0,0,.06-.48c-.16-1,.14-2,0-3.06-.07-.81-.08-1.63-.12-2.45a12.85,12.85,0,0,1,0-1.86,16.85,16.85,0,0,0,0-2,1.22,1.22,0,0,0-.13-.45c-.15-.39-.09-.62.28-.78a1.33,1.33,0,0,1,.91-.23A.71.71,0,0,0,70.73,1a7.76,7.76,0,0,1,.84-.15c.48-.05,1-.07,1.44-.1.09,0,.2-.07.28,0a4.24,4.24,0,0,0,1.23.1,2.1,2.1,0,0,0,.9,0,.49.49,0,0,1,.24,0A3.14,3.14,0,0,0,77,.87a9.81,9.81,0,0,1,1.09-.1c.44,0,.89.06,1.34,0a15.81,15.81,0,0,0,2.48,0c.32-.06.66,0,1-.07a.45.45,0,0,1,.54.3c0,.1.16.17.32.21L83.64.88a.36.36,0,0,1,.14,0A.44.44,0,0,1,84,1a2.61,2.61,0,0,1,.71,1.62c0,.31-.16.62-.17.93A14.58,14.58,0,0,0,84.72,7a2.29,2.29,0,0,1,0,.37c0,.54,0,1.08,0,1.62a1.7,1.7,0,0,1,0,.39A4.83,4.83,0,0,0,84.64,11a2.38,2.38,0,0,1-.07.7,1.13,1.13,0,0,0,0,.75.78.78,0,0,1,.06.37c.06,1,.14,2.08.14,3.12A5.44,5.44,0,0,1,84.65,18a1.23,1.23,0,0,0,0,.43,11.49,11.49,0,0,1,0,2.93.28.28,0,0,0,0,.09c.09.83.2,1.65.28,2.48a12.82,12.82,0,0,1,0,2.4c0,.51,0,1,0,1.53,0,1.17.15,2.33,0,3.51s0,2.11,0,3.16a30.49,30.49,0,0,1,0,4.38,1.06,1.06,0,0,0,0,.47,2.25,2.25,0,0,1,.09,1.09c0,.91-.06,1.82-.09,2.74,0,.44-.08.89-.1,1.34s-.07.92-.07,1.39c0,.76,0,1.53,0,2.3,0,1.23,0,2.47,0,3.7,0,.27,0,.55,0,.82.06,1.13.14,2.27.16,3.41,0,.94,0,1.89,0,2.83s0,1.83,0,2.75c0,.3,0,.6-.06.91a.6.6,0,0,0,0,.23,7.26,7.26,0,0,1-.13,3,8.92,8.92,0,0,0-.15,3,1,1,0,0,1,0,.24c0,.85,0,1.7-.05,2.54-.14,1.55-.33,3.1-.5,4.64a7.4,7.4,0,0,0-.08.81,2.4,2.4,0,0,1-.35,1.38.6.6,0,0,0-.09.41,4.43,4.43,0,0,1-.32,1.73c-.11.44-.26.86-.4,1.29-.09.27-.2.54-.29.81s-.26.82-.38,1.24a5.09,5.09,0,0,1-.56,1.32,7.45,7.45,0,0,0-.55,1.22c-.25.61-.5,1.22-.73,1.83-.15.4-.27.82-.43,1.22a2.53,2.53,0,0,1-.41.8,8.62,8.62,0,0,0-1.17,1.81A30.88,30.88,0,0,1,76.71,95a15.18,15.18,0,0,1-2.25,2.8,28.56,28.56,0,0,1-2.85,2.64,15.47,15.47,0,0,0-1.52,1.4,6.49,6.49,0,0,1-.79.7,18.76,18.76,0,0,0-2.42,1.74,7.35,7.35,0,0,1-1,.58,4,4,0,0,0-.89.55,7.81,7.81,0,0,1-1.68,1c-.57.32-1.15.63-1.73.94-.32.17-.65.34-1,.48a16.61,16.61,0,0,1-1.65.65c-.49.16-1,.25-1.49.38l-2.46.64c-.58.14-1.15.3-1.73.41s-1.3.21-1.94.33c-.38.07-.75.18-1.12.25s-.91.17-1.37.22-.77,0-1.15,0c-.77.06-1.53.14-2.29.25a10.51,10.51,0,0,0-1.26.3,1.21,1.21,0,0,0-.28.18,6.53,6.53,0,0,1-.56.35.8.8,0,0,1-1.09-.12.53.53,0,0,0-.31-.11c-.38,0-.77-.08-1.15-.12a3.47,3.47,0,0,1-.56-.11,3.89,3.89,0,0,0-1.23-.17c-.82,0-1.63,0-2.45,0a3.05,3.05,0,0,1-.65-.15l-1.74-.36a2.49,2.49,0,0,1-.55-.16l-2.8-1.16c-.25-.11-.49-.24-.73-.36a7.18,7.18,0,0,0-1.51-.72c-.64-.14-1.16-.6-1.84-.65-.17,0-.33-.22-.49-.35s-.15-.22-.26-.27c-.56-.26-1.12-.54-1.71-.75s-1.29-.54-1.94-.8a5.13,5.13,0,0,1-1.48-1,12.88,12.88,0,0,0-2-1.57c-.6-.36-1-.88-1.56-1.27a3.53,3.53,0,0,1-.48-.59c-.22-.25-.45-.5-.69-.73A11,11,0,0,1,15,99.06a15.48,15.48,0,0,0-1.21-1.36c-.19-.21-.38-.42-.58-.62a11.45,11.45,0,0,1-1-1,3.51,3.51,0,0,0-.92-1c-.06,0-.09-.13-.14-.19l-.52-.74L10,93.33a1,1,0,0,0-.1-.17l-1.2-1.55s0,0-.05-.08l-1-2a5.81,5.81,0,0,0-.5-.92,4.33,4.33,0,0,1-.5-.92,11.07,11.07,0,0,0-1.07-1.86,3,3,0,0,1-.64-1.57,1.71,1.71,0,0,0-.41-1.06,4.27,4.27,0,0,1-.52-1,7.62,7.62,0,0,1-.4-1.47,6.77,6.77,0,0,1-.13-1.19,4.54,4.54,0,0,0-.29-1.4,5.59,5.59,0,0,1-.42-3.51,1.63,1.63,0,0,0,0-.76,6.67,6.67,0,0,1,0-1.1,2.36,2.36,0,0,0-.16-1.25,2.57,2.57,0,0,1-.09-.94.93.93,0,0,0-.06-.37,7.28,7.28,0,0,1-.39-2.35c-.08-.52.1-1,.07-1.51s.05-.86,0-1.28a6,6,0,0,1,.08-1.34,1.58,1.58,0,0,0,0-.43c-.12-.81,0-1.62,0-2.43a7.34,7.34,0,0,0-.28-1,1.28,1.28,0,0,1-.05-.61A4.92,4.92,0,0,0,1.8,57.8c0-.27,0-.55,0-.82a1.21,1.21,0,0,0,0-.19,3.83,3.83,0,0,1,0-1.65c0-.25,0-.51,0-.77s0-.57,0-.86,0-.69,0-1a5.09,5.09,0,0,1,0-.56,3.12,3.12,0,0,0,0-.43c0-.51-.12-1-.15-1.53,0-.32,0-.64,0-1a7.23,7.23,0,0,1,.14-1.4,1.86,1.86,0,0,0,0-.33,1.9,1.9,0,0,1,0-.53A20.12,20.12,0,0,0,2,43.45a6.67,6.67,0,0,1,.19-1.32,3.61,3.61,0,0,0,0-1.09,7.72,7.72,0,0,1,0-1.86c0-.22.09-.44.13-.66a2.93,2.93,0,0,0,.1-.84A15.42,15.42,0,0,1,2.52,36c0-.09.08-.2,0-.28a4.53,4.53,0,0,1,0-1.76,17.7,17.7,0,0,0,0-2.82,8.34,8.34,0,0,1,0-1.58c.06-.59.21-1.16.3-1.74,0-.25,0-.51.05-.76s0-.25.06-.38,0-.19,0-.22c-.33-.33-.13-.67,0-1a2,2,0,0,0,0-1.08,3.66,3.66,0,0,1,0-.66,2.87,2.87,0,0,0,0-.71,5.65,5.65,0,0,1,0-1.09c0-.52,0-1-.05-1.54,0-.25,0-.51,0-.76s0-.61,0-.91c0-.95,0-1.9,0-2.86a1.2,1.2,0,0,1,0-.33,5.18,5.18,0,0,0,.06-1.71c0-.12,0-.25,0-.38a3.77,3.77,0,0,0,0-1.42.54.54,0,0,1,0-.33A4.72,4.72,0,0,0,3.18,10a6.6,6.6,0,0,1,.14-.89,5.43,5.43,0,0,0,0-.57c0-.54,0-1.08,0-1.62,0-.72,0-1.45,0-2.18,0-.57.05-1.15.07-1.72,0-.2,0-.41,0-.61s0-.29,0-.43,0-.35,0-.52c0-.58.23-.84.81-.84A4.67,4.67,0,0,1,5.21.51c.48.07,1,0,1.47.09A2.8,2.8,0,0,0,8,.62a.77.77,0,0,1,.5.1.91.91,0,0,0,.65.05,1.91,1.91,0,0,1,.48,0h1.1c.22,0,.44,0,.67,0,.46,0,.92,0,1.39,0,.84,0,1.69-.06,2.53-.07a3.22,3.22,0,0,1,1.31.08.39.39,0,0,0,.24,0,.91.91,0,0,1,.88.21.69.69,0,0,1,.34.58A.55.55,0,0,0,18.55,2.26Zm60.14.05a7.84,7.84,0,0,1-.82.08c-.72,0-1.43,0-2.15,0s-1.25.05-1.86,0a16.83,16.83,0,0,0-2.25.05c-.45,0-.55.15-.59.6s0,.86,0,1.3c0,1.12,0,2.24.05,3.36,0,.59,0,1.18,0,1.77a5.84,5.84,0,0,1,0,1.67A10.21,10.21,0,0,0,71,12.39c0,1,0,1.95-.06,2.92a12.75,12.75,0,0,0,0,2.83c.06.46.09.92.12,1.38a6.91,6.91,0,0,0,0,.91A7.11,7.11,0,0,1,71.1,22c0,.59,0,1.19-.09,1.77a3,3,0,0,0,0,1,1.93,1.93,0,0,1,0,.34c0,.89-.1,1.78-.12,2.68,0,1.15,0,2.3,0,3.45,0,.74,0,1.48,0,2.22,0,1.07.07,2.14,0,3.21,0,.86,0,1.72,0,2.58,0,.49,0,1,0,1.49,0,1-.07,1.92-.11,2.88,0,.24,0,.48,0,.72,0,.42-.11.83-.12,1.24,0,.74,0,1.48.07,2.21,0,1,.05,1.89.06,2.83,0,.37,0,.74,0,1.1,0,1.24.07,2.47.1,3.7a1.59,1.59,0,0,1,0,.38A6.58,6.58,0,0,0,71,58.18a.57.57,0,0,1,0,.32,1.91,1.91,0,0,0-.11.94c0,.32,0,.64-.08,1a2.74,2.74,0,0,0,0,1.65.67.67,0,0,1,0,.42,1.36,1.36,0,0,0,0,.8,2.7,2.7,0,0,1,0,.7c0,.09,0,.19,0,.29,0,.86.08,1.72.11,2.59a6.57,6.57,0,0,1-.1,1.53,4.91,4.91,0,0,0,0,.86c0,.22,0,.44-.07.66a3.54,3.54,0,0,0-.13.71,25.54,25.54,0,0,0-.28,2.76,1.29,1.29,0,0,1,0,.19c0,.3,0,.61-.08.91A15.41,15.41,0,0,1,70,76.12a5.64,5.64,0,0,1-.55,1.43,6.63,6.63,0,0,0-.51,1.54,6.44,6.44,0,0,1-.37,1c-.34.72-.74,1.42-1.1,2.13-.48.94-1,1.88-1.42,2.83-.07.14-.12.29-.2.43a2.45,2.45,0,0,1-.38.6,12.93,12.93,0,0,1-1.2,1,2.88,2.88,0,0,0-.72.94,7.22,7.22,0,0,1-.79.88,7.51,7.51,0,0,1-.59.75A7.21,7.21,0,0,0,60.66,91c0,.06-.14.07-.21.12a4.29,4.29,0,0,0-1.05.82,2.14,2.14,0,0,1-1.1.92s0,0,0,0A5.58,5.58,0,0,1,56.6,94a.28.28,0,0,0-.11.08,1.06,1.06,0,0,1-.65.28,2.81,2.81,0,0,0-1,.33,2.79,2.79,0,0,1-1.35.43,5.52,5.52,0,0,0-2,.37,1.22,1.22,0,0,1-.42.09c-.77.06-1.54.1-2.3.17A6.3,6.3,0,0,0,48,96a5.73,5.73,0,0,1-.56.14L44,96.52a8.46,8.46,0,0,1-1,.15c-.61,0-1.22,0-1.83,0a3.51,3.51,0,0,0-1.37,0c-.08,0-.18,0-.28,0a9.15,9.15,0,0,0-2-.38.73.73,0,0,1-.32-.09c-.22-.07-.42-.16-.64-.21s-.7-.11-1-.21c-.8-.24-1.59-.5-2.39-.76-.41-.13-.81-.29-1.23-.41a5.42,5.42,0,0,1-2.08-1,5.05,5.05,0,0,0-1.15-.87,4.59,4.59,0,0,1-1.25-.89c-.52-.52-1.09-1-1.64-1.48-.09-.09-.15-.2-.24-.3a14.71,14.71,0,0,0-1.11-1.26c-.69-.63-1.46-1.19-2.16-1.83-.47-.43-.85-1-1.31-1.39a5.52,5.52,0,0,1-1.41-2.61A3.75,3.75,0,0,0,19,81.81a1.34,1.34,0,0,1-.29-.79,1.22,1.22,0,0,0-.2-.57,1.61,1.61,0,0,1-.36-.87.55.55,0,0,0-.07-.23c-.25-.66-.52-1.33-.76-2-.07-.19,0-.43-.12-.61a11.36,11.36,0,0,1-.72-2.13A6.85,6.85,0,0,1,16.08,73a8.78,8.78,0,0,0-.3-1.75,2.81,2.81,0,0,1-.06-1,4.91,4.91,0,0,0,0-.86,9.8,9.8,0,0,1-.08-1.43,16.4,16.4,0,0,0,0-3.21c0-.44-.12-.89-.18-1.33a.77.77,0,0,0-.06-.23,2.43,2.43,0,0,1-.18-1.22c0-1,0-1.95,0-2.92a.9.9,0,0,1,0-.28,3.81,3.81,0,0,0,.11-1.61c0-.11-.06-.24,0-.33a3.79,3.79,0,0,0,.11-1.57c0-.56,0-1.12,0-1.68s.05-1.24.08-1.86c0-.4,0-.8,0-1.2s.07-.85.09-1.28a18,18,0,0,1,0-2.2c0-.23-.07-.49,0-.72a3.66,3.66,0,0,0,0-1.19,3.54,3.54,0,0,1,0-.86A21.06,21.06,0,0,1,15.77,42c0-.07,0-.15,0-.23a8.3,8.3,0,0,1-.06-1.49,2.86,2.86,0,0,0,0-1.09c-.19-.75.2-1.49,0-2.24,0,0,0-.12,0-.18a2.07,2.07,0,0,0,0-1,1.86,1.86,0,0,1,0-.67c0-.62.06-1.24.11-1.85a23.41,23.41,0,0,1,.07-2.78,1.32,1.32,0,0,0,0-.28,1.29,1.29,0,0,1,0-.34,10.64,10.64,0,0,0,.2-2.76,2.3,2.3,0,0,1,0-.94,4.75,4.75,0,0,0,.08-1.76c0-.43-.06-.86-.06-1.29s0-.95,0-1.43a3.9,3.9,0,0,1,0-.9,1.12,1.12,0,0,0-.14-.92,2.44,2.44,0,0,0,.2-.57,20.13,20.13,0,0,0,.12-2,8.93,8.93,0,0,1,.07-2,1,1,0,0,0,0-.28c0-.15,0-.31-.06-.47,0-.37,0-.73,0-1.1s0-.48,0-.72.05-.4.05-.61,0-.63,0-.95.11-.39.07-.56a12,12,0,0,1,0-1.47c-.06-.76,0-1.53,0-2.29s0-1.6,0-2.4c0-.63,0-1.26,0-1.92a1.92,1.92,0,0,0-.3,0c-.4,0-.8,0-1.18,0-.86,0-1.7,0-2.55.05-.57,0-1.14-.05-1.71-.05s-1.41.05-2.12,0a5.6,5.6,0,0,1-1.22-.17A4.93,4.93,0,0,0,5.8,2.06c-.2,0-.36.06-.35.29a1.29,1.29,0,0,1-.26.81.45.45,0,0,0-.06.28c0,.81-.25,1.61-.18,2.43,0,.3,0,.6,0,.91,0,.92-.2,1.83-.12,2.75a9.41,9.41,0,0,1,0,1.3c0,.33-.13.66-.14,1s0,.8,0,1.2-.18.75-.06,1.15c0,.06,0,.15-.06.23a2.38,2.38,0,0,0-.06.37c0,.93.13,1.84.07,2.78,0,.79,0,1.59,0,2.39a1,1,0,0,1,0,.24,2.89,2.89,0,0,0,0,1.46,2.81,2.81,0,0,1,0,.77c0,.14,0,.29,0,.43a10.3,10.3,0,0,1,0,2.15c0,.24,0,.48,0,.72,0,.65,0,1.31,0,2a11.78,11.78,0,0,1-.21,1.16c-.14.88-.1,1.76-.2,2.63a5.78,5.78,0,0,0,0,.72,10.26,10.26,0,0,1,0,2.35,1.55,1.55,0,0,0,0,.43,10.3,10.3,0,0,1-.1,2.77,4.21,4.21,0,0,0,0,.62,9.36,9.36,0,0,1-.18,1.75,1.54,1.54,0,0,0,0,.43c0,.24,0,.48,0,.72,0,.93,0,1.86,0,2.79,0,.24,0,.48,0,.71-.09.92-.2,1.84-.26,2.76,0,.62,0,1.24,0,1.87,0,.23,0,.47,0,.71a3.65,3.65,0,0,0,.09,1.47.72.72,0,0,1,0,.33c0,.62,0,1.25,0,1.87,0,.25,0,.51,0,.77,0,.94-.09,1.88-.11,2.82a2.46,2.46,0,0,0,.16.69,1.16,1.16,0,0,1,.07.37c0,.67,0,1.34,0,2s0,1.49.07,2.23c0,.13,0,.25,0,.38C4,63.52,4,64,4,64.5s0,.82-.05,1.23-.07.92-.1,1.38,0,.82,0,1.23c0,.19.08.37.09.56a2.25,2.25,0,0,0,.2,1.17.77.77,0,0,1,.06.28c.09.44.17.88.27,1.31s.29.85,0,1.3c0,.07,0,.18,0,.28a4.37,4.37,0,0,1,0,1.8,3.25,3.25,0,0,0,0,1.55A13.08,13.08,0,0,1,5,78.06a5.59,5.59,0,0,1,.34,1.72.48.48,0,0,0,0,.14c.07.22.15.44.2.67a5.68,5.68,0,0,0,.59,2,2.85,2.85,0,0,1,.18.54A11.52,11.52,0,0,0,7,84.58c.38.65.85,1.24,1.28,1.86a.56.56,0,0,1,.07.18A2.2,2.2,0,0,0,9,87.83a1.85,1.85,0,0,1,.4.86,2.12,2.12,0,0,0,.28.59c.07.11.2.18.24.3.22.69.82,1.18,1,1.9a.72.72,0,0,0,.16.24c.57.69,1.16,1.37,1.71,2.07.19.25.54.2.68.41a3.83,3.83,0,0,0,.42.73c.67.65,1.32,1.3,2,2s1,1.22,1.55,1.82,1.24,1.38,1.89,2a6,6,0,0,0,.85.62c.61.46,1.2.94,1.82,1.39a6.38,6.38,0,0,0,1.57.93l3.19,1.2a2.19,2.19,0,0,1,.29.17c.2.12.4.26.61.37.5.25,1,.48,1.51.72l.91.42,3.74,1.78a4.2,4.2,0,0,0,.77.37,11.8,11.8,0,0,0,1.79.35c1.08.1,2.17.13,3.26.19.53,0,1.06.12,1.58.1.91,0,1.82-.12,2.73-.22.7-.08,1.39-.22,2.09-.32.54-.07,1.08-.16,1.62-.2s1.05,0,1.58,0a6,6,0,0,0,.94-.16c.26,0,.5-.14.75-.18a22.75,22.75,0,0,0,2.82-.58c.93-.26,1.87-.47,2.8-.71l1.38-.38a15.9,15.9,0,0,0,1.7-.51c.78-.33,1.53-.73,2.29-1.11a9.05,9.05,0,0,0,.8-.45c.69-.46,1.35-1,2.08-1.37.57-.3,1-.73,1.59-1a19.49,19.49,0,0,0,2.33-1.69c1.21-1,2.38-2.06,3.55-3.11.34-.31.63-.68.94-1s.74-.8,1.09-1.22a11.24,11.24,0,0,0,.79-1c.41-.62.83-1.25,1.18-1.91A6.08,6.08,0,0,1,76.94,91a3.91,3.91,0,0,0,.6-.86,3.18,3.18,0,0,1,.55-.94,1.08,1.08,0,0,0,.18-.44,8.53,8.53,0,0,1,.92-2.26,3.44,3.44,0,0,0,.28-.65c.07-.18.13-.37.21-.54l.61-1.41c.16-.4.33-.8.47-1.21a4,4,0,0,0,.36-1.24,2.13,2.13,0,0,1,.13-.46c.09-.4.17-.81.26-1.22a1.43,1.43,0,0,1,.07-.28,25,25,0,0,0,.94-3.62,1.93,1.93,0,0,0,0-.34c0-.27,0-.54,0-.81.08-.91.17-1.82.26-2.73,0-.32,0-.63.08-1,.05-.66.13-1.31.14-2,0-1,0-2,0-2.93,0-.24,0-.48,0-.72a4.91,4.91,0,0,1,0-1.15,11.89,11.89,0,0,0,.29-2.85c0-1.19,0-2.37,0-3.55s-.07-2.63-.05-3.94A8.86,8.86,0,0,0,83,51.33.94.94,0,0,1,83,51c0-.52.08-1,.07-1.57a28.64,28.64,0,0,1,0-2.93,31.94,31.94,0,0,1,.18-3.39v0c0-.72,0-1.44,0-2.16,0-.31,0-.63,0-.95s0-.87,0-1.3a2.42,2.42,0,0,1,0-.38,16.62,16.62,0,0,0,0-2.64c0-.68,0-1.37,0-2.06a7.55,7.55,0,0,0,0-1.9,2.14,2.14,0,0,1,0-.62c0-.46.08-.92.08-1.38s-.06-1.22,0-1.83a15,15,0,0,1-.1-1.9,11.13,11.13,0,0,0,0-1.53,2.56,2.56,0,0,0,0-.39c0-.33,0-.66,0-1s0-.38,0-.57a6.23,6.23,0,0,0,0-1.14A7.31,7.31,0,0,1,83,19.27a9.75,9.75,0,0,0,0-1.53,8.51,8.51,0,0,1,.05-1.82,2.34,2.34,0,0,0,0-.53c0-.44-.06-.89-.08-1.33a2.69,2.69,0,0,0,0-.9,1.68,1.68,0,0,1,0-.91,4.63,4.63,0,0,0,0-1.05,2.75,2.75,0,0,1,.09-1.14,1.81,1.81,0,0,0,0-.57c0-.58-.12-1.17-.13-1.75C83,7,83,6.18,83,5.4a2.41,2.41,0,0,0-.11-.76.62.62,0,0,1,0-.59A.43.43,0,0,0,83,3.83c0-.39,0-.77-.07-1.15s0-.38-.39-.39a2.37,2.37,0,0,1-1.09-.12.41.41,0,0,0-.19,0A6,6,0,0,1,79,2.31l-.15-.41Zm.28-1a3.41,3.41,0,0,0-.56.06c-.13,0-.17.21-.06.26a.77.77,0,0,0,.45,0C78.86,1.58,78.89,1.44,79,1.28ZM4.05,14.5l0-.09-.21-.1,0,.08Zm75.68-13c0-.05-.07-.1-.11-.11s-.08,0-.11,0,0,.09.07.1S79.66,1.46,79.73,1.45Z"/><path class="cls-1" d="M78.69,2.31l.16-.41.15.41a6,6,0,0,0,2.24-.13.41.41,0,0,1,.19,0,2.37,2.37,0,0,0,1.09.12c.34,0,.36,0,.39.39s0,.76.07,1.15a.43.43,0,0,1-.06.22.62.62,0,0,0,0,.59A2.41,2.41,0,0,1,83,5.4c0,.78,0,1.56,0,2.34,0,.58.09,1.17.13,1.75a1.81,1.81,0,0,1,0,.57A2.75,2.75,0,0,0,83,11.2a4.63,4.63,0,0,1,0,1.05,1.68,1.68,0,0,0,0,.91,2.69,2.69,0,0,1,0,.9c0,.44.06.89.08,1.33a2.34,2.34,0,0,1,0,.53,8.51,8.51,0,0,0-.05,1.82,9.75,9.75,0,0,1,0,1.53,7.31,7.31,0,0,0,.13,2.09,6.23,6.23,0,0,1,0,1.14c0,.19,0,.38,0,.57s0,.66,0,1a2.56,2.56,0,0,1,0,.39,11.13,11.13,0,0,1,0,1.53,15,15,0,0,0,.1,1.9c0,.61,0,1.22,0,1.83s-.06.92-.08,1.38a2.14,2.14,0,0,0,0,.62,7.55,7.55,0,0,1,0,1.9c0,.69,0,1.38,0,2.06a16.62,16.62,0,0,1,0,2.64,2.42,2.42,0,0,0,0,.38c0,.43,0,.87,0,1.3s0,.64,0,.95c0,.72,0,1.44,0,2.16v0A31.94,31.94,0,0,0,83,46.54a28.64,28.64,0,0,0,0,2.93c0,.52,0,1.05-.07,1.57a.94.94,0,0,0,0,.29A8.86,8.86,0,0,1,83.21,54c0,1.31,0,2.62.05,3.94s0,2.36,0,3.55A11.89,11.89,0,0,1,83,64.29a4.91,4.91,0,0,0,0,1.15c0,.24,0,.48,0,.72,0,1,0,2,0,2.93,0,.66-.09,1.31-.14,2,0,.32,0,.63-.08,1-.09.91-.18,1.82-.26,2.73,0,.27,0,.54,0,.81a1.93,1.93,0,0,1,0,.34,25,25,0,0,1-.94,3.62,1.43,1.43,0,0,0-.07.28c-.09.41-.17.82-.26,1.22a2.13,2.13,0,0,0-.13.46,4,4,0,0,1-.36,1.24c-.14.41-.31.81-.47,1.21l-.61,1.41c-.08.17-.14.36-.21.54a3.44,3.44,0,0,1-.28.65,8.53,8.53,0,0,0-.92,2.26,1.08,1.08,0,0,1-.18.44,3.18,3.18,0,0,0-.55.94,3.91,3.91,0,0,1-.6.86,6.08,6.08,0,0,0-.75,1.12c-.35.66-.77,1.29-1.18,1.91a11.24,11.24,0,0,1-.79,1c-.35.42-.72.81-1.09,1.22s-.6.71-.94,1c-1.17,1.05-2.34,2.1-3.55,3.11a19.49,19.49,0,0,1-2.33,1.69c-.55.32-1,.75-1.59,1-.73.39-1.39.91-2.08,1.37a9.05,9.05,0,0,1-.8.45c-.76.38-1.51.78-2.29,1.11a15.9,15.9,0,0,1-1.7.51l-1.38.38c-.93.24-1.87.45-2.8.71a22.75,22.75,0,0,1-2.82.58c-.25,0-.49.13-.75.18a6,6,0,0,1-.94.16c-.53,0-1.06,0-1.58,0s-1.08.13-1.62.2c-.7.1-1.39.24-2.09.32-.91.1-1.82.18-2.73.22-.52,0-1-.07-1.58-.1-1.09-.06-2.18-.09-3.26-.19a11.8,11.8,0,0,1-1.79-.35,4.2,4.2,0,0,1-.77-.37L30,106.59l-.91-.42c-.5-.24-1-.47-1.51-.72-.21-.11-.41-.25-.61-.37a2.19,2.19,0,0,0-.29-.17l-3.19-1.2a6.38,6.38,0,0,1-1.57-.93c-.62-.45-1.21-.93-1.82-1.39a6,6,0,0,1-.85-.62c-.65-.67-1.27-1.36-1.89-2s-1-1.23-1.55-1.82-1.28-1.32-2-2a3.83,3.83,0,0,1-.42-.73c-.14-.21-.49-.16-.68-.41-.55-.7-1.14-1.38-1.71-2.07a.72.72,0,0,1-.16-.24c-.16-.72-.76-1.21-1-1.9,0-.12-.17-.19-.24-.3a2.12,2.12,0,0,1-.28-.59,1.85,1.85,0,0,0-.4-.86,2.2,2.2,0,0,1-.64-1.21.56.56,0,0,0-.07-.18c-.43-.62-.9-1.21-1.28-1.86a11.52,11.52,0,0,1-.61-1.44,2.85,2.85,0,0,0-.18-.54,5.68,5.68,0,0,1-.59-2c0-.23-.13-.45-.2-.67a.48.48,0,0,1,0-.14A5.59,5.59,0,0,0,5,78.06a13.08,13.08,0,0,0-.45-1.47,3.25,3.25,0,0,1,0-1.55,4.37,4.37,0,0,0,0-1.8c0-.1-.07-.21,0-.28.24-.45,0-.87,0-1.3s-.18-.87-.27-1.31a.77.77,0,0,0-.06-.28A2.25,2.25,0,0,1,4,68.9c0-.19-.08-.37-.09-.56,0-.41,0-.82,0-1.23s.07-.92.1-1.38S4,64.91,4,64.5,4,63.52,3.92,63c0-.13,0-.25,0-.38,0-.74-.07-1.49-.07-2.23s0-1.34,0-2A1.16,1.16,0,0,0,3.76,58a2.46,2.46,0,0,1-.16-.69c0-.94.08-1.88.11-2.82,0-.26,0-.52,0-.77,0-.62,0-1.25,0-1.87a.72.72,0,0,0,0-.33,3.65,3.65,0,0,1-.09-1.47c0-.24,0-.48,0-.71,0-.63,0-1.25,0-1.87.06-.92.17-1.84.26-2.76,0-.23,0-.47,0-.71,0-.93,0-1.86,0-2.79,0-.24,0-.48,0-.72a1.54,1.54,0,0,1,0-.43A9.36,9.36,0,0,0,4,38.35a4.21,4.21,0,0,1,0-.62A10.3,10.3,0,0,0,4.19,35a1.55,1.55,0,0,1,0-.43,10.26,10.26,0,0,0,0-2.35,5.78,5.78,0,0,1,0-.72c.1-.87.06-1.75.2-2.63a11.78,11.78,0,0,0,.21-1.16c0-.65,0-1.31,0-2,0-.24,0-.48,0-.72a10.3,10.3,0,0,0,0-2.15c0-.14,0-.29,0-.43a2.81,2.81,0,0,0,0-.77,2.89,2.89,0,0,1,0-1.46,1,1,0,0,0,0-.24c0-.8-.07-1.6,0-2.39.06-.94-.06-1.85-.07-2.78a2.38,2.38,0,0,1,.06-.37c0-.08.08-.17.06-.23-.12-.4.07-.77.06-1.15s-.06-.8,0-1.2.11-.66.14-1a9.41,9.41,0,0,0,0-1.3C4.76,8.61,5,7.7,5,6.78c0-.31,0-.61,0-.91-.07-.82.21-1.62.18-2.43a.45.45,0,0,1,.06-.28,1.29,1.29,0,0,0,.26-.81c0-.23.15-.29.35-.29a4.93,4.93,0,0,1,1.57.18,5.6,5.6,0,0,0,1.22.17c.71,0,1.41,0,2.12,0s1.14.06,1.71.05c.85,0,1.69-.09,2.55-.05.38,0,.78,0,1.18,0a1.92,1.92,0,0,1,.3,0c0,.66,0,1.29,0,1.92,0,.8,0,1.6,0,2.4s-.07,1.53,0,2.29a12,12,0,0,0,0,1.47c0,.17-.06.37-.07.56s0,.64,0,.95,0,.41-.05.61,0,.48,0,.72,0,.73,0,1.1c0,.16,0,.32.06.47a1,1,0,0,1,0,.28,8.93,8.93,0,0,0-.07,2,20.13,20.13,0,0,1-.12,2,2.44,2.44,0,0,1-.2.57,1.12,1.12,0,0,1,.14.92,3.9,3.9,0,0,0,0,.9c0,.48,0,1,0,1.43s0,.86.06,1.29a4.75,4.75,0,0,1-.08,1.76,2.3,2.3,0,0,0,0,.94,10.64,10.64,0,0,1-.2,2.76,1.29,1.29,0,0,0,0,.34,1.32,1.32,0,0,1,0,.28,23.41,23.41,0,0,0-.07,2.78c-.05.61-.08,1.23-.11,1.85a1.86,1.86,0,0,0,0,.67,2.07,2.07,0,0,1,0,1c0,.06-.06.13,0,.18.18.75-.21,1.49,0,2.24a2.86,2.86,0,0,1,0,1.09,8.3,8.3,0,0,0,.06,1.49c0,.08.06.16,0,.23a21.06,21.06,0,0,0-.08,2.25,3.54,3.54,0,0,0,0,.86,3.66,3.66,0,0,1,0,1.19c0,.23.07.49,0,.72a18,18,0,0,0,0,2.2c0,.43-.07.85-.09,1.28s0,.8,0,1.2c0,.62-.06,1.24-.08,1.86s0,1.12,0,1.68a3.79,3.79,0,0,1-.11,1.57c0,.09,0,.22,0,.33a3.81,3.81,0,0,1-.11,1.61.9.9,0,0,0,0,.28c0,1,0,2,0,2.92a2.43,2.43,0,0,0,.18,1.22.77.77,0,0,1,.06.23c.06.44.14.89.18,1.33a16.4,16.4,0,0,1,0,3.21,9.8,9.8,0,0,0,.08,1.43,4.91,4.91,0,0,1,0,.86,2.81,2.81,0,0,0,.06,1,8.78,8.78,0,0,1,.3,1.75,6.85,6.85,0,0,0,.36,1.64,11.36,11.36,0,0,0,.72,2.13c.1.18.05.42.12.61.24.67.51,1.34.76,2a.55.55,0,0,1,.07.23,1.61,1.61,0,0,0,.36.87,1.22,1.22,0,0,1,.2.57,1.34,1.34,0,0,0,.29.79,3.75,3.75,0,0,1,.61,1.13A5.52,5.52,0,0,0,21,85.55c.46.44.84,1,1.31,1.39.7.64,1.47,1.2,2.16,1.83A14.71,14.71,0,0,1,25.56,90c.09.1.15.21.24.3.55.49,1.12,1,1.64,1.48a4.59,4.59,0,0,0,1.25.89,5.05,5.05,0,0,1,1.15.87,5.42,5.42,0,0,0,2.08,1c.42.12.82.28,1.23.41.8.26,1.59.52,2.39.76.33.1.69.13,1,.21s.42.14.64.21a.73.73,0,0,0,.32.09,9.15,9.15,0,0,1,2,.38c.1,0,.2.08.28,0a3.51,3.51,0,0,1,1.37,0c.61,0,1.22,0,1.83,0a8.46,8.46,0,0,0,1-.15l3.43-.43A5.73,5.73,0,0,0,48,96a6.3,6.3,0,0,1,.75-.18c.76-.07,1.53-.11,2.3-.17a1.22,1.22,0,0,0,.42-.09,5.52,5.52,0,0,1,2-.37,2.79,2.79,0,0,0,1.35-.43,2.81,2.81,0,0,1,1-.33,1.06,1.06,0,0,0,.65-.28A.28.28,0,0,1,56.6,94a5.58,5.58,0,0,0,1.66-1.14s0,0,0,0a2.14,2.14,0,0,0,1.1-.92,4.29,4.29,0,0,1,1.05-.82c.07,0,.17-.06.21-.12a7.21,7.21,0,0,1,1.48-1.28,7.51,7.51,0,0,0,.59-.75,7.22,7.22,0,0,0,.79-.88,2.88,2.88,0,0,1,.72-.94,12.93,12.93,0,0,0,1.2-1,2.45,2.45,0,0,0,.38-.6c.08-.14.13-.29.2-.43.47-1,.94-1.89,1.42-2.83.36-.71.76-1.41,1.1-2.13a6.44,6.44,0,0,0,.37-1,6.63,6.63,0,0,1,.51-1.54A5.64,5.64,0,0,0,70,76.12a15.41,15.41,0,0,0,.23-1.66c0-.3,0-.61.08-.91a1.29,1.29,0,0,0,0-.19,25.54,25.54,0,0,1,.28-2.76,3.54,3.54,0,0,1,.13-.71c0-.22,0-.44.07-.66a4.91,4.91,0,0,1,0-.86,6.57,6.57,0,0,0,.1-1.53c0-.87-.07-1.73-.11-2.59,0-.1,0-.2,0-.29a2.7,2.7,0,0,0,0-.7,1.36,1.36,0,0,1,0-.8.67.67,0,0,0,0-.42,2.74,2.74,0,0,1,0-1.65c0-.31.06-.63.08-1A1.91,1.91,0,0,1,71,58.5a.57.57,0,0,0,0-.32,6.58,6.58,0,0,1-.15-2.38,1.59,1.59,0,0,0,0-.38c0-1.23-.07-2.46-.1-3.7,0-.36,0-.73,0-1.1,0-.94,0-1.88-.06-2.83,0-.73-.07-1.47-.07-2.21,0-.41.08-.82.12-1.24,0-.24,0-.48,0-.72,0-1,.09-1.92.11-2.88,0-.5,0-1,0-1.49,0-.86,0-1.72,0-2.58.06-1.07,0-2.14,0-3.21,0-.74,0-1.48,0-2.22,0-1.15,0-2.3,0-3.45,0-.9.08-1.79.12-2.68a1.93,1.93,0,0,0,0-.34,3,3,0,0,1,0-1c.08-.58,0-1.18.09-1.77A7.11,7.11,0,0,0,71,20.43a6.91,6.91,0,0,1,0-.91c0-.46-.06-.92-.12-1.38a12.75,12.75,0,0,1,0-2.83c.08-1,0-2,.06-2.92a10.21,10.21,0,0,1,.12-1.24,5.84,5.84,0,0,0,0-1.67c-.06-.59,0-1.18,0-1.77,0-1.12,0-2.24-.05-3.36,0-.44,0-.87,0-1.3s.14-.57.59-.6a16.83,16.83,0,0,1,2.25-.05c.61.05,1.24,0,1.86,0s1.43,0,2.15,0A7.84,7.84,0,0,0,78.69,2.31Z"/></svg>