<svg id="V" xmlns="http://www.w3.org/2000/svg" viewBox="0 0 86 112"><defs><style>.cls-1{stroke:#000;stroke-miterlimit:10;}</style></defs><path class="cls-1" d="M17.56.94c.37.73,1,1.26,1.17,2.11A2.81,2.81,0,0,0,19,3.7a1.79,1.79,0,0,1,.23,1,.22.22,0,0,0,.06.17A5.52,5.52,0,0,1,20,6.65a2.31,2.31,0,0,1,.1.28l.54,1.44c.08.23.18.45.27.67a2.58,2.58,0,0,1,.37,1.08c0,.22.2.43.3.65a1.81,1.81,0,0,1,.29,1.06,1,1,0,0,0,.05.38c.14.62.28,1.23.43,1.84.05.18.12.36.17.55a2.54,2.54,0,0,1,.1.37,4.92,4.92,0,0,0,.11.77,5.83,5.83,0,0,0,.7,1.74,1.59,1.59,0,0,1,.16.4.58.58,0,0,1,0,.14c.24.63.48,1.26.7,1.9.06.18.08.37.13.56.27,1,.52,2.07.81,3.09.15.55.36,1.07.56,1.61.31.88.65,1.75.95,2.64s.69,1.95.93,3a27.22,27.22,0,0,1,.73,2.86,6.85,6.85,0,0,0,.4,1.09,2.45,2.45,0,0,1,.08.37c0,.21,0,.42.21.57s.06.2.09.31l.24.83c0,.09.11.18.1.26-.12.68.44,1.19.47,1.83a.21.21,0,0,0,.07.12,2.57,2.57,0,0,1,.5,1.3,17,17,0,0,0,.68,2.37,4.53,4.53,0,0,1,.41,1.36,12.38,12.38,0,0,0,.46,1.61c.05.3.15.6.22.89a2.51,2.51,0,0,0,.39,1,3.2,3.2,0,0,1,.37,1.19c.12.5.23,1,.34,1.51,0,.06.07.12.06.18a1,1,0,0,0,.2.76,1.8,1.8,0,0,1,.2.78,7.13,7.13,0,0,0,.46,2,2.36,2.36,0,0,1,.33.94c0,.78.45,1.4.54,2.13a13.4,13.4,0,0,0,.83,2.63c.23.7.61,1.35.88,2,.18.46.29.95.43,1.43,0,.12,0,.28.08.37.32.39.23.93.48,1.34a.56.56,0,0,1,.05.23,4.61,4.61,0,0,0,.18.94,23,23,0,0,1,.7,2.42c.1.29.21.58.33.86a5.53,5.53,0,0,1,.39,1.19,4.45,4.45,0,0,0,.62,1.72c.08.12.06.29.1.42.19.5.39,1,.56,1.48a6,6,0,0,1,.31,1,.92.92,0,0,0,.29.68s0,.16,0,.23A4.68,4.68,0,0,0,42,77.5a4.55,4.55,0,0,1,.27.73c.19.49.39,1,.58,1.48H43c.12-.25.23-.5.35-.76.39-.89.79-1.77,1.16-2.67a3,3,0,0,0,.39-1.38.18.18,0,0,1,0-.14,4.54,4.54,0,0,0,.64-1.54c.28-1,.66-1.9,1-2.84.09-.28.17-.56.25-.84,0-.06,0-.13,0-.19.18-.45.38-.89.53-1.34s.17-.76.28-1.13.24-.8.36-1.2.24-.84.36-1.26.2-.83.33-1.24c.23-.71.49-1.4.71-2.11s.36-1.31.55-2,.39-1.34.58-2a22.91,22.91,0,0,0,.77-2.69,7,7,0,0,1,.41-1.25c.18-.53.39-1.06.57-1.6.09-.27.14-.56.23-.84s.34-.84.46-1.27a18.26,18.26,0,0,0,.83-2.82c.07-.59.15-1.17.22-1.76a.38.38,0,0,1,.08-.17c0-.07.11-.12.13-.2.15-.49.28-1,.42-1.48.09-.31.17-.62.26-.93.2-.66.41-1.33.62-2,.11-.35.18-.72.32-1.06a23.77,23.77,0,0,1,.84-2.32,3.07,3.07,0,0,0,.2-.75c.07-.26.14-.52.2-.78,0-.08.08-.17.06-.23-.15-.34.1-.6.17-.88a6.39,6.39,0,0,1,.55-1.39c.26-.51.33-1.09.57-1.58.35-.75.4-1.59.79-2.31a22.15,22.15,0,0,1,.9-3.11,12.44,12.44,0,0,1,.6-1.53c.21-.58.4-1.17.59-1.76.28-.87.54-1.75.83-2.62a5.6,5.6,0,0,1,.33-.7,6.92,6.92,0,0,0,.41-2,3.15,3.15,0,0,1,.13-.61c.22-.66.46-1.32.68-2,0-.11,0-.23,0-.34a6.5,6.5,0,0,1,.22-.62c.16-.41.33-.81.48-1.21A8.77,8.77,0,0,0,64.88,11a3.6,3.6,0,0,0,.05-1.18,7.14,7.14,0,0,1,0-1.79,7.67,7.67,0,0,1,.26-1.52A4.18,4.18,0,0,1,66,4.64a.86.86,0,0,0,.16-.3c.45-.94.75-2,1.29-2.87a.87.87,0,0,1,1-.49c.14,0,.31.07.41,0A3.74,3.74,0,0,1,70.88.71l1.21,0a12.39,12.39,0,0,1,2.43.14A6.2,6.2,0,0,0,76.06.79a1.93,1.93,0,0,1,.33,0,3.55,3.55,0,0,0,1.3,0c.45-.05.91,0,1.36-.05L81.77.61c.18,0,.35,0,.53,0a2.09,2.09,0,0,0,.43,0,.92.92,0,0,1,1.1,1.05c0,.1,0,.24-.09.27-.39.19-.32.6-.45.91s-.13.33-.19.5-.1.27-.14.4a5.12,5.12,0,0,1-.21.59,2.55,2.55,0,0,0-.44,1.41.17.17,0,0,1-.06.12c-.24.15-.11.34,0,.52a.88.88,0,0,0-.42,1c0,.06,0,.13,0,.19-.2.46-.41.92-.6,1.38a1.89,1.89,0,0,0-.19.55,28.63,28.63,0,0,1-.79,3.29c-.1.47-.21.95-.34,1.42a10.9,10.9,0,0,1-.6,1.52,9,9,0,0,0-.51,1.81c0,.06,0,.14,0,.19a10.1,10.1,0,0,0-.56,1.85c-.1.37-.19.75-.3,1.12a10.5,10.5,0,0,0-.32,1.05A6.32,6.32,0,0,1,77,23.56c-.18.35-.16.79-.51,1.07-.08.07,0,.29-.06.42s-.21.51-.29.77,0,.38-.07.56-.19.59-.27.88c-.14.52-.28,1-.37,1.58a10,10,0,0,1-.48,1.46c-.08.24-.15.49-.22.74a1.53,1.53,0,0,1-.08.37,4.54,4.54,0,0,0-.27,1.2,5.54,5.54,0,0,1-.73,2,.26.26,0,0,0,0,.22c.13.29,0,.52-.13.74a9.5,9.5,0,0,1-.5.88c0,.08-.09.22-.06.27.28.38.08.77,0,1.09a7.44,7.44,0,0,0-.55,1.89,6.94,6.94,0,0,1-.54,1.8,6.91,6.91,0,0,0-.22.74c-.06.26-.13.53-.2.8-.19.72-.39,1.44-.57,2.16-.07.26-.11.53-.17.8,0,.07,0,.18-.06.22-.44.42-.48,1-.77,1.5a.18.18,0,0,0,0,.09,6.61,6.61,0,0,1-.41,1.57c0,.17,0,.35-.08.52a1.35,1.35,0,0,1,0,.29c-.17.48-.36,1-.54,1.45s-.25.8-.39,1.19-.29.68-.41,1-.12.53-.18.8c0,.09,0,.22,0,.28a1.77,1.77,0,0,0-.29.76c-.38,1.31-.75,2.62-1.13,3.93-.06.22-.08.45-.15.66a5.36,5.36,0,0,1-.41,1.07,1.82,1.82,0,0,0-.15,1.09,2.53,2.53,0,0,1-.32,1.25,2.7,2.7,0,0,0-.34,1.14,1,1,0,0,1-.15.46,3.56,3.56,0,0,0-.39,1.09,10.83,10.83,0,0,1-.64,2c-.21.46-.31,1-.53,1.41a9.67,9.67,0,0,0-.4,1.69c0,.14,0,.31,0,.45s-.17.47-.24.71c-.13.49-.25,1-.38,1.47a3.21,3.21,0,0,0-.17.66,8.12,8.12,0,0,1-.66,2.37,4.45,4.45,0,0,1-.71,1.47.66.66,0,0,0-.09.32,5.66,5.66,0,0,1-.39,1.45c-.22.5-.35,1-.54,1.56a8.1,8.1,0,0,1-.39.78.78.78,0,0,0-.13.3,6.32,6.32,0,0,1-.47,1.83c-.17.6-.29,1.22-.43,1.84,0,0,0,.07,0,.09-.39.64-.29,1.43-.65,2.07a1.43,1.43,0,0,0-.1.42c-.05.21-.09.41-.15.61-.16.5-.34,1-.49,1.48a1.58,1.58,0,0,0-.08.57.93.93,0,0,1-.28.84.33.33,0,0,0-.07.13c-.25.82-.51,1.64-.74,2.47s-.43,1.86-.71,2.78-.58,1.6-.88,2.41a1.25,1.25,0,0,0-.15.36,11.41,11.41,0,0,1-.74,2.46c-.18.61-.37,1.23-.53,1.86,0,.14,0,.29-.07.43a3.18,3.18,0,0,1-.13.51c-.1.27-.24.53-.32.81,0,.11-.22.47-.38.78-.48.9-1.39,2.62-2,2.49-.32-.07-.21-.82-.75-.79s-.84.07-1.26.08l-2.23.06c-.09,0-.18,0-.25,0-.5.26-1,.06-1.57.14-.09,0-.19,0-.29,0H41.79l-1.07,0-2.19,0h-.39c-.28,0-.3.21-.52.28a1.3,1.3,0,0,1-1-.28c-.09,0,0-.11-.4-.3a1.4,1.4,0,0,1-.75-1,3.16,3.16,0,0,0-.6-1.46,2.11,2.11,0,0,1-.41-1.07,7.24,7.24,0,0,0-.37-1.26c-.2-.61-.43-1.22-.64-1.83l-.66-2a2.36,2.36,0,0,1-.1-.38c-.09-.56-.16-1.12-.27-1.67a2.8,2.8,0,0,0-.27-.73,2.21,2.21,0,0,1-.34-1.15,1.2,1.2,0,0,0-.06-.33c-.15-.43-.33-.85-.46-1.28-.41-1.32-.79-2.64-1.19-4-.31-1.06-.61-2.12-.94-3.17-.11-.35-.26-.69-.4-1a5.21,5.21,0,0,1-.47-1.92,4.12,4.12,0,0,0-.22-1c-.14-.52-.3-1-.47-1.53-.31-.89-.64-1.77-.92-2.67-.12-.35-.13-.73-.24-1.08s-.26-.66-.39-1c-.23-.57-.45-1.13-.66-1.7s-.33-1-.48-1.43a18.33,18.33,0,0,1-.67-2.38c-.1-.63-.31-1.22-.43-1.84a.93.93,0,0,1-.05-.24,6.11,6.11,0,0,0-.84-2.45,2.75,2.75,0,0,1-.15-.36,3.92,3.92,0,0,0-.43-1.33.08.08,0,0,1,0,0,6.33,6.33,0,0,0-.49-1.71c-.1-.37-.18-.74-.26-1.12-.12-.57-.24-1.14-.37-1.71a2.17,2.17,0,0,0-.12-.36,7.14,7.14,0,0,1-.46-1.64c-.07-.39-.33-.74-.43-1.13a11.59,11.59,0,0,1-.65-2.27A5.42,5.42,0,0,0,19.14,55a6,6,0,0,1-.45-2.12,1.31,1.31,0,0,0-.06-.38c-.07-.28-.15-.56-.22-.84-.12-.44-.25-.87-.36-1.31A4.16,4.16,0,0,0,17.56,49a5.41,5.41,0,0,1-.27-.86c-.37-.92-.63-1.87-.94-2.81s-.74-1.9-1.12-2.84c0-.11-.13-.21-.13-.31a11,11,0,0,0-.65-2.47c-.27-1-.62-2-.94-3.06-.17-.53-.32-1.06-.51-1.57s-.42-1-.65-1.56a2.58,2.58,0,0,1-.29-1.25A.51.51,0,0,0,12,32a8.91,8.91,0,0,1-.58-1.48,1.94,1.94,0,0,1-.2-.7,7.51,7.51,0,0,0-.47-1.53c-.23-.75-.44-1.52-.68-2.27-.13-.39-.29-.76-.44-1.13s-.22-.64-.34-1a5.5,5.5,0,0,0-.28-.6,2.59,2.59,0,0,1-.3-1.22,1.26,1.26,0,0,0-.13-.54,1.54,1.54,0,0,1-.32-1c0-.16-.1-.33-.15-.51-.19-.71-.33-1.45-.59-2.15s-.29-1.55-.63-2.28a7.06,7.06,0,0,1-.31-1.61,2.58,2.58,0,0,0,0-.29,9.8,9.8,0,0,1-.27-1.22,8.18,8.18,0,0,0-.55-1.85A30.43,30.43,0,0,1,4.55,7.11a22.22,22.22,0,0,0-1-2.95A4.44,4.44,0,0,1,3,2.56C3,2.29,3,2,3,1.74a.35.35,0,0,1,.07-.23c.3-.27.54-.67,1.06-.53a1.22,1.22,0,0,0,.38,0,18.7,18.7,0,0,1,2.7.11c.63,0,1.27.14,1.89.11,1.5-.08,3,.09,4.48.09.75,0,1.5-.09,2.24-.06A3.2,3.2,0,0,0,17.56.94Zm1.36,46a2.31,2.31,0,0,0,0,.68c.17.48.38,1,.58,1.43a3.73,3.73,0,0,1,.36.68c.13.6.2,1.21.31,1.81s.15,1,.26,1.44c.18.83.57,1.61.71,2.46a2.59,2.59,0,0,0,.22.78,4.57,4.57,0,0,1,.39,1.29A2.75,2.75,0,0,0,22,58c.09.26.19.52.26.79.23.79.45,1.59.67,2.38.07.28.16.56.23.84.11.47.21.95.33,1.42a5.89,5.89,0,0,0,.34,1,5.1,5.1,0,0,1,.3.91c.17.66.39,1.3.59,1.94.09.3.19.59.29.87.24.65.53,1.29.72,2s.25,1.37.4,2a11.22,11.22,0,0,0,.9,2.75,8.13,8.13,0,0,1,.49,1.27c.19.56.3,1.15.53,1.71.4,1,.59,2,1.06,3a15.09,15.09,0,0,1,.6,1.94,7.27,7.27,0,0,1,.5,2.26c0,.09.06.18.1.27a1,1,0,0,1,.09.27,4.12,4.12,0,0,0,.46,1.82,8,8,0,0,1,.52,1.25,4.22,4.22,0,0,0,.52,1.19.4.4,0,0,1,.07.18c.09.38.15.76.25,1.14.34,1.33.67,2.67,1,4,.09.31.1.7.41.91s.19.31.23.5a7.9,7.9,0,0,0,.2.84c0,.13.07.25.11.37s.11.37.18.55a1.43,1.43,0,0,1,.22,1.1.65.65,0,0,0,0,.33c.15.52.33,1,.43,1.55a9.19,9.19,0,0,0,.68,1.86c.07.18.14.36.2.54A9.16,9.16,0,0,0,36.8,106a1.94,1.94,0,0,1,.22.68,1.12,1.12,0,0,0,.58.91,2.15,2.15,0,0,0,.8.16c1,0,2,0,3,0,1.39,0,2.79,0,4.19-.08l1.79-.09c.3,0,.61,0,.91,0,.64,0,1.31.06,1.53-.77,0-.06.09-.1.12-.16.26-.56.57-1.1.77-1.67.26-.73.44-1.49.66-2.23,0-.07.07-.12.09-.18.16-.41.34-.81.46-1.22.21-.79.36-1.58.58-2.36.11-.37.37-.69.49-1,.2-.6.36-1.21.51-1.82A6.22,6.22,0,0,0,54,94.24a.82.82,0,0,1,.07-.33c.2-.67.38-1.34.6-2,.28-.85.53-1.7.81-2.54a13.66,13.66,0,0,0,.82-3.45.65.65,0,0,1,.06-.24c.39-.84.49-1.77.88-2.62.3-.66.43-1.39.68-2.08.37-1.07.78-2.13,1.19-3.19a22.48,22.48,0,0,0,1.27-4.24c.06-.38.08-.78.17-1.15.13-.57.33-1.12.45-1.69.28-1.33.84-2.58,1.08-3.91a.41.41,0,0,1,0-.09A5,5,0,0,0,63,64.52c.26-.95.48-1.92.74-2.87.11-.44.27-.87.38-1.31.17-.65.3-1.32.48-2,.27-1,.58-2,.88-3,0-.13.08-.25.13-.37a8,8,0,0,0,.62-1.52c.17-.93.52-1.8.77-2.71.1-.34.24-.67.33-1,.16-.62.29-1.26.46-1.89a12.67,12.67,0,0,1,.49-1.47c.26-.59.58-1.15.87-1.73a.23.23,0,0,0,0-.14,7.85,7.85,0,0,1,.36-1.65,9.86,9.86,0,0,1,.37-1.25c.06-.18.06-.38.11-.57.14-.48.31-1,.44-1.43A4.91,4.91,0,0,1,71,38c0-.05,0-.15,0-.23s0-.25.07-.37.12-.33.17-.5c.14-.45.26-.9.4-1.34.09-.29.23-.57.33-.86s.28-.86.42-1.29c0-.08,0-.16,0-.23.08-.41.15-.82.23-1.23,0-.06.07-.12.09-.18s.13-.36.18-.55.09-.51.17-.75A23.39,23.39,0,0,0,74,26.89s0-.06,0-.09a26.07,26.07,0,0,1,1.6-4.41,5.8,5.8,0,0,0,.4-1.15c.18-.65.31-1.32.46-2a.29.29,0,0,1,0-.14,1.67,1.67,0,0,0,.26-.87,2.85,2.85,0,0,1,.48-1.46c.06-.08,0-.21.08-.32l.15-.6a3,3,0,0,0,.07-.32,2.57,2.57,0,0,1,.08-.4,8.4,8.4,0,0,0,.49-1.22c.09-.43.44-.78.34-1.25l0,0a8.25,8.25,0,0,1,.5-1.55s0-.1,0-.14c.19-.82.37-1.65.59-2.46.14-.51.4-1,.52-1.51a19.87,19.87,0,0,0,.64-2.16,1.28,1.28,0,0,1,.07-.28c.21-.6.42-1.19.65-1.77s-.2-.83-.61-.78a18.32,18.32,0,0,1-3,.13.76.76,0,0,0-.33.08.89.89,0,0,1-.66,0,1.91,1.91,0,0,0-.52-.1,12.38,12.38,0,0,1-2.79.08,6.74,6.74,0,0,0-1.55,0,2.14,2.14,0,0,1-.76,0,1.63,1.63,0,0,0-.76-.05,1.74,1.74,0,0,1-.75-.06c-.18,0-.32-.07-.45.05L68.53,3a.16.16,0,0,0,0,.1c.06.31-.21.44-.35.64s0,.55-.26.76a1,1,0,0,0-.28.44,6,6,0,0,0-.62,2,.82.82,0,0,1-.06.19,7.78,7.78,0,0,0-.18.94c0,.76,0,1.53-.07,2.29a3.32,3.32,0,0,1-.26,1.42,2.05,2.05,0,0,0-.28.77,5.67,5.67,0,0,1-.38,1.23,5.38,5.38,0,0,1-.36.87c.18.37-.07.66-.42.89.2.29,0,.53-.06.79a6,6,0,0,0-.19.6c-.07.3-.12.6-.17.9s-.08.51-.13.76a11.07,11.07,0,0,1-.28,1.27c-.14.45-.35.87-.49,1.31a18.87,18.87,0,0,0-.64,2,9.7,9.7,0,0,1-.66,1.77,7.93,7.93,0,0,1-.4.74c0,.11,0,.28,0,.45a7.13,7.13,0,0,1-.45,1.56c-.12.33-.18.69-.62.85.28.17.25.36.18.58-.24.8-.5,1.6-.68,2.42a7.9,7.9,0,0,1-.46,1.26c-.28.74-.54,1.49-.8,2.24-.05.16-.05.35-.09.52l-.42,1.39c-.05.14,0,.31-.13.41a.87.87,0,0,0-.18.53,1.86,1.86,0,0,1-.13.46c-.06.17-.14.33-.19.5-.33,1.07-.63,2.14-1,3.2a8.44,8.44,0,0,0-.48,1.7,6.06,6.06,0,0,1-.16.61c-.19.71-.39,1.42-.56,2.14-.12.47-.18,1-.31,1.42a4,4,0,0,0-.27,1.41c0,.09-.09.19-.14.3-.21.5-.45,1-.64,1.5-.24.67-.46,1.35-.68,2s-.5,1.57-.73,2.36-.42,1.5-.63,2.25c-.16.54-.32,1.09-.47,1.63s-.29,1-.45,1.49c-.27.83-.39,1.71-.74,2.53a14.93,14.93,0,0,0-.54,1.76c-.08.25-.15.49-.21.74a5.23,5.23,0,0,1-.26,1,7.42,7.42,0,0,0-.51,1.66,12.24,12.24,0,0,1-.58,2.11,8.19,8.19,0,0,0-1,2.93.47.47,0,0,1-.07.17c-.32.81-.66,1.61-1,2.42s-.67,1.85-1,2.77a1.18,1.18,0,0,1-.17.22,1.53,1.53,0,0,0-.18.29l-.87,2.37c-.06.15-.16.29-.22.43a6.56,6.56,0,0,0-.4,1,1.92,1.92,0,0,1-.31.7.93.93,0,0,1-1.52,0,1.75,1.75,0,0,1-.27-.61c-.16-.58-.29-1.17-.43-1.76a4.65,4.65,0,0,1-.29-1.62.73.73,0,0,0-.09-.31,1.84,1.84,0,0,1-.15-.36,12.44,12.44,0,0,0-.72-2c-.14-.39-.23-.8-.34-1.2a3.59,3.59,0,0,0-.12-.47c-.12-.31-.26-.62-.39-.93s-.27-.76-.41-1.15a5,5,0,0,1-.17-.55,3.26,3.26,0,0,0-.36-1.21,3.61,3.61,0,0,1-.36-.89,14.21,14.21,0,0,0-.73-2.32,2.72,2.72,0,0,1-.21-.85,11.81,11.81,0,0,0-.67-2.53c-.31-.88-.59-1.78-.94-2.65a16.88,16.88,0,0,0-.81-2.33,2.64,2.64,0,0,1-.26-.57q-.32-.9-.6-1.8c-.1-.32-.17-.66-.27-1l-.63-2.24a.09.09,0,0,1,0-.05,22.24,22.24,0,0,0-.77-3.3,6.1,6.1,0,0,1-.28-.82c-.1-.43-.15-.88-.23-1.32a4.87,4.87,0,0,0-.12-.52c-.07-.3-.14-.6-.22-.89a.88.88,0,0,0-.13-.3,1.12,1.12,0,0,1-.32-.92c0-.06,0-.13-.05-.19a5.78,5.78,0,0,1-.5-1.39c-.29-.88-.5-1.78-.75-2.67-.1-.35-.19-.69-.29-1q-.32-1.16-.66-2.31a.75.75,0,0,0-.07-.12,5.65,5.65,0,0,1-.37-.84c-.18-.65-.32-1.31-.47-2a4.07,4.07,0,0,0-.26-1.12,6.29,6.29,0,0,1-.55-1.44c-.21-.76-.51-1.5-.71-2.26a6.81,6.81,0,0,1-.53-1.94.43.43,0,0,0,0-.14c-.28-.77-.51-1.56-.81-2.33s-.62-1.83-.9-2.76a4.29,4.29,0,0,1,0-.74c-.09-.22-.24-.48-.33-.75-.24-.74-.43-1.49-.68-2.22a9.48,9.48,0,0,0-.74-1.9,7.64,7.64,0,0,1-.65-1.92c-.18-.64-.28-1.3-.41-1.95-.05-.24-.08-.48-.14-.71l-.54-2.46c0-.05,0-.11-.07-.17a5.35,5.35,0,0,1-.34-.73A6.54,6.54,0,0,0,19,8.65a4.92,4.92,0,0,1-.4-.94c-.2-.48-.38-1-.56-1.45,0-.11-.08-.21-.11-.32s-.1-.39-.16-.59a6,6,0,0,0-.22-.64c-.22-.51-.15-1.15-.72-1.49-.13-.47-.51-.46-.89-.47l-2.14-.1a2.16,2.16,0,0,0-.44,0,2.68,2.68,0,0,1-1.56,0c-.05,0-.13,0-.19,0-.25,0-.49,0-.73,0L8.5,2.58,5.39,2.52a2.59,2.59,0,0,0-.5.07,5,5,0,0,0,.67,2.1A4.21,4.21,0,0,1,6,6c.27.91.52,1.83.81,2.74.11.36.3.69.43,1s.29.86.41,1.3.27,1.07.39,1.61.09.84.21,1.24.2,1,.3,1.55a2.64,2.64,0,0,0,.15.55c.17.37.37.72.53,1.09A6.68,6.68,0,0,1,9.5,18a.37.37,0,0,0-.09.25,8.36,8.36,0,0,0,.3,1.22A8.09,8.09,0,0,1,10.19,21c.07.49.28,1,.37,1.45a15,15,0,0,0,.54,1.64,2.39,2.39,0,0,0,.29.44c.08.13.23.32.19.42-.1.26.05.4.17.56s.14.15.15.24a11.35,11.35,0,0,0,.58,2,.48.48,0,0,1,0,.24,3.66,3.66,0,0,0,.17,1.23,6.46,6.46,0,0,1,.17.7,3.71,3.71,0,0,0,.47,1.38,12.74,12.74,0,0,1,.6,1.36,5.11,5.11,0,0,1,.57,1.51s0,.05,0,.08c.21.57.65,1,.62,1.7a.39.39,0,0,0,.05.14,3.89,3.89,0,0,1,.44,1.28c0,.07.08.15.09.22a3.38,3.38,0,0,0,.59,1.45.29.29,0,0,1,0,.1A16.42,16.42,0,0,0,17,42c.11.38.26.76.41,1.14s.25.59.38.89.22.53.34.8a3.14,3.14,0,0,1,.38.94A1.65,1.65,0,0,0,18.92,46.89ZM81.36,6.6l-.08-.08-.56.26c.2.09.34.18.37.15A1.49,1.49,0,0,0,81.36,6.6ZM75.44,27.3c-.18-.08-.35-.18-.49.05a.23.23,0,0,0,.06.19C75.24,27.67,75.36,27.55,75.44,27.3Zm3.37-14.37a2.24,2.24,0,0,0,.48,0c.06,0,.08-.14.12-.22s-.17-.08-.21-.05A2.51,2.51,0,0,0,78.81,12.93Zm-4.12,15.9c.07.3.07.3.32.25ZM63.78,18.16,63.69,18l-.29.2.06.1ZM76.65,21l.08.12L77,21l0-.08Zm-12.1-5.68-.08-.1-.17.19.07.06Zm14.6-1.15a.34.34,0,0,0-.11-.07s0,0-.06.05l.1.09Zm-15.3,2.63h.07l0-.16h-.08C63.86,16.69,63.86,16.74,63.85,16.79Zm1.54-4.66.13-.07s0-.08-.07-.09a.65.65,0,0,0-.13,0ZM74,30l0,.09.21-.12,0-.06Zm.07,2a1.14,1.14,0,0,0-.16-.08s-.08,0-.08,0,0,.09,0,.11S73.93,32,74.05,32Z"/><path class="cls-1" d="M18.92,46.89a1.65,1.65,0,0,1-.41-1.12,3.14,3.14,0,0,0-.38-.94c-.12-.27-.23-.54-.34-.8s-.27-.59-.38-.89-.3-.76-.41-1.14a16.42,16.42,0,0,1-.64-2.84.29.29,0,0,0,0-.1,3.38,3.38,0,0,1-.59-1.45c0-.07-.09-.15-.09-.22a3.89,3.89,0,0,0-.44-1.28.39.39,0,0,1-.05-.14c0-.65-.41-1.13-.62-1.7,0,0,0-.05,0-.08a5.11,5.11,0,0,0-.57-1.51,12.74,12.74,0,0,0-.6-1.36,3.71,3.71,0,0,1-.47-1.38,6.46,6.46,0,0,0-.17-.7A3.66,3.66,0,0,1,12.51,28a.48.48,0,0,0,0-.24,11.35,11.35,0,0,1-.58-2c0-.09-.1-.16-.15-.24s-.27-.3-.17-.56c0-.1-.11-.29-.19-.42a2.39,2.39,0,0,1-.29-.44,15,15,0,0,1-.54-1.64c-.09-.49-.3-1-.37-1.45a8.09,8.09,0,0,0-.48-1.59,8.36,8.36,0,0,1-.3-1.22A.37.37,0,0,1,9.5,18a6.68,6.68,0,0,0-.25-.84c-.16-.37-.36-.72-.53-1.09a2.64,2.64,0,0,1-.15-.55c-.1-.52-.16-1-.3-1.55s-.13-.83-.21-1.24-.25-1.08-.39-1.61-.26-.87-.41-1.3-.32-.68-.43-1C6.54,7.84,6.29,6.92,6,6a4.21,4.21,0,0,0-.46-1.32,5,5,0,0,1-.67-2.1,2.59,2.59,0,0,1,.5-.07l3.11.06,2.38.11c.24,0,.48,0,.73,0,.06,0,.14,0,.19,0a2.68,2.68,0,0,0,1.56,0,2.16,2.16,0,0,1,.44,0l2.14.1c.38,0,.76,0,.89.47.57.34.5,1,.72,1.49a6,6,0,0,1,.22.64c.06.2.1.4.16.59s.07.21.11.32c.18.49.36,1,.56,1.45a4.92,4.92,0,0,0,.4.94,6.54,6.54,0,0,1,.7,1.76,5.35,5.35,0,0,0,.34.73c0,.06.05.12.07.17l.54,2.46c.06.23.09.47.14.71.13.65.23,1.31.41,1.95a7.64,7.64,0,0,0,.65,1.92,9.48,9.48,0,0,1,.74,1.9c.25.73.44,1.48.68,2.22.09.27.24.53.33.75a4.29,4.29,0,0,0,0,.74c.28.93.56,1.86.9,2.76s.53,1.56.81,2.33a.43.43,0,0,1,0,.14,6.81,6.81,0,0,0,.53,1.94c.2.76.5,1.5.71,2.26a6.29,6.29,0,0,0,.55,1.44A4.07,4.07,0,0,1,27.44,36c.15.67.29,1.33.47,2a5.65,5.65,0,0,0,.37.84.75.75,0,0,1,.07.12Q28.69,40,29,41.2c.1.34.19.68.29,1,.25.89.46,1.79.75,2.67a5.78,5.78,0,0,0,.5,1.39c0,.06.07.13.05.19a1.12,1.12,0,0,0,.32.92.88.88,0,0,1,.13.3c.08.29.15.59.22.89a4.87,4.87,0,0,1,.12.52c.08.44.13.89.23,1.32a6.1,6.1,0,0,0,.28.82,22.24,22.24,0,0,1,.77,3.3.09.09,0,0,0,0,.05l.63,2.24c.1.32.17.66.27,1q.29.9.6,1.8a2.64,2.64,0,0,0,.26.57,16.88,16.88,0,0,1,.81,2.33c.35.87.63,1.77.94,2.65a11.81,11.81,0,0,1,.67,2.53,2.72,2.72,0,0,0,.21.85,14.21,14.21,0,0,1,.73,2.32,3.61,3.61,0,0,0,.36.89A3.26,3.26,0,0,1,38.52,73a5,5,0,0,0,.17.55c.14.39.27.77.41,1.15s.27.62.39.93a3.59,3.59,0,0,1,.12.47c.11.4.2.81.34,1.2a12.44,12.44,0,0,1,.72,2,1.84,1.84,0,0,0,.15.36.73.73,0,0,1,.09.31,4.65,4.65,0,0,0,.29,1.62c.14.59.27,1.18.43,1.76a1.75,1.75,0,0,0,.27.61.93.93,0,0,0,1.52,0,1.92,1.92,0,0,0,.31-.7,6.56,6.56,0,0,1,.4-1c.06-.14.16-.28.22-.43l.87-2.37a1.53,1.53,0,0,1,.18-.29,1.18,1.18,0,0,0,.17-.22c.35-.92.67-1.85,1-2.77s.65-1.61,1-2.42a.47.47,0,0,0,.07-.17,8.19,8.19,0,0,1,1-2.93,12.24,12.24,0,0,0,.58-2.11,7.42,7.42,0,0,1,.51-1.66,5.23,5.23,0,0,0,.26-1c.06-.25.13-.49.21-.74a14.93,14.93,0,0,1,.54-1.76c.35-.82.47-1.7.74-2.53.16-.49.3-1,.45-1.49s.31-1.09.47-1.63c.21-.75.41-1.5.63-2.25s.48-1.58.73-2.36.44-1.36.68-2c.19-.51.43-1,.64-1.5.05-.11.14-.21.14-.3a4,4,0,0,1,.27-1.41c.13-.47.19-1,.31-1.42.17-.72.37-1.43.56-2.14a6.06,6.06,0,0,0,.16-.61A8.44,8.44,0,0,1,57,42c.36-1.06.66-2.13,1-3.2,0-.17.13-.33.19-.5a1.86,1.86,0,0,0,.13-.46.87.87,0,0,1,.18-.53c.09-.1.08-.27.13-.41L59,35.46c0-.17,0-.36.09-.52.26-.75.52-1.5.8-2.24a7.9,7.9,0,0,0,.46-1.26c.18-.82.44-1.62.68-2.42.07-.22.1-.41-.18-.58.44-.16.5-.52.62-.85A7.13,7.13,0,0,0,61.93,26c0-.17,0-.34,0-.45a7.93,7.93,0,0,0,.4-.74A9.7,9.7,0,0,0,63,23.07a18.87,18.87,0,0,1,.64-2c.14-.44.35-.86.49-1.31a11.07,11.07,0,0,0,.28-1.27c0-.25.09-.51.13-.76s.1-.6.17-.9a6,6,0,0,1,.19-.6c.09-.26.26-.5.06-.79.35-.23.6-.52.42-.89a5.38,5.38,0,0,0,.36-.87,5.67,5.67,0,0,0,.38-1.23,2.05,2.05,0,0,1,.28-.77,3.32,3.32,0,0,0,.26-1.42c0-.76,0-1.53.07-2.29A7.78,7.78,0,0,1,67,7.06.82.82,0,0,0,67,6.87a6,6,0,0,1,.62-2,1,1,0,0,1,.28-.44c.26-.21.1-.55.26-.76s.41-.33.35-.64a.16.16,0,0,1,0-.1l.77-.85c.13-.12.27-.1.45-.05a1.74,1.74,0,0,0,.75.06,1.63,1.63,0,0,1,.76.05,2.14,2.14,0,0,0,.76,0,6.74,6.74,0,0,1,1.55,0,12.38,12.38,0,0,0,2.79-.08,1.91,1.91,0,0,1,.52.1.89.89,0,0,0,.66,0,.76.76,0,0,1,.33-.08,18.32,18.32,0,0,0,3-.13c.41-.05.85.18.61.78s-.44,1.17-.65,1.77a1.28,1.28,0,0,0-.07.28A19.87,19.87,0,0,1,80.17,7c-.12.52-.38,1-.52,1.51-.22.81-.4,1.64-.59,2.46,0,0,0,.1,0,.14a8.25,8.25,0,0,0-.5,1.55l0,0c.1.47-.25.82-.34,1.25a8.4,8.4,0,0,1-.49,1.22,2.57,2.57,0,0,0-.08.4,3,3,0,0,1-.07.32l-.15.6c0,.11,0,.24-.08.32a2.85,2.85,0,0,0-.48,1.46,1.67,1.67,0,0,1-.26.87.29.29,0,0,0,0,.14c-.15.66-.28,1.33-.46,2a5.8,5.8,0,0,1-.4,1.15,26.07,26.07,0,0,0-1.6,4.41s0,.06,0,.09a23.39,23.39,0,0,1-.92,3.57c-.08.24-.11.5-.17.75s-.12.37-.18.55-.07.12-.09.18c-.08.41-.15.82-.23,1.23,0,.07,0,.15,0,.23-.14.43-.27.86-.42,1.29s-.24.57-.33.86c-.14.44-.26.89-.4,1.34,0,.17-.12.33-.17.5s0,.25-.07.37,0,.18,0,.23a4.91,4.91,0,0,0-.53,1.65c-.13.48-.3,1-.44,1.43-.05.19-.05.39-.11.57a9.86,9.86,0,0,0-.37,1.25,7.85,7.85,0,0,0-.36,1.65.23.23,0,0,1,0,.14c-.29.58-.61,1.14-.87,1.73a12.67,12.67,0,0,0-.49,1.47c-.17.63-.3,1.27-.46,1.89-.09.35-.23.68-.33,1-.25.91-.6,1.78-.77,2.71A8,8,0,0,1,65.59,55c0,.12-.09.24-.13.37-.3,1-.61,2-.88,3-.18.65-.31,1.32-.48,2-.11.44-.27.87-.38,1.31-.26,1-.48,1.92-.74,2.87a5,5,0,0,1-.86,2.19.41.41,0,0,0,0,.09c-.24,1.33-.8,2.58-1.08,3.91-.12.57-.32,1.12-.45,1.69-.09.37-.11.77-.17,1.15a22.48,22.48,0,0,1-1.27,4.24c-.41,1.06-.82,2.12-1.19,3.19-.25.69-.38,1.42-.68,2.08-.39.85-.49,1.78-.88,2.62a.65.65,0,0,0-.06.24,13.66,13.66,0,0,1-.82,3.45c-.28.84-.53,1.69-.81,2.54-.22.66-.4,1.33-.6,2a.82.82,0,0,0-.07.33,6.22,6.22,0,0,1-.47,1.85c-.15.61-.31,1.22-.51,1.82-.12.36-.38.68-.49,1-.22.78-.37,1.57-.58,2.36-.12.41-.3.81-.46,1.22,0,.06-.07.11-.09.18-.22.74-.4,1.5-.66,2.23-.2.57-.51,1.11-.77,1.67,0,.06-.1.1-.12.16-.22.83-.89.76-1.53.77-.3,0-.61,0-.91,0l-1.79.09c-1.4,0-2.8.06-4.19.08-1,0-2,0-3,0a2.15,2.15,0,0,1-.8-.16,1.12,1.12,0,0,1-.58-.91,1.94,1.94,0,0,0-.22-.68,9.16,9.16,0,0,1-.87-2.21c-.06-.18-.13-.36-.2-.54a9.19,9.19,0,0,1-.68-1.86c-.1-.53-.28-1-.43-1.55a.65.65,0,0,1,0-.33,1.43,1.43,0,0,0-.22-1.1c-.07-.18-.12-.37-.18-.55s-.08-.24-.11-.37a7.9,7.9,0,0,1-.2-.84c0-.19,0-.37-.23-.5s-.32-.6-.41-.91c-.38-1.33-.71-2.67-1-4-.1-.38-.16-.76-.25-1.14a.4.4,0,0,0-.07-.18,4.22,4.22,0,0,1-.52-1.19,8,8,0,0,0-.52-1.25,4.12,4.12,0,0,1-.46-1.82,1,1,0,0,0-.09-.27c0-.09-.11-.18-.1-.27a7.27,7.27,0,0,0-.5-2.26,15.09,15.09,0,0,0-.6-1.94c-.47-1-.66-2-1.06-3-.23-.56-.34-1.15-.53-1.71A8.13,8.13,0,0,0,27,74.92a11.22,11.22,0,0,1-.9-2.75c-.15-.68-.22-1.38-.4-2s-.48-1.3-.72-2c-.1-.28-.2-.57-.29-.87-.2-.64-.42-1.28-.59-1.94a5.1,5.1,0,0,0-.3-.91,5.89,5.89,0,0,1-.34-1c-.12-.47-.22-1-.33-1.42-.07-.28-.16-.56-.23-.84-.22-.79-.44-1.59-.67-2.38-.07-.27-.17-.53-.26-.79a2.75,2.75,0,0,1-.16-.56,4.57,4.57,0,0,0-.39-1.29,2.59,2.59,0,0,1-.22-.78c-.14-.85-.53-1.63-.71-2.46-.11-.48-.18-1-.26-1.44s-.18-1.21-.31-1.81a3.73,3.73,0,0,0-.36-.68c-.2-.47-.41-1-.58-1.43A2.31,2.31,0,0,1,18.92,46.89Z"/></svg>