<svg id="W" xmlns="http://www.w3.org/2000/svg" viewBox="0 0 86 112"><defs><style>.cls-1{stroke:#000;stroke-miterlimit:10;}</style></defs><path class="cls-1" d="M81.86,39.56l.37.07c-.22.45,0,.87,0,1.29,0,.15,0,.29,0,.43s0,.06,0,.08c.21.66-.12,1.33,0,2s0,.8-.6,1.11l.47.17c0,.18,0,.38,0,.57,0,.53,0,1.06,0,1.59s-.11,1-.17,1.47a.45.45,0,0,0,0,.23,1.2,1.2,0,0,1-.09,1.09c0,.09,0,.21,0,.31,0,.34.09.73-.38,1,.53.29.4.71.38,1.12q0,.31,0,.63v2.5a.64.64,0,0,1,0,.24,2.32,2.32,0,0,0,0,1.66.84.84,0,0,1,0,.35,13.67,13.67,0,0,0-.1,2c-.08.65-.22,1.28-.27,1.93a10.91,10.91,0,0,1-.19,1.72c-.05.18-.1.35-.15.54l.17.27h-.09a3.6,3.6,0,0,0-.16,1,.77.77,0,0,1-.45.93c.51.32.52.33.4.93a1.3,1.3,0,0,0,0,.34,1.42,1.42,0,0,1,0,.35A9.8,9.8,0,0,0,81,69.88a7.24,7.24,0,0,0,.14,1.23,9.6,9.6,0,0,1,.09,2.14c0,.93,0,1.86-.07,2.79s-.07,1.59-.09,2.38c0,.3.08.6.07.89,0,.53-.07,1.06-.06,1.58,0,.75.09,1.5.09,2.24s-.08,1.52-.11,2.28c0,.41,0,.83,0,1.25s0,.79,0,1.19a.72.72,0,0,1,0,.25,4.34,4.34,0,0,0-.14,2.5,1.93,1.93,0,0,1,0,.48c0,.73-.08,1.45-.11,2.17,0,.48,0,1,0,1.44s-.09,1.13-.07,1.69a9.18,9.18,0,0,1-.17,2,1.42,1.42,0,0,0,0,.2c0,.83-.06,1.66-.07,2.49a29.21,29.21,0,0,1-.11,3.74,3.5,3.5,0,0,0,0,.65,8.89,8.89,0,0,1-.18,2.62,1.62,1.62,0,0,1-1.39,1.32,4.38,4.38,0,0,1-2-.11.55.55,0,0,0-.25,0c-.76.09-1.5-.15-2.26-.08s-1.47,0-2.2,0c-1.3,0-2.6.12-3.9.18-.36,0-.73,0-1.1,0-.76,0-1.53.06-2.29.13a4.69,4.69,0,0,1-1.63-.21.43.43,0,0,1-.25-.26,5.2,5.2,0,0,0-1.25-2.36,2.89,2.89,0,0,1-.31-.51c-.42-.68-.83-1.35-1.24-2-.63-1.07-1.24-2.16-1.88-3.23-.36-.61-.78-1.2-1.16-1.8-.25-.39-.49-.79-.73-1.19-.53-.9-1-1.81-1.59-2.69-.38-.61-.82-1.18-1.2-1.79s-.54-1-.81-1.48c-.06-.12-.07-.28-.15-.37a28.52,28.52,0,0,1-1.59-2.45c-.2-.25-.24-.62-.55-.81a.09.09,0,0,1,0,0c0-.6-.5-.9-.77-1.34-.42-.68-.77-1.4-1.16-2.09-.16-.28-.36-.55-.54-.83-.41-.61-.88-1.2-1.23-1.85s-.64-1-.93-1.56a14.7,14.7,0,0,1-.89-1.72,12.75,12.75,0,0,0-1-1.68c-.23-.39-.47-.76-.71-1.14a2.61,2.61,0,0,0-.17-.2l-.61.36c.32.39,0,.72-.13,1s-.49.75-.72,1.13a16.72,16.72,0,0,0-1.21,1.88c-.29.64-.63,1.27-1,1.89a17.22,17.22,0,0,0-.92,1.53c-.17.43-.53.71-.71,1.12s-.35.83-.57,1.22c-.54.94-1.1,1.86-1.65,2.79a2.37,2.37,0,0,1-.57.73,1.07,1.07,0,0,0-.24.31c-.23.42-.47.84-.68,1.27a6.23,6.23,0,0,1-.58,1.08c-.37.46-.59,1-1,1.45a3.88,3.88,0,0,0-.91,1.46.26.26,0,0,1-.06.13,3.06,3.06,0,0,0-.85,1.49,5.79,5.79,0,0,1-.5.91c-.18.3-.35.61-.54.9s-.28.41-.41.62-.18.31-.26.47c-.23.45-.44.89-.67,1.34s-.51,1-.78,1.44-.52.93-.8,1.37A15.16,15.16,0,0,0,25.28,106a11.07,11.07,0,0,1-.72,1.19,4.43,4.43,0,0,0-.36.87.83.83,0,0,1-.31.49c-.26.2-.51.42-.78.63a1.09,1.09,0,0,1-.84.19c-.55,0-1.1,0-1.64-.06a13.23,13.23,0,0,1-2.18,0,3.61,3.61,0,0,0-1.33.13c-.31,0-.62.13-.93.18a1.46,1.46,0,0,1-.29,0,.75.75,0,0,0-.29,0,7.31,7.31,0,0,1-2.19.05c-.66,0-1.33,0-2,0l-2.74.1a1.14,1.14,0,0,1-1-.81,2.62,2.62,0,0,1,0-1.08,7.13,7.13,0,0,0,.09-1.73c0-1.11-.15-2.22-.19-3.34,0-.86,0-1.73,0-2.6,0-.49-.1-1-.07-1.49a11.29,11.29,0,0,0-.06-1.93c-.1-1.21-.27-2.41-.41-3.62,0-.08,0-.17,0-.25l0-2.35a1.26,1.26,0,0,0,0-.39,7.43,7.43,0,0,1-.22-1.93,1.33,1.33,0,0,1,0-.2,20.5,20.5,0,0,0,0-3.59,4.6,4.6,0,0,1,0-.64,3.4,3.4,0,0,0,0-.45c0-.51-.07-1-.11-1.53,0-.22-.06-.43,0-.65a9.4,9.4,0,0,0-.08-1.91c-.07-.45-.13-.92-.17-1.38-.06-.72-.12-1.45-.12-2.18s-.08-1.29-.09-1.94,0-1.15.07-1.72a1.36,1.36,0,0,0,0-.2c-.24-.78,0-1.61-.21-2.4a3.49,3.49,0,0,1,0-.85,1.7,1.7,0,0,0,0-.39c-.08-.56-.19-1.1-.26-1.66a5.43,5.43,0,0,1,0-.7c0-.52,0-1,0-1.57a5.69,5.69,0,0,1,.17-.84c-.28,0-.3-.2-.28-.39a5.11,5.11,0,0,0-.27-2,3.82,3.82,0,0,1-.12-.89c0-.63,0-1.26,0-1.89,0-.2,0-.4-.05-.6s0-.39,0-.59a1.28,1.28,0,0,0,0-.34,4.05,4.05,0,0,1-.1-1.43c0-.26-.06-.52,0-.78,0-.41-.18-.81,0-1.22a.39.39,0,0,0,0-.15c0-.54-.09-1.08-.14-1.63l.34-.21c-.39-.33-.2-.72-.17-1.11A5.82,5.82,0,0,0,5.05,49c-.06-.52-.15-1-.19-1.56-.08-.89-.14-1.79-.2-2.69a2,2,0,0,1,0-.49,5.12,5.12,0,0,0-.09-1.83c0-.21,0-.42,0-.63s-.07-.5-.1-.76c-.08-.67-.16-1.34-.23-2l-.06-.59c0-.38-.07-.76-.1-1.14a4.67,4.67,0,0,0,0-.75,2.64,2.64,0,0,1,0-1.31c0-.08,0-.21,0-.24-.26-.19-.12-.53-.31-.76-.06-.07,0-.22,0-.34a4.58,4.58,0,0,1,0-.83,14.29,14.29,0,0,0,0-1.73,6.37,6.37,0,0,0,0-1l.23-.1-.26-.46.33-.15L4,29.52s-.14-.1-.14-.12c.15-.29-.09-.48-.17-.72a.43.43,0,0,1,0-.19,12.43,12.43,0,0,0-.09-2.2c0-.86,0-1.73-.1-2.58a5,5,0,0,1,.07-1.29.52.52,0,0,0-.14-.54.37.37,0,0,1-.08-.5.48.48,0,0,0,0-.56c0-.08-.15-.16-.16-.25a11,11,0,0,1-.19-3.44,5.2,5.2,0,0,0,0-1.8A3.92,3.92,0,0,1,3,13.21s0-.07,0-.09c-.28-.33-.14-.77-.27-1.14a1,1,0,0,1-.05-.23,3.38,3.38,0,0,0,0-1,3,3,0,0,1-.19-1c0-.38,0-.76-.08-1.14-.09-.63-.09-1.27-.23-1.9A11.42,11.42,0,0,1,2,4.7c0-.3,0-.6,0-.9S2,3.28,2,3A8.18,8.18,0,0,0,2,2,1.44,1.44,0,0,1,3.7.32,10.05,10.05,0,0,0,5.15.38,14.23,14.23,0,0,1,7.84.4a5,5,0,0,0,1.09,0L10.86.18a6.73,6.73,0,0,1,1.1,0A12.61,12.61,0,0,1,13.8.23,1.26,1.26,0,0,0,14.47.1a1.71,1.71,0,0,1,1.89.51l.35.44c0,.4,0,.79.05,1.18a1.91,1.91,0,0,1-.29,1.33.81.81,0,0,0,.09,1.08c-.31.49-.06,1,0,1.49a8.57,8.57,0,0,0,.33,1.6,3.61,3.61,0,0,1,.11,1c0,.35,0,.7,0,1,.05.56.16,1.12.2,1.68s0,1.36.08,2c0,.53.1,1.06.15,1.59,0,.17.05.35.06.53.08,1.09.15,2.17.21,3.26,0,.43,0,.86.06,1.29,0,.2.07.39.08.59s0,.53,0,.79l0,1.13V23a1.88,1.88,0,0,0,.05.33c.06.23.16.46.2.7.13.85.26,1.71.36,2.56a7.18,7.18,0,0,1-.06.8,7.44,7.44,0,0,0,.05,1.34,3.93,3.93,0,0,1,0,1.28s0,.07,0,.09c.26.8-.08,1.61.08,2.41.13.65.22,1.31.33,2a1,1,0,0,1,0,.24,11.18,11.18,0,0,0-.16,1.12c0,.51.06,1,.07,1.52s0,1.06,0,1.59,0,.83.07,1.25.1,1,.16,1.57.15,1,.19,1.52c.05.67.07,1.33.1,2l.12,2.48a.77.77,0,0,1,0,.3c-.27.79.06,1.61-.13,2.41a5.91,5.91,0,0,1,0,1.83c0,.32.12.65.14,1,.05.86.08,1.73.12,2.59,0,.23.07.46.09.69a19.43,19.43,0,0,0,.54,3,1.34,1.34,0,0,1,0,.35,6.9,6.9,0,0,0,.18,2s0,.07,0,.1c-.13.8.36,1.49.43,2.26a5.58,5.58,0,0,1,0,1.58,3.43,3.43,0,0,0,0,.64c0,.56,0,1.13,0,1.69S21,69,21,69.39a7.64,7.64,0,0,0,.35,2.18c0,.05.06.11,0,.14-.25.58.07,1.15.05,1.72s.13,1.23.15,1.84a14.06,14.06,0,0,1,0,1.59,3.94,3.94,0,0,0,.09,1.53.57.57,0,0,1,0,.34c-.23.52,0,1,0,1.5l.1,0a2.31,2.31,0,0,0,.2-.24c.36-.59.73-1.18,1.08-1.78a5.44,5.44,0,0,1,.77-1.14,5.66,5.66,0,0,0,.55-.88c.24-.4.47-.8.73-1.18s.65-.92,1-1.39a6.58,6.58,0,0,0,.47-.7c.28-.55.52-1.12.79-1.67a4.12,4.12,0,0,1,.39-.63c.7-.93,1.15-2,1.79-3,.22-.33.45-.66.65-1,.51-.88,1-1.75,1.5-2.65.31-.59.55-1.23.86-1.83s.53-1,.8-1.43c.12-.2.22-.41.33-.61l.81-1.48s.05-.06.05-.09a1.63,1.63,0,0,1,.49-.82,6.64,6.64,0,0,0,.78-1.15,17.09,17.09,0,0,0,1.05-2.15c.24-.51.55-1,.83-1.47a.61.61,0,0,0,.12-.16,17.72,17.72,0,0,1,1-1.92,8.07,8.07,0,0,1,.59-1c.37-.57.77-1.14,1.14-1.72a4.51,4.51,0,0,0,.29-.63c.06-.11.12-.23.19-.34s.24-.31.26-.47a.49.49,0,0,1,.42-.44c.37-.08.75-.12,1.13-.17a.34.34,0,0,1,.19,0,1.9,1.9,0,0,1,.71,1.1,2.21,2.21,0,0,1,1,1.39.86.86,0,0,0,.2.28,2.25,2.25,0,0,1,.7,1.06.52.52,0,0,0,.13.21,2,2,0,0,1,.59,1.07c0,.14.07.35.3.36,0,0,.07,0,.08,0,.34.66.73,1.3,1,2a3.25,3.25,0,0,0,.65,1.11.44.44,0,0,1,.1.16A15.22,15.22,0,0,0,50,57.32c.41.62.8,1.26,1.19,1.89.09.15.14.34.22.5a1.45,1.45,0,0,0,.22.38c.18.2.39.36.26.68,0,0,.07.21.13.23.35.07.5.38.67.63s.35.67.53,1c0,.1.12.2.18.3s.14.16.12.2c-.13.34.15.52.27.76.24.45.46.91.72,1.34a4.38,4.38,0,0,0,.65,1c.2.16.16.28-.06.55.47,0,.65.38.79.74a2,2,0,0,0,.35.53,2.42,2.42,0,0,1,.33.59,1.47,1.47,0,0,0,.1.22c.47.75.93,1.5,1.42,2.23.32.48.71.9,1,1.39a15.35,15.35,0,0,1,1.2,2,13.9,13.9,0,0,0,1,1.54,13.71,13.71,0,0,1,1.26,2.08A8.11,8.11,0,0,0,63,79c.1.17.14.37.25.53.53.84,1.07,1.67,1.61,2.51a.87.87,0,0,1,.14.31c.07.29.29.42.57.61a3.47,3.47,0,0,0,.14-.61,15.38,15.38,0,0,1,.3-2,2.92,2.92,0,0,0,.06-.93,11.6,11.6,0,0,1,0-2.5c0-.48,0-1,0-1.44,0-.3,0-.6,0-.9A16,16,0,0,1,66.42,72a8.59,8.59,0,0,0,.08-1.35,3.21,3.21,0,0,1,.21-1.5.1.1,0,0,0,0-.09,2.93,2.93,0,0,1,0-1.41c0-.13.07-.28,0-.39-.12-.33.06-.64,0-1a3.06,3.06,0,0,1,0-1c0-.35.08-.69.1-1,0-.55,0-1.09,0-1.64,0,0,0,0,0,0,.07-.81.14-1.62.2-2.43a3.48,3.48,0,0,0,0-.85c-.13-.57.14-1.11.06-1.68,0-.11.12-.23.14-.26-.06-.61-.12-1.13-.14-1.66s0-1.26,0-1.88a4.66,4.66,0,0,1,.13-1.33,4.28,4.28,0,0,0,.06-1.08c0-.65,0-1.29.08-1.94,0-.46.07-.93.1-1.39s.08-1.07.09-1.61,0-.9,0-1.34,0-1,.09-1.49a1.92,1.92,0,0,1,.16-1,.17.17,0,0,0,0-.14c-.17-.32,0-.66-.1-1a7,7,0,0,1,.1-1.88c.08-.8.1-1.6.17-2.39,0-.55.14-1.09.19-1.63s.09-1.29.11-1.93a1.05,1.05,0,0,1,.2-.6c.53.08.56.07.66-.32l-.66.33c-.29-.26-.29-.33-.07-.68-.11-1.53-.21-3-.32-4.52.14.12.21.22.3.23a.91.91,0,0,0,.31-.05,2.44,2.44,0,0,0,.1.24,1.8,1.8,0,0,0,0-1.21l0,.36-.71-.12A3.7,3.7,0,0,0,68,25.75a.18.18,0,0,1,0-.14,11.08,11.08,0,0,0,.13-2.07c.11-.6.15-1.22.22-1.82,0,0,0-.07,0-.09-.2-.68.18-1.31.19-2a1.31,1.31,0,0,0,0-.39,5.61,5.61,0,0,1-.1-1.58c0-.52.31-1,.33-1.45,0-.06.11-.12.17-.19-.26-.42-.09-.86-.07-1.35l.73.18a.71.71,0,0,0,0-.73l-.44.27c-.05-.11-.12-.19-.12-.28a7.81,7.81,0,0,1,0-1.87.82.82,0,0,0,0-.35,6.18,6.18,0,0,1,.06-1.82,1.57,1.57,0,0,0-.1-.82A3.92,3.92,0,0,1,69,8.19a4.16,4.16,0,0,0,0-.79,6.3,6.3,0,0,1,0-1.68,5.24,5.24,0,0,0,0-1.81A2.13,2.13,0,0,1,69,3a.81.81,0,0,0-.22-.73c-.16-.16-.29-.36-.44-.54a.45.45,0,0,1,0-.62,1.7,1.7,0,0,1,1.92-.8,8.45,8.45,0,0,0,1.59,0,2,2,0,0,1,.49,0,6.62,6.62,0,0,0,2.39.07,1.35,1.35,0,0,1,1,.36L76,.44h.5a.64.64,0,0,1,.27.07.38.38,0,0,0,.46,0,.47.47,0,0,1,.31-.11,4.8,4.8,0,0,1,1.26.19c.6.24,1.17-.06,1.76,0A4.91,4.91,0,0,0,82.12.43a1.34,1.34,0,0,1,1.07.32c.22.15.17.44.07.65a1,1,0,0,0,0,1,2.43,2.43,0,0,1,.11,1.33,2.88,2.88,0,0,0,0,.88,10.58,10.58,0,0,1-.16,2.32c-.06.66-.11,1.32-.13,2a2.75,2.75,0,0,1,0,1c-.05.12,0,.29,0,.44,0,.61,0,1.22.05,1.83a.28.28,0,0,1,0,.19c-.34.39-.15.84-.13,1.25s0,.58,0,.88c0,.82.09,1.64.13,2.47a1,1,0,0,1-.06.43,2.29,2.29,0,0,0-.11,1.37,1.69,1.69,0,0,1,0,.63c-.06.53-.12,1.05-.17,1.58,0,.15,0,.3,0,.45a6,6,0,0,0,0,1.27,7.7,7.7,0,0,1,0,2,14.9,14.9,0,0,0,0,1.77c0,.16,0,.32,0,.48s0,.26,0,.4l0,1.33a.21.21,0,0,1,0,.14c-.27.3-.26.77-.73,1l.52.07c.24.51-.08,1,0,1.52s0,1,0,1.54l-.35.12s0,.05,0,.05c.2,0,.27.15.29.34s.11.45.17.67a.63.63,0,0,1,0,.19c0,.31-.12.61-.17.92a1,1,0,0,0-.05.24,5.52,5.52,0,0,1-.09,1.67,3.89,3.89,0,0,0,.2,1.3c-.38.26-.21.84-.62,1.11-.3,0-.46.15-.69.41C81.58,40,81.77,39.85,81.86,39.56ZM80.77,56.89a.4.4,0,0,1-.46-.4,2.26,2.26,0,0,1,0-.45c0-.48.06-1,0-1.43a5.44,5.44,0,0,0-.07-1.56.76.76,0,0,1,0-.15c0-.43,0-.86.07-1.29,0-.62,0-1.24,0-1.89l.73.13c-.2-.15-.41-.23-.59-.35a.39.39,0,0,1-.08-.29,7.45,7.45,0,0,0,.12-1.32,10,10,0,0,1,0-1.64c0-.4.08-.81.08-1.22s0-1,0-1.45a10.27,10.27,0,0,0,0-1.47,4,4,0,0,1,.06-.83,4.15,4.15,0,0,0,0-.93,9,9,0,0,1,0-1.37c0-.08,0-.18,0-.23a1.8,1.8,0,0,1,0-1.47,1.23,1.23,0,0,0,0-.57A2.48,2.48,0,0,1,81,35a1.19,1.19,0,0,0,.06-.92,2.33,2.33,0,0,1,0-.38c0-.18,0-.36-.07-.54s-.08-.17-.06-.23a2.63,2.63,0,0,0,0-1.57.75.75,0,0,1,0-.3c.06-.6.11-1.21.18-1.81a11.49,11.49,0,0,1,.22-1.56.41.41,0,0,0,0-.24c-.3-.53-.1-1.11-.17-1.66a6.55,6.55,0,0,1,0-1,4.81,4.81,0,0,0,.09-1.18,11.75,11.75,0,0,1-.1-1.77,4.75,4.75,0,0,1,0-.65c0-.56.11-1.12.14-1.67s0-1,0-1.49,0-1.12.08-1.68l.06-1.05.06-.93a6.57,6.57,0,0,0,.1-1.08c0-.39,0-.78,0-1.17a17.07,17.07,0,0,1,0-1.89,7.22,7.22,0,0,1,0-1.14,7.19,7.19,0,0,0,0-1.39A14.38,14.38,0,0,1,81.65,6a8.87,8.87,0,0,0,.12-2.77,2,2,0,0,1,.06-.64,1.83,1.83,0,0,1,.07-.32,1,1,0,0,0-.8-.1,8.76,8.76,0,0,1-2.17,0C77.66,2.11,76.4,2,75.14,2c-.3,0-.59,0-.89,0a10,10,0,0,1-1.54.06A10,10,0,0,0,71.07,2c-.44,0-.48.05-.48.48a3.78,3.78,0,0,1,0,.75,2.11,2.11,0,0,0-.06,1.22c0,.11,0,.26,0,.39a2.43,2.43,0,0,0,0,.6,5.34,5.34,0,0,1,0,1.44,2.55,2.55,0,0,0,0,.39c0,.83,0,1.65.07,2.47,0,.23,0,.45.06.68s0,.19,0,.24a1.16,1.16,0,0,0,0,.93,12.72,12.72,0,0,1,.08,2.62l-.46.13.32.14c0,.66-.05,1.29-.08,1.91a1.09,1.09,0,0,1-.07.3,7.43,7.43,0,0,0-.16.82C70,18.35,70,19.15,69.9,20a11,11,0,0,1-.1,1.29,5.75,5.75,0,0,0,.08,2.11.65.65,0,0,1-.35.74s-.13,0-.18.06-.17.3,0,.35c.43.13.41.48.37.77a8.69,8.69,0,0,1-.14,1.77.38.38,0,0,0,0,.15c0,.48.09,1,.12,1.44a10,10,0,0,0,.08,1.23,2.65,2.65,0,0,1,0,1.45c0,.1,0,.23,0,.34,0,.37.18.74,0,1.12-.06.11,0,.29,0,.44a7.14,7.14,0,0,1,0,.8,10.62,10.62,0,0,0,0,2.52c0,.05,0,.15,0,.17-.23.13-.18.38-.15.53a1.38,1.38,0,0,1,0,.64c0,.1,0,.22,0,.34a.91.91,0,0,1,0,.33,9.43,9.43,0,0,0-.25,1.9c0,.38-.12.75-.14,1.13s0,.92,0,1.38a3.57,3.57,0,0,0,.07,1.22,2.09,2.09,0,0,1-.06,1.35,4,4,0,0,0-.12,1.38,4.18,4.18,0,0,1,0,.94c0,.18,0,.36,0,.54a3.18,3.18,0,0,1-.09.69.83.83,0,0,0,.08.86,3.42,3.42,0,0,0-.12.59,9,9,0,0,1-.09,2c-.06.25-.09.51-.15.81,0,.08.24.25.2.35-.08.28,0,.51.06.76s0,.51,0,.77,0,.65,0,1-.09.92-.12,1.38a3,3,0,0,0,0,.84,4,4,0,0,1,0,1.24,3.92,3.92,0,0,0,0,1.08,4.39,4.39,0,0,1,0,1.91A7,7,0,0,0,68.61,64c0,.32,0,.66,0,1s-.07.83-.1,1.24c0,.13,0,.27-.06.39a4.27,4.27,0,0,0-.09,2.07,2.1,2.1,0,0,1,0,.5c0,.51-.11,1-.15,1.52s0,.9-.08,1.35l-.18,2.07c0,.1,0,.2,0,.3s0,.25,0,.38c0,.49-.1,1-.09,1.46a26.9,26.9,0,0,1,0,3.11,7,7,0,0,1,0,.79c-.14.83-.11,1.69-.31,2.52a10.49,10.49,0,0,0-.16,1.87c0,.54,0,1.09,0,1.63,0,.19,0,.37,0,.55a1.14,1.14,0,0,1-.4.73.63.63,0,0,1-.78.07,1.1,1.1,0,0,1-.66-.92,2.87,2.87,0,0,0-.61-1.45c-.45-.6-.83-1.27-1.24-1.91a2.81,2.81,0,0,0-.44-.69,1.9,1.9,0,0,1-.54-.76,4.75,4.75,0,0,0-1.08-2s0-.09-.07-.14l-1.21-1.94c-.17-.28-.35-.56-.52-.85-.34-.58-.74-1.15-1-1.76a13.86,13.86,0,0,0-1.54-2.31l-.43-.59a.6.6,0,0,1,0-.79A.68.68,0,0,1,56.1,71c-.35-.65-.73-1.27-1.1-1.9a.46.46,0,0,1-.07-.14,2.38,2.38,0,0,0-.62-.95,3.75,3.75,0,0,1-.66-1,10.51,10.51,0,0,0-.7-1.48,19.57,19.57,0,0,1-1-1.94,4.52,4.52,0,0,0-.25-.49,7.89,7.89,0,0,1-1-1.75.9.9,0,0,0-.2-.28c-.36-.4-.36-.46-.05-.88-.39,0-.4,0-.63-.33s-.47-.72-.7-1.09-.28-.49-.43-.73a5.93,5.93,0,0,0-.4-.62c-.2-.27-.46-.49-.44-.87,0-.07-.08-.13-.12-.2-.24-.33-.49-.66-.71-1s-.4-.8-.64-1.17a9.57,9.57,0,0,0-1-1.59.28.28,0,0,1-.09-.18c-.1-.55-.64-.86-.76-1.4,0,0-.07-.07-.11-.1a2.8,2.8,0,0,1-.62-.94c-.07-.13-.13-.29-.24-.35a1,1,0,0,1-.32-.43,2.16,2.16,0,0,0-.74-.94,14.32,14.32,0,0,0-1.15,1.21c-.16.21-.47.41-.36.78,0,0-.08.12-.13.19a1.78,1.78,0,0,0-.21.27c-.32.6-.63,1.19-.93,1.8a7.78,7.78,0,0,0-.27.75.69.69,0,0,0-.37.63.39.39,0,0,1-.11.21,8.82,8.82,0,0,0-.59,1,15.67,15.67,0,0,1-1.17,2.22,1.6,1.6,0,0,0-.1.23c-.11.18-.23.35-.34.54-.33.54-.66,1.08-1,1.62s-.75,1.28-1.11,1.93-.55,1-.78,1.56-.27,1-.71,1.32c-.1.08-.12.26-.18.4-.24.48-.47,1-.73,1.45a6.37,6.37,0,0,0-.59,1.09,5.56,5.56,0,0,1-.48,1.09c-.19.34-.46.65-.67,1-.45.7-.89,1.4-1.31,2.12s-.65,1.2-1,1.8c-.2.4-.36.83-.59,1.21-.38.6-.81,1.17-1.2,1.76s-.56.92-.86,1.37S25,78.41,25,78.9c0,0,0,.06-.05.08A6.29,6.29,0,0,0,24,80.45c-.17.27-.36.51-.53.78s-.26.42-.37.64a3.44,3.44,0,0,1-.57,1,1,1,0,0,0-.33.49c-.12.62-.59.78-1.07.92a.83.83,0,0,1-1.06-.72.59.59,0,0,0-.29-.59,15.49,15.49,0,0,0,.15-1.62c0-.73-.18-1.45-.2-2.18s.05-1.66.05-2.49,0-1.66,0-2.49c0-.46-.09-.92-.14-1.39a5.34,5.34,0,0,0-.09-.53,4.66,4.66,0,0,1-.19-1,6.63,6.63,0,0,0-.05-1,7.77,7.77,0,0,1-.1-2,5.77,5.77,0,0,0,0-1.76c0-.25,0-.5,0-.75A7.79,7.79,0,0,0,19,63.59a.34.34,0,0,1,0-.1c0-.36,0-.73-.09-1.09s-.16-.67-.2-1c-.09-.65-.13-1.32-.22-2s-.25-1.34-.37-2c0-.11,0-.23,0-.35,0-.4-.07-.81-.12-1.22s-.11-.65-.13-1,0-.59,0-.88,0-.7-.06-1c0-1.09,0-2.19,0-3.31l.28-.18c-.48-.26-.43-.66-.37-1.06a1,1,0,0,0,.05-.24c0-.8,0-1.59,0-2.39a8.07,8.07,0,0,1,0-1.39,9.19,9.19,0,0,0-.18-1.75c0-.26-.09-.52-.1-.78s0-.77,0-1.15c0-.68-.07-1.36-.1-2,0-.49-.05-1-.07-1.49a6.52,6.52,0,0,0-.06-1.82.66.66,0,0,1,0-.2,7.41,7.41,0,0,1,0-1.49,6.67,6.67,0,0,0-.07-1.33c0-.56,0-1.12-.05-1.68v-.3a6.74,6.74,0,0,0,0-1.1,7.57,7.57,0,0,1-.17-2.12c0-.32,0-.65.4-.86-.42-.16-.48-.43-.55-.77a13.38,13.38,0,0,0-.21-1.64,8.25,8.25,0,0,1-.16-1.93c0-.6,0-1.2-.06-1.79a5.78,5.78,0,0,1,0-1.44,2.32,2.32,0,0,0-.05-.69,2.36,2.36,0,0,0-.1-.53A10.3,10.3,0,0,1,16,15.8c-.15-.91-.16-1.84-.22-2.76a7.92,7.92,0,0,1,0-1.54A6.37,6.37,0,0,0,15.67,10a10.16,10.16,0,0,1-.19-2.07,2.15,2.15,0,0,0-.24-1.3,3.9,3.9,0,0,1-.34-1.13,4.55,4.55,0,0,1,0-2.17,3.42,3.42,0,0,0,.06-.65c0-.59-.1-.78-.69-.8a8.47,8.47,0,0,0-3,.1.66.66,0,0,1-.2,0L9.45,1.89a.93.93,0,0,0-.24,0A10.33,10.33,0,0,1,6.92,2c-.38,0-.76-.07-1.14-.05-.55,0-1.09.11-1.63.18s-.5.1-.48.61a.67.67,0,0,1,0,.2A2.89,2.89,0,0,0,3.58,4.3c0,.55.08,1.09.13,1.63s.11,1.12.18,1.67A3.69,3.69,0,0,0,4,8.18a9.33,9.33,0,0,0,.3,2.1,1.63,1.63,0,0,1,0,.54c0,.34,0,.69.06,1s.35,1,.12,1.45a.17.17,0,0,0,0,.1c.16.89-.17,1.79.06,2.68,0,0,0,.07,0,.1a20.22,20.22,0,0,1,0,2.06,4.27,4.27,0,0,0,.08.94,2.51,2.51,0,0,0,.25,1.4.41.41,0,0,1,0,.29,6.94,6.94,0,0,0,.26,1.81,3.87,3.87,0,0,1,0,1.27.66.66,0,0,0,0,.34c.27.61.11,1.31.36,1.93,0,.07,0,.19,0,.28a6.11,6.11,0,0,0-.05.73c0,.33.07.66.08,1s0,.8,0,1.19,0,.49,0,.73c0,1,.09,2,.14,3a8.7,8.7,0,0,1,0,.89,4.11,4.11,0,0,0,.1,1.67,2.65,2.65,0,0,1,0,.64c0,.25,0,.55.08.73.22.34,0,.64.06,1,0,.71.11,1.41.16,2.12l.06.44a5,5,0,0,0,.07.79,4.86,4.86,0,0,1,.16,2.21,1.1,1.1,0,0,0,0,.54,3.4,3.4,0,0,1,0,1.19c0,.1,0,.2,0,.29,0,.71.08,1.43.14,2.14a1.11,1.11,0,0,0,.14.51.62.62,0,0,1,.09.57,1,1,0,0,0-.05.34c0,.78,0,1.56.13,2.34.06.49-.16,1,.09,1.46,0,0,0,0,0,0,0,.43,0,.86,0,1.3l-.24.21a1.93,1.93,0,0,1,.23.52A17.13,17.13,0,0,0,7,56.83a5.16,5.16,0,0,1,0,1l-.5.25,0,.07.48-.1a19,19,0,0,1,.25,2.06,4,4,0,0,0,0,.77,1.75,1.75,0,0,1,.06.79,3,3,0,0,0,0,.79c.13,1.06.35,2.12.39,3.19,0,.61.09,1.22.11,1.83,0,.23.07.46.08.69,0,.69,0,1.39.06,2.08,0,.47.07.93.09,1.39,0,.27,0,.54,0,.8a11.85,11.85,0,0,1,.06,2,9.23,9.23,0,0,0,.17,2.82,4.07,4.07,0,0,1,0,.5c0,.33,0,.66.07,1s.09.73.13,1.09.09.93.12,1.39a4.87,4.87,0,0,1,0,.54,7.12,7.12,0,0,0,0,.8c0,.43.1.86.11,1.29,0,.58,0,1.16,0,1.74,0,1.35,0,2.7,0,4a1,1,0,0,0,0,.25c.05.31.12.62.15.93,0,.48,0,1,.06,1.44,0,.28,0,.56.07.84a2.83,2.83,0,0,0,.1.93,1.55,1.55,0,0,1,.11,1,1.63,1.63,0,0,0,0,.49c.07.88.24,1.74.24,2.63,0,.65.09,1.3.09,1.94,0,.8,0,1.6,0,2.4,0,.39,0,.79,0,1.19a.32.32,0,0,0,0,.14,2.54,2.54,0,0,1,.14,1.28,2.55,2.55,0,0,0,.22,1.12,1.49,1.49,0,0,1,.1.63c0,.51.05.61.58.63,1,0,2,.07,3,.06,1.26,0,2.53-.09,3.79-.13a.44.44,0,0,0,.2,0,2.64,2.64,0,0,1,1.42-.09,3.26,3.26,0,0,0,.7,0c.83-.14,1.67-.3,2.5-.47a.67.67,0,0,0,.34-.25A20.41,20.41,0,0,1,24,104.27a1.25,1.25,0,0,0,.08-.12c.3-.55.62-1.1.91-1.66.51-.95,1-1.91,1.5-2.87a2.21,2.21,0,0,1,.12-.27l1.62-2.51c.14-.21.25-.43.37-.65.28-.53.53-1.07.84-1.59s.75-1.13,1.12-1.7.57-.9.85-1.35.77-1.17,1.1-1.78a15.54,15.54,0,0,1,1.35-2.21,13.89,13.89,0,0,0,1-1.58c.24-.39.45-.8.66-1.21a9.94,9.94,0,0,1,.82-1.59,16.85,16.85,0,0,0,.94-1.58,14.26,14.26,0,0,0,.87-1.45,11,11,0,0,1,1.57-2.53,6,6,0,0,0,.63-1c.14-.22.06-.57.41-.68,0,0,0-.09,0-.13.19-.53.36-1.06.59-1.57a1.7,1.7,0,0,1,.49-.61c.43-.35.87-.55,1.36,0,.18.18.47.22.43.58,0,.11.15.24.25.36.24.29.5.57.72.88a10.19,10.19,0,0,1,.52.91c.17.32.33.64.49,1s.31.71.47,1.07a.24.24,0,0,0,.06.08c.33.22.43.61.65.91s.32.46.49.68l.66.86c0,.61.46,1,.68,1.44a9.73,9.73,0,0,0,.78,1.26c.26.4.5.81.75,1.22.07.11.16.21.23.31.26.37.52.73.76,1.11s.42.75.64,1.12l.34.53c.25.42.34.95.78,1.1a7.81,7.81,0,0,0,.39.89,14.87,14.87,0,0,1,.85,1.45,13.19,13.19,0,0,0,1.15,1.75c.26.39.5.77.75,1.16a16.46,16.46,0,0,0,1.36,2.14,3.34,3.34,0,0,1,.37.64,8.45,8.45,0,0,0,.61,1.2c1,1.43,1.86,3,2.94,4.39a1.34,1.34,0,0,1,.13.27A9.33,9.33,0,0,0,62.82,105a10,10,0,0,1,1.08,1.73,1,1,0,0,0,1.16.64c.68-.07,1.36-.07,2-.1a7,7,0,0,0,2.23-.11h.15l1.39-.07c.89,0,1.79-.1,2.68-.09,1.28,0,2.56.11,3.84.17a.55.55,0,0,0,.66-.46,1.2,1.2,0,0,1,.15-.37,3.46,3.46,0,0,0,.35-2.23,5.16,5.16,0,0,1,0-1.18,1.33,1.33,0,0,0,.05-.34c-.05-.65-.11-1.29-.15-1.94a1.76,1.76,0,0,1,.06-.39c0-.33.12-.65.17-1A25,25,0,0,1,79,96.54a1.4,1.4,0,0,0,0-.64,2.31,2.31,0,0,1,0-1.47.93.93,0,0,0,0-.24c0-1,.09-1.93.14-2.89l.18-3.24c0-.21,0-.43.07-.64.06-1,.12-1.89.17-2.83,0-.53,0-1,0-1.58,0-.32.08-.63.07-1,0-.8,0-1.59-.06-2.39s0-1.36,0-2,.08-1.17.06-1.75a7.26,7.26,0,0,1,.11-2.37.71.71,0,0,0,0-.25l-.09-1a.7.7,0,0,0-.06-.33.6.6,0,0,1,0-.62,1.91,1.91,0,0,0,0-1.41,2.11,2.11,0,0,1-.13-1.22c0-.31,0-.63,0-1a11.18,11.18,0,0,1,.19-3,4,4,0,0,0,0-.5A9.41,9.41,0,0,0,79.71,63c0-.49.25-.92.25-1.43a20.61,20.61,0,0,1,.26-3.41c.08-.48.09-.94.53-1.25a.07.07,0,0,0,0-.05l.37-.23C80.83,56.61,80.78,56.73,80.77,56.89ZM69.52,31.72l-.73.17a.61.61,0,0,0,.7.17C69.64,32,69.63,31.86,69.52,31.72ZM81.78,26.2c.13,0,.24.06.31,0a.34.34,0,0,0,.16-.21c0-.06-.06-.19-.1-.19a.38.38,0,0,0-.25.08C81.84,26,81.83,26.08,81.78,26.2Zm0,1.49.09.45.39-.17ZM3,6.77A2.65,2.65,0,0,0,2.78,7s0,.06,0,.16h.34ZM81.66,25.09v.1H82V25.1ZM80.38,60.8c.19,0,.39.05.54-.17C80.67,60.53,80.53,60.68,80.38,60.8ZM69.5,17.87c-.06-.06-.1-.12-.13-.12s-.09.06-.14.09,0,.1.08.1A.64.64,0,0,0,69.5,17.87Zm-.25,1.81c-.07-.05-.11-.11-.14-.1s-.1.05-.16.07.07.11.11.12S69.17,19.72,69.25,19.68Zm.24.74v-.09h-.34v.12Zm-.43,9.7a.76.76,0,0,0,.06-.21s-.06-.08-.08-.07a.34.34,0,0,0-.15.09ZM81,47.89l.34-.1C81.18,47.6,81.11,47.66,81,47.89ZM68.29,58.14l0,0,0,0L68,58s-.06.05-.13.14Zm-64.14-34c-.07,0-.12,0-.15,0s-.06.07-.08.1a.31.31,0,0,0,.12.05S4.1,24.19,4.15,24.13ZM81.3,50.71c0-.05-.07-.1-.1-.11s-.08,0-.12,0a.3.3,0,0,0,.07.11S81.24,50.72,81.3,50.71Zm.42-19.38,0-.09a.39.39,0,0,0-.11.06s0,.07,0,.07ZM36.81,56.58v-.09H36.6v.09ZM82,26.55l-.1-.1s-.08,0-.08,0l0,.12ZM69.19,21s-.06,0-.07,0,0,.06,0,.09l.11,0A.2.2,0,0,0,69.19,21Zm1-4.83s-.09.06-.08.07a.31.31,0,0,0,0,.12l.06,0A.89.89,0,0,0,70.2,16.12ZM16.1,9.05C16,9,16,9,16,9s-.06.06-.09.09.06.08.09.09S16,9.08,16.1,9.05ZM69.52,4.36l-.09.08.07.08.09-.09Z"/><path class="cls-1" d="M80.76,56.87a.07.07,0,0,1,0,.05c-.44.31-.45.77-.53,1.25A20.61,20.61,0,0,0,80,61.58c0,.51-.26.94-.25,1.43a9.41,9.41,0,0,1-.11,1.18,4,4,0,0,1,0,.5,11.18,11.18,0,0,0-.19,3c0,.32,0,.64,0,1a2.11,2.11,0,0,0,.13,1.22,1.91,1.91,0,0,1,0,1.41.6.6,0,0,0,0,.62.7.7,0,0,1,.06.33l.09,1a.71.71,0,0,1,0,.25,7.26,7.26,0,0,0-.11,2.37c0,.58,0,1.16-.06,1.75s0,1.36,0,2,.06,1.59.06,2.39c0,.32-.06.63-.07,1,0,.53,0,1,0,1.58,0,.94-.11,1.88-.17,2.83,0,.21-.06.43-.07.64l-.18,3.24c0,1-.1,1.92-.14,2.89a.93.93,0,0,1,0,.24,2.31,2.31,0,0,0,0,1.47,1.4,1.4,0,0,1,0,.64,25,25,0,0,0-.28,2.73c0,.33-.12.65-.17,1a1.76,1.76,0,0,0-.06.39c0,.65.1,1.29.15,1.94a1.33,1.33,0,0,1-.05.34,5.16,5.16,0,0,0,0,1.18,3.46,3.46,0,0,1-.35,2.23,1.2,1.2,0,0,0-.15.37.55.55,0,0,1-.66.46c-1.28-.06-2.56-.15-3.84-.17-.89,0-1.79.06-2.68.09l-1.39.07h-.15a7,7,0,0,1-2.23.11c-.69,0-1.37,0-2,.1a1,1,0,0,1-1.16-.64A10,10,0,0,0,62.82,105a9.33,9.33,0,0,1-1.24-2.14,1.34,1.34,0,0,0-.13-.27c-1.08-1.4-1.92-3-2.94-4.39A8.45,8.45,0,0,1,57.9,97a3.34,3.34,0,0,0-.37-.64,16.46,16.46,0,0,1-1.36-2.14c-.25-.39-.49-.77-.75-1.16a13.19,13.19,0,0,1-1.15-1.75,14.87,14.87,0,0,0-.85-1.45A7.81,7.81,0,0,1,53,89c-.44-.15-.53-.68-.78-1.1l-.34-.53c-.22-.37-.41-.76-.64-1.12s-.5-.74-.76-1.11c-.07-.1-.16-.2-.23-.31-.25-.41-.49-.82-.75-1.22a9.73,9.73,0,0,1-.78-1.26c-.22-.48-.72-.83-.68-1.44L47.41,80c-.17-.22-.33-.45-.49-.68s-.32-.69-.65-.91a.24.24,0,0,1-.06-.08c-.16-.36-.31-.72-.47-1.07s-.32-.65-.49-1a10.19,10.19,0,0,0-.52-.91c-.22-.31-.48-.59-.72-.88-.1-.12-.27-.25-.25-.36,0-.36-.25-.4-.43-.58-.49-.5-.93-.3-1.36,0a1.7,1.7,0,0,0-.49.61c-.23.51-.4,1-.59,1.57,0,0,0,.12,0,.13-.35.11-.27.46-.41.68a6,6,0,0,1-.63,1,11,11,0,0,0-1.57,2.53,14.26,14.26,0,0,1-.87,1.45,16.85,16.85,0,0,1-.94,1.58,9.94,9.94,0,0,0-.82,1.59c-.21.41-.42.82-.66,1.21a13.89,13.89,0,0,1-1,1.58,15.54,15.54,0,0,0-1.35,2.21c-.33.61-.73,1.19-1.1,1.78s-.56.9-.85,1.35-.77,1.12-1.12,1.7-.56,1.06-.84,1.59c-.12.22-.23.44-.37.65l-1.62,2.51a2.21,2.21,0,0,0-.12.27c-.5,1-1,1.92-1.5,2.87-.29.56-.61,1.11-.91,1.66a1.25,1.25,0,0,1-.08.12,20.41,20.41,0,0,0-1.52,2.27.67.67,0,0,1-.34.25c-.83.17-1.67.33-2.5.47a3.26,3.26,0,0,1-.7,0,2.64,2.64,0,0,0-1.42.09.44.44,0,0,1-.2,0c-1.26,0-2.53.11-3.79.13-1,0-2,0-3-.06-.53,0-.6-.12-.58-.63a1.49,1.49,0,0,0-.1-.63,2.55,2.55,0,0,1-.22-1.12,2.54,2.54,0,0,0-.14-1.28.32.32,0,0,1,0-.14c0-.4,0-.8,0-1.19,0-.8.06-1.6,0-2.4,0-.64-.09-1.29-.09-1.94,0-.89-.17-1.75-.24-2.63a1.63,1.63,0,0,1,0-.49,1.55,1.55,0,0,0-.11-1,2.83,2.83,0,0,1-.1-.93c0-.28,0-.56-.07-.84,0-.48,0-1-.06-1.44,0-.31-.1-.62-.15-.93a1,1,0,0,1,0-.25c0-1.34,0-2.69,0-4,0-.58,0-1.16,0-1.74,0-.43-.09-.86-.11-1.29a7.12,7.12,0,0,1,0-.8,4.87,4.87,0,0,0,0-.54c0-.46-.08-.93-.12-1.39s-.1-.73-.13-1.09-.05-.66-.07-1a4.07,4.07,0,0,0,0-.5,9.23,9.23,0,0,1-.17-2.82,11.85,11.85,0,0,0-.06-2c0-.26,0-.53,0-.8,0-.46-.07-.92-.09-1.39C8,69.6,8,68.9,8,68.21c0-.23-.07-.46-.08-.69,0-.61-.09-1.22-.11-1.83,0-1.07-.26-2.13-.39-3.19a3,3,0,0,1,0-.79,1.75,1.75,0,0,0-.06-.79,4,4,0,0,1,0-.77A19,19,0,0,0,7,58.09l-.48.1,0-.07.5-.25a5.16,5.16,0,0,0,0-1,17.13,17.13,0,0,1-.11-1.75,1.93,1.93,0,0,0-.23-.52l.24-.21c0-.44,0-.87,0-1.3,0,0,0,0,0,0-.25-.47,0-1-.09-1.46-.09-.78-.1-1.56-.13-2.34a1,1,0,0,1,.05-.34.62.62,0,0,0-.09-.57,1.11,1.11,0,0,1-.14-.51c-.06-.71-.1-1.43-.14-2.14,0-.09,0-.19,0-.29a3.4,3.4,0,0,0,0-1.19,1.1,1.1,0,0,1,0-.54,4.86,4.86,0,0,0-.16-2.21,5,5,0,0,1-.07-.79l-.06-.44c0-.71-.12-1.41-.16-2.12,0-.32.16-.62-.06-1-.12-.18-.06-.48-.08-.73a2.65,2.65,0,0,0,0-.64,4.11,4.11,0,0,1-.1-1.67,8.7,8.7,0,0,0,0-.89c0-1-.1-2-.14-3,0-.24,0-.48,0-.73s0-.79,0-1.19-.07-.66-.08-1a6.11,6.11,0,0,1,.05-.73c0-.09.08-.21,0-.28-.25-.62-.09-1.32-.36-1.93a.66.66,0,0,1,0-.34,3.87,3.87,0,0,0,0-1.27,6.94,6.94,0,0,1-.26-1.81.41.41,0,0,0,0-.29,2.51,2.51,0,0,1-.25-1.4,4.27,4.27,0,0,1-.08-.94,20.22,20.22,0,0,0,0-2.06s0-.07,0-.1c-.23-.89.1-1.79-.06-2.68a.17.17,0,0,1,0-.1c.23-.5,0-1-.12-1.45s0-.69-.06-1a1.63,1.63,0,0,0,0-.54A9.33,9.33,0,0,1,4,8.18a3.69,3.69,0,0,1-.09-.58c-.07-.55-.13-1.11-.18-1.67S3.6,4.85,3.58,4.3a2.89,2.89,0,0,1,.09-1.37.67.67,0,0,0,0-.2c0-.51,0-.55.48-.61S5.23,2,5.78,1.94c.38,0,.76.07,1.14.05a10.33,10.33,0,0,0,2.29-.08.93.93,0,0,1,.24,0L11.08,2a.66.66,0,0,0,.2,0,8.47,8.47,0,0,1,3-.1c.59,0,.7.21.69.8a3.42,3.42,0,0,1-.06.65,4.55,4.55,0,0,0,0,2.17,3.9,3.9,0,0,0,.34,1.13,2.15,2.15,0,0,1,.24,1.3A10.16,10.16,0,0,0,15.67,10a6.37,6.37,0,0,1,.06,1.51,7.92,7.92,0,0,0,0,1.54c.06.92.07,1.85.22,2.76a10.3,10.3,0,0,0,.12,1.66,2.36,2.36,0,0,1,.1.53,2.32,2.32,0,0,1,.05.69,5.78,5.78,0,0,0,0,1.44c0,.59,0,1.19.06,1.79a8.25,8.25,0,0,0,.16,1.93,13.38,13.38,0,0,1,.21,1.64c.07.34.13.61.55.77-.43.21-.36.54-.4.86A7.57,7.57,0,0,0,17,29.23a6.74,6.74,0,0,1,0,1.1v.3c0,.56,0,1.12.05,1.68a6.67,6.67,0,0,1,.07,1.33,7.41,7.41,0,0,0,0,1.49.66.66,0,0,0,0,.2,6.52,6.52,0,0,1,.06,1.82c0,.5,0,1,.07,1.49,0,.68.08,1.36.1,2,0,.38,0,.77,0,1.15s.1.52.1.78a9.19,9.19,0,0,1,.18,1.75,8.07,8.07,0,0,0,0,1.39c0,.8,0,1.59,0,2.39a1,1,0,0,1-.05.24c-.06.4-.11.8.37,1.06l-.28.18c0,1.12,0,2.22,0,3.31,0,.35.05.7.06,1s0,.59,0,.88.1.65.13,1,.08.82.12,1.22c0,.12,0,.24,0,.35.12.67.27,1.34.37,2s.13,1.32.22,2c0,.34.15.67.2,1s.06.73.09,1.09a.34.34,0,0,0,0,.1,7.79,7.79,0,0,1,.23,2.15c0,.25,0,.5,0,.75a5.77,5.77,0,0,1,0,1.76,7.77,7.77,0,0,0,.1,2,6.63,6.63,0,0,1,.05,1,4.66,4.66,0,0,0,.19,1,5.34,5.34,0,0,1,.09.53c0,.47.12.93.14,1.39,0,.83.05,1.66,0,2.49s-.07,1.66-.05,2.49.18,1.45.2,2.18A15.49,15.49,0,0,1,19.78,83a.59.59,0,0,1,.29.59.83.83,0,0,0,1.06.72c.48-.14.95-.3,1.07-.92a1,1,0,0,1,.33-.49,3.44,3.44,0,0,0,.57-1c.11-.22.24-.43.37-.64s.36-.51.53-.78A6.29,6.29,0,0,1,24.93,79s.05,0,.05-.08c0-.49.42-.73.65-1.08s.56-.92.86-1.37.82-1.16,1.2-1.76c.23-.38.39-.81.59-1.21.31-.6.62-1.21,1-1.8s.86-1.42,1.31-2.12c.21-.33.48-.64.67-1a5.56,5.56,0,0,0,.48-1.09,6.37,6.37,0,0,1,.59-1.09c.26-.48.49-1,.73-1.45.06-.14.08-.32.18-.4.44-.35.5-.87.71-1.32s.5-1,.78-1.56.73-1.29,1.11-1.93.65-1.08,1-1.62c.11-.19.23-.36.34-.54a1.6,1.6,0,0,1,.1-.23,15.67,15.67,0,0,0,1.17-2.22,8.82,8.82,0,0,1,.59-1,.39.39,0,0,0,.11-.21.69.69,0,0,1,.37-.63,7.78,7.78,0,0,1,.27-.75c.3-.61.61-1.2.93-1.8a1.78,1.78,0,0,1,.21-.27c.05-.07.14-.15.13-.19-.11-.37.2-.57.36-.78a14.32,14.32,0,0,1,1.15-1.21,2.16,2.16,0,0,1,.74.94,1,1,0,0,0,.32.43c.11.06.17.22.24.35a2.8,2.8,0,0,0,.62.94s.1.06.11.1c.12.54.66.85.76,1.4a.28.28,0,0,0,.09.18,9.57,9.57,0,0,1,1,1.59c.24.37.41.79.64,1.17s.47.68.71,1c0,.07.13.13.12.2,0,.38.24.6.44.87a5.93,5.93,0,0,1,.4.62c.15.24.28.49.43.73s.45.74.7,1.09.24.32.63.33c-.31.42-.31.48.05.88a.9.9,0,0,1,.2.28,7.89,7.89,0,0,0,1,1.75,4.52,4.52,0,0,1,.25.49,19.57,19.57,0,0,0,1,1.94,10.51,10.51,0,0,1,.7,1.48,3.75,3.75,0,0,0,.66,1,2.38,2.38,0,0,1,.62.95.46.46,0,0,0,.07.14c.37.63.75,1.25,1.1,1.9a.68.68,0,0,0,.64.39.6.6,0,0,0,0,.79l.43.59a13.86,13.86,0,0,1,1.54,2.31c.28.61.68,1.18,1,1.76.17.29.35.57.52.85l1.21,1.94c0,.05,0,.11.07.14a4.75,4.75,0,0,1,1.08,2,1.9,1.9,0,0,0,.54.76,2.81,2.81,0,0,1,.44.69c.41.64.79,1.31,1.24,1.91a2.87,2.87,0,0,1,.61,1.45,1.1,1.1,0,0,0,.66.92.63.63,0,0,0,.78-.07,1.14,1.14,0,0,0,.4-.73c0-.18,0-.36,0-.55,0-.54,0-1.09,0-1.63a10.49,10.49,0,0,1,.16-1.87c.2-.83.17-1.69.31-2.52a7,7,0,0,0,0-.79,26.9,26.9,0,0,0,0-3.11c0-.48.06-1,.09-1.46,0-.13,0-.25,0-.38s0-.2,0-.3L68.12,72c0-.45,0-.9.08-1.35s.1-1,.15-1.52a2.1,2.1,0,0,0,0-.5,4.27,4.27,0,0,1,.09-2.07c0-.12,0-.26.06-.39,0-.41.08-.82.1-1.24s0-.66,0-1a7,7,0,0,1,.13-1.29,4.39,4.39,0,0,0,0-1.91,3.92,3.92,0,0,1,0-1.08,4,4,0,0,0,0-1.24,3,3,0,0,1,0-.84c0-.46.09-.92.12-1.38s0-.65,0-1,0-.51,0-.77-.14-.48-.06-.76c0-.1-.15-.27-.2-.35.06-.3.09-.56.15-.81a9,9,0,0,0,.09-2,3.42,3.42,0,0,1,.12-.59.83.83,0,0,1-.08-.86,3.18,3.18,0,0,0,.09-.69c0-.18,0-.36,0-.54a4.18,4.18,0,0,0,0-.94,4,4,0,0,1,.12-1.38,2.09,2.09,0,0,0,.06-1.35A3.57,3.57,0,0,1,69.26,43c0-.46,0-.92,0-1.38s.12-.75.14-1.13a9.43,9.43,0,0,1,.25-1.9.91.91,0,0,0,0-.33c0-.12-.06-.24,0-.34a1.38,1.38,0,0,0,0-.64c0-.15-.08-.4.15-.53,0,0,.06-.12,0-.17a10.62,10.62,0,0,1,0-2.52,7.14,7.14,0,0,0,0-.8c0-.15-.07-.33,0-.44.21-.38,0-.75,0-1.12,0-.11,0-.24,0-.34a2.65,2.65,0,0,0,0-1.45,10,10,0,0,1-.08-1.23c0-.48-.08-1-.12-1.44a.38.38,0,0,1,0-.15,8.69,8.69,0,0,0,.14-1.77c0-.29.06-.64-.37-.77-.17-.05-.16-.25,0-.35s.13,0,.18-.06a.65.65,0,0,0,.35-.74,5.75,5.75,0,0,1-.08-2.11A11,11,0,0,0,69.9,20c.07-.81.13-1.61.22-2.42a7.43,7.43,0,0,1,.16-.82,1.09,1.09,0,0,0,.07-.3c0-.62.06-1.25.08-1.91l-.32-.14.46-.13a12.72,12.72,0,0,0-.08-2.62,1.16,1.16,0,0,1,0-.93s0-.16,0-.24-.05-.45-.06-.68c0-.82,0-1.64-.07-2.47a2.55,2.55,0,0,1,0-.39,5.34,5.34,0,0,0,0-1.44,2.43,2.43,0,0,1,0-.6c0-.13.07-.28,0-.39a2.11,2.11,0,0,1,.06-1.22,3.78,3.78,0,0,0,0-.75c0-.43,0-.46.48-.48a10,10,0,0,1,1.64.07A10,10,0,0,0,74.25,2c.3,0,.59,0,.89,0,1.26,0,2.52.1,3.79.17a8.76,8.76,0,0,0,2.17,0,1,1,0,0,1,.8.1,1.83,1.83,0,0,0-.07.32,2,2,0,0,0-.06.64A8.87,8.87,0,0,1,81.65,6a14.38,14.38,0,0,0-.09,1.74,7.19,7.19,0,0,1,0,1.39,7.22,7.22,0,0,0,0,1.14,17.07,17.07,0,0,0,0,1.89c0,.39,0,.78,0,1.17a6.57,6.57,0,0,1-.1,1.08l-.06.93-.06,1.05c0,.56-.07,1.12-.08,1.68s0,1,0,1.49-.11,1.11-.14,1.67a4.75,4.75,0,0,0,0,.65,11.75,11.75,0,0,0,.1,1.77,4.81,4.81,0,0,1-.09,1.18,6.55,6.55,0,0,0,0,1c.07.55-.13,1.13.17,1.66a.41.41,0,0,1,0,.24,11.49,11.49,0,0,0-.22,1.56c-.07.6-.12,1.21-.18,1.81a.75.75,0,0,0,0,.3,2.63,2.63,0,0,1,0,1.57c0,.06,0,.15.06.23s.05.36.07.54a2.33,2.33,0,0,0,0,.38A1.19,1.19,0,0,1,81,35a2.48,2.48,0,0,0-.22,1.7,1.23,1.23,0,0,1,0,.57,1.8,1.8,0,0,0,0,1.47s0,.15,0,.23a9,9,0,0,0,0,1.37,4.15,4.15,0,0,1,0,.93,4,4,0,0,0-.06.83,10.27,10.27,0,0,1,0,1.47c0,.48,0,1,0,1.45s-.07.82-.08,1.22a10,10,0,0,0,0,1.64,7.45,7.45,0,0,1-.12,1.32.39.39,0,0,0,.08.29c.18.12.39.2.59.35l-.73-.13c0,.65,0,1.27,0,1.89,0,.43,0,.86-.07,1.29a.76.76,0,0,0,0,.15,5.44,5.44,0,0,1,.07,1.56c0,.47,0,1,0,1.43a2.26,2.26,0,0,0,0,.45.4.4,0,0,0,.46.4ZM18.11,99.62l-.06.11A8.52,8.52,0,0,0,19.87,101c.12.07.31.14.38-.06s-.08-.25-.23-.32-.46-.23-.7-.35Zm4.59,2.78a3.2,3.2,0,0,0-2.1-1.2s0,.07,0,.08c.54.37,1.08.75,1.63,1.1C22.35,102.43,22.49,102.39,22.7,102.4ZM70.43,94c.17-.71,0-1-.54-1a.39.39,0,0,0-.3.12.34.34,0,0,0,0,.31A1.65,1.65,0,0,0,70.43,94ZM13.94,96.78c.45,0,.46,0,.37-.45Z"/><path class="cls-1" d="M69.52,31.72c.11.14.12.26,0,.34a.61.61,0,0,1-.7-.17Z"/><path class="cls-1" d="M81.78,26.2c0-.12.06-.23.12-.29a.38.38,0,0,1,.25-.08s.11.13.1.19a.34.34,0,0,1-.16.21C82,26.26,81.91,26.22,81.78,26.2Z"/><path class="cls-1" d="M81.86,39.56c-.09.29-.28.43-.68.42.23-.26.39-.45.69-.41Z"/><path class="cls-1" d="M68.5,33.08l.66-.33c-.1.39-.13.4-.66.32Z"/><path class="cls-1" d="M81.81,27.69l.48.28-.39.17Z"/><path class="cls-1" d="M3,6.77l.11.43H2.77c0-.1,0-.13,0-.16A2.65,2.65,0,0,1,3,6.77Z"/><path class="cls-1" d="M81.66,25.09H82v.09h-.37Z"/><path class="cls-1" d="M80.38,60.8c.15-.12.29-.27.54-.17C80.77,60.85,80.57,60.81,80.38,60.8Z"/><path class="cls-1" d="M69.5,17.87a.64.64,0,0,1-.19.07s0-.07-.08-.1.09-.08.14-.09S69.44,17.81,69.5,17.87Z"/><path class="cls-1" d="M69.25,19.68c-.08,0-.14.09-.19.09s-.07-.08-.11-.12.11-.07.16-.07S69.18,19.63,69.25,19.68Z"/><path class="cls-1" d="M69.49,20.42l-.35,0v-.12h.34Z"/><path class="cls-1" d="M69.06,30.12l-.17-.19a.34.34,0,0,1,.15-.09s.08.05.08.07A.76.76,0,0,1,69.06,30.12Z"/><path class="cls-1" d="M81,47.89c.07-.23.14-.29.34-.1Z"/><path class="cls-1" d="M68.29,58.14l-.43,0c.07-.09.1-.14.13-.14l.29,0,0,0Z"/><path class="cls-1" d="M4.15,24.13c-.05.06-.08.11-.11.12a.31.31,0,0,1-.12-.05s0-.08.08-.1S4.08,24.12,4.15,24.13Z"/><path class="cls-1" d="M80.77,56.89c0-.16.06-.28.36-.25l-.37.23Z"/><path class="cls-1" d="M81.3,50.71c-.06,0-.11,0-.15,0a.3.3,0,0,1-.07-.11s.08,0,.12,0S81.26,50.66,81.3,50.71Z"/><path class="cls-1" d="M81.72,31.33l-.12,0s0-.05,0-.07a.39.39,0,0,1,.11-.06Z"/><path class="cls-1" d="M36.81,56.58H36.6v-.09h.21Z"/><path class="cls-1" d="M82,26.55l-.14.06,0-.12s.06,0,.08,0Z"/><path class="cls-1" d="M69.2,21a.41.41,0,0,1,0,.08l-.11,0s0-.07,0-.09S69.17,21,69.2,21Z"/><path class="cls-1" d="M70.2,16.12a.89.89,0,0,1,0,.14l-.06,0a.31.31,0,0,1,0-.12S70.16,16.16,70.2,16.12Z"/><path class="cls-1" d="M16.1,9.05c-.06,0-.09.08-.13.08s-.06-.06-.09-.09S15.94,9,16,9,16,9,16.1,9.05Z"/><path class="cls-1" d="M69.52,4.36l.07.07-.09.09-.07-.08Z"/><path class="cls-1" d="M18.11,99.62l1.21.6c.24.12.46.25.7.35s.3.14.23.32-.26.13-.38.06a8.52,8.52,0,0,1-1.82-1.22Z"/><path class="cls-1" d="M22.7,102.4c-.21,0-.35,0-.44,0-.55-.35-1.09-.73-1.63-1.1,0,0,0-.06,0-.08A3.2,3.2,0,0,1,22.7,102.4Z"/><path class="cls-1" d="M70.43,94a1.65,1.65,0,0,1-.84-.61.34.34,0,0,1,0-.31.39.39,0,0,1,.3-.12C70.42,92.94,70.6,93.26,70.43,94Z"/><path class="cls-1" d="M13.94,96.78l.37-.45C14.4,96.75,14.39,96.76,13.94,96.78Z"/></svg>