<svg id="X" xmlns="http://www.w3.org/2000/svg" viewBox="0 0 86 112"><defs><style>.cls-1{stroke:#000;stroke-miterlimit:10;}</style></defs><path class="cls-1" d="M1.49,109.15a.83.83,0,0,1-.21-.7,2.87,2.87,0,0,0-.13-.7c0-.12,0-.3,0-.36.29-.31.51-.75,1-.82.66-.09.94-.6,1.31-1a9.82,9.82,0,0,0,.8-1.41c.15-.23.29-.41.6-.39a.29.29,0,0,0,.25-.1c.24-.33.46-.68.69-1,0,0,0-.06,0-.09.31-.48.61-1,.94-1.43s.62-.85.91-1.29c.43-.66.83-1.34,1.26-2,.18-.29.27-.66.63-.82a.12.12,0,0,0,0-.07c0-.37.3-.55.46-.82.32-.55.66-1.09,1-1.65s.46-.87.71-1.3c.46-.82.94-1.63,1.41-2.45a21.1,21.1,0,0,1,1.16-2.09,15.52,15.52,0,0,1,1.84-2.68,2.74,2.74,0,0,0,.45-.69l.58-1c.08-.14.18-.27.25-.41.52-1,1-1.91,1.54-2.88.18-.34.31-.7.49-1,.38-.68.77-1.36,1.17-2s.89-1.44,1.31-2.17c.3-.51.55-1,.82-1.55a.31.31,0,0,1,.09-.11A4.62,4.62,0,0,0,24,72.38a4.83,4.83,0,0,1,.36-.67c.28-.48.56-1,.86-1.44s.58-.8.84-1.22.47-.84.7-1.25c.15-.26.32-.51.47-.77s.33-.55.5-.81c.42-.63.68-1.35,1.14-2a25,25,0,0,0,1.43-2.33c.2-.34.39-.69.57-1,.32-.61.64-1.22.92-1.85a17.11,17.11,0,0,1,1.05-1.93,8.67,8.67,0,0,0,.86-1.69A7.79,7.79,0,0,1,34.47,54c.24-.39.25-.38,0-.74a1.72,1.72,0,0,1-.22-.37c-.39-.72-.75-1.45-1.16-2.15a34.79,34.79,0,0,0-1.86-3c-.37-.52-.71-1-1.06-1.59a15.79,15.79,0,0,1-.81-1.45c-.36-.71-.66-1.45-1-2.15a3.16,3.16,0,0,0-.85-1,1.72,1.72,0,0,1-.49-.75,8.91,8.91,0,0,0-.77-1.43A5.54,5.54,0,0,1,26,38.8s0-.11,0-.14c-.17-.2-.33-.41-.52-.6a1,1,0,0,1-.36-.79,2,2,0,0,1-.8-.9c-.25-.45-.56-.88-.83-1.33-.42-.7-.8-1.42-1.23-2.11-.24-.39-.53-.75-.8-1.13a6.79,6.79,0,0,1-.39-.6c-.42-.76-.81-1.53-1.24-2.27s-.74-1.16-1.1-1.75a9.38,9.38,0,0,1-1.16-2c-.07-.21-.29-.38-.42-.57l-1.94-2.85a12.75,12.75,0,0,1-1.07-1.87A17.34,17.34,0,0,0,13,18.06s-.06-.08-.08-.12a28.2,28.2,0,0,0-1.85-3c-.51-.81-.94-1.67-1.42-2.5-.17-.3-.38-.58-.56-.88s-.32-.59-.47-.88c-.23-.44-.44-.89-.69-1.31-.37-.64-.76-1.26-1.16-1.88-.15-.24-.35-.46-.52-.69C5.84,6.24,5.44,5.62,5,5A9.87,9.87,0,0,1,3.69,2.45a.84.84,0,0,1,.84-1.2c1.55,0,3.1,0,4.65,0,.42,0,.83-.06,1.25-.09C11.27,1.11,12.12,1,13,1c.66,0,1.31,0,2,0l.53,0A13,13,0,0,1,18.51,1a2.68,2.68,0,0,0,.8,0,.76.76,0,0,1,.84.33c.26.38.5.78.76,1.16a1.47,1.47,0,0,0,.23.31A3.7,3.7,0,0,1,22,4.12c.25.48.57.93.84,1.4.14.23.24.49.37.72a1.72,1.72,0,0,0,.22.37c.29.42.59.83.9,1.24.1.14.22.26.37.43a.84.84,0,0,0,.32.78,13.91,13.91,0,0,1,1.15,1.39c.16.21.2.52.38.71a8.68,8.68,0,0,1,1,1.57,2.43,2.43,0,0,0,.7,1,.36.36,0,0,1,.08.22A1.65,1.65,0,0,0,29,15.08a4.23,4.23,0,0,1,.81,1.17c.31.61.64,1.21,1,1.81a.61.61,0,0,0,.12.16,2.09,2.09,0,0,1,.64,1,3.07,3.07,0,0,0,.61.82,7.25,7.25,0,0,1,.49.64c.3.47.58.95.85,1.44A9.67,9.67,0,0,1,34,23.2a1.31,1.31,0,0,0,.51.67c.4.24.43.69.59,1.07a4.77,4.77,0,0,0,.41.85c.33.46.72.89,1.08,1.34a.85.85,0,0,1,.09.22c.35.76.68,1.54,1.07,2.28a8.2,8.2,0,0,0,.79,1.07c.06.07.16.13.19.21a8.1,8.1,0,0,1,.38.92,1,1,0,0,0,.55.65,2.35,2.35,0,0,0,.11.44A7,7,0,0,0,40.35,34a7.49,7.49,0,0,0,.84.85c.08.07.19.15.2.24a1.85,1.85,0,0,0,.46.94.3.3,0,0,1,.08.17c.06.5.45.83.68,1.24a.47.47,0,0,0,.16.18,1.61,1.61,0,0,1,.77,1.11,2.49,2.49,0,0,0,.25.48,3.56,3.56,0,0,0,.51-.57c.44-.73.84-1.47,1.26-2.2.25-.45.52-.89.76-1.34.52-.94,1-1.87,1.53-2.82a3.28,3.28,0,0,1,.75-1c.36-.33.38-.31.26-.7.37-.56.72-1.09,1.06-1.63.6-1,1.2-2,1.78-2.95.27-.47.5-1,.74-1.45a4.41,4.41,0,0,1,.91-1.27A3.63,3.63,0,0,0,54,22.24c.48-1,1-1.92,1.4-2.89a4.42,4.42,0,0,1,.65-.93c.19-.24.31-.53.51-.76a12.06,12.06,0,0,0,.82-1.32l0,0a11.56,11.56,0,0,0,2.16-3.2c.24-.47.44-1,.69-1.42a6.91,6.91,0,0,1,.6-.92,4.9,4.9,0,0,0,.65-1.59A9.18,9.18,0,0,1,62.88,6.5c.16-.24.32-.48.46-.73.29-.53.57-1.07.87-1.6s.53-.95.81-1.41a3.44,3.44,0,0,1,.47-.54,1,1,0,0,0,.38-1c-.12-.49.54-1.08,1-1.07.83,0,1.66,0,2.48,0,.58,0,1.15.09,1.73.09.78,0,1.57-.07,2.35-.08s1.73,0,2.59,0h.34a4.6,4.6,0,0,1,1.23,0c.29,0,.6,0,.9,0s.77.07,1.15.08.83,0,1.24,0,1.06-.07,1.58,0a.74.74,0,0,1,.74.51,2,2,0,0,0,.36.51,1.79,1.79,0,0,1-.62,1.32.78.78,0,0,0-.24.3c-.24.52-.46,1-.69,1.57,0,0,0,.1-.05.13-.25.35-.49.7-.75,1,0,.08-.16.14-.18.22a4.78,4.78,0,0,1-.8,1.19,16.12,16.12,0,0,1-.91,1.41,9.47,9.47,0,0,0-.94,1.85c-.29.59-.63,1.14-1,1.71,0,.06-.09.11-.1.16-.08.7-.62,1.16-.89,1.74s-.45.95-.63,1.44a1.49,1.49,0,0,1-.45.81s-.06,0-.06.07c-.17.64-.78,1-1,1.63a1.55,1.55,0,0,1-.48.7,2.8,2.8,0,0,0-.72,1.17,3.16,3.16,0,0,1-.62,1.12.25.25,0,0,0,0,.09,14.66,14.66,0,0,1-1,1.75,2.42,2.42,0,0,1-.36.43,4.94,4.94,0,0,0-.35.45c-.27.44-.53.87-.78,1.32s-.33.68-.5,1a2.1,2.1,0,0,1-.24.41,28.9,28.9,0,0,0-1.75,2.47,16,16,0,0,1-1,1.57.15.15,0,0,0,0,.09,4.93,4.93,0,0,1-1.23,1.85,2.07,2.07,0,0,0-.15.25l-.68,1.3a1.05,1.05,0,0,1-.12.21,8.71,8.71,0,0,0-1,1.84,6.17,6.17,0,0,1-.51.85c-.39.61-.78,1.21-1.16,1.82-.1.17-.28.32-.17.56,0,0,0,.09-.06.12a4.07,4.07,0,0,0-.71,1.16c-.19.34-.44.66-.63,1-.35.61-.74,1.2-1.12,1.78a1.19,1.19,0,0,1-.28.25.55.55,0,0,1-.11.52A7.73,7.73,0,0,0,57.84,45a2.67,2.67,0,0,1-.09.26c-.31.53-.64,1.06-1,1.59s-.66,1.13-1,1.68c-.24.38-.51.76-.79,1.12a4.32,4.32,0,0,0-.63,1.18,7.21,7.21,0,0,1-1,1.73,5.51,5.51,0,0,0-.59,1,.72.72,0,0,0,0,.54,2.88,2.88,0,0,0,.47.72,7.5,7.5,0,0,1,1.29,2.33,5,5,0,0,0,.63,1.13,4.61,4.61,0,0,0,.94,1.26.41.41,0,0,1,.13.24,3,3,0,0,0,.8,1.4c.19.19.44.34.42.7,0,.14.22.29.35.44s.19.13.24.23c.26.5.51,1,.77,1.52a3.82,3.82,0,0,0,.77,1.26,2,2,0,0,1,.49.7,7.61,7.61,0,0,0,1.23,1.86,11.76,11.76,0,0,1,1.08,1.8,2.67,2.67,0,0,0,.4.59,14,14,0,0,1,1.32,2.1c.25.37.5.74.72,1.13s.26.53.39.8c.24.44.48.9.74,1.33a5.17,5.17,0,0,0,.79,1.14,3,3,0,0,1,.46.83,2.84,2.84,0,0,0,.24.46c.36.51.75,1,1.11,1.49a9.33,9.33,0,0,1,.55.84l1.52,2.49c.32.55.64,1.1,1,1.65a.41.41,0,0,0,.12.14c.49.26.58.73.72,1.21a2,2,0,0,0,.5.79,3.82,3.82,0,0,1,.67,1,20.38,20.38,0,0,0,2.21,3.59,8.74,8.74,0,0,1,.52,1c.45.74.92,1.46,1.37,2.19.16.26.27.55.43.81.4.67.82,1.33,1.24,2a5.71,5.71,0,0,0,.38.48c0,.06.15.12.15.18,0,.6.47,1,.73,1.44s.61,1,.92,1.56.49.79.72,1.19.54.9.81,1.35c.16.26.35.5.5.76.4.74.85,1.45,1.27,2.18a6.19,6.19,0,0,1,.39.92,1.38,1.38,0,0,0,.8,1c.09,0,.14.18.2.28-.1.06-.21.17-.31.16a.93.93,0,0,0-.74.29s-.1.1-.16.1a7.56,7.56,0,0,1-1.41.18c-.78,0-1.55-.16-2.33-.25-.11,0-.23,0-.34,0-.61,0-1.21.06-1.82.06a4.61,4.61,0,0,0-1.48.1.49.49,0,0,1-.24,0,8.18,8.18,0,0,0-1.85,0c-.59,0-1.18,0-1.77.07a7.86,7.86,0,0,1-1.94-.13c-.3,0-.61,0-.92,0a3.92,3.92,0,0,1-.76-.08.64.64,0,0,0-.73.21.62.62,0,0,1-.81.2,3,3,0,0,1-.77-.37,1.36,1.36,0,0,0-.71-.25c-.38,0-.44-.13-.34-.48a1.43,1.43,0,0,0-.1-1.16c-.5-.93-1-1.88-1.44-2.82a6.11,6.11,0,0,0-.46-.67l-1.47-2.07c-.12-.18-.22-.38-.34-.58-.46-.76-1-1.5-1.39-2.28-.54-1-1.24-1.9-1.7-3a11.85,11.85,0,0,0-.89-1.48c-.5-.78-1-1.56-1.52-2.33-.28-.42-.61-.82-.89-1.25-.48-.76-.89-1.59-1.43-2.31a31,31,0,0,1-2-3.55c-.33-.58-.72-1.13-1.08-1.69a4.81,4.81,0,0,1-.25-.51,2.09,2.09,0,0,0-.14-.3,9.36,9.36,0,0,1-.95-1.76c0-.07,0-.18-.08-.22-.6-.48-.79-1.22-1.22-1.81s-.9-1.55-1.36-2.32c-.23-.4-.48-.79-.72-1.18-.52-.85-1-1.69-1.53-2.55-.18-.32-.28-.68-.44-1s-.31-.52-.45-.79c-.3-.55-.59-1.1-.89-1.64a1.24,1.24,0,0,0-.23-.24,3.49,3.49,0,0,0-.33.36c-.36.55-.74,1.09-1.06,1.66s-.43,1-.74,1.44A14.6,14.6,0,0,0,41,73.88,9.45,9.45,0,0,1,40.49,75c-.13.17-.23.38-.36.56a2.41,2.41,0,0,0-.51,1,1.07,1.07,0,0,1-.2.38c-.23.32-.5.62-.71,1a.74.74,0,0,0-.18.67c0,.1-.09.31-.2.4a3.7,3.7,0,0,0-.74,1.05c-.25.4-.51.8-.74,1.21s-.25.61-.39.91a2.64,2.64,0,0,1-.2.37,2.61,2.61,0,0,0-.39.65,1.4,1.4,0,0,1-.44.73,2.5,2.5,0,0,0-.61.79c-.2.43-.44.85-.66,1.27l-.09.11a7,7,0,0,0-.74,1.17,5.22,5.22,0,0,1-.87,1.29,9,9,0,0,0-1.32,2.27.84.84,0,0,1-.11.21,7.94,7.94,0,0,0-1,1.77l-.5.91L29,94.72c-.22.42-.41.87-.65,1.28A19.49,19.49,0,0,0,27,98c-.36.76-.88,1.41-1.28,2.13-.28.51-.59,1-.88,1.49s-.4.76-.63,1.12c-.5.78-1,1.55-1.53,2.32-.12.17-.24.34-.35.52l-.78,1.26c-.09.15-.15.32-.23.48s-.15.26-.22.4-.06,0-.07.07c0,.42-.38.55-.63.79a5.75,5.75,0,0,0-.6.86c-.18.26-.24.27-.58.1V109a5.23,5.23,0,0,1-.56,0,11.81,11.81,0,0,1-2.06,0h-.09a12.37,12.37,0,0,1-2.28-.07c-1.07,0-2.1-.18-3.15-.23a2.44,2.44,0,0,0-.38,0,13.81,13.81,0,0,1-2.49,0c-.35,0-.7,0-1,0-.56,0-1.12-.09-1.68-.09a15,15,0,0,0-1.77.09c-.3,0-.41.06-.46.24"/><path class="cls-1" d="M83.06,107.12c-.08-.2-.12-.33-.18-.45a4.76,4.76,0,0,0-.28-.49c-.35-.58-.69-1.16-1-1.73a14.34,14.34,0,0,1-.81-1.36,12.41,12.41,0,0,0-1.4-2.22,5.79,5.79,0,0,1-.92-1.62,2.49,2.49,0,0,0-.22-.43c-.19-.29-.39-.58-.57-.88-.33-.53-.65-1.07-1-1.59-.14-.23-.37-.41-.5-.64-.23-.4-.41-.83-.63-1.23a9.55,9.55,0,0,0-.62-1,4.86,4.86,0,0,1-.72-1.3,4.77,4.77,0,0,0-.34-.63c-.42-.66-.83-1.33-1.25-2l-1.47-2.3a5.51,5.51,0,0,1-.37-.61c-.23-.46-.43-.93-.65-1.39a1.34,1.34,0,0,0-.22-.31,8.42,8.42,0,0,1-1.18-1.56c-.09-.19-.2-.37-.29-.55A18.48,18.48,0,0,1,67,80.43a2.34,2.34,0,0,0-.39-.81,21.26,21.26,0,0,1-1.9-2.71,3.39,3.39,0,0,0-.27-.39,5.39,5.39,0,0,1-.89-1.42,8.76,8.76,0,0,0-.49-1.19c-.26-.46-.59-.87-.88-1.32s-.41-.71-.63-1.07-.61-1-.93-1.45a12.31,12.31,0,0,1-1-1.43,5.9,5.9,0,0,0-.66-1,3.3,3.3,0,0,1-.3-.43c-.39-.66-.76-1.34-1.16-2-.51-.81-1.07-1.59-1.58-2.4-.34-.54-.61-1.12-.94-1.66-.47-.74-1-1.44-1.45-2.2C53.07,58,52.65,57,52.17,56a6.93,6.93,0,0,0-.57-1c-.18-.25-.45-.44-.64-.7a1,1,0,0,1-.25-.65,4.9,4.9,0,0,1,.47-1.2c.2-.37.5-.7.71-1.07a34,34,0,0,1,2-3.58c.2-.29.38-.59.58-.88a8.72,8.72,0,0,1,1-1.53.86.86,0,0,0,.13-.2,7.22,7.22,0,0,1,.91-1.57.25.25,0,0,0,0-.13,7.41,7.41,0,0,1,1.17-2.29c.22-.36.52-.68.74-1,.33-.55.57-1.16.94-1.7.53-.78.94-1.63,1.4-2.46s1-1.87,1.57-2.8,1-1.62,1.52-2.43c.4-.63.81-1.26,1.21-1.9.16-.25.29-.53.45-.79.32-.51.7-1,1-1.52s.76-.8.88-1.36c0,0,0-.05.06-.07a7,7,0,0,0,1.25-1.79c.41-.68.8-1.38,1.21-2.06a10,10,0,0,1,.7-1.08,18.33,18.33,0,0,0,1-1.83,12.31,12.31,0,0,1,1.08-1.68,3.89,3.89,0,0,0,.43-.63c.28-.48.57-.95.84-1.44s.63-1.14.94-1.71.5-1,.72-1.45.53-.86.7-1.36a2.56,2.56,0,0,1,.72-1.22,1.71,1.71,0,0,0,.29-.59c0-.1,0-.23.09-.32.27-.45.57-.89.84-1.33A6.79,6.79,0,0,1,79.61,5s0,0,0,0a5.49,5.49,0,0,0,.85-1.49A5.35,5.35,0,0,1,81,2.39a.61.61,0,0,0,.09-.6,7.36,7.36,0,0,0-.8-.12c-.71,0-1.41,0-2.12,0-.5,0-1,.08-1.52.1-.3,0-.6-.06-.9-.05-.67,0-1.33.12-2,.13A8.55,8.55,0,0,0,72.11,2a3.21,3.21,0,0,1-.76,0C71,2,70.62,2,70.25,2s-.73,0-1.1.06a.5.5,0,0,0-.25.13.69.69,0,0,1-1,.17c-.26-.16-.4-.08-.57.16s-.27.4-.41.59-.48.64-.7,1-.35.61-.52.92c-.37.64-.75,1.27-1.1,1.91S63.89,8.29,63.53,9c-.09.18-.16.38-.25.56-.29.57-.61,1.12-.87,1.7-.16.35-.25.74-.41,1.21a.72.72,0,0,0-.36.61s0,.11,0,.13c-.41.27-.47.75-.72,1.12A9.74,9.74,0,0,0,60,15.89a4.93,4.93,0,0,1-.81,1.16l-.53.67-.22.3c-.31.43-.65.84-.92,1.28s-.59,1.1-.88,1.64c0,.08-.13.14-.19.22a1.73,1.73,0,0,0-.54,1,1.44,1.44,0,0,1-.24.52,4.94,4.94,0,0,0-.3.49A17,17,0,0,1,54,25.67c0,.08-.13.14-.18.22a4.93,4.93,0,0,0-.44.68,7.67,7.67,0,0,1-1,1.75,5.45,5.45,0,0,0-.54,1.17,1.15,1.15,0,0,1-.2.36,8.49,8.49,0,0,0-1.07,1.52c-.14.27-.3.52-.46.78s-.29.41-.41.63c-.4.74-.74,1.5-1.18,2.2-.17.28-.23.6-.41.85-.55.76-1,1.61-1.51,2.37a9.23,9.23,0,0,0-1.32,2.38c-.19.55-.5,1-1.2,1a1.33,1.33,0,0,0-.19.05.65.65,0,0,1-.77-.41,6.38,6.38,0,0,0-1.22-2,.46.46,0,0,1-.11-.16L40.5,37c-.33-.53-.68-1-1-1.58-.13-.21-.2-.47-.34-.68-.32-.48-.68-.92-1-1.41s-.68-1.11-1-1.67c-.24-.4-.45-.81-.67-1.22A7.45,7.45,0,0,1,36,29.6a2.47,2.47,0,0,0-.62-1c-.05,0-.06-.1-.09-.16l-1-1.84c-.23-.39-.42-.8-.64-1.18-.44-.77-1-1.46-1.49-2.22-.26-.41-.49-.85-.78-1.25s-.59-.91-.87-1.38a15.28,15.28,0,0,1-1.28-2.08,3.76,3.76,0,0,0-.39-.71,9.84,9.84,0,0,1-.74-1.12,22.25,22.25,0,0,0-1.74-2.84c-.31-.48-.55-1-.83-1.51a12.8,12.8,0,0,0-.7-1.19c-.36-.48-.79-.92-1.18-1.38a2,2,0,0,1-.21-.37c-.23-.44-.44-.89-.7-1.31s-.62-.86-.89-1.31A12.49,12.49,0,0,1,20.94,5a7.46,7.46,0,0,0-1.63-2.22A.46.46,0,0,0,19,2.63a5.93,5.93,0,0,1-1.52-.07c-.82-.05-1.63,0-2.45,0a21.27,21.27,0,0,1-2.39.13,2.85,2.85,0,0,0-1.23.14.93.93,0,0,1-.24,0L9,2.92c-.38,0-.76,0-1.14,0s-1,0-1.53,0-.58.2-.37.66a9.63,9.63,0,0,0,.58,1.1c.4.63.83,1.24,1.25,1.86a.48.48,0,0,0,.09.11,5.11,5.11,0,0,1,.93,1.53.72.72,0,0,0,.45.52c.18.05.23.18.29.35A3.69,3.69,0,0,0,10,10a12.53,12.53,0,0,1,1,1.78,1.77,1.77,0,0,0,.16.34c.12.19.26.36.39.54.41.56.55,1.29,1.09,1.77a.34.34,0,0,1,.08.17,2.35,2.35,0,0,0,.64,1.11c.34.41.67.84,1,1.26a.38.38,0,0,1,.08.17,1.79,1.79,0,0,0,.4.91,2.94,2.94,0,0,1,.43.69c.4,1,1.11,1.94,1.59,2.94.36.74,1,1.25,1.38,2,.15.35.46.62.63,1a.79.79,0,0,0,.51.49,5.7,5.7,0,0,0,.47,1.05c.52.74.9,1.57,1.48,2.28a3.25,3.25,0,0,1,.33.57,5.31,5.31,0,0,0,.47,1,4.7,4.7,0,0,1,.4.59c.32.58.7,1.13,1,1.71.24.39.45.81.69,1.2s.48.79.75,1.17a5,5,0,0,0,.79,1.11c.23.2.3.58.46.87s.38.63.57.93a6.29,6.29,0,0,1,1,1.66,1.93,1.93,0,0,0,.22.36l.25.41a9.41,9.41,0,0,0,1,1.77c.34.4.67.81,1,1.22l.08.12c.13.33.24.66.38,1,.23.49.47,1,.71,1.45a4.72,4.72,0,0,0,.37.61c.24.35.52.67.76,1s.51.77.76,1.16.46.75.68,1.13.43.75.66,1.11.45.58.63.9.24.71.56.93.3.63.56.89a.56.56,0,0,1,.1.47c-.25.46-.56.88-.85,1.32a4.38,4.38,0,0,0-.54.9,14.87,14.87,0,0,1-1.5,2.88,3.61,3.61,0,0,0-.26.61,4.16,4.16,0,0,1-.16.5c-.15.29-.43.57-.47.88s-.35.56-.52.85l-.11.21a10.08,10.08,0,0,1-1,1.88A1.43,1.43,0,0,0,31,64a2.45,2.45,0,0,0-.38.71,1.06,1.06,0,0,1-.36.69,1.17,1.17,0,0,0-.17.29c-.17.32-.34.65-.52,1-.32.55-.65,1.09-1,1.63-.1.17-.17.34-.27.51-.28.46-.58.92-.85,1.39-.15.25-.24.54-.4.79-.5.8-1,1.58-1.52,2.38a3.6,3.6,0,0,0-.32.58c-.18.38-.55.68-.47,1.17,0,.08-.13.21-.23.28s-.39.23-.4.49c0,.06-.06.12-.09.17L23,77.7c-.11.17-.18.36-.28.54-.31.5-.65,1-.94,1.5A5.08,5.08,0,0,1,21,81a.91.91,0,0,0-.13.3c-.07.14-.12.29-.2.43s-.32.48-.46.73-.29.64-.46.95c-.29.51-.6,1-.91,1.52s-.63,1-.95,1.56-.67,1-1,1.48c-.57.94-1.12,1.9-1.68,2.85a6.78,6.78,0,0,1-.53.95,6.18,6.18,0,0,0-.72,1.4,5.11,5.11,0,0,1-.44.79c-.3.47-.64.91-.92,1.39s-.5,1.07-.8,1.57-.81,1.15-1.2,1.74-.63,1-1,1.53a14.23,14.23,0,0,1-1.38,2,10.15,10.15,0,0,0-1,1.36c-.29.44-.56.89-.83,1.34s-.45.73-.69,1.09a5.7,5.7,0,0,1-.41.51c.22,0,.35.08.48.09l2.83,0a6.88,6.88,0,0,1,.91,0,8.46,8.46,0,0,0,2,.06,2.06,2.06,0,0,1,.43,0,7.09,7.09,0,0,0,1.77.11,3.65,3.65,0,0,1,1.48.14.32.32,0,0,0,.14,0,18.43,18.43,0,0,0,3.15-.09,1,1,0,0,0,.77-.73,2.5,2.5,0,0,0,.05-.29c0-.17.08-.32.28-.33s.31-.19.42-.36c.31-.48.62-1,.95-1.44s.54-.71.78-1.09c.71-1.1,1.43-2.19,2-3.36.52-1,1.17-1.91,1.74-2.87s1-1.72,1.46-2.59c.19-.35.33-.72.52-1.07.63-1.11,1.27-2.21,1.91-3.31l.69-1.15c.26-.4.53-.8.78-1.21.14-.25.23-.53.38-.77.32-.52.66-1,1-1.53.18-.26.4-.5.56-.77.39-.62.76-1.26,1.14-1.89.27-.43.58-.84.82-1.29a24.83,24.83,0,0,1,1.83-3.21c.23-.31.34-.71.55-1,.51-.88,1.06-1.75,1.58-2.63.15-.26.27-.54.4-.81l.27-.56,1.19-2.3a4.44,4.44,0,0,1,.37-.72,13.21,13.21,0,0,0,1.61-2.44,1.2,1.2,0,0,1,.19-.27.92.92,0,0,1,1.52,0l2,2.72a4.52,4.52,0,0,1,.34.51,8.22,8.22,0,0,0,.51,1,3,3,0,0,1,.59,1.19.76.76,0,0,0,.16.29,4,4,0,0,1,.29.43l.7,1.25a.64.64,0,0,0,.2.2.39.39,0,0,1,.25.37.44.44,0,0,0,.13.25,2.94,2.94,0,0,1,.6,1.08,1.47,1.47,0,0,0,.18.28c.13.18.26.36.38.55s.34.57.5.87L52,79.35c0,.08.07.15.11.22.26.39.54.78.79,1.19s.37.74.58,1.09c.42.7.86,1.38,1.28,2.08.13.2.19.44.31.65s.38.54.55.83.3.63.48.93c.53.89,1.09,1.77,1.63,2.65.11.18.16.4.28.56.54.71,1.08,1.43,1.65,2.11a.79.79,0,0,1,.24.5,1.16,1.16,0,0,0,.48.84,10.47,10.47,0,0,1,.84,1s0,.06,0,.09a6.82,6.82,0,0,0,.35.72c.24.36.54.68.75,1a5.72,5.72,0,0,0,.58.87,1.07,1.07,0,0,1,.27.69,1.42,1.42,0,0,0,.37,1,2.09,2.09,0,0,1,.27.39c.32.6.91,1,1.14,1.64,0,0,.07.07.1.11s.22.35.32.53.22.46.36.67c.33.48.72.91,1,1.4.59,1,1.12,2.09,1.69,3.13.07.12.2.29.33.31.87.14,1.74.25,2.61.35.19,0,.39-.07.57,0a7.7,7.7,0,0,0,1.91.15c.85,0,1.7,0,2.55,0l3.16-.08c.34,0,.68,0,1,0a6.4,6.4,0,0,1,2,.15A1.93,1.93,0,0,0,83.06,107.12Z"/><path class="cls-1" d="M66.09,3.27l.16,0c.2-.06.36-.1.39-.38s.23-.33.39-.55c-.13,0-.22,0-.24,0C66.56,2.66,66.34,2.94,66.09,3.27Z"/><path class="cls-1" d="M65.25,5.27c0-.28,0-.28-.15-.37Z"/><path class="cls-1" d="M66.25,29.09c-.07-.07-.09-.11-.1-.1L66,29Z"/><path class="cls-1" d="M3.14,105.32c0-.06-.09-.12-.08-.13a.3.3,0,0,1,.13-.09s.08.07.07.08S3.19,105.26,3.14,105.32Z"/><path class="cls-1" d="M24.22,107.07l-.06.06L24.1,107s.06,0,.08,0S24.21,107.05,24.22,107.07Z"/><path class="cls-1" d="M11.32,93.14l.06,0-.05,0,0,0A.14.14,0,0,1,11.32,93.14Z"/><path class="cls-1" d="M83.06,107.12a1.93,1.93,0,0,1-.5,0,6.4,6.4,0,0,0-2-.15c-.33,0-.67,0-1,0l-3.16.08c-.85,0-1.7,0-2.55,0a7.7,7.7,0,0,1-1.91-.15c-.18,0-.38.06-.57,0-.87-.1-1.74-.21-2.61-.35-.13,0-.26-.19-.33-.31-.57-1-1.1-2.1-1.69-3.13-.29-.49-.68-.92-1-1.4-.14-.21-.23-.45-.36-.67s-.21-.36-.32-.53-.08-.07-.1-.11c-.23-.65-.82-1-1.14-1.64a2.09,2.09,0,0,0-.27-.39,1.42,1.42,0,0,1-.37-1,1.07,1.07,0,0,0-.27-.69,5.72,5.72,0,0,1-.58-.87c-.21-.37-.51-.69-.75-1a6.82,6.82,0,0,1-.35-.72s0-.07,0-.09a10.47,10.47,0,0,0-.84-1,1.16,1.16,0,0,1-.48-.84.79.79,0,0,0-.24-.5c-.57-.68-1.11-1.4-1.65-2.11-.12-.16-.17-.38-.28-.56-.54-.88-1.1-1.76-1.63-2.65-.18-.3-.31-.63-.48-.93s-.38-.55-.55-.83-.18-.45-.31-.65c-.42-.7-.86-1.38-1.28-2.08-.21-.35-.37-.74-.58-1.09s-.53-.8-.79-1.19c0-.07-.07-.14-.11-.22l-.77-1.48c-.16-.3-.33-.59-.5-.87s-.25-.37-.38-.55a1.47,1.47,0,0,1-.18-.28,2.94,2.94,0,0,0-.6-1.08.44.44,0,0,1-.13-.25.39.39,0,0,0-.25-.37.64.64,0,0,1-.2-.2L48.25,73a4,4,0,0,0-.29-.43.76.76,0,0,1-.16-.29,3,3,0,0,0-.59-1.19,8.22,8.22,0,0,1-.51-1,4.52,4.52,0,0,0-.34-.51l-2-2.72a.92.92,0,0,0-1.52,0,1.2,1.2,0,0,0-.19.27,13.21,13.21,0,0,1-1.61,2.44,4.44,4.44,0,0,0-.37.72l-1.19,2.3-.27.56c-.13.27-.25.55-.4.81-.52.88-1.07,1.75-1.58,2.63-.21.34-.32.74-.55,1a24.83,24.83,0,0,0-1.83,3.21c-.24.45-.55.86-.82,1.29-.38.63-.75,1.27-1.14,1.89-.16.27-.38.51-.56.77-.34.5-.68,1-1,1.53-.15.24-.24.52-.38.77-.25.41-.52.81-.78,1.21l-.69,1.15c-.64,1.1-1.28,2.2-1.91,3.31-.19.35-.33.72-.52,1.07-.48.87-1,1.73-1.46,2.59s-1.22,1.88-1.74,2.87c-.61,1.17-1.33,2.26-2,3.36-.24.38-.53.73-.78,1.09s-.64,1-.95,1.44c-.11.17-.19.34-.42.36s-.26.16-.28.33a2.5,2.5,0,0,1-.05.29,1,1,0,0,1-.77.73,18.43,18.43,0,0,1-3.15.09.32.32,0,0,1-.14,0,3.65,3.65,0,0,0-1.48-.14,7.09,7.09,0,0,1-1.77-.11,2.06,2.06,0,0,0-.43,0,8.46,8.46,0,0,1-2-.06,6.88,6.88,0,0,0-.91,0l-2.83,0c-.13,0-.26,0-.48-.09a5.7,5.7,0,0,0,.41-.51c.24-.36.46-.73.69-1.09s.54-.9.83-1.34a10.15,10.15,0,0,1,1-1.36,14.23,14.23,0,0,0,1.38-2c.35-.5.64-1,1-1.53s.83-1.14,1.2-1.74.5-1.06.8-1.57.62-.92.92-1.39a5.11,5.11,0,0,0,.44-.79,6.18,6.18,0,0,1,.72-1.4,6.78,6.78,0,0,0,.53-.95c.56-1,1.11-1.91,1.68-2.85.3-.5.65-1,1-1.48s.63-1,.95-1.56.62-1,.91-1.52c.17-.31.29-.64.46-.95s.31-.49.46-.73.13-.29.2-.43A.91.91,0,0,1,21,81a5.08,5.08,0,0,0,.72-1.23c.29-.51.63-1,.94-1.5.1-.18.17-.37.28-.54L24.06,76s.09-.11.09-.17c0-.26.21-.37.4-.49s.24-.2.23-.28c-.08-.49.29-.79.47-1.17a3.6,3.6,0,0,1,.32-.58c.51-.8,1-1.58,1.52-2.38.16-.25.25-.54.4-.79.27-.47.57-.93.85-1.39.1-.17.17-.34.27-.51.32-.54.65-1.08,1-1.63.18-.31.35-.64.52-1a1.17,1.17,0,0,1,.17-.29,1.06,1.06,0,0,0,.36-.69A2.45,2.45,0,0,1,31,64a1.43,1.43,0,0,1,.14-.2,10.08,10.08,0,0,0,1-1.88l.11-.21c.17-.29.47-.46.52-.85s.32-.59.47-.88a4.16,4.16,0,0,0,.16-.5,3.61,3.61,0,0,1,.26-.61A14.87,14.87,0,0,0,35.2,56a4.38,4.38,0,0,1,.54-.9c.29-.44.6-.86.85-1.32a.56.56,0,0,0-.1-.47c-.26-.26-.23-.67-.56-.89s-.38-.62-.56-.93-.43-.6-.63-.9-.44-.74-.66-1.11-.45-.75-.68-1.13-.5-.78-.76-1.16-.52-.67-.76-1a4.72,4.72,0,0,1-.37-.61c-.24-.48-.48-1-.71-1.45-.14-.32-.25-.65-.38-1L30.34,43c-.33-.41-.66-.82-1-1.22a9.41,9.41,0,0,1-1-1.77l-.25-.41a1.93,1.93,0,0,1-.22-.36,6.29,6.29,0,0,0-1-1.66c-.19-.3-.39-.61-.57-.93s-.23-.67-.46-.87A5,5,0,0,1,25,34.65c-.27-.38-.51-.77-.75-1.17s-.45-.81-.69-1.2c-.35-.58-.73-1.13-1-1.71a4.7,4.7,0,0,0-.4-.59,5.31,5.31,0,0,1-.47-1,3.25,3.25,0,0,0-.33-.57c-.58-.71-1-1.54-1.48-2.28a5.7,5.7,0,0,1-.47-1.05.79.79,0,0,1-.51-.49c-.17-.34-.48-.61-.63-1-.34-.76-1-1.27-1.38-2-.48-1-1.19-1.89-1.59-2.94a2.94,2.94,0,0,0-.43-.69,1.79,1.79,0,0,1-.4-.91.38.38,0,0,0-.08-.17c-.33-.42-.66-.85-1-1.26a2.35,2.35,0,0,1-.64-1.11.34.34,0,0,0-.08-.17c-.54-.48-.68-1.21-1.09-1.77-.13-.18-.27-.35-.39-.54a1.77,1.77,0,0,1-.16-.34A12.53,12.53,0,0,0,10,10a3.69,3.69,0,0,1-.42-.9c-.06-.17-.11-.3-.29-.35a.72.72,0,0,1-.45-.52A5.11,5.11,0,0,0,7.9,6.65a.48.48,0,0,1-.09-.11C7.39,5.92,7,5.31,6.56,4.68A9.63,9.63,0,0,1,6,3.58c-.21-.46-.13-.62.37-.66s1,0,1.53,0,.76,0,1.14,0l2.15-.08a.93.93,0,0,0,.24,0,2.85,2.85,0,0,1,1.23-.14A21.27,21.27,0,0,0,15,2.55c.82,0,1.63,0,2.45,0A5.93,5.93,0,0,0,19,2.63a.46.46,0,0,1,.31.18A7.46,7.46,0,0,1,20.94,5a12.49,12.49,0,0,0,.87,1.71c.27.45.61.86.89,1.31s.47.87.7,1.31a2,2,0,0,0,.21.37c.39.46.82.9,1.18,1.38a12.8,12.8,0,0,1,.7,1.19c.28.5.52,1,.83,1.51a22.25,22.25,0,0,1,1.74,2.84,9.84,9.84,0,0,0,.74,1.12,3.76,3.76,0,0,1,.39.71,15.28,15.28,0,0,0,1.28,2.08c.28.47.55.94.87,1.38s.52.84.78,1.25c.47.76,1.05,1.45,1.49,2.22.22.38.41.79.64,1.18l1,1.84c0,.06,0,.13.09.16a2.47,2.47,0,0,1,.62,1,7.45,7.45,0,0,0,.49.87c.22.41.43.82.67,1.22.32.56.65,1.13,1,1.67s.67.93,1,1.41c.14.21.21.47.34.68.33.54.68,1,1,1.58l1.31,2.06a.46.46,0,0,0,.11.16,6.38,6.38,0,0,1,1.22,2,.65.65,0,0,0,.77.41,1.33,1.33,0,0,1,.19-.05c.7,0,1-.49,1.2-1a9.23,9.23,0,0,1,1.32-2.38c.55-.76,1-1.61,1.51-2.37.18-.25.24-.57.41-.85.44-.7.78-1.46,1.18-2.2.12-.22.27-.42.41-.63s.32-.51.46-.78a8.49,8.49,0,0,1,1.07-1.52,1.15,1.15,0,0,0,.2-.36,5.45,5.45,0,0,1,.54-1.17,7.67,7.67,0,0,0,1-1.75,4.93,4.93,0,0,1,.44-.68c.05-.08.13-.14.18-.22a17,17,0,0,0,1.43-2.48,4.94,4.94,0,0,1,.3-.49,1.44,1.44,0,0,0,.24-.52,1.73,1.73,0,0,1,.54-1c.06-.08.14-.14.19-.22.29-.54.56-1.11.88-1.64s.61-.85.92-1.28l.22-.3.53-.67A4.93,4.93,0,0,0,60,15.89a9.74,9.74,0,0,1,.84-1.56c.25-.37.31-.85.72-1.12,0,0,0-.09,0-.13a.72.72,0,0,1,.36-.61c.16-.47.25-.86.41-1.21.26-.58.58-1.13.87-1.7.09-.18.16-.38.25-.56.36-.71.72-1.42,1.1-2.12s.73-1.27,1.1-1.91c.17-.31.33-.62.52-.92s.47-.64.7-1,.27-.39.41-.59.31-.32.57-.16a.69.69,0,0,0,1-.17A.5.5,0,0,1,69.15,2c.37,0,.74-.06,1.1-.06S71,2,71.35,2a3.21,3.21,0,0,0,.76,0,8.55,8.55,0,0,1,1.67-.13c.67,0,1.33-.1,2-.13.3,0,.6.06.9.05.51,0,1-.08,1.52-.1.71,0,1.41,0,2.12,0a7.36,7.36,0,0,1,.8.12.61.61,0,0,1-.09.6,5.35,5.35,0,0,0-.55,1.06,5.49,5.49,0,0,1-.85,1.49s0,0,0,0a6.79,6.79,0,0,0-1.3,1.71c-.27.44-.57.88-.84,1.33-.06.09,0,.22-.09.32a1.71,1.71,0,0,1-.29.59,2.56,2.56,0,0,0-.72,1.22c-.17.5-.49.89-.7,1.36s-.47,1-.72,1.45-.62,1.15-.94,1.71-.56,1-.84,1.44a3.89,3.89,0,0,1-.43.63,12.31,12.31,0,0,0-1.08,1.68,18.33,18.33,0,0,1-1,1.83,10,10,0,0,0-.7,1.08c-.41.68-.8,1.38-1.21,2.06a7,7,0,0,1-1.25,1.79s-.06.05-.06.07c-.12.56-.63.87-.88,1.36s-.65,1-1,1.52c-.16.26-.29.54-.45.79-.4.64-.81,1.27-1.21,1.9-.51.81-1,1.61-1.52,2.43s-1,1.87-1.57,2.8-.87,1.68-1.4,2.46c-.37.54-.61,1.15-.94,1.7-.22.37-.52.69-.74,1a7.41,7.41,0,0,0-1.17,2.29.25.25,0,0,1,0,.13,7.22,7.22,0,0,0-.91,1.57.86.86,0,0,1-.13.2,8.72,8.72,0,0,0-1,1.53c-.2.29-.38.59-.58.88a34,34,0,0,0-2,3.58c-.21.37-.51.7-.71,1.07a4.9,4.9,0,0,0-.47,1.2,1,1,0,0,0,.25.65c.19.26.46.45.64.7a6.93,6.93,0,0,1,.57,1c.48,1,.9,1.94,1.42,2.88.43.76,1,1.46,1.45,2.2.33.54.6,1.12.94,1.66.51.81,1.07,1.59,1.58,2.4.4.65.77,1.33,1.16,2a3.3,3.3,0,0,0,.3.43,5.9,5.9,0,0,1,.66,1,12.31,12.31,0,0,0,1,1.43c.32.48.63,1,.93,1.45s.41.72.63,1.07.62.86.88,1.32a8.76,8.76,0,0,1,.49,1.19,5.39,5.39,0,0,0,.89,1.42,3.39,3.39,0,0,1,.27.39,21.26,21.26,0,0,0,1.9,2.71,2.34,2.34,0,0,1,.39.81,18.48,18.48,0,0,0,1.39,2.4c.09.18.2.36.29.55a8.42,8.42,0,0,0,1.18,1.56,1.34,1.34,0,0,1,.22.31c.22.46.42.93.65,1.39a5.51,5.51,0,0,0,.37.61l1.47,2.3c.42.65.83,1.32,1.25,2a4.77,4.77,0,0,1,.34.63,4.86,4.86,0,0,0,.72,1.3,9.55,9.55,0,0,1,.62,1c.22.4.4.83.63,1.23.13.23.36.41.5.64.34.52.66,1.06,1,1.59.18.3.38.59.57.88a2.49,2.49,0,0,1,.22.43,5.79,5.79,0,0,0,.92,1.62,12.41,12.41,0,0,1,1.4,2.22,14.34,14.34,0,0,0,.81,1.36c.35.57.69,1.15,1,1.73a4.76,4.76,0,0,1,.28.49C82.94,106.79,83,106.92,83.06,107.12Z"/><path class="cls-1" d="M66.09,3.27c.25-.33.47-.61.7-.89,0,0,.11,0,.24,0-.16.22-.37.37-.39.55s-.19.32-.39.38Z"/><path class="cls-1" d="M65.25,5.27,65.1,4.9C65.27,5,65.27,5,65.25,5.27Z"/><path class="cls-1" d="M66.25,29.09,66,29l.14-.05S66.18,29,66.25,29.09Z"/></svg>