<svg id="Y" xmlns="http://www.w3.org/2000/svg" viewBox="0 0 86 112"><defs><style>.cls-1{stroke:#000;stroke-miterlimit:10;}</style></defs><path class="cls-1" d="M73.05,19.22l.07.06c-.21.31-.15.77-.52,1,0,.4-.36.62-.53.93a6.47,6.47,0,0,0-.38,1.07c-.14.42-.25.51-.66.5,0,.19.32.36,0,.54a2.34,2.34,0,0,1-.62.18l.52.21c-.34.46-.39,1.1-1,1.36l-.3-.36c-.17.09-.22.22-.06.42l-.4.12.59.3a2.17,2.17,0,0,1-.12.36A7.46,7.46,0,0,0,69.16,27c-.1.37-.26.6-.61.65-.18.26-.07.67-.51.71a.81.81,0,0,1-.26.74,8.16,8.16,0,0,0-.56.88s0,0,0,.05a3.63,3.63,0,0,1-.75,1.78c0,.43-.43.68-.39,1.12,0,.1-.16.23-.25.34s-.18.23-.13.56a3,3,0,0,0-.89,1.41,11.48,11.48,0,0,1-.85,1.63c-.14.28-.26.57-.39.86l-.19.37a.93.93,0,0,1-.9.5l.27.36c-.18.33-.24.73-.59,1a1.21,1.21,0,0,0-.22.37c-.16.32-.31.65-.49,1,0,.08-.18.11-.28.16a6.56,6.56,0,0,1-.2,1,5,5,0,0,1-.46.93c-.16.25-.38.48-.57.72a.7.7,0,0,0-.19.27c-.16.73-.73,1.25-1,1.94-.13.36-.42.66-.44,1.08a.1.1,0,0,1,0,.08c-.41.3-.48.8-.7,1.2s-.58.84-.86,1.26a1.42,1.42,0,0,0-.23.44,2.24,2.24,0,0,1-.36.82,4.73,4.73,0,0,0-.28.55,4.66,4.66,0,0,1-.47.77,8.46,8.46,0,0,0-1.06,2.18s0,.11,0,.14c-.51.44-.51,1.17-.94,1.68a6.18,6.18,0,0,0-.66,1.31l-.44.85a2.51,2.51,0,0,0-.24.46,9,9,0,0,1-1,1.87,2.17,2.17,0,0,0-.53,1.19c0,.22-.2.43-.23.66-.1.71-.17,1.43-.22,2.14,0,.2.14.41.12.6,0,.58.17,1.12.16,1.69s0,1.12,0,1.68.11.95.12,1.42c0,.62,0,1.24,0,1.87,0,.2,0,.41,0,.61s0,.14,0,.19a6.15,6.15,0,0,0-.11,2.26c0,1.3-.11,2.58-.15,3.88a16.07,16.07,0,0,0,.13,2.29c.09.87,0,1.75.06,2.63a7.3,7.3,0,0,0,0,.81,6.36,6.36,0,0,1,0,1.38,9.48,9.48,0,0,0,0,1.92,18.06,18.06,0,0,1-.07,2,2.08,2.08,0,0,0,0,.43,2.77,2.77,0,0,1,0,1.28.41.41,0,0,0,0,.19,7.66,7.66,0,0,1,0,2c0,.68,0,1.37,0,2.06,0,1.34,0,2.68,0,4s-.1,2.49-.13,3.74c0,1.07,0,2.14,0,3.21a3.06,3.06,0,0,0,.12.66,1.36,1.36,0,0,1-1,1.62c-.52.11-1.07.13-1.6.19a5.52,5.52,0,0,1-.81.06c-.65,0-1.29,0-1.94,0l-5.76-.21-.52,0a2.77,2.77,0,0,0-1.18,0h-.09c-.67,0-1.33,0-2-.07-.38,0-.66,0-.77.39-.06,0-.11,0-.12,0a9.2,9.2,0,0,1-.76-.77,1.61,1.61,0,0,1-.32-1.4,2.73,2.73,0,0,0,0-1.14,1.64,1.64,0,0,1,0-.38c0-.4.09-.79.13-1.19s.1-.82.1-1.24-.05-1.08-.05-1.62.06-1,.07-1.53,0-1,0-1.57,0-.89,0-1.34,0-.73,0-1.1c0-.22,0-.45,0-.67l.06-2.39c0-.24.05-.48.07-.71a1,1,0,0,0,0-.29,23.79,23.79,0,0,1,0-2.67c0-.53-.07-1.05-.07-1.58s.06-.89.07-1.34c0-1.61.05-3.23.08-4.84,0-.18,0-.35,0-.53a17.63,17.63,0,0,0,0-2.72c-.07-1,0-2,0-3,0-.33,0-.67,0-1,0-.93,0-1.85,0-2.78,0-.61,0-1.21.05-1.82a1.54,1.54,0,0,0,0-.43A10.57,10.57,0,0,1,34,67c.06-1,0-1.91,0-2.86,0-.11.05-.22.07-.33a2.49,2.49,0,0,0,.11-.7A7.18,7.18,0,0,0,33.88,61a2,2,0,0,0-.27-.55,2,2,0,0,1-.43-.84,23.57,23.57,0,0,0-1.6-3.77c-.13-.27-.34-.5-.48-.77s-.32-.65-.48-1a2.75,2.75,0,0,0-.14-.3c-.21-.35-.44-.69-.64-1.06-.29-.56-.57-1.13-.83-1.71a16,16,0,0,0-1.07-1.84c-.05-.07-.12-.12-.13-.2a7.27,7.27,0,0,0-1-1.84.58.58,0,0,1-.12-.25,1.27,1.27,0,0,0-.47-.95l.27-.28c-.08,0-.14-.13-.2-.13-.28,0-.38-.16-.48-.37s-.3-.48-.44-.72c-.42-.7-.85-1.39-1.26-2.09A.9.9,0,0,1,24,42a1.38,1.38,0,0,0-.36-.9,1.66,1.66,0,0,1-.29-.48,12.57,12.57,0,0,0-1-1.84,1,1,0,0,1-.1-.17c-.31-.62-.6-1.25-.92-1.87s-.63-1.07-.93-1.61l-1.07-2-1.57-2.82c-.28-.51-.58-1-.86-1.54s-.35-.77-.54-1.15-.37-.77-.56-1.15a9.1,9.1,0,0,1-.45-.88,1.42,1.42,0,0,1,0-.45L15,24.68a3.69,3.69,0,0,1-.25-.34c-.21-.38-.43-.74-.61-1.13s-.41-.95-.62-1.43a1.55,1.55,0,0,0-.21-.25c-.06-.07-.16-.14-.17-.22-.09-.58-.53-1-.78-1.45a6.18,6.18,0,0,1-.94-2.17,1.86,1.86,0,0,0-.1-.33,2.31,2.31,0,0,0,.32,0,2.3,2.3,0,0,0,.26,0,.85.85,0,0,0-.1-.28.71.71,0,0,0-.26-.13v-.45l-.08,0a1,1,0,0,1-.13.36c-.07.08-.22.09-.35.13s-.15-.2-.14-.27c.08-.36-.17-.55-.34-.79s-.32-.43-.5-.64a6.17,6.17,0,0,1-.83-1.59,3.91,3.91,0,0,0-.6-1,4.67,4.67,0,0,1-.83-1.32c-.07-.17-.18-.33-.25-.5a1.18,1.18,0,0,1-.08-.31c0-.06,0-.15,0-.19-.49-.46-.52-1.16-.86-1.7s-.6-1-.9-1.51c0-.06-.11-.1-.12-.15-.1-.65-.66-1.08-.8-1.71a2.25,2.25,0,0,0-.24-.46c-.31-.55-.61-1.11-.93-1.66-.09-.15-.24-.26-.32-.41a8.25,8.25,0,0,1-.56-1.21.72.72,0,0,1,.83-1,2.07,2.07,0,0,0,.61,0L5.79.44,9.2.28a1.56,1.56,0,0,1,.43,0,.92.92,0,0,0,.69,0,.83.83,0,0,1,.32,0c.32,0,.63,0,.95,0L13.81.1a1,1,0,0,1,.38,0,.84.84,0,0,0,.77,0,.52.52,0,0,1,.28,0A1.52,1.52,0,0,0,16.05,0a3.23,3.23,0,0,1,1.16-.16c.12,0,.26.17.36.28.36.43.7.87,1,1.31a1.87,1.87,0,0,1,.23.47,3.94,3.94,0,0,0,.64,1.15,6.42,6.42,0,0,1,.68,1.09c.29.51.56,1,.84,1.55a6.62,6.62,0,0,1,.68,1.25c.16.54.53,1,.71,1.49a2.61,2.61,0,0,0,.47.7,1.94,1.94,0,0,1,.54,1,.85.85,0,0,0,.11.26c.27.5.52,1,.8,1.49.11.19.32.31.46.48a1.73,1.73,0,0,1,.25.44c.16.36.29.74.45,1.1s.4.83.62,1.23.35.53.5.81.37.73.56,1.08.3.53.45.79.32.62.49.92.36.56.53.85c.33.57.64,1.16,1,1.73.19.33.38.64.58,1s.51.6.51,1c0,0,0,.06,0,.09a19.08,19.08,0,0,1,1.18,2c.29.48.48,1,.74,1.52.17.33.38.63.56.95a2.43,2.43,0,0,1,.22.46,2.28,2.28,0,0,0,.55,1,.79.79,0,0,1,.14.18l.55.77c.06.08.17.17.16.23-.1.36.22.49.36.72a9.6,9.6,0,0,1,1,1.78,3.47,3.47,0,0,0,.26.45c.09.2.16.41.25.61a2,2,0,0,0,.24.45A6.85,6.85,0,0,1,38,36.25a5.35,5.35,0,0,0,.65,1,1.73,1.73,0,0,1,.34.87,1.44,1.44,0,0,0,.22.45c.08.11.23.21.25.33a3.77,3.77,0,0,0,.76,1.57,6.72,6.72,0,0,1,.55,1.15s0,.1,0,.14c.3.48.61,1,.91,1.45a7.63,7.63,0,0,0,.8,1.23c.17.19.25.2.41,0l.65-.87a.24.24,0,0,0,0-.13c0-.52.38-.82.65-1.18s.61-.53.63-1c.49-.63.79-1.39,1.29-2a9.33,9.33,0,0,0,.67-1.15,13.29,13.29,0,0,0,.67-1.49,4.18,4.18,0,0,1,.49-.85c.09-.12.3-.15.48-.22a.47.47,0,0,1,0-.62,6.36,6.36,0,0,0,.67-1.19,7.83,7.83,0,0,1,.81-1.34c.05-.08.17-.18.15-.23-.13-.36.16-.51.31-.74a2.31,2.31,0,0,0,.22-.51c0-.08.05-.17.09-.26a1.85,1.85,0,0,0,.19-.37,4.63,4.63,0,0,1,.86-1.57c.3-.42.57-.88.84-1.32a1.23,1.23,0,0,0,.23-.77.89.89,0,0,1,.08-.31c.09-.25.19-.49.33-.83a.77.77,0,0,0,.41-.65,4,4,0,0,1,.53-1.11l.31-.59c.25-.46.52-.91.73-1.39a9.39,9.39,0,0,0,.61-1.33,2.73,2.73,0,0,1,.45-.71c0-.06.13-.11.15-.17a9.51,9.51,0,0,1,1-1.8.53.53,0,0,1,.18-.21,1.22,1.22,0,0,0,.5-.7,1.23,1.23,0,0,1,.19-.38,13.49,13.49,0,0,0,1.17-2.06,10.06,10.06,0,0,0,.66-1.2c.28-.59.51-1.2.79-1.79s.57-1.09.85-1.64A3.61,3.61,0,0,0,62,9.16c.16-.55.31-1.09.46-1.64a.61.61,0,0,1,.05-.18,13.47,13.47,0,0,1,.82-1.66c.51-.79.88-1.64,1.33-2.46a5.59,5.59,0,0,1,.22-.57q.49-.81,1-1.59a1.11,1.11,0,0,1,.87-.32,5.7,5.7,0,0,1,1.7,0,6.42,6.42,0,0,0,.76,0c.82,0,1.64.07,2.46,0A5.86,5.86,0,0,0,73,.47a.56.56,0,0,1,.69.16c.33-.48.64,0,1-.05.1-.1.13-.42.42-.16.14.12.17.08.39-.13l.59.2.07-.27A1.65,1.65,0,0,0,77.39,0l.1.36a2.15,2.15,0,0,1,2.32.18c.24-.39.64-.29,1-.36.14,0,.28,0,.37-.16A.31.31,0,0,1,81.4,0a8.82,8.82,0,0,1,1.15.3A.46.46,0,0,1,82.8,1c-.14.27-.3.52-.46.78a1.6,1.6,0,0,0-.25.65,2.46,2.46,0,0,1-.38.76c-.21.34-.43.68-.63,1s-.45.73-1,.62c-.09,0-.22.17-.31.31.23,0,.48-.06.52.29a1.31,1.31,0,0,0-.37.87c0,.31-.07.68-.44.8,0,.14.08.28,0,.36-.2.42-.42.81-.64,1.22,0,0-.06,0-.07.07A1.83,1.83,0,0,1,78,9.88c-.16.09-.12.28.09.39l-.53.15.2.23c-.07.22-.51.3-1,.15l-.09.3.34.05.31,0a3,3,0,0,1,0,.31,3.83,3.83,0,0,1-.54,1.09c-.21.36-.38.4-.72.17-.16-.11-.23,0-.34,0a1.2,1.2,0,0,0-.32.06c.27.21.68,0,.92.34-.16.27-.12.63-.43.89-.16.13-.19.42-.29.66l-.32-.06a.85.85,0,0,0,0,.25,1.92,1.92,0,0,1-.23,1c0,.05-.05.12-.08.12-.35,0-.28.38-.38.58-.21.42-.36.88-.54,1.31a2.39,2.39,0,0,1-.9,1.13s0,.12,0,.18h-.45v.08Zm7.38-18.1c-.07-.35-.07-.35-.37-.3l.38.3c-.14,0-.28-.1-.36.12Zm-9.61,20a1.26,1.26,0,0,1-.33.05c-.07,0-.19-.12-.18-.16a.45.45,0,0,1,.17-.24s.14,0,.22,0l-.13-.68a12.16,12.16,0,0,0,.82-1c.17-.25.34-.42.67-.3l-.34-.43.36-.09a1.65,1.65,0,0,1,1-1.72c-.28-.25-.09-.4.08-.59a3.85,3.85,0,0,0,.38-.65c-.14-.17-.09-.37.08-.59a4.62,4.62,0,0,0,.28-.48c.19-.27.25-.66.73-.68-.3-.35.15-.32.18-.54-.15-.46.17-.83.36-1.22a1.76,1.76,0,0,1,.9-.92c-.13-.22,0-.39.16-.52,0,0,.12-.1.11-.12-.19-.32.07-.31.26-.37s.37-.06.43-.34l-.21,0-.23.09c.27-.44.29-.45.65-.43,0-.22,0-.45,0-.66a1.15,1.15,0,0,1,.12-.5c.18-.25.43-.46.42-.82a.21.21,0,0,1,.11-.15.85.85,0,0,0,.42-.81c0-.32.12-.5.39-.51a2.21,2.21,0,0,1,0-.47.84.84,0,0,1,.23-.4,6.66,6.66,0,0,1,.76-.49l-.36-.13.7-.68-.19-.28.67-.49-.16-.26.28-.49c.47,0,.61-.12.56-.52A.31.31,0,0,0,81,1.37a.35.35,0,0,0-.27.12,1.68,1.68,0,0,0-.19.32c-.45-.26-1-.08-1.4-.37a.23.23,0,0,0-.18,0l-1.22.13a5.29,5.29,0,0,1-.54.13c-.34,0-.69.2-1-.07a.35.35,0,0,0-.51.07c-.12.15-.25.12-.41.15-.6.12-1.23.05-1.83.23a8.92,8.92,0,0,1-1.61.36c-.73.07-1.46,0-2.19.06a3.16,3.16,0,0,0-1.4.16,1.7,1.7,0,0,1-1.14.2.5.5,0,0,0-.61.33c-.14.31-.3.63-.46.94-.3.56-.6,1.11-.89,1.67,0,.07,0,.16-.06.23s0,.14-.07.17a1.3,1.3,0,0,0-.43.84A10.64,10.64,0,0,1,64,8.46c-.3.72-.57,1.45-.86,2.17a4.48,4.48,0,0,0-.29.58,8.14,8.14,0,0,1-.51,1.35c-.12.26-.27.5-.4.76l-.36.73c-.11.23-.34.47-.31.68.05.38-.34.38-.39.63,0,.07-.1.13-.11.21a1.86,1.86,0,0,1-.55,1.05,5.3,5.3,0,0,0-.69,1.09c-.32.59-.72,1.14-1.06,1.71a3,3,0,0,0-.42.63,2,2,0,0,1-.34.61c-.48.71-.63,1.59-1.15,2.27,0,.06,0,.16-.05.23a.84.84,0,0,1-.08.27c-.17.34-.36.66-.54,1s-.35.61-.49.93c-.27.57-.52,1.14-.78,1.72,0,.09,0,.18-.09.27a2.43,2.43,0,0,1-.19.47,4.6,4.6,0,0,0-.5,1,1.6,1.6,0,0,1-.54.92,1.21,1.21,0,0,0-.41.58c-.13.4-.59.7-.38,1.21,0,0-.08.08-.11.13a3.13,3.13,0,0,0-.69,1.28,1,1,0,0,1-.25.55,2.48,2.48,0,0,0-.68,1.06,2.17,2.17,0,0,1-.45.88,11.25,11.25,0,0,0-1,1.66,1.15,1.15,0,0,0-.17.33,2.55,2.55,0,0,1-.43.91c-.18.25-.19.66-.57.77,0,0,0,0,0,.08,0,.62-.73.88-.74,1.5,0,0-.11.07-.14.13-.29.49-.84.82-.93,1.46,0,.11-.13.21-.21.32-.27.4-.56.79-.81,1.21s-.52,1-.79,1.47a.77.77,0,0,1-.93.43.69.69,0,0,0-.17.9.33.33,0,0,1,0,.27c-.18.23-.33.51-.69.52a.91.91,0,0,1-.57-.13,1.37,1.37,0,0,1-.74-1,1,1,0,0,0-.23-.56,2.09,2.09,0,0,1-.44-.78,1.25,1.25,0,0,0-.16-.35,1.58,1.58,0,0,1-.39-1,3.16,3.16,0,0,1-.45-.44c-.32-.55-.63-1.12-.93-1.7-.08-.15-.06-.36-.16-.49a6.23,6.23,0,0,1-.85-1.64c-.09-.27-.14-.55-.21-.85-.3,0-.44-.28-.57-.55s-.08-.34-.19-.43a4.22,4.22,0,0,1-.62-1c-.13-.19-.08-.43-.14-.63s-.3-.31-.39-.5c-.18-.37-.24-.79-.64-1a.58.58,0,0,1-.17-.23c-.18-.33-.34-.68-.53-1a5.07,5.07,0,0,0-.66-1.12,1.34,1.34,0,0,1-.16-.23l-.66-1.21c-.23-.42-.44-.84-.67-1.26-.4-.72-.8-1.45-1.22-2.16a10.55,10.55,0,0,1-1-1.87.41.41,0,0,0-.12-.2c-.4-.37-.41-1-.86-1.35-.07-.05-.06-.21-.11-.31-.13-.27-.26-.54-.41-.79a10.94,10.94,0,0,1-.9-1.51,3.9,3.9,0,0,0-.63-1.11,3.43,3.43,0,0,1-.67-1.35c0-.12-.07-.28-.16-.33a.9.9,0,0,1-.42-.66c0-.1-.12-.18-.17-.27s-.27-.47-.4-.7a3.12,3.12,0,0,0-.41-.74,3,3,0,0,1-.44-.67c-.23-.45-.47-.9-.71-1.34,0-.09-.11-.16-.14-.25a5.47,5.47,0,0,0-.9-1.66,15.16,15.16,0,0,1-1.22-2s-.05-.11-.08-.17c-.22-.5-.42-1-.68-1.51a16.52,16.52,0,0,1-1.2-2.28,1.23,1.23,0,0,0-.14-.25c-.36-.6-.72-1.2-1.09-1.79a11.35,11.35,0,0,1-1-1.71c-.2-.49-.32-.54-.83-.5s-.76.06-1.14.07-.79,0-1.18,0a9.2,9.2,0,0,1-1,.06,5.06,5.06,0,0,0-2,.08c-.51.17-1-.12-1.53.15,0,0,0,0-.05,0C8.73,2,8.17,2,7.61,2s-1,0-1.56.08a4.27,4.27,0,0,0-.87.22c-.18.06-.3.2-.2.41a5.37,5.37,0,0,0,.31.69c.29.49.62,1,.9,1.45a20,20,0,0,0,1,1.87,20.53,20.53,0,0,1,1.46,3,3.06,3.06,0,0,1,.29.53,4.46,4.46,0,0,0,.63,1.32,17,17,0,0,1,1,1.48,8.05,8.05,0,0,1,1.18,2.34s0,.08.07.12l.42.58a6.36,6.36,0,0,1,1,1.9,4,4,0,0,0,.29.54c.09.19.18.37.26.56a5.44,5.44,0,0,0,.65,1.38,3.09,3.09,0,0,1,.45.68,18.19,18.19,0,0,0,1.1,2.21c.2.32.32.69.49,1a3.3,3.3,0,0,0,.26.39,6.6,6.6,0,0,1,.9,1.37c.16.46.41.88.55,1.34a2.56,2.56,0,0,1,.18.64.66.66,0,0,0,.15.41,1,1,0,0,0,.66.46,3.16,3.16,0,0,1,.28.68,5.21,5.21,0,0,0,.8,1.7,7.14,7.14,0,0,1,.53,1.16,2.32,2.32,0,0,0,.24.47c.28.58.84,1,.92,1.69,0,.23.22.42.3.63.35.9,1.17,1.54,1.36,2.53l.06.07c.14.29.28.57.43.85s.26.51.4.76.28.49.42.74.31.63.47.94a2.69,2.69,0,0,1,.19.38,10.74,10.74,0,0,0,1.25,2.4,2.39,2.39,0,0,0,.34.56,1.78,1.78,0,0,1,.46.69c.27.7.56,1.39.88,2.06.23.48.53.94.81,1.4.17.28.35.55.52.84s.17.37.29.54A6.88,6.88,0,0,1,31,51.38,7.06,7.06,0,0,0,31.92,53a5.33,5.33,0,0,1,.57,1.08,15.39,15.39,0,0,0,.75,1.38c.19.32.43.62.59,1a4,4,0,0,0,.52,1.22s0,.12.06.18A2.48,2.48,0,0,0,35,59a1.92,1.92,0,0,1,.55,1.14,4.07,4.07,0,0,0,.06.62,4,4,0,0,1,.14,1.46c0,1.2,0,2.39-.06,3.59,0,.36,0,.73,0,1.09,0,.81.14,1.62.16,2.43,0,1.23.06,2.45,0,3.68s0,2.23,0,3.35c0,.43-.07.86,0,1.29,0,1,.13,1.91.2,2.86,0,.35.08.7.1,1A1,1,0,0,1,36,82a4.08,4.08,0,0,0-.16,1.66,14.25,14.25,0,0,1,0,2c0,.54,0,1.08,0,1.63,0,.31-.08.63-.09,1s0,.86,0,1.29v1.44c0,.3,0,.6,0,.9a2.58,2.58,0,0,0,0,1.14c0,.09,0,.22,0,.33-.05.44-.13.89-.14,1.33,0,.84,0,1.69,0,2.53s0,2,.07,3a1.35,1.35,0,0,0,0,.28,5.59,5.59,0,0,1,.09.7c0,.65,0,1.29-.06,1.94s0,1.6,0,2.4c0,.35,0,.69,0,1a.36.36,0,0,0,.32.41c.33,0,.66.08,1,.09s.95,0,1.43,0c1.17-.06,2.33.24,3.51.12a2,2,0,0,1,.42,0l1.66.11c.61,0,1.23.09,1.84.11a4.51,4.51,0,0,0,1.79-.12.44.44,0,0,0,.34-.49c0-1-.06-2.07,0-3.11.13-2,.14-3.93.2-5.89,0-.4,0-.8,0-1.2,0-1.12,0-2.23,0-3.35,0-.21.05-.42.05-.62,0-.75,0-1.5,0-2.25,0-.47.09-.93.1-1.39,0-.76,0-1.53,0-2.29s0-1.54,0-2.3l0-2.54q0-.48-.06-1c0-.52-.13-1-.12-1.57,0-.84,0-1.69.14-2.53a11.1,11.1,0,0,0,.08-1.91c0-.6,0-1.21,0-1.81s.1-1,.11-1.48,0-1.09,0-1.63a6.43,6.43,0,0,0,0-1.24c-.12-.79-.1-1.59-.18-2.38a22.45,22.45,0,0,1,0-3,6,6,0,0,1,.14-.61,1.44,1.44,0,0,0,0-.65,1.61,1.61,0,0,1,.48-1.73,4,4,0,0,0,.53-.8c.29-.53.54-1.08.83-1.61s.62-1,.91-1.51.44-.91.66-1.37.51-1,.75-1.53.5-1.1.77-1.64.57-1,.85-1.52c.1-.19.14-.42.25-.61.43-.76.88-1.5,1.31-2.25a3.29,3.29,0,0,0,.54-1.19.26.26,0,0,1,.07-.17c.47-.42.56-1.06.89-1.56s.54-1,.89-1.48.64-1,1-1.53a3.35,3.35,0,0,1,.38-.44,1.88,1.88,0,0,1,.11-.65,9.2,9.2,0,0,1,.62-1,3.18,3.18,0,0,0,.31-.78,1,1,0,0,1,.12-.3,5.92,5.92,0,0,0,1.22-2c0-.07.09-.13.12-.2s.1-.25.16-.37.15-.3.23-.45.12-.15.17-.23a12.81,12.81,0,0,1,.77-1.47,11.83,11.83,0,0,0,.78-1.55,30.08,30.08,0,0,0,1.3-2.83c.11-.29.39-.47.52-.7a7.38,7.38,0,0,1,.94-1.6,2.16,2.16,0,0,0,.54-1.09,1.05,1.05,0,0,1,.15-.3c.28-.47.57-.94.86-1.41a.36.36,0,0,1,.13-.08l.24.24,0,0-.16-.41c.1-.07.24-.15.24-.16-.12-.25.1-.38.19-.54a8.29,8.29,0,0,1,.74-1.53c.17-.19.27-.36.55-.37.06,0,.13-.11.2-.17l.93.18a1.34,1.34,0,0,0-.48-.29C71.09,20.91,70.91,20.89,70.82,21.11ZM7.81,9.29l-.16.05,0,1,.4-.47Zm2,4.27c0-.42,0-.42-.41-.3ZM79.35,1c.07-.09.14-.15.14-.21s-.07-.11-.11-.17-.14.1-.16.16S79.29.87,79.35,1ZM48.41,36.13c.18-.12.24-.21.12-.38C48.36,35.82,48.3,35.92,48.41,36.13ZM69.6,24c-.16-.06-.26,0-.29.14s.06.13.09.14C69.59,24.32,69.62,24.2,69.6,24ZM8.32,10.8v-.41C8.11,10.5,8.08,10.59,8.32,10.8Zm37,30.76c.2.12.2.12.29-.08ZM67.6,26.91l-.11,0,.09.23.08,0Zm-16.54,4,.1,0,.11-.33-.07,0Zm19.21-7.78c-.25.09-.21.17,0,.32ZM6.64,7.16s-.09.06-.1.1,0,.06,0,.07a.45.45,0,0,0,.11,0Zm44,25.48,0,.08.2.06,0-.07Zm21.94-14c0-.05-.08-.1-.11-.1s-.06,0-.09.07,0,.06.06.06Zm-.93,2c-.11-.06-.15-.1-.18-.1s-.08,0-.12.07l0,0Zm-.44,1.43-.06-.05L71,22.2l.09.09ZM47.2,40c-.07,0-.11-.07-.14-.06s0,0-.07.08a.2.2,0,0,0,.08,0ZM77.71.63s-.07,0-.08,0,0,0,0,.08l.11-.05ZM30.39,52.85l.07,0-.07-.09s-.05,0-.05.06S30.37,52.83,30.39,52.85ZM74.2,15.41l-.12.17.06.05s.09,0,.1-.07S74.22,15.48,74.2,15.41Zm-.92,2s0-.08-.06-.07a.22.22,0,0,0-.11.05s0,.05,0,.05A.53.53,0,0,0,73.28,17.4Zm-4.94,9.74.09-.08L68.35,27a.3.3,0,0,0-.07.1S68.31,27.12,68.34,27.14Z"/><path class="cls-1" d="M81.88,44.33a.67.67,0,0,1,.84-.07C82.43,44.61,82.22,44.63,81.88,44.33Z"/><path class="cls-1" d="M83.34,45.61c0,.17,0,.31-.23.27s-.13-.15-.11-.2S83.2,45.55,83.34,45.61Z"/><path class="cls-1" d="M70.81,21.09c-.07.06-.14.17-.2.17-.28,0-.38.18-.55.37a8.29,8.29,0,0,0-.74,1.53c-.09.16-.31.29-.19.54,0,0-.14.09-.24.16l.16.41,0,0-.24-.24a.36.36,0,0,0-.13.08c-.29.47-.58.94-.86,1.41a1.05,1.05,0,0,0-.15.3A2.16,2.16,0,0,1,67.08,27a7.38,7.38,0,0,0-.94,1.6c-.13.23-.41.41-.52.7a30.08,30.08,0,0,1-1.3,2.83,11.83,11.83,0,0,1-.78,1.55,12.81,12.81,0,0,0-.77,1.47c-.05.08-.12.15-.17.23s-.16.3-.23.45-.1.25-.16.37-.1.13-.12.2a5.92,5.92,0,0,1-1.22,2,1,1,0,0,0-.12.3,3.18,3.18,0,0,1-.31.78,9.2,9.2,0,0,0-.62,1,1.88,1.88,0,0,0-.11.65,3.35,3.35,0,0,0-.38.44c-.32.5-.6,1-1,1.53s-.58,1-.89,1.48-.42,1.14-.89,1.56a.26.26,0,0,0-.07.17A3.29,3.29,0,0,1,56,47.46c-.43.75-.88,1.49-1.31,2.25-.11.19-.15.42-.25.61-.28.51-.58,1-.85,1.52s-.51,1.09-.77,1.64-.5,1-.75,1.53-.42.92-.66,1.37-.62,1-.91,1.51-.54,1.08-.83,1.61a4,4,0,0,1-.53.8A1.61,1.61,0,0,0,48.64,62a1.44,1.44,0,0,1,0,.65,6,6,0,0,0-.14.61,22.45,22.45,0,0,0,0,3c.08.79.06,1.59.18,2.38a6.43,6.43,0,0,1,0,1.24c0,.54,0,1.08,0,1.63s-.1,1-.11,1.48,0,1.21,0,1.81a11.1,11.1,0,0,1-.08,1.91c-.09.84-.13,1.69-.14,2.53,0,.52.08,1,.12,1.57q0,.48.06,1l0,2.54c0,.76,0,1.53,0,2.3s0,1.53,0,2.29c0,.46-.1.92-.1,1.39,0,.75,0,1.5,0,2.25,0,.2-.05.41-.05.62,0,1.12,0,2.23,0,3.35,0,.4,0,.8,0,1.2-.06,2-.07,3.93-.2,5.89-.07,1,0,2.07,0,3.11a.44.44,0,0,1-.34.49,4.51,4.51,0,0,1-1.79.12c-.61,0-1.23-.07-1.84-.11l-1.66-.11a2,2,0,0,0-.42,0c-1.18.12-2.34-.18-3.51-.12-.48,0-1,0-1.43,0s-.66,0-1-.09a.36.36,0,0,1-.32-.41c0-.35,0-.69,0-1,0-.8,0-1.6,0-2.4s.06-1.29.06-1.94a5.59,5.59,0,0,0-.09-.7,1.35,1.35,0,0,1,0-.28c0-1,0-2-.07-3s0-1.69,0-2.53c0-.44.09-.89.14-1.33,0-.11.07-.24,0-.33a2.58,2.58,0,0,1,0-1.14c0-.3,0-.6,0-.9V89.44c0-.43,0-.86,0-1.29s.08-.64.09-1c0-.55,0-1.09,0-1.63a14.25,14.25,0,0,0,0-2A4.08,4.08,0,0,1,36,82a1,1,0,0,0,0-.42c0-.35-.07-.7-.1-1-.07-1-.15-1.9-.2-2.86,0-.43,0-.86,0-1.29,0-1.12,0-2.24,0-3.35s0-2.45,0-3.68c0-.81-.12-1.62-.16-2.43,0-.36,0-.73,0-1.09,0-1.2,0-2.39.06-3.59a4,4,0,0,0-.14-1.46,4.07,4.07,0,0,1-.06-.62A1.92,1.92,0,0,0,35,59a2.48,2.48,0,0,1-.61-1.11c0-.06,0-.14-.06-.18a4,4,0,0,1-.52-1.22c-.16-.34-.4-.64-.59-1a15.39,15.39,0,0,1-.75-1.38A5.33,5.33,0,0,0,31.92,53,7.06,7.06,0,0,1,31,51.38,6.88,6.88,0,0,0,30.24,50c-.12-.17-.18-.37-.29-.54s-.35-.56-.52-.84c-.28-.46-.58-.92-.81-1.4-.32-.67-.61-1.36-.88-2.06a1.78,1.78,0,0,0-.46-.69,2.39,2.39,0,0,1-.34-.56,10.74,10.74,0,0,1-1.25-2.4,2.69,2.69,0,0,0-.19-.38c-.16-.31-.31-.63-.47-.94s-.29-.49-.42-.74-.27-.5-.4-.76-.29-.56-.43-.85l-.06-.07c-.19-1-1-1.63-1.36-2.53-.08-.21-.28-.4-.3-.63-.08-.7-.64-1.11-.92-1.69a2.32,2.32,0,0,1-.24-.47,7.14,7.14,0,0,0-.53-1.16,5.21,5.21,0,0,1-.8-1.7,3.16,3.16,0,0,0-.28-.68,1,1,0,0,1-.66-.46.66.66,0,0,1-.15-.41,2.56,2.56,0,0,0-.18-.64c-.14-.46-.39-.88-.55-1.34a6.6,6.6,0,0,0-.9-1.37,3.3,3.3,0,0,1-.26-.39c-.17-.34-.29-.71-.49-1A18.19,18.19,0,0,1,15,21.09a3.09,3.09,0,0,0-.45-.68A5.44,5.44,0,0,1,13.9,19c-.08-.19-.17-.37-.26-.56a4,4,0,0,1-.29-.54,6.36,6.36,0,0,0-1-1.9l-.42-.58s-.07-.08-.07-.12A8.05,8.05,0,0,0,10.65,13a17,17,0,0,0-1-1.48A4.46,4.46,0,0,1,9,10.19a3.06,3.06,0,0,0-.29-.53,20.53,20.53,0,0,0-1.46-3,20,20,0,0,1-1-1.87c-.28-.49-.61-1-.9-1.45A5.37,5.37,0,0,1,5,2.67c-.1-.21,0-.35.2-.41A4.27,4.27,0,0,1,6.05,2C6.57,2,7.09,2,7.61,2S8.73,2,9.29,2c0,0,0,0,.05,0,.48-.27,1,0,1.53-.15a5.06,5.06,0,0,1,2-.08,9.2,9.2,0,0,0,1-.06c.39,0,.79,0,1.18,0s.76,0,1.14-.07.63,0,.83.5a11.35,11.35,0,0,0,1,1.71c.37.59.73,1.19,1.09,1.79a1.23,1.23,0,0,1,.14.25,16.52,16.52,0,0,0,1.2,2.28c.26.49.46,1,.68,1.51,0,.06,0,.12.08.17a15.16,15.16,0,0,0,1.22,2,5.47,5.47,0,0,1,.9,1.66c0,.09.1.16.14.25.24.44.48.89.71,1.34a3,3,0,0,0,.44.67,3.12,3.12,0,0,1,.41.74c.13.23.26.47.4.7s.15.17.17.27a.9.9,0,0,0,.42.66c.09,0,.12.21.16.33a3.43,3.43,0,0,0,.67,1.35A3.9,3.9,0,0,1,27.52,21a10.94,10.94,0,0,0,.9,1.51c.15.25.28.52.41.79.05.1,0,.26.11.31.45.35.46,1,.86,1.35a.41.41,0,0,1,.12.2,10.55,10.55,0,0,0,1,1.87c.42.71.82,1.44,1.22,2.16.23.42.44.84.67,1.26l.66,1.21a1.34,1.34,0,0,0,.16.23A5.07,5.07,0,0,1,34.31,33c.19.33.35.68.53,1a.58.58,0,0,0,.17.23c.4.23.46.65.64,1,.09.19.34.31.39.5s0,.44.14.63a4.22,4.22,0,0,0,.62,1c.11.09.12.29.19.43s.27.53.57.55c.07.3.12.58.21.85a6.23,6.23,0,0,0,.85,1.64c.1.13.08.34.16.49.3.58.61,1.15.93,1.7a3.16,3.16,0,0,0,.45.44,1.58,1.58,0,0,0,.39,1,1.25,1.25,0,0,1,.16.35,2.09,2.09,0,0,0,.44.78,1,1,0,0,1,.23.56,1.37,1.37,0,0,0,.74,1,.91.91,0,0,0,.57.13c.36,0,.51-.29.69-.52a.33.33,0,0,0,0-.27.69.69,0,0,1,.17-.9.77.77,0,0,0,.93-.43c.27-.49.51-1,.79-1.47s.54-.81.81-1.21c.08-.11.2-.21.21-.32.09-.64.64-1,.93-1.46,0-.06.14-.09.14-.13,0-.62.73-.88.74-1.5,0,0,0-.08,0-.08.38-.11.39-.52.57-.77a2.55,2.55,0,0,0,.43-.91,1.15,1.15,0,0,1,.17-.33,11.25,11.25,0,0,1,1-1.66,2.17,2.17,0,0,0,.45-.88,2.48,2.48,0,0,1,.68-1.06,1,1,0,0,0,.25-.55,3.13,3.13,0,0,1,.69-1.28c0-.05.12-.11.11-.13-.21-.51.25-.81.38-1.21a1.21,1.21,0,0,1,.41-.58,1.6,1.6,0,0,0,.54-.92,4.6,4.6,0,0,1,.5-1,2.43,2.43,0,0,0,.19-.47c0-.09.06-.18.09-.27.26-.58.51-1.15.78-1.72.14-.32.32-.62.49-.93s.37-.66.54-1a.84.84,0,0,0,.08-.27c0-.07,0-.17.05-.23.52-.68.67-1.56,1.15-2.27a2,2,0,0,0,.34-.61,3,3,0,0,1,.42-.63c.34-.57.74-1.12,1.06-1.71a5.3,5.3,0,0,1,.69-1.09,1.86,1.86,0,0,0,.55-1.05c0-.08.09-.14.11-.21,0-.25.44-.25.39-.63,0-.21.2-.45.31-.68l.36-.73c.13-.26.28-.5.4-.76a8.14,8.14,0,0,0,.51-1.35,4.48,4.48,0,0,1,.29-.58c.29-.72.56-1.45.86-2.17A10.64,10.64,0,0,0,64.53,7,1.3,1.3,0,0,1,65,6.17C65,6.14,65,6.06,65,6s0-.16.06-.23c.29-.56.59-1.11.89-1.67.16-.31.32-.63.46-.94a.5.5,0,0,1,.61-.33,1.7,1.7,0,0,0,1.14-.2,3.16,3.16,0,0,1,1.4-.16c.73,0,1.46,0,2.19-.06a8.92,8.92,0,0,0,1.61-.36c.6-.18,1.23-.11,1.83-.23.16,0,.29,0,.41-.15a.35.35,0,0,1,.51-.07c.34.27.69.08,1,.07a5.29,5.29,0,0,0,.54-.13l1.22-.13a.23.23,0,0,1,.18,0c.43.29,1,.11,1.4.37a1.68,1.68,0,0,1,.19-.32A.35.35,0,0,1,81,1.37a.31.31,0,0,1,.17.24c0,.4-.09.53-.56.52l-.28.49.16.26-.67.49.19.28-.7.68.36.13a6.66,6.66,0,0,0-.76.49.84.84,0,0,0-.23.4,2.21,2.21,0,0,0,0,.47c-.27,0-.39.19-.39.51a.85.85,0,0,1-.42.81.21.21,0,0,0-.11.15c0,.36-.24.57-.42.82a1.15,1.15,0,0,0-.12.5c0,.21,0,.44,0,.66-.36,0-.38,0-.65.43l.23-.09.21,0c-.06.28-.26.29-.43.34s-.45,0-.26.37c0,0-.07.08-.11.12-.19.13-.29.3-.16.52a1.76,1.76,0,0,0-.9.92c-.19.39-.51.76-.36,1.22,0,.22-.48.19-.18.54-.48,0-.54.41-.73.68a4.62,4.62,0,0,1-.28.48c-.17.22-.22.42-.08.59a3.85,3.85,0,0,1-.38.65c-.17.19-.36.34-.08.59a1.65,1.65,0,0,0-1,1.72l-.36.09.34.43c-.33-.12-.5.05-.67.3a12.16,12.16,0,0,1-.82,1l.13.68c-.08,0-.18-.05-.22,0a.45.45,0,0,0-.17.24s.11.15.18.16a1.26,1.26,0,0,0,.33-.05ZM36.18,46.25C36.08,46.13,36,46,36,46a.21.21,0,0,0-.25.25c0,.1.11.19.17.29Zm-.08-.79L36,45.38a1.21,1.21,0,0,0,0,.18.55.55,0,0,0,.08.15s.11-.05.13-.09S36.12,45.52,36.1,45.46Z"/><path class="cls-1" d="M70.7,20.49c.09-.21.26-.19.43-.12a1.35,1.35,0,0,1,.49.28l-.93-.17Z"/><path class="cls-1" d="M9.89,13l-.41-.3C9.9,12.59,9.9,12.59,9.89,13Z"/><path class="cls-1" d="M48.38,35.34c-.11-.21-.06-.3.11-.38C48.61,35.13,48.56,35.22,48.38,35.34Z"/><path class="cls-1" d="M69.49,23.39c0,.16,0,.28-.2.27s-.1-.09-.09-.13S69.32,23.33,69.49,23.39Z"/><path class="cls-1" d="M45.32,40.7l.29-.07C45.52,40.82,45.52,40.82,45.32,40.7Z"/><path class="cls-1" d="M67.5,26.23a1.89,1.89,0,0,1,0,.23s-.07,0-.08,0l-.09-.22Z"/><path class="cls-1" d="M51,30.13l.15-.32.06,0-.11.33Z"/><path class="cls-1" d="M70.16,22.46l0,.31C69.94,22.63,69.9,22.54,70.16,22.46Z"/><path class="cls-1" d="M50.62,31.89l.2.06,0,.08L50.6,32Z"/><path class="cls-1" d="M72.47,18.07c-.07,0-.1,0-.14,0s0,0-.06-.06.07-.07.09-.07S72.42,18,72.47,18.07Z"/><path class="cls-1" d="M72.93,18.63l-.44.1v-.09Z"/><path class="cls-1" d="M71.54,20.09l-.28,0,0-.05s.08-.06.12-.06S71.43,20,71.54,20.09Z"/><path class="cls-1" d="M71.1,21.5l-.11.16-.09-.09.15-.12Z"/><path class="cls-1" d="M47.18,39.15c-.07,0-.1.06-.14.06s0,0-.07,0,0-.08.06-.09A.51.51,0,0,1,47.18,39.15Z"/><path class="cls-1" d="M30.42,51.86s-.05,0,0-.06,0,0,.05-.06l.07.08Z"/><path class="cls-1" d="M74.07,14.86c0,.07.05.12,0,.15a.17.17,0,0,1-.1.06s0,0-.07,0Z"/><path class="cls-1" d="M73.15,16.82a.34.34,0,0,1-.12,0s0,0,0-.05a.39.39,0,0,1,.11-.06S73.12,16.79,73.15,16.82Z"/><path class="cls-1" d="M68.23,26.46s-.07-.05-.06-.06a.36.36,0,0,1,.07-.1l.08.07Z"/><path class="cls-1" d="M36.19,45.34l-.3.27c-.06-.09-.17-.18-.18-.28s.09-.28.26-.25S36.09,45.22,36.19,45.34Z"/><path class="cls-1" d="M36.12,44.56s.05.11,0,.15-.09.07-.14.1-.07-.1-.07-.15a.61.61,0,0,1,0-.18Z"/></svg>