<svg id="Z" xmlns="http://www.w3.org/2000/svg" viewBox="0 0 86 112"><defs><style>.cls-1{stroke:#000;stroke-miterlimit:10;}</style></defs><path class="cls-1" d="M85.56,1.85a2.78,2.78,0,0,1-1.12,0l-.19,0c-.35-.07-.46,0-.54.35,0,.12,0,.24-.06.37.34,0,.34,0,.4-.43a1.26,1.26,0,0,1,.27,0c.32.08.36.17.23.48a3.76,3.76,0,0,1-1.21,1.63s-.12.13-.11.19c.06.5-.41.77-.5,1.19-.41.14-.45.55-.62.86,0,.08-.11.15-.17.23a4,4,0,0,0-.4.52c-.24.48-.5.9-1.13.88,0,0-.09.06-.18.13l.44.24c-.23.14-.5.25-.39.58,0,0-.11.1-.15.17a1.34,1.34,0,0,0-.22.36c-.06.2-.1.41-.36.45,0,0-.11.05-.11.08a1,1,0,0,1-.54.7.47.47,0,0,0-.14.29,3.15,3.15,0,0,1-.79,1.4c-.27.33-.51.7-.77,1-.11.14-.24.26-.35.39s-.12.07-.14.13c-.23.46-.44.94-.68,1.41-.15.28-.34.53-.52.8s-.3.41-.44.62-.24.38-.36.56-.28.39-.41.59c-.26.39-.52.77-.76,1.17s-.43.82-.65,1.22c-.13.23-.27.44-.39.66a6.94,6.94,0,0,0-.38.71A11.72,11.72,0,0,1,71,23.74a4.83,4.83,0,0,0-1,1.59,4.18,4.18,0,0,1-.63,1.07c0,.06-.11.14-.17.14-.31,0-.39.24-.44.49a3.22,3.22,0,0,1-.71,1.46A8.27,8.27,0,0,0,67.25,30c-.21.4-.33.87-.8,1.1-.08.05-.12.21-.17.33a3.11,3.11,0,0,1-.18.54,28.43,28.43,0,0,1-1.95,2.79,11.74,11.74,0,0,0-.68,1,2,2,0,0,1-.14.25c-.54.72-1.08,1.43-1.61,2.16a5.55,5.55,0,0,0-.44.74c-.74,1.37-1.46,2.75-2.2,4.12a7.73,7.73,0,0,1-.66,1.11,23.61,23.61,0,0,0-2,3.4c-.13.26-.22.54-.35.8a27.44,27.44,0,0,1-1.9,3c-.48.72-1,1.4-1.49,2.12s-.8,1.36-1.2,2c-.23.38-.48.75-.71,1.14-.48.79-1,1.6-1.44,2.39s-1,1.6-1.51,2.4c-.11.17-.2.36-.3.54a3.42,3.42,0,0,1-.21.43L45.56,65c-.19.28-.35.58-.51.87s-.41.8-.64,1.18a6,6,0,0,1-.48.65c0,.06-.13.11-.16.18-.26.58-.79,1-1.06,1.53-.43.88-1.07,1.63-1.47,2.53a8.39,8.39,0,0,1-1.36,2.2,6.67,6.67,0,0,0-1,1.43c-.53,1-1,2-1.5,3A16.91,16.91,0,0,1,36,81c-.27.37-.51.77-.77,1.15l-.82,1.13A4,4,0,0,1,34,84,6,6,0,0,0,33,85.44c-.29.52-.64,1-1,1.49s-.51.7-.73,1.08c-.34.56-.64,1.14-1,1.71-.47.79-.95,1.59-1.45,2.37-.35.55-.74,1.08-1.11,1.62a.69.69,0,0,0-.14.25,1.5,1.5,0,0,1-.46.77c-.27.32-.22.44.2.54a13.4,13.4,0,0,0,2.67.36c.59,0,1.18.12,1.78.13a16.3,16.3,0,0,0,2.21,0c1.15-.11,2.3,0,3.44-.16s2,0,3-.08,2-.05,3-.09l2.3-.11a1,1,0,0,1,.34,0,5.06,5.06,0,0,0,1.82,0c.24,0,.48,0,.72,0a1.8,1.8,0,0,0,.57,0,2.29,2.29,0,0,1,1.19,0,11,11,0,0,0,1.29.09c.5,0,1,0,1.49,0a.68.68,0,0,1,.29,0,1.74,1.74,0,0,0,1,.11,16.86,16.86,0,0,1,2.93,0c.43,0,.87,0,1.3,0,.61,0,1.21.12,1.82.12s1-.06,1.58-.09h3c1.06,0,2.11,0,3.17,0,.72,0,1.44.11,2.16.15l1.34,0c.51,0,1,0,1.54.08a15.54,15.54,0,0,0,2.25.14,9.2,9.2,0,0,1,1.9.12c.27,0,.54,0,.81,0l2.48.17a.36.36,0,0,0,.23-.06c.47-.43,1.05-.31,1.6-.29a3.86,3.86,0,0,0,.76,0,1,1,0,0,1,1.18.86.71.71,0,0,1,0,.14l.06,3.66c0,1.16.08,2.31,0,3.46a5.17,5.17,0,0,1-.29,1.9,2.29,2.29,0,0,0,0,1.37,8.54,8.54,0,0,0,.25,1.66.93.93,0,0,1-.54,1,3.38,3.38,0,0,1-2,.33c-.64,0-1.28-.14-1.92-.21a1.92,1.92,0,0,0-.24,0c-.93,0-1.86,0-2.79,0-1.32,0-2.63-.14-3.94-.21-.23,0-.45,0-.68,0a13.12,13.12,0,0,1-1.77-.09,8.09,8.09,0,0,0-1.39,0l-4-.07c-1,0-2-.06-3-.09a.33.33,0,0,0-.14,0,6.47,6.47,0,0,1-2.06,0c-.67,0-1.34,0-2,0H56.79l-3-.07c-.24,0-.48,0-.72,0-.61,0-1.22,0-1.83,0l-2.64-.15c-1.09,0-2.19-.11-3.28-.11a14.69,14.69,0,0,0-2.2.13,12.27,12.27,0,0,1-2.84,0c-.59,0-1.18,0-1.77-.06s-1.09-.12-1.63-.17a10.32,10.32,0,0,0-1.1-.07l-3.62,0c-.48,0-1,0-1.44,0-1,0-2-.08-2.93-.07s-1.7.09-2.55.13a1,1,0,0,1-.24,0,19.14,19.14,0,0,0-3.63-.22,23.87,23.87,0,0,1-2.93,0,16.26,16.26,0,0,0-2.31.07l-2.93.08c-.73,0-1.47.06-2.21.06-.28,0-.57-.07-.86-.07q-1.35,0-2.7,0c-.75,0-1.5,0-2.26,0-.41,0-.82-.11-1.24-.15s-.79,0-1.19-.06l-.1,0a5.73,5.73,0,0,0-1.17,0c-.51,0-.85-.66-.71-1.24a3.68,3.68,0,0,1,.74-1.43,5.58,5.58,0,0,0,.62-1.08,1.3,1.3,0,0,1,.29-.43,3.08,3.08,0,0,0,.78-1.08c.15-.3.35-.57.52-.86s.16-.31.26-.45c.39-.59.72-1.21,1.05-1.82s.77-.93,1.11-1.43a23.69,23.69,0,0,0,1.25-2c.34-.61.59-1.28.92-1.89A13.57,13.57,0,0,1,9.15,94,8.9,8.9,0,0,0,10,92.7c.22-.46.62-.77.83-1.22a1.31,1.31,0,0,1,.19-.27c.42-.43.64-1,1-1.45.53-.65.77-1.44,1.25-2.1s.81-1.22,1.2-1.84a5.12,5.12,0,0,0,.39-.73,5,5,0,0,1,.93-1.54,7.54,7.54,0,0,0,.68-1c.63-.91,1.25-1.82,1.87-2.74.35-.52.68-1,1-1.57.11-.16.2-.33.31-.49l.79-1.14a2,2,0,0,0,.23-.36,2,2,0,0,1,.64-.89.38.38,0,0,0,.13-.19c0-.07.05-.15.09-.22.43-.71.86-1.42,1.32-2.12.28-.44.63-.85.92-1.28s.74-1.13,1.1-1.69a.75.75,0,0,0,.06-.13A5.67,5.67,0,0,1,26,67.81a19.74,19.74,0,0,0,1.52-2.73,2.16,2.16,0,0,1,.17-.34c.5-.86,1-1.71,1.52-2.56a2.65,2.65,0,0,1,.21-.26,5.21,5.21,0,0,0,1-1.55,1.48,1.48,0,0,1,.14-.25c.47-.64.95-1.26,1.38-1.91a5.94,5.94,0,0,0,.59-1.15,7.08,7.08,0,0,1,.76-1.44c.29-.42.5-.89.77-1.33s.76-1.18,1.13-1.77a2.29,2.29,0,0,0,.41-.7,2.44,2.44,0,0,1,.72-1.17,6.92,6.92,0,0,0,.76-1c.2-.29.42-.56.63-.84s.2-.25.29-.39a24.67,24.67,0,0,1,1.7-2.44,12.15,12.15,0,0,0,1.49-2.29c.08-.15.19-.29.29-.44a1.84,1.84,0,0,0,.43-.9.8.8,0,0,1,.17-.33c.38-.57.78-1.13,1.16-1.71.14-.21.23-.46.36-.68s.28-.42.42-.63l.45-.61.9-1.31a7.28,7.28,0,0,0,.66-1.1,5.37,5.37,0,0,1,.81-1.18,7.7,7.7,0,0,0,.7-.92c.6-1,1.21-2,1.78-3,.36-.66.69-1.34,1-2a13.38,13.38,0,0,1,1.36-2.27c.43-.61.79-1.28,1.17-1.93s.71-1.22,1.08-1.82c.57-.91,1.16-1.81,1.71-2.73a32,32,0,0,1,2.22-3.32,5.39,5.39,0,0,0,.4-.54c.13-.2.07-.34-.16-.39a2.64,2.64,0,0,0-.28,0,3.27,3.27,0,0,1-1.31-.23,1.21,1.21,0,0,0-1-.07,4.55,4.55,0,0,1-1.8,0,3.82,3.82,0,0,0-.95,0,12.85,12.85,0,0,1-3.22,0c-1-.08-2-.12-3-.19-.47,0-.93-.1-1.4-.1s-1,.07-1.43.11c-.19,0-.38.06-.57.07-.56,0-1.13,0-1.68,0a16.14,16.14,0,0,1-2-.08c-.77,0-1.54,0-2.31,0l-2.16-.05c-.26,0-.51,0-.77,0-.67,0-1.35.05-2,0s-1.15-.08-1.72-.11l-1.35-.09L28,15c-.18,0-.35,0-.53,0-1,0-2,.08-3,.1-.85,0-1.7,0-2.55,0-1.15,0-2.3.15-3.46.19-.52,0-1.05-.06-1.58-.09l-.34,0c-.46,0-.92,0-1.39,0-1,0-1.92,0-2.88,0a3.83,3.83,0,0,0-.58.07,1.67,1.67,0,0,1-.94-.06.43.43,0,0,0-.24-.05,8.06,8.06,0,0,1-2-.1c-.16,0-.32-.05-.43.12a.19.19,0,0,1-.17.07,4.82,4.82,0,0,0-1.26.21c-.41,0-.81.09-1.08-.26H5.52a2,2,0,0,1-1.6.24.55.55,0,0,0-.49.1c-.12.1-.42.19-.47.13s-.51-.24-.55-.56A12.23,12.23,0,0,1,2.23,13c0-.73,0-1.47,0-2.21a3.48,3.48,0,0,1,.15-.57c-.2-.17-.2-.43-.15-.74A5.31,5.31,0,0,0,2.42,8a7.78,7.78,0,0,1,.07-2,2.41,2.41,0,0,0,0-.38c0-.73,0-1.47.08-2.2,0-.38-.07-.8.2-1.15a.17.17,0,0,0,0-.14c-.28-.42,0-.81.1-1.2s.61-.52,1-.43A6.54,6.54,0,0,0,4.93.66a11.23,11.23,0,0,0,1.16,0L9,.66,10.34.61a.5.5,0,0,1,.28,0,.9.9,0,0,0,.83.06,2.52,2.52,0,0,1,.62,0c.08,0,.17,0,.23,0C12.92.36,13.61.6,14.25.44a1.56,1.56,0,0,1,.52,0s.1.05.13,0c.35-.22.67,0,1,0s.76-.07,1.14-.1c.13,0,.27-.07.38,0a4.91,4.91,0,0,0,1.71,0c.77,0,1.53.09,2.3.14l.9,0,1.06,0c.94,0,1.89.08,2.84.08.67,0,1.34-.09,2-.13a7.24,7.24,0,0,1,2,.08A3.87,3.87,0,0,0,31,.7,15.11,15.11,0,0,1,32.61.57c1.12.06,2.23,0,3.35,0,.41,0,.83.06,1.25.05s1-.08,1.53-.11c.7-.05,1.41-.12,2.11-.14.35,0,.7.1,1,.07.73-.06,1.44.12,2.15.13s1.22,0,1.83,0a7.41,7.41,0,0,0,1.63-.1,3.06,3.06,0,0,1,1,0,6.78,6.78,0,0,0,2.11,0,1.94,1.94,0,0,1,.34,0l1.72.07a.75.75,0,0,1,.15,0A4.33,4.33,0,0,0,55,.45a6,6,0,0,1,.85,0c.1,0,.2,0,.29,0a8.11,8.11,0,0,1,2.2,0c.56,0,1.12,0,1.68,0S61.41.5,62.1.49a4.88,4.88,0,0,1,.76.07c.16,0,.32,0,.47.06.31,0,.61,0,.91.08a2.49,2.49,0,0,0,1.12,0,3.67,3.67,0,0,1,1,0h.24a8.67,8.67,0,0,1,2.16,0c.55,0,1.11,0,1.67-.06a.29.29,0,0,0,.14,0A2.66,2.66,0,0,1,72,.39c.69,0,1.37.06,2.06.07a4.17,4.17,0,0,0,.71-.07c.08,0,.16-.06.24,0a12.68,12.68,0,0,0,2.38-.2A2.51,2.51,0,0,1,78,.2a5.44,5.44,0,0,0,1.33.16,9.13,9.13,0,0,1,1.38.17.5.5,0,0,0,.39-.07A.61.61,0,0,1,81.9.37a3.72,3.72,0,0,0,1.78.2,2.65,2.65,0,0,1,.38.05c.12,0,.27.08.37,0,.39-.19.68.07,1,.19a.29.29,0,0,1,.19.35C85.59,1.39,85.58,1.59,85.56,1.85Zm-81.82,12a1.08,1.08,0,0,0,.9.16,1.81,1.81,0,0,1,.52,0,7,7,0,0,0,.91.06C7,14,7.93,13.91,8.85,13.8s1.88-.14,2.82-.17l3-.06c.51,0,1,0,1.52,0,.32,0,.64-.09,1-.07a3.24,3.24,0,0,0,1.42,0,.6.6,0,0,1,.29,0,8,8,0,0,0,2-.07,9.15,9.15,0,0,1,1.48,0c.48,0,1,.07,1.44,0,1,0,2-.14,2.93-.13.58,0,1.16.07,1.76,0a22.69,22.69,0,0,1,2.73.08l2.79.13a2.36,2.36,0,0,0,.38,0,9.49,9.49,0,0,1,2.26.06,6.73,6.73,0,0,0,1.1,0,10,10,0,0,1,1.34,0,5,5,0,0,1,1.48.16c.07,0,.18,0,.28,0a7.5,7.5,0,0,1,1.34,0,3.63,3.63,0,0,0,1.14,0,19,19,0,0,1,3.46-.12,22,22,0,0,1,4.36.36.93.93,0,0,0,.33,0c.83,0,1.66,0,2.49,0,.5,0,1,0,1.49.07l.76.06c.94,0,1.88-.15,2.83,0a1.18,1.18,0,0,1,1.12,1.14,1.25,1.25,0,0,0,.08.42,1.07,1.07,0,0,1-.27,1.22,18.11,18.11,0,0,0-2.54,3.49c-.4.68-.83,1.34-1.25,2-.32.5-.67,1-1,1.48-.46.77-.86,1.57-1.34,2.34s-.91,1.31-1.36,2a2.39,2.39,0,0,0-.13.21c-.52,1-1,2.1-1.58,3.13-.65,1.2-1.34,2.37-2,3.56q-.18.3-.39.6c-.47.65-1,1.29-1.41,1.94-.2.31-.35.65-.54,1-.08.12-.18.22-.27.33a3.91,3.91,0,0,0-.56.59c-.35.53-.66,1.08-1,1.62,0,0,0,0,0,.05l-1.64,2.77c-.33.55-.69,1.09-1,1.65a22.47,22.47,0,0,1-1.59,2.5c-.44.61-.89,1.21-1.3,1.84-.55.82-1.15,1.62-1.75,2.41a7.75,7.75,0,0,0-1.16,2,3.53,3.53,0,0,1-.39.71,10,10,0,0,0-.61,1c-.59,1.3-1.43,2.47-2.14,3.7-.26.44-.54.87-.81,1.31a15,15,0,0,1-1.53,2.27,3.35,3.35,0,0,0-.41.52c-.44.62-.86,1.24-1.3,1.85A2.5,2.5,0,0,0,28.3,67a2.26,2.26,0,0,1-.33.79c-.13.25-.3.49-.44.74A17.09,17.09,0,0,1,26.69,70a10.7,10.7,0,0,0-1.31,2,10.4,10.4,0,0,1-1,1.59.47.47,0,0,1-.13.15,3.74,3.74,0,0,0-1.07,1.61c-.26.48-.48,1-.76,1.45-.4.64-.83,1.26-1.26,1.88-.18.28-.41.54-.59.82-.29.44-.56.89-.85,1.34-.58.88-1.16,1.76-1.75,2.64l-.61.87a1,1,0,0,0-.18.28,3.13,3.13,0,0,1-.56,1,15.66,15.66,0,0,0-.94,1.5A14.08,14.08,0,0,1,14,89.89a.41.41,0,0,0-.1.21,2.82,2.82,0,0,1-.54,1c-.1.15-.18.31-.27.45s-.38.56-.58.82-.64.77-.91,1.18A30.28,30.28,0,0,0,9.48,97a10.14,10.14,0,0,0-.55.95,6.68,6.68,0,0,1-.71,1.35c-.24.34-.38.73-.61,1.08-.37.56-.78,1.09-1.16,1.65s-.65,1-1,1.48-.47.72-.69,1.09a4.37,4.37,0,0,0-.47.84,2.44,2.44,0,0,1-.51.85,2.09,2.09,0,0,0-.2.22.29.29,0,0,0,.18.48,1.91,1.91,0,0,0,.48,0c1.63.06,3.27.12,4.9.16.79,0,1.57,0,2.36,0,.56,0,1.12,0,1.68,0s1.27-.12,1.91-.18c.21,0,.42,0,.63,0a7.3,7.3,0,0,0,.81,0,7.49,7.49,0,0,1,2.06.06,4.53,4.53,0,0,0,.52,0c1,0,2-.06,3-.06.36,0,.73.1,1.09.1a5.87,5.87,0,0,1,1.39.06,1.88,1.88,0,0,0,.53,0l2-.06.15,0a13.68,13.68,0,0,0,3.26,0,6.25,6.25,0,0,1,1,.11c.85,0,1.71,0,2.56,0s1.43,0,2.15,0,1.43.18,2.14.2a24.57,24.57,0,0,0,5,0h2.74c.2,0,.41,0,.62,0,.38,0,.76.09,1.15.11l3.17.1a6.11,6.11,0,0,0,1.35,0,6.58,6.58,0,0,1,1.66,0c.37,0,.74,0,1.11,0,1.08,0,2.17.1,3.26.12.88,0,1.77,0,2.64-.05.71-.06,1.42,0,2.13,0s1.18.06,1.77.07c1.16,0,2.32,0,3.47,0,1.52.1,3-.11,4.57.09a32.4,32.4,0,0,0,3.27.17c.88,0,1.77.06,2.65.08a4.36,4.36,0,0,0,.72-.05,5.32,5.32,0,0,1,2.38.08c.15,0,.31,0,.48.07a2,2,0,0,0,.07-.33c0-.62,0-1.25,0-1.87s.11-1.41.17-2.11c0-.06.06-.12.07-.18a4.19,4.19,0,0,0,.09-.7c0-1.13-.11-2.26-.16-3.39,0-.41,0-.83,0-1.3l-.93-.05H80.74l-1.25,0c-.16,0-.32,0-.48,0-.76-.06-1.53-.15-2.3-.2-.94-.06-1.89-.08-2.84-.14s-1.79-.13-2.69-.19c-.51,0-1,0-1.53-.13a5.56,5.56,0,0,0-1.29,0c-.72,0-1.44.06-2.16,0s-1.6-.09-2.4-.1-1.67,0-2.51.07c-.53,0-1.06.06-1.59,0-.83,0-1.66-.09-2.49-.1A21.65,21.65,0,0,0,54,97.45a13,13,0,0,1-2-.07c-1.4,0-2.79-.12-4.19-.13a22.54,22.54,0,0,1-2.6,0,5.35,5.35,0,0,0-1.2,0,45.38,45.38,0,0,1-4.81.15,3.85,3.85,0,0,0-.48,0c-.73.06-1.47.13-2.2.17-.29,0-.58,0-.87,0l-2.79,0c-.73,0-1.47,0-2.21-.06s-1.21,0-1.82-.1-1.1-.2-1.66-.29-1-.16-1.42-.24c-1.07-.17-1.2-1.2-.77-2A18.86,18.86,0,0,0,26.11,93a4.84,4.84,0,0,1,.8-1.25,13.09,13.09,0,0,0,1.78-3,22.56,22.56,0,0,1,1.65-2.65c.36-.51.71-1,1-1.56.16-.25.22-.57.39-.81.3-.44.66-.83,1-1.25a6.56,6.56,0,0,0,.85-1.15,14.42,14.42,0,0,1,.91-1.58c.32-.52.66-1,.94-1.56.53-1,1-2.08,1.54-3.1a17.16,17.16,0,0,1,1.52-2.32,7.1,7.1,0,0,0,.5-.76q1-2,2.24-3.81c.11-.18.19-.37.3-.54s.34-.43.48-.66c.28-.45.53-.91.82-1.35s.78-1.1,1.16-1.65c.1-.14.18-.3.28-.44.48-.79,1-1.58,1.46-2.37.34-.53.68-1,1-1.59.24-.38.44-.78.67-1.17l1.14-1.89c.2-.35.38-.71.6-1s.62-.82.9-1.25.59-1,.89-1.54a4.23,4.23,0,0,1,.33-.53c.2-.26.44-.51.63-.78.32-.46.59-1,.93-1.4a24.93,24.93,0,0,0,1.88-3.19c.32-.57.61-1.17.93-1.74s.6-1,.9-1.48c.13-.2.24-.42.39-.61a5.56,5.56,0,0,0,1-2,1.11,1.11,0,0,1,.16-.35c.23-.34.48-.68.7-1,.35-.59.66-1.21,1-1.78.83-1.28,1.68-2.55,2.53-3.81a29.89,29.89,0,0,1,1.75-2.53,12.93,12.93,0,0,0,1.51-2.45c.36-.7.76-1.37,1.15-2.05.13-.22.34-.39.45-.61a7.87,7.87,0,0,1,1.41-2.23.53.53,0,0,0,.11-.15l.83-1.52.27-.45c.26-.42.55-.83.77-1.27a17.19,17.19,0,0,1,1-2c.35-.52.61-1.1,1-1.6a20.67,20.67,0,0,0,1.77-2.74,13,13,0,0,1,1.36-1.91,1.56,1.56,0,0,0,.46-.83c0-.08.08-.17.14-.24.3-.36.64-.68.9-1.06a4.06,4.06,0,0,0,.93-1.57,4.07,4.07,0,0,0,.46-.41c.33-.42.43-1,.9-1.32,0,0,.06-.15.1-.21s.21-.32.32-.47.18-.22.25-.34a3.5,3.5,0,0,1,.9-1.29.43.43,0,0,0,.13-.19,4.2,4.2,0,0,1,.52-1c.32-.34.36-.81.64-1.16a.26.26,0,0,0,0-.22A3.51,3.51,0,0,0,82.18,2c-.21.29-.45.15-.7.08a1.91,1.91,0,0,0-.41-.11c-.47,0-.95,0-1.42,0l-.28-.06a2.86,2.86,0,0,0-1.48-.14,1.53,1.53,0,0,1-.43,0c-.49,0-1,0-1.48,0a5.34,5.34,0,0,1-1.91.05.45.45,0,0,0-.23,0,2.93,2.93,0,0,1-1.18,0,1.64,1.64,0,0,0-.38,0c-.34,0-.67.12-1,.13A12.72,12.72,0,0,0,69.76,2,3.5,3.5,0,0,1,68.43,2c-.1,0-.23.07-.36.11l-.26-.26A1,1,0,0,1,66.64,2l-.1-.37c-.17.13-.29.3-.43.32a4.37,4.37,0,0,1-2,0,.62.62,0,0,0-.33,0,6.18,6.18,0,0,1-1.82.1c-.75,0-1.5-.08-2.25-.08a6.61,6.61,0,0,1-1.54,0,.88.88,0,0,0-.28,0c-.45,0-.9.05-1.34.05-1,0-2.07,0-3.1,0-.21,0-.41,0-.62,0-1.11,0-2.21,0-3.32.06-.83,0-1.66-.05-2.49-.05l-2.83,0A7.81,7.81,0,0,0,43.27,2,4.29,4.29,0,0,1,42.08,2,8.2,8.2,0,0,0,41,1.89c-.3,0-.59.13-.89.16L38,2.23h-.34c-.25,0-.51,0-.77,0a11.56,11.56,0,0,1-1.43.09,19.13,19.13,0,0,0-2.83,0c-.26,0-.51,0-.77,0-.65,0-1.31-.08-2-.09-.46,0-.93,0-1.39,0-.69,0-1.38,0-2.07,0-.94,0-1.89,0-2.83,0a15,15,0,0,0-1.64,0,6.41,6.41,0,0,1-1.86-.11c-1.29-.25-2.59-.06-3.87-.21h-.15l-2.88.07c-.25,0-.51,0-.76,0s-.32,0-.47,0c-.59,0-1.18.09-1.77.11S9.11,2,8.55,2c-.29,0-.57.12-.82-.12,0,0-.12,0-.18,0-.55.07-1.1.16-1.65.2s-.92,0-1.37,0S4,2.27,4,2.69c0,.21,0,.41,0,.62,0,.4,0,.79,0,1.19,0,.65-.3,1.28-.07,1.93,0,0,0,.06,0,.1a2.8,2.8,0,0,0,0,1.38.62.62,0,0,1,0,.23c0,.21,0,.42-.05.62,0,.35,0,.7-.08,1a.75.75,0,0,1-.21.3,2.4,2.4,0,0,1-.25.18l.44.23a5.12,5.12,0,0,0,0,1,2.32,2.32,0,0,1,.06.7C3.73,12.71,3.74,13.27,3.74,13.82ZM79,1c.37,0,.37,0,.55-.15C79.3.67,79.3.67,79,1ZM82.55.83c.25.3.27.29.46,0ZM81.76,5.5c.19-.16.22-.24.12-.34s-.06,0-.09,0Zm.68-1.32.11.12.18-.21s0-.07,0-.06A1.58,1.58,0,0,0,82.44,4.18ZM68.92,26l-.1,0s0,.07.06.09.06,0,.08,0Z"/><path class="cls-1" d="M64.63,92.4a1.29,1.29,0,0,1-1-.53A1.57,1.57,0,0,1,64.63,92.4Z"/><path class="cls-1" d="M82.72,16l-.13,0s0-.07,0-.07h.09S82.71,15.94,82.72,16Z"/><path class="cls-1" d="M3.74,13.82c0-.55,0-1.11,0-1.66a2.32,2.32,0,0,0-.06-.7,5.12,5.12,0,0,1,0-1l-.44-.23a2.4,2.4,0,0,0,.25-.18.75.75,0,0,0,.21-.3c0-.34.06-.69.08-1,0-.2,0-.41.05-.62a.62.62,0,0,0,0-.23,2.8,2.8,0,0,1,0-1.38s0-.07,0-.1C3.71,5.78,4,5.15,4,4.5c0-.4,0-.79,0-1.19,0-.21,0-.41,0-.62,0-.42.1-.58.53-.6s.92,0,1.37,0,1.1-.13,1.65-.2c.06,0,.15,0,.18,0,.25.24.53.13.82.12.56,0,1.12,0,1.68,0S11.41,1.93,12,1.9c.15,0,.31,0,.47,0s.51,0,.76,0l2.88-.07h.15c1.28.15,2.58,0,3.87.21A6.41,6.41,0,0,0,22,2.16a15,15,0,0,1,1.64,0c.94,0,1.89,0,2.83,0,.69,0,1.38,0,2.07,0,.46,0,.93,0,1.39,0,.66,0,1.32.07,2,.09.26,0,.51,0,.77,0a19.13,19.13,0,0,1,2.83,0,11.56,11.56,0,0,0,1.43-.09c.26,0,.52,0,.77,0H38l2.06-.18c.3,0,.59-.14.89-.16a8.2,8.2,0,0,1,1.1.06A4.29,4.29,0,0,0,43.27,2a7.81,7.81,0,0,1,.95.09l2.83,0c.83,0,1.66.05,2.49.05,1.11,0,2.21,0,3.32-.06.21,0,.41,0,.62,0,1,0,2.06,0,3.1,0,.44,0,.89,0,1.34-.05a.88.88,0,0,1,.28,0,6.61,6.61,0,0,0,1.54,0c.75,0,1.5,0,2.25.08A6.18,6.18,0,0,0,63.81,2a.62.62,0,0,1,.33,0,4.37,4.37,0,0,0,2,0c.14,0,.26-.19.43-.32,0,.12.07.24.1.37a1,1,0,0,0,1.17-.15l.26.26c.13,0,.26-.14.36-.11A3.5,3.5,0,0,0,69.76,2a12.72,12.72,0,0,1,1.51-.07c.34,0,.67-.09,1-.13a1.64,1.64,0,0,1,.38,0,2.93,2.93,0,0,0,1.18,0,.45.45,0,0,1,.23,0A5.34,5.34,0,0,0,76,1.76c.49-.05,1,0,1.48,0a1.53,1.53,0,0,0,.43,0,2.86,2.86,0,0,1,1.48.14l.28.06c.47,0,.95,0,1.42,0a1.91,1.91,0,0,1,.41.11c.25.07.49.21.7-.08a3.51,3.51,0,0,1,.29.37.26.26,0,0,1,0,.22c-.28.35-.32.82-.64,1.16a4.2,4.2,0,0,0-.52,1,.43.43,0,0,1-.13.19,3.5,3.5,0,0,0-.9,1.29c-.07.12-.17.22-.25.34s-.22.31-.32.47,0,.17-.1.21c-.47.33-.57.9-.9,1.32a4.07,4.07,0,0,1-.46.41,4.06,4.06,0,0,1-.93,1.57c-.26.38-.6.7-.9,1.06-.06.07-.14.16-.14.24a1.56,1.56,0,0,1-.46.83,13,13,0,0,0-1.36,1.91,20.67,20.67,0,0,1-1.77,2.74c-.38.5-.64,1.08-1,1.6a17.19,17.19,0,0,0-1,2c-.22.44-.51.85-.77,1.27l-.27.45-.83,1.52a.53.53,0,0,1-.11.15,7.87,7.87,0,0,0-1.41,2.23c-.11.22-.32.39-.45.61-.39.68-.79,1.35-1.15,2.05a12.93,12.93,0,0,1-1.51,2.45,29.89,29.89,0,0,0-1.75,2.53c-.85,1.26-1.7,2.53-2.53,3.81-.38.57-.69,1.19-1,1.78-.22.35-.47.69-.7,1a1.11,1.11,0,0,0-.16.35,5.56,5.56,0,0,1-1,2c-.15.19-.26.41-.39.61-.3.5-.61,1-.9,1.48s-.61,1.17-.93,1.74a24.93,24.93,0,0,1-1.88,3.19c-.34.44-.61.94-.93,1.4-.19.27-.43.52-.63.78a4.23,4.23,0,0,0-.33.53c-.3.51-.57,1-.89,1.54s-.62.82-.9,1.25-.4.69-.6,1L47.43,58.5c-.23.39-.43.79-.67,1.17-.32.54-.66,1.06-1,1.59-.49.79-1,1.58-1.46,2.37-.1.14-.18.3-.28.44-.38.55-.79,1.09-1.16,1.65s-.54.9-.82,1.35c-.14.23-.33.43-.48.66s-.19.36-.3.54q-1.2,1.85-2.24,3.81a7.1,7.1,0,0,1-.5.76A17.16,17.16,0,0,0,37,75.16c-.53,1-1,2.07-1.54,3.1-.28.54-.62,1-.94,1.56a14.42,14.42,0,0,0-.91,1.58,6.56,6.56,0,0,1-.85,1.15c-.33.42-.69.81-1,1.25-.17.24-.23.56-.39.81-.33.53-.68,1-1,1.56a22.56,22.56,0,0,0-1.65,2.65,13.09,13.09,0,0,1-1.78,3,4.84,4.84,0,0,0-.8,1.25A18.86,18.86,0,0,1,25,94.92c-.43.76-.3,1.79.77,2,.47.08.95.15,1.42.24s1.11.23,1.66.29,1.22.07,1.82.1,1.48.06,2.21.06l2.79,0c.29,0,.58.07.87,0,.73,0,1.47-.11,2.2-.17a3.85,3.85,0,0,1,.48,0A45.38,45.38,0,0,0,44,97.26a5.35,5.35,0,0,1,1.2,0,22.54,22.54,0,0,0,2.6,0c1.4,0,2.79.08,4.19.13a13,13,0,0,0,2,.07,21.65,21.65,0,0,1,3.22.08c.83,0,1.66.08,2.49.1.53,0,1.06,0,1.59,0,.84,0,1.67-.07,2.51-.07s1.6.09,2.4.1,1.44,0,2.16,0a5.56,5.56,0,0,1,1.29,0c.5.09,1,.09,1.53.13.9.06,1.8.14,2.69.19s1.9.08,2.84.14c.77,0,1.54.14,2.3.2.16,0,.32,0,.48,0l1.25,0h1.11l.93.05c0,.47,0,.89,0,1.3,0,1.13.12,2.26.16,3.39a4.19,4.19,0,0,1-.09.7c0,.06-.06.12-.07.18-.06.7-.13,1.4-.17,2.11s0,1.25,0,1.87a2,2,0,0,1-.07.33c-.17,0-.33,0-.48-.07a5.32,5.32,0,0,0-2.38-.08,4.36,4.36,0,0,1-.72.05c-.88,0-1.77,0-2.65-.08A32.4,32.4,0,0,1,73,107.9c-1.53-.2-3.05,0-4.57-.09-1.15-.08-2.31,0-3.47,0-.59,0-1.18-.07-1.77-.07s-1.42,0-2.13,0c-.87.07-1.76.06-2.64.05-1.09,0-2.18-.09-3.26-.12-.37,0-.74.06-1.11,0a6.58,6.58,0,0,0-1.66,0,6.11,6.11,0,0,1-1.35,0l-3.17-.1c-.39,0-.77-.08-1.15-.11-.21,0-.42,0-.62,0H43.4a24.57,24.57,0,0,1-5,0c-.71,0-1.42-.17-2.14-.2s-1.44,0-2.15,0-1.71,0-2.56,0a6.25,6.25,0,0,0-1-.11,13.68,13.68,0,0,1-3.26,0l-.15,0-2,.06a1.88,1.88,0,0,1-.53,0,5.87,5.87,0,0,0-1.39-.06c-.36,0-.73-.1-1.09-.1-1,0-2,0-3,.06a4.53,4.53,0,0,1-.52,0,7.49,7.49,0,0,0-2.06-.06,7.3,7.3,0,0,1-.81,0c-.21,0-.42,0-.63,0-.64.06-1.27.15-1.91.18s-1.12,0-1.68,0c-.79,0-1.57,0-2.36,0-1.63,0-3.27-.1-4.9-.16a1.91,1.91,0,0,1-.48,0,.29.29,0,0,1-.18-.48,2.09,2.09,0,0,1,.2-.22,2.44,2.44,0,0,0,.51-.85,4.37,4.37,0,0,1,.47-.84c.22-.37.45-.73.69-1.09s.63-1,1-1.48.79-1.09,1.16-1.65c.23-.35.37-.74.61-1.08A6.68,6.68,0,0,0,8.93,98,10.14,10.14,0,0,1,9.48,97a30.28,30.28,0,0,1,2.13-3.48c.27-.41.61-.78.91-1.18s.39-.54.58-.82.17-.3.27-.45a2.82,2.82,0,0,0,.54-1,.41.41,0,0,1,.1-.21,14.08,14.08,0,0,0,1.7-2.74,15.66,15.66,0,0,1,.94-1.5,3.13,3.13,0,0,0,.56-1,1,1,0,0,1,.18-.28l.61-.87c.59-.88,1.17-1.76,1.75-2.64.29-.45.56-.9.85-1.34.18-.28.41-.54.59-.82.43-.62.86-1.24,1.26-1.88.28-.47.5-1,.76-1.45a3.74,3.74,0,0,1,1.07-1.61.47.47,0,0,0,.13-.15,10.4,10.4,0,0,0,1-1.59,10.7,10.7,0,0,1,1.31-2,17.09,17.09,0,0,0,.84-1.51c.14-.25.31-.49.44-.74A2.26,2.26,0,0,0,28.3,67a2.5,2.5,0,0,1,.6-1.28c.44-.61.86-1.23,1.3-1.85a3.35,3.35,0,0,1,.41-.52,15,15,0,0,0,1.53-2.27c.27-.44.55-.87.81-1.31.71-1.23,1.55-2.4,2.14-3.7a10,10,0,0,1,.61-1,3.53,3.53,0,0,0,.39-.71,7.75,7.75,0,0,1,1.16-2c.6-.79,1.2-1.59,1.75-2.41.41-.63.86-1.23,1.3-1.84a22.47,22.47,0,0,0,1.59-2.5c.31-.56.67-1.1,1-1.65l1.64-2.77s0,0,0-.05c.33-.54.64-1.09,1-1.62a3.91,3.91,0,0,1,.56-.59c.09-.11.19-.21.27-.33.19-.31.34-.65.54-1,.46-.65.94-1.29,1.41-1.94q.21-.3.39-.6c.68-1.19,1.37-2.36,2-3.56.56-1,1.06-2.09,1.58-3.13a2.39,2.39,0,0,1,.13-.21c.45-.66.94-1.3,1.36-2s.88-1.57,1.34-2.34c.3-.51.65-1,1-1.48.42-.66.85-1.32,1.25-2A18.11,18.11,0,0,1,59.9,16.9a1.07,1.07,0,0,0,.27-1.22,1.25,1.25,0,0,1-.08-.42A1.18,1.18,0,0,0,59,14.12c-.95-.11-1.89.08-2.83,0l-.76-.06c-.5,0-1-.07-1.49-.07-.83,0-1.66,0-2.49,0a.93.93,0,0,1-.33,0,22,22,0,0,0-4.36-.36,19,19,0,0,0-3.46.12,3.63,3.63,0,0,1-1.14,0,7.5,7.5,0,0,0-1.34,0c-.1,0-.21.07-.28,0A5,5,0,0,0,39,13.68a10,10,0,0,0-1.34,0,6.73,6.73,0,0,1-1.1,0,9.49,9.49,0,0,0-2.26-.06,2.36,2.36,0,0,1-.38,0l-2.79-.13a22.69,22.69,0,0,0-2.73-.08c-.6,0-1.18,0-1.76,0-1,0-1.95.1-2.93.13-.48,0-1,0-1.44,0a9.15,9.15,0,0,0-1.48,0,8,8,0,0,1-2,.07.6.6,0,0,0-.29,0,3.24,3.24,0,0,1-1.42,0c-.32,0-.64.07-1,.07-.5,0-1,0-1.52,0l-3,.06c-.94,0-1.88.06-2.82.17S7,14,6.07,14A7,7,0,0,1,5.16,14a1.81,1.81,0,0,0-.52,0A1.08,1.08,0,0,1,3.74,13.82Z"/><path class="cls-1" d="M79,1c.3-.34.3-.34.55-.15C79.37,1,79.37,1,79,1Z"/><path class="cls-1" d="M82.55.83H83C82.82,1.12,82.8,1.13,82.55.83Z"/><path class="cls-1" d="M81.76,5.5l0-.36s.07,0,.09,0S82,5.34,81.76,5.5Z"/><path class="cls-1" d="M82.44,4.18A1.58,1.58,0,0,1,82.68,4s0,.06,0,.06l-.18.21Z"/><path class="cls-1" d="M68.92,26l0,.11s-.06,0-.08,0,0-.06-.06-.09Z"/></svg>